<svg width="495" height="800" viewBox="0 0 495 800" xmlns="http://www.w3.org/2000/svg" shape-rendering="geometricPrecision">
  <path d="M 59.00 3.00 L 66.00 17.00 L 59.00 19.00 L 69.00 9.00 L 62.00 12.00 L 59.00 4.00" fill="none" stroke="#000000" stroke-width="1.79" />
  <path d="M 126.00 3.00 L 129.00 8.00 L 125.00 4.00 L 121.00 10.00" fill="none" stroke="#000000" stroke-width="1.79" />
  <path d="M 24.00 4.00 L 28.00 12.00 L 24.00 8.00" fill="none" stroke="#000000" stroke-width="1.79" />
  <path d="M 234.00 4.00 L 241.00 11.00 L 233.00 5.00" fill="none" stroke="#000000" stroke-width="1.79" />
  <path d="M 425.00 4.00 L 429.00 11.00 L 428.00 4.00" fill="none" stroke="#000000" stroke-width="1.79" />
  <path d="M 168.00 5.00 L 175.00 13.00 L 170.00 8.00 L 178.00 7.00 L 170.00 6.00" fill="none" stroke="#000000" stroke-width="1.79" />
  <path d="M 282.00 5.00 L 286.00 12.00 L 282.00 6.00" fill="none" stroke="#000000" stroke-width="1.79" />
  <path d="M 346.00 5.00 L 350.00 12.00 L 346.00 7.00" fill="none" stroke="#000000" stroke-width="1.79" />
  <path d="M 355.00 5.00 L 360.00 8.00 L 356.00 5.00 L 352.00 12.00" fill="none" stroke="#000000" stroke-width="1.79" />
  <path d="M 396.00 6.00 L 391.00 14.00 L 394.00 7.00" fill="none" stroke="#000000" stroke-width="1.79" />
  <path d="M 196.00 7.00 L 202.00 8.00 L 196.00 12.00 L 197.00 7.00" fill="none" stroke="#000000" stroke-width="1.79" />
  <path d="M 16.00 10.00 L 15.00 26.00 L 14.00 14.00" fill="none" stroke="#000000" stroke-width="1.79" />
  <path d="M 359.00 10.00 L 354.00 13.00 L 358.00 17.00 L 354.00 14.00" fill="none" stroke="#000000" stroke-width="1.79" />
  <path d="M 476.00 14.00 L 481.00 19.00 L 481.00 60.00 L 478.00 15.00" fill="none" stroke="#000000" stroke-width="1.79" />
  <path d="M 6.00 38.00 L 7.00 52.00 L 3.00 54.00 L 5.00 39.00" fill="none" stroke="#000000" stroke-width="1.79" />
  <path d="M 12.00 52.00 L 13.00 76.00 L 11.00 55.00" fill="none" stroke="#000000" stroke-width="1.79" />
  <path d="M 2.00 60.00 L 7.00 68.00 L 1.00 65.00 L 5.00 60.00" fill="none" stroke="#000000" stroke-width="1.79" />
  <path d="M 480.00 62.00 L 481.00 92.00 L 481.00 62.00" fill="none" stroke="#000000" stroke-width="1.79" />
  <path d="M 6.00 70.00 L 9.00 77.00 L 1.00 77.00 L 1.00 72.00" fill="none" stroke="#000000" stroke-width="1.79" />
  <path d="M 6.00 80.00 L 8.00 90.00 L 2.00 81.00" fill="none" stroke="#000000" stroke-width="1.79" />
  <path d="M 364.00 85.00 L 383.00 92.00 L 379.00 119.00 L 382.00 90.00 L 372.00 85.00 L 358.00 89.00" fill="none" stroke="#000000" stroke-width="1.79" />
  <path d="M 12.00 89.00 L 12.00 96.00 L 5.00 96.00 L 12.00 93.00" fill="none" stroke="#000000" stroke-width="1.79" />
  <path d="M 9.00 99.00 L 6.00 103.00 L 13.00 104.00 L 6.00 101.00" fill="none" stroke="#000000" stroke-width="1.79" />
  <path d="M 359.00 99.00 L 364.00 137.00 L 359.00 105.00" fill="none" stroke="#000000" stroke-width="1.79" />
  <path d="M 361.00 99.00 L 366.00 115.00 L 381.00 128.00 L 366.00 116.00 L 362.00 99.00" fill="none" stroke="#000000" stroke-width="1.79" />
  <path d="M 481.00 101.00 L 481.00 146.00 L 480.00 104.00" fill="none" stroke="#000000" stroke-width="1.79" />
  <path d="M 369.00 138.00 L 361.00 159.00 L 369.00 141.00" fill="none" stroke="#000000" stroke-width="1.79" />
  <path d="M 377.00 138.00 L 412.00 143.00 L 428.00 154.00 L 430.00 165.00 L 426.00 151.00 L 410.00 142.00 L 376.00 139.00" fill="none" stroke="#000000" stroke-width="1.79" />
  <path d="M 362.00 140.00 L 366.00 144.00 L 362.00 148.00 L 361.00 141.00 L 355.00 147.00 L 347.00 166.00 L 354.00 210.00 L 346.00 171.00 L 354.00 148.00" fill="none" stroke="#000000" stroke-width="1.79" />
  <path d="M 380.00 141.00 L 368.00 160.00 L 368.00 179.00 L 382.00 176.00 L 367.00 179.00 L 373.00 149.00" fill="none" stroke="#000000" stroke-width="1.79" />
  <path d="M 359.00 149.00 L 353.00 168.00 L 356.00 154.00" fill="none" stroke="#000000" stroke-width="1.79" />
  <path d="M 412.00 150.00 L 401.00 162.00" fill="none" stroke="#000000" stroke-width="1.79" />
  <path d="M 421.00 152.00 L 427.00 169.00 L 411.00 208.00 L 398.00 218.00 L 384.00 207.00 L 380.00 213.00 L 383.00 206.00 L 385.00 217.00 L 413.00 203.00 L 424.00 156.00" fill="none" stroke="#000000" stroke-width="1.79" />
  <path d="M 417.00 153.00 L 406.00 170.00 L 406.00 163.00" fill="none" stroke="#000000" stroke-width="1.79" />
  <path d="M 382.00 154.00 L 379.00 166.00 L 374.00 161.00 L 374.00 170.00 L 374.00 160.00" fill="none" stroke="#000000" stroke-width="1.79" />
  <path d="M 165.00 157.00 L 206.00 163.00 L 236.00 186.00 L 215.00 167.00 L 178.00 157.00 L 151.00 160.00 L 131.00 170.00" fill="none" stroke="#000000" stroke-width="1.79" />
  <path d="M 422.00 158.00 L 410.00 185.00 L 422.00 163.00 L 414.00 166.00" fill="none" stroke="#000000" stroke-width="1.79" />
  <path d="M 5.00 162.00 L 16.00 168.00 L 11.00 170.00 L 17.00 176.00 L 6.00 169.00 L 12.00 165.00 L 6.00 162.00" fill="none" stroke="#000000" stroke-width="1.79" />
  <path d="M 361.00 162.00 L 366.00 185.00 L 362.00 191.00 L 362.00 162.00" fill="none" stroke="#000000" stroke-width="1.79" />
  <path d="M 386.00 164.00 L 396.00 181.00 L 403.00 173.00 L 399.00 169.00 L 399.00 177.00 L 392.00 177.00 L 390.00 184.00 L 393.00 168.00 L 386.00 165.00" fill="none" stroke="#000000" stroke-width="1.79" />
  <path d="M 429.00 167.00 L 419.00 198.00 L 429.00 168.00" fill="none" stroke="#000000" stroke-width="1.79" />
  <path d="M 144.00 168.00 L 149.00 170.00 L 143.00 175.00 L 145.00 170.00" fill="none" stroke="#000000" stroke-width="1.79" />
  <path d="M 353.00 170.00 L 357.00 207.00 L 352.00 171.00" fill="none" stroke="#000000" stroke-width="1.79" />
  <path d="M 406.00 172.00 L 409.00 181.00 L 402.00 178.00 L 405.00 173.00" fill="none" stroke="#000000" stroke-width="1.79" />
  <path d="M 387.00 174.00 L 390.00 194.00 L 386.00 175.00" fill="none" stroke="#000000" stroke-width="1.79" />
  <path d="M 125.00 178.00 L 107.00 212.00 L 93.00 224.00 L 110.00 199.00" fill="none" stroke="#000000" stroke-width="1.79" />
  <path d="M 224.00 179.00 L 230.00 186.00 L 224.00 180.00" fill="none" stroke="#000000" stroke-width="1.79" />
  <path d="M 377.00 181.00 L 381.00 188.00 L 378.00 181.00" fill="none" stroke="#000000" stroke-width="1.79" />
  <path d="M 128.00 182.00 L 127.00 190.00 L 155.00 187.00 L 151.00 191.00 L 151.00 184.00 L 136.00 183.00 L 121.00 191.00 L 127.00 184.00" fill="none" stroke="#000000" stroke-width="1.79" />
  <path d="M 157.00 187.00 L 171.00 194.00 L 190.00 193.00 L 180.00 197.00 L 158.00 187.00" fill="none" stroke="#000000" stroke-width="1.79" />
  <path d="M 383.00 189.00 L 387.00 198.00 L 378.00 193.00" fill="none" stroke="#000000" stroke-width="1.79" />
  <path d="M 130.00 192.00 L 137.00 198.00 L 140.00 192.00 L 137.00 197.00 L 131.00 192.00 L 129.00 199.00 L 123.00 195.00" fill="none" stroke="#000000" stroke-width="1.79" />
  <path d="M 232.00 192.00 L 245.00 214.00 L 253.00 211.00 L 249.00 221.00 L 233.00 192.00" fill="none" stroke="#000000" stroke-width="1.79" />
  <path d="M 360.00 192.00 L 361.00 213.00 L 349.00 251.00 L 357.00 257.00 L 349.00 256.00 L 339.00 278.00 L 343.00 283.00 L 339.00 281.00 L 327.00 296.00 L 349.00 255.00 L 360.00 193.00" fill="none" stroke="#000000" stroke-width="1.79" />
  <path d="M 157.00 193.00 L 155.00 199.00 L 160.00 201.00 L 155.00 207.00 L 158.00 210.00 L 164.00 203.00 L 156.00 212.00 L 153.00 202.00" fill="none" stroke="#000000" stroke-width="1.79" />
  <path d="M 212.00 194.00 L 227.00 201.00 L 233.00 197.00 L 230.00 210.00 L 232.00 201.00 L 214.00 194.00 L 209.00 199.00 L 214.00 203.00 L 210.00 195.00" fill="none" stroke="#000000" stroke-width="1.79" />
  <path d="M 149.00 195.00 L 144.00 205.00 L 150.00 195.00" fill="none" stroke="#000000" stroke-width="1.79" />
  <path d="M 246.00 195.00 L 253.00 209.00 L 240.00 198.00 L 247.00 195.00" fill="none" stroke="#000000" stroke-width="1.79" />
  <path d="M 191.00 199.00 L 195.00 206.00 L 191.00 200.00" fill="none" stroke="#000000" stroke-width="1.79" />
  <path d="M 372.00 199.00 L 370.00 213.00 L 371.00 201.00" fill="none" stroke="#000000" stroke-width="1.79" />
  <path d="M 418.00 202.00 L 408.00 219.00 L 417.00 205.00" fill="none" stroke="#000000" stroke-width="1.79" />
  <path d="M 121.00 204.00 L 127.00 208.00 L 128.00 204.00 L 126.00 209.00" fill="none" stroke="#000000" stroke-width="1.79" />
  <path d="M 148.00 206.00 L 154.00 214.00 L 146.00 212.00 L 144.00 207.00 L 151.00 208.00" fill="none" stroke="#000000" stroke-width="1.79" />
  <path d="M 163.00 207.00 L 171.00 210.00 L 162.00 210.00 L 164.00 218.00 L 161.00 210.00" fill="none" stroke="#000000" stroke-width="1.79" />
  <path d="M 481.00 208.00 L 481.00 224.00 L 476.00 226.00 L 481.00 213.00" fill="none" stroke="#000000" stroke-width="1.79" />
  <path d="M 131.00 209.00 L 124.00 219.00 L 116.00 216.00 L 129.00 211.00" fill="none" stroke="#000000" stroke-width="1.79" />
  <path d="M 170.00 212.00 L 166.00 227.00 L 171.00 233.00 L 165.00 227.00 L 169.00 214.00" fill="none" stroke="#000000" stroke-width="1.79" />
  <path d="M 135.00 214.00 L 142.00 219.00 L 148.00 214.00 L 140.00 218.00 L 140.00 214.00 L 139.00 220.00 L 138.00 216.00" fill="none" stroke="#000000" stroke-width="1.79" />
  <path d="M 370.00 215.00 L 365.00 229.00 L 362.00 220.00 L 367.00 218.00" fill="none" stroke="#000000" stroke-width="1.79" />
  <path d="M 133.00 219.00 L 141.00 231.00 L 137.00 233.00 L 133.00 220.00" fill="none" stroke="#000000" stroke-width="1.79" />
  <path d="M 126.00 220.00 L 132.00 223.00 L 126.00 225.00 L 132.00 232.00 L 125.00 228.00 L 127.00 222.00" fill="none" stroke="#000000" stroke-width="1.79" />
  <path d="M 151.00 220.00 L 163.00 240.00 L 177.00 240.00 L 161.00 236.00 L 159.00 241.00 L 161.00 232.00 L 152.00 223.00" fill="none" stroke="#000000" stroke-width="1.79" />
  <path d="M 144.00 221.00 L 151.00 230.00 L 143.00 222.00" fill="none" stroke="#000000" stroke-width="1.79" />
  <path d="M 240.00 221.00 L 260.00 233.00 L 239.00 223.00 L 228.00 230.00" fill="none" stroke="#000000" stroke-width="1.79" />
  <path d="M 375.00 221.00 L 379.00 228.00 L 396.00 231.00 L 405.00 224.00 L 396.00 230.00 L 379.00 230.00 L 380.00 225.00 L 377.00 233.00 L 377.00 221.00" fill="none" stroke="#000000" stroke-width="1.79" />
  <path d="M 9.00 222.00 L 10.00 234.00 L 5.00 236.00 L 12.00 242.00 L 11.00 257.00 L 4.00 276.00 L 6.00 298.00 L 12.00 301.00 L 6.00 299.00 L 10.00 254.00 L 4.00 239.00 L 11.00 242.00 L 5.00 231.00" fill="none" stroke="#000000" stroke-width="1.79" />
  <path d="M 184.00 222.00 L 207.00 227.00 L 216.00 235.00 L 225.00 232.00 L 183.00 223.00" fill="none" stroke="#000000" stroke-width="1.79" />
  <path d="M 408.00 223.00 L 421.00 238.00 L 407.00 224.00" fill="none" stroke="#000000" stroke-width="1.79" />
  <path d="M 99.00 226.00 L 102.00 231.00 L 102.00 227.00 L 95.00 231.00" fill="none" stroke="#000000" stroke-width="1.79" />
  <path d="M 107.00 226.00 L 113.00 232.00 L 111.00 246.00 L 114.00 229.00 L 109.00 231.00 L 108.00 226.00" fill="none" stroke="#000000" stroke-width="1.79" />
  <path d="M 175.00 226.00 L 181.00 233.00 L 176.00 226.00" fill="none" stroke="#000000" stroke-width="1.79" />
  <path d="M 242.00 227.00 L 238.00 240.00 L 246.00 240.00 L 238.00 241.00 L 239.00 231.00" fill="none" stroke="#000000" stroke-width="1.79" />
  <path d="M 117.00 228.00 L 120.00 242.00 L 116.00 231.00" fill="none" stroke="#000000" stroke-width="1.79" />
  <path d="M 123.00 230.00 L 136.00 255.00 L 147.00 252.00 L 135.00 256.00 L 140.00 270.00 L 134.00 255.00 L 140.00 250.00 L 136.00 252.00 L 121.00 231.00" fill="none" stroke="#000000" stroke-width="1.79" />
  <path d="M 360.00 231.00 L 368.00 241.00 L 380.00 237.00 L 407.00 242.00 L 410.00 248.00 L 424.00 242.00 L 430.00 254.00 L 427.00 243.00 L 408.00 249.00 L 409.00 243.00 L 398.00 242.00 L 398.00 237.00 L 394.00 242.00 L 379.00 235.00 L 380.00 239.00 L 365.00 239.00 L 364.00 234.00 L 358.00 236.00 L 355.00 251.00 L 359.00 232.00" fill="none" stroke="#000000" stroke-width="1.79" />
  <path d="M 382.00 232.00 L 392.00 237.00 L 390.00 232.00 L 386.00 236.00" fill="none" stroke="#000000" stroke-width="1.79" />
  <path d="M 210.00 233.00 L 206.00 240.00 L 216.00 245.00 L 203.00 237.00" fill="none" stroke="#000000" stroke-width="1.79" />
  <path d="M 131.00 234.00 L 181.00 254.00 L 183.00 248.00 L 194.00 255.00 L 208.00 250.00 L 201.00 262.00 L 209.00 249.00 L 192.00 253.00 L 127.00 237.00" fill="none" stroke="#000000" stroke-width="1.79" />
  <path d="M 107.00 235.00 L 105.00 244.00 L 111.00 248.00 L 94.00 248.00" fill="none" stroke="#000000" stroke-width="1.79" />
  <path d="M 115.00 235.00 L 118.00 245.00 L 116.00 249.00 L 114.00 244.00" fill="none" stroke="#000000" stroke-width="1.79" />
  <path d="M 230.00 236.00 L 236.00 247.00 L 230.00 238.00" fill="none" stroke="#000000" stroke-width="1.79" />
  <path d="M 220.00 237.00 L 223.00 242.00 L 219.00 238.00 L 217.00 242.00" fill="none" stroke="#000000" stroke-width="1.79" />
  <path d="M 263.00 238.00 L 266.00 252.00 L 265.00 238.00 L 247.00 254.00 L 249.00 245.00 L 243.00 252.00 L 237.00 250.00 L 242.00 253.00 L 259.00 241.00" fill="none" stroke="#000000" stroke-width="1.79" />
  <path d="M 378.00 239.00 L 379.00 251.00 L 372.00 252.00 L 376.00 242.00" fill="none" stroke="#000000" stroke-width="1.79" />
  <path d="M 430.00 240.00 L 437.00 244.00 L 430.00 241.00" fill="none" stroke="#000000" stroke-width="1.79" />
  <path d="M 127.00 247.00 L 129.00 260.00 L 130.00 249.00 L 124.00 249.00" fill="none" stroke="#000000" stroke-width="1.79" />
  <path d="M 223.00 247.00 L 234.00 259.00 L 227.00 268.00 L 233.00 257.00 L 223.00 249.00" fill="none" stroke="#000000" stroke-width="1.79" />
  <path d="M 420.00 247.00 L 431.00 278.00 L 421.00 249.00" fill="none" stroke="#000000" stroke-width="1.79" />
  <path d="M 435.00 249.00 L 439.00 273.00 L 432.00 251.00" fill="none" stroke="#000000" stroke-width="1.79" />
  <path d="M 414.00 250.00 L 420.00 256.00 L 414.00 252.00" fill="none" stroke="#000000" stroke-width="1.79" />
  <path d="M 110.00 251.00 L 132.00 271.00 L 122.00 269.00 L 116.00 252.00 L 110.00 253.00" fill="none" stroke="#000000" stroke-width="1.79" />
  <path d="M 93.00 252.00 L 98.00 269.00 L 91.00 256.00" fill="none" stroke="#000000" stroke-width="1.79" />
  <path d="M 237.00 252.00 L 247.00 267.00 L 238.00 252.00" fill="none" stroke="#000000" stroke-width="1.79" />
  <path d="M 175.00 254.00 L 185.00 264.00 L 176.00 254.00" fill="none" stroke="#000000" stroke-width="1.79" />
  <path d="M 372.00 254.00 L 408.00 279.00 L 372.00 262.00 L 373.00 257.00 L 368.00 262.00 L 379.00 254.00 L 366.00 256.00 L 363.00 264.00 L 362.00 258.00" fill="none" stroke="#000000" stroke-width="1.79" />
  <path d="M 96.00 256.00 L 113.00 262.00 L 123.00 273.00 L 110.00 258.00 L 103.00 266.00 L 107.00 258.00 L 98.00 256.00" fill="none" stroke="#000000" stroke-width="1.79" />
  <path d="M 159.00 258.00 L 160.00 268.00 L 176.00 278.00 L 175.00 273.00 L 194.00 269.00 L 163.00 272.00 L 155.00 263.00 L 158.00 259.00" fill="none" stroke="#000000" stroke-width="1.79" />
  <path d="M 143.00 259.00 L 148.00 262.00 L 142.00 267.00 L 143.00 260.00" fill="none" stroke="#000000" stroke-width="1.79" />
  <path d="M 416.00 260.00 L 424.00 268.00 L 413.00 261.00 L 417.00 271.00 L 411.00 263.00 L 408.00 275.00 L 409.00 267.00" fill="none" stroke="#000000" stroke-width="1.79" />
  <path d="M 431.00 260.00 L 436.00 276.00 L 431.00 262.00" fill="none" stroke="#000000" stroke-width="1.79" />
  <path d="M 358.00 261.00 L 364.00 268.00 L 358.00 262.00" fill="none" stroke="#000000" stroke-width="1.79" />
  <path d="M 249.00 262.00 L 251.00 286.00 L 248.00 263.00" fill="none" stroke="#000000" stroke-width="1.79" />
  <path d="M 217.00 266.00 L 200.00 296.00 L 201.00 285.00 L 215.00 267.00" fill="none" stroke="#000000" stroke-width="1.79" />
  <path d="M 352.00 267.00 L 356.00 269.00 L 352.00 281.00 L 355.00 268.00 L 351.00 274.00 L 350.00 269.00" fill="none" stroke="#000000" stroke-width="1.79" />
  <path d="M 219.00 269.00 L 222.00 274.00 L 247.00 270.00 L 219.00 272.00" fill="none" stroke="#000000" stroke-width="1.79" />
  <path d="M 9.00 270.00 L 10.00 288.00 L 11.00 270.00 L 8.00 278.00 L 7.00 271.00" fill="none" stroke="#000000" stroke-width="1.79" />
  <path d="M 193.00 271.00 L 190.00 284.00 L 191.00 275.00 L 187.00 277.00" fill="none" stroke="#000000" stroke-width="1.79" />
  <path d="M 105.00 272.00 L 119.00 293.00 L 102.00 274.00 L 95.00 273.00 L 89.00 285.00 L 90.00 277.00" fill="none" stroke="#000000" stroke-width="1.79" />
  <path d="M 112.00 272.00 L 128.00 283.00 L 127.00 275.00 L 116.00 274.00" fill="none" stroke="#000000" stroke-width="1.79" />
  <path d="M 140.00 272.00 L 146.00 281.00 L 139.00 273.00" fill="none" stroke="#000000" stroke-width="1.79" />
  <path d="M 420.00 275.00 L 426.00 282.00 L 421.00 291.00 L 425.00 280.00 L 416.00 279.00" fill="none" stroke="#000000" stroke-width="1.79" />
  <path d="M 441.00 275.00 L 446.00 291.00 L 441.00 276.00" fill="none" stroke="#000000" stroke-width="1.79" />
  <path d="M 183.00 276.00 L 182.00 300.00 L 197.00 299.00 L 180.00 301.00 L 180.00 311.00 L 181.00 280.00" fill="none" stroke="#000000" stroke-width="1.79" />
  <path d="M 216.00 276.00 L 222.00 284.00 L 224.00 279.00 L 220.00 285.00 L 219.00 281.00" fill="none" stroke="#000000" stroke-width="1.79" />
  <path d="M 97.00 277.00 L 105.00 286.00 L 98.00 277.00" fill="none" stroke="#000000" stroke-width="1.79" />
  <path d="M 360.00 277.00 L 361.00 289.00 L 367.00 292.00 L 369.00 288.00 L 361.00 290.00 L 357.00 279.00" fill="none" stroke="#000000" stroke-width="1.79" />
  <path d="M 368.00 277.00 L 369.00 286.00 L 366.00 278.00" fill="none" stroke="#000000" stroke-width="1.79" />
  <path d="M 382.00 277.00 L 387.00 280.00 L 371.00 282.00" fill="none" stroke="#000000" stroke-width="1.79" />
  <path d="M 392.00 277.00 L 400.00 288.00 L 402.00 281.00 L 396.00 288.00 L 394.00 280.00" fill="none" stroke="#000000" stroke-width="1.79" />
  <path d="M 111.00 278.00 L 120.00 283.00 L 117.00 287.00 L 117.00 278.00 L 110.00 281.00" fill="none" stroke="#000000" stroke-width="1.79" />
  <path d="M 186.00 279.00 L 190.00 288.00 L 195.00 286.00 L 188.00 290.00 L 191.00 297.00 L 187.00 279.00" fill="none" stroke="#000000" stroke-width="1.79" />
  <path d="M 439.00 279.00 L 443.00 296.00 L 439.00 283.00" fill="none" stroke="#000000" stroke-width="1.79" />
  <path d="M 479.00 279.00 L 482.00 292.00 L 480.00 279.00" fill="none" stroke="#000000" stroke-width="1.79" />
  <path d="M 212.00 280.00 L 205.00 288.00 L 209.00 281.00" fill="none" stroke="#000000" stroke-width="1.79" />
  <path d="M 357.00 281.00 L 348.00 292.00" fill="none" stroke="#000000" stroke-width="1.79" />
  <path d="M 383.00 282.00 L 384.00 292.00 L 393.00 297.00 L 390.00 301.00 L 382.00 291.00" fill="none" stroke="#000000" stroke-width="1.79" />
  <path d="M 429.00 284.00 L 436.00 308.00 L 448.00 310.00 L 451.00 342.00 L 447.00 295.00 L 440.00 299.00 L 444.00 308.00 L 433.00 311.00 L 429.00 286.00" fill="none" stroke="#000000" stroke-width="1.79" />
  <path d="M 432.00 284.00 L 439.00 306.00 L 434.00 284.00" fill="none" stroke="#000000" stroke-width="1.79" />
  <path d="M 133.00 285.00 L 167.00 303.00 L 139.00 288.00 L 132.00 291.00 L 133.00 286.00" fill="none" stroke="#000000" stroke-width="1.79" />
  <path d="M 373.00 285.00 L 376.00 296.00 L 380.00 289.00 L 372.00 293.00 L 372.00 286.00" fill="none" stroke="#000000" stroke-width="1.79" />
  <path d="M 122.00 286.00 L 130.00 294.00 L 123.00 296.00 L 120.00 288.00" fill="none" stroke="#000000" stroke-width="1.79" />
  <path d="M 387.00 286.00 L 400.00 296.00 L 387.00 287.00" fill="none" stroke="#000000" stroke-width="1.79" />
  <path d="M 248.00 287.00 L 245.00 293.00 L 260.00 309.00 L 240.00 288.00 L 204.00 293.00" fill="none" stroke="#000000" stroke-width="1.79" />
  <path d="M 98.00 288.00 L 101.00 305.00 L 95.00 290.00" fill="none" stroke="#000000" stroke-width="1.79" />
  <path d="M 111.00 290.00 L 118.00 297.00 L 111.00 291.00" fill="none" stroke="#000000" stroke-width="1.79" />
  <path d="M 87.00 292.00 L 87.00 303.00 L 88.00 292.00" fill="none" stroke="#000000" stroke-width="1.79" />
  <path d="M 482.00 294.00 L 483.00 307.00 L 481.00 295.00" fill="none" stroke="#000000" stroke-width="1.79" />
  <path d="M 142.00 295.00 L 148.00 304.00 L 139.00 297.00" fill="none" stroke="#000000" stroke-width="1.79" />
  <path d="M 129.00 296.00 L 187.00 350.00 L 198.00 339.00 L 189.00 352.00 L 170.00 334.00 L 180.00 350.00 L 164.00 327.00 L 125.00 298.00" fill="none" stroke="#000000" stroke-width="1.79" />
  <path d="M 236.00 296.00 L 235.00 302.00 L 221.00 303.00 L 237.00 296.00" fill="none" stroke="#000000" stroke-width="1.79" />
  <path d="M 363.00 296.00 L 374.00 300.00 L 360.00 297.00" fill="none" stroke="#000000" stroke-width="1.79" />
  <path d="M 380.00 296.00 L 386.00 299.00 L 384.00 303.00 L 381.00 299.00" fill="none" stroke="#000000" stroke-width="1.79" />
  <path d="M 348.00 297.00 L 351.00 320.00 L 347.00 299.00" fill="none" stroke="#000000" stroke-width="1.79" />
  <path d="M 120.00 298.00 L 130.00 308.00 L 121.00 298.00" fill="none" stroke="#000000" stroke-width="1.79" />
  <path d="M 364.00 299.00 L 376.00 308.00 L 373.00 311.00 L 373.00 302.00 L 359.00 307.00" fill="none" stroke="#000000" stroke-width="1.79" />
  <path d="M 140.00 300.00 L 153.00 314.00 L 151.00 306.00 L 164.00 315.00 L 154.00 307.00 L 144.00 308.00 L 140.00 301.00" fill="none" stroke="#000000" stroke-width="1.79" />
  <path d="M 246.00 301.00 L 251.00 307.00 L 247.00 301.00" fill="none" stroke="#000000" stroke-width="1.79" />
  <path d="M 425.00 301.00 L 431.00 301.00 L 423.00 303.00 L 424.00 311.00 L 423.00 302.00" fill="none" stroke="#000000" stroke-width="1.79" />
  <path d="M 6.00 303.00 L 18.00 313.00 L 9.00 312.00 L 8.00 306.00 L 6.00 315.00 L 6.00 306.00" fill="none" stroke="#000000" stroke-width="1.79" />
  <path d="M 170.00 303.00 L 180.00 315.00 L 204.00 325.00 L 224.00 327.00 L 234.00 320.00 L 235.00 315.00 L 226.00 325.00 L 193.00 323.00 L 168.00 305.00" fill="none" stroke="#000000" stroke-width="1.79" />
  <path d="M 389.00 303.00 L 394.00 317.00 L 389.00 304.00" fill="none" stroke="#000000" stroke-width="1.79" />
  <path d="M 87.00 305.00 L 92.00 309.00 L 97.00 305.00 L 88.00 308.00 L 82.00 328.00 L 87.00 309.00" fill="none" stroke="#000000" stroke-width="1.79" />
  <path d="M 183.00 305.00 L 193.00 307.00 L 188.00 312.00 L 184.00 308.00" fill="none" stroke="#000000" stroke-width="1.79" />
  <path d="M 352.00 307.00 L 363.00 320.00 L 359.00 322.00 L 351.00 308.00" fill="none" stroke="#000000" stroke-width="1.79" />
  <path d="M 408.00 308.00 L 420.00 312.00 L 406.00 309.00" fill="none" stroke="#000000" stroke-width="1.79" />
  <path d="M 132.00 309.00 L 188.00 374.00 L 135.00 311.00" fill="none" stroke="#000000" stroke-width="1.79" />
  <path d="M 378.00 309.00 L 384.00 320.00 L 393.00 322.00 L 388.00 332.00 L 393.00 319.00 L 383.00 317.00 L 384.00 325.00 L 382.00 311.00 L 372.00 317.00 L 374.00 327.00 L 371.00 318.00 L 365.00 321.00 L 374.00 314.00 L 376.00 320.00" fill="none" stroke="#000000" stroke-width="1.79" />
  <path d="M 482.00 309.00 L 478.00 315.00 L 472.00 310.00" fill="none" stroke="#000000" stroke-width="1.79" />
  <path d="M 100.00 312.00 L 100.00 318.00 L 85.00 329.00" fill="none" stroke="#000000" stroke-width="1.79" />
  <path d="M 165.00 317.00 L 177.00 324.00 L 166.00 322.00" fill="none" stroke="#000000" stroke-width="1.79" />
  <path d="M 355.00 318.00 L 347.00 332.00 L 354.00 322.00" fill="none" stroke="#000000" stroke-width="1.79" />
  <path d="M 349.00 321.00 L 334.00 342.00 L 328.00 375.00 L 328.00 357.00 L 341.00 331.00" fill="none" stroke="#000000" stroke-width="1.79" />
  <path d="M 95.00 322.00 L 101.00 327.00 L 95.00 323.00 L 99.00 334.00 L 92.00 337.00 L 98.00 327.00" fill="none" stroke="#000000" stroke-width="1.79" />
  <path d="M 177.00 326.00 L 210.00 341.00 L 217.00 335.00 L 213.00 330.00 L 210.00 343.00 L 176.00 327.00" fill="none" stroke="#000000" stroke-width="1.79" />
  <path d="M 9.00 328.00 L 9.00 340.00 L 6.00 333.00" fill="none" stroke="#000000" stroke-width="1.79" />
  <path d="M 234.00 329.00 L 269.00 358.00 L 304.00 360.00 L 272.00 358.00 L 294.00 404.00 L 269.00 357.00 L 235.00 329.00" fill="none" stroke="#000000" stroke-width="1.79" />
  <path d="M 81.00 330.00 L 87.00 337.00 L 82.00 333.00 L 96.00 332.00 L 82.00 330.00" fill="none" stroke="#000000" stroke-width="1.79" />
  <path d="M 379.00 332.00 L 388.00 341.00 L 377.00 336.00 L 368.00 353.00 L 378.00 334.00" fill="none" stroke="#000000" stroke-width="1.79" />
  <path d="M 359.00 334.00 L 364.00 340.00 L 360.00 337.00 L 355.00 348.00 L 351.00 343.00 L 357.00 343.00 L 358.00 335.00" fill="none" stroke="#000000" stroke-width="1.79" />
  <path d="M 221.00 335.00 L 238.00 358.00 L 221.00 339.00" fill="none" stroke="#000000" stroke-width="1.79" />
  <path d="M 341.00 337.00 L 338.00 348.00 L 342.00 337.00" fill="none" stroke="#000000" stroke-width="1.79" />
  <path d="M 483.00 337.00 L 484.00 347.00 L 480.00 341.00" fill="none" stroke="#000000" stroke-width="1.79" />
  <path d="M 94.00 339.00 L 169.00 419.00 L 159.00 415.00 L 118.00 363.00 L 91.00 340.00 L 83.00 343.00 L 58.00 389.00 L 40.00 434.00 L 82.00 345.00" fill="none" stroke="#000000" stroke-width="1.79" />
  <path d="M 216.00 341.00 L 222.00 364.00 L 217.00 341.00" fill="none" stroke="#000000" stroke-width="1.79" />
  <path d="M 169.00 342.00 L 204.00 386.00 L 168.00 343.00" fill="none" stroke="#000000" stroke-width="1.79" />
  <path d="M 245.00 342.00 L 259.00 355.00 L 249.00 344.00" fill="none" stroke="#000000" stroke-width="1.79" />
  <path d="M 221.00 343.00 L 235.00 363.00 L 239.00 388.00 L 247.00 397.00 L 239.00 390.00 L 224.00 348.00" fill="none" stroke="#000000" stroke-width="1.79" />
  <path d="M 199.00 344.00 L 197.00 351.00 L 204.00 357.00 L 197.00 352.00" fill="none" stroke="#000000" stroke-width="1.79" />
  <path d="M 213.00 344.00 L 213.00 358.00 L 209.00 352.00 L 208.00 358.00 L 220.00 375.00 L 208.00 359.00 L 208.00 345.00" fill="none" stroke="#000000" stroke-width="1.79" />
  <path d="M 388.00 344.00 L 398.00 352.00 L 386.00 345.00 L 379.00 356.00 L 384.00 347.00" fill="none" stroke="#000000" stroke-width="1.79" />
  <path d="M 90.00 345.00 L 87.00 358.00 L 87.00 350.00" fill="none" stroke="#000000" stroke-width="1.79" />
  <path d="M 6.00 347.00 L 7.00 357.00 L 7.00 347.00" fill="none" stroke="#000000" stroke-width="1.79" />
  <path d="M 345.00 348.00 L 349.00 350.00 L 343.00 350.00 L 343.00 359.00 L 343.00 349.00" fill="none" stroke="#000000" stroke-width="1.79" />
  <path d="M 390.00 348.00 L 383.00 361.00" fill="none" stroke="#000000" stroke-width="1.79" />
  <path d="M 481.00 348.00 L 482.00 358.00 L 479.00 349.00" fill="none" stroke="#000000" stroke-width="1.79" />
  <path d="M 330.00 352.00 L 305.00 357.00" fill="none" stroke="#000000" stroke-width="1.79" />
  <path d="M 349.00 352.00 L 344.00 366.00 L 348.00 353.00" fill="none" stroke="#000000" stroke-width="1.79" />
  <path d="M 188.00 354.00 L 225.00 413.00 L 189.00 354.00" fill="none" stroke="#000000" stroke-width="1.79" />
  <path d="M 446.00 354.00 L 433.00 401.00 L 424.00 413.00 L 445.00 356.00" fill="none" stroke="#000000" stroke-width="1.79" />
  <path d="M 368.00 355.00 L 362.00 365.00 L 365.00 357.00 L 357.00 358.00" fill="none" stroke="#000000" stroke-width="1.79" />
  <path d="M 261.00 356.00 L 282.00 386.00 L 291.00 411.00 L 263.00 358.00" fill="none" stroke="#000000" stroke-width="1.79" />
  <path d="M 94.00 357.00 L 97.00 364.00 L 103.00 362.00 L 94.00 363.00 L 94.00 358.00" fill="none" stroke="#000000" stroke-width="1.79" />
  <path d="M 393.00 357.00 L 372.00 402.00 L 392.00 358.00" fill="none" stroke="#000000" stroke-width="1.79" />
  <path d="M 379.00 358.00 L 385.00 369.00 L 380.00 358.00" fill="none" stroke="#000000" stroke-width="1.79" />
  <path d="M 90.00 360.00 L 91.00 369.00 L 84.00 363.00 L 90.00 363.00" fill="none" stroke="#000000" stroke-width="1.79" />
  <path d="M 236.00 361.00 L 252.00 384.00 L 241.00 376.00 L 238.00 361.00" fill="none" stroke="#000000" stroke-width="1.79" />
  <path d="M 6.00 362.00 L 13.00 371.00 L 9.00 370.00 L 11.00 382.00 L 5.00 372.00 L 5.00 388.00 L 6.00 365.00" fill="none" stroke="#000000" stroke-width="1.79" />
  <path d="M 205.00 362.00 L 212.00 371.00 L 205.00 363.00" fill="none" stroke="#000000" stroke-width="1.79" />
  <path d="M 305.00 362.00 L 315.00 375.00 L 304.00 364.00" fill="none" stroke="#000000" stroke-width="1.79" />
  <path d="M 336.00 362.00 L 331.00 386.00 L 335.00 364.00" fill="none" stroke="#000000" stroke-width="1.79" />
  <path d="M 374.00 362.00 L 373.00 370.00 L 376.00 363.00 L 368.00 367.00" fill="none" stroke="#000000" stroke-width="1.79" />
  <path d="M 111.00 364.00 L 127.00 387.00 L 117.00 381.00 L 122.00 378.00 L 115.00 367.00" fill="none" stroke="#000000" stroke-width="1.79" />
  <path d="M 290.00 364.00 L 300.00 375.00 L 291.00 364.00" fill="none" stroke="#000000" stroke-width="1.79" />
  <path d="M 103.00 365.00 L 112.00 369.00 L 104.00 365.00 L 100.00 375.00" fill="none" stroke="#000000" stroke-width="1.79" />
  <path d="M 356.00 366.00 L 360.00 369.00 L 354.00 368.00 L 349.00 386.00 L 354.00 367.00" fill="none" stroke="#000000" stroke-width="1.79" />
  <path d="M 478.00 367.00 L 481.00 387.00 L 479.00 367.00" fill="none" stroke="#000000" stroke-width="1.79" />
  <path d="M 77.00 368.00 L 77.00 379.00 L 75.00 370.00" fill="none" stroke="#000000" stroke-width="1.79" />
  <path d="M 204.00 372.00 L 216.00 389.00 L 208.00 377.00 L 212.00 373.00 L 205.00 372.00" fill="none" stroke="#000000" stroke-width="1.79" />
  <path d="M 84.00 373.00 L 82.00 382.00 L 85.00 373.00" fill="none" stroke="#000000" stroke-width="1.79" />
  <path d="M 390.00 374.00 L 400.00 387.00 L 388.00 376.00" fill="none" stroke="#000000" stroke-width="1.79" />
  <path d="M 368.00 376.00 L 362.00 396.00 L 365.00 380.00" fill="none" stroke="#000000" stroke-width="1.79" />
  <path d="M 373.00 376.00 L 364.00 399.00 L 372.00 377.00" fill="none" stroke="#000000" stroke-width="1.79" />
  <path d="M 328.00 377.00 L 326.00 388.00 L 327.00 378.00" fill="none" stroke="#000000" stroke-width="1.79" />
  <path d="M 190.00 380.00 L 176.00 400.00 L 179.00 407.00 L 190.00 406.00 L 176.00 405.00 L 180.00 388.00" fill="none" stroke="#000000" stroke-width="1.79" />
  <path d="M 195.00 381.00 L 243.00 462.00 L 240.00 476.00 L 242.00 462.00 L 195.00 382.00" fill="none" stroke="#000000" stroke-width="1.79" />
  <path d="M 246.00 382.00 L 258.00 397.00 L 256.00 404.00 L 257.00 396.00 L 246.00 385.00" fill="none" stroke="#000000" stroke-width="1.79" />
  <path d="M 387.00 383.00 L 388.00 393.00 L 385.00 385.00" fill="none" stroke="#000000" stroke-width="1.79" />
  <path d="M 220.00 386.00 L 236.00 436.00 L 244.00 440.00 L 239.00 444.00 L 235.00 439.00 L 224.00 389.00 L 217.00 391.00" fill="none" stroke="#000000" stroke-width="1.79" />
  <path d="M 7.00 389.00 L 11.00 396.00 L 6.00 391.00" fill="none" stroke="#000000" stroke-width="1.79" />
  <path d="M 306.00 390.00 L 333.00 394.00 L 359.00 414.00 L 370.00 406.00 L 355.00 410.00 L 356.00 414.00 L 325.00 390.00 L 309.00 397.00 L 317.00 410.00 L 304.00 391.00 L 285.00 424.00 L 258.00 407.00 L 291.00 415.00 L 300.00 398.00" fill="none" stroke="#000000" stroke-width="1.79" />
  <path d="M 173.00 394.00 L 172.00 408.00 L 172.00 396.00" fill="none" stroke="#000000" stroke-width="1.79" />
  <path d="M 115.00 395.00 L 140.00 414.00 L 116.00 395.00" fill="none" stroke="#000000" stroke-width="1.79" />
  <path d="M 237.00 395.00 L 237.00 402.00 L 238.00 395.00" fill="none" stroke="#000000" stroke-width="1.79" />
  <path d="M 9.00 398.00 L 8.00 407.00 L 13.00 407.00 L 12.00 401.00 L 7.00 408.00 L 8.00 399.00" fill="none" stroke="#000000" stroke-width="1.79" />
  <path d="M 303.00 398.00 L 294.00 424.00 L 303.00 403.00" fill="none" stroke="#000000" stroke-width="1.79" />
  <path d="M 139.00 399.00 L 149.00 410.00 L 139.00 400.00" fill="none" stroke="#000000" stroke-width="1.79" />
  <path d="M 247.00 400.00 L 247.00 410.00 L 243.00 404.00" fill="none" stroke="#000000" stroke-width="1.79" />
  <path d="M 63.00 401.00 L 47.00 429.00 L 57.00 406.00" fill="none" stroke="#000000" stroke-width="1.79" />
  <path d="M 335.00 401.00 L 353.00 417.00 L 342.00 405.00" fill="none" stroke="#000000" stroke-width="1.79" />
  <path d="M 435.00 402.00 L 420.00 423.00 L 436.00 402.00" fill="none" stroke="#000000" stroke-width="1.79" />
  <path d="M 237.00 404.00 L 242.00 412.00 L 237.00 406.00" fill="none" stroke="#000000" stroke-width="1.79" />
  <path d="M 249.00 405.00 L 255.00 413.00 L 250.00 405.00" fill="none" stroke="#000000" stroke-width="1.79" />
  <path d="M 323.00 405.00 L 357.00 429.00 L 365.00 420.00 L 383.00 421.00 L 360.00 422.00 L 357.00 430.00 L 325.00 405.00" fill="none" stroke="#000000" stroke-width="1.79" />
  <path d="M 418.00 406.00 L 422.00 418.00 L 420.00 408.00" fill="none" stroke="#000000" stroke-width="1.79" />
  <path d="M 61.00 407.00 L 66.00 411.00 L 59.00 413.00 L 62.00 407.00" fill="none" stroke="#000000" stroke-width="1.79" />
  <path d="M 187.00 408.00 L 169.00 429.00" fill="none" stroke="#000000" stroke-width="1.79" />
  <path d="M 174.00 409.00 L 168.00 413.00 L 171.00 417.00 L 166.00 415.00" fill="none" stroke="#000000" stroke-width="1.79" />
  <path d="M 417.00 409.00 L 413.00 418.00 L 400.00 418.00 L 416.00 410.00" fill="none" stroke="#000000" stroke-width="1.79" />
  <path d="M 236.00 410.00 L 240.00 417.00 L 235.00 411.00" fill="none" stroke="#000000" stroke-width="1.79" />
  <path d="M 327.00 410.00 L 333.00 413.00 L 325.00 413.00" fill="none" stroke="#000000" stroke-width="1.79" />
  <path d="M 319.00 411.00 L 355.00 448.00 L 357.00 438.00 L 349.00 444.00 L 320.00 411.00" fill="none" stroke="#000000" stroke-width="1.79" />
  <path d="M 480.00 411.00 L 481.00 431.00 L 481.00 411.00" fill="none" stroke="#000000" stroke-width="1.79" />
  <path d="M 407.00 412.00 L 383.00 419.00" fill="none" stroke="#000000" stroke-width="1.79" />
  <path d="M 147.00 413.00 L 156.00 430.00 L 150.00 431.00 L 141.00 416.00 L 153.00 428.00 L 147.00 414.00" fill="none" stroke="#000000" stroke-width="1.79" />
  <path d="M 250.00 413.00 L 250.00 423.00 L 257.00 427.00 L 259.00 422.00 L 253.00 433.00 L 249.00 414.00" fill="none" stroke="#000000" stroke-width="1.79" />
  <path d="M 134.00 414.00 L 144.00 430.00 L 137.00 417.00" fill="none" stroke="#000000" stroke-width="1.79" />
  <path d="M 243.00 414.00 L 249.00 430.00 L 244.00 414.00" fill="none" stroke="#000000" stroke-width="1.79" />
  <path d="M 60.00 415.00 L 70.00 423.00 L 57.00 432.00 L 61.00 419.00 L 53.00 426.00 L 67.00 420.00 L 60.00 416.00 L 56.00 420.00" fill="none" stroke="#000000" stroke-width="1.79" />
  <path d="M 222.00 415.00 L 228.00 420.00 L 222.00 416.00" fill="none" stroke="#000000" stroke-width="1.79" />
  <path d="M 199.00 416.00 L 185.00 427.00 L 187.00 435.00 L 193.00 426.00 L 185.00 435.00 L 185.00 426.00" fill="none" stroke="#000000" stroke-width="1.79" />
  <path d="M 126.00 417.00 L 155.00 443.00 L 150.00 433.00 L 123.00 419.00" fill="none" stroke="#000000" stroke-width="1.79" />
  <path d="M 156.00 418.00 L 165.00 429.00 L 155.00 425.00 L 162.00 422.00" fill="none" stroke="#000000" stroke-width="1.79" />
  <path d="M 238.00 419.00 L 243.00 427.00 L 238.00 426.00" fill="none" stroke="#000000" stroke-width="1.79" />
  <path d="M 5.00 420.00 L 13.00 433.00 L 5.00 421.00" fill="none" stroke="#000000" stroke-width="1.79" />
  <path d="M 123.00 421.00 L 138.00 435.00 L 124.00 421.00" fill="none" stroke="#000000" stroke-width="1.79" />
  <path d="M 262.00 421.00 L 279.00 427.00 L 282.00 423.00 L 279.00 428.00 L 287.00 432.00 L 293.00 426.00 L 288.00 426.00 L 288.00 435.00 L 321.00 476.00 L 335.00 457.00 L 347.00 454.00 L 324.00 485.00 L 344.00 451.00 L 352.00 449.00 L 338.00 454.00 L 324.00 472.00 L 313.00 469.00 L 286.00 429.00 L 264.00 421.00" fill="none" stroke="#000000" stroke-width="1.79" />
  <path d="M 332.00 421.00 L 339.00 427.00 L 334.00 421.00" fill="none" stroke="#000000" stroke-width="1.79" />
  <path d="M 346.00 425.00 L 348.00 436.00 L 343.00 429.00" fill="none" stroke="#000000" stroke-width="1.79" />
  <path d="M 158.00 430.00 L 206.00 450.00 L 237.00 482.00 L 223.00 463.00 L 199.00 446.00 L 160.00 436.00 L 161.00 431.00" fill="none" stroke="#000000" stroke-width="1.79" />
  <path d="M 57.00 434.00 L 63.00 442.00 L 56.00 435.00 L 56.00 443.00 L 51.00 435.00" fill="none" stroke="#000000" stroke-width="1.79" />
  <path d="M 353.00 434.00 L 353.00 442.00 L 351.00 435.00" fill="none" stroke="#000000" stroke-width="1.79" />
  <path d="M 40.00 436.00 L 51.00 486.00 L 67.00 496.00 L 53.00 489.00 L 66.00 513.00 L 54.00 496.00 L 40.00 437.00" fill="none" stroke="#000000" stroke-width="1.79" />
  <path d="M 63.00 436.00 L 79.00 457.00 L 64.00 436.00" fill="none" stroke="#000000" stroke-width="1.79" />
  <path d="M 281.00 437.00 L 245.00 492.00 L 240.00 487.00 L 239.00 495.00 L 231.00 498.00 L 237.00 493.00 L 231.00 484.00 L 217.00 482.00 L 236.00 488.00 L 228.00 478.00 L 245.00 487.00 L 265.00 461.00" fill="none" stroke="#000000" stroke-width="1.79" />
  <path d="M 363.00 437.00 L 354.00 465.00 L 377.00 461.00 L 361.00 461.00 L 339.00 477.00 L 353.00 465.00 L 360.00 439.00" fill="none" stroke="#000000" stroke-width="1.79" />
  <path d="M 367.00 437.00 L 380.00 461.00 L 367.00 438.00" fill="none" stroke="#000000" stroke-width="1.79" />
  <path d="M 144.00 438.00 L 153.00 449.00 L 126.00 446.00 L 151.00 446.00" fill="none" stroke="#000000" stroke-width="1.79" />
  <path d="M 6.00 439.00 L 11.00 447.00 L 7.00 439.00" fill="none" stroke="#000000" stroke-width="1.79" />
  <path d="M 255.00 439.00 L 250.00 451.00 L 242.00 443.00 L 252.00 446.00 L 254.00 440.00" fill="none" stroke="#000000" stroke-width="1.79" />
  <path d="M 287.00 439.00 L 279.00 453.00 L 328.00 494.00 L 283.00 455.00 L 274.00 460.00 L 280.00 446.00" fill="none" stroke="#000000" stroke-width="1.79" />
  <path d="M 45.00 442.00 L 52.00 450.00 L 51.00 443.00 L 47.00 449.00 L 45.00 443.00" fill="none" stroke="#000000" stroke-width="1.79" />
  <path d="M 288.00 442.00 L 296.00 457.00 L 291.00 450.00 L 287.00 455.00 L 288.00 445.00" fill="none" stroke="#000000" stroke-width="1.79" />
  <path d="M 58.00 444.00 L 68.00 449.00 L 58.00 445.00 L 61.00 455.00 L 56.00 449.00" fill="none" stroke="#000000" stroke-width="1.79" />
  <path d="M 156.00 445.00 L 160.00 452.00 L 168.00 449.00 L 178.00 460.00 L 185.00 459.00 L 172.00 463.00 L 175.00 454.00 L 157.00 447.00" fill="none" stroke="#000000" stroke-width="1.79" />
  <path d="M 181.00 445.00 L 187.00 454.00 L 183.00 446.00" fill="none" stroke="#000000" stroke-width="1.79" />
  <path d="M 54.00 451.00 L 48.00 455.00 L 59.00 457.00 L 47.00 454.00" fill="none" stroke="#000000" stroke-width="1.79" />
  <path d="M 249.00 453.00 L 246.00 469.00 L 250.00 453.00" fill="none" stroke="#000000" stroke-width="1.79" />
  <path d="M 204.00 454.00 L 194.00 465.00 L 186.00 461.00 L 197.00 461.00 L 196.00 456.00" fill="none" stroke="#000000" stroke-width="1.79" />
  <path d="M 351.00 456.00 L 345.00 471.00 L 345.00 463.00" fill="none" stroke="#000000" stroke-width="1.79" />
  <path d="M 62.00 458.00 L 73.00 464.00 L 72.00 469.00 L 70.00 460.00 L 49.00 465.00 L 57.00 460.00" fill="none" stroke="#000000" stroke-width="1.79" />
  <path d="M 272.00 461.00 L 252.00 489.00 L 270.00 462.00" fill="none" stroke="#000000" stroke-width="1.79" />
  <path d="M 179.00 463.00 L 187.00 473.00 L 194.00 474.00 L 183.00 471.00 L 179.00 465.00 L 183.00 465.00" fill="none" stroke="#000000" stroke-width="1.79" />
  <path d="M 215.00 463.00 L 222.00 478.00 L 220.00 468.00" fill="none" stroke="#000000" stroke-width="1.79" />
  <path d="M 370.00 463.00 L 376.00 469.00 L 370.00 464.00" fill="none" stroke="#000000" stroke-width="1.79" />
  <path d="M 185.00 464.00 L 190.00 471.00 L 185.00 465.00" fill="none" stroke="#000000" stroke-width="1.79" />
  <path d="M 303.00 464.00 L 321.00 483.00 L 304.00 464.00" fill="none" stroke="#000000" stroke-width="1.79" />
  <path d="M 200.00 466.00 L 205.00 469.00 L 201.00 466.00 L 198.00 476.00 L 204.00 474.00 L 198.00 477.00 L 198.00 472.00" fill="none" stroke="#000000" stroke-width="1.79" />
  <path d="M 50.00 468.00 L 55.00 474.00 L 62.00 472.00 L 58.00 478.00 L 53.00 480.00 L 49.00 469.00" fill="none" stroke="#000000" stroke-width="1.79" />
  <path d="M 206.00 471.00 L 218.00 475.00 L 213.00 481.00 L 207.00 471.00" fill="none" stroke="#000000" stroke-width="1.79" />
  <path d="M 355.00 471.00 L 308.00 529.00 L 349.00 480.00" fill="none" stroke="#000000" stroke-width="1.79" />
  <path d="M 482.00 473.00 L 483.00 484.00 L 483.00 473.00" fill="none" stroke="#000000" stroke-width="1.79" />
  <path d="M 246.00 477.00 L 242.00 487.00 L 245.00 478.00" fill="none" stroke="#000000" stroke-width="1.79" />
  <path d="M 300.00 478.00 L 323.00 499.00 L 301.00 478.00" fill="none" stroke="#000000" stroke-width="1.79" />
  <path d="M 340.00 479.00 L 345.00 481.00 L 322.00 507.00 L 341.00 479.00" fill="none" stroke="#000000" stroke-width="1.79" />
  <path d="M 11.00 480.00 L 38.00 512.00 L 35.00 508.00 L 34.00 517.00 L 14.00 483.00 L 8.00 500.00 L 11.00 481.00" fill="none" stroke="#000000" stroke-width="1.79" />
  <path d="M 4.00 481.00 L 7.00 489.00 L 2.00 482.00 L 6.00 481.00" fill="none" stroke="#000000" stroke-width="1.79" />
  <path d="M 123.00 481.00 L 132.00 484.00 L 123.00 483.00" fill="none" stroke="#000000" stroke-width="1.79" />
  <path d="M 184.00 482.00 L 187.00 489.00 L 185.00 482.00" fill="none" stroke="#000000" stroke-width="1.79" />
  <path d="M 212.00 483.00 L 221.00 493.00 L 214.00 483.00 L 192.00 494.00 L 208.00 485.00" fill="none" stroke="#000000" stroke-width="1.79" />
  <path d="M 64.00 485.00 L 89.00 491.00 L 97.00 506.00 L 90.00 491.00 L 59.00 486.00" fill="none" stroke="#000000" stroke-width="1.79" />
  <path d="M 220.00 485.00 L 224.00 495.00 L 221.00 485.00" fill="none" stroke="#000000" stroke-width="1.79" />
  <path d="M 483.00 486.00 L 484.00 492.00 L 479.00 494.00 L 481.00 487.00 L 478.00 493.00 L 483.00 519.00 L 483.00 497.00 L 478.00 497.00 L 482.00 491.00" fill="none" stroke="#000000" stroke-width="1.79" />
  <path d="M 144.00 489.00 L 153.00 493.00 L 147.00 495.00 L 147.00 503.00 L 145.00 489.00" fill="none" stroke="#000000" stroke-width="1.79" />
  <path d="M 72.00 497.00 L 84.00 499.00 L 94.00 511.00 L 105.00 514.00 L 103.00 510.00 L 102.00 516.00 L 101.00 509.00 L 86.00 509.00 L 86.00 502.00 L 76.00 497.00" fill="none" stroke="#000000" stroke-width="1.79" />
  <path d="M 310.00 499.00 L 308.00 513.00 L 308.00 500.00" fill="none" stroke="#000000" stroke-width="1.79" />
  <path d="M 62.00 501.00 L 71.00 511.00 L 63.00 501.00" fill="none" stroke="#000000" stroke-width="1.79" />
  <path d="M 8.00 502.00 L 18.00 519.00 L 17.00 540.00 L 21.00 542.00 L 25.00 521.00 L 16.00 544.00 L 20.00 544.00 L 16.00 518.00 L 10.00 519.00 L 12.00 527.00 L 8.00 505.00" fill="none" stroke="#000000" stroke-width="1.79" />
  <path d="M 234.00 502.00 L 232.00 513.00 L 227.00 505.00 L 215.00 516.00 L 215.00 530.00 L 222.00 508.00" fill="none" stroke="#000000" stroke-width="1.79" />
  <path d="M 320.00 509.00 L 297.00 540.00 L 259.00 571.00 L 245.00 574.00 L 219.00 565.00 L 319.00 511.00" fill="none" stroke="#000000" stroke-width="1.79" />
  <path d="M 76.00 511.00 L 90.00 529.00 L 108.00 536.00 L 99.00 521.00 L 96.00 530.00 L 73.00 513.00" fill="none" stroke="#000000" stroke-width="1.79" />
  <path d="M 68.00 514.00 L 87.00 537.00 L 96.00 559.00 L 74.00 520.00" fill="none" stroke="#000000" stroke-width="1.79" />
  <path d="M 6.00 515.00 L 13.00 530.00 L 7.00 537.00 L 14.00 543.00 L 7.00 538.00 L 7.00 515.00" fill="none" stroke="#000000" stroke-width="1.79" />
  <path d="M 221.00 516.00 L 217.00 526.00 L 219.00 517.00" fill="none" stroke="#000000" stroke-width="1.79" />
  <path d="M 325.00 519.00 L 330.00 522.00 L 323.00 520.00 L 316.00 527.00 L 320.00 522.00" fill="none" stroke="#000000" stroke-width="1.79" />
  <path d="M 343.00 522.00 L 349.00 530.00 L 344.00 531.00 L 346.00 524.00 L 342.00 528.00 L 341.00 523.00" fill="none" stroke="#000000" stroke-width="1.79" />
  <path d="M 481.00 522.00 L 480.00 541.00 L 482.00 522.00" fill="none" stroke="#000000" stroke-width="1.79" />
  <path d="M 63.00 523.00 L 72.00 527.00 L 58.00 526.00" fill="none" stroke="#000000" stroke-width="1.79" />
  <path d="M 104.00 523.00 L 116.00 525.00 L 104.00 524.00" fill="none" stroke="#000000" stroke-width="1.79" />
  <path d="M 288.00 526.00 L 292.00 539.00 L 291.00 527.00 L 287.00 539.00" fill="none" stroke="#000000" stroke-width="1.79" />
  <path d="M 319.00 527.00 L 328.00 536.00 L 325.00 541.00 L 319.00 541.00 L 313.00 529.00 L 315.00 538.00 L 307.00 544.00 L 310.00 538.00 L 304.00 535.00 L 303.00 541.00 L 325.00 537.00 L 319.00 528.00" fill="none" stroke="#000000" stroke-width="1.79" />
  <path d="M 59.00 529.00 L 55.00 537.00 L 64.00 550.00 L 55.00 533.00" fill="none" stroke="#000000" stroke-width="1.79" />
  <path d="M 219.00 532.00 L 222.00 541.00 L 220.00 532.00" fill="none" stroke="#000000" stroke-width="1.79" />
  <path d="M 122.00 533.00 L 133.00 536.00 L 119.00 534.00" fill="none" stroke="#000000" stroke-width="1.79" />
  <path d="M 226.00 533.00 L 225.00 541.00 L 225.00 534.00" fill="none" stroke="#000000" stroke-width="1.79" />
  <path d="M 340.00 533.00 L 349.00 543.00 L 343.00 552.00 L 347.00 536.00 L 339.00 534.00 L 336.00 542.00 L 334.00 535.00" fill="none" stroke="#000000" stroke-width="1.79" />
  <path d="M 80.00 535.00 L 76.00 543.00 L 90.00 553.00 L 74.00 538.00 L 64.00 543.00" fill="none" stroke="#000000" stroke-width="1.79" />
  <path d="M 99.00 535.00 L 118.00 541.00 L 105.00 545.00 L 92.00 537.00 L 107.00 540.00 L 99.00 540.00" fill="none" stroke="#000000" stroke-width="1.79" />
  <path d="M 135.00 537.00 L 142.00 538.00 L 133.00 540.00" fill="none" stroke="#000000" stroke-width="1.79" />
  <path d="M 332.00 539.00 L 333.00 548.00 L 329.00 543.00" fill="none" stroke="#000000" stroke-width="1.79" />
  <path d="M 143.00 540.00 L 167.00 549.00 L 148.00 540.00" fill="none" stroke="#000000" stroke-width="1.79" />
  <path d="M 320.00 545.00 L 324.00 549.00 L 320.00 558.00 L 314.00 556.00 L 321.00 565.00 L 325.00 560.00 L 323.00 571.00 L 329.00 565.00 L 327.00 552.00 L 340.00 553.00 L 326.00 552.00 L 323.00 572.00 L 321.00 562.00 L 290.00 579.00 L 316.00 561.00 L 312.00 554.00 L 321.00 553.00 L 320.00 548.00 L 307.00 549.00 L 308.00 565.00 L 306.00 549.00" fill="none" stroke="#000000" stroke-width="1.79" />
  <path d="M 351.00 545.00 L 354.00 564.00 L 343.00 586.00 L 337.00 581.00 L 347.00 578.00 L 356.00 555.00 L 344.00 555.00 L 350.00 546.00" fill="none" stroke="#000000" stroke-width="1.79" />
  <path d="M 151.00 546.00 L 155.00 548.00 L 150.00 554.00 L 151.00 548.00" fill="none" stroke="#000000" stroke-width="1.79" />
  <path d="M 125.00 547.00 L 155.00 559.00 L 162.00 554.00 L 150.00 556.00" fill="none" stroke="#000000" stroke-width="1.79" />
  <path d="M 97.00 548.00 L 110.00 560.00 L 116.00 558.00 L 109.00 548.00 L 110.00 559.00 L 98.00 548.00" fill="none" stroke="#000000" stroke-width="1.79" />
  <path d="M 5.00 549.00 L 17.00 556.00 L 17.00 564.00 L 17.00 555.00 L 6.00 549.00" fill="none" stroke="#000000" stroke-width="1.79" />
  <path d="M 166.00 552.00 L 184.00 557.00 L 164.00 553.00" fill="none" stroke="#000000" stroke-width="1.79" />
  <path d="M 287.00 552.00 L 294.00 568.00 L 284.00 557.00 L 280.00 562.00 L 284.00 572.00 L 280.00 561.00" fill="none" stroke="#000000" stroke-width="1.79" />
  <path d="M 482.00 554.00 L 479.00 566.00 L 488.00 575.00 L 487.00 568.00 L 478.00 574.00 L 480.00 581.00 L 477.00 577.00 L 473.00 581.00 L 477.00 571.00 L 465.00 582.00 L 472.00 569.00 L 481.00 570.00 L 481.00 555.00" fill="none" stroke="#000000" stroke-width="1.79" />
  <path d="M 330.00 555.00 L 333.00 562.00 L 338.00 558.00 L 332.00 564.00 L 330.00 556.00" fill="none" stroke="#000000" stroke-width="1.79" />
  <path d="M 68.00 556.00 L 83.00 564.00 L 96.00 563.00 L 87.00 571.00 L 85.00 563.00 L 69.00 556.00" fill="none" stroke="#000000" stroke-width="1.79" />
  <path d="M 139.00 558.00 L 144.00 564.00 L 139.00 559.00" fill="none" stroke="#000000" stroke-width="1.79" />
  <path d="M 189.00 558.00 L 210.00 569.00 L 216.00 564.00 L 187.00 559.00 L 173.00 570.00 L 175.00 564.00 L 164.00 568.00 L 161.00 563.00 L 159.00 571.00 L 166.00 563.00 L 183.00 559.00" fill="none" stroke="#000000" stroke-width="1.79" />
  <path d="M 101.00 559.00 L 126.00 578.00 L 115.00 576.00 L 115.00 569.00 L 100.00 560.00" fill="none" stroke="#000000" stroke-width="1.79" />
  <path d="M 120.00 559.00 L 129.00 569.00 L 131.00 562.00 L 133.00 567.00 L 110.00 563.00" fill="none" stroke="#000000" stroke-width="1.79" />
  <path d="M 491.00 559.00 L 493.00 577.00 L 492.00 559.00" fill="none" stroke="#000000" stroke-width="1.79" />
  <path d="M 294.00 561.00 L 300.00 563.00 L 296.00 566.00 L 297.00 561.00" fill="none" stroke="#000000" stroke-width="1.79" />
  <path d="M 342.00 562.00 L 332.00 575.00" fill="none" stroke="#000000" stroke-width="1.79" />
  <path d="M 99.00 563.00 L 112.00 593.00 L 100.00 568.00" fill="none" stroke="#000000" stroke-width="1.79" />
  <path d="M 196.00 565.00 L 205.00 573.00 L 196.00 569.00 L 195.00 575.00 L 192.00 570.00" fill="none" stroke="#000000" stroke-width="1.79" />
  <path d="M 74.00 566.00 L 70.00 577.00 L 71.00 569.00" fill="none" stroke="#000000" stroke-width="1.79" />
  <path d="M 138.00 567.00 L 149.00 581.00 L 167.00 587.00 L 152.00 584.00 L 141.00 569.00 L 134.00 570.00" fill="none" stroke="#000000" stroke-width="1.79" />
  <path d="M 181.00 567.00 L 186.00 568.00 L 184.00 576.00 L 184.00 567.00 L 180.00 568.00" fill="none" stroke="#000000" stroke-width="1.79" />
  <path d="M 277.00 568.00 L 279.00 575.00 L 272.00 572.00 L 278.00 570.00" fill="none" stroke="#000000" stroke-width="1.79" />
  <path d="M 82.00 569.00 L 85.00 577.00 L 83.00 569.00" fill="none" stroke="#000000" stroke-width="1.79" />
  <path d="M 91.00 569.00 L 95.00 570.00 L 88.00 577.00" fill="none" stroke="#000000" stroke-width="1.79" />
  <path d="M 12.00 570.00 L 16.00 574.00 L 12.00 579.00 L 9.00 574.00 L 15.00 572.00 L 9.00 571.00" fill="none" stroke="#000000" stroke-width="1.79" />
  <path d="M 146.00 570.00 L 164.00 573.00 L 153.00 578.00 L 145.00 572.00" fill="none" stroke="#000000" stroke-width="1.79" />
  <path d="M 269.00 570.00 L 275.00 581.00 L 269.00 574.00" fill="none" stroke="#000000" stroke-width="1.79" />
  <path d="M 168.00 571.00 L 174.00 577.00 L 168.00 573.00" fill="none" stroke="#000000" stroke-width="1.79" />
  <path d="M 215.00 571.00 L 195.00 578.00 L 185.00 573.00" fill="none" stroke="#000000" stroke-width="1.79" />
  <path d="M 316.00 571.00 L 311.00 579.00 L 326.00 596.00 L 325.00 604.00 L 328.00 594.00 L 311.00 593.00 L 316.00 588.00 L 309.00 575.00" fill="none" stroke="#000000" stroke-width="1.79" />
  <path d="M 172.00 572.00 L 180.00 583.00 L 175.00 573.00" fill="none" stroke="#000000" stroke-width="1.79" />
  <path d="M 108.00 573.00 L 117.00 589.00 L 141.00 599.00 L 116.00 589.00 L 107.00 575.00" fill="none" stroke="#000000" stroke-width="1.79" />
  <path d="M 338.00 573.00 L 342.00 580.00 L 338.00 574.00" fill="none" stroke="#000000" stroke-width="1.79" />
  <path d="M 136.00 574.00 L 141.00 579.00 L 133.00 578.00" fill="none" stroke="#000000" stroke-width="1.79" />
  <path d="M 238.00 574.00 L 240.00 579.00 L 247.00 577.00 L 230.00 582.00 L 216.00 577.00" fill="none" stroke="#000000" stroke-width="1.79" />
  <path d="M 318.00 574.00 L 324.00 583.00 L 319.00 574.00" fill="none" stroke="#000000" stroke-width="1.79" />
  <path d="M 483.00 575.00 L 487.00 604.00 L 485.00 583.00 L 480.00 599.00 L 484.00 575.00" fill="none" stroke="#000000" stroke-width="1.79" />
  <path d="M 17.00 576.00 L 23.00 578.00 L 17.00 577.00 L 18.00 600.00 L 16.00 583.00" fill="none" stroke="#000000" stroke-width="1.79" />
  <path d="M 256.00 576.00 L 264.00 586.00 L 257.00 579.00" fill="none" stroke="#000000" stroke-width="1.79" />
  <path d="M 7.00 578.00 L 8.00 588.00 L 6.00 579.00" fill="none" stroke="#000000" stroke-width="1.79" />
  <path d="M 74.00 578.00 L 80.00 586.00 L 73.00 579.00" fill="none" stroke="#000000" stroke-width="1.79" />
  <path d="M 266.00 578.00 L 274.00 585.00 L 266.00 580.00" fill="none" stroke="#000000" stroke-width="1.79" />
  <path d="M 84.00 579.00 L 87.00 587.00 L 83.00 583.00" fill="none" stroke="#000000" stroke-width="1.79" />
  <path d="M 94.00 579.00 L 105.00 589.00 L 97.00 580.00" fill="none" stroke="#000000" stroke-width="1.79" />
  <path d="M 69.00 580.00 L 77.00 589.00 L 69.00 581.00" fill="none" stroke="#000000" stroke-width="1.79" />
  <path d="M 200.00 580.00 L 204.00 588.00 L 203.00 581.00" fill="none" stroke="#000000" stroke-width="1.79" />
  <path d="M 306.00 580.00 L 312.00 588.00 L 306.00 581.00" fill="none" stroke="#000000" stroke-width="1.79" />
  <path d="M 327.00 580.00 L 341.00 589.00 L 326.00 581.00" fill="none" stroke="#000000" stroke-width="1.79" />
  <path d="M 216.00 583.00 L 217.00 592.00 L 218.00 583.00" fill="none" stroke="#000000" stroke-width="1.79" />
  <path d="M 267.00 588.00 L 275.00 594.00 L 271.00 599.00 L 274.00 592.00 L 267.00 589.00" fill="none" stroke="#000000" stroke-width="1.79" />
  <path d="M 85.00 589.00 L 96.00 603.00 L 85.00 590.00" fill="none" stroke="#000000" stroke-width="1.79" />
  <path d="M 7.00 590.00 L 15.00 596.00 L 8.00 594.00" fill="none" stroke="#000000" stroke-width="1.79" />
  <path d="M 90.00 591.00 L 99.00 599.00 L 94.00 592.00" fill="none" stroke="#000000" stroke-width="1.79" />
  <path d="M 283.00 591.00 L 293.00 601.00 L 287.00 592.00 L 277.00 595.00" fill="none" stroke="#000000" stroke-width="1.79" />
  <path d="M 305.00 592.00 L 310.00 595.00 L 297.00 598.00 L 301.00 605.00 L 295.00 596.00" fill="none" stroke="#000000" stroke-width="1.79" />
  <path d="M 77.00 593.00 L 84.00 596.00 L 77.00 595.00 L 80.00 601.00 L 77.00 594.00" fill="none" stroke="#000000" stroke-width="1.79" />
  <path d="M 265.00 593.00 L 247.00 596.00" fill="none" stroke="#000000" stroke-width="1.79" />
  <path d="M 122.00 594.00 L 128.00 600.00 L 122.00 595.00 L 117.00 606.00 L 121.00 595.00" fill="none" stroke="#000000" stroke-width="1.79" />
  <path d="M 283.00 595.00 L 281.00 601.00 L 289.00 605.00 L 278.00 597.00 L 277.00 603.00 L 285.00 614.00 L 274.00 602.00 L 280.00 599.00" fill="none" stroke="#000000" stroke-width="1.79" />
  <path d="M 331.00 595.00 L 336.00 601.00 L 332.00 595.00" fill="none" stroke="#000000" stroke-width="1.79" />
  <path d="M 247.00 599.00 L 254.00 605.00 L 257.00 599.00 L 251.00 604.00 L 248.00 599.00" fill="none" stroke="#000000" stroke-width="1.79" />
  <path d="M 480.00 601.00 L 485.00 615.00 L 479.00 626.00 L 484.00 620.00 L 480.00 602.00" fill="none" stroke="#000000" stroke-width="1.79" />
  <path d="M 291.00 605.00 L 286.00 616.00 L 291.00 606.00" fill="none" stroke="#000000" stroke-width="1.79" />
  <path d="M 7.00 636.00 L 8.00 653.00 L 6.00 637.00" fill="none" stroke="#000000" stroke-width="1.79" />
  <path d="M 10.00 651.00 L 12.00 660.00 L 11.00 651.00" fill="none" stroke="#000000" stroke-width="1.79" />
  <path d="M 6.00 655.00 L 6.00 663.00 L 19.00 668.00 L 10.00 663.00 L 9.00 667.00 L 5.00 659.00" fill="none" stroke="#000000" stroke-width="1.79" />
  <path d="M 483.00 655.00 L 485.00 671.00 L 479.00 664.00 L 483.00 656.00" fill="none" stroke="#000000" stroke-width="1.79" />
  <path d="M 480.00 674.00 L 484.00 681.00 L 480.00 687.00 L 480.00 676.00" fill="none" stroke="#000000" stroke-width="1.79" />
  <path d="M 12.00 686.00 L 11.00 707.00 L 6.00 715.00 L 5.00 705.00 L 10.00 690.00" fill="none" stroke="#000000" stroke-width="1.79" />
  <path d="M 13.00 699.00 L 15.00 709.00 L 14.00 699.00" fill="none" stroke="#000000" stroke-width="1.79" />
  <path d="M 10.00 714.00 L 11.00 746.00 L 6.00 726.00 L 10.00 717.00" fill="none" stroke="#000000" stroke-width="1.79" />
  <path d="M 481.00 720.00 L 485.00 723.00 L 482.00 728.00 L 481.00 721.00" fill="none" stroke="#000000" stroke-width="1.79" />
  <path d="M 111.00 721.00 L 117.00 732.00 L 109.00 723.00" fill="none" stroke="#000000" stroke-width="1.79" />
  <path d="M 488.00 723.00 L 492.00 764.00 L 487.00 759.00 L 488.00 725.00" fill="none" stroke="#000000" stroke-width="1.79" />
  <path d="M 479.00 725.00 L 478.00 734.00 L 474.00 730.00" fill="none" stroke="#000000" stroke-width="1.79" />
  <path d="M 20.00 730.00 L 51.00 769.00 L 38.00 750.00 L 36.00 758.00 L 34.00 745.00 L 30.00 743.00 L 32.00 750.00 L 26.00 748.00 L 20.00 731.00" fill="none" stroke="#000000" stroke-width="1.79" />
  <path d="M 481.00 730.00 L 484.00 781.00 L 482.00 730.00" fill="none" stroke="#000000" stroke-width="1.79" />
  <path d="M 7.00 736.00 L 7.00 756.00 L 6.00 738.00" fill="none" stroke="#000000" stroke-width="1.79" />
  <path d="M 50.00 741.00 L 78.00 759.00 L 72.00 758.00 L 71.00 750.00 L 62.00 747.00 L 65.00 753.00 L 50.00 742.00" fill="none" stroke="#000000" stroke-width="1.79" />
  <path d="M 12.00 748.00 L 16.00 775.00 L 14.00 748.00 L 9.00 774.00 L 11.00 749.00" fill="none" stroke="#000000" stroke-width="1.79" />
  <path d="M 21.00 755.00 L 26.00 756.00 L 21.00 756.00 L 22.00 763.00 L 30.00 773.00 L 21.00 759.00" fill="none" stroke="#000000" stroke-width="1.79" />
  <path d="M 162.00 758.00 L 166.00 761.00 L 160.00 774.00 L 163.00 758.00" fill="none" stroke="#000000" stroke-width="1.79" />
  <path d="M 15.00 777.00 L 23.00 787.00 L 20.00 790.00 L 15.00 780.00" fill="none" stroke="#000000" stroke-width="1.79" />
  <path d="M 106.00 778.00 L 111.00 785.00 L 107.00 778.00" fill="none" stroke="#000000" stroke-width="1.79" />
  <path d="M 10.00 780.00 L 15.00 786.00 L 11.00 780.00" fill="none" stroke="#000000" stroke-width="1.79" />
  <path d="M 481.00 780.00 L 469.00 790.00 L 452.00 789.00" fill="none" stroke="#000000" stroke-width="1.79" />
  <path d="M 82.00 783.00 L 103.00 791.00 L 123.00 788.00 L 85.00 788.00 L 83.00 783.00" fill="none" stroke="#000000" stroke-width="1.79" />
  <path d="M 222.00 784.00 L 227.00 790.00 L 230.00 785.00 L 223.00 784.00" fill="none" stroke="#000000" stroke-width="1.79" />
  <path d="M 208.00 785.00 L 201.00 792.00 L 195.00 788.00 L 158.00 793.00" fill="none" stroke="#000000" stroke-width="1.79" />
  <path d="M 15.00 788.00 L 23.00 792.00 L 21.00 797.00 L 13.00 789.00 L 9.00 792.00" fill="none" stroke="#000000" stroke-width="1.79" />
  <path d="M 382.00 788.00 L 394.00 790.00 L 393.00 795.00 L 401.00 793.00 L 391.00 796.00 L 383.00 788.00 L 376.00 792.00" fill="none" stroke="#000000" stroke-width="1.79" />
  <path d="M 222.00 789.00 L 230.00 795.00 L 233.00 791.00 L 214.00 792.00" fill="none" stroke="#000000" stroke-width="1.79" />
  <path d="M 426.00 789.00 L 445.00 792.00 L 418.00 792.00" fill="none" stroke="#000000" stroke-width="1.79" />
  <path d="M 246.00 790.00 L 265.00 795.00 L 263.00 791.00 L 271.00 791.00 L 239.00 791.00" fill="none" stroke="#000000" stroke-width="1.79" />
</svg>