<svg width="300" height="420" viewBox="0 0 300 420" xmlns="http://www.w3.org/2000/svg" shape-rendering="geometricPrecision">
  <path d="M 93.133 30.282 L 97.294 29.270 L 90.395 38.145 L 92.182 30.135 L 92.851 35.872 L 89.136 35.327 L 89.477 46.470 L 85.073 42.757 L 97.563 30.344" fill="none" stroke="#97B7DA" stroke-width="0.30" />
  <path d="M 99.336 29.888 L 101.984 36.865 L 111.714 37.557 L 115.939 42.636 L 124.880 62.342 L 125.962 74.722 L 126.559 75.560 L 125.228 74.381 L 122.044 58.070 L 117.577 42.502 L 101.172 36.072" fill="none" stroke="#99B7D9" stroke-width="1.97" />
  <path d="M 86.934 32.010 L 87.436 32.931 L 79.182 41.275" fill="none" stroke="#9EB8DF" stroke-width="1.02" />
  <path d="M 249.133 29.727 L 244.682 41.745" fill="none" stroke="#7696DA" stroke-width="1.06" />
  <path d="M 149.552 38.795 L 154.010 48.163 L 157.072 45.414 L 156.957 43.186 L 164.978 47.489 L 169.433 49.928 L 162.925 45.911 L 162.891 48.091 L 157.149 43.933 L 151.695 41.808 L 148.756 37.011" fill="none" stroke="#85A5EA" stroke-width="3.74" />
  <path d="M 96.787 36.192 L 93.532 49.257 L 93.580 40.846" fill="none" stroke="#63696C" stroke-width="0.29" />
  <path d="M 75.478 42.802 L 66.871 42.900 L 67.461 52.985 L 66.078 45.003" fill="none" stroke="#7A999E" stroke-width="1.80" />
  <path d="M 294.306 42.183 L 296.614 40.585 L 293.519 44.358 L 294.787 50.316 L 292.222 51.031 L 289.822 47.969 L 290.080 45.972 L 281.660 47.321" fill="none" stroke="#7895DA" stroke-width="2.62" />
  <path d="M 102.282 50.000 L 100.648 57.359 L 101.055 49.828 L 102.101 51.110" fill="none" stroke="#445455" stroke-width="0.31" />
  <path d="M 164.464 51.305 L 156.945 60.885 L 154.972 61.672 L 159.382 59.619 L 151.423 67.735 L 152.336 67.621 L 151.766 66.873 L 154.136 57.243 L 157.905 54.972" fill="none" stroke="#80A5EF" stroke-width="1.20" />
  <path d="M 73.827 55.132 L 66.852 65.325 L 74.608 80.587 L 76.196 84.164 L 79.010 92.522 L 82.874 95.134 L 97.170 92.955 L 115.666 105.266 L 111.280 98.839 L 90.278 91.196 L 87.004 90.541 L 85.141 96.248 L 85.360 96.242 L 67.470 67.085 L 65.500 62.838" fill="none" stroke="#5C6561" stroke-width="2.14" />
  <path d="M 97.887 60.330 L 110.522 61.559 L 102.591 61.656" fill="none" stroke="#2E3E3B" stroke-width="1.24" />
  <path d="M 87.558 63.824 L 95.016 61.212 L 88.113 65.719 L 88.803 64.293 L 83.576 64.016" fill="none" stroke="#172A26" stroke-width="2.15" />
  <path d="M 168.611 67.350 L 170.500 72.273 L 203.144 78.806 L 206.804 82.523 L 210.999 84.199 L 209.585 82.115 L 211.365 83.887 L 204.822 88.873 L 207.973 87.941 L 209.171 89.356 L 205.728 87.764 L 207.490 89.654 L 206.355 78.868 L 189.135 73.412 L 172.995 72.017 L 170.041 60.658" fill="none" stroke="#7796E6" stroke-width="3.25" />
  <path d="M 266.627 61.630 L 285.797 67.638 L 288.133 71.462 L 289.996 72.768 L 290.637 73.473 L 296.913 75.280 L 296.871 83.444 L 296.187 70.951 L 282.900 67.020 L 275.627 68.433 L 271.876 64.883 L 269.966 63.749 L 253.562 69.210" fill="none" stroke="#7998E2" stroke-width="0.31" />
  <path d="M 95.430 67.581 L 97.719 73.099 L 103.564 78.010 L 102.104 80.387 L 107.443 73.584 L 98.228 73.337 L 97.367 77.609 L 95.218 71.789 L 97.209 67.002" fill="none" stroke="#394F4A" stroke-width="1.49" />
  <path d="M 238.072 67.826 L 241.100 66.216 L 240.166 66.580 L 249.648 70.599 L 242.069 70.424 L 239.035 67.639 L 234.815 69.004 L 239.037 75.252 L 235.839 65.786 L 233.532 77.431 L 233.123 76.508 L 235.126 84.621 L 235.534 85.273 L 237.364 81.038 L 236.419 87.155 L 232.932 85.034 L 230.728 82.531 L 231.173 82.391 L 226.803 85.125 L 235.044 81.373 L 230.226 80.892 L 228.244 79.383 L 226.941 80.788 L 227.128 84.070 L 225.335 84.640 L 229.050 87.182 L 223.509 95.115 L 229.076 94.559 L 232.344 91.765 L 223.911 91.790 L 227.507 88.973 L 223.720 93.388 L 225.645 90.004 L 220.513 92.045 L 223.497 95.423 L 225.000 94.159 L 220.431 95.037 L 218.604 93.517 L 210.142 96.257 L 207.134 98.987 L 210.583 95.943 L 210.534 99.293 L 202.796 106.128 L 234.096 91.944 L 226.526 85.957 L 233.237 73.324 L 230.549 74.263 L 234.287 75.421" fill="none" stroke="#7696E4" stroke-width="0.29" />
  <path d="M 115.971 69.903 L 120.108 77.398 L 115.214 76.841 L 115.933 69.746" fill="none" stroke="#35443F" stroke-width="0.30" />
  <path d="M 108.555 71.881 L 119.033 96.113 L 116.353 96.318 L 118.925 87.327 L 111.969 74.611" fill="none" stroke="#35443F" stroke-width="0.30" />
  <path d="M 129.425 72.263 L 136.619 74.133 L 160.246 76.502 L 158.899 74.018 L 127.175 74.697" fill="none" stroke="#7EA4ED" stroke-width="0.28" />
  <path d="M 88.089 77.905 L 99.824 86.633 L 105.534 85.372 L 107.900 92.697 L 105.982 86.124 L 107.652 90.739 L 99.566 83.174 L 99.281 89.652 L 88.894 76.872 L 85.320 78.155 L 88.223 86.353 L 82.605 88.209 L 83.397 84.510 L 82.163 75.728 L 88.519 74.814" fill="none" stroke="#1F2A25" stroke-width="0.30" />
  <path d="M 164.795 75.051 L 166.921 85.153 L 173.836 83.497 L 171.830 82.623 L 167.173 86.521 L 165.436 83.863 L 166.854 87.251 L 160.720 87.600 L 156.993 99.324 L 159.338 96.905 L 168.638 79.608" fill="none" stroke="#7FA4F1" stroke-width="0.32" />
  <path d="M 177.544 79.168 L 187.896 94.902 L 192.437 94.097 L 190.419 102.540 L 186.453 92.041 L 181.279 84.756" fill="none" stroke="#819BCB" stroke-width="0.30" />
  <path d="M 137.905 83.864 L 146.959 93.045 L 153.836 100.373 L 149.628 89.340 L 150.428 90.172 L 145.377 88.480" fill="none" stroke="#596561" stroke-width="0.32" />
  <path d="M 126.307 88.333 L 126.659 94.996 L 135.070 99.918 L 136.140 100.725 L 129.207 97.666 L 122.185 90.766" fill="none" stroke="#374341" stroke-width="0.31" />
  <path d="M 174.740 86.997 L 175.985 90.255 L 171.827 97.307 L 175.758 88.891" fill="none" stroke="#526060" stroke-width="0.28" />
  <path d="M 136.504 89.712 L 142.386 93.176 L 146.974 87.804 L 140.152 93.641" fill="none" stroke="#324646" stroke-width="0.31" />
  <path d="M 80.478 99.843 L 77.985 107.824 L 75.816 103.529" fill="none" stroke="#92ADD8" stroke-width="0.83" />
  <path d="M 92.485 100.133 L 98.292 102.528 L 97.256 102.709 L 93.923 102.701 L 98.310 105.202 L 90.964 107.763 L 88.386 120.440 L 90.520 101.257" fill="none" stroke="#5E6467" stroke-width="2.76" />
  <path d="M 145.517 100.309 L 144.869 107.265 L 145.442 110.198 L 144.426 105.584" fill="none" stroke="#2B3D3E" stroke-width="0.29" />
  <path d="M 141.158 96.748 L 144.098 107.717 L 140.572 109.738 L 137.746 104.272" fill="none" stroke="#2E4343" stroke-width="0.28" />
  <path d="M 113.455 106.687 L 109.043 107.437 L 109.704 124.367 L 108.603 114.091 L 112.392 108.346" fill="none" stroke="#424B4A" stroke-width="2.21" />
  <path d="M 99.997 107.640 L 117.665 151.705 L 112.147 135.288 L 107.428 129.854 L 105.050 122.594 L 99.648 107.300" fill="none" stroke="#4D5B58" stroke-width="0.32" />
  <path d="M 158.622 110.147 L 158.829 111.462 L 159.382 108.918 L 151.955 117.940 L 145.653 136.448 L 148.651 144.069 L 148.094 139.260 L 146.003 131.932 L 148.915 121.386 L 159.253 111.066" fill="none" stroke="#2E4340" stroke-width="0.28" />
  <path d="M 142.444 110.491 L 151.436 114.056 L 147.568 118.674 L 151.640 111.949 L 124.473 119.704" fill="none" stroke="#1E3031" stroke-width="0.28" />
  <path d="M 73.579 117.785 L 70.609 125.476 L 65.191 136.479 L 71.604 153.744 L 87.942 169.947 L 71.052 156.765 L 63.570 137.994 L 64.913 131.220 L 68.111 118.514" fill="none" stroke="#8296B8" stroke-width="0.84" />
  <path d="M 160.688 115.400 L 157.674 113.621 L 161.941 121.690 L 174.623 118.919 L 155.068 118.562" fill="none" stroke="#3B504F" stroke-width="0.31" />
  <path d="M 188.970 114.441 L 194.915 164.134 L 192.964 201.573 L 201.769 233.268 L 194.742 204.840 L 197.009 163.003 L 188.899 117.738" fill="none" stroke="#6F7887" stroke-width="1.50" />
  <path d="M 45.188 118.553 L 50.729 124.783 L 56.911 122.894 L 65.391 123.765 L 59.783 124.195 L 60.311 119.358 L 59.296 119.354 L 51.096 127.443 L 46.822 120.071 L 42.540 117.430 L 48.225 118.146" fill="none" stroke="#AFC8ED" stroke-width="1.78" />
  <path d="M 118.814 121.367 L 126.018 126.639 L 128.842 133.100 L 135.599 131.785 L 136.342 138.497 L 132.760 134.296 L 126.234 132.811 L 126.174 127.277 L 123.338 125.077 L 115.350 118.105" fill="none" stroke="#2D3735" stroke-width="0.96" />
  <path d="M 81.367 116.902 L 84.092 121.102 L 82.392 123.546" fill="none" stroke="#6B7871" stroke-width="0.20" />
  <path d="M 142.535 121.446 L 138.120 125.100 L 136.593 121.459 L 138.761 122.800 L 135.936 127.766 L 136.503 122.173" fill="none" stroke="#0A1F1A" stroke-width="0.29" />
  <path d="M 185.803 124.982 L 184.815 140.733 L 188.104 151.606 L 181.877 141.909 L 182.316 150.105 L 178.926 145.541 L 183.834 125.725" fill="none" stroke="#636E6F" stroke-width="2.21" />
  <path d="M 93.039 129.827 L 99.602 137.396 L 93.331 128.932 L 90.611 132.706 L 89.081 123.646" fill="none" stroke="#22332F" stroke-width="0.30" />
  <path d="M 78.911 131.355 L 80.934 139.459 L 77.943 132.998 L 77.187 142.192 L 76.067 145.921 L 72.956 148.031" fill="none" stroke="#5F6764" stroke-width="1.89" />
  <path d="M 116.203 133.824 L 122.581 147.625 L 124.799 149.578 L 122.699 155.330 L 126.564 147.946 L 121.134 130.626" fill="none" stroke="#273736" stroke-width="0.29" />
  <path d="M 87.854 138.705 L 91.817 143.195 L 98.675 153.109 L 91.246 138.769 L 87.575 133.763 L 82.159 144.316" fill="none" stroke="#606A66" stroke-width="0.32" />
  <path d="M 158.518 142.654 L 160.628 143.628 L 160.035 139.410 L 160.902 141.446 L 155.046 144.152 L 153.425 143.352" fill="none" stroke="#526060" stroke-width="0.28" />
  <path d="M 152.125 139.487 L 149.971 142.502 L 153.041 144.997 L 145.632 150.217 L 123.799 158.026 L 96.155 162.456 L 91.622 156.410" fill="none" stroke="#4F5D5B" stroke-width="0.79" />
  <path d="M 80.892 144.138 L 84.465 152.778 L 82.621 149.128" fill="none" stroke="#454F4C" stroke-width="0.77" />
  <path d="M 179.652 151.389 L 180.702 152.627 L 192.051 166.078 L 191.959 162.869 L 186.208 166.437 L 192.007 161.063 L 180.100 158.178 L 173.431 177.073 L 178.644 154.647" fill="none" stroke="#2F3937" stroke-width="0.28" />
  <path d="M 288.035 156.557 L 295.128 157.476 L 289.201 155.672 L 276.559 160.320" fill="none" stroke="#93B2F2" stroke-width="1.47" />
  <path d="M 88.250 154.062 L 90.100 154.840 L 88.213 155.186 L 86.919 159.144 L 82.858 158.011" fill="none" stroke="#515952" stroke-width="0.30" />
  <path d="M 142.417 158.930 L 145.535 162.463 L 145.242 155.853 L 150.869 156.689 L 142.395 162.818 L 148.148 153.082" fill="none" stroke="#5A6564" stroke-width="0.31" />
  <path d="M 207.045 158.803 L 223.285 165.862 L 224.282 164.894 L 226.994 168.766 L 218.741 161.861 L 217.486 163.988 L 209.487 156.605 L 200.597 162.040" fill="none" stroke="#91B4F8" stroke-width="0.31" />
  <path d="M 157.023 157.803 L 156.138 162.576 L 153.947 164.274 L 156.360 161.416" fill="none" stroke="#54605E" stroke-width="0.31" />
  <path d="M 170.308 161.561 L 168.773 170.165 L 171.136 160.662" fill="none" stroke="#465250" stroke-width="1.62" />
  <path d="M 283.039 158.520 L 284.905 169.043 L 286.957 167.084 L 280.912 160.664" fill="none" stroke="#A5BFED" stroke-width="1.05" />
  <path d="M 123.876 160.194 L 110.681 168.899 L 110.958 177.147 L 114.486 172.761 L 104.522 177.655 L 107.540 166.053" fill="none" stroke="#666F6E" stroke-width="0.29" />
  <path d="M 126.008 161.328 L 122.528 168.407 L 120.154 173.576 L 123.430 166.388" fill="none" stroke="#4F5B59" stroke-width="0.29" />
  <path d="M 289.787 161.877 L 293.738 169.331 L 294.487 176.038 L 296.247 174.421 L 293.334 172.544" fill="none" stroke="#B0C4E0" stroke-width="1.11" />
  <path d="M 128.250 172.136 L 127.714 172.145 L 134.080 176.693 L 129.339 173.045 L 130.112 166.141" fill="none" stroke="#353F3B" stroke-width="0.32" />
  <path d="M 185.935 171.230 L 188.551 172.999 L 185.968 171.411 L 186.087 172.383 L 186.608 179.000" fill="none" stroke="#2F3B37" stroke-width="0.29" />
  <path d="M 159.255 168.677 L 155.139 177.163 L 153.534 173.896 L 153.163 173.203" fill="none" stroke="#49594D" stroke-width="1.59" />
  <path d="M 155.509 175.056 L 157.216 177.907 L 161.983 176.580 L 160.612 172.792 L 159.966 181.376 L 158.716 171.169" fill="none" stroke="#435347" stroke-width="1.84" />
  <path d="M 142.279 173.089 L 144.258 173.061 L 145.729 180.627 L 141.148 171.709" fill="none" stroke="#334239" stroke-width="1.37" />
  <path d="M 75.967 177.655 L 64.553 182.854 L 60.722 203.010 L 61.685 188.679" fill="none" stroke="#BFCAE9" stroke-width="0.32" />
  <path d="M 293.580 177.371 L 298.097 182.789 L 296.430 180.210 L 297.887 181.545 L 297.886 172.666 L 294.745 181.706 L 297.992 179.018" fill="none" stroke="#96B9EF" stroke-width="0.37" />
  <path d="M 104.298 182.115 L 105.722 180.856 L 107.392 188.440 L 107.226 181.338 L 100.186 183.379 L 99.741 179.188" fill="none" stroke="#2A3833" stroke-width="0.76" />
  <path d="M 122.093 182.395 L 158.406 183.296 L 178.532 199.939 L 189.313 207.832 L 177.981 202.292 L 164.188 185.444 L 137.626 181.140 L 114.249 183.329 L 110.297 187.059" fill="none" stroke="#2B3E37" stroke-width="1.20" />
  <path d="M 177.502 184.459 L 187.224 188.949 L 183.188 183.974" fill="none" stroke="#29362D" stroke-width="0.34" />
  <path d="M 163.394 181.578 L 177.215 191.777 L 168.091 180.624" fill="none" stroke="#1B281D" stroke-width="0.80" />
  <path d="M 91.045 185.455 L 85.508 196.429 L 86.239 197.337" fill="none" stroke="#44554F" stroke-width="0.30" />
  <path d="M 111.757 188.084 L 116.311 193.285 L 120.694 190.118 L 117.649 190.041 L 116.290 192.639 L 127.382 206.771 L 125.507 217.953 L 124.868 206.630 L 119.518 200.086 L 111.292 194.060 L 114.161 188.566 L 112.539 189.830" fill="none" stroke="#253C34" stroke-width="1.45" />
  <path d="M 82.106 189.246 L 80.163 191.553 L 82.931 198.359 L 83.966 198.607 L 79.157 194.225" fill="none" stroke="#606A66" stroke-width="1.27" />
  <path d="M 135.705 187.945 L 148.506 193.261 L 141.986 187.801" fill="none" stroke="#495A54" stroke-width="0.32" />
  <path d="M 151.186 195.373 L 155.295 197.643 L 150.153 192.018 L 154.383 193.349 L 150.970 194.738 L 151.599 187.377" fill="none" stroke="#414D4B" stroke-width="0.29" />
  <path d="M 184.073 192.444 L 186.093 196.617 L 179.910 195.429 L 179.210 199.541 L 183.326 196.748" fill="none" stroke="#19251F" stroke-width="0.31" />
  <path d="M 138.020 196.422 L 144.669 201.572 L 141.719 203.742 L 161.963 223.713 L 161.030 236.555 L 170.097 242.976 L 191.373 248.745 L 159.500 240.291 L 162.271 224.229 L 146.409 203.522 L 149.876 203.499 L 139.973 193.298 L 138.519 202.338 L 133.937 199.662" fill="none" stroke="#33403D" stroke-width="2.56" />
  <path d="M 75.017 197.054 L 67.630 199.547 L 74.346 206.072 L 69.915 198.251 L 71.896 203.943 L 70.613 216.411 L 68.435 205.458 L 68.614 197.695" fill="none" stroke="#36423E" stroke-width="1.95" />
  <path d="M 158.488 202.637 L 175.614 211.328 L 183.237 232.280 L 197.132 243.440 L 185.937 231.354 L 173.584 212.853 L 173.140 212.793 L 171.988 211.760 L 172.478 207.028 L 162.282 200.894 L 159.802 201.968" fill="none" stroke="#394742" stroke-width="3.41" />
  <path d="M 94.821 198.189 L 116.750 227.823 L 119.700 235.568 L 117.352 223.481 L 106.037 218.253 L 101.975 218.526 L 105.948 220.527 L 103.530 223.968 L 104.972 221.477 L 101.713 213.536 L 94.131 201.900 L 93.645 197.831" fill="none" stroke="#647283" stroke-width="0.28" />
  <path d="M 62.688 204.607 L 62.418 209.426 L 59.851 206.247" fill="none" stroke="#323C46" stroke-width="0.20" />
  <path d="M 90.964 205.379 L 93.935 205.777 L 91.676 203.649" fill="none" stroke="#707D90" stroke-width="0.20" />
  <path d="M 48.638 206.801 L 40.188 212.939" fill="none" stroke="#BDCAE6" stroke-width="0.43" />
  <path d="M 55.491 212.530 L 53.333 221.263 L 49.725 219.999 L 47.585 217.491 L 45.546 220.343" fill="none" stroke="#596261" stroke-width="1.34" />
  <path d="M 138.512 208.951 L 147.033 225.407 L 149.568 230.231 L 156.201 238.464 L 159.398 250.185 L 156.651 241.688 L 143.657 213.825" fill="none" stroke="#48574D" stroke-width="0.32" />
  <path d="M 95.335 215.789 L 102.485 218.787 L 94.459 214.441" fill="none" stroke="#94A4A8" stroke-width="1.25" />
  <path d="M 166.341 216.592 L 172.788 229.348 L 177.045 226.042 L 178.095 223.701 L 173.210 229.166 L 177.218 225.667 L 173.881 229.609 L 165.845 217.724" fill="none" stroke="#2A372E" stroke-width="3.18" />
  <path d="M 61.544 219.705 L 65.122 217.281 L 64.057 219.780 L 64.805 225.570 L 58.919 225.097" fill="none" stroke="#2A3A3A" stroke-width="0.32" />
  <path d="M 97.490 221.528 L 107.809 228.399 L 108.260 235.115 L 100.680 220.906" fill="none" stroke="#5B656B" stroke-width="0.32" />
  <path d="M 138.478 221.630 L 141.635 231.793 L 132.391 217.579" fill="none" stroke="#3C4C40" stroke-width="0.30" />
  <path d="M 73.538 221.520 L 77.719 228.705 L 76.818 222.319" fill="none" stroke="#18281C" stroke-width="0.30" />
  <path d="M 93.968 224.187 L 94.120 222.233 L 92.537 231.433 L 96.992 237.563 L 95.538 234.802 L 93.783 236.927 L 92.731 229.985 L 96.265 231.657 L 90.216 218.648 L 92.147 223.205" fill="none" stroke="#2C3C37" stroke-width="0.28" />
  <path d="M 35.029 222.754 L 32.050 229.002 L 25.786 233.360 L 30.417 227.828" fill="none" stroke="#636A66" stroke-width="0.65" />
  <path d="M 44.043 226.962 L 46.945 225.692 L 38.989 222.500 L 42.937 236.907 L 41.834 230.455 L 36.313 232.591" fill="none" stroke="#374844" stroke-width="2.31" />
  <path d="M 164.089 226.121 L 168.443 232.573 L 177.520 241.555 L 175.278 233.372 L 173.973 236.730 L 165.486 230.296" fill="none" stroke="#243128" stroke-width="2.63" />
  <path d="M 97.193 227.655 L 101.290 234.306 L 102.301 227.815 L 102.349 233.712 L 97.126 235.192" fill="none" stroke="#334342" stroke-width="0.29" />
  <path d="M 27.471 228.720 L 28.895 244.185 L 42.367 280.079 L 79.652 316.285 L 84.772 319.798 L 78.920 317.366 L 45.471 283.033 L 24.767 249.766 L 22.459 232.084" fill="none" stroke="#BFCEDB" stroke-width="0.28" />
  <path d="M 116.101 227.889 L 121.132 256.900 L 117.648 257.442 L 103.966 259.711 L 99.055 262.667 L 119.832 259.168 L 120.736 253.283 L 113.635 232.197" fill="none" stroke="#122118" stroke-width="1.58" />
  <path d="M 298.529 233.610 L 290.816 236.562 L 293.306 243.236 L 291.389 235.287 L 287.685 248.622 L 283.181 248.600 L 284.870 242.009 L 277.909 249.291 L 275.485 250.236 L 263.085 244.631 L 262.155 248.430 L 263.199 245.860 L 256.658 249.914 L 238.871 249.022 L 238.870 245.584 L 223.494 243.720 L 225.554 241.004 L 293.400 239.571 L 291.901 236.783" fill="none" stroke="#92B1F7" stroke-width="0.30" />
  <path d="M 201.690 236.269 L 195.532 243.186 L 192.642 251.079 L 202.817 239.388" fill="none" stroke="#7C92B4" stroke-width="0.28" />
  <path d="M 211.813 239.307 L 221.328 243.148 L 218.088 240.540 L 216.993 242.718 L 216.478 240.789 L 213.204 247.456 L 211.691 238.662 L 210.084 247.425 L 204.626 241.499" fill="none" stroke="#90B2FB" stroke-width="0.90" />
  <path d="M 291.915 245.192 L 288.296 255.308 L 287.792 253.409 L 284.404 256.068 L 279.945 259.094 L 279.312 262.836 L 279.528 257.552 L 276.372 262.068 L 275.559 259.135 L 278.545 262.421 L 291.988 248.363 L 295.500 252.499 L 291.031 243.794" fill="none" stroke="#C9D8ED" stroke-width="0.71" />
  <path d="M 64.533 246.780 L 81.954 258.032 L 91.984 263.077 L 67.759 247.150 L 62.028 250.533 L 62.702 257.668 L 63.512 256.350 L 58.757 258.262 L 60.578 256.186 L 63.115 262.471 L 63.206 251.566 L 59.565 249.699" fill="none" stroke="#18221B" stroke-width="0.31" />
  <path d="M 255.091 254.348 L 253.077 256.086 L 255.088 257.902 L 256.685 257.561 L 262.520 252.187 L 258.407 259.465 L 255.864 252.726 L 256.085 256.018 L 252.631 258.447 L 251.279 258.171" fill="none" stroke="#DCDBDA" stroke-width="0.30" />
  <path d="M 166.316 256.169 L 170.898 285.766 L 166.232 265.187" fill="none" stroke="#1E2C28" stroke-width="0.29" />
  <path d="M 171.238 257.393 L 177.008 263.092 L 176.191 268.390 L 189.443 278.393 L 176.960 276.478 L 174.937 265.280 L 174.931 259.474" fill="none" stroke="#2F3D3D" stroke-width="0.31" />
  <path d="M 254.431 259.379 L 261.219 281.072 L 268.469 292.614 L 258.625 290.417 L 257.189 265.475" fill="none" stroke="#CACBDF" stroke-width="0.32" />
  <path d="M 124.748 259.392 L 125.365 260.991 L 135.573 268.301 L 129.453 272.691 L 126.466 284.734 L 131.098 269.759 L 131.305 264.948 L 125.894 262.385" fill="none" stroke="#2E3E35" stroke-width="0.31" />
  <path d="M 119.350 260.560 L 127.398 267.941 L 122.010 266.568 L 122.665 265.932" fill="none" stroke="#283B36" stroke-width="0.61" />
  <path d="M 115.158 267.662 L 109.575 269.994 L 117.589 281.954 L 115.644 285.884 L 117.541 283.616 L 117.909 282.893 L 114.458 277.806 L 108.475 268.010" fill="none" stroke="#142520" stroke-width="0.43" />
  <path d="M 258.309 262.101 L 254.128 286.950 L 253.296 264.844" fill="none" stroke="#E5D3B5" stroke-width="0.37" />
  <path d="M 282.361 263.435 L 293.431 274.724 L 294.257 285.491 L 301.447 289.811 L 296.823 287.502 L 293.641 290.698 L 294.159 285.961 L 294.706 288.222 L 289.604 286.702 L 292.481 278.139 L 296.487 268.187 L 288.895 274.611 L 294.584 275.118 L 292.624 275.026 L 290.316 266.045 L 287.820 266.888 L 286.652 270.500 L 286.992 263.504 L 282.991 261.917" fill="none" stroke="#DCE7EB" stroke-width="0.32" />
  <path d="M 218.302 265.911 L 230.893 278.225 L 237.209 288.901 L 239.097 300.383 L 222.988 269.109" fill="none" stroke="#747F9B" stroke-width="0.52" />
  <path d="M 162.284 265.950 L 165.109 279.539 L 159.531 266.883" fill="none" stroke="#1E2E22" stroke-width="1.26" />
  <path d="M 92.848 274.136 L 94.445 286.993 L 104.518 310.954 L 125.700 337.503 L 107.351 315.371 L 94.838 291.632 L 95.655 275.828" fill="none" stroke="#B9C3D7" stroke-width="0.29" />
  <path d="M 100.324 274.902 L 104.628 294.300 L 107.663 307.860 L 107.238 294.144 L 101.520 278.150" fill="none" stroke="#5D6771" stroke-width="0.55" />
  <path d="M 135.253 274.609 L 145.767 291.270 L 150.403 305.204 L 139.035 277.190" fill="none" stroke="#09190D" stroke-width="0.86" />
  <path d="M 199.407 276.521 L 204.237 285.162 L 197.566 282.055" fill="none" stroke="#394646" stroke-width="1.58" />
  <path d="M 176.752 281.014 L 199.601 310.858 L 206.575 315.092 L 191.581 300.341 L 192.446 290.656 L 180.615 286.293 L 176.591 288.209 L 180.714 279.130" fill="none" stroke="#0B120E" stroke-width="1.12" />
  <path d="M 85.103 280.275 L 93.367 296.275 L 88.371 297.414 L 85.697 289.396 L 88.339 290.520 L 88.960 287.046 L 81.536 287.193 L 84.300 281.976" fill="none" stroke="#101F16" stroke-width="0.31" />
  <path d="M 220.389 286.338 L 230.932 300.132 L 223.757 307.502 L 216.096 294.324 L 216.890 290.718 L 217.033 291.267 L 228.825 301.139 L 221.604 288.721" fill="none" stroke="#47504E" stroke-width="1.82" />
  <path d="M 201.708 290.315 L 205.576 289.888 L 198.856 289.379 L 191.511 295.743" fill="none" stroke="#263939" stroke-width="1.36" />
  <path d="M 169.535 290.999 L 178.910 318.333 L 179.675 325.204 L 180.191 324.999 L 176.997 329.914 L 164.106 343.256 L 181.464 316.749 L 175.479 303.421 L 177.500 309.836 L 177.077 302.606 L 170.802 292.820 L 167.611 292.135" fill="none" stroke="#26362B" stroke-width="0.31" />
  <path d="M 137.116 292.592 L 132.327 300.656" fill="none" stroke="#152219" stroke-width="0.83" />
  <path d="M 165.360 292.478 L 165.205 295.446 L 163.903 295.555 L 167.848 296.666 L 163.136 298.680" fill="none" stroke="#35453B" stroke-width="1.21" />
  <path d="M 249.012 296.649 L 259.930 309.264 L 259.850 307.786 L 256.265 315.598 L 258.338 303.395 L 251.566 294.499 L 248.456 299.817 L 247.307 307.141 L 250.482 299.700" fill="none" stroke="#C8A97E" stroke-width="0.29" />
  <path d="M 241.588 300.418 L 239.244 298.732 L 249.383 311.675 L 241.081 302.213" fill="none" stroke="#6D737A" stroke-width="1.65" />
  <path d="M 268.153 299.053 L 261.135 314.791 L 260.602 307.165 L 267.173 301.098" fill="none" stroke="#9E9C81" stroke-width="2.15" />
  <path d="M 160.997 299.732 L 170.894 308.860 L 160.701 300.921 L 158.111 300.019" fill="none" stroke="#243126" stroke-width="0.28" />
  <path d="M 245.011 298.847 L 245.411 306.670 L 242.831 299.210" fill="none" stroke="#858384" stroke-width="0.35" />
  <path d="M 110.873 297.758 L 126.297 314.997 L 124.680 328.500 L 130.905 334.227 L 129.470 324.234 L 121.227 309.813 L 117.104 308.820 L 113.481 300.020" fill="none" stroke="#39453F" stroke-width="3.11" />
  <path d="M 76.694 304.896 L 82.055 302.009 L 88.208 311.542 L 88.577 309.727 L 92.782 318.410 L 96.984 318.119 L 101.304 314.857 L 103.461 325.102 L 101.012 316.264 L 90.970 319.345 L 91.450 314.894 L 89.665 312.180 L 89.038 309.051 L 89.220 310.332 L 86.645 305.985 L 85.637 305.063 L 82.900 304.145 L 84.240 306.665 L 83.137 301.530 L 74.003 304.170" fill="none" stroke="#2C3830" stroke-width="0.29" />
  <path d="M 147.300 307.069 L 149.019 309.617 L 147.040 300.673" fill="none" stroke="#1F2E25" stroke-width="1.01" />
  <path d="M 268.121 308.142 L 268.502 320.880 L 264.811 308.602" fill="none" stroke="#C69C78" stroke-width="0.68" />
  <path d="M 297.981 309.722 L 294.064 324.781 L 293.364 330.127 L 294.065 315.593" fill="none" stroke="#CACDD7" stroke-width="0.29" />
  <path d="M 161.607 309.278 L 173.996 317.043 L 174.954 323.511 L 170.010 326.665 L 174.738 315.930 L 178.755 317.882 L 171.576 313.348 L 161.905 312.281 L 151.941 311.858 L 148.763 313.536 L 147.089 326.202 L 131.516 331.483 L 146.486 320.808" fill="none" stroke="#15221D" stroke-width="2.01" />
  <path d="M 253.585 311.589 L 257.807 319.416 L 247.317 315.488" fill="none" stroke="#60601E" stroke-width="0.31" />
  <path d="M 208.607 313.803 L 213.848 323.949 L 210.270 311.024" fill="none" stroke="#394744" stroke-width="0.31" />
  <path d="M 231.737 313.447 L 241.152 324.306 L 234.745 318.444" fill="none" stroke="#515858" stroke-width="0.34" />
  <path d="M 282.247 312.828 L 287.509 317.204 L 289.445 328.535 L 277.437 339.495 L 290.103 315.614" fill="none" stroke="#BFC8D5" stroke-width="0.32" />
  <path d="M 160.245 315.989 L 161.496 320.677 L 158.167 323.945 L 156.207 322.144" fill="none" stroke="#3D4D4A" stroke-width="1.41" />
  <path d="M 204.912 317.395 L 202.496 323.551 L 199.494 335.433 L 196.130 333.068 L 194.909 323.500 L 190.440 330.969 L 192.203 327.969 L 186.597 330.670 L 179.501 333.280 L 199.755 327.463 L 202.908 317.898" fill="none" stroke="#091C18" stroke-width="0.29" />
  <path d="M 219.038 319.680 L 219.616 319.335 L 220.462 319.737 L 218.794 322.802 L 210.119 327.287 L 206.837 321.773 L 204.125 325.162 L 217.421 320.992" fill="none" stroke="#394946" stroke-width="2.52" />
  <path d="M 55.095 321.788 L 57.839 329.564 L 55.534 321.343" fill="none" stroke="#D6E3F1" stroke-width="0.32" />
  <path d="M 74.762 323.836 L 69.110 333.670 L 67.359 325.469" fill="none" stroke="#D1DCED" stroke-width="1.05" />
  <path d="M 85.335 321.882 L 97.250 334.041 L 88.596 326.427 L 83.358 323.105" fill="none" stroke="#53604C" stroke-width="0.30" />
  <path d="M 160.494 325.429 L 160.331 330.248 L 159.942 325.588 L 178.195 325.129 L 166.148 325.976 L 162.056 330.136 L 157.227 323.420" fill="none" stroke="#384C4A" stroke-width="0.30" />
  <path d="M 45.356 326.720 L 44.461 339.625 L 48.476 338.549 L 44.779 327.088" fill="none" stroke="#D0E3EF" stroke-width="1.98" />
  <path d="M 271.802 327.489 L 278.570 334.097 L 271.914 326.668" fill="none" stroke="#AFB7AB" stroke-width="0.29" />
  <path d="M 65.322 327.901 L 67.497 337.108 L 68.998 343.604 L 69.919 339.577 L 66.950 344.119 L 69.006 353.217 L 76.033 350.322 L 67.117 347.693 L 66.061 343.954 L 64.594 333.269" fill="none" stroke="#67745D" stroke-width="0.31" />
  <path d="M 42.771 331.580 L 41.442 344.163 L 41.461 343.519 L 41.662 327.302" fill="none" stroke="#D0E2F1" stroke-width="0.30" />
  <path d="M 200.040 331.413 L 198.828 334.238 L 196.866 331.802 L 192.851 337.397" fill="none" stroke="#2A3C3B" stroke-width="0.29" />
  <path d="M 242.952 330.540 L 251.652 346.282 L 249.100 339.817 L 245.137 344.753 L 242.213 333.813 L 242.308 334.283 L 247.373 332.276 L 235.506 339.986 L 239.884 333.777" fill="none" stroke="#57605E" stroke-width="2.59" />
  <path d="M 259.466 331.462 L 271.745 346.057 L 259.493 340.873 L 259.182 332.259" fill="none" stroke="#525B36" stroke-width="0.28" />
  <path d="M 252.873 336.505 L 257.689 336.011 L 255.640 340.890 L 255.027 333.930" fill="none" stroke="#465227" stroke-width="0.29" />
  <path d="M 105.366 333.841 L 108.730 336.672 L 111.576 342.996 L 107.809 335.395 L 108.180 335.904 L 104.550 339.449 L 104.524 335.516" fill="none" stroke="#1C2C2C" stroke-width="3.01" />
  <path d="M 180.657 335.503 L 171.507 346.919 L 152.713 351.747 L 140.539 354.259 L 131.212 357.767 L 126.277 355.631 L 119.428 357.851 L 116.430 366.173 L 112.617 369.172 L 113.333 365.978 L 172.429 340.256" fill="none" stroke="#273133" stroke-width="3.27" />
  <path d="M 60.712 334.706 L 56.095 338.744 L 59.744 337.007 L 58.463 338.842 L 51.294 346.019 L 52.601 342.793" fill="none" stroke="#70766B" stroke-width="0.28" />
  <path d="M 288.566 332.984 L 302.174 354.764 L 298.654 356.098 L 289.238 336.390" fill="none" stroke="#404B2E" stroke-width="0.71" />
  <path d="M 155.468 339.629 L 144.182 346.879" fill="none" stroke="#495C5A" stroke-width="0.29" />
  <path d="M 100.822 340.766 L 104.719 349.228 L 106.056 350.760 L 106.449 348.592 L 102.299 347.670 L 98.521 338.842" fill="none" stroke="#6C7574" stroke-width="1.29" />
  <path d="M 158.490 336.269 L 156.394 347.637 L 157.877 337.010" fill="none" stroke="#495958" stroke-width="0.32" />
  <path d="M 191.382 338.735 L 192.161 343.115 L 189.967 340.059 L 181.246 348.092 L 179.592 348.966 L 185.659 343.059" fill="none" stroke="#3B4A4C" stroke-width="0.45" />
  <path d="M 127.562 338.545 L 127.530 345.455 L 119.983 347.017 L 118.349 357.358 L 116.912 343.792" fill="none" stroke="#101918" stroke-width="1.30" />
  <path d="M 40.668 340.307 L 48.731 349.062 L 42.064 344.147" fill="none" stroke="#737B7F" stroke-width="0.28" />
  <path d="M 35.538 345.816 L 42.515 353.027 L 49.263 352.436 L 47.442 355.053 L 45.178 353.835 L 45.021 353.165 L 40.668 350.517 L 39.793 347.494" fill="none" stroke="#B3C1BA" stroke-width="0.32" />
  <path d="M 130.545 342.313 L 137.126 345.861 L 135.169 350.828 L 134.100 342.102" fill="none" stroke="#565F5E" stroke-width="0.32" />
  <path d="M 110.770 347.297 L 115.591 355.600 L 112.941 350.585 L 112.160 344.993" fill="none" stroke="#495755" stroke-width="0.28" />
  <path d="M 281.458 344.268 L 276.648 357.305 L 277.545 349.260 L 273.732 351.515" fill="none" stroke="#46543B" stroke-width="0.30" />
  <path d="M 251.356 347.200 L 251.035 347.361 L 256.941 355.529 L 251.332 348.047" fill="none" stroke="#2C391E" stroke-width="0.29" />
  <path d="M 263.680 346.208 L 270.581 350.427 L 259.141 348.751 L 263.964 346.083 L 264.968 351.819 L 265.392 351.849 L 262.980 349.146 L 260.300 347.227" fill="none" stroke="#37491E" stroke-width="2.80" />
  <path d="M 192.148 347.498 L 199.413 351.716 L 197.446 347.677 L 194.952 350.099 L 198.228 352.909" fill="none" stroke="#535E5F" stroke-width="0.58" />
  <path d="M 49.394 351.348 L 60.379 349.541 L 53.085 349.168" fill="none" stroke="#48533B" stroke-width="0.31" />
  <path d="M 94.814 352.404 L 91.997 357.148 L 85.262 363.180 L 84.198 370.887 L 88.498 368.513 L 80.713 368.252 L 90.055 356.788 L 94.442 350.462" fill="none" stroke="#5B664E" stroke-width="0.29" />
  <path d="M 219.514 351.149 L 210.187 354.768" fill="none" stroke="#526060" stroke-width="0.32" />
  <path d="M 49.240 351.314 L 56.644 358.010 L 54.002 369.500 L 60.640 368.976 L 52.526 373.455 L 54.920 364.341 L 53.775 348.907" fill="none" stroke="#959D94" stroke-width="0.30" />
  <path d="M 164.859 355.358 L 178.745 359.058 L 187.202 359.436 L 211.825 355.537 L 204.963 357.536 L 203.924 351.534 L 189.523 357.644 L 169.909 356.110 L 162.456 352.999" fill="none" stroke="#5E6363" stroke-width="0.31" />
  <path d="M 10.065 353.866 L 9.369 360.724 L 8.550 355.695 L 4.812 354.824" fill="none" stroke="#E0F2F0" stroke-width="0.91" />
  <path d="M 100.625 353.576 L 100.296 364.108 L 95.141 372.637 L 96.955 367.810" fill="none" stroke="#727979" stroke-width="0.29" />
  <path d="M 259.709 353.226 L 268.024 356.296 L 257.812 358.077" fill="none" stroke="#273807" stroke-width="0.31" />
  <path d="M 40.749 354.643 L 40.894 363.413 L 34.000 370.089 L 40.756 358.522" fill="none" stroke="#7E8887" stroke-width="1.87" />
  <path d="M 14.107 354.622 L 14.868 360.430 L 17.785 362.893 L 17.231 368.353 L 12.788 363.281 L 17.912 357.775" fill="none" stroke="#E0EFF7" stroke-width="0.53" />
  <path d="M 31.201 360.762 L 29.308 366.826" fill="none" stroke="#CEDAE1" stroke-width="0.71" />
  <path d="M 60.686 357.582 L 70.823 358.671 L 69.019 356.201 L 68.813 362.270 L 64.908 354.219 L 64.052 357.259 L 66.866 366.205 L 62.209 360.226" fill="none" stroke="#5B6836" stroke-width="0.84" />
  <path d="M 224.606 364.491 L 220.332 366.705 L 189.702 364.654 L 171.013 368.616 L 167.848 372.173 L 168.414 367.520 L 154.801 371.420 L 148.533 372.473 L 129.725 376.195 L 129.169 379.729 L 128.652 375.369 L 122.425 378.068 L 113.681 377.141 L 97.057 379.999 L 87.679 377.610 L 87.924 373.433 L 82.507 380.822 L 48.303 389.992 L 40.698 393.570 L 41.721 418.471 L 35.810 416.660 L 41.549 407.633 L 44.929 387.767" fill="none" stroke="#6D7262" stroke-width="0.73" />
  <path d="M 43.202 361.193 L 48.448 362.391 L 52.981 366.508 L 46.944 362.850 L 44.807 364.114" fill="none" stroke="#616A4E" stroke-width="2.64" />
  <path d="M 57.677 363.843 L 61.968 368.078 L 57.826 362.596" fill="none" stroke="#535E34" stroke-width="0.35" />
  <path d="M 42.130 364.126 L 42.350 365.930 L 49.370 373.286 L 47.101 372.056" fill="none" stroke="#747A71" stroke-width="0.28" />
  <path d="M 235.094 363.904 L 239.542 370.218 L 247.088 375.882 L 254.976 368.900 L 251.837 372.602 L 257.065 373.677 L 244.054 371.570 L 236.683 366.199 L 232.832 365.329" fill="none" stroke="#394543" stroke-width="0.53" />
  <path d="M 220.157 369.826 L 218.874 369.189 L 228.752 366.151 L 233.775 365.786 L 225.439 368.952 L 221.078 364.998" fill="none" stroke="#69706D" stroke-width="1.08" />
  <path d="M 19.779 367.919 L 20.886 375.339 L 20.058 378.261 L 18.050 369.487" fill="none" stroke="#A0A7B7" stroke-width="0.95" />
  <path d="M 75.302 370.374 L 71.421 370.253 L 66.790 370.205 L 63.944 374.844 L 63.870 368.197" fill="none" stroke="#5A653D" stroke-width="0.29" />
  <path d="M 213.344 371.870 L 212.263 384.785 L 208.267 377.267" fill="none" stroke="#736F63" stroke-width="0.29" />
  <path d="M 264.229 370.118 L 276.794 369.257 L 281.303 379.040 L 279.008 388.854 L 278.927 371.954 L 267.498 369.606" fill="none" stroke="#434F4B" stroke-width="1.08" />
  <path d="M 103.478 366.709 L 100.671 375.077 L 102.641 373.638 L 101.171 372.027" fill="none" stroke="#2D352E" stroke-width="0.28" />
  <path d="M 32.061 372.970 L 38.426 378.113 L 44.890 373.883 L 44.240 372.569 L 37.950 372.573 L 38.624 381.218 L 32.947 370.058 L 40.187 381.462" fill="none" stroke="#5D664C" stroke-width="1.24" />
  <path d="M 68.014 373.575 L 69.606 378.535 L 69.926 379.102 L 65.369 377.129" fill="none" stroke="#616C46" stroke-width="1.97" />
  <path d="M 50.688 370.511 L 57.762 377.840 L 54.134 374.491" fill="none" stroke="#919690" stroke-width="0.29" />
  <path d="M 292.011 374.456 L 297.290 380.789 L 296.686 389.934 L 295.420 376.405" fill="none" stroke="#444C2C" stroke-width="0.28" />
  <path d="M 49.460 376.976 L 44.052 386.271 L 42.420 380.121" fill="none" stroke="#4D592E" stroke-width="0.29" />
  <path d="M 10.942 377.203 L 15.356 382.487 L 25.911 388.429 L 28.544 380.602 L 14.551 384.660 L 9.399 380.337" fill="none" stroke="#889692" stroke-width="1.58" />
  <path d="M 248.158 380.917 L 298.339 398.693 L 250.496 377.386" fill="none" stroke="#5E6661" stroke-width="1.38" />
  <path d="M 19.713 387.386 L 14.358 390.155 L 13.474 399.495 L 13.514 392.737" fill="none" stroke="#565E59" stroke-width="1.63" />
  <path d="M 32.571 390.653 L 38.100 397.295 L 32.064 395.338 L 32.071 392.932" fill="none" stroke="#424D22" stroke-width="1.62" />
  <path d="M 146.554 391.200 L 155.567 395.854 L 157.863 397.522 L 151.798 395.972 L 151.948 398.031 L 153.718 405.763 L 146.065 418.579 L 141.608 416.666 L 147.788 410.367 L 157.446 392.973 L 151.252 388.645" fill="none" stroke="#A39E90" stroke-width="3.83" />
  <path d="M 193.579 392.523 L 188.509 398.172 L 185.841 401.657 L 194.488 396.687 L 186.992 401.571" fill="none" stroke="#94907F" stroke-width="1.90" />
  <path d="M 11.344 394.520 L 17.382 400.626 L 12.679 399.361" fill="none" stroke="#A1B2CA" stroke-width="1.65" />
  <path d="M 4.706 401.575 L 9.277 403.648 L 2.369 404.604 L 5.030 409.353 L 8.793 404.794" fill="none" stroke="#98AFC9" stroke-width="0.32" />
  <path d="M 129.906 402.540 L 133.045 406.762 L 126.785 399.500 L 128.712 409.946 L 129.722 406.884 L 126.577 410.601 L 130.093 406.846" fill="none" stroke="#8A887B" stroke-width="2.05" />
  <path d="M 205.868 399.626 L 212.149 413.695 L 216.831 418.215 L 212.260 417.869 L 209.599 402.952" fill="none" stroke="#AFA89B" stroke-width="0.94" />
  <path d="M 23.438 402.924 L 7.513 418.861" fill="none" stroke="#828B8C" stroke-width="0.93" />
  <path d="M 155.412 407.329 L 160.416 414.039 L 160.395 410.351 L 156.940 413.204 L 158.006 409.351 L 157.426 403.611" fill="none" stroke="#AEA598" stroke-width="1.22" />
  <path d="M 200.505 403.768 L 199.155 409.754 L 195.273 404.787 L 195.513 407.201 L 188.827 407.871 L 183.145 413.285 L 178.451 413.400 L 179.288 415.329 L 187.649 405.383 L 178.811 405.009" fill="none" stroke="#A9A597" stroke-width="0.67" />
  <path d="M 120.786 406.227 L 133.029 409.501 L 131.657 418.988 L 132.220 414.094 L 124.336 409.450 L 114.101 407.510 L 119.242 418.866 L 115.782 408.704 L 112.292 414.806 L 108.208 415.209 L 102.924 412.379 L 104.501 411.444 L 106.764 415.182 L 102.634 415.608 L 100.263 409.996 L 98.575 419.014 L 95.907 419.524 L 97.717 418.320 L 96.740 415.565" fill="none" stroke="#A7A193" stroke-width="0.32" />
  <path d="M 24.996 414.578 L 27.183 416.457 L 25.057 419.876 L 22.893 413.909 L 19.714 416.647" fill="none" stroke="#505833" stroke-width="0.83" />
  <path d="M 107.133 38.282 L 122.294 56.270 L 123.395 72.145 L 122.182 57.135 L 113.851 40.872" fill="none" stroke="#8A9CAF" stroke-width="0.32" />
  <path d="M 99.327 59.477 L 113.470 65.073 L 95.757 62.563" fill="none" stroke="#263633" stroke-width="0.50" />
  <path d="M 70.198 61.336 L 66.888 64.984 L 83.865 98.714 L 95.557 93.939 L 109.636 102.880 L 91.342 89.962 L 84.722 93.559 L 77.560 95.228 L 65.381 68.044 L 68.070 66.577" fill="none" stroke="#5F6C66" stroke-width="0.32" />
  <path d="M 115.172 71.072 L 118.582 81.934 L 117.010 69.436 L 110.931 68.182 L 109.275 71.563 L 117.133 91.727 L 108.682 72.745" fill="none" stroke="#2A3835" stroke-width="1.65" />
  <path d="M 88.552 76.795 L 102.010 89.163 L 96.072 84.414 L 88.957 76.186 L 84.978 77.489" fill="none" stroke="#2B3831" stroke-width="2.19" />
  <path d="M 128.928 75.925 L 146.911 88.891 L 150.091 93.149 L 146.933 88.695 L 124.808 75.756" fill="none" stroke="#536370" stroke-width="1.67" />
  <path d="M 180.372 84.787 L 187.192 94.532 L 190.257 104.580 L 190.846 137.405 L 197.478 164.802 L 191.871 197.900 L 200.461 234.985 L 191.078 203.003 L 194.663 162.306 L 189.183 96.614 L 181.585 88.519" fill="none" stroke="#687D92" stroke-width="0.29" />
  <path d="M 130.787 94.316 L 136.222 103.031 L 128.822 93.969" fill="none" stroke="#22302B" stroke-width="1.58" />
  <path d="M 111.972 99.660 L 105.321 109.041 L 112.282 121.000 L 107.648 112.359" fill="none" stroke="#424B4A" stroke-width="0.30" />
  <path d="M 98.828 110.101 L 120.110 147.041 L 103.464 112.305" fill="none" stroke="#3D4C49" stroke-width="1.26" />
  <path d="M 155.885 108.972 L 163.672 117.382 L 153.618 109.423 L 148.735 142.336 L 147.621 125.766 L 158.873 113.136" fill="none" stroke="#273C38" stroke-width="0.30" />
  <path d="M 73.905 112.972 L 66.220 135.827 L 72.132 153.852 L 87.325 166.608 L 67.587 148.196 L 61.164 139.010 L 66.522 125.874" fill="none" stroke="#7FA0D2" stroke-width="1.71" />
  <path d="M 118.170 117.955 L 128.666 126.266 L 129.280 134.839 L 125.278 119.196 L 113.004 124.541" fill="none" stroke="#1B2121" stroke-width="0.32" />
  <path d="M 185.248 135.360 L 183.242 142.470 L 187.085 145.500 L 181.838 144.943 L 178.887 157.330 L 195.522 159.559 L 179.591 157.656 L 177.055 169.558 L 184.824 138.016" fill="none" stroke="#53605F" stroke-width="0.31" />
  <path d="M 118.113 136.719 L 129.803 150.293 L 117.576 135.016" fill="none" stroke="#2D403E" stroke-width="0.66" />
  <path d="M 88.611 140.350 L 94.500 152.273 L 92.144 137.806" fill="none" stroke="#6C7371" stroke-width="1.37" />
  <path d="M 157.523 145.999 L 123.199 159.585 L 93.115 161.365 L 93.887 153.822" fill="none" stroke="#596767" stroke-width="1.11" />
  <path d="M 117.973 167.941 L 112.171 177.356 L 112.728 169.764 L 112.490 171.654" fill="none" stroke="#59635F" stroke-width="0.31" />
  <path d="M 71.868 177.135 L 61.412 200.995 L 66.017 188.041" fill="none" stroke="#BFC7E7" stroke-width="0.28" />
  <path d="M 126.638 178.627 L 151.630 184.797 L 176.638 197.133 L 160.462 188.996 L 124.768 179.637" fill="none" stroke="#25322B" stroke-width="0.30" />
  <path d="M 139.913 195.280 L 156.871 222.444 L 164.187 237.951 L 171.900 244.020 L 194.627 254.433 L 204.876 237.883 L 194.966 248.749 L 159.562 241.210 L 142.681 197.430" fill="none" stroke="#3B4A45" stroke-width="0.99" />
  <path d="M 72.719 197.099 L 70.564 209.010 L 70.104 201.387" fill="none" stroke="#4A5652" stroke-width="0.93" />
  <path d="M 95.584 196.228 L 111.337 222.367 L 105.609 218.218 L 96.789 204.209 L 92.002 202.871" fill="none" stroke="#364540" stroke-width="0.32" />
  <path d="M 178.826 203.100 L 183.216 204.166 L 185.580 206.648 L 181.599 206.069" fill="none" stroke="#3E494A" stroke-width="1.06" />
  <path d="M 55.035 207.639 L 53.815 213.004 L 55.037 213.252 L 47.839 216.786 L 53.532 213.431" fill="none" stroke="#BAC6DB" stroke-width="1.31" />
  <path d="M 95.508 217.126 L 115.621 230.534 L 126.273 257.364 L 110.038 262.419 L 121.155 250.932 L 114.034 228.728 L 103.531 227.173 L 110.391 232.803 L 103.125 224.044" fill="none" stroke="#5B6469" stroke-width="1.33" />
  <path d="M 89.226 220.892 L 93.244 228.383 L 93.941 231.788 L 95.128 224.070 L 88.335 225.640" fill="none" stroke="#2D3C37" stroke-width="1.68" />
  <path d="M 25.182 224.509 L 33.115 248.076 L 49.559 280.344 L 88.765 322.911 L 96.790 333.507 L 91.973 328.720 L 47.388 283.645 L 29.004 250.513 L 23.045 231.497" fill="none" stroke="#BDCBD7" stroke-width="0.32" />
  <path d="M 297.000 234.159 L 289.431 245.037 L 282.604 248.517 L 289.142 239.257" fill="none" stroke="#AAC2EF" stroke-width="1.92" />
  <path d="M 70.987 248.583 L 83.943 259.534 L 68.293 246.796" fill="none" stroke="#0C1611" stroke-width="1.34" />
  <path d="M 176.096 258.944 L 176.526 272.957 L 187.237 279.324 L 177.549 274.263 L 172.287 264.421" fill="none" stroke="#2D3B3B" stroke-width="0.56" />
  <path d="M 166.971 262.903 L 171.108 291.398 L 180.214 316.841 L 179.933 325.746 L 165.295 342.555 L 181.881 322.033 L 172.113 292.353 L 166.318 271.925" fill="none" stroke="#32403A" stroke-width="0.30" />
  <path d="M 219.969 261.611 L 235.424 283.425 L 239.263 300.619 L 245.133 314.246 L 227.502 269.899" fill="none" stroke="#8B99B0" stroke-width="0.30" />
  <path d="M 107.175 273.697 L 115.203 281.089 L 113.905 272.824" fill="none" stroke="#0E1D15" stroke-width="0.31" />
  <path d="M 258.534 272.372 L 260.900 294.697 L 256.982 274.124" fill="none" stroke="#C5CBCB" stroke-width="0.32" />
  <path d="M 91.739 273.566 L 105.174 311.281 L 128.652 334.894 L 104.872 306.320 L 93.155 280.223" fill="none" stroke="#AAB4CA" stroke-width="0.28" />
  <path d="M 97.605 275.209 L 104.397 290.510 L 106.163 303.728 L 99.519 275.814" fill="none" stroke="#5D6771" stroke-width="0.89" />
  <path d="M 137.795 285.051 L 146.921 305.153 L 145.836 285.497" fill="none" stroke="#051209" stroke-width="0.31" />
  <path d="M 183.623 287.173 L 204.521 313.436 L 196.863 329.854 L 191.251 328.720 L 198.600 320.993 L 203.324 313.338 L 187.905 288.638" fill="none" stroke="#141915" stroke-width="0.52" />
  <path d="M 253.221 295.544 L 256.168 309.896 L 258.902 310.437 L 251.097 316.419 L 254.540 303.453 L 252.041 301.279 L 253.756 305.832 L 250.905 297.864" fill="none" stroke="#C8A97E" stroke-width="1.55" />
  <path d="M 112.045 298.836 L 122.373 313.628 L 126.340 332.428 L 124.172 310.377 L 113.480 296.973" fill="none" stroke="#414E47" stroke-width="0.32" />
  <path d="M 248.333 299.659 L 250.996 312.070 L 244.918 303.140" fill="none" stroke="#858384" stroke-width="0.96" />
  <path d="M 267.207 308.666 L 270.185 327.766 L 264.417 308.740" fill="none" stroke="#A28362" stroke-width="1.51" />
  <path d="M 297.985 311.255 L 293.827 326.307 L 295.758 317.891" fill="none" stroke="#CACDD7" stroke-width="0.28" />
  <path d="M 154.504 310.712 L 149.386 314.176 L 145.974 322.804 L 133.152 329.641 L 144.547 318.478" fill="none" stroke="#37493E" stroke-width="0.32" />
  <path d="M 287.985 316.824 L 277.816 341.529 L 288.918 319.485" fill="none" stroke="#BAC3D3" stroke-width="0.28" />
  <path d="M 60.292 338.528 L 55.256 348.709 L 52.923 340.701" fill="none" stroke="#70766B" stroke-width="0.30" />
  <path d="M 111.202 337.964 L 112.763 339.386 L 117.440 351.520 L 109.257 334.619" fill="none" stroke="#2C3C3B" stroke-width="0.49" />
  <path d="M 99.309 336.869 L 103.265 344.442 L 109.198 347.426 L 100.584 350.829 L 103.158 334.748" fill="none" stroke="#5D6464" stroke-width="1.57" />
  <path d="M 176.717 337.572 L 167.738 345.746 L 122.272 362.459 L 114.455 370.687 L 110.043 361.437 L 174.704 343.367" fill="none" stroke="#273537" stroke-width="2.15" />
  <path d="M 134.091 341.392 L 125.346 341.750 L 119.997 351.640 L 117.665 345.705" fill="none" stroke="#101918" stroke-width="0.29" />
  <path d="M 288.288 338.428 L 298.854 351.050 L 289.594 341.648" fill="none" stroke="#3E4A1D" stroke-width="0.32" />
  <path d="M 36.941 338.622 L 43.147 351.829 L 47.462 356.382 L 44.918 358.955 L 35.940 342.653" fill="none" stroke="#C1CFCB" stroke-width="0.62" />
  <path d="M 250.651 349.069 L 260.094 356.260 L 264.003 351.931 L 252.915 355.386 L 257.253 353.066 L 248.399 348.444" fill="none" stroke="#4A5441" stroke-width="0.31" />
  <path d="M 98.436 350.056 L 88.568 363.674 L 88.640 375.949 L 83.473 365.704 L 90.732 350.579" fill="none" stroke="#5F6A54" stroke-width="0.28" />
  <path d="M 44.609 354.476 L 33.191 370.479 L 34.604 374.744 L 32.942 379.947 L 29.052 373.765 L 39.570 354.994" fill="none" stroke="#C5CED0" stroke-width="1.20" />
  <path d="M 220.220 359.111 L 167.514 370.038" fill="none" stroke="#4A5554" stroke-width="0.76" />
  <path d="M 59.400 363.674 L 58.621 371.941 L 59.690 376.623 L 57.919 365.068" fill="none" stroke="#46502F" stroke-width="1.32" />
  <path d="M 235.549 363.970 L 244.441 368.915 L 252.134 368.964 L 239.573 368.769 L 233.268 363.742" fill="none" stroke="#3F4B49" stroke-width="0.31" />
  <path d="M 212.009 365.003 L 210.899 384.738 L 210.675 376.188" fill="none" stroke="#6E6B61" stroke-width="0.30" />
  <path d="M 111.729 371.783 L 110.911 377.894 L 133.391 378.765 L 84.783 380.195 L 89.311 372.358 L 84.296 380.354 L 46.096 391.443 L 44.822 395.071 L 41.540 415.430 L 41.225 419.146 L 43.093 390.814 L 114.367 374.018" fill="none" stroke="#696F69" stroke-width="2.96" />
  <path d="M 8.842 381.100 L 26.599 387.785 L 13.342 399.497 L 13.760 393.296 L 21.234 383.811 L 12.174 381.277" fill="none" stroke="#889692" stroke-width="0.29" />
  <path d="M 213.077 386.350 L 209.105 417.869 L 215.367 414.902 L 211.092 415.102 L 211.392 390.546" fill="none" stroke="#A9A496" stroke-width="0.30" />
  <path d="M 12.939 398.572 L 19.076 399.971 L 21.235 400.571 L 13.420 398.503" fill="none" stroke="#A1B2CA" stroke-width="0.28" />
  <path d="M 16.591 404.573 L 6.601 418.379" fill="none" stroke="#828B8C" stroke-width="0.36" />
  <path d="M 107.133 38.282 L 122.294 56.270 L 123.395 72.145 L 112.182 39.135" fill="none" stroke="#8A9CAF" stroke-width="0.31" />
  <path d="M 69.872 62.136 L 77.327 83.477 L 71.470 65.073" fill="none" stroke="#626F66" stroke-width="0.53" />
  <path d="M 135.563 82.344 L 149.198 92.336 L 155.888 107.984 L 140.865 88.714" fill="none" stroke="#77828E" stroke-width="0.29" />
  <path d="M 176.939 79.636 L 190.880 98.342 L 189.962 113.722 L 182.559 83.560" fill="none" stroke="#7A93B4" stroke-width="0.29" />
  <path d="M 76.381 85.044 L 83.070 99.577 L 110.502 100.172 L 113.072 111.582 L 110.934 100.010 L 87.436 88.931 L 81.182 95.275 L 72.563 85.133" fill="none" stroke="#6F808D" stroke-width="0.32" />
  <path d="M 188.682 117.745 L 204.554 237.552 L 190.795 117.010" fill="none" stroke="#6F7887" stroke-width="0.55" />
  <path d="M 69.072 123.414 L 63.957 141.186 L 86.978 167.489 L 70.433 151.928 L 65.925 126.911" fill="none" stroke="#9EAABF" stroke-width="1.26" />
  <path d="M 184.091 131.149 L 174.933 172.695 L 181.808 135.756" fill="none" stroke="#3E494A" stroke-width="0.30" />
  <path d="M 120.372 140.787 L 125.192 152.532 L 120.257 139.580" fill="none" stroke="#425553" stroke-width="0.30" />
  <path d="M 157.405 142.478 L 125.802 153.871 L 95.900 160.461" fill="none" stroke="#485855" stroke-width="0.29" />
  <path d="M 80.078 169.003 L 71.663 191.306 L 83.183 169.614" fill="none" stroke="#BBC8DA" stroke-width="0.31" />
  <path d="M 154.519 184.358 L 182.787 204.316 L 194.222 205.031 L 161.822 185.969" fill="none" stroke="#4A544E" stroke-width="0.29" />
  <path d="M 95.972 196.660 L 109.321 227.041 L 92.282 202.000" fill="none" stroke="#364540" stroke-width="0.32" />
  <path d="M 26.359 223.055 L 20.828 235.101 L 43.110 271.041 L 101.464 331.305 L 89.945 328.885 L 43.972 282.672 L 30.382 242.618 L 20.423 224.735" fill="none" stroke="#A4AEB6" stroke-width="0.32" />
  <path d="M 161.621 236.766 L 194.873 250.136 L 201.243 239.905 L 189.972 251.220 L 160.827 236.132" fill="none" stroke="#545F60" stroke-width="0.30" />
  <path d="M 218.325 262.608 L 235.587 285.196 L 243.164 312.010 L 226.522 269.874" fill="none" stroke="#828EA5" stroke-width="0.95" />
  <path d="M 97.170 273.955 L 111.666 310.266 L 98.280 275.839" fill="none" stroke="#717C81" stroke-width="0.31" />
  <path d="M 91.196 276.004 L 107.541 310.141 L 124.248 336.360 L 94.242 279.470" fill="none" stroke="#20283C" stroke-width="0.54" />
  <path d="M 255.500 279.838 L 266.943 294.887 L 260.330 281.522" fill="none" stroke="#AEB1AC" stroke-width="1.27" />
  <path d="M 171.591 291.656 L 185.055 312.558 L 166.824 344.016 L 179.212 322.113 L 172.719 296.803" fill="none" stroke="#1B2A20" stroke-width="1.58" />
  <path d="M 267.576 295.016 L 256.784 309.611 L 270.350 290.500" fill="none" stroke="#9C825E" stroke-width="0.29" />
  <path d="M 255.144 295.806 L 257.804 308.523 L 258.999 316.199 L 251.585 294.115" fill="none" stroke="#BFA179" stroke-width="1.35" />
  <path d="M 195.887 301.822 L 205.873 316.973 L 199.941 306.171" fill="none" stroke="#0D1E1A" stroke-width="0.29" />
  <path d="M 264.728 308.764 L 278.490 332.654 L 266.355 307.868" fill="none" stroke="#C8A079" stroke-width="0.31" />
  <path d="M 148.412 314.995 L 143.017 327.041 L 128.658 330.638 L 123.627 319.630 L 145.797 321.638 L 144.133 313.462" fill="none" stroke="#2A3D39" stroke-width="1.74" />
  <path d="M 71.768 318.637 L 72.473 335.913 L 68.280 324.871" fill="none" stroke="#D6E0F8" stroke-width="0.30" />
  <path d="M 176.187 338.951 L 145.900 354.020" fill="none" stroke="#384344" stroke-width="1.09" />
  <path d="M 40.433 345.876 L 43.883 353.966 L 36.749 338.562" fill="none" stroke="#C1CFCB" stroke-width="0.28" />
  <path d="M 38.681 360.430 L 32.581 373.719 L 35.099 376.564 L 33.010 368.104" fill="none" stroke="#CDD4D2" stroke-width="1.34" />
  <path d="M 90.443 375.584 L 116.228 373.337 L 89.367 377.609 L 47.218 386.789 L 43.209 418.002 L 44.871 388.072" fill="none" stroke="#6D766A" stroke-width="0.30" />
  <path d="M 9.100 380.216 L 23.166 383.580 L 21.648 393.599 L 27.069 384.424 L 10.035 380.639" fill="none" stroke="#889692" stroke-width="0.28" />
  <path d="M 110.133 40.282 L 124.294 68.270 L 110.395 39.145" fill="none" stroke="#95A6B0" stroke-width="0.30" />
  <path d="M 69.135 63.851 L 76.872 83.136 L 69.327 62.477" fill="none" stroke="#5D655E" stroke-width="0.33" />
  <path d="M 77.073 81.757 L 84.563 96.344 L 110.198 98.336 L 108.888 111.984 L 111.865 101.714 L 80.557 94.939 L 72.636 86.880" fill="none" stroke="#37464A" stroke-width="0.94" />
  <path d="M 190.962 107.722 L 200.559 233.560 L 189.228 110.381" fill="none" stroke="#5D7294" stroke-width="1.26" />
  <path d="M 66.070 129.577 L 65.502 142.172 L 91.072 166.582 L 73.934 193.010 L 83.436 170.931 L 65.182 142.275 L 62.563 127.133" fill="none" stroke="#BFD0D6" stroke-width="0.32" />
  <path d="M 151.682 145.745 L 105.554 162.552" fill="none" stroke="#405351" stroke-width="0.54" />
  <path d="M 94.010 204.163 L 112.072 224.414 L 90.957 202.186" fill="none" stroke="#C5CFE0" stroke-width="0.32" />
  <path d="M 22.489 230.433 L 49.928 278.925 L 92.911 329.891 L 48.091 279.149 L 22.933 229.695" fill="none" stroke="#B0BECA" stroke-width="0.32" />
  <path d="M 218.756 264.011 L 246.372 312.787 L 224.192 271.532" fill="none" stroke="#828EA5" stroke-width="1.35" />
  <path d="M 95.580 274.846 L 112.405 306.478 L 97.802 271.871" fill="none" stroke="#717C81" stroke-width="0.72" />
  <path d="M 92.461 274.985 L 102.078 309.003 L 125.663 334.306 L 109.183 313.614 L 91.585 278.519" fill="none" stroke="#20283C" stroke-width="2.02" />
  <path d="M 152.787 314.316 L 144.222 328.031 L 125.822 323.969 L 147.080 315.972" fill="none" stroke="#2A3D37" stroke-width="1.78" />
  <path d="M 33.321 345.041 L 47.282 358.000 L 37.648 343.359" fill="none" stroke="#C1CFCB" stroke-width="0.30" />
  <path d="M 124.828 355.101 L 110.110 373.041 L 120.464 357.305" fill="none" stroke="#37413E" stroke-width="1.26" />
  <path d="M 107.133 38.282 L 124.294 70.270 L 112.395 40.145" fill="none" stroke="#8A9CAF" stroke-width="0.30" />
  <path d="M 75.135 58.851 L 67.872 66.136 L 79.327 90.477 L 91.470 92.073 L 75.757 93.563 L 67.344 67.198" fill="none" stroke="#656D68" stroke-width="0.54" />
  <path d="M 188.888 113.984 L 198.865 167.714 L 195.557 198.939 L 186.636 118.880" fill="none" stroke="#9198AF" stroke-width="0.35" />
  <path d="M 66.962 126.722 L 66.559 143.560 L 87.228 165.381 L 74.044 192.070 L 86.577 171.502 L 66.172 132.072" fill="none" stroke="#859596" stroke-width="2.07" />
  <path d="M 151.934 145.010 L 103.436 159.931" fill="none" stroke="#405351" stroke-width="0.77" />
  <path d="M 72.275 176.563 L 60.133 210.727 L 65.682 189.745" fill="none" stroke="#C2CDE0" stroke-width="0.30" />
  <path d="M 95.552 201.795 L 112.010 228.163 L 92.072 202.414" fill="none" stroke="#C5CFE0" stroke-width="1.46" />
  <path d="M 195.186 200.978 L 201.489 238.433 L 198.928 202.925" fill="none" stroke="#59666F" stroke-width="0.29" />
  <path d="M 25.891 221.091 L 20.149 235.933 L 41.695 271.808 L 91.756 330.011 L 42.372 274.787 L 22.192 223.532" fill="none" stroke="#9AA4AE" stroke-width="2.33" />
  <path d="M 95.580 274.846 L 112.405 306.478 L 97.802 271.871" fill="none" stroke="#717C81" stroke-width="0.72" />
  <path d="M 92.461 274.985 L 122.078 334.003 L 90.663 276.306" fill="none" stroke="#20283C" stroke-width="1.55" />
  <path d="M 286.614 316.585 L 281.519 338.358 L 289.787 320.316" fill="none" stroke="#BAC3D3" stroke-width="1.34" />
  <path d="M 110.133 40.282 L 124.294 68.270 L 110.395 39.145" fill="none" stroke="#95A6B0" stroke-width="0.30" />
  <path d="M 71.135 62.851 L 76.872 83.136 L 68.327 66.477" fill="none" stroke="#353D3A" stroke-width="0.33" />
  <path d="M 77.073 81.757 L 84.563 96.344 L 112.198 100.336 L 111.888 120.984 L 112.865 102.714 L 80.557 94.939 L 72.636 86.880" fill="none" stroke="#37464A" stroke-width="0.94" />
  <path d="M 189.962 114.722 L 200.559 231.560 L 189.228 115.381" fill="none" stroke="#9198AF" stroke-width="1.26" />
  <path d="M 65.070 131.577 L 69.502 150.172 L 91.072 166.582 L 73.934 192.010 L 82.436 162.931 L 64.182 131.275" fill="none" stroke="#AAB7BB" stroke-width="0.30" />
  <path d="M 150.133 143.727 L 103.682 162.745" fill="none" stroke="#405351" stroke-width="1.06" />
  <path d="M 71.552 183.795 L 60.010 215.163 L 66.072 188.414" fill="none" stroke="#8F9BA5" stroke-width="1.46" />
  <path d="M 94.186 199.978 L 111.489 226.433 L 95.928 201.925" fill="none" stroke="#C5CFE0" stroke-width="0.29" />
  <path d="M 25.891 221.091 L 20.149 235.933 L 41.695 271.808 L 90.756 329.011 L 42.372 274.787 L 22.192 223.532" fill="none" stroke="#9AA4AE" stroke-width="2.33" />
  <path d="M 225.580 269.846 L 251.405 312.478 L 226.802 267.871" fill="none" stroke="#8791A7" stroke-width="0.72" />
  <path d="M 95.461 273.985 L 104.078 306.003 L 94.663 273.306" fill="none" stroke="#717C81" stroke-width="1.55" />
  <path d="M 91.614 274.585 L 106.519 310.358 L 132.787 337.316 L 96.222 278.031" fill="none" stroke="#20283C" stroke-width="1.44" />
  <path d="M 110.133 40.282 L 124.294 68.270 L 110.395 39.145" fill="none" stroke="#95A6B0" stroke-width="0.30" />
  <path d="M 74.135 85.851 L 83.872 96.136 L 113.327 100.477 L 115.470 120.073 L 109.757 101.563 L 81.344 95.198 L 74.336 85.888" fill="none" stroke="#8AA0B6" stroke-width="0.52" />
  <path d="M 189.865 118.714 L 201.557 234.939 L 186.636 118.880" fill="none" stroke="#6F7887" stroke-width="1.11" />
  <path d="M 65.962 128.722 L 67.559 145.560 L 87.228 166.381 L 74.044 191.070 L 86.577 171.502 L 65.172 135.072" fill="none" stroke="#96A3A6" stroke-width="2.07" />
  <path d="M 68.934 184.010 L 61.436 209.931 L 66.182 188.275" fill="none" stroke="#88949E" stroke-width="1.02" />
  <path d="M 93.133 198.727 L 111.682 224.745 L 94.554 203.552" fill="none" stroke="#C5CFE0" stroke-width="1.30" />
  <path d="M 23.010 232.163 L 48.072 282.414 L 88.957 328.186 L 47.978 282.489 L 25.433 233.928" fill="none" stroke="#B0BECA" stroke-width="0.29" />
  <path d="M 93.911 272.891 L 106.091 305.149 L 128.933 336.695 L 91.808 275.756" fill="none" stroke="#A1A5C6" stroke-width="0.30" />
  <path d="M 96.372 275.787 L 106.192 307.532 L 96.257 274.580" fill="none" stroke="#717C81" stroke-width="0.30" />
  <path d="M 107.133 38.282 L 124.294 70.270 L 110.395 38.145" fill="none" stroke="#8A9CAF" stroke-width="0.30" />
  <path d="M 68.135 64.851 L 83.872 96.136 L 113.327 100.477 L 119.470 122.073 L 109.757 101.563 L 81.344 95.198 L 66.336 66.888" fill="none" stroke="#5A675E" stroke-width="0.52" />
  <path d="M 190.865 121.714 L 201.557 234.939 L 187.636 122.880" fill="none" stroke="#718595" stroke-width="1.11" />
  <path d="M 64.962 133.722 L 86.559 163.560 L 74.228 189.381 L 81.044 163.070 L 67.577 139.502" fill="none" stroke="#738087" stroke-width="1.56" />
  <path d="M 98.072 198.582 L 111.934 224.010 L 92.436 200.931" fill="none" stroke="#C5CFE0" stroke-width="0.47" />
  <path d="M 23.275 226.563 L 47.133 280.727 L 89.682 329.745 L 50.554 284.552 L 24.795 230.010" fill="none" stroke="#B8C7D2" stroke-width="0.28" />
  <path d="M 93.072 273.414 L 124.957 335.186 L 92.978 277.489" fill="none" stroke="#A1A5C6" stroke-width="0.93" />
  <path d="M 99.928 274.925 L 108.911 306.891 L 97.091 271.149" fill="none" stroke="#717C81" stroke-width="1.02" />
  <path d="M 108.133 39.282 L 124.294 70.270 L 111.395 39.145" fill="none" stroke="#6E7C89" stroke-width="0.30" />
  <path d="M 67.135 65.851 L 83.872 96.136 L 113.327 100.477 L 119.470 122.073 L 109.757 101.563 L 81.344 95.198 L 66.336 66.888" fill="none" stroke="#52625F" stroke-width="0.52" />
  <path d="M 64.865 139.714 L 87.557 166.939 L 71.636 191.880 L 85.342 163.962 L 63.722 137.559" fill="none" stroke="#98A5AC" stroke-width="1.83" />
  <path d="M 94.228 198.381 L 111.044 223.070 L 95.577 202.502" fill="none" stroke="#C5CFE0" stroke-width="1.46" />
  <path d="M 27.072 227.582 L 47.934 283.010 L 90.436 326.931 L 48.182 283.275 L 20.563 229.133" fill="none" stroke="#B8C7D2" stroke-width="0.74" />
  <path d="M 92.682 274.745 L 128.554 336.552 L 94.795 278.010" fill="none" stroke="#A1A5C6" stroke-width="0.55" />
  <path d="M 95.072 273.414 L 106.957 307.186 L 96.978 274.489" fill="none" stroke="#2C393C" stroke-width="0.93" />
  <path d="M 66.133 64.282 L 82.294 94.270 L 110.395 99.145 L 115.182 123.135 L 113.851 100.872 L 81.136 96.327 L 66.477 71.470" fill="none" stroke="#52625F" stroke-width="0.29" />
  <path d="M 62.757 141.563 L 88.344 167.198 L 73.336 189.888 L 79.984 163.865 L 67.714 141.557" fill="none" stroke="#87939C" stroke-width="1.23" />
  <path d="M 91.636 201.880 L 115.342 223.962 L 91.722 200.559" fill="none" stroke="#C5CFE0" stroke-width="0.31" />
  <path d="M 23.228 228.381 L 48.044 282.070 L 93.577 328.502 L 49.172 287.072 L 22.582 229.934" fill="none" stroke="#C1CEDC" stroke-width="2.36" />
  <path d="M 226.436 268.931 L 246.182 311.275 L 223.563 270.133" fill="none" stroke="#8791A7" stroke-width="0.32" />
  <path d="M 93.682 273.745 L 127.554 335.552 L 94.795 278.010" fill="none" stroke="#2F3843" stroke-width="0.55" />
  <path d="M 96.072 275.414 L 106.957 307.186 L 96.978 274.489" fill="none" stroke="#717C81" stroke-width="0.93" />
</svg>