<svg width="186" height="300" viewBox="0 0 186 300" xmlns="http://www.w3.org/2000/svg" shape-rendering="geometricPrecision">
  <path d="M 37.00 16.00 L 37.00 19.00 L 47.00 28.00 L 52.00 38.00 L 56.00 63.00 L 55.00 68.00 L 57.00 101.00 L 63.00 117.00 L 68.00 122.00 L 63.00 118.00 L 59.00 109.00 L 56.00 96.00 L 53.00 46.00 L 49.00 33.00 L 44.00 26.00" fill="none" stroke="#000000" stroke-width="1.60" />
  <path d="M 33.00 24.00 L 40.00 38.00 L 42.00 58.00 L 41.00 95.00 L 37.00 124.00 L 37.00 159.00 L 42.00 174.00 L 49.00 181.00 L 42.00 175.00 L 37.00 160.00 L 37.00 123.00 L 40.00 95.00 L 41.00 58.00 L 39.00 38.00 L 33.00 25.00" fill="none" stroke="#000000" stroke-width="1.60" />
  <path d="M 164.00 31.00 L 169.00 37.00 L 167.00 37.00 L 165.00 31.00 L 162.00 35.00" fill="none" stroke="#000000" stroke-width="1.60" />
  <path d="M 153.00 40.00 L 146.00 48.00 L 142.00 59.00 L 135.00 103.00 L 127.00 123.00 L 120.00 130.00 L 127.00 121.00 L 133.00 107.00 L 142.00 58.00 L 145.00 50.00" fill="none" stroke="#000000" stroke-width="1.60" />
  <path d="M 167.00 40.00 L 169.00 40.00 L 165.00 42.00 L 162.00 48.00 L 162.00 63.00 L 162.00 47.00" fill="none" stroke="#000000" stroke-width="1.60" />
  <path d="M 45.00 48.00 L 46.00 50.00 L 49.00 48.00 L 46.00 52.00" fill="none" stroke="#000000" stroke-width="1.60" />
  <path d="M 157.00 50.00 L 156.00 55.00 L 154.00 56.00 L 156.00 63.00 L 153.00 59.00 L 153.00 56.00 L 150.00 54.00 L 147.00 61.00 L 147.00 64.00 L 149.00 64.00 L 157.00 74.00 L 151.00 67.00 L 150.00 63.00 L 152.00 59.00 L 146.00 66.00 L 142.00 94.00 L 141.00 93.00 L 148.00 56.00" fill="none" stroke="#000000" stroke-width="1.60" />
  <path d="M 162.00 65.00 L 162.00 73.00 L 161.00 74.00 L 161.00 71.00" fill="none" stroke="#000000" stroke-width="1.60" />
  <path d="M 50.00 67.00 L 51.00 70.00 L 48.00 74.00 L 50.00 69.00" fill="none" stroke="#000000" stroke-width="1.60" />
  <path d="M 150.00 71.00 L 148.00 76.00 L 157.00 87.00 L 157.00 89.00 L 149.00 79.00 L 149.00 73.00" fill="none" stroke="#000000" stroke-width="1.60" />
  <path d="M 161.00 80.00 L 161.00 141.00 L 159.00 154.00 L 153.00 171.00 L 146.00 182.00 L 141.00 186.00 L 132.00 189.00 L 136.00 219.00 L 131.00 224.00 L 132.00 227.00 L 131.00 223.00 L 135.00 213.00 L 131.00 192.00 L 149.00 176.00 L 158.00 154.00 L 160.00 141.00 L 161.00 92.00" fill="none" stroke="#000000" stroke-width="1.60" />
  <path d="M 149.00 83.00 L 148.00 84.00 L 154.00 93.00 L 148.00 85.00" fill="none" stroke="#000000" stroke-width="1.60" />
  <path d="M 146.00 87.00 L 156.00 106.00 L 156.00 119.00 L 154.00 102.00 L 146.00 90.00" fill="none" stroke="#000000" stroke-width="1.60" />
  <path d="M 52.00 91.00 L 46.00 96.00 L 45.00 105.00 L 45.00 98.00 L 48.00 93.00" fill="none" stroke="#000000" stroke-width="1.60" />
  <path d="M 144.00 99.00 L 148.00 104.00 L 154.00 119.00 L 145.00 101.00" fill="none" stroke="#000000" stroke-width="1.60" />
  <path d="M 140.00 104.00 L 145.00 108.00 L 149.00 117.00 L 157.00 128.00 L 156.00 133.00 L 155.00 127.00 L 157.00 125.00 L 154.00 125.00 L 152.00 123.00 L 142.00 104.00 L 138.00 107.00 L 149.00 123.00 L 155.00 137.00 L 144.00 116.00 L 138.00 109.00" fill="none" stroke="#000000" stroke-width="1.60" />
  <path d="M 52.00 107.00 L 47.00 116.00 L 45.00 117.00 L 42.00 131.00 L 41.00 127.00 L 43.00 121.00 L 50.00 109.00" fill="none" stroke="#000000" stroke-width="1.60" />
  <path d="M 86.00 109.00 L 89.00 113.00 L 91.00 125.00 L 88.00 109.00 L 85.00 111.00 L 85.00 113.00" fill="none" stroke="#000000" stroke-width="1.60" />
  <path d="M 96.00 115.00 L 98.00 127.00" fill="none" stroke="#000000" stroke-width="1.60" />
  <path d="M 137.00 115.00 L 144.00 123.00 L 155.00 149.00 L 140.00 117.00 L 136.00 116.00 L 134.00 121.00 L 138.00 124.00 L 141.00 130.00 L 150.00 154.00 L 138.00 126.00 L 133.00 122.00 L 130.00 126.00 L 129.00 129.00 L 132.00 132.00 L 136.00 143.00 L 144.00 177.00 L 131.00 130.00 L 129.00 128.00 L 126.00 131.00 L 117.00 134.00 L 116.00 137.00 L 115.00 136.00 L 132.00 123.00 L 134.00 119.00" fill="none" stroke="#000000" stroke-width="1.60" />
  <path d="M 54.00 119.00 L 56.00 121.00 L 52.00 124.00 L 42.00 146.00 L 42.00 157.00 L 43.00 158.00 L 45.00 156.00 L 47.00 147.00 L 56.00 128.00 L 49.00 141.00 L 43.00 160.00 L 41.00 146.00 L 51.00 126.00" fill="none" stroke="#000000" stroke-width="1.60" />
  <path d="M 58.00 120.00 L 68.00 128.00 L 77.00 129.00 L 87.00 127.00 L 103.00 133.00 L 109.00 133.00 L 112.00 136.00 L 113.00 134.00 L 111.00 134.00 L 112.00 138.00 L 103.00 132.00 L 68.00 127.00 L 59.00 120.00" fill="none" stroke="#000000" stroke-width="1.60" />
  <path d="M 109.00 120.00 L 112.00 130.00 L 109.00 122.00" fill="none" stroke="#000000" stroke-width="1.60" />
  <path d="M 135.00 126.00 L 142.00 147.00 L 150.00 163.00 L 145.00 174.00 L 149.00 163.00 L 133.00 127.00" fill="none" stroke="#000000" stroke-width="1.60" />
  <path d="M 64.00 130.00 L 55.00 155.00 L 52.00 173.00 L 56.00 150.00 L 62.00 134.00" fill="none" stroke="#000000" stroke-width="1.60" />
  <path d="M 124.00 136.00 L 123.00 142.00 L 126.00 162.00 L 126.00 182.00 L 129.00 186.00 L 128.00 187.00 L 126.00 183.00 L 122.00 141.00 L 123.00 138.00" fill="none" stroke="#000000" stroke-width="1.60" />
  <path d="M 130.00 140.00 L 138.00 172.00 L 130.00 142.00" fill="none" stroke="#000000" stroke-width="1.60" />
  <path d="M 129.00 147.00 L 132.00 180.00 L 129.00 156.00" fill="none" stroke="#000000" stroke-width="1.60" />
  <path d="M 154.00 151.00 L 151.00 158.00 L 153.00 152.00" fill="none" stroke="#000000" stroke-width="1.60" />
  <path d="M 75.00 160.00 L 75.00 164.00 L 72.00 168.00 L 72.00 166.00" fill="none" stroke="#000000" stroke-width="1.60" />
  <path d="M 78.00 160.00 L 80.00 165.00 L 85.00 168.00 L 78.00 162.00" fill="none" stroke="#000000" stroke-width="1.60" />
  <path d="M 116.00 160.00 L 114.00 165.00 L 112.00 167.00 L 115.00 161.00" fill="none" stroke="#000000" stroke-width="1.60" />
  <path d="M 104.00 161.00 L 109.00 164.00 L 110.00 169.00 L 109.00 163.00 L 107.00 161.00 L 105.00 161.00 L 105.00 164.00 L 100.00 168.00" fill="none" stroke="#000000" stroke-width="1.60" />
  <path d="M 45.00 168.00 L 51.00 176.00 L 45.00 169.00" fill="none" stroke="#000000" stroke-width="1.60" />
  <path d="M 64.00 169.00 L 69.00 172.00 L 80.00 172.00 L 86.00 170.00 L 65.00 169.00" fill="none" stroke="#000000" stroke-width="1.60" />
  <path d="M 119.00 170.00 L 118.00 172.00 L 112.00 174.00 L 107.00 174.00 L 100.00 171.00" fill="none" stroke="#000000" stroke-width="1.60" />
  <path d="M 68.00 176.00 L 68.00 178.00 L 66.00 179.00 L 66.00 183.00 L 70.00 189.00 L 76.00 190.00 L 80.00 187.00 L 82.00 189.00 L 83.00 188.00 L 84.00 189.00 L 82.00 188.00 L 82.00 194.00 L 84.00 196.00 L 87.00 192.00 L 87.00 189.00 L 82.00 196.00 L 81.00 186.00 L 83.00 185.00 L 72.00 189.00 L 66.00 184.00" fill="none" stroke="#000000" stroke-width="1.60" />
  <path d="M 81.00 176.00 L 86.00 182.00 L 86.00 184.00 L 83.00 180.00" fill="none" stroke="#000000" stroke-width="1.60" />
  <path d="M 110.00 178.00 L 113.00 186.00 L 111.00 190.00 L 111.00 188.00 L 107.00 192.00 L 99.00 193.00 L 99.00 191.00 L 94.00 196.00 L 91.00 193.00 L 90.00 185.00 L 96.00 192.00 L 112.00 186.00 L 111.00 181.00" fill="none" stroke="#000000" stroke-width="1.60" />
  <path d="M 73.00 181.00 L 76.00 183.00 L 74.00 187.00 L 76.00 182.00 L 71.00 182.00" fill="none" stroke="#000000" stroke-width="1.60" />
  <path d="M 55.00 182.00 L 52.00 189.00 L 52.00 194.00 L 56.00 201.00 L 56.00 205.00 L 52.00 195.00 L 51.00 197.00 L 50.00 196.00 L 54.00 183.00" fill="none" stroke="#000000" stroke-width="1.60" />
  <path d="M 48.00 183.00 L 43.00 199.00 L 44.00 200.00 L 43.00 198.00 L 47.00 185.00" fill="none" stroke="#000000" stroke-width="1.60" />
  <path d="M 103.00 183.00 L 104.00 184.00 L 99.00 185.00 L 100.00 188.00 L 99.00 184.00" fill="none" stroke="#000000" stroke-width="1.60" />
  <path d="M 127.00 189.00 L 127.00 194.00 L 125.00 198.00 L 126.00 201.00 L 124.00 201.00 L 123.00 213.00 L 119.00 221.00 L 119.00 226.00 L 117.00 227.00 L 118.00 229.00 L 116.00 228.00 L 110.00 234.00 L 122.00 213.00 L 126.00 194.00" fill="none" stroke="#000000" stroke-width="1.60" />
  <path d="M 66.00 196.00 L 66.00 205.00 L 65.00 202.00 L 67.00 196.00" fill="none" stroke="#000000" stroke-width="1.60" />
  <path d="M 69.00 197.00 L 74.00 205.00 L 75.00 212.00 L 75.00 217.00 L 73.00 205.00 L 71.00 204.00 L 68.00 207.00 L 67.00 215.00 L 67.00 209.00 L 71.00 203.00 L 69.00 198.00" fill="none" stroke="#000000" stroke-width="1.60" />
  <path d="M 112.00 197.00 L 112.00 201.00 L 116.00 210.00 L 116.00 217.00 L 115.00 210.00 L 112.00 210.00 L 114.00 207.00 L 113.00 205.00" fill="none" stroke="#000000" stroke-width="1.60" />
  <path d="M 94.00 200.00 L 93.00 203.00 L 97.00 205.00 L 98.00 201.00 L 94.00 205.00 L 93.00 201.00" fill="none" stroke="#000000" stroke-width="1.60" />
  <path d="M 43.00 202.00 L 48.00 204.00 L 48.00 221.00 L 46.00 231.00 L 56.00 241.00 L 54.00 243.00 L 54.00 257.00 L 56.00 260.00 L 59.00 257.00 L 59.00 240.00 L 58.00 257.00 L 54.00 259.00 L 54.00 241.00 L 51.00 236.00 L 46.00 232.00 L 48.00 203.00" fill="none" stroke="#000000" stroke-width="1.60" />
  <path d="M 129.00 203.00 L 127.00 207.00 L 129.00 214.00 L 124.00 220.00 L 123.00 228.00 L 123.00 222.00 L 128.00 213.00 L 127.00 208.00" fill="none" stroke="#000000" stroke-width="1.60" />
  <path d="M 55.00 207.00 L 57.00 215.00 L 56.00 219.00 L 58.00 223.00 L 56.00 220.00 L 55.00 208.00" fill="none" stroke="#000000" stroke-width="1.60" />
  <path d="M 85.00 210.00 L 89.00 214.00 L 87.00 210.00 L 83.00 214.00 L 83.00 212.00" fill="none" stroke="#000000" stroke-width="1.60" />
  <path d="M 110.00 212.00 L 112.00 214.00 L 111.00 221.00 L 112.00 213.00 L 109.00 213.00 L 109.00 220.00 L 108.00 217.00" fill="none" stroke="#000000" stroke-width="1.60" />
  <path d="M 80.00 219.00 L 100.00 220.00 L 112.00 225.00 L 115.00 223.00 L 115.00 219.00 L 111.00 224.00 L 101.00 220.00 L 76.00 220.00 L 71.00 223.00 L 65.00 221.00" fill="none" stroke="#000000" stroke-width="1.60" />
  <path d="M 127.00 220.00 L 128.00 231.00 L 129.00 232.00 L 132.00 230.00 L 127.00 229.00" fill="none" stroke="#000000" stroke-width="1.60" />
  <path d="M 60.00 223.00 L 79.00 247.00 L 68.00 235.00 L 65.00 229.00 L 63.00 227.00 L 62.00 228.00 L 61.00 223.00" fill="none" stroke="#000000" stroke-width="1.60" />
  <path d="M 51.00 224.00 L 53.00 226.00 L 53.00 230.00 L 52.00 224.00" fill="none" stroke="#000000" stroke-width="1.60" />
  <path d="M 61.00 233.00 L 72.00 248.00 L 73.00 263.00 L 77.00 267.00 L 80.00 265.00 L 77.00 266.00 L 73.00 264.00 L 71.00 248.00 L 64.00 239.00 L 62.00 233.00" fill="none" stroke="#000000" stroke-width="1.60" />
  <path d="M 119.00 233.00 L 114.00 238.00 L 106.00 241.00 L 105.00 269.00 L 101.00 268.00 L 102.00 246.00 L 100.00 245.00 L 98.00 247.00 L 98.00 255.00 L 98.00 246.00 L 101.00 258.00 L 105.00 264.00 L 105.00 243.00" fill="none" stroke="#000000" stroke-width="1.60" />
  <path d="M 125.00 233.00 L 125.00 241.00 L 123.00 242.00 L 120.00 239.00 L 120.00 235.00" fill="none" stroke="#000000" stroke-width="1.60" />
  <path d="M 93.00 249.00 L 95.00 250.00 L 95.00 268.00 L 92.00 250.00 L 92.00 271.00 L 89.00 274.00 L 91.00 269.00 L 91.00 250.00" fill="none" stroke="#000000" stroke-width="1.60" />
  <path d="M 86.00 252.00 L 88.00 253.00 L 85.00 253.00 L 84.00 257.00 L 84.00 254.00" fill="none" stroke="#000000" stroke-width="1.60" />
  <path d="M 88.00 255.00 L 88.00 268.00" fill="none" stroke="#000000" stroke-width="1.60" />
  <path d="M 81.00 267.00 L 81.00 277.00 L 84.00 280.00 L 86.00 279.00 L 87.00 273.00 L 83.00 280.00 L 81.00 278.00 L 80.00 268.00" fill="none" stroke="#000000" stroke-width="1.60" />
  <path d="M 99.00 268.00 L 99.00 270.00 L 101.00 271.00 L 96.00 274.00 L 92.00 274.00 L 98.00 271.00" fill="none" stroke="#000000" stroke-width="1.60" />
  <path d="M 43.00 24.00 L 54.00 46.00 L 56.00 94.00 L 63.00 118.00 L 56.00 96.00 L 53.00 46.00 L 44.00 26.00" fill="none" stroke="#000000" stroke-width="1.60" />
  <path d="M 168.00 39.00 L 163.00 45.00 L 162.00 53.00 L 165.00 42.00" fill="none" stroke="#000000" stroke-width="1.60" />
  <path d="M 161.00 55.00 L 159.00 154.00 L 146.00 182.00 L 132.00 189.00 L 149.00 176.00 L 158.00 154.00 L 161.00 58.00" fill="none" stroke="#000000" stroke-width="1.60" />
  <path d="M 151.00 61.00 L 150.00 64.00 L 157.00 73.00 L 156.00 81.00 L 156.00 73.00 L 149.00 63.00" fill="none" stroke="#000000" stroke-width="1.60" />
  <path d="M 147.00 64.00 L 142.00 98.00 L 146.00 65.00" fill="none" stroke="#000000" stroke-width="1.60" />
  <path d="M 49.00 76.00 L 52.00 79.00 L 50.00 86.00 L 52.00 77.00 L 46.00 81.00 L 47.00 91.00 L 48.00 77.00" fill="none" stroke="#000000" stroke-width="1.60" />
  <path d="M 53.00 106.00 L 60.00 122.00 L 65.00 126.00 L 72.00 129.00 L 87.00 127.00 L 109.00 133.00 L 114.00 139.00 L 113.00 134.00 L 110.00 133.00 L 77.00 128.00 L 59.00 121.00 L 56.00 115.00 L 47.00 123.00 L 42.00 136.00 L 55.00 113.00 L 51.00 108.00 L 42.00 128.00 L 50.00 109.00" fill="none" stroke="#000000" stroke-width="1.60" />
  <path d="M 137.00 115.00 L 143.00 121.00 L 156.00 147.00 L 154.00 148.00 L 140.00 118.00 L 135.00 117.00 L 134.00 121.00 L 141.00 130.00 L 150.00 154.00 L 138.00 126.00 L 133.00 121.00 L 128.00 129.00 L 115.00 137.00 L 131.00 124.00 L 135.00 116.00" fill="none" stroke="#000000" stroke-width="1.60" />
  <path d="M 54.00 119.00 L 56.00 121.00 L 53.00 122.00 L 41.00 149.00 L 42.00 158.00 L 41.00 148.00 L 52.00 124.00" fill="none" stroke="#000000" stroke-width="1.60" />
  <path d="M 55.00 129.00 L 45.00 157.00 L 53.00 133.00" fill="none" stroke="#000000" stroke-width="1.60" />
  <path d="M 137.00 133.00 L 150.00 162.00 L 137.00 135.00" fill="none" stroke="#000000" stroke-width="1.60" />
  <path d="M 124.00 136.00 L 128.00 187.00 L 119.00 226.00 L 111.00 234.00 L 122.00 213.00 L 126.00 194.00 L 123.00 138.00" fill="none" stroke="#000000" stroke-width="1.60" />
  <path d="M 118.00 162.00 L 119.00 172.00 L 107.00 174.00 L 100.00 171.00 L 119.00 170.00 L 118.00 166.00" fill="none" stroke="#000000" stroke-width="1.60" />
  <path d="M 80.00 176.00 L 86.00 182.00 L 87.00 192.00 L 84.00 196.00 L 86.00 192.00 L 84.00 179.00" fill="none" stroke="#000000" stroke-width="1.60" />
  <path d="M 66.00 182.00 L 70.00 189.00 L 83.00 188.00 L 82.00 196.00 L 83.00 185.00 L 70.00 188.00 L 66.00 183.00" fill="none" stroke="#000000" stroke-width="1.60" />
  <path d="M 90.00 184.00 L 94.00 196.00 L 99.00 191.00 L 111.00 190.00 L 113.00 186.00 L 111.00 189.00 L 97.00 191.00 L 92.00 195.00 L 90.00 186.00" fill="none" stroke="#000000" stroke-width="1.60" />
  <path d="M 131.00 192.00 L 136.00 219.00 L 132.00 222.00 L 129.00 232.00 L 127.00 220.00 L 124.00 220.00 L 125.00 241.00 L 123.00 242.00 L 120.00 235.00 L 124.00 219.00 L 131.00 227.00 L 135.00 213.00 L 132.00 192.00" fill="none" stroke="#000000" stroke-width="1.60" />
  <path d="M 69.00 198.00 L 74.00 205.00 L 75.00 217.00 L 73.00 205.00 L 71.00 203.00 L 69.00 206.00 L 70.00 201.00" fill="none" stroke="#000000" stroke-width="1.60" />
  <path d="M 48.00 201.00 L 47.00 221.00" fill="none" stroke="#000000" stroke-width="1.60" />
  <path d="M 130.00 202.00 L 128.00 217.00 L 127.00 207.00" fill="none" stroke="#000000" stroke-width="1.60" />
  <path d="M 46.00 232.00 L 55.00 243.00 L 47.00 232.00" fill="none" stroke="#000000" stroke-width="1.60" />
  <path d="M 86.00 252.00 L 89.00 270.00 L 85.00 253.00 L 86.00 278.00 L 83.00 280.00 L 82.00 263.00" fill="none" stroke="#000000" stroke-width="1.60" />
  <path d="M 161.00 55.00 L 159.00 154.00 L 146.00 182.00 L 132.00 189.00 L 136.00 219.00 L 131.00 223.00 L 130.00 232.00 L 127.00 219.00 L 124.00 220.00 L 123.00 242.00 L 120.00 234.00 L 124.00 233.00 L 124.00 219.00 L 131.00 222.00 L 135.00 213.00 L 132.00 188.00 L 146.00 180.00 L 158.00 154.00 L 162.00 55.00" fill="none" stroke="#000000" stroke-width="1.60" />
  <path d="M 44.00 141.00 L 42.00 159.00 L 43.00 143.00" fill="none" stroke="#000000" stroke-width="1.60" />
  <path d="M 100.00 171.00 L 106.00 174.00 L 119.00 172.00 L 101.00 171.00" fill="none" stroke="#000000" stroke-width="1.60" />
  <path d="M 46.00 232.00 L 55.00 241.00 L 56.00 260.00 L 59.00 240.00 L 57.00 259.00 L 54.00 258.00 L 54.00 241.00 L 47.00 232.00" fill="none" stroke="#000000" stroke-width="1.60" />
  <path d="M 61.00 233.00 L 72.00 248.00 L 73.00 263.00 L 77.00 267.00 L 82.00 264.00 L 83.00 280.00 L 86.00 278.00 L 85.00 253.00 L 89.00 254.00 L 89.00 270.00 L 85.00 252.00 L 85.00 278.00 L 82.00 280.00 L 82.00 257.00 L 79.00 265.00 L 80.00 259.00 L 75.00 266.00 L 73.00 264.00 L 71.00 248.00 L 62.00 233.00" fill="none" stroke="#000000" stroke-width="1.60" />
  <path d="M 99.00 245.00 L 102.00 246.00 L 101.00 268.00 L 105.00 268.00 L 106.00 245.00 L 104.00 268.00 L 100.00 268.00 L 102.00 245.00 L 98.00 248.00 L 98.00 273.00 L 94.00 274.00 L 94.00 249.00 L 89.00 272.00 L 91.00 250.00 L 93.00 274.00 L 98.00 247.00" fill="none" stroke="#000000" stroke-width="1.60" />
  <path d="M 168.00 39.00 L 161.00 54.00 L 160.00 149.00 L 146.00 182.00 L 132.00 189.00 L 136.00 219.00 L 132.00 219.00 L 129.00 203.00 L 129.00 218.00 L 128.00 203.00 L 135.00 214.00 L 131.00 191.00 L 150.00 174.00 L 159.00 149.00 L 165.00 42.00" fill="none" stroke="#000000" stroke-width="1.60" />
  <path d="M 124.00 219.00 L 131.00 231.00 L 132.00 222.00 L 127.00 229.00 L 124.00 220.00 L 122.00 242.00 L 123.00 223.00" fill="none" stroke="#000000" stroke-width="1.60" />
  <path d="M 60.00 231.00 L 72.00 248.00 L 74.00 265.00 L 82.00 264.00 L 82.00 279.00 L 86.00 278.00 L 86.00 252.00 L 90.00 273.00 L 91.00 251.00 L 95.00 250.00 L 95.00 270.00 L 95.00 249.00 L 91.00 250.00 L 91.00 270.00 L 85.00 252.00 L 82.00 280.00 L 82.00 258.00 L 73.00 264.00 L 71.00 248.00 L 59.00 232.00 L 56.00 260.00 L 51.00 234.00 L 54.00 253.00 L 58.00 238.00" fill="none" stroke="#000000" stroke-width="1.60" />
  <path d="M 52.00 231.00 L 55.00 254.00 L 51.00 235.00" fill="none" stroke="#000000" stroke-width="1.60" />
  <path d="M 60.00 231.00 L 72.00 247.00 L 74.00 265.00 L 82.00 264.00 L 82.00 279.00 L 86.00 278.00 L 86.00 267.00 L 82.00 280.00 L 82.00 257.00 L 79.00 265.00 L 73.00 264.00 L 71.00 247.00 L 61.00 233.00 L 58.00 237.00" fill="none" stroke="#000000" stroke-width="1.60" />
  <path d="M 127.00 218.00 L 131.00 232.00 L 132.00 222.00 L 127.00 229.00 L 124.00 219.00" fill="none" stroke="#000000" stroke-width="1.60" />
  <path d="M 119.00 232.00 L 106.00 240.00 L 103.00 270.00 L 102.00 245.00 L 96.00 274.00 L 95.00 249.00 L 90.00 273.00 L 85.00 252.00 L 94.00 271.00 L 99.00 244.00 L 101.00 259.00 L 105.00 242.00" fill="none" stroke="#000000" stroke-width="1.60" />
  <path d="M 161.00 67.00 L 159.00 154.00 L 146.00 182.00 L 132.00 189.00 L 136.00 219.00 L 129.00 203.00 L 130.00 219.00 L 128.00 203.00 L 135.00 215.00 L 131.00 191.00 L 150.00 174.00 L 160.00 139.00" fill="none" stroke="#000000" stroke-width="1.60" />
  <path d="M 161.00 54.00 L 159.00 154.00 L 146.00 182.00 L 132.00 188.00 L 150.00 174.00 L 160.00 138.00" fill="none" stroke="#000000" stroke-width="1.60" />
  <path d="M 131.00 191.00 L 136.00 216.00 L 132.00 191.00" fill="none" stroke="#000000" stroke-width="1.60" />
  <path d="M 128.00 203.00 L 136.00 219.00 L 131.00 232.00 L 124.00 220.00 L 124.00 242.00 L 130.00 203.00" fill="none" stroke="#000000" stroke-width="1.60" />
  <path d="M 92.00 249.00 L 95.00 271.00 L 95.00 249.00 L 90.00 273.00 L 86.00 252.00 L 82.00 280.00 L 85.00 252.00 L 91.00 270.00 L 91.00 250.00" fill="none" stroke="#000000" stroke-width="1.60" />
  <path d="M 43.00 24.00 L 52.00 38.00 L 55.00 64.00 L 51.00 38.00 L 44.00 26.00" fill="none" stroke="#000000" stroke-width="1.60" />
  <path d="M 56.00 137.00 L 48.00 162.00 L 45.00 165.00 L 55.00 139.00" fill="none" stroke="#000000" stroke-width="1.60" />
  <path d="M 64.00 143.00 L 57.00 174.00 L 63.00 145.00" fill="none" stroke="#000000" stroke-width="1.60" />
  <path d="M 112.00 186.00 L 107.00 192.00 L 99.00 191.00 L 111.00 188.00" fill="none" stroke="#000000" stroke-width="1.60" />
  <path d="M 119.00 233.00 L 107.00 240.00 L 105.00 244.00 L 106.00 240.00" fill="none" stroke="#000000" stroke-width="1.60" />
  <path d="M 100.00 245.00 L 102.00 246.00 L 101.00 268.00 L 105.00 269.00 L 106.00 246.00 L 105.00 265.00 L 98.00 247.00 L 98.00 266.00 L 98.00 246.00" fill="none" stroke="#000000" stroke-width="1.60" />
</svg>