<svg width="596" height="375" viewBox="0 0 596 375" xmlns="http://www.w3.org/2000/svg" shape-rendering="geometricPrecision">
  <path d="M 245.00 4.00 L 239.00 10.00 L 211.00 9.00" fill="none" stroke="#000000" stroke-width="0.50" />
  <path d="M 118.00 6.00 L 134.00 8.00 L 147.00 19.00 L 210.00 7.00 L 146.00 20.00 L 132.00 7.00 L 115.00 7.00 L 110.00 32.00 L 128.00 78.00 L 113.00 44.00 L 110.00 13.00" fill="none" stroke="#000000" stroke-width="0.50" />
  <path d="M 106.00 7.00 L 104.00 26.00 L 103.00 10.00 L 87.00 24.00 L 76.00 51.00 L 83.00 27.00" fill="none" stroke="#000000" stroke-width="0.50" />
  <path d="M 247.00 7.00 L 248.00 14.00 L 263.00 13.00 L 243.00 11.00" fill="none" stroke="#000000" stroke-width="0.50" />
  <path d="M 124.00 12.00 L 130.00 19.00 L 126.00 12.00 L 119.00 23.00 L 123.00 15.00" fill="none" stroke="#000000" stroke-width="0.50" />
  <path d="M 231.00 16.00 L 239.00 23.00 L 234.00 16.00 L 230.00 20.00" fill="none" stroke="#000000" stroke-width="0.50" />
  <path d="M 186.00 17.00 L 192.00 24.00 L 197.00 18.00 L 204.00 20.00 L 187.00 17.00 L 185.00 21.00" fill="none" stroke="#000000" stroke-width="0.50" />
  <path d="M 258.00 19.00 L 299.00 33.00 L 293.00 34.00 L 311.00 52.00 L 283.00 26.00 L 259.00 19.00" fill="none" stroke="#000000" stroke-width="0.50" />
  <path d="M 162.00 21.00 L 160.00 26.00 L 166.00 28.00 L 160.00 25.00" fill="none" stroke="#000000" stroke-width="0.50" />
  <path d="M 155.00 22.00 L 162.00 34.00 L 148.00 34.00 L 134.00 42.00 L 156.00 27.00" fill="none" stroke="#000000" stroke-width="0.50" />
  <path d="M 197.00 24.00 L 168.00 27.00 L 194.00 25.00" fill="none" stroke="#000000" stroke-width="0.50" />
  <path d="M 236.00 24.00 L 210.00 38.00" fill="none" stroke="#000000" stroke-width="0.50" />
  <path d="M 119.00 26.00 L 128.00 46.00 L 190.00 36.00 L 127.00 46.00 L 120.00 26.00" fill="none" stroke="#000000" stroke-width="0.50" />
  <path d="M 249.00 29.00 L 254.00 36.00 L 257.00 33.00 L 252.00 35.00" fill="none" stroke="#000000" stroke-width="0.50" />
  <path d="M 250.00 36.00 L 233.00 46.00" fill="none" stroke="#000000" stroke-width="0.50" />
  <path d="M 263.00 37.00 L 279.00 42.00 L 256.00 40.00" fill="none" stroke="#000000" stroke-width="0.50" />
  <path d="M 270.00 40.00 L 272.00 45.00 L 293.00 49.00 L 270.00 44.00" fill="none" stroke="#000000" stroke-width="0.50" />
  <path d="M 147.00 47.00 L 139.00 52.00 L 148.00 47.00" fill="none" stroke="#000000" stroke-width="0.50" />
  <path d="M 312.00 54.00 L 342.00 63.00 L 352.00 78.00 L 346.00 76.00 L 324.00 88.00 L 348.00 68.00 L 314.00 55.00" fill="none" stroke="#000000" stroke-width="0.50" />
  <path d="M 127.00 55.00 L 133.00 65.00 L 129.00 55.00" fill="none" stroke="#000000" stroke-width="0.50" />
  <path d="M 159.00 55.00 L 132.00 67.00" fill="none" stroke="#000000" stroke-width="0.50" />
  <path d="M 303.00 56.00 L 311.00 56.00 L 293.00 66.00 L 284.00 68.00 L 301.00 57.00" fill="none" stroke="#000000" stroke-width="0.50" />
  <path d="M 181.00 57.00 L 163.00 67.00" fill="none" stroke="#000000" stroke-width="0.50" />
  <path d="M 194.00 59.00 L 195.00 64.00 L 195.00 59.00 L 178.00 62.00" fill="none" stroke="#000000" stroke-width="0.50" />
  <path d="M 306.00 61.00 L 312.00 67.00 L 305.00 62.00 L 299.00 70.00" fill="none" stroke="#000000" stroke-width="0.50" />
  <path d="M 225.00 63.00 L 226.00 71.00 L 227.00 64.00 L 210.00 67.00" fill="none" stroke="#000000" stroke-width="0.50" />
  <path d="M 73.00 64.00 L 92.00 120.00 L 115.00 96.00 L 92.00 121.00 L 100.00 136.00 L 93.00 130.00 L 76.00 65.00 L 68.00 72.00 L 71.00 65.00" fill="none" stroke="#000000" stroke-width="0.50" />
  <path d="M 159.00 66.00 L 165.00 73.00 L 156.00 83.00 L 165.00 70.00 L 160.00 68.00" fill="none" stroke="#000000" stroke-width="0.50" />
  <path d="M 186.00 66.00 L 171.00 77.00 L 174.00 82.00 L 171.00 76.00 L 183.00 68.00" fill="none" stroke="#000000" stroke-width="0.50" />
  <path d="M 286.00 70.00 L 285.00 90.00 L 288.00 80.00" fill="none" stroke="#000000" stroke-width="0.50" />
  <path d="M 195.00 71.00 L 182.00 85.00" fill="none" stroke="#000000" stroke-width="0.50" />
  <path d="M 204.00 73.00 L 203.00 79.00 L 189.00 85.00" fill="none" stroke="#000000" stroke-width="0.50" />
  <path d="M 234.00 73.00 L 253.00 84.00 L 246.00 86.00 L 247.00 81.00 L 242.00 86.00 L 233.00 100.00 L 240.00 99.00 L 232.00 101.00 L 240.00 81.00 L 249.00 79.00 L 234.00 74.00 L 233.00 79.00 L 233.00 74.00" fill="none" stroke="#000000" stroke-width="0.50" />
  <path d="M 71.00 74.00 L 68.00 79.00 L 60.00 80.00 L 67.00 75.00" fill="none" stroke="#000000" stroke-width="0.50" />
  <path d="M 132.00 74.00 L 149.00 96.00 L 134.00 75.00 L 131.00 79.00" fill="none" stroke="#000000" stroke-width="0.50" />
  <path d="M 228.00 76.00 L 209.00 105.00 L 207.00 97.00 L 226.00 77.00" fill="none" stroke="#000000" stroke-width="0.50" />
  <path d="M 156.00 77.00 L 152.00 81.00 L 156.00 89.00 L 151.00 78.00" fill="none" stroke="#000000" stroke-width="0.50" />
  <path d="M 217.00 77.00 L 207.00 89.00 L 215.00 78.00" fill="none" stroke="#000000" stroke-width="0.50" />
  <path d="M 224.00 77.00 L 210.00 89.00" fill="none" stroke="#000000" stroke-width="0.50" />
  <path d="M 239.00 77.00 L 224.00 93.00" fill="none" stroke="#000000" stroke-width="0.50" />
  <path d="M 298.00 77.00 L 297.00 84.00 L 290.00 86.00 L 298.00 80.00" fill="none" stroke="#000000" stroke-width="0.50" />
  <path d="M 351.00 80.00 L 343.00 98.00 L 345.00 109.00 L 343.00 97.00 L 350.00 81.00" fill="none" stroke="#000000" stroke-width="0.50" />
  <path d="M 127.00 81.00 L 137.00 89.00 L 131.00 81.00 L 122.00 84.00 L 91.00 113.00" fill="none" stroke="#000000" stroke-width="0.50" />
  <path d="M 321.00 89.00 L 309.00 124.00 L 318.00 93.00" fill="none" stroke="#000000" stroke-width="0.50" />
  <path d="M 175.00 90.00 L 170.00 98.00 L 162.00 98.00 L 165.00 106.00 L 153.00 98.00 L 152.00 113.00 L 151.00 107.00 L 174.00 91.00" fill="none" stroke="#000000" stroke-width="0.50" />
  <path d="M 180.00 91.00 L 183.00 104.00 L 182.00 98.00 L 177.00 100.00 L 179.00 93.00" fill="none" stroke="#000000" stroke-width="0.50" />
  <path d="M 137.00 92.00 L 150.00 104.00 L 135.00 93.00 L 109.00 115.00" fill="none" stroke="#000000" stroke-width="0.50" />
  <path d="M 293.00 92.00 L 298.00 104.00 L 293.00 95.00" fill="none" stroke="#000000" stroke-width="0.50" />
  <path d="M 228.00 95.00 L 220.00 109.00 L 225.00 98.00" fill="none" stroke="#000000" stroke-width="0.50" />
  <path d="M 339.00 96.00 L 343.00 110.00 L 339.00 100.00" fill="none" stroke="#000000" stroke-width="0.50" />
  <path d="M 220.00 100.00 L 220.00 115.00 L 217.00 101.00" fill="none" stroke="#000000" stroke-width="0.50" />
  <path d="M 285.00 101.00 L 291.00 112.00 L 288.00 122.00 L 289.00 102.00 L 274.00 108.00 L 272.00 126.00 L 269.00 121.00 L 255.00 123.00 L 269.00 119.00 L 271.00 113.00" fill="none" stroke="#000000" stroke-width="0.50" />
  <path d="M 323.00 102.00 L 333.00 125.00 L 327.00 112.00 L 319.00 115.00 L 326.00 110.00 L 323.00 103.00 L 316.00 113.00 L 322.00 103.00" fill="none" stroke="#000000" stroke-width="0.50" />
  <path d="M 64.00 104.00 L 49.00 117.00" fill="none" stroke="#000000" stroke-width="0.50" />
  <path d="M 228.00 104.00 L 225.00 113.00 L 230.00 126.00 L 231.00 118.00 L 224.00 124.00 L 226.00 106.00" fill="none" stroke="#000000" stroke-width="0.50" />
  <path d="M 237.00 104.00 L 232.00 113.00 L 237.00 105.00" fill="none" stroke="#000000" stroke-width="0.50" />
  <path d="M 202.00 105.00 L 177.00 110.00 L 176.00 116.00 L 201.00 107.00" fill="none" stroke="#000000" stroke-width="0.50" />
  <path d="M 261.00 107.00 L 265.00 109.00 L 259.00 109.00 L 260.00 115.00 L 259.00 108.00" fill="none" stroke="#000000" stroke-width="0.50" />
  <path d="M 77.00 108.00 L 81.00 115.00 L 74.00 124.00 L 79.00 131.00 L 83.00 126.00 L 78.00 134.00 L 81.00 145.00 L 76.00 127.00 L 71.00 132.00 L 73.00 119.00 L 80.00 115.00 L 77.00 110.00" fill="none" stroke="#000000" stroke-width="0.50" />
  <path d="M 255.00 108.00 L 241.00 125.00 L 245.00 130.00 L 241.00 131.00 L 245.00 120.00" fill="none" stroke="#000000" stroke-width="0.50" />
  <path d="M 122.00 110.00 L 120.00 123.00 L 135.00 120.00 L 118.00 122.00 L 117.00 116.00" fill="none" stroke="#000000" stroke-width="0.50" />
  <path d="M 283.00 110.00 L 286.00 117.00 L 282.00 111.00 L 277.00 118.00 L 284.00 119.00 L 277.00 116.00" fill="none" stroke="#000000" stroke-width="0.50" />
  <path d="M 337.00 111.00 L 350.00 121.00 L 337.00 112.00" fill="none" stroke="#000000" stroke-width="0.50" />
  <path d="M 198.00 112.00 L 204.00 120.00 L 202.00 112.00 L 201.00 119.00 L 198.00 115.00" fill="none" stroke="#000000" stroke-width="0.50" />
  <path d="M 143.00 114.00 L 161.00 133.00 L 145.00 115.00" fill="none" stroke="#000000" stroke-width="0.50" />
  <path d="M 156.00 114.00 L 161.00 123.00 L 157.00 114.00" fill="none" stroke="#000000" stroke-width="0.50" />
  <path d="M 207.00 115.00 L 225.00 130.00 L 233.00 128.00 L 244.00 152.00 L 264.00 169.00 L 244.00 153.00 L 235.00 126.00 L 223.00 129.00 L 207.00 120.00" fill="none" stroke="#000000" stroke-width="0.50" />
  <path d="M 138.00 120.00 L 132.00 134.00 L 137.00 121.00" fill="none" stroke="#000000" stroke-width="0.50" />
  <path d="M 66.00 122.00 L 62.00 127.00 L 66.00 131.00 L 69.00 126.00 L 67.00 133.00 L 61.00 127.00" fill="none" stroke="#000000" stroke-width="0.50" />
  <path d="M 171.00 122.00 L 202.00 135.00 L 230.00 161.00 L 250.00 202.00 L 241.00 232.00 L 248.00 207.00 L 227.00 158.00 L 194.00 131.00 L 170.00 123.00 L 160.00 126.00" fill="none" stroke="#000000" stroke-width="0.50" />
  <path d="M 316.00 123.00 L 336.00 130.00 L 326.00 123.00 L 316.00 124.00" fill="none" stroke="#000000" stroke-width="0.50" />
  <path d="M 249.00 124.00 L 254.00 125.00 L 252.00 131.00 L 249.00 125.00" fill="none" stroke="#000000" stroke-width="0.50" />
  <path d="M 287.00 124.00 L 299.00 152.00 L 287.00 125.00" fill="none" stroke="#000000" stroke-width="0.50" />
  <path d="M 308.00 126.00 L 312.00 137.00 L 304.00 133.00 L 309.00 126.00" fill="none" stroke="#000000" stroke-width="0.50" />
  <path d="M 100.00 128.00 L 113.00 139.00 L 108.00 140.00 L 110.00 147.00 L 101.00 128.00" fill="none" stroke="#000000" stroke-width="0.50" />
  <path d="M 257.00 131.00 L 265.00 137.00 L 260.00 140.00 L 262.00 135.00 L 254.00 133.00" fill="none" stroke="#000000" stroke-width="0.50" />
  <path d="M 338.00 131.00 L 336.00 143.00 L 336.00 133.00 L 320.00 133.00" fill="none" stroke="#000000" stroke-width="0.50" />
  <path d="M 355.00 131.00 L 397.00 155.00 L 397.00 163.00 L 422.00 192.00 L 430.00 218.00 L 421.00 192.00 L 397.00 164.00 L 395.00 152.00 L 360.00 138.00 L 357.00 132.00" fill="none" stroke="#000000" stroke-width="0.50" />
  <path d="M 353.00 132.00 L 344.00 136.00 L 350.00 147.00 L 347.00 154.00 L 344.00 135.00" fill="none" stroke="#000000" stroke-width="0.50" />
  <path d="M 118.00 134.00 L 137.00 144.00 L 159.00 137.00 L 133.00 142.00 L 118.00 135.00" fill="none" stroke="#000000" stroke-width="0.50" />
  <path d="M 222.00 134.00 L 242.00 158.00 L 254.00 190.00 L 227.00 140.00" fill="none" stroke="#000000" stroke-width="0.50" />
  <path d="M 245.00 137.00 L 253.00 145.00 L 246.00 137.00" fill="none" stroke="#000000" stroke-width="0.50" />
  <path d="M 99.00 139.00 L 96.00 151.00 L 91.00 140.00 L 86.00 152.00" fill="none" stroke="#000000" stroke-width="0.50" />
  <path d="M 167.00 140.00 L 170.00 146.00 L 201.00 158.00 L 220.00 180.00 L 227.00 205.00 L 241.00 210.00 L 235.00 182.00 L 212.00 149.00 L 230.00 209.00 L 219.00 180.00 L 205.00 163.00 L 167.00 142.00" fill="none" stroke="#000000" stroke-width="0.50" />
  <path d="M 64.00 142.00 L 68.00 166.00 L 65.00 142.00" fill="none" stroke="#000000" stroke-width="0.50" />
  <path d="M 313.00 143.00 L 342.00 150.00 L 343.00 157.00 L 337.00 158.00 L 340.00 153.00 L 334.00 153.00 L 342.00 146.00 L 335.00 145.00" fill="none" stroke="#000000" stroke-width="0.50" />
  <path d="M 257.00 146.00 L 269.00 157.00 L 252.00 147.00" fill="none" stroke="#000000" stroke-width="0.50" />
  <path d="M 117.00 147.00 L 123.00 156.00 L 113.00 186.00 L 122.00 153.00 L 118.00 151.00 L 117.00 157.00 L 101.00 151.00 L 117.00 150.00" fill="none" stroke="#000000" stroke-width="0.50" />
  <path d="M 126.00 149.00 L 130.00 162.00 L 128.00 174.00 L 126.00 153.00" fill="none" stroke="#000000" stroke-width="0.50" />
  <path d="M 54.00 151.00 L 61.00 169.00 L 57.00 164.00 L 54.00 170.00 L 58.00 161.00 L 54.00 152.00" fill="none" stroke="#000000" stroke-width="0.50" />
  <path d="M 75.00 151.00 L 84.00 155.00 L 78.00 151.00 L 72.00 155.00" fill="none" stroke="#000000" stroke-width="0.50" />
  <path d="M 388.00 152.00 L 393.00 155.00 L 387.00 165.00 L 391.00 156.00" fill="none" stroke="#000000" stroke-width="0.50" />
  <path d="M 142.00 153.00 L 135.00 161.00 L 138.00 165.00 L 164.00 154.00 L 138.00 164.00 L 136.00 158.00" fill="none" stroke="#000000" stroke-width="0.50" />
  <path d="M 348.00 158.00 L 355.00 161.00 L 349.00 160.00 L 348.00 179.00 L 338.00 183.00 L 348.00 162.00" fill="none" stroke="#000000" stroke-width="0.50" />
  <path d="M 291.00 159.00 L 317.00 173.00 L 330.00 166.00 L 339.00 170.00 L 315.00 171.00 L 296.00 159.00 L 289.00 161.00" fill="none" stroke="#000000" stroke-width="0.50" />
  <path d="M 313.00 159.00 L 326.00 164.00 L 311.00 160.00" fill="none" stroke="#000000" stroke-width="0.50" />
  <path d="M 166.00 165.00 L 196.00 171.00 L 214.00 201.00 L 199.00 175.00 L 162.00 166.00 L 141.00 179.00 L 135.00 194.00 L 140.00 180.00" fill="none" stroke="#000000" stroke-width="0.50" />
  <path d="M 105.00 168.00 L 106.00 219.00 L 132.00 261.00 L 106.00 220.00 L 104.00 172.00" fill="none" stroke="#000000" stroke-width="0.50" />
  <path d="M 142.00 169.00 L 130.00 190.00 L 136.00 175.00" fill="none" stroke="#000000" stroke-width="0.50" />
  <path d="M 200.00 169.00 L 213.00 180.00 L 220.00 204.00 L 200.00 170.00" fill="none" stroke="#000000" stroke-width="0.50" />
  <path d="M 183.00 170.00 L 202.00 189.00 L 183.00 173.00" fill="none" stroke="#000000" stroke-width="0.50" />
  <path d="M 271.00 170.00 L 274.00 178.00 L 272.00 170.00 L 268.00 173.00 L 272.00 179.00 L 268.00 174.00" fill="none" stroke="#000000" stroke-width="0.50" />
  <path d="M 352.00 170.00 L 348.00 197.00 L 353.00 170.00" fill="none" stroke="#000000" stroke-width="0.50" />
  <path d="M 87.00 171.00 L 69.00 174.00" fill="none" stroke="#000000" stroke-width="0.50" />
  <path d="M 165.00 172.00 L 172.00 179.00 L 176.00 172.00 L 170.00 179.00 L 171.00 172.00 L 165.00 173.00 L 144.00 194.00 L 159.00 178.00" fill="none" stroke="#000000" stroke-width="0.50" />
  <path d="M 286.00 174.00 L 292.00 185.00 L 286.00 177.00" fill="none" stroke="#000000" stroke-width="0.50" />
  <path d="M 129.00 176.00 L 125.00 199.00 L 128.00 177.00" fill="none" stroke="#000000" stroke-width="0.50" />
  <path d="M 296.00 177.00 L 300.00 185.00 L 292.00 180.00" fill="none" stroke="#000000" stroke-width="0.50" />
  <path d="M 282.00 179.00 L 286.00 186.00 L 277.00 196.00 L 283.00 179.00" fill="none" stroke="#000000" stroke-width="0.50" />
  <path d="M 200.00 180.00 L 209.00 198.00 L 202.00 204.00 L 205.00 215.00 L 200.00 227.00 L 181.00 243.00 L 154.00 235.00 L 134.00 207.00 L 138.00 196.00 L 134.00 203.00 L 200.00 224.00 L 204.00 200.00 L 198.00 192.00 L 207.00 195.00 L 200.00 181.00" fill="none" stroke="#000000" stroke-width="0.50" />
  <path d="M 70.00 181.00 L 76.00 192.00 L 71.00 181.00" fill="none" stroke="#000000" stroke-width="0.50" />
  <path d="M 66.00 187.00 L 60.00 201.00 L 59.00 196.00" fill="none" stroke="#000000" stroke-width="0.50" />
  <path d="M 359.00 187.00 L 363.00 189.00 L 361.00 196.00 L 359.00 188.00" fill="none" stroke="#000000" stroke-width="0.50" />
  <path d="M 173.00 188.00 L 179.00 198.00 L 177.00 191.00" fill="none" stroke="#000000" stroke-width="0.50" />
  <path d="M 340.00 188.00 L 340.00 202.00 L 338.00 189.00" fill="none" stroke="#000000" stroke-width="0.50" />
  <path d="M 129.00 192.00 L 132.00 201.00 L 130.00 192.00" fill="none" stroke="#000000" stroke-width="0.50" />
  <path d="M 78.00 193.00 L 92.00 209.00 L 109.00 247.00 L 108.00 252.00 L 101.00 239.00 L 87.00 200.00 L 78.00 194.00" fill="none" stroke="#000000" stroke-width="0.50" />
  <path d="M 298.00 193.00 L 309.00 207.00 L 311.00 203.00 L 308.00 209.00 L 304.00 203.00 L 311.00 200.00 L 297.00 197.00 L 285.00 209.00 L 296.00 194.00" fill="none" stroke="#000000" stroke-width="0.50" />
  <path d="M 318.00 197.00 L 321.00 206.00 L 322.00 198.00 L 317.00 198.00" fill="none" stroke="#000000" stroke-width="0.50" />
  <path d="M 264.00 198.00 L 255.00 228.00 L 265.00 198.00" fill="none" stroke="#000000" stroke-width="0.50" />
  <path d="M 112.00 199.00 L 131.00 245.00 L 157.00 264.00 L 184.00 267.00 L 206.00 259.00 L 218.00 246.00 L 224.00 228.00 L 219.00 207.00 L 222.00 234.00 L 207.00 257.00 L 193.00 264.00 L 155.00 262.00 L 131.00 246.00 L 112.00 204.00" fill="none" stroke="#000000" stroke-width="0.50" />
  <path d="M 368.00 199.00 L 375.00 207.00 L 370.00 199.00" fill="none" stroke="#000000" stroke-width="0.50" />
  <path d="M 253.00 201.00 L 257.00 212.00 L 253.00 202.00" fill="none" stroke="#000000" stroke-width="0.50" />
  <path d="M 124.00 202.00 L 134.00 230.00 L 128.00 225.00 L 124.00 203.00" fill="none" stroke="#000000" stroke-width="0.50" />
  <path d="M 213.00 203.00 L 214.00 222.00 L 205.00 240.00 L 213.00 222.00 L 211.00 205.00" fill="none" stroke="#000000" stroke-width="0.50" />
  <path d="M 298.00 205.00 L 301.00 215.00 L 297.00 208.00" fill="none" stroke="#000000" stroke-width="0.50" />
  <path d="M 273.00 211.00 L 280.00 212.00 L 269.00 214.00" fill="none" stroke="#000000" stroke-width="0.50" />
  <path d="M 427.00 213.00 L 366.00 237.00 L 363.00 244.00 L 362.00 240.00" fill="none" stroke="#000000" stroke-width="0.50" />
  <path d="M 321.00 217.00 L 327.00 228.00 L 322.00 217.00" fill="none" stroke="#000000" stroke-width="0.50" />
  <path d="M 133.00 218.00 L 133.00 226.00 L 151.00 247.00 L 134.00 221.00" fill="none" stroke="#000000" stroke-width="0.50" />
  <path d="M 273.00 223.00 L 281.00 230.00 L 278.00 240.00 L 278.00 225.00 L 276.00 238.00 L 273.00 224.00" fill="none" stroke="#000000" stroke-width="0.50" />
  <path d="M 429.00 223.00 L 397.00 235.00 L 396.00 241.00 L 394.00 236.00" fill="none" stroke="#000000" stroke-width="0.50" />
  <path d="M 292.00 227.00 L 287.00 233.00 L 292.00 241.00 L 284.00 230.00" fill="none" stroke="#000000" stroke-width="0.50" />
  <path d="M 448.00 229.00 L 460.00 242.00 L 482.00 246.00 L 458.00 241.00 L 447.00 230.00" fill="none" stroke="#000000" stroke-width="0.50" />
  <path d="M 429.00 230.00 L 426.00 234.00 L 432.00 241.00 L 445.00 242.00 L 430.00 240.00 L 426.00 233.00" fill="none" stroke="#000000" stroke-width="0.50" />
  <path d="M 341.00 231.00 L 342.00 242.00 L 340.00 232.00" fill="none" stroke="#000000" stroke-width="0.50" />
  <path d="M 492.00 232.00 L 510.00 241.00" fill="none" stroke="#000000" stroke-width="0.50" />
  <path d="M 231.00 233.00 L 227.00 248.00 L 231.00 235.00" fill="none" stroke="#000000" stroke-width="0.50" />
  <path d="M 322.00 237.00 L 327.00 245.00 L 320.00 238.00" fill="none" stroke="#000000" stroke-width="0.50" />
  <path d="M 422.00 239.00 L 420.00 246.00 L 390.00 258.00 L 391.00 262.00 L 421.00 241.00" fill="none" stroke="#000000" stroke-width="0.50" />
  <path d="M 82.00 240.00 L 86.00 257.00 L 81.00 245.00" fill="none" stroke="#000000" stroke-width="0.50" />
  <path d="M 494.00 244.00 L 516.00 253.00 L 503.00 253.00 L 496.00 244.00 L 492.00 248.00" fill="none" stroke="#000000" stroke-width="0.50" />
  <path d="M 332.00 248.00 L 338.00 258.00 L 332.00 251.00" fill="none" stroke="#000000" stroke-width="0.50" />
  <path d="M 340.00 249.00 L 351.00 267.00 L 349.00 272.00 L 340.00 250.00" fill="none" stroke="#000000" stroke-width="0.50" />
  <path d="M 519.00 251.00 L 521.00 263.00 L 531.00 267.00 L 550.00 294.00 L 547.00 284.00 L 533.00 273.00 L 530.00 276.00 L 531.00 266.00 L 521.00 264.00 L 519.00 256.00" fill="none" stroke="#000000" stroke-width="0.50" />
  <path d="M 105.00 253.00 L 105.00 265.00 L 102.00 258.00 L 94.00 283.00 L 84.00 292.00 L 99.00 264.00" fill="none" stroke="#000000" stroke-width="0.50" />
  <path d="M 288.00 257.00 L 293.00 264.00 L 291.00 257.00 L 284.00 260.00" fill="none" stroke="#000000" stroke-width="0.50" />
  <path d="M 357.00 257.00 L 364.00 266.00 L 364.00 259.00" fill="none" stroke="#000000" stroke-width="0.50" />
  <path d="M 357.00 259.00 L 364.00 271.00 L 358.00 259.00" fill="none" stroke="#000000" stroke-width="0.50" />
  <path d="M 397.00 259.00 L 396.00 267.00 L 406.00 273.00 L 467.00 270.00 L 416.00 273.00 L 395.00 266.00" fill="none" stroke="#000000" stroke-width="0.50" />
  <path d="M 445.00 264.00 L 450.00 269.00 L 447.00 264.00 L 443.00 268.00" fill="none" stroke="#000000" stroke-width="0.50" />
  <path d="M 470.00 266.00 L 478.00 267.00 L 470.00 268.00 L 470.00 273.00 L 469.00 268.00" fill="none" stroke="#000000" stroke-width="0.50" />
  <path d="M 390.00 267.00 L 396.00 275.00 L 390.00 268.00" fill="none" stroke="#000000" stroke-width="0.50" />
  <path d="M 513.00 271.00 L 496.00 280.00 L 467.00 275.00" fill="none" stroke="#000000" stroke-width="0.50" />
  <path d="M 185.00 272.00 L 190.00 280.00 L 185.00 273.00 L 180.00 279.00 L 184.00 273.00" fill="none" stroke="#000000" stroke-width="0.50" />
  <path d="M 358.00 273.00 L 361.00 279.00 L 383.00 282.00 L 396.00 277.00 L 383.00 283.00 L 358.00 274.00" fill="none" stroke="#000000" stroke-width="0.50" />
  <path d="M 514.00 274.00 L 522.00 284.00 L 512.00 276.00" fill="none" stroke="#000000" stroke-width="0.50" />
  <path d="M 84.00 277.00 L 67.00 300.00 L 47.00 312.00 L 51.00 318.00 L 62.00 313.00 L 42.00 317.00 L 76.00 283.00" fill="none" stroke="#000000" stroke-width="0.50" />
  <path d="M 358.00 280.00 L 362.00 289.00 L 357.00 282.00" fill="none" stroke="#000000" stroke-width="0.50" />
  <path d="M 501.00 281.00 L 495.00 291.00 L 499.00 282.00" fill="none" stroke="#000000" stroke-width="0.50" />
  <path d="M 131.00 282.00 L 113.00 283.00 L 93.00 294.00" fill="none" stroke="#000000" stroke-width="0.50" />
  <path d="M 395.00 283.00 L 378.00 294.00 L 336.00 300.00 L 317.00 310.00 L 311.00 316.00 L 386.00 288.00" fill="none" stroke="#000000" stroke-width="0.50" />
  <path d="M 542.00 287.00 L 534.00 294.00 L 539.00 300.00 L 527.00 307.00 L 536.00 297.00 L 527.00 289.00 L 523.00 292.00" fill="none" stroke="#000000" stroke-width="0.50" />
  <path d="M 144.00 290.00 L 162.00 293.00 L 183.00 306.00 L 165.00 294.00 L 140.00 291.00" fill="none" stroke="#000000" stroke-width="0.50" />
  <path d="M 450.00 290.00 L 445.00 293.00 L 450.00 299.00 L 445.00 292.00" fill="none" stroke="#000000" stroke-width="0.50" />
  <path d="M 220.00 293.00 L 237.00 303.00 L 219.00 294.00 L 192.00 303.00" fill="none" stroke="#000000" stroke-width="0.50" />
  <path d="M 418.00 293.00 L 432.00 295.00 L 410.00 296.00" fill="none" stroke="#000000" stroke-width="0.50" />
  <path d="M 440.00 294.00 L 448.00 302.00 L 441.00 303.00 L 443.00 311.00 L 476.00 311.00 L 440.00 309.00 L 431.00 315.00 L 412.00 313.00 L 394.00 319.00 L 385.00 316.00 L 385.00 310.00 L 380.00 313.00 L 384.00 321.00 L 380.00 316.00 L 441.00 294.00" fill="none" stroke="#000000" stroke-width="0.50" />
  <path d="M 512.00 294.00 L 524.00 303.00 L 524.00 297.00 L 511.00 295.00" fill="none" stroke="#000000" stroke-width="0.50" />
  <path d="M 264.00 295.00 L 271.00 301.00 L 269.00 311.00 L 270.00 297.00 L 258.00 296.00 L 251.00 304.00 L 256.00 298.00" fill="none" stroke="#000000" stroke-width="0.50" />
  <path d="M 408.00 296.00 L 387.00 305.00" fill="none" stroke="#000000" stroke-width="0.50" />
  <path d="M 413.00 297.00 L 417.00 308.00 L 413.00 302.00" fill="none" stroke="#000000" stroke-width="0.50" />
  <path d="M 209.00 299.00 L 215.00 306.00 L 208.00 300.00" fill="none" stroke="#000000" stroke-width="0.50" />
  <path d="M 212.00 299.00 L 226.00 316.00 L 214.00 299.00" fill="none" stroke="#000000" stroke-width="0.50" />
  <path d="M 143.00 301.00 L 102.00 320.00" fill="none" stroke="#000000" stroke-width="0.50" />
  <path d="M 546.00 301.00 L 555.00 310.00 L 547.00 301.00" fill="none" stroke="#000000" stroke-width="0.50" />
  <path d="M 541.00 303.00 L 553.00 324.00 L 563.00 328.00 L 556.00 322.00 L 551.00 334.00 L 547.00 333.00 L 552.00 321.00 L 542.00 303.00" fill="none" stroke="#000000" stroke-width="0.50" />
  <path d="M 482.00 304.00 L 477.00 316.00 L 482.00 327.00 L 524.00 337.00 L 516.00 340.00 L 512.00 333.00 L 515.00 338.00 L 480.00 323.00 L 476.00 313.00" fill="none" stroke="#000000" stroke-width="0.50" />
  <path d="M 539.00 304.00 L 541.00 310.00 L 533.00 314.00 L 536.00 305.00 L 526.00 315.00 L 513.00 308.00" fill="none" stroke="#000000" stroke-width="0.50" />
  <path d="M 170.00 305.00 L 181.00 310.00 L 177.00 312.00 L 171.00 305.00" fill="none" stroke="#000000" stroke-width="0.50" />
  <path d="M 222.00 305.00 L 234.00 317.00 L 223.00 305.00" fill="none" stroke="#000000" stroke-width="0.50" />
  <path d="M 348.00 305.00 L 345.00 317.00 L 344.00 311.00" fill="none" stroke="#000000" stroke-width="0.50" />
  <path d="M 505.00 305.00 L 512.00 306.00 L 496.00 306.00 L 492.00 312.00 L 488.00 307.00 L 485.00 317.00" fill="none" stroke="#000000" stroke-width="0.50" />
  <path d="M 183.00 308.00 L 192.00 317.00 L 200.00 318.00 L 200.00 313.00 L 187.00 314.00 L 185.00 309.00" fill="none" stroke="#000000" stroke-width="0.50" />
  <path d="M 214.00 308.00 L 223.00 321.00 L 239.00 326.00 L 284.00 366.00 L 248.00 333.00 L 211.00 311.00" fill="none" stroke="#000000" stroke-width="0.50" />
  <path d="M 234.00 308.00 L 240.00 316.00 L 235.00 308.00" fill="none" stroke="#000000" stroke-width="0.50" />
  <path d="M 70.00 309.00 L 78.00 313.00 L 90.00 309.00 L 72.00 309.00" fill="none" stroke="#000000" stroke-width="0.50" />
  <path d="M 171.00 310.00 L 182.00 326.00 L 149.00 335.00 L 137.00 344.00 L 182.00 323.00 L 175.00 313.00" fill="none" stroke="#000000" stroke-width="0.50" />
  <path d="M 250.00 311.00 L 279.00 331.00 L 253.00 311.00" fill="none" stroke="#000000" stroke-width="0.50" />
  <path d="M 202.00 313.00 L 216.00 325.00 L 228.00 329.00 L 229.00 325.00 L 210.00 320.00" fill="none" stroke="#000000" stroke-width="0.50" />
  <path d="M 553.00 313.00 L 560.00 317.00 L 557.00 320.00 L 553.00 314.00" fill="none" stroke="#000000" stroke-width="0.50" />
  <path d="M 505.00 315.00 L 502.00 327.00 L 504.00 316.00" fill="none" stroke="#000000" stroke-width="0.50" />
  <path d="M 532.00 316.00 L 544.00 321.00 L 543.00 316.00 L 533.00 316.00" fill="none" stroke="#000000" stroke-width="0.50" />
  <path d="M 42.00 319.00 L 43.00 330.00 L 32.00 341.00 L 42.00 330.00 L 42.00 320.00" fill="none" stroke="#000000" stroke-width="0.50" />
  <path d="M 68.00 319.00 L 73.00 321.00 L 62.00 332.00 L 52.00 328.00 L 62.00 330.00 L 68.00 323.00" fill="none" stroke="#000000" stroke-width="0.50" />
  <path d="M 257.00 320.00 L 260.00 329.00 L 251.00 322.00" fill="none" stroke="#000000" stroke-width="0.50" />
  <path d="M 523.00 321.00 L 522.00 332.00 L 517.00 325.00 L 522.00 324.00" fill="none" stroke="#000000" stroke-width="0.50" />
  <path d="M 321.00 326.00 L 355.00 341.00 L 381.00 373.00 L 352.00 339.00 L 335.00 329.00 L 314.00 329.00" fill="none" stroke="#000000" stroke-width="0.50" />
  <path d="M 459.00 326.00 L 486.00 348.00 L 495.00 361.00 L 494.00 373.00 L 492.00 357.00 L 460.00 326.00" fill="none" stroke="#000000" stroke-width="0.50" />
  <path d="M 249.00 327.00 L 261.00 340.00 L 249.00 328.00" fill="none" stroke="#000000" stroke-width="0.50" />
  <path d="M 311.00 327.00 L 315.00 338.00 L 308.00 330.00" fill="none" stroke="#000000" stroke-width="0.50" />
  <path d="M 470.00 327.00 L 478.00 335.00 L 471.00 327.00" fill="none" stroke="#000000" stroke-width="0.50" />
  <path d="M 261.00 331.00 L 282.00 343.00 L 272.00 339.00 L 279.00 349.00 L 265.00 332.00" fill="none" stroke="#000000" stroke-width="0.50" />
  <path d="M 563.00 332.00 L 559.00 346.00 L 575.00 348.00 L 558.00 348.00 L 558.00 337.00" fill="none" stroke="#000000" stroke-width="0.50" />
  <path d="M 276.00 334.00 L 286.00 344.00 L 283.00 337.00 L 287.00 337.00 L 274.00 335.00" fill="none" stroke="#000000" stroke-width="0.50" />
  <path d="M 527.00 334.00 L 534.00 341.00 L 527.00 336.00 L 532.00 335.00" fill="none" stroke="#000000" stroke-width="0.50" />
  <path d="M 506.00 335.00 L 512.00 345.00 L 508.00 336.00" fill="none" stroke="#000000" stroke-width="0.50" />
  <path d="M 551.00 337.00 L 541.00 348.00 L 541.00 339.00 L 532.00 354.00 L 551.00 338.00" fill="none" stroke="#000000" stroke-width="0.50" />
  <path d="M 519.00 340.00 L 516.00 350.00 L 507.00 349.00" fill="none" stroke="#000000" stroke-width="0.50" />
  <path d="M 36.00 345.00 L 22.00 372.00 L 35.00 346.00" fill="none" stroke="#000000" stroke-width="0.50" />
  <path d="M 58.00 345.00 L 55.00 349.00 L 60.00 352.00 L 49.00 351.00 L 48.00 358.00 L 47.00 352.00" fill="none" stroke="#000000" stroke-width="0.50" />
  <path d="M 109.00 347.00 L 114.00 348.00 L 106.00 348.00 L 105.00 354.00 L 104.00 349.00" fill="none" stroke="#000000" stroke-width="0.50" />
  <path d="M 272.00 347.00 L 286.00 362.00 L 279.00 356.00 L 285.00 358.00 L 285.00 353.00" fill="none" stroke="#000000" stroke-width="0.50" />
  <path d="M 47.00 348.00 L 35.00 373.00 L 31.00 373.00 L 42.00 355.00 L 40.00 349.00" fill="none" stroke="#000000" stroke-width="0.50" />
  <path d="M 345.00 348.00 L 364.00 373.00 L 348.00 350.00" fill="none" stroke="#000000" stroke-width="0.50" />
  <path d="M 318.00 349.00 L 318.00 355.00 L 320.00 350.00 L 311.00 354.00" fill="none" stroke="#000000" stroke-width="0.50" />
  <path d="M 539.00 349.00 L 540.00 355.00 L 554.00 351.00 L 538.00 354.00 L 539.00 350.00" fill="none" stroke="#000000" stroke-width="0.50" />
  <path d="M 569.00 350.00 L 567.00 354.00 L 574.00 356.00 L 568.00 356.00 L 557.00 373.00 L 545.00 373.00 L 558.00 368.00 L 566.00 355.00" fill="none" stroke="#000000" stroke-width="0.50" />
  <path d="M 287.00 351.00 L 294.00 359.00 L 303.00 356.00 L 294.00 360.00 L 289.00 352.00" fill="none" stroke="#000000" stroke-width="0.50" />
  <path d="M 304.00 351.00 L 313.00 360.00 L 303.00 352.00" fill="none" stroke="#000000" stroke-width="0.50" />
  <path d="M 523.00 351.00 L 517.00 365.00 L 512.00 362.00 L 517.00 359.00 L 512.00 360.00 L 522.00 353.00" fill="none" stroke="#000000" stroke-width="0.50" />
  <path d="M 561.00 351.00 L 554.00 360.00 L 562.00 351.00" fill="none" stroke="#000000" stroke-width="0.50" />
  <path d="M 70.00 353.00 L 75.00 355.00 L 62.00 371.00 L 74.00 353.00 L 52.00 364.00" fill="none" stroke="#000000" stroke-width="0.50" />
  <path d="M 476.00 355.00 L 485.00 373.00 L 481.00 358.00" fill="none" stroke="#000000" stroke-width="0.50" />
  <path d="M 537.00 356.00 L 534.00 373.00 L 533.00 359.00" fill="none" stroke="#000000" stroke-width="0.50" />
  <path d="M 527.00 357.00 L 524.00 362.00 L 529.00 364.00 L 520.00 366.00 L 525.00 359.00" fill="none" stroke="#000000" stroke-width="0.50" />
  <path d="M 293.00 362.00 L 288.00 373.00 L 288.00 367.00" fill="none" stroke="#000000" stroke-width="0.50" />
  <path d="M 576.00 363.00 L 571.00 366.00 L 574.00 373.00 L 568.00 364.00" fill="none" stroke="#000000" stroke-width="0.50" />
  <path d="M 143.00 364.00 L 126.00 373.00" fill="none" stroke="#000000" stroke-width="0.50" />
  <path d="M 510.00 367.00 L 522.00 368.00 L 508.00 370.00" fill="none" stroke="#000000" stroke-width="0.50" />
  <path d="M 531.00 367.00 L 529.00 373.00 L 515.00 373.00" fill="none" stroke="#000000" stroke-width="0.50" />
  <path d="M 194.00 369.00 L 208.00 373.00 L 194.00 371.00" fill="none" stroke="#000000" stroke-width="0.50" />
  <path d="M 212.00 5.00 L 146.00 20.00 L 132.00 7.00 L 115.00 7.00 L 110.00 31.00 L 128.00 78.00 L 111.00 37.00 L 110.00 13.00" fill="none" stroke="#000000" stroke-width="0.50" />
  <path d="M 105.00 8.00 L 79.00 32.00 L 76.00 51.00 L 78.00 36.00" fill="none" stroke="#000000" stroke-width="0.50" />
  <path d="M 148.00 33.00 L 162.00 34.00 L 134.00 41.00" fill="none" stroke="#000000" stroke-width="0.50" />
  <path d="M 198.00 50.00 L 193.00 60.00 L 178.00 63.00 L 180.00 57.00 L 162.00 67.00 L 165.00 76.00 L 156.00 83.00 L 165.00 70.00 L 158.00 65.00 L 198.00 51.00" fill="none" stroke="#000000" stroke-width="0.50" />
  <path d="M 312.00 54.00 L 348.00 70.00 L 338.00 61.00" fill="none" stroke="#000000" stroke-width="0.50" />
  <path d="M 159.00 55.00 L 136.00 68.00 L 138.00 61.00" fill="none" stroke="#000000" stroke-width="0.50" />
  <path d="M 218.00 56.00 L 207.00 63.00 L 218.00 57.00" fill="none" stroke="#000000" stroke-width="0.50" />
  <path d="M 225.00 63.00 L 198.00 72.00" fill="none" stroke="#000000" stroke-width="0.50" />
  <path d="M 159.00 70.00 L 154.00 80.00 L 139.00 73.00" fill="none" stroke="#000000" stroke-width="0.50" />
  <path d="M 237.00 72.00 L 249.00 79.00 L 236.00 73.00 L 233.00 79.00 L 234.00 73.00" fill="none" stroke="#000000" stroke-width="0.50" />
  <path d="M 349.00 73.00 L 351.00 78.00 L 328.00 88.00 L 339.00 80.00" fill="none" stroke="#000000" stroke-width="0.50" />
  <path d="M 225.00 76.00 L 209.00 106.00 L 207.00 97.00 L 226.00 79.00 L 210.00 89.00" fill="none" stroke="#000000" stroke-width="0.50" />
  <path d="M 247.00 81.00 L 252.00 84.00 L 246.00 82.00 L 233.00 100.00 L 240.00 100.00 L 232.00 101.00 L 241.00 88.00" fill="none" stroke="#000000" stroke-width="0.50" />
  <path d="M 118.00 88.00 L 92.00 114.00" fill="none" stroke="#000000" stroke-width="0.50" />
  <path d="M 175.00 90.00 L 170.00 98.00 L 153.00 98.00 L 174.00 91.00" fill="none" stroke="#000000" stroke-width="0.50" />
  <path d="M 137.00 92.00 L 150.00 104.00 L 135.00 93.00 L 100.00 126.00 L 113.00 139.00 L 110.00 148.00 L 100.00 129.00 L 110.00 113.00" fill="none" stroke="#000000" stroke-width="0.50" />
  <path d="M 202.00 93.00 L 194.00 107.00 L 201.00 109.00 L 201.00 101.00 L 179.00 107.00 L 170.00 119.00 L 194.00 106.00 L 198.00 95.00" fill="none" stroke="#000000" stroke-width="0.50" />
  <path d="M 230.00 96.00 L 225.00 113.00 L 231.00 124.00 L 231.00 118.00 L 224.00 124.00 L 230.00 97.00" fill="none" stroke="#000000" stroke-width="0.50" />
  <path d="M 285.00 101.00 L 291.00 112.00 L 288.00 101.00 L 275.00 107.00 L 272.00 126.00 L 273.00 109.00" fill="none" stroke="#000000" stroke-width="0.50" />
  <path d="M 68.00 109.00 L 62.00 127.00 L 69.00 127.00 L 67.00 133.00 L 61.00 127.00 L 67.00 112.00" fill="none" stroke="#000000" stroke-width="0.50" />
  <path d="M 56.00 116.00 L 46.00 129.00 L 56.00 117.00" fill="none" stroke="#000000" stroke-width="0.50" />
  <path d="M 261.00 120.00 L 266.00 124.00 L 258.00 121.00 L 256.00 129.00 L 255.00 123.00" fill="none" stroke="#000000" stroke-width="0.50" />
  <path d="M 324.00 121.00 L 341.00 131.00 L 329.00 136.00 L 319.00 134.00 L 335.00 129.00 L 316.00 123.00" fill="none" stroke="#000000" stroke-width="0.50" />
  <path d="M 348.00 139.00 L 348.00 179.00 L 342.00 182.00 L 348.00 142.00" fill="none" stroke="#000000" stroke-width="0.50" />
  <path d="M 167.00 140.00 L 205.00 162.00 L 229.00 207.00 L 204.00 162.00 L 167.00 141.00" fill="none" stroke="#000000" stroke-width="0.50" />
  <path d="M 337.00 140.00 L 343.00 146.00 L 336.00 148.00 L 312.00 143.00" fill="none" stroke="#000000" stroke-width="0.50" />
  <path d="M 383.00 144.00 L 397.00 159.00 L 391.00 148.00" fill="none" stroke="#000000" stroke-width="0.50" />
  <path d="M 117.00 147.00 L 117.00 157.00 L 101.00 151.00 L 118.00 152.00" fill="none" stroke="#000000" stroke-width="0.50" />
  <path d="M 209.00 147.00 L 235.00 182.00 L 241.00 210.00 L 230.00 209.00 L 240.00 205.00 L 238.00 194.00 L 212.00 149.00" fill="none" stroke="#000000" stroke-width="0.50" />
  <path d="M 75.00 151.00 L 84.00 155.00 L 74.00 152.00 L 73.00 165.00 L 71.00 153.00" fill="none" stroke="#000000" stroke-width="0.50" />
  <path d="M 321.00 154.00 L 333.00 159.00 L 319.00 155.00" fill="none" stroke="#000000" stroke-width="0.50" />
  <path d="M 397.00 163.00 L 431.00 212.00 L 429.00 219.00 L 414.00 179.00 L 397.00 164.00" fill="none" stroke="#000000" stroke-width="0.50" />
  <path d="M 279.00 169.00 L 291.00 174.00 L 278.00 170.00 L 284.00 186.00 L 277.00 196.00 L 281.00 185.00 L 262.00 183.00 L 260.00 171.00 L 278.00 179.00 L 277.00 172.00" fill="none" stroke="#000000" stroke-width="0.50" />
  <path d="M 312.00 173.00 L 324.00 179.00 L 321.00 185.00 L 323.00 179.00 L 312.00 174.00" fill="none" stroke="#000000" stroke-width="0.50" />
  <path d="M 194.00 174.00 L 209.00 197.00 L 201.00 202.00 L 208.00 197.00 L 196.00 177.00" fill="none" stroke="#000000" stroke-width="0.50" />
  <path d="M 296.00 194.00 L 299.00 199.00 L 285.00 209.00 L 291.00 200.00" fill="none" stroke="#000000" stroke-width="0.50" />
  <path d="M 137.00 196.00 L 135.00 211.00 L 155.00 236.00 L 172.00 244.00 L 193.00 236.00 L 205.00 214.00 L 193.00 234.00 L 176.00 243.00 L 152.00 233.00 L 137.00 216.00 L 136.00 197.00" fill="none" stroke="#000000" stroke-width="0.50" />
  <path d="M 124.00 202.00 L 131.00 229.00 L 137.00 223.00 L 151.00 247.00 L 132.00 218.00 L 130.00 228.00 L 124.00 203.00" fill="none" stroke="#000000" stroke-width="0.50" />
  <path d="M 340.00 204.00 L 333.00 235.00 L 339.00 205.00" fill="none" stroke="#000000" stroke-width="0.50" />
  <path d="M 307.00 205.00 L 310.00 220.00 L 314.00 213.00 L 303.00 213.00 L 308.00 205.00" fill="none" stroke="#000000" stroke-width="0.50" />
  <path d="M 348.00 207.00 L 342.00 229.00 L 347.00 208.00" fill="none" stroke="#000000" stroke-width="0.50" />
  <path d="M 75.00 208.00 L 91.00 231.00 L 78.00 210.00" fill="none" stroke="#000000" stroke-width="0.50" />
  <path d="M 322.00 217.00 L 332.00 218.00 L 324.00 218.00 L 327.00 228.00 L 322.00 218.00" fill="none" stroke="#000000" stroke-width="0.50" />
  <path d="M 289.00 226.00 L 298.00 229.00 L 288.00 231.00 L 291.00 240.00 L 283.00 228.00 L 290.00 226.00" fill="none" stroke="#000000" stroke-width="0.50" />
  <path d="M 420.00 230.00 L 420.00 246.00 L 390.00 258.00 L 420.00 244.00 L 421.00 235.00" fill="none" stroke="#000000" stroke-width="0.50" />
  <path d="M 466.00 252.00 L 479.00 264.00 L 466.00 255.00" fill="none" stroke="#000000" stroke-width="0.50" />
  <path d="M 429.00 256.00 L 440.00 269.00 L 430.00 259.00" fill="none" stroke="#000000" stroke-width="0.50" />
  <path d="M 520.00 259.00 L 550.00 294.00 L 520.00 261.00" fill="none" stroke="#000000" stroke-width="0.50" />
  <path d="M 345.00 270.00 L 356.00 285.00 L 345.00 271.00" fill="none" stroke="#000000" stroke-width="0.50" />
  <path d="M 358.00 273.00 L 381.00 281.00 L 358.00 274.00" fill="none" stroke="#000000" stroke-width="0.50" />
  <path d="M 85.00 277.00 L 61.00 305.00 L 52.00 309.00 L 76.00 283.00" fill="none" stroke="#000000" stroke-width="0.50" />
  <path d="M 386.00 288.00 L 336.00 300.00 L 310.00 316.00" fill="none" stroke="#000000" stroke-width="0.50" />
  <path d="M 140.00 290.00 L 165.00 294.00 L 193.00 318.00 L 201.00 312.00 L 232.00 328.00 L 193.00 317.00 L 156.00 292.00 L 142.00 293.00" fill="none" stroke="#000000" stroke-width="0.50" />
  <path d="M 130.00 293.00 L 139.00 296.00 L 117.00 300.00" fill="none" stroke="#000000" stroke-width="0.50" />
  <path d="M 220.00 293.00 L 237.00 303.00 L 220.00 294.00 L 204.00 299.00" fill="none" stroke="#000000" stroke-width="0.50" />
  <path d="M 232.00 295.00 L 249.00 308.00 L 230.00 297.00" fill="none" stroke="#000000" stroke-width="0.50" />
  <path d="M 264.00 295.00 L 271.00 301.00 L 257.00 296.00 L 250.00 304.00" fill="none" stroke="#000000" stroke-width="0.50" />
  <path d="M 443.00 298.00 L 448.00 302.00 L 441.00 309.00 L 450.00 313.00 L 479.00 314.00 L 482.00 304.00 L 481.00 322.00 L 476.00 313.00 L 440.00 309.00 L 396.00 319.00 L 382.00 312.00 L 442.00 304.00" fill="none" stroke="#000000" stroke-width="0.50" />
  <path d="M 536.00 303.00 L 541.00 310.00 L 539.00 304.00 L 525.00 313.00" fill="none" stroke="#000000" stroke-width="0.50" />
  <path d="M 197.00 306.00 L 210.00 315.00 L 203.00 307.00" fill="none" stroke="#000000" stroke-width="0.50" />
  <path d="M 47.00 313.00 L 62.00 313.00 L 42.00 317.00" fill="none" stroke="#000000" stroke-width="0.50" />
  <path d="M 274.00 315.00 L 279.00 331.00 L 269.00 325.00 L 272.00 317.00" fill="none" stroke="#000000" stroke-width="0.50" />
  <path d="M 439.00 317.00 L 469.00 352.00 L 442.00 322.00" fill="none" stroke="#000000" stroke-width="0.50" />
  <path d="M 220.00 318.00 L 251.00 336.00 L 221.00 318.00" fill="none" stroke="#000000" stroke-width="0.50" />
  <path d="M 311.00 321.00 L 311.00 334.00 L 311.00 323.00 L 304.00 327.00" fill="none" stroke="#000000" stroke-width="0.50" />
  <path d="M 480.00 324.00 L 515.00 337.00 L 481.00 324.00" fill="none" stroke="#000000" stroke-width="0.50" />
  <path d="M 178.00 326.00 L 139.00 341.00" fill="none" stroke="#000000" stroke-width="0.50" />
  <path d="M 261.00 331.00 L 274.00 342.00 L 267.00 332.00" fill="none" stroke="#000000" stroke-width="0.50" />
  <path d="M 276.00 334.00 L 288.00 337.00 L 274.00 335.00" fill="none" stroke="#000000" stroke-width="0.50" />
  <path d="M 518.00 338.00 L 525.00 339.00 L 519.00 351.00 L 513.00 351.00 L 516.00 340.00" fill="none" stroke="#000000" stroke-width="0.50" />
  <path d="M 523.00 345.00 L 532.00 350.00 L 534.00 345.00 L 522.00 346.00 L 523.00 356.00 L 512.00 360.00 L 521.00 347.00" fill="none" stroke="#000000" stroke-width="0.50" />
  <path d="M 287.00 351.00 L 294.00 359.00 L 305.00 352.00 L 313.00 360.00 L 306.00 352.00 L 294.00 360.00 L 289.00 352.00 L 281.00 354.00" fill="none" stroke="#000000" stroke-width="0.50" />
  <path d="M 270.00 355.00 L 284.00 366.00 L 271.00 355.00" fill="none" stroke="#000000" stroke-width="0.50" />
  <path d="M 313.00 362.00 L 318.00 369.00 L 314.00 373.00 L 312.00 363.00" fill="none" stroke="#000000" stroke-width="0.50" />
  <path d="M 212.00 5.00 L 145.00 21.00 L 132.00 7.00 L 116.00 7.00" fill="none" stroke="#000000" stroke-width="0.50" />
  <path d="M 262.00 20.00 L 299.00 33.00 L 318.00 58.00 L 342.00 63.00 L 282.00 27.00" fill="none" stroke="#000000" stroke-width="0.50" />
  <path d="M 109.00 23.00 L 128.00 76.00 L 109.00 25.00" fill="none" stroke="#000000" stroke-width="0.50" />
  <path d="M 144.00 30.00 L 166.00 31.00 L 134.00 42.00 L 145.00 30.00" fill="none" stroke="#000000" stroke-width="0.50" />
  <path d="M 192.00 39.00 L 210.00 41.00 L 191.00 40.00" fill="none" stroke="#000000" stroke-width="0.50" />
  <path d="M 193.00 53.00 L 193.00 60.00 L 177.00 62.00 L 190.00 54.00" fill="none" stroke="#000000" stroke-width="0.50" />
  <path d="M 193.00 68.00 L 177.00 98.00 L 182.00 106.00 L 177.00 86.00 L 186.00 71.00" fill="none" stroke="#000000" stroke-width="0.50" />
  <path d="M 225.00 76.00 L 208.00 108.00 L 224.00 77.00 L 206.00 92.00 L 220.00 77.00" fill="none" stroke="#000000" stroke-width="0.50" />
  <path d="M 203.00 78.00 L 200.00 89.00 L 202.00 79.00 L 190.00 87.00" fill="none" stroke="#000000" stroke-width="0.50" />
  <path d="M 138.00 80.00 L 149.00 94.00 L 138.00 81.00" fill="none" stroke="#000000" stroke-width="0.50" />
  <path d="M 175.00 90.00 L 165.00 105.00 L 153.00 98.00" fill="none" stroke="#000000" stroke-width="0.50" />
  <path d="M 251.00 92.00 L 240.00 109.00 L 249.00 93.00" fill="none" stroke="#000000" stroke-width="0.50" />
  <path d="M 139.00 93.00 L 150.00 105.00 L 139.00 95.00" fill="none" stroke="#000000" stroke-width="0.50" />
  <path d="M 202.00 93.00 L 193.00 109.00 L 176.00 108.00 L 198.00 95.00" fill="none" stroke="#000000" stroke-width="0.50" />
  <path d="M 232.00 96.00 L 226.00 117.00 L 230.00 97.00" fill="none" stroke="#000000" stroke-width="0.50" />
  <path d="M 214.00 99.00 L 208.00 121.00 L 234.00 127.00 L 240.00 141.00 L 235.00 126.00 L 207.00 120.00 L 213.00 100.00" fill="none" stroke="#000000" stroke-width="0.50" />
  <path d="M 323.00 103.00 L 334.00 126.00 L 322.00 107.00" fill="none" stroke="#000000" stroke-width="0.50" />
  <path d="M 156.00 113.00 L 162.00 122.00 L 168.00 115.00 L 162.00 123.00 L 157.00 116.00" fill="none" stroke="#000000" stroke-width="0.50" />
  <path d="M 74.00 116.00 L 78.00 129.00 L 85.00 122.00 L 79.00 133.00 L 69.00 133.00 L 80.00 126.00 L 75.00 116.00" fill="none" stroke="#000000" stroke-width="0.50" />
  <path d="M 324.00 121.00 L 337.00 130.00 L 316.00 123.00" fill="none" stroke="#000000" stroke-width="0.50" />
  <path d="M 281.00 124.00 L 293.00 157.00 L 279.00 127.00" fill="none" stroke="#000000" stroke-width="0.50" />
  <path d="M 85.00 127.00 L 83.00 148.00 L 84.00 129.00" fill="none" stroke="#000000" stroke-width="0.50" />
  <path d="M 128.00 136.00 L 153.00 140.00 L 123.00 138.00" fill="none" stroke="#000000" stroke-width="0.50" />
  <path d="M 240.00 143.00 L 259.00 169.00 L 256.00 152.00 L 245.00 154.00 L 241.00 143.00" fill="none" stroke="#000000" stroke-width="0.50" />
  <path d="M 120.00 160.00 L 113.00 196.00 L 117.00 161.00" fill="none" stroke="#000000" stroke-width="0.50" />
  <path d="M 349.00 160.00 L 348.00 179.00 L 348.00 162.00" fill="none" stroke="#000000" stroke-width="0.50" />
  <path d="M 289.00 163.00 L 290.00 177.00 L 279.00 169.00 L 290.00 163.00" fill="none" stroke="#000000" stroke-width="0.50" />
  <path d="M 166.00 165.00 L 198.00 173.00 L 162.00 166.00 L 139.00 182.00" fill="none" stroke="#000000" stroke-width="0.50" />
  <path d="M 263.00 170.00 L 264.00 186.00 L 260.00 171.00" fill="none" stroke="#000000" stroke-width="0.50" />
  <path d="M 278.00 171.00 L 277.00 196.00 L 286.00 188.00 L 282.00 179.00 L 279.00 187.00 L 265.00 183.00 L 277.00 172.00" fill="none" stroke="#000000" stroke-width="0.50" />
  <path d="M 209.00 180.00 L 220.00 204.00 L 209.00 181.00" fill="none" stroke="#000000" stroke-width="0.50" />
  <path d="M 75.00 188.00 L 99.00 226.00 L 75.00 189.00" fill="none" stroke="#000000" stroke-width="0.50" />
  <path d="M 137.00 196.00 L 141.00 216.00 L 135.00 199.00" fill="none" stroke="#000000" stroke-width="0.50" />
  <path d="M 308.00 209.00 L 310.00 220.00 L 314.00 213.00 L 304.00 212.00 L 307.00 219.00 L 303.00 212.00" fill="none" stroke="#000000" stroke-width="0.50" />
  <path d="M 114.00 212.00 L 131.00 245.00 L 169.00 267.00 L 208.00 258.00 L 224.00 228.00 L 220.00 213.00 L 221.00 237.00 L 208.00 256.00 L 141.00 254.00 L 114.00 214.00" fill="none" stroke="#000000" stroke-width="0.50" />
  <path d="M 234.00 213.00 L 227.00 248.00 L 234.00 217.00" fill="none" stroke="#000000" stroke-width="0.50" />
  <path d="M 145.00 214.00 L 153.00 234.00 L 172.00 244.00 L 200.00 227.00 L 205.00 214.00 L 193.00 234.00 L 152.00 233.00 L 142.00 218.00" fill="none" stroke="#000000" stroke-width="0.50" />
  <path d="M 280.00 214.00 L 291.00 239.00 L 284.00 231.00 L 298.00 229.00 L 280.00 215.00" fill="none" stroke="#000000" stroke-width="0.50" />
  <path d="M 98.00 229.00 L 108.00 252.00 L 99.00 229.00" fill="none" stroke="#000000" stroke-width="0.50" />
  <path d="M 488.00 240.00 L 496.00 254.00 L 488.00 241.00" fill="none" stroke="#000000" stroke-width="0.50" />
  <path d="M 289.00 257.00 L 293.00 264.00 L 284.00 259.00 L 287.00 270.00 L 284.00 262.00" fill="none" stroke="#000000" stroke-width="0.50" />
  <path d="M 513.00 271.00 L 497.00 280.00 L 466.00 274.00 L 502.00 274.00" fill="none" stroke="#000000" stroke-width="0.50" />
  <path d="M 542.00 286.00 L 538.00 296.00 L 523.00 291.00 L 533.00 296.00" fill="none" stroke="#000000" stroke-width="0.50" />
  <path d="M 442.00 288.00 L 449.00 302.00 L 432.00 315.00 L 394.00 319.00 L 383.00 311.00 L 441.00 306.00 L 438.00 292.00" fill="none" stroke="#000000" stroke-width="0.50" />
  <path d="M 144.00 290.00 L 167.00 296.00 L 138.00 294.00" fill="none" stroke="#000000" stroke-width="0.50" />
  <path d="M 220.00 293.00 L 237.00 303.00 L 219.00 294.00 L 204.00 299.00 L 218.00 294.00" fill="none" stroke="#000000" stroke-width="0.50" />
  <path d="M 165.00 298.00 L 216.00 326.00 L 170.00 299.00" fill="none" stroke="#000000" stroke-width="0.50" />
  <path d="M 507.00 302.00 L 514.00 307.00 L 491.00 310.00 L 494.00 322.00 L 485.00 318.00 L 489.00 307.00" fill="none" stroke="#000000" stroke-width="0.50" />
  <path d="M 145.00 304.00 L 166.00 305.00 L 142.00 308.00" fill="none" stroke="#000000" stroke-width="0.50" />
  <path d="M 253.00 309.00 L 283.00 339.00 L 273.00 335.00 L 276.00 319.00 L 272.00 333.00 L 249.00 311.00" fill="none" stroke="#000000" stroke-width="0.50" />
  <path d="M 444.00 310.00 L 477.00 312.00 L 444.00 311.00" fill="none" stroke="#000000" stroke-width="0.50" />
  <path d="M 261.00 331.00 L 279.00 345.00 L 264.00 332.00" fill="none" stroke="#000000" stroke-width="0.50" />
  <path d="M 560.00 335.00 L 559.00 347.00 L 566.00 345.00 L 558.00 348.00 L 558.00 340.00" fill="none" stroke="#000000" stroke-width="0.50" />
  <path d="M 256.00 347.00 L 279.00 373.00 L 258.00 348.00" fill="none" stroke="#000000" stroke-width="0.50" />
  <path d="M 567.00 357.00 L 557.00 373.00 L 563.00 359.00" fill="none" stroke="#000000" stroke-width="0.50" />
  <path d="M 100.00 14.00 L 76.00 51.00 L 91.00 20.00" fill="none" stroke="#000000" stroke-width="0.50" />
  <path d="M 219.00 48.00 L 225.00 61.00 L 204.00 57.00 L 215.00 51.00" fill="none" stroke="#000000" stroke-width="0.50" />
  <path d="M 218.00 57.00 L 195.00 76.00 L 202.00 61.00" fill="none" stroke="#000000" stroke-width="0.50" />
  <path d="M 201.00 79.00 L 191.00 97.00 L 203.00 79.00 L 190.00 87.00" fill="none" stroke="#000000" stroke-width="0.50" />
  <path d="M 339.00 97.00 L 348.00 117.00 L 339.00 101.00" fill="none" stroke="#000000" stroke-width="0.50" />
  <path d="M 286.00 98.00 L 290.00 120.00 L 285.00 101.00 L 272.00 126.00 L 264.00 115.00 L 257.00 123.00 L 264.00 137.00 L 254.00 132.00 L 254.00 141.00 L 249.00 123.00 L 271.00 113.00" fill="none" stroke="#000000" stroke-width="0.50" />
  <path d="M 206.00 112.00 L 240.00 139.00 L 206.00 115.00" fill="none" stroke="#000000" stroke-width="0.50" />
  <path d="M 243.00 139.00 L 259.00 169.00 L 240.00 143.00 L 269.00 157.00 L 252.00 154.00 L 254.00 144.00 L 249.00 154.00 L 243.00 141.00" fill="none" stroke="#000000" stroke-width="0.50" />
  <path d="M 166.00 165.00 L 197.00 172.00 L 153.00 170.00" fill="none" stroke="#000000" stroke-width="0.50" />
  <path d="M 276.00 171.00 L 281.00 191.00 L 265.00 183.00 L 277.00 174.00" fill="none" stroke="#000000" stroke-width="0.50" />
  <path d="M 201.00 177.00 L 214.00 200.00 L 202.00 243.00 L 214.00 206.00 L 202.00 177.00" fill="none" stroke="#000000" stroke-width="0.50" />
  <path d="M 354.00 177.00 L 347.00 202.00 L 349.00 184.00" fill="none" stroke="#000000" stroke-width="0.50" />
  <path d="M 191.00 179.00 L 205.00 197.00 L 192.00 179.00" fill="none" stroke="#000000" stroke-width="0.50" />
  <path d="M 221.00 213.00 L 221.00 240.00 L 204.00 260.00 L 220.00 240.00 L 221.00 214.00" fill="none" stroke="#000000" stroke-width="0.50" />
  <path d="M 208.00 219.00 L 197.00 243.00 L 208.00 224.00" fill="none" stroke="#000000" stroke-width="0.50" />
  <path d="M 398.00 226.00 L 362.00 241.00" fill="none" stroke="#000000" stroke-width="0.50" />
  <path d="M 341.00 244.00 L 354.00 280.00 L 340.00 246.00" fill="none" stroke="#000000" stroke-width="0.50" />
  <path d="M 99.00 270.00 L 88.00 297.00 L 98.00 271.00" fill="none" stroke="#000000" stroke-width="0.50" />
  <path d="M 514.00 276.00 L 520.00 288.00 L 531.00 281.00 L 519.00 288.00 L 515.00 276.00" fill="none" stroke="#000000" stroke-width="0.50" />
  <path d="M 117.00 282.00 L 138.00 284.00 L 90.00 294.00" fill="none" stroke="#000000" stroke-width="0.50" />
  <path d="M 527.00 288.00 L 538.00 296.00 L 545.00 288.00 L 524.00 291.00" fill="none" stroke="#000000" stroke-width="0.50" />
  <path d="M 235.00 296.00 L 278.00 339.00 L 275.00 315.00 L 272.00 333.00 L 240.00 297.00" fill="none" stroke="#000000" stroke-width="0.50" />
  <path d="M 445.00 300.00 L 432.00 315.00 L 382.00 312.00 L 442.00 301.00" fill="none" stroke="#000000" stroke-width="0.50" />
  <path d="M 509.00 303.00 L 524.00 315.00 L 500.00 308.00" fill="none" stroke="#000000" stroke-width="0.50" />
  <path d="M 496.00 306.00 L 494.00 322.00 L 495.00 307.00 L 484.00 318.00 L 498.00 306.00" fill="none" stroke="#000000" stroke-width="0.50" />
  <path d="M 197.00 311.00 L 230.00 330.00 L 198.00 311.00" fill="none" stroke="#000000" stroke-width="0.50" />
  <path d="M 315.00 326.00 L 356.00 342.00 L 378.00 373.00 L 347.00 336.00" fill="none" stroke="#000000" stroke-width="0.50" />
  <path d="M 252.00 338.00 L 274.00 354.00 L 253.00 338.00" fill="none" stroke="#000000" stroke-width="0.50" />
  <path d="M 55.00 346.00 L 35.00 373.00 L 40.00 349.00 L 53.00 348.00" fill="none" stroke="#000000" stroke-width="0.50" />
  <path d="M 349.00 74.00 L 344.00 105.00 L 351.00 77.00 L 324.00 89.00 L 339.00 79.00" fill="none" stroke="#000000" stroke-width="0.50" />
  <path d="M 232.00 96.00 L 229.00 127.00 L 239.00 103.00 L 225.00 126.00 L 230.00 97.00" fill="none" stroke="#000000" stroke-width="0.50" />
  <path d="M 297.00 154.00 L 316.00 174.00 L 340.00 169.00 L 315.00 171.00 L 296.00 157.00" fill="none" stroke="#000000" stroke-width="0.50" />
  <path d="M 102.00 201.00 L 136.00 264.00 L 102.00 203.00" fill="none" stroke="#000000" stroke-width="0.50" />
  <path d="M 202.00 205.00 L 200.00 227.00 L 177.00 244.00 L 142.00 218.00 L 193.00 234.00 L 203.00 205.00" fill="none" stroke="#000000" stroke-width="0.50" />
  <path d="M 543.00 286.00 L 538.00 297.00 L 524.00 290.00 L 544.00 286.00" fill="none" stroke="#000000" stroke-width="0.50" />
  <path d="M 358.00 295.00 L 310.00 316.00" fill="none" stroke="#000000" stroke-width="0.50" />
  <path d="M 164.00 297.00 L 186.00 311.00 L 164.00 298.00" fill="none" stroke="#000000" stroke-width="0.50" />
  <path d="M 496.00 306.00 L 494.00 322.00 L 484.00 318.00 L 490.00 307.00" fill="none" stroke="#000000" stroke-width="0.50" />
  <path d="M 315.00 326.00 L 356.00 342.00 L 378.00 373.00 L 330.00 327.00" fill="none" stroke="#000000" stroke-width="0.50" />
  <path d="M 216.00 38.00 L 188.00 40.00 L 209.00 43.00" fill="none" stroke="#000000" stroke-width="0.50" />
  <path d="M 250.00 97.00 L 244.00 123.00 L 252.00 101.00" fill="none" stroke="#000000" stroke-width="0.50" />
  <path d="M 206.00 112.00 L 230.00 131.00 L 206.00 115.00" fill="none" stroke="#000000" stroke-width="0.50" />
  <path d="M 320.00 114.00 L 317.00 124.00 L 337.00 130.00 L 315.00 116.00" fill="none" stroke="#000000" stroke-width="0.50" />
  <path d="M 263.00 170.00 L 265.00 196.00 L 260.00 171.00" fill="none" stroke="#000000" stroke-width="0.50" />
  <path d="M 246.00 201.00 L 240.00 232.00 L 247.00 201.00" fill="none" stroke="#000000" stroke-width="0.50" />
  <path d="M 289.00 204.00 L 287.00 221.00 L 269.00 214.00 L 286.00 218.00 L 285.00 207.00" fill="none" stroke="#000000" stroke-width="0.50" />
  <path d="M 263.00 295.00 L 271.00 306.00 L 258.00 296.00 L 259.00 314.00 L 249.00 303.00" fill="none" stroke="#000000" stroke-width="0.50" />
  <path d="M 255.00 326.00 L 286.00 344.00 L 255.00 328.00" fill="none" stroke="#000000" stroke-width="0.50" />
  <path d="M 551.00 340.00 L 532.00 360.00 L 541.00 363.00 L 532.00 362.00 L 540.00 348.00" fill="none" stroke="#000000" stroke-width="0.50" />
  <path d="M 162.00 23.00 L 184.00 27.00 L 164.00 27.00" fill="none" stroke="#000000" stroke-width="0.50" />
  <path d="M 297.00 154.00 L 317.00 175.00 L 296.00 157.00" fill="none" stroke="#000000" stroke-width="0.50" />
  <path d="M 103.00 209.00 L 132.00 261.00 L 104.00 209.00" fill="none" stroke="#000000" stroke-width="0.50" />
  <path d="M 536.00 303.00 L 523.00 315.00 L 511.00 308.00 L 538.00 304.00" fill="none" stroke="#000000" stroke-width="0.50" />
  <path d="M 251.00 92.00 L 251.00 108.00 L 243.00 99.00 L 238.00 110.00 L 249.00 93.00" fill="none" stroke="#000000" stroke-width="0.50" />
  <path d="M 341.00 255.00 L 358.00 265.00 L 347.00 263.00 L 354.00 280.00 L 342.00 255.00" fill="none" stroke="#000000" stroke-width="0.50" />
  <path d="M 503.00 273.00 L 468.00 275.00 L 502.00 274.00" fill="none" stroke="#000000" stroke-width="0.50" />
  <path d="M 84.00 120.00 L 81.00 146.00 L 81.00 126.00 L 70.00 132.00 L 84.00 122.00" fill="none" stroke="#000000" stroke-width="0.50" />
  <path d="M 313.00 159.00 L 340.00 169.00 L 318.00 173.00 L 326.00 167.00 L 311.00 160.00" fill="none" stroke="#000000" stroke-width="0.50" />
  <path d="M 103.00 178.00 L 109.00 228.00 L 136.00 264.00 L 109.00 229.00 L 102.00 181.00" fill="none" stroke="#000000" stroke-width="0.50" />
  <path d="M 134.00 207.00 L 171.00 244.00 L 205.00 216.00 L 177.00 243.00 L 134.00 208.00" fill="none" stroke="#000000" stroke-width="0.50" />
  <path d="M 525.00 321.00 L 529.00 338.00 L 550.00 329.00 L 534.00 343.00 L 526.00 331.00" fill="none" stroke="#000000" stroke-width="0.50" />
  <path d="M 180.00 57.00 L 161.00 68.00 L 165.00 73.00 L 156.00 83.00 L 165.00 70.00 L 159.00 66.00" fill="none" stroke="#000000" stroke-width="0.42" />
  <path d="M 323.00 102.00 L 333.00 125.00 L 327.00 112.00 L 319.00 115.00 L 323.00 103.00 L 316.00 113.00" fill="none" stroke="#000000" stroke-width="0.42" />
  <path d="M 482.00 304.00 L 481.00 323.00 L 476.00 313.00" fill="none" stroke="#000000" stroke-width="0.42" />
  <path d="M 214.00 308.00 L 250.00 335.00 L 211.00 311.00" fill="none" stroke="#000000" stroke-width="0.42" />
  <path d="M 251.00 337.00 L 282.00 365.00 L 254.00 339.00" fill="none" stroke="#000000" stroke-width="0.42" />
  <path d="M 56.00 346.00 L 60.00 352.00 L 47.00 352.00 L 55.00 347.00" fill="none" stroke="#000000" stroke-width="0.42" />
  <path d="M 565.00 359.00 L 557.00 373.00 L 545.00 373.00 L 558.00 368.00" fill="none" stroke="#000000" stroke-width="0.42" />
  <path d="M 198.00 51.00 L 195.00 64.00 L 178.00 62.00 L 199.00 51.00" fill="none" stroke="#000000" stroke-width="0.42" />
  <path d="M 286.00 70.00 L 285.00 90.00 L 287.00 72.00" fill="none" stroke="#000000" stroke-width="0.42" />
  <path d="M 351.00 80.00 L 344.00 97.00 L 350.00 81.00" fill="none" stroke="#000000" stroke-width="0.42" />
  <path d="M 126.00 81.00 L 91.00 113.00" fill="none" stroke="#000000" stroke-width="0.42" />
  <path d="M 247.00 81.00 L 234.00 98.00 L 242.00 83.00" fill="none" stroke="#000000" stroke-width="0.42" />
  <path d="M 77.00 108.00 L 78.00 129.00 L 71.00 131.00 L 78.00 112.00" fill="none" stroke="#000000" stroke-width="0.42" />
  <path d="M 207.00 115.00 L 223.00 127.00 L 207.00 120.00" fill="none" stroke="#000000" stroke-width="0.42" />
  <path d="M 235.00 126.00 L 244.00 152.00 L 261.00 169.00 L 235.00 131.00 L 223.00 129.00" fill="none" stroke="#000000" stroke-width="0.42" />
  <path d="M 355.00 131.00 L 387.00 145.00 L 398.00 159.00 L 391.00 148.00 L 357.00 132.00" fill="none" stroke="#000000" stroke-width="0.42" />
  <path d="M 318.00 133.00 L 337.00 133.00 L 336.00 143.00 L 338.00 136.00 L 320.00 133.00" fill="none" stroke="#000000" stroke-width="0.42" />
  <path d="M 105.00 168.00 L 103.00 198.00 L 104.00 172.00" fill="none" stroke="#000000" stroke-width="0.42" />
  <path d="M 292.00 168.00 L 290.00 176.00 L 279.00 169.00 L 279.00 180.00 L 277.00 169.00" fill="none" stroke="#000000" stroke-width="0.42" />
  <path d="M 200.00 169.00 L 213.00 180.00 L 224.00 228.00 L 216.00 249.00 L 193.00 265.00 L 169.00 267.00 L 140.00 254.00 L 112.00 204.00 L 113.00 198.00 L 218.00 244.00 L 222.00 214.00 L 200.00 170.00" fill="none" stroke="#000000" stroke-width="0.42" />
  <path d="M 137.00 226.00 L 151.00 247.00 L 137.00 230.00" fill="none" stroke="#000000" stroke-width="0.42" />
  <path d="M 92.00 233.00 L 83.00 239.00 L 85.00 257.00 L 83.00 238.00" fill="none" stroke="#000000" stroke-width="0.42" />
  <path d="M 518.00 252.00 L 550.00 294.00 L 544.00 287.00 L 527.00 307.00 L 536.00 297.00 L 524.00 289.00 L 547.00 284.00 L 527.00 262.00 L 521.00 264.00 L 519.00 252.00" fill="none" stroke="#000000" stroke-width="0.42" />
  <path d="M 184.00 272.00 L 191.00 280.00 L 199.00 273.00 L 190.00 280.00 L 185.00 272.00 L 180.00 279.00" fill="none" stroke="#000000" stroke-width="0.42" />
  <path d="M 482.00 304.00 L 477.00 319.00 L 483.00 327.00 L 524.00 337.00 L 481.00 326.00 L 476.00 313.00 L 482.00 307.00" fill="none" stroke="#000000" stroke-width="0.42" />
  <path d="M 441.00 306.00 L 469.00 313.00 L 440.00 310.00 L 396.00 319.00 L 385.00 310.00 L 380.00 314.00" fill="none" stroke="#000000" stroke-width="0.42" />
  <path d="M 202.00 313.00 L 230.00 328.00" fill="none" stroke="#000000" stroke-width="0.42" />
  <path d="M 311.00 318.00 L 305.00 326.00 L 311.00 334.00 L 311.00 326.00 L 304.00 327.00 L 311.00 319.00" fill="none" stroke="#000000" stroke-width="0.42" />
  <path d="M 272.00 347.00 L 286.00 362.00 L 286.00 353.00 L 276.00 354.00" fill="none" stroke="#000000" stroke-width="0.42" />
  <path d="M 539.00 349.00 L 540.00 355.00 L 554.00 351.00 L 534.00 358.00 L 538.00 369.00 L 532.00 373.00 L 539.00 350.00" fill="none" stroke="#000000" stroke-width="0.42" />
  <path d="M 74.00 355.00 L 60.00 368.00 L 68.00 372.00 L 59.00 372.00 L 62.00 365.00" fill="none" stroke="#000000" stroke-width="0.42" />
</svg>