<svg width="800" height="623" viewBox="0 0 800 623" xmlns="http://www.w3.org/2000/svg" shape-rendering="geometricPrecision">
  <path d="M 568.0,248.0 L 562.0,254.0 L 562.0,256.0 L 567.0,276.0 L 573.0,287.0 L 595.0,271.0 L 594.0,259.0 L 591.0,255.0 L 576.0,249.0 L 568.0,248.0 Z" fill="#6b6256" />
  <path d="M 338.0,148.0 L 340.0,149.0 L 343.0,160.0 L 351.0,174.0 L 349.0,180.0 L 331.0,178.0 L 323.0,181.0 L 313.0,181.0 L 312.0,174.0 L 315.0,168.0 L 318.0,154.0 L 337.0,149.0 Z" fill="#959586" />
  <path d="M 197.0,122.0 L 183.0,142.0 L 182.0,147.0 L 184.0,154.0 L 187.0,157.0 L 200.0,162.0 L 221.0,143.0 L 221.0,140.0 L 219.0,130.0 L 217.0,127.0 L 197.0,122.0 Z" fill="#726e76" />
  <path d="M 83.0,216.0 L 62.0,230.0 L 61.0,236.0 L 66.0,251.0 L 84.0,258.0 L 106.0,236.0 L 102.0,225.0 L 84.0,217.0 Z" fill="#151320" />
  <path d="M 154.0,314.0 L 170.0,319.0 L 177.0,322.0 L 178.0,324.0 L 179.0,323.0 L 179.0,327.0 L 177.0,329.0 L 179.0,334.0 L 173.0,340.0 L 172.0,343.0 L 167.0,346.0 L 157.0,356.0 L 138.0,347.0 L 135.0,332.0 L 153.0,315.0 Z" fill="#eee7ce" />
  <path d="M 126.0,284.0 L 153.0,297.0 L 154.0,313.0 L 135.0,331.0 L 112.0,319.0 L 112.0,315.0 L 115.0,308.0 L 117.0,308.0 L 120.0,304.0 L 116.0,301.0 L 122.0,293.0 L 125.0,286.0 L 117.0,304.0 L 126.0,284.0 Z" fill="#fbfaf9" />
  <path d="M 0.0,34.0 L 0.0,66.0 L 24.0,68.0 L 33.0,55.0 L 26.0,39.0 L 8.0,37.0 L 0.0,34.0 Z" fill="#151016" />
  <path d="M 519.0,304.0 L 530.0,304.0 L 534.0,321.0 L 518.0,337.0 L 494.0,328.0 L 491.0,316.0 L 491.0,311.0 L 494.0,305.0 L 518.0,305.0 Z" fill="#857b65" />
  <path d="M 485.0,244.0 L 493.0,246.0 L 505.0,252.0 L 505.0,270.0 L 494.0,282.0 L 489.0,286.0 L 475.0,279.0 L 470.0,277.0 L 469.0,278.0 L 467.0,274.0 L 466.0,265.0 L 484.0,245.0 Z" fill="#6e6358" />
  <path d="M 184.0,372.0 L 198.0,372.0 L 198.0,376.0 L 201.0,381.0 L 200.0,386.0 L 202.0,387.0 L 198.0,390.0 L 197.0,396.0 L 174.0,403.0 L 166.0,402.0 L 161.0,375.0 L 168.0,373.0 L 183.0,373.0 Z" fill="#a79c75" />
  <path d="M 118.0,389.0 L 121.0,390.0 L 126.0,408.0 L 126.0,412.0 L 122.0,421.0 L 110.0,423.0 L 97.0,422.0 L 90.0,424.0 L 86.0,420.0 L 87.0,418.0 L 84.0,416.0 L 85.0,413.0 L 79.0,409.0 L 83.0,406.0 L 82.0,404.0 L 80.0,402.0 L 77.0,404.0 L 82.0,400.0 L 101.0,396.0 L 114.0,390.0 L 117.0,390.0 L 80.0,412.0 L 84.0,417.0 L 84.0,422.0 L 86.0,422.0 L 84.0,423.0 L 118.0,389.0 Z" fill="#c8ae99" />
  <path d="M 101.0,180.0 L 82.0,198.0 L 84.0,216.0 L 103.0,225.0 L 119.0,203.0 L 120.0,197.0 L 118.0,189.0 L 102.0,181.0 Z" fill="#161323" />
  <path d="M 673.0,0.0 L 705.0,0.0 L 705.0,9.0 L 683.0,18.0 L 680.0,18.0 L 673.0,1.0 L 680.0,19.0 L 673.0,0.0 Z" fill="#121021" />
  <path d="M 74.0,34.0 L 77.0,34.0 L 106.0,50.0 L 108.0,58.0 L 87.0,77.0 L 67.0,70.0 L 62.0,55.0 L 70.0,37.0 L 73.0,35.0 Z" fill="#13101b" />
  <path d="M 221.0,144.0 L 243.0,155.0 L 246.0,164.0 L 246.0,167.0 L 229.0,185.0 L 225.0,189.0 L 206.0,179.0 L 204.0,177.0 L 200.0,165.0 L 200.0,163.0 L 220.0,145.0 Z" fill="#e3d5c0" />
  <path d="M 651.0,223.0 L 669.0,230.0 L 674.0,243.0 L 674.0,247.0 L 662.0,260.0 L 655.0,266.0 L 636.0,258.0 L 634.0,257.0 L 629.0,246.0 L 650.0,224.0 Z" fill="#1c182e" />
  <path d="M 141.0,168.0 L 162.0,178.0 L 166.0,191.0 L 144.0,211.0 L 121.0,200.0 L 119.0,189.0 L 140.0,169.0 Z" fill="#191626" />
  <path d="M 93.0,356.0 L 83.0,369.0 L 81.0,375.0 L 78.0,376.0 L 81.0,378.0 L 79.0,379.0 L 81.0,389.0 L 81.0,392.0 L 79.0,394.0 L 82.0,396.0 L 79.0,396.0 L 82.0,399.0 L 101.0,395.0 L 111.0,390.0 L 119.0,388.0 L 116.0,367.0 L 95.0,357.0 L 77.0,378.0 L 93.0,356.0 Z" fill="#efdfcd" />
  <path d="M 243.0,556.0 L 225.0,572.0 L 227.0,577.0 L 226.0,579.0 L 228.0,590.0 L 245.0,598.0 L 255.0,587.0 L 264.0,574.0 L 262.0,565.0 L 244.0,557.0 Z" fill="#23221a" />
  <path d="M 127.0,411.0 L 162.0,412.0 L 168.0,430.0 L 164.0,440.0 L 128.0,441.0 L 122.0,422.0 L 127.0,412.0 Z" fill="#80755d" />
  <path d="M 427.0,0.0 L 450.0,0.0 L 452.0,5.0 L 452.0,26.0 L 424.0,29.0 L 427.0,1.0 Z" fill="#18152a" />
  <path d="M 42.0,21.0 L 44.0,21.0 L 54.0,29.0 L 69.0,37.0 L 61.0,56.0 L 34.0,54.0 L 26.0,38.0 L 32.0,27.0 L 41.0,22.0 Z" fill="#140f17" />
  <path d="M 341.0,313.0 L 336.0,324.0 L 326.0,338.0 L 326.0,342.0 L 330.0,350.0 L 349.0,358.0 L 367.0,339.0 L 365.0,324.0 L 341.0,313.0 Z" fill="#0e0f08" />
  <path d="M 698.0,425.0 L 709.0,426.0 L 712.0,441.0 L 707.0,453.0 L 695.0,455.0 L 688.0,458.0 L 684.0,458.0 L 684.0,455.0 L 681.0,454.0 L 672.0,437.0 L 675.0,427.0 L 690.0,428.0 L 697.0,426.0 L 683.0,458.0 L 698.0,425.0 Z" fill="#3e3833" />
  <path d="M 572.0,486.0 L 575.0,486.0 L 594.0,494.0 L 598.0,507.0 L 595.0,518.0 L 575.0,528.0 L 554.0,516.0 L 552.0,507.0 L 571.0,487.0 Z" fill="#080806" />
  <path d="M 704.0,10.0 L 706.0,11.0 L 707.0,16.0 L 716.0,33.0 L 714.0,40.0 L 678.0,41.0 L 677.0,39.0 L 680.0,20.0 L 703.0,11.0 Z" fill="#131021" />
  <path d="M 528.0,55.0 L 548.0,65.0 L 550.0,71.0 L 534.0,98.0 L 510.0,87.0 L 509.0,72.0 L 527.0,56.0 Z" fill="#171427" />
  <path d="M 770.0,598.0 L 781.0,599.0 L 799.0,604.0 L 799.0,622.0 L 764.0,622.0 L 770.0,599.0 Z" fill="#19152d" />
  <path d="M 58.0,190.0 L 81.0,198.0 L 83.0,213.0 L 81.0,217.0 L 62.0,229.0 L 51.0,204.0 L 51.0,200.0 L 58.0,191.0 Z" fill="#14121f" />
  <path d="M 32.0,88.0 L 6.0,102.0 L 0.0,108.0 L 0.0,114.0 L 13.0,120.0 L 33.0,126.0 L 46.0,102.0 L 45.0,96.0 L 33.0,89.0 Z" fill="#151017" />
  <path d="M 36.0,168.0 L 56.0,177.0 L 58.0,189.0 L 50.0,201.0 L 28.0,207.0 L 18.0,189.0 L 18.0,187.0 L 35.0,169.0 Z" fill="#15111e" />
  <path d="M 199.0,599.0 L 202.0,599.0 L 206.0,602.0 L 208.0,622.0 L 163.0,622.0 L 166.0,608.0 L 193.0,600.0 L 198.0,600.0 L 209.0,622.0 L 199.0,599.0 Z" fill="#403976" />
  <path d="M 703.0,352.0 L 727.0,364.0 L 729.0,379.0 L 710.0,398.0 L 693.0,387.0 L 691.0,382.0 L 698.0,367.0 L 702.0,362.0 L 702.0,353.0 Z" fill="#241f2d" />
  <path d="M 577.0,307.0 L 595.0,315.0 L 600.0,329.0 L 600.0,333.0 L 597.0,340.0 L 581.0,348.0 L 575.0,348.0 L 572.0,345.0 L 570.0,346.0 L 558.0,339.0 L 555.0,327.0 L 564.0,321.0 L 576.0,308.0 Z" fill="#857a63" />
  <path d="M 592.0,452.0 L 611.0,460.0 L 614.0,468.0 L 614.0,470.0 L 601.0,486.0 L 594.0,493.0 L 592.0,493.0 L 573.0,485.0 L 572.0,483.0 L 568.0,468.0 L 569.0,465.0 L 591.0,453.0 Z" fill="#111112" />
  <path d="M 97.0,423.0 L 122.0,423.0 L 127.0,439.0 L 127.0,443.0 L 122.0,454.0 L 118.0,456.0 L 111.0,452.0 L 109.0,454.0 L 107.0,452.0 L 102.0,451.0 L 90.0,452.0 L 88.0,450.0 L 85.0,441.0 L 83.0,440.0 L 83.0,437.0 L 88.0,424.0 L 96.0,424.0 L 83.0,441.0 L 85.0,445.0 L 84.0,447.0 L 90.0,453.0 L 120.0,456.0 L 97.0,423.0 Z" fill="#92817a" />
  <path d="M 603.0,589.0 L 582.0,622.0 L 627.0,622.0 L 624.0,601.0 L 604.0,590.0 Z" fill="#1a1530" />
  <path d="M 458.0,401.0 L 477.0,410.0 L 481.0,419.0 L 463.0,445.0 L 453.0,442.0 L 442.0,436.0 L 439.0,420.0 L 457.0,402.0 Z" fill="#403a2c" />
  <path d="M 304.0,127.0 L 283.0,142.0 L 282.0,153.0 L 284.0,158.0 L 312.0,173.0 L 318.0,153.0 L 313.0,146.0 L 304.0,127.0 Z" fill="#544c3d" />
  <path d="M 291.0,0.0 L 321.0,0.0 L 320.0,26.0 L 319.0,30.0 L 314.0,31.0 L 311.0,31.0 L 296.0,15.0 L 290.0,11.0 L 291.0,1.0 Z" fill="#161324" />
  <path d="M 372.0,162.0 L 376.0,162.0 L 394.0,171.0 L 396.0,174.0 L 397.0,179.0 L 389.0,187.0 L 389.0,189.0 L 384.0,192.0 L 384.0,195.0 L 382.0,197.0 L 377.0,198.0 L 376.0,203.0 L 354.0,195.0 L 350.0,182.0 L 352.0,175.0 L 371.0,163.0 Z" fill="#938878" />
  <path d="M 768.0,366.0 L 799.0,378.0 L 799.0,402.0 L 757.0,399.0 L 754.0,388.0 L 767.0,367.0 Z" fill="#120f21" />
  <path d="M 0.0,333.0 L 28.0,335.0 L 35.0,350.0 L 6.0,376.0 L 0.0,377.0 L 0.0,334.0 Z" fill="#121119" />
  <path d="M 726.0,150.0 L 742.0,150.0 L 747.0,168.0 L 730.0,184.0 L 706.0,174.0 L 703.0,166.0 L 703.0,161.0 L 708.0,151.0 L 725.0,151.0 Z" fill="#18142a" />
  <path d="M 158.0,377.0 L 160.0,377.0 L 161.0,380.0 L 161.0,385.0 L 166.0,403.0 L 163.0,410.0 L 127.0,410.0 L 122.0,392.0 L 122.0,390.0 L 157.0,378.0 Z" fill="#a59673" />
  <path d="M 38.0,140.0 L 72.0,140.0 L 76.0,155.0 L 55.0,176.0 L 36.0,167.0 L 35.0,165.0 L 32.0,152.0 L 38.0,141.0 Z" fill="#13111c" />
  <path d="M 595.0,341.0 L 598.0,342.0 L 611.0,362.0 L 611.0,367.0 L 606.0,383.0 L 605.0,384.0 L 599.0,381.0 L 579.0,368.0 L 579.0,359.0 L 581.0,352.0 L 580.0,349.0 L 594.0,342.0 Z" fill="#59513d" />
  <path d="M 783.0,338.0 L 799.0,338.0 L 799.0,376.0 L 772.0,367.0 L 767.0,363.0 L 765.0,353.0 L 782.0,339.0 L 799.0,377.0 L 783.0,338.0 Z" fill="#151224" />
  <path d="M 578.0,369.0 L 605.0,385.0 L 606.0,390.0 L 601.0,400.0 L 567.0,402.0 L 562.0,383.0 L 576.0,370.0 L 567.0,403.0 L 578.0,369.0 Z" fill="#605843" />
  <path d="M 406.0,325.0 L 412.0,325.0 L 431.0,334.0 L 430.0,350.0 L 417.0,362.0 L 410.0,366.0 L 396.0,360.0 L 392.0,352.0 L 398.0,338.0 L 406.0,326.0 Z" fill="#39362b" />
  <path d="M 98.0,12.0 L 102.0,13.0 L 117.0,27.0 L 108.0,48.0 L 105.0,49.0 L 78.0,34.0 L 97.0,13.0 L 107.0,50.0 L 98.0,12.0 Z" fill="#13101b" />
  <path d="M 303.0,507.0 L 291.0,517.0 L 282.0,522.0 L 281.0,529.0 L 285.0,541.0 L 304.0,549.0 L 326.0,528.0 L 323.0,516.0 L 304.0,508.0 Z" fill="#151610" />
  <path d="M 301.0,191.0 L 310.0,191.0 L 313.0,208.0 L 293.0,225.0 L 273.0,217.0 L 269.0,214.0 L 267.0,205.0 L 269.0,203.0 L 268.0,202.0 L 272.0,193.0 L 300.0,192.0 Z" fill="#46402f" />
  <path d="M 745.0,524.0 L 770.0,525.0 L 779.0,537.0 L 776.0,548.0 L 757.0,555.0 L 740.0,535.0 L 744.0,525.0 Z" fill="#171428" />
  <path d="M 759.0,43.0 L 767.0,47.0 L 777.0,63.0 L 770.0,78.0 L 743.0,78.0 L 737.0,65.0 L 737.0,63.0 L 758.0,44.0 Z" fill="#131021" />
  <path d="M 720.0,117.0 L 746.0,132.0 L 747.0,138.0 L 742.0,148.0 L 708.0,150.0 L 704.0,132.0 L 719.0,118.0 Z" fill="#161325" />
  <path d="M 423.0,53.0 L 446.0,60.0 L 448.0,69.0 L 448.0,78.0 L 432.0,89.0 L 426.0,91.0 L 422.0,83.0 L 417.0,66.0 L 417.0,63.0 L 423.0,54.0 Z" fill="#19152c" />
  <path d="M 544.0,195.0 L 565.0,204.0 L 569.0,221.0 L 564.0,231.0 L 528.0,233.0 L 523.0,218.0 L 543.0,196.0 Z" fill="#1d1932" />
  <path d="M 311.0,301.0 L 302.0,302.0 L 295.0,314.0 L 292.0,323.0 L 296.0,326.0 L 325.0,338.0 L 335.0,324.0 L 341.0,312.0 L 339.0,306.0 L 337.0,301.0 L 320.0,301.0 L 315.0,303.0 L 312.0,303.0 L 311.0,301.0 Z" fill="#0c0c07" />
  <path d="M 535.0,321.0 L 518.0,338.0 L 520.0,354.0 L 519.0,356.0 L 540.0,363.0 L 556.0,341.0 L 557.0,338.0 L 553.0,328.0 L 536.0,322.0 Z" fill="#645b45" />
  <path d="M 419.0,229.0 L 442.0,237.0 L 445.0,239.0 L 446.0,242.0 L 447.0,255.0 L 426.0,269.0 L 424.0,269.0 L 420.0,264.0 L 412.0,246.0 L 419.0,229.0 Z" fill="#87786b" />
  <path d="M 579.0,126.0 L 557.0,147.0 L 560.0,159.0 L 582.0,169.0 L 602.0,150.0 L 598.0,135.0 L 592.0,131.0 L 580.0,127.0 Z" fill="#19152b" />
  <path d="M 159.0,550.0 L 195.0,550.0 L 199.0,559.0 L 198.0,567.0 L 194.0,575.0 L 181.0,578.0 L 162.0,578.0 L 157.0,558.0 L 157.0,554.0 L 159.0,551.0 Z" fill="#322c55" />
  <path d="M 474.0,543.0 L 492.0,552.0 L 496.0,567.0 L 476.0,586.0 L 457.0,578.0 L 452.0,563.0 L 473.0,544.0 Z" fill="#0c0c0f" />
  <path d="M 0.0,247.0 L 23.0,249.0 L 32.0,267.0 L 6.0,278.0 L 0.0,283.0 L 0.0,248.0 L 0.0,284.0 L 0.0,247.0 Z" fill="#13111a" />
  <path d="M 799.0,301.0 L 774.0,308.0 L 769.0,308.0 L 784.0,337.0 L 799.0,337.0 L 799.0,303.0 Z" fill="#171329" />
  <path d="M 607.0,417.0 L 592.0,433.0 L 591.0,442.0 L 593.0,445.0 L 593.0,451.0 L 612.0,459.0 L 630.0,436.0 L 630.0,432.0 L 627.0,426.0 L 621.0,422.0 L 616.0,420.0 L 614.0,421.0 L 607.0,417.0 Z" fill="#3e372b" />
  <path d="M 404.0,502.0 L 436.0,519.0 L 427.0,538.0 L 417.0,539.0 L 392.0,537.0 L 389.0,530.0 L 403.0,503.0 Z" fill="#15141a" />
  <path d="M 269.0,466.0 L 272.0,466.0 L 276.0,480.0 L 269.0,494.0 L 247.0,500.0 L 235.0,476.0 L 236.0,472.0 L 239.0,471.0 L 268.0,467.0 Z" fill="#181308" />
  <path d="M 659.0,104.0 L 680.0,113.0 L 684.0,124.0 L 662.0,146.0 L 645.0,139.0 L 643.0,137.0 L 639.0,122.0 L 658.0,105.0 Z" fill="#161325" />
  <path d="M 247.0,345.0 L 281.0,348.0 L 286.0,361.0 L 279.0,370.0 L 265.0,382.0 L 247.0,375.0 L 241.0,359.0 L 246.0,346.0 Z" fill="#39260f" />
  <path d="M 36.0,498.0 L 65.0,499.0 L 71.0,514.0 L 51.0,535.0 L 47.0,537.0 L 35.0,531.0 L 27.0,514.0 L 36.0,499.0 Z" fill="#332b5c" />
  <path d="M 138.0,522.0 L 113.0,547.0 L 118.0,566.0 L 156.0,556.0 L 158.0,549.0 L 156.0,547.0 L 155.0,542.0 L 155.0,532.0 L 139.0,523.0 Z" fill="#393067" />
  <path d="M 465.0,458.0 L 483.0,465.0 L 485.0,467.0 L 489.0,481.0 L 489.0,485.0 L 484.0,496.0 L 450.0,494.0 L 445.0,480.0 L 465.0,459.0 Z" fill="#2d2a23" />
  <path d="M 315.0,31.0 L 321.0,31.0 L 333.0,38.0 L 336.0,43.0 L 334.0,50.0 L 320.0,72.0 L 316.0,73.0 L 300.0,65.0 L 298.0,62.0 L 296.0,52.0 L 296.0,49.0 L 308.0,35.0 L 311.0,32.0 L 314.0,32.0 Z" fill="#181624" />
  <path d="M 714.0,413.0 L 751.0,415.0 L 756.0,429.0 L 738.0,447.0 L 728.0,444.0 L 713.0,438.0 L 709.0,424.0 L 714.0,414.0 Z" fill="#0d0b13" />
  <path d="M 614.0,471.0 L 634.0,479.0 L 638.0,497.0 L 638.0,502.0 L 636.0,506.0 L 620.0,508.0 L 599.0,508.0 L 595.0,493.0 L 613.0,472.0 Z" fill="#111112" />
  <path d="M 410.0,246.0 L 412.0,247.0 L 419.0,264.0 L 424.0,270.0 L 422.0,277.0 L 383.0,276.0 L 383.0,271.0 L 391.0,252.0 L 409.0,247.0 Z" fill="#a09382" />
  <path d="M 409.0,145.0 L 433.0,155.0 L 432.0,172.0 L 417.0,187.0 L 398.0,178.0 L 396.0,171.0 L 408.0,146.0 Z" fill="#322c38" />
  <path d="M 394.0,360.0 L 411.0,368.0 L 416.0,389.0 L 412.0,397.0 L 382.0,398.0 L 377.0,396.0 L 373.0,383.0 L 376.0,380.0 L 379.0,373.0 L 381.0,374.0 L 393.0,361.0 L 412.0,398.0 L 394.0,360.0 Z" fill="#383427" />
  <path d="M 246.0,375.0 L 242.0,381.0 L 229.0,392.0 L 231.0,410.0 L 248.0,418.0 L 251.0,418.0 L 268.0,396.0 L 265.0,383.0 L 247.0,376.0 Z" fill="#532e0e" />
  <path d="M 319.0,442.0 L 354.0,443.0 L 355.0,450.0 L 359.0,456.0 L 359.0,459.0 L 338.0,479.0 L 336.0,479.0 L 317.0,470.0 L 313.0,454.0 L 318.0,443.0 Z" fill="#11120c" />
  <path d="M 514.0,0.0 L 543.0,0.0 L 546.0,21.0 L 526.0,38.0 L 512.0,30.0 L 512.0,12.0 L 514.0,1.0 L 511.0,30.0 L 514.0,0.0 Z" fill="#151224" />
  <path d="M 322.0,0.0 L 352.0,0.0 L 354.0,16.0 L 353.0,21.0 L 335.0,39.0 L 320.0,30.0 L 322.0,1.0 Z" fill="#161426" />
  <path d="M 386.0,128.0 L 406.0,136.0 L 408.0,142.0 L 407.0,148.0 L 396.0,170.0 L 395.0,171.0 L 374.0,161.0 L 373.0,158.0 L 373.0,142.0 L 385.0,129.0 Z" fill="#4e4445" />
  <path d="M 468.0,135.0 L 491.0,136.0 L 494.0,148.0 L 488.0,159.0 L 465.0,167.0 L 453.0,147.0 L 452.0,143.0 L 455.0,136.0 L 467.0,136.0 Z" fill="#1c1833" />
  <path d="M 181.0,210.0 L 198.0,217.0 L 216.0,227.0 L 207.0,245.0 L 171.0,247.0 L 169.0,235.0 L 172.0,230.0 L 173.0,224.0 L 181.0,211.0 Z" fill="#f9f7f1" />
  <path d="M 482.0,420.0 L 463.0,446.0 L 466.0,457.0 L 485.0,465.0 L 502.0,449.0 L 501.0,432.0 L 483.0,421.0 Z" fill="#463f33" />
  <path d="M 462.0,46.0 L 484.0,56.0 L 485.0,59.0 L 485.0,63.0 L 469.0,87.0 L 449.0,78.0 L 448.0,60.0 L 461.0,47.0 Z" fill="#19162c" />
  <path d="M 314.0,208.0 L 333.0,221.0 L 334.0,224.0 L 334.0,228.0 L 320.0,246.0 L 318.0,251.0 L 316.0,252.0 L 310.0,250.0 L 295.0,243.0 L 294.0,240.0 L 293.0,226.0 L 313.0,209.0 Z" fill="#565544" />
  <path d="M 392.0,8.0 L 397.0,10.0 L 419.0,33.0 L 419.0,35.0 L 415.0,37.0 L 381.0,44.0 L 377.0,30.0 L 391.0,9.0 Z" fill="#171429" />
  <path d="M 486.0,313.0 L 490.0,313.0 L 493.0,326.0 L 487.0,338.0 L 463.0,344.0 L 458.0,335.0 L 456.0,333.0 L 454.0,334.0 L 454.0,331.0 L 450.0,325.0 L 452.0,317.0 L 485.0,314.0 L 466.0,345.0 L 486.0,313.0 Z" fill="#8e846c" />
  <path d="M 117.0,597.0 L 121.0,597.0 L 122.0,600.0 L 125.0,622.0 L 84.0,622.0 L 86.0,602.0 L 116.0,598.0 Z" fill="#3d3572" />
  <path d="M 0.0,153.0 L 31.0,154.0 L 35.0,166.0 L 35.0,168.0 L 30.0,174.0 L 17.0,187.0 L 0.0,187.0 L 0.0,154.0 Z" fill="#151119" />
  <path d="M 51.0,549.0 L 73.0,559.0 L 76.0,580.0 L 75.0,584.0 L 38.0,581.0 L 36.0,572.0 L 50.0,550.0 Z" fill="#3b326c" />
  <path d="M 740.0,259.0 L 766.0,260.0 L 768.0,262.0 L 775.0,275.0 L 763.0,295.0 L 729.0,283.0 L 730.0,278.0 L 739.0,260.0 Z" fill="#19152d" />
  <path d="M 427.0,292.0 L 447.0,300.0 L 452.0,316.0 L 449.0,325.0 L 434.0,333.0 L 430.0,333.0 L 412.0,324.0 L 406.0,324.0 L 404.0,315.0 L 426.0,293.0 Z" fill="#988e7e" />
  <path d="M 0.0,67.0 L 25.0,69.0 L 31.0,85.0 L 31.0,88.0 L 9.0,99.0 L 0.0,106.0 L 0.0,68.0 L 0.0,107.0 L 0.0,67.0 Z" fill="#141017" />
  <path d="M 209.0,61.0 L 236.0,77.0 L 239.0,85.0 L 236.0,93.0 L 226.0,95.0 L 197.0,94.0 L 193.0,77.0 L 208.0,62.0 Z" fill="#161424" />
  <path d="M 595.0,519.0 L 576.0,529.0 L 575.0,545.0 L 599.0,561.0 L 602.0,561.0 L 608.0,539.0 L 596.0,520.0 Z" fill="#0e0d14" />
  <path d="M 198.0,428.0 L 206.0,428.0 L 206.0,435.0 L 209.0,443.0 L 209.0,445.0 L 207.0,446.0 L 204.0,452.0 L 199.0,456.0 L 199.0,458.0 L 188.0,467.0 L 169.0,457.0 L 165.0,443.0 L 165.0,438.0 L 170.0,431.0 L 197.0,429.0 Z" fill="#635844" />
  <path d="M 116.0,570.0 L 118.0,572.0 L 123.0,590.0 L 121.0,596.0 L 100.0,600.0 L 85.0,601.0 L 78.0,592.0 L 76.0,586.0 L 77.0,582.0 L 107.0,572.0 L 115.0,571.0 Z" fill="#3c3571" />
  <path d="M 778.0,64.0 L 799.0,65.0 L 799.0,88.0 L 789.0,92.0 L 776.0,91.0 L 770.0,79.0 L 777.0,65.0 Z" fill="#120f20" />
  <path d="M 190.0,476.0 L 178.0,496.0 L 176.0,503.0 L 179.0,512.0 L 194.0,519.0 L 201.0,514.0 L 208.0,506.0 L 212.0,504.0 L 214.0,500.0 L 214.0,489.0 L 190.0,476.0 Z" fill="#51422e" />
  <path d="M 746.0,347.0 L 763.0,353.0 L 767.0,364.0 L 753.0,389.0 L 730.0,379.0 L 729.0,374.0 L 728.0,364.0 L 745.0,348.0 Z" fill="#161327" />
  <path d="M 488.0,509.0 L 511.0,517.0 L 514.0,532.0 L 493.0,551.0 L 476.0,543.0 L 474.0,541.0 L 472.0,530.0 L 487.0,510.0 Z" fill="#101011" />
  <path d="M 144.0,227.0 L 167.0,236.0 L 170.0,248.0 L 165.0,257.0 L 157.0,257.0 L 146.0,259.0 L 143.0,261.0 L 142.0,259.0 L 140.0,259.0 L 133.0,263.0 L 128.0,245.0 L 143.0,228.0 L 133.0,264.0 L 144.0,227.0 Z" fill="#5d555d" />
  <path d="M 558.0,468.0 L 568.0,469.0 L 572.0,484.0 L 563.0,495.0 L 552.0,506.0 L 550.0,506.0 L 532.0,498.0 L 529.0,494.0 L 526.0,483.0 L 531.0,469.0 L 557.0,469.0 Z" fill="#0e0e0b" />
  <path d="M 432.0,555.0 L 451.0,563.0 L 455.0,575.0 L 455.0,578.0 L 451.0,583.0 L 440.0,594.0 L 415.0,591.0 L 412.0,576.0 L 431.0,556.0 Z" fill="#0f0d17" />
  <path d="M 665.0,591.0 L 692.0,610.0 L 692.0,622.0 L 656.0,622.0 L 659.0,615.0 L 662.0,592.0 L 664.0,592.0 L 655.0,622.0 L 665.0,591.0 Z" fill="#19152e" />
  <path d="M 603.0,150.0 L 582.0,170.0 L 584.0,184.0 L 607.0,195.0 L 615.0,180.0 L 622.0,171.0 L 619.0,158.0 L 604.0,151.0 Z" fill="#1b172e" />
  <path d="M 234.0,476.0 L 215.0,488.0 L 215.0,500.0 L 213.0,502.0 L 239.0,519.0 L 247.0,501.0 L 235.0,477.0 Z" fill="#282214" />
  <path d="M 649.0,404.0 L 628.0,426.0 L 631.0,434.0 L 649.0,443.0 L 651.0,447.0 L 672.0,435.0 L 674.0,424.0 L 670.0,413.0 L 653.0,405.0 L 650.0,405.0 Z" fill="#706957" />
  <path d="M 112.0,125.0 L 117.0,144.0 L 97.0,165.0 L 76.0,154.0 L 73.0,142.0 L 74.0,136.0 L 102.0,127.0 L 111.0,126.0 Z" fill="#14121d" />
  <path d="M 618.0,293.0 L 622.0,293.0 L 637.0,300.0 L 640.0,315.0 L 642.0,318.0 L 639.0,327.0 L 601.0,331.0 L 596.0,314.0 L 617.0,294.0 Z" fill="#8f826e" />
  <path d="M 75.0,337.0 L 88.0,343.0 L 91.0,343.0 L 90.0,351.0 L 92.0,356.0 L 82.0,369.0 L 80.0,375.0 L 77.0,376.0 L 80.0,378.0 L 75.0,379.0 L 54.0,368.0 L 50.0,358.0 L 68.0,341.0 L 70.0,341.0 L 70.0,339.0 L 74.0,338.0 L 78.0,380.0 L 75.0,337.0 Z" fill="#3f3a43" />
  <path d="M 569.0,44.0 L 590.0,52.0 L 596.0,66.0 L 587.0,87.0 L 580.0,89.0 L 550.0,70.0 L 549.0,65.0 L 568.0,45.0 Z" fill="#161325" />
  <path d="M 493.0,193.0 L 498.0,194.0 L 502.0,210.0 L 482.0,230.0 L 460.0,222.0 L 456.0,206.0 L 461.0,195.0 L 492.0,194.0 Z" fill="#1f1a38" />
  <path d="M 757.0,401.0 L 799.0,403.0 L 799.0,418.0 L 794.0,423.0 L 767.0,435.0 L 756.0,428.0 L 752.0,416.0 L 757.0,402.0 Z" fill="#110f1e" />
  <path d="M 722.0,501.0 L 700.0,522.0 L 702.0,532.0 L 723.0,543.0 L 726.0,543.0 L 740.0,534.0 L 744.0,524.0 L 738.0,509.0 L 723.0,502.0 Z" fill="#161325" />
  <path d="M 253.0,431.0 L 271.0,439.0 L 276.0,453.0 L 276.0,457.0 L 272.0,465.0 L 236.0,471.0 L 231.0,452.0 L 252.0,432.0 Z" fill="#24170a" />
  <path d="M 680.0,515.0 L 683.0,515.0 L 687.0,518.0 L 698.0,522.0 L 701.0,530.0 L 700.0,535.0 L 687.0,556.0 L 684.0,558.0 L 666.0,549.0 L 664.0,544.0 L 664.0,532.0 L 679.0,516.0 Z" fill="#1b1928" />
  <path d="M 0.0,557.0 L 34.0,572.0 L 37.0,579.0 L 36.0,585.0 L 32.0,593.0 L 0.0,598.0 L 0.0,558.0 Z" fill="#362d65" />
  <path d="M 365.0,420.0 L 389.0,432.0 L 390.0,431.0 L 398.0,436.0 L 402.0,447.0 L 396.0,451.0 L 381.0,467.0 L 369.0,463.0 L 360.0,458.0 L 356.0,450.0 L 355.0,438.0 L 356.0,436.0 L 358.0,436.0 L 362.0,423.0 L 364.0,421.0 Z" fill="#4a4635" />
  <path d="M 178.0,513.0 L 194.0,521.0 L 199.0,539.0 L 199.0,542.0 L 195.0,549.0 L 159.0,549.0 L 157.0,547.0 L 156.0,532.0 L 177.0,514.0 Z" fill="#524943" />
  <path d="M 555.0,291.0 L 571.0,291.0 L 576.0,304.0 L 576.0,307.0 L 558.0,325.0 L 550.0,327.0 L 549.0,325.0 L 536.0,321.0 L 531.0,306.0 L 531.0,302.0 L 535.0,293.0 L 554.0,292.0 L 555.0,329.0 L 555.0,291.0 Z" fill="#92846e" />
  <path d="M 794.0,119.0 L 799.0,119.0 L 799.0,157.0 L 787.0,156.0 L 774.0,136.0 L 785.0,121.0 L 793.0,120.0 Z" fill="#131021" />
  <path d="M 642.0,345.0 L 649.0,346.0 L 651.0,348.0 L 666.0,353.0 L 667.0,373.0 L 644.0,385.0 L 645.0,380.0 L 642.0,379.0 L 642.0,374.0 L 640.0,372.0 L 640.0,362.0 L 637.0,357.0 L 641.0,346.0 Z" fill="#b7b197" />
  <path d="M 269.0,216.0 L 267.0,223.0 L 255.0,242.0 L 257.0,245.0 L 257.0,250.0 L 275.0,259.0 L 294.0,242.0 L 293.0,231.0 L 291.0,225.0 L 269.0,216.0 Z" fill="#655c47" />
  <path d="M 634.0,78.0 L 657.0,87.0 L 659.0,100.0 L 659.0,103.0 L 640.0,121.0 L 634.0,120.0 L 621.0,113.0 L 619.0,103.0 L 634.0,79.0 Z" fill="#161324" />
  <path d="M 706.0,0.0 L 738.0,0.0 L 736.0,8.0 L 737.0,22.0 L 717.0,33.0 L 708.0,16.0 L 706.0,10.0 L 706.0,1.0 Z" fill="#131021" />
  <path d="M 415.0,592.0 L 412.0,597.0 L 414.0,609.0 L 414.0,622.0 L 448.0,622.0 L 448.0,620.0 L 441.0,610.0 L 439.0,596.0 L 424.0,593.0 L 417.0,593.0 L 449.0,622.0 L 415.0,592.0 Z" fill="#18142b" />
  <path d="M 106.0,237.0 L 127.0,246.0 L 132.0,261.0 L 132.0,265.0 L 125.0,271.0 L 124.0,275.0 L 90.0,274.0 L 84.0,259.0 L 105.0,238.0 Z" fill="#1b1827" />
  <path d="M 364.0,519.0 L 389.0,531.0 L 391.0,538.0 L 385.0,552.0 L 350.0,552.0 L 346.0,536.0 L 363.0,520.0 Z" fill="#1b1b1a" />
  <path d="M 71.0,515.0 L 90.0,523.0 L 94.0,538.0 L 84.0,549.0 L 76.0,557.0 L 72.0,558.0 L 51.0,548.0 L 49.0,537.0 L 70.0,516.0 Z" fill="#362d66" />
  <path d="M 148.0,590.0 L 157.0,590.0 L 164.0,607.0 L 162.0,622.0 L 126.0,622.0 L 122.0,599.0 L 123.0,593.0 L 126.0,591.0 L 147.0,591.0 Z" fill="#413a77" />
  <path d="M 713.0,439.0 L 708.0,451.0 L 708.0,455.0 L 718.0,481.0 L 740.0,467.0 L 739.0,453.0 L 738.0,448.0 L 713.0,439.0 Z" fill="#0e0c16" />
  <path d="M 448.0,79.0 L 457.0,82.0 L 469.0,89.0 L 471.0,97.0 L 462.0,107.0 L 449.0,120.0 L 431.0,113.0 L 429.0,111.0 L 425.0,98.0 L 426.0,93.0 L 447.0,80.0 Z" fill="#1a162e" />
  <path d="M 74.0,405.0 L 82.0,406.0 L 78.0,409.0 L 81.0,411.0 L 81.0,413.0 L 84.0,413.0 L 83.0,417.0 L 86.0,418.0 L 83.0,422.0 L 84.0,424.0 L 87.0,423.0 L 83.0,436.0 L 45.0,437.0 L 39.0,418.0 L 41.0,409.0 L 73.0,406.0 L 80.0,414.0 L 74.0,405.0 Z" fill="#373141" />
  <path d="M 481.0,14.0 L 484.0,15.0 L 502.0,32.0 L 495.0,39.0 L 486.0,53.0 L 483.0,55.0 L 463.0,45.0 L 460.0,33.0 L 473.0,23.0 L 480.0,15.0 Z" fill="#161326" />
  <path d="M 285.0,542.0 L 304.0,551.0 L 307.0,563.0 L 309.0,565.0 L 306.0,573.0 L 288.0,584.0 L 285.0,584.0 L 265.0,573.0 L 263.0,565.0 L 284.0,543.0 Z" fill="#14150f" />
  <path d="M 505.0,271.0 L 490.0,287.0 L 494.0,304.0 L 530.0,303.0 L 532.0,299.0 L 534.0,293.0 L 532.0,284.0 L 527.0,281.0 L 523.0,281.0 L 518.0,277.0 L 506.0,272.0 Z" fill="#7f7361" />
  <path d="M 339.0,592.0 L 341.0,592.0 L 350.0,606.0 L 348.0,608.0 L 348.0,612.0 L 344.0,622.0 L 314.0,622.0 L 313.0,618.0 L 321.0,597.0 L 322.0,596.0 L 324.0,598.0 L 338.0,593.0 Z" fill="#201e26" />
  <path d="M 214.0,264.0 L 233.0,273.0 L 236.0,284.0 L 236.0,287.0 L 225.0,296.0 L 226.0,298.0 L 222.0,299.0 L 216.0,304.0 L 210.0,301.0 L 197.0,300.0 L 196.0,294.0 L 193.0,289.0 L 193.0,286.0 L 196.0,282.0 L 213.0,265.0 L 227.0,298.0 L 214.0,264.0 Z" fill="#b5a995" />
  <path d="M 131.0,0.0 L 161.0,0.0 L 160.0,21.0 L 146.0,32.0 L 129.0,23.0 L 131.0,1.0 Z" fill="#13111d" />
  <path d="M 471.0,98.0 L 491.0,107.0 L 495.0,120.0 L 495.0,125.0 L 491.0,133.0 L 454.0,135.0 L 450.0,120.0 L 470.0,99.0 Z" fill="#1a172d" />
  <path d="M 385.0,278.0 L 422.0,278.0 L 426.0,292.0 L 404.0,314.0 L 399.0,313.0 L 396.0,309.0 L 386.0,304.0 L 382.0,289.0 L 382.0,282.0 L 384.0,279.0 Z" fill="#8f8774" />
  <path d="M 2.0,377.0 L 6.0,377.0 L 14.0,381.0 L 38.0,396.0 L 41.0,407.0 L 38.0,415.0 L 17.0,418.0 L 0.0,418.0 L 1.0,378.0 Z" fill="#181523" />
  <path d="M 293.0,420.0 L 285.0,426.0 L 272.0,440.0 L 277.0,455.0 L 312.0,455.0 L 318.0,442.0 L 314.0,430.0 L 294.0,421.0 Z" fill="#221709" />
  <path d="M 774.0,550.0 L 777.0,552.0 L 788.0,569.0 L 776.0,578.0 L 766.0,588.0 L 750.0,580.0 L 750.0,576.0 L 757.0,556.0 L 773.0,551.0 Z" fill="#19152d" />
  <path d="M 277.0,279.0 L 282.0,279.0 L 291.0,283.0 L 290.0,284.0 L 296.0,287.0 L 298.0,291.0 L 298.0,296.0 L 300.0,297.0 L 299.0,298.0 L 301.0,303.0 L 298.0,306.0 L 292.0,320.0 L 290.0,321.0 L 259.0,310.0 L 255.0,294.0 L 265.0,286.0 L 276.0,280.0 Z" fill="#2f2a1c" />
  <path d="M 76.0,437.0 L 82.0,437.0 L 82.0,441.0 L 84.0,441.0 L 85.0,444.0 L 83.0,447.0 L 86.0,448.0 L 86.0,446.0 L 87.0,449.0 L 86.0,455.0 L 78.0,474.0 L 75.0,475.0 L 41.0,462.0 L 38.0,451.0 L 44.0,438.0 L 75.0,438.0 Z" fill="#231e36" />
  <path d="M 486.0,62.0 L 507.0,72.0 L 509.0,81.0 L 509.0,88.0 L 491.0,106.0 L 472.0,97.0 L 469.0,88.0 L 486.0,62.0 Z" fill="#171426" />
  <path d="M 198.0,4.0 L 230.0,30.0 L 229.0,32.0 L 211.0,44.0 L 189.0,33.0 L 198.0,4.0 Z" fill="#151223" />
  <path d="M 354.0,20.0 L 375.0,29.0 L 380.0,43.0 L 379.0,48.0 L 361.0,58.0 L 355.0,56.0 L 337.0,45.0 L 336.0,39.0 L 354.0,21.0 Z" fill="#171427" />
  <path d="M 584.0,9.0 L 592.0,14.0 L 607.0,31.0 L 601.0,36.0 L 592.0,49.0 L 588.0,51.0 L 571.0,44.0 L 569.0,42.0 L 567.0,34.0 L 568.0,29.0 L 583.0,10.0 Z" fill="#141223" />
  <path d="M 95.0,538.0 L 74.0,559.0 L 77.0,581.0 L 107.0,571.0 L 115.0,570.0 L 118.0,567.0 L 113.0,548.0 L 96.0,539.0 Z" fill="#39306a" />
  <path d="M 521.0,422.0 L 502.0,432.0 L 502.0,450.0 L 513.0,455.0 L 521.0,461.0 L 529.0,465.0 L 530.0,464.0 L 534.0,454.0 L 533.0,449.0 L 535.0,443.0 L 523.0,427.0 L 522.0,423.0 Z" fill="#504937" />
  <path d="M 230.0,202.0 L 245.0,206.0 L 266.0,207.0 L 269.0,215.0 L 268.0,219.0 L 255.0,241.0 L 242.0,237.0 L 219.0,225.0 L 229.0,203.0 Z" fill="#bfbda3" />
  <path d="M 487.0,160.0 L 498.0,188.0 L 498.0,191.0 L 480.0,194.0 L 461.0,194.0 L 460.0,192.0 L 459.0,188.0 L 466.0,168.0 L 486.0,161.0 Z" fill="#1f1a38" />
  <path d="M 478.0,595.0 L 472.0,609.0 L 468.0,613.0 L 463.0,622.0 L 514.0,622.0 L 512.0,611.0 L 478.0,595.0 Z" fill="#18152c" />
  <path d="M 257.0,251.0 L 274.0,260.0 L 278.0,278.0 L 265.0,285.0 L 257.0,292.0 L 253.0,293.0 L 246.0,289.0 L 237.0,287.0 L 234.0,273.0 L 256.0,252.0 L 279.0,278.0 L 257.0,251.0 Z" fill="#968671" />
  <path d="M 503.0,210.0 L 483.0,230.0 L 486.0,243.0 L 505.0,251.0 L 524.0,243.0 L 527.0,236.0 L 527.0,231.0 L 523.0,219.0 L 504.0,211.0 Z" fill="#24202e" />
  <path d="M 286.0,362.0 L 307.0,370.0 L 311.0,381.0 L 311.0,385.0 L 294.0,403.0 L 292.0,405.0 L 289.0,405.0 L 269.0,396.0 L 266.0,386.0 L 266.0,382.0 L 273.0,377.0 L 285.0,363.0 Z" fill="#532d0c" />
  <path d="M 544.0,0.0 L 585.0,0.0 L 584.0,8.0 L 578.0,14.0 L 573.0,23.0 L 566.0,31.0 L 546.0,20.0 L 544.0,1.0 Z" fill="#141122" />
  <path d="M 354.0,196.0 L 360.0,199.0 L 362.0,198.0 L 376.0,205.0 L 380.0,216.0 L 375.0,228.0 L 363.0,234.0 L 362.0,237.0 L 358.0,239.0 L 335.0,226.0 L 334.0,220.0 L 336.0,216.0 L 353.0,197.0 Z" fill="#6e6857" />
  <path d="M 383.0,485.0 L 386.0,485.0 L 402.0,494.0 L 403.0,498.0 L 403.0,502.0 L 395.0,515.0 L 389.0,529.0 L 366.0,519.0 L 364.0,515.0 L 363.0,503.0 L 382.0,486.0 Z" fill="#2b2825" />
  <path d="M 320.0,263.0 L 297.0,286.0 L 299.0,296.0 L 301.0,297.0 L 301.0,301.0 L 312.0,300.0 L 312.0,302.0 L 315.0,302.0 L 320.0,300.0 L 337.0,300.0 L 341.0,291.0 L 338.0,273.0 L 321.0,264.0 Z" fill="#60594d" />
  <path d="M 685.0,336.0 L 691.0,338.0 L 696.0,344.0 L 701.0,347.0 L 702.0,350.0 L 701.0,362.0 L 697.0,367.0 L 691.0,381.0 L 689.0,382.0 L 668.0,371.0 L 667.0,365.0 L 667.0,353.0 L 684.0,337.0 Z" fill="#988b7a" />
  <path d="M 135.0,441.0 L 164.0,441.0 L 168.0,457.0 L 148.0,476.0 L 128.0,466.0 L 127.0,461.0 L 123.0,458.0 L 122.0,455.0 L 128.0,442.0 L 134.0,442.0 Z" fill="#8b7c6a" />
  <path d="M 387.0,98.0 L 424.0,98.0 L 429.0,112.0 L 407.0,135.0 L 404.0,135.0 L 386.0,127.0 L 382.0,110.0 L 387.0,99.0 Z" fill="#1a162e" />
  <path d="M 283.0,158.0 L 269.0,174.0 L 272.0,192.0 L 310.0,190.0 L 311.0,188.0 L 311.0,173.0 L 284.0,159.0 Z" fill="#57513e" />
  <path d="M 739.0,0.0 L 768.0,0.0 L 769.0,8.0 L 768.0,15.0 L 756.0,32.0 L 738.0,22.0 L 737.0,8.0 L 739.0,1.0 Z" fill="#131021" />
  <path d="M 231.0,411.0 L 250.0,419.0 L 253.0,430.0 L 230.0,452.0 L 210.0,444.0 L 207.0,435.0 L 207.0,426.0 L 230.0,412.0 Z" fill="#402d18" />
  <path d="M 192.0,576.0 L 195.0,577.0 L 201.0,598.0 L 174.0,604.0 L 165.0,608.0 L 164.0,606.0 L 158.0,592.0 L 158.0,587.0 L 161.0,580.0 L 191.0,577.0 Z" fill="#403876" />
  <path d="M 668.0,372.0 L 690.0,383.0 L 691.0,385.0 L 686.0,394.0 L 680.0,399.0 L 676.0,404.0 L 676.0,407.0 L 671.0,412.0 L 653.0,404.0 L 650.0,404.0 L 647.0,401.0 L 644.0,390.0 L 644.0,386.0 L 668.0,373.0 Z" fill="#aea592" />
  <path d="M 703.0,454.0 L 707.0,454.0 L 708.0,456.0 L 717.0,483.0 L 679.0,486.0 L 678.0,479.0 L 680.0,477.0 L 680.0,471.0 L 683.0,460.0 L 702.0,455.0 Z" fill="#111014" />
  <path d="M 268.0,48.0 L 269.0,50.0 L 266.0,55.0 L 268.0,78.0 L 249.0,80.0 L 240.0,85.0 L 236.0,76.0 L 243.0,56.0 L 267.0,49.0 Z" fill="#484046" />
  <path d="M 45.0,0.0 L 69.0,1.0 L 73.0,30.0 L 73.0,34.0 L 69.0,36.0 L 54.0,28.0 L 44.0,20.0 L 45.0,1.0 Z" fill="#120f18" />
  <path d="M 557.0,436.0 L 560.0,437.0 L 560.0,443.0 L 563.0,449.0 L 563.0,454.0 L 568.0,466.0 L 557.0,468.0 L 531.0,468.0 L 530.0,466.0 L 535.0,454.0 L 534.0,449.0 L 536.0,443.0 L 541.0,443.0 L 556.0,437.0 Z" fill="#474334" />
  <path d="M 392.0,538.0 L 426.0,540.0 L 432.0,554.0 L 427.0,560.0 L 412.0,575.0 L 391.0,567.0 L 389.0,565.0 L 386.0,555.0 L 386.0,551.0 L 391.0,539.0 Z" fill="#070707" />
  <path d="M 156.0,557.0 L 118.0,568.0 L 124.0,591.0 L 157.0,589.0 L 161.0,577.0 L 156.0,557.0 Z" fill="#3f3774" />
  <path d="M 743.0,79.0 L 769.0,80.0 L 776.0,92.0 L 773.0,105.0 L 754.0,111.0 L 739.0,91.0 L 742.0,80.0 Z" fill="#131021" />
  <path d="M 510.0,88.0 L 492.0,106.0 L 496.0,123.0 L 532.0,122.0 L 537.0,110.0 L 534.0,99.0 L 511.0,89.0 Z" fill="#171428" />
  <path d="M 322.0,84.0 L 302.0,108.0 L 306.0,121.0 L 343.0,118.0 L 346.0,113.0 L 341.0,93.0 L 323.0,85.0 Z" fill="#6b6054" />
  <path d="M 483.0,340.0 L 486.0,340.0 L 486.0,345.0 L 489.0,346.0 L 489.0,360.0 L 493.0,366.0 L 493.0,369.0 L 491.0,371.0 L 478.0,371.0 L 474.0,373.0 L 472.0,372.0 L 470.0,374.0 L 469.0,372.0 L 465.0,374.0 L 455.0,374.0 L 455.0,370.0 L 458.0,365.0 L 464.0,345.0 L 466.0,346.0 L 467.0,344.0 L 478.0,341.0 L 482.0,341.0 L 455.0,375.0 L 483.0,340.0 Z" fill="#9a957c" />
  <path d="M 688.0,567.0 L 667.0,591.0 L 691.0,609.0 L 693.0,610.0 L 696.0,607.0 L 709.0,590.0 L 706.0,576.0 L 689.0,568.0 Z" fill="#19152e" />
  <path d="M 341.0,493.0 L 324.0,516.0 L 327.0,527.0 L 345.0,536.0 L 364.0,518.0 L 363.0,504.0 L 342.0,494.0 Z" fill="#1d1d15" />
  <path d="M 265.0,574.0 L 256.0,587.0 L 246.0,598.0 L 247.0,605.0 L 252.0,613.0 L 254.0,621.0 L 265.0,622.0 L 279.0,604.0 L 286.0,598.0 L 286.0,585.0 L 266.0,575.0 Z" fill="#1d1b21" />
  <path d="M 65.0,252.0 L 83.0,259.0 L 89.0,272.0 L 89.0,276.0 L 86.0,279.0 L 86.0,283.0 L 81.0,295.0 L 77.0,297.0 L 61.0,288.0 L 44.0,281.0 L 42.0,273.0 L 64.0,253.0 Z" fill="#15131f" />
  <path d="M 76.0,156.0 L 97.0,166.0 L 100.0,180.0 L 82.0,197.0 L 59.0,189.0 L 57.0,176.0 L 75.0,157.0 Z" fill="#14121e" />
  <path d="M 380.0,217.0 L 416.0,219.0 L 418.0,226.0 L 418.0,230.0 L 411.0,245.0 L 391.0,251.0 L 382.0,236.0 L 376.0,229.0 L 380.0,218.0 Z" fill="#918172" />
  <path d="M 798.0,534.0 L 799.0,569.0 L 789.0,569.0 L 776.0,550.0 L 781.0,538.0 L 787.0,538.0 L 797.0,535.0 Z" fill="#18142a" />
  <path d="M 373.0,602.0 L 377.0,602.0 L 381.0,607.0 L 380.0,622.0 L 345.0,622.0 L 349.0,610.0 L 356.0,609.0 L 372.0,603.0 Z" fill="#18152b" />
  <path d="M 109.0,58.0 L 127.0,67.0 L 131.0,80.0 L 109.0,102.0 L 93.0,94.0 L 87.0,78.0 L 108.0,59.0 Z" fill="#13111d" />
  <path d="M 748.0,168.0 L 731.0,184.0 L 732.0,199.0 L 756.0,210.0 L 769.0,186.0 L 765.0,174.0 L 749.0,169.0 Z" fill="#19152d" />
  <path d="M 384.0,305.0 L 387.0,305.0 L 396.0,310.0 L 399.0,314.0 L 402.0,314.0 L 405.0,321.0 L 405.0,326.0 L 397.0,338.0 L 392.0,349.0 L 371.0,341.0 L 367.0,338.0 L 366.0,324.0 L 383.0,306.0 Z" fill="#3e392c" />
  <path d="M 127.0,465.0 L 112.0,493.0 L 114.0,501.0 L 134.0,511.0 L 150.0,490.0 L 149.0,478.0 L 131.0,469.0 L 127.0,465.0 Z" fill="#7b6f8b" />
  <path d="M 151.0,490.0 L 135.0,511.0 L 138.0,521.0 L 156.0,531.0 L 175.0,516.0 L 178.0,512.0 L 175.0,501.0 L 152.0,491.0 Z" fill="#a1929f" />
  <path d="M 168.0,458.0 L 187.0,467.0 L 189.0,472.0 L 189.0,477.0 L 176.0,499.0 L 174.0,500.0 L 152.0,490.0 L 150.0,485.0 L 149.0,477.0 L 167.0,459.0 Z" fill="#846a4d" />
  <path d="M 759.0,220.0 L 734.0,242.0 L 739.0,257.0 L 747.0,259.0 L 766.0,259.0 L 768.0,257.0 L 775.0,244.0 L 764.0,224.0 L 760.0,221.0 Z" fill="#19152d" />
  <path d="M 187.0,34.0 L 190.0,34.0 L 210.0,45.0 L 209.0,60.0 L 192.0,77.0 L 175.0,69.0 L 172.0,58.0 L 184.0,36.0 L 186.0,35.0 Z" fill="#151322" />
  <path d="M 570.0,220.0 L 604.0,222.0 L 609.0,237.0 L 603.0,245.0 L 592.0,254.0 L 586.0,253.0 L 576.0,248.0 L 570.0,248.0 L 568.0,247.0 L 564.0,234.0 L 570.0,221.0 Z" fill="#1d1930" />
  <path d="M 7.0,0.0 L 44.0,0.0 L 43.0,20.0 L 33.0,25.0 L 22.0,13.0 L 7.0,0.0 Z" fill="#150f16" />
  <path d="M 279.0,41.0 L 284.0,42.0 L 289.0,47.0 L 295.0,50.0 L 298.0,65.0 L 277.0,83.0 L 269.0,78.0 L 267.0,55.0 L 271.0,45.0 L 273.0,43.0 L 278.0,42.0 Z" fill="#a29585" />
  <path d="M 550.0,72.0 L 535.0,97.0 L 535.0,101.0 L 538.0,108.0 L 572.0,109.0 L 581.0,90.0 L 550.0,72.0 Z" fill="#171427" />
  <path d="M 798.0,210.0 L 799.0,243.0 L 775.0,243.0 L 764.0,223.0 L 797.0,211.0 Z" fill="#17142a" />
  <path d="M 523.0,244.0 L 529.0,249.0 L 529.0,251.0 L 534.0,256.0 L 535.0,261.0 L 539.0,264.0 L 533.0,282.0 L 532.0,283.0 L 527.0,280.0 L 523.0,280.0 L 518.0,276.0 L 506.0,271.0 L 506.0,251.0 L 522.0,245.0 Z" fill="#645a4c" />
  <path d="M 328.0,350.0 L 348.0,359.0 L 352.0,374.0 L 329.0,394.0 L 313.0,385.0 L 308.0,370.0 L 327.0,351.0 Z" fill="#1b150b" />
  <path d="M 492.0,371.0 L 495.0,373.0 L 498.0,389.0 L 478.0,410.0 L 458.0,400.0 L 453.0,384.0 L 455.0,376.0 L 465.0,375.0 L 468.0,373.0 L 470.0,375.0 L 472.0,373.0 L 474.0,374.0 L 478.0,372.0 L 491.0,372.0 Z" fill="#5a5643" />
  <path d="M 398.0,179.0 L 390.0,187.0 L 390.0,189.0 L 385.0,192.0 L 385.0,195.0 L 382.0,198.0 L 377.0,199.0 L 376.0,204.0 L 380.0,215.0 L 416.0,218.0 L 419.0,208.0 L 421.0,207.0 L 418.0,191.0 L 416.0,187.0 L 399.0,180.0 Z" fill="#695d4f" />
  <path d="M 494.0,149.0 L 489.0,158.0 L 489.0,162.0 L 496.0,183.0 L 499.0,188.0 L 503.0,187.0 L 521.0,174.0 L 519.0,158.0 L 496.0,150.0 L 499.0,189.0 L 494.0,149.0 Z" fill="#1c1831" />
  <path d="M 621.0,508.0 L 636.0,509.0 L 638.0,523.0 L 632.0,533.0 L 625.0,536.0 L 609.0,539.0 L 597.0,521.0 L 596.0,517.0 L 599.0,509.0 L 620.0,509.0 Z" fill="#0a090a" />
  <path d="M 676.0,69.0 L 658.0,87.0 L 660.0,103.0 L 681.0,113.0 L 699.0,87.0 L 696.0,79.0 L 677.0,70.0 Z" fill="#151223" />
  <path d="M 69.0,0.0 L 98.0,0.0 L 98.0,11.0 L 77.0,33.0 L 74.0,33.0 L 73.0,29.0 L 70.0,1.0 Z" fill="#121019" />
  <path d="M 559.0,160.0 L 580.0,169.0 L 582.0,173.0 L 583.0,184.0 L 571.0,197.0 L 564.0,203.0 L 544.0,193.0 L 542.0,185.0 L 558.0,161.0 Z" fill="#1c1830" />
  <path d="M 664.0,549.0 L 685.0,559.0 L 687.0,567.0 L 676.0,580.0 L 664.0,591.0 L 646.0,582.0 L 642.0,564.0 L 663.0,550.0 Z" fill="#1b172f" />
  <path d="M 0.0,450.0 L 37.0,451.0 L 40.0,460.0 L 40.0,463.0 L 29.0,482.0 L 9.0,480.0 L 0.0,476.0 L 0.0,451.0 Z" fill="#1a162d" />
  <path d="M 502.0,451.0 L 513.0,456.0 L 530.0,467.0 L 526.0,482.0 L 490.0,483.0 L 485.0,466.0 L 496.0,455.0 L 501.0,452.0 Z" fill="#312b25" />
  <path d="M 692.0,387.0 L 687.0,394.0 L 681.0,399.0 L 677.0,404.0 L 677.0,407.0 L 671.0,413.0 L 675.0,426.0 L 690.0,427.0 L 698.0,424.0 L 708.0,424.0 L 712.0,417.0 L 713.0,410.0 L 710.0,399.0 L 693.0,388.0 Z" fill="#6b6257" />
  <path d="M 538.0,109.0 L 573.0,110.0 L 578.0,123.0 L 578.0,126.0 L 562.0,142.0 L 555.0,147.0 L 536.0,138.0 L 532.0,123.0 L 538.0,110.0 Z" fill="#181529" />
  <path d="M 536.0,140.0 L 556.0,148.0 L 559.0,158.0 L 542.0,184.0 L 522.0,175.0 L 521.0,173.0 L 520.0,158.0 L 535.0,141.0 Z" fill="#1b172f" />
  <path d="M 707.0,484.0 L 717.0,484.0 L 721.0,501.0 L 699.0,522.0 L 681.0,514.0 L 676.0,499.0 L 679.0,487.0 L 706.0,485.0 Z" fill="#101013" />
  <path d="M 99.0,0.0 L 130.0,0.0 L 128.0,23.0 L 119.0,27.0 L 107.0,16.0 L 99.0,11.0 L 99.0,1.0 Z" fill="#12101b" />
  <path d="M 180.0,334.0 L 182.0,337.0 L 198.0,346.0 L 202.0,356.0 L 199.0,369.0 L 197.0,371.0 L 167.0,373.0 L 161.0,372.0 L 157.0,357.0 L 167.0,347.0 L 172.0,344.0 L 179.0,335.0 Z" fill="#9f8f6b" />
  <path d="M 612.0,206.0 L 645.0,208.0 L 651.0,222.0 L 645.0,229.0 L 629.0,245.0 L 610.0,238.0 L 605.0,224.0 L 605.0,220.0 L 611.0,207.0 Z" fill="#1b172e" />
  <path d="M 595.0,272.0 L 572.0,289.0 L 577.0,306.0 L 594.0,314.0 L 601.0,309.0 L 619.0,291.0 L 616.0,281.0 L 596.0,274.0 L 595.0,272.0 Z" fill="#8f8271" />
  <path d="M 32.0,268.0 L 41.0,273.0 L 43.0,279.0 L 43.0,282.0 L 32.0,302.0 L 30.0,304.0 L 20.0,302.0 L 0.0,294.0 L 0.0,285.0 L 6.0,279.0 L 31.0,269.0 Z" fill="#13111c" />
  <path d="M 38.0,582.0 L 75.0,585.0 L 77.0,593.0 L 60.0,609.0 L 42.0,617.0 L 33.0,594.0 L 37.0,583.0 Z" fill="#39326d" />
  <path d="M 631.0,435.0 L 649.0,444.0 L 652.0,452.0 L 651.0,464.0 L 635.0,478.0 L 615.0,470.0 L 612.0,461.0 L 631.0,435.0 Z" fill="#211f1d" />
  <path d="M 648.0,21.0 L 676.0,35.0 L 677.0,41.0 L 672.0,53.0 L 636.0,52.0 L 633.0,37.0 L 647.0,22.0 Z" fill="#141122" />
  <path d="M 336.0,119.0 L 344.0,120.0 L 346.0,130.0 L 346.0,135.0 L 340.0,146.0 L 330.0,150.0 L 318.0,152.0 L 305.0,128.0 L 306.0,122.0 L 335.0,120.0 Z" fill="#82796b" />
  <path d="M 330.0,406.0 L 349.0,414.0 L 362.0,422.0 L 359.0,432.0 L 354.0,438.0 L 354.0,442.0 L 319.0,441.0 L 315.0,430.0 L 330.0,407.0 L 357.0,436.0 L 330.0,406.0 Z" fill="#11100a" />
  <path d="M 305.0,575.0 L 287.0,585.0 L 287.0,598.0 L 304.0,614.0 L 313.0,616.0 L 320.0,597.0 L 306.0,576.0 Z" fill="#1e1d15" />
  <path d="M 496.0,568.0 L 501.0,568.0 L 517.0,574.0 L 523.0,592.0 L 514.0,610.0 L 513.0,611.0 L 478.0,594.0 L 476.0,587.0 L 495.0,569.0 Z" fill="#19162c" />
  <path d="M 197.0,301.0 L 205.0,301.0 L 215.0,304.0 L 219.0,323.0 L 219.0,325.0 L 199.0,345.0 L 182.0,336.0 L 178.0,329.0 L 180.0,327.0 L 180.0,320.0 L 184.0,317.0 L 185.0,313.0 L 192.0,305.0 L 196.0,302.0 L 178.0,323.0 L 197.0,301.0 Z" fill="#252118" />
  <path d="M 750.0,581.0 L 732.0,599.0 L 735.0,622.0 L 763.0,622.0 L 770.0,597.0 L 766.0,589.0 L 751.0,582.0 Z" fill="#19152d" />
  <path d="M 451.0,0.0 L 481.0,0.0 L 481.0,13.0 L 473.0,22.0 L 460.0,32.0 L 453.0,26.0 L 453.0,5.0 L 451.0,1.0 Z" fill="#181429" />
  <path d="M 378.0,287.0 L 381.0,287.0 L 385.0,304.0 L 382.0,305.0 L 366.0,323.0 L 341.0,311.0 L 338.0,299.0 L 342.0,290.0 L 365.0,290.0 L 367.0,288.0 L 377.0,288.0 Z" fill="#15150d" />
  <path d="M 531.0,498.0 L 513.0,517.0 L 515.0,532.0 L 535.0,542.0 L 553.0,518.0 L 551.0,507.0 L 532.0,499.0 Z" fill="#0d0d0b" />
  <path d="M 35.0,352.0 L 48.0,357.0 L 51.0,361.0 L 53.0,368.0 L 40.0,393.0 L 37.0,395.0 L 19.0,383.0 L 7.0,377.0 L 34.0,353.0 Z" fill="#1a1824" />
  <path d="M 683.0,305.0 L 681.0,310.0 L 680.0,321.0 L 684.0,332.0 L 687.0,336.0 L 691.0,337.0 L 696.0,343.0 L 700.0,345.0 L 724.0,320.0 L 718.0,307.0 L 683.0,305.0 Z" fill="#342e3d" />
  <path d="M 507.0,31.0 L 512.0,31.0 L 525.0,39.0 L 528.0,54.0 L 508.0,72.0 L 487.0,62.0 L 485.0,55.0 L 496.0,39.0 L 503.0,32.0 L 506.0,32.0 Z" fill="#161325" />
  <path d="M 375.0,229.0 L 363.0,235.0 L 363.0,237.0 L 359.0,240.0 L 360.0,258.0 L 382.0,272.0 L 390.0,251.0 L 376.0,230.0 Z" fill="#918770" />
  <path d="M 294.0,243.0 L 275.0,260.0 L 279.0,277.0 L 291.0,282.0 L 291.0,284.0 L 296.0,286.0 L 319.0,263.0 L 317.0,253.0 L 295.0,244.0 Z" fill="#6f6554" />
  <path d="M 203.0,359.0 L 240.0,359.0 L 245.0,373.0 L 241.0,381.0 L 227.0,392.0 L 202.0,383.0 L 198.0,371.0 L 203.0,360.0 Z" fill="#694018" />
  <path d="M 34.0,532.0 L 48.0,538.0 L 50.0,546.0 L 50.0,549.0 L 35.0,572.0 L 2.0,556.0 L 9.0,549.0 L 33.0,533.0 L 1.0,556.0 L 34.0,532.0 Z" fill="#342b62" />
  <path d="M 693.0,211.0 L 711.0,220.0 L 715.0,235.0 L 693.0,255.0 L 676.0,247.0 L 671.0,231.0 L 692.0,212.0 Z" fill="#1b172f" />
  <path d="M 583.0,185.0 L 607.0,196.0 L 611.0,206.0 L 604.0,221.0 L 570.0,219.0 L 566.0,203.0 L 582.0,186.0 Z" fill="#1c1831" />
  <path d="M 736.0,91.0 L 738.0,91.0 L 742.0,95.0 L 753.0,110.0 L 747.0,129.0 L 744.0,130.0 L 720.0,116.0 L 721.0,100.0 L 735.0,92.0 L 746.0,131.0 L 736.0,91.0 Z" fill="#141122" />
  <path d="M 162.0,0.0 L 196.0,0.0 L 197.0,2.0 L 189.0,31.0 L 188.0,33.0 L 183.0,34.0 L 161.0,20.0 L 162.0,1.0 Z" fill="#14111f" />
  <path d="M 152.0,112.0 L 154.0,114.0 L 156.0,133.0 L 140.0,151.0 L 136.0,153.0 L 118.0,144.0 L 114.0,123.0 L 151.0,113.0 Z" fill="#151321" />
  <path d="M 199.0,246.0 L 208.0,247.0 L 214.0,263.0 L 195.0,283.0 L 192.0,286.0 L 173.0,277.0 L 167.0,256.0 L 171.0,248.0 L 198.0,247.0 Z" fill="#e0cbb4" />
  <path d="M 146.0,49.0 L 149.0,49.0 L 171.0,58.0 L 174.0,69.0 L 151.0,90.0 L 132.0,80.0 L 129.0,67.0 L 145.0,50.0 Z" fill="#14121e" />
  <path d="M 447.0,256.0 L 456.0,261.0 L 462.0,267.0 L 464.0,265.0 L 466.0,269.0 L 467.0,278.0 L 454.0,293.0 L 448.0,299.0 L 431.0,293.0 L 426.0,290.0 L 427.0,289.0 L 425.0,287.0 L 423.0,280.0 L 425.0,270.0 L 446.0,257.0 Z" fill="#948678" />
  <path d="M 537.0,555.0 L 542.0,555.0 L 557.0,562.0 L 562.0,582.0 L 556.0,592.0 L 523.0,591.0 L 518.0,573.0 L 536.0,556.0 Z" fill="#17142a" />
  <path d="M 697.0,269.0 L 681.0,292.0 L 684.0,298.0 L 684.0,304.0 L 718.0,306.0 L 724.0,293.0 L 728.0,282.0 L 698.0,270.0 Z" fill="#1c182f" />
  <path d="M 566.0,426.0 L 576.0,428.0 L 583.0,433.0 L 585.0,431.0 L 591.0,434.0 L 590.0,442.0 L 593.0,450.0 L 569.0,464.0 L 564.0,454.0 L 564.0,449.0 L 561.0,443.0 L 560.0,436.0 L 566.0,427.0 Z" fill="#373225" />
  <path d="M 219.0,326.0 L 228.0,328.0 L 242.0,334.0 L 246.0,345.0 L 240.0,358.0 L 203.0,358.0 L 199.0,346.0 L 218.0,327.0 Z" fill="#382d1a" />
  <path d="M 626.0,329.0 L 639.0,330.0 L 640.0,340.0 L 642.0,344.0 L 637.0,353.0 L 612.0,363.0 L 604.0,349.0 L 600.0,345.0 L 598.0,339.0 L 601.0,332.0 L 625.0,330.0 Z" fill="#867e68" />
  <path d="M 196.0,397.0 L 198.0,398.0 L 198.0,402.0 L 203.0,411.0 L 202.0,413.0 L 205.0,417.0 L 204.0,419.0 L 206.0,421.0 L 206.0,427.0 L 169.0,431.0 L 168.0,429.0 L 163.0,413.0 L 166.0,405.0 L 195.0,398.0 Z" fill="#968e6d" />
  <path d="M 299.0,65.0 L 277.0,84.0 L 280.0,96.0 L 302.0,107.0 L 321.0,84.0 L 318.0,74.0 L 300.0,66.0 Z" fill="#968b7a" />
  <path d="M 337.0,46.0 L 359.0,59.0 L 358.0,75.0 L 341.0,92.0 L 322.0,83.0 L 319.0,74.0 L 336.0,47.0 Z" fill="#191627" />
  <path d="M 264.0,79.0 L 270.0,79.0 L 277.0,85.0 L 280.0,97.0 L 274.0,104.0 L 259.0,119.0 L 236.0,107.0 L 234.0,99.0 L 239.0,87.0 L 249.0,81.0 L 263.0,80.0 Z" fill="#b19e8a" />
  <path d="M 609.0,239.0 L 627.0,245.0 L 633.0,256.0 L 617.0,280.0 L 596.0,273.0 L 595.0,269.0 L 595.0,259.0 L 592.0,255.0 L 598.0,251.0 L 608.0,240.0 Z" fill="#363133" />
  <path d="M 656.0,185.0 L 659.0,185.0 L 689.0,199.0 L 693.0,210.0 L 671.0,230.0 L 653.0,223.0 L 650.0,219.0 L 646.0,207.0 L 656.0,186.0 Z" fill="#1b172f" />
  <path d="M 450.0,27.0 L 453.0,27.0 L 460.0,34.0 L 462.0,45.0 L 456.0,52.0 L 447.0,60.0 L 424.0,52.0 L 422.0,48.0 L 419.0,36.0 L 424.0,30.0 L 449.0,28.0 Z" fill="#19152c" />
  <path d="M 402.0,448.0 L 420.0,456.0 L 424.0,467.0 L 424.0,474.0 L 414.0,482.0 L 404.0,493.0 L 401.0,493.0 L 390.0,486.0 L 384.0,484.0 L 381.0,468.0 L 396.0,452.0 L 401.0,449.0 Z" fill="#544f3f" />
  <path d="M 113.0,502.0 L 116.0,502.0 L 133.0,511.0 L 137.0,520.0 L 137.0,522.0 L 121.0,539.0 L 112.0,546.0 L 96.0,538.0 L 90.0,522.0 L 112.0,503.0 Z" fill="#372e67" />
  <path d="M 416.0,37.0 L 419.0,38.0 L 423.0,52.0 L 416.0,64.0 L 392.0,70.0 L 385.0,55.0 L 380.0,48.0 L 381.0,45.0 L 384.0,44.0 L 415.0,38.0 Z" fill="#18152a" />
  <path d="M 639.0,523.0 L 663.0,532.0 L 664.0,548.0 L 648.0,560.0 L 641.0,563.0 L 632.0,537.0 L 632.0,534.0 L 638.0,524.0 Z" fill="#161322" />
  <path d="M 788.0,157.0 L 774.0,166.0 L 766.0,174.0 L 766.0,176.0 L 771.0,187.0 L 786.0,191.0 L 799.0,197.0 L 799.0,158.0 L 789.0,158.0 L 799.0,198.0 L 788.0,157.0 Z" fill="#161327" />
  <path d="M 276.0,482.0 L 301.0,490.0 L 303.0,506.0 L 291.0,516.0 L 281.0,521.0 L 270.0,495.0 L 275.0,483.0 Z" fill="#070805" />
  <path d="M 514.0,533.0 L 534.0,542.0 L 538.0,554.0 L 517.0,573.0 L 501.0,567.0 L 497.0,567.0 L 493.0,552.0 L 513.0,534.0 Z" fill="#0b0b0c" />
  <path d="M 769.0,0.0 L 799.0,0.0 L 799.0,23.0 L 771.0,13.0 L 769.0,1.0 Z" fill="#121021" />
  <path d="M 718.0,57.0 L 736.0,64.0 L 742.0,78.0 L 738.0,90.0 L 721.0,99.0 L 700.0,87.0 L 698.0,79.0 L 717.0,58.0 Z" fill="#141122" />
  <path d="M 358.0,76.0 L 342.0,92.0 L 346.0,109.0 L 350.0,111.0 L 382.0,109.0 L 386.0,99.0 L 385.0,92.0 L 359.0,77.0 Z" fill="#191527" />
  <path d="M 66.0,71.0 L 86.0,78.0 L 91.0,92.0 L 71.0,113.0 L 48.0,101.0 L 46.0,96.0 L 66.0,72.0 Z" fill="#13111a" />
  <path d="M 47.0,101.0 L 70.0,114.0 L 73.0,134.0 L 72.0,139.0 L 38.0,139.0 L 34.0,125.0 L 47.0,101.0 Z" fill="#13101a" />
  <path d="M 518.0,357.0 L 522.0,357.0 L 539.0,364.0 L 542.0,373.0 L 537.0,382.0 L 531.0,387.0 L 525.0,395.0 L 523.0,397.0 L 519.0,397.0 L 500.0,388.0 L 496.0,375.0 L 496.0,372.0 L 507.0,366.0 L 517.0,358.0 Z" fill="#524c38" />
  <path d="M 599.0,66.0 L 618.0,66.0 L 630.0,68.0 L 634.0,77.0 L 620.0,101.0 L 617.0,103.0 L 588.0,87.0 L 595.0,69.0 L 596.0,67.0 L 598.0,67.0 Z" fill="#161324" />
  <path d="M 523.0,593.0 L 555.0,593.0 L 563.0,620.0 L 563.0,622.0 L 515.0,622.0 L 514.0,611.0 L 523.0,594.0 Z" fill="#1a162e" />
  <path d="M 0.0,295.0 L 0.0,332.0 L 29.0,334.0 L 36.0,321.0 L 36.0,317.0 L 31.0,305.0 L 16.0,302.0 L 0.0,295.0 Z" fill="#12111b" />
  <path d="M 440.0,517.0 L 471.0,531.0 L 474.0,542.0 L 452.0,562.0 L 434.0,555.0 L 432.0,553.0 L 427.0,539.0 L 436.0,520.0 L 439.0,518.0 Z" fill="#0e0e10" />
  <path d="M 197.0,95.0 L 235.0,95.0 L 233.0,99.0 L 235.0,108.0 L 218.0,127.0 L 215.0,125.0 L 209.0,125.0 L 197.0,121.0 L 192.0,107.0 L 197.0,96.0 Z" fill="#3c3744" />
  <path d="M 799.0,478.0 L 790.0,482.0 L 766.0,486.0 L 767.0,490.0 L 779.0,508.0 L 799.0,509.0 L 799.0,480.0 Z" fill="#131021" />
  <path d="M 335.0,227.0 L 358.0,240.0 L 358.0,253.0 L 346.0,263.0 L 338.0,272.0 L 321.0,263.0 L 318.0,255.0 L 321.0,246.0 L 335.0,227.0 Z" fill="#65614e" />
  <path d="M 360.0,459.0 L 380.0,468.0 L 383.0,484.0 L 374.0,491.0 L 364.0,502.0 L 342.0,493.0 L 338.0,480.0 L 359.0,460.0 Z" fill="#29271c" />
  <path d="M 77.0,476.0 L 66.0,499.0 L 71.0,513.0 L 73.0,515.0 L 90.0,521.0 L 113.0,501.0 L 112.0,494.0 L 110.0,491.0 L 77.0,476.0 Z" fill="#372f60" />
  <path d="M 90.0,275.0 L 123.0,276.0 L 125.0,280.0 L 125.0,285.0 L 115.0,301.0 L 119.0,304.0 L 114.0,308.0 L 113.0,311.0 L 82.0,296.0 L 82.0,293.0 L 87.0,283.0 L 87.0,279.0 L 90.0,276.0 L 116.0,304.0 L 117.0,307.0 L 90.0,275.0 Z" fill="#4c464e" />
  <path d="M 620.0,114.0 L 638.0,122.0 L 643.0,138.0 L 620.0,158.0 L 604.0,150.0 L 602.0,148.0 L 598.0,134.0 L 619.0,115.0 Z" fill="#171427" />
  <path d="M 451.0,145.0 L 434.0,156.0 L 433.0,172.0 L 448.0,182.0 L 459.0,187.0 L 465.0,168.0 L 452.0,146.0 Z" fill="#1e1a36" />
  <path d="M 166.0,192.0 L 178.0,200.0 L 181.0,209.0 L 172.0,224.0 L 169.0,234.0 L 166.0,235.0 L 145.0,226.0 L 144.0,217.0 L 144.0,212.0 L 165.0,193.0 L 168.0,236.0 L 166.0,192.0 Z" fill="#554f58" />
  <path d="M 47.0,202.0 L 50.0,202.0 L 53.0,213.0 L 61.0,228.0 L 60.0,234.0 L 32.0,234.0 L 25.0,223.0 L 29.0,208.0 L 46.0,203.0 Z" fill="#13121e" />
  <path d="M 53.0,369.0 L 79.0,381.0 L 80.0,392.0 L 78.0,393.0 L 78.0,396.0 L 81.0,396.0 L 81.0,400.0 L 73.0,405.0 L 51.0,407.0 L 41.0,406.0 L 39.0,395.0 L 53.0,370.0 L 79.0,404.0 L 81.0,404.0 L 53.0,369.0 Z" fill="#282435" />
  <path d="M 185.0,156.0 L 163.0,178.0 L 166.0,190.0 L 179.0,199.0 L 204.0,178.0 L 199.0,163.0 L 186.0,157.0 Z" fill="#7b767d" />
  <path d="M 771.0,106.0 L 774.0,106.0 L 784.0,121.0 L 775.0,134.0 L 773.0,136.0 L 767.0,137.0 L 748.0,137.0 L 747.0,134.0 L 747.0,130.0 L 754.0,112.0 L 770.0,107.0 Z" fill="#141122" />
  <path d="M 267.0,527.0 L 280.0,527.0 L 284.0,539.0 L 284.0,542.0 L 269.0,558.0 L 263.0,564.0 L 261.0,564.0 L 244.0,556.0 L 238.0,537.0 L 241.0,529.0 L 266.0,528.0 Z" fill="#070805" />
  <path d="M 258.0,311.0 L 291.0,322.0 L 292.0,325.0 L 282.0,346.0 L 277.0,347.0 L 247.0,344.0 L 243.0,334.0 L 257.0,312.0 Z" fill="#13120b" />
  <path d="M 166.0,257.0 L 146.0,260.0 L 143.0,262.0 L 142.0,260.0 L 140.0,260.0 L 130.0,267.0 L 126.0,271.0 L 124.0,276.0 L 127.0,284.0 L 154.0,296.0 L 171.0,278.0 L 171.0,274.0 L 166.0,259.0 Z" fill="#f1ede8" />
  <path d="M 131.0,81.0 L 151.0,91.0 L 155.0,106.0 L 154.0,111.0 L 124.0,120.0 L 114.0,120.0 L 110.0,102.0 L 130.0,82.0 Z" fill="#14121e" />
  <path d="M 41.0,463.0 L 76.0,476.0 L 66.0,498.0 L 36.0,497.0 L 30.0,482.0 L 40.0,464.0 Z" fill="#231e40" />
  <path d="M 776.0,275.0 L 799.0,276.0 L 799.0,300.0 L 774.0,307.0 L 767.0,307.0 L 763.0,296.0 L 775.0,276.0 Z" fill="#171429" />
  <path d="M 617.0,388.0 L 643.0,388.0 L 645.0,398.0 L 648.0,403.0 L 646.0,407.0 L 628.0,425.0 L 624.0,424.0 L 619.0,420.0 L 614.0,420.0 L 610.0,418.0 L 607.0,415.0 L 603.0,399.0 L 607.0,389.0 L 616.0,389.0 Z" fill="#716c56" />
  <path d="M 117.0,145.0 L 137.0,154.0 L 141.0,166.0 L 119.0,188.0 L 102.0,180.0 L 100.0,177.0 L 98.0,165.0 L 117.0,146.0 Z" fill="#161321" />
  <path d="M 728.0,284.0 L 762.0,296.0 L 766.0,306.0 L 759.0,314.0 L 741.0,326.0 L 725.0,320.0 L 719.0,305.0 L 728.0,285.0 Z" fill="#19162e" />
  <path d="M 317.0,472.0 L 302.0,490.0 L 303.0,505.0 L 306.0,508.0 L 324.0,515.0 L 340.0,493.0 L 340.0,490.0 L 337.0,480.0 L 317.0,472.0 Z" fill="#10110d" />
  <path d="M 499.0,388.0 L 520.0,398.0 L 525.0,409.0 L 524.0,415.0 L 520.0,422.0 L 502.0,431.0 L 483.0,420.0 L 479.0,412.0 L 479.0,410.0 L 499.0,388.0 Z" fill="#4e4834" />
  <path d="M 512.0,483.0 L 525.0,483.0 L 530.0,497.0 L 518.0,512.0 L 512.0,517.0 L 506.0,515.0 L 488.0,508.0 L 485.0,500.0 L 485.0,494.0 L 490.0,484.0 L 511.0,484.0 Z" fill="#23201a" />
  <path d="M 635.0,354.0 L 637.0,354.0 L 636.0,357.0 L 639.0,362.0 L 639.0,372.0 L 641.0,374.0 L 641.0,379.0 L 643.0,381.0 L 644.0,380.0 L 643.0,387.0 L 607.0,388.0 L 606.0,386.0 L 612.0,364.0 L 634.0,355.0 Z" fill="#625b46" />
  <path d="M 44.0,282.0 L 76.0,297.0 L 68.0,317.0 L 37.0,318.0 L 31.0,304.0 L 43.0,283.0 Z" fill="#14121e" />
  <path d="M 655.0,318.0 L 679.0,319.0 L 685.0,335.0 L 667.0,352.0 L 643.0,344.0 L 639.0,329.0 L 641.0,323.0 L 645.0,319.0 L 654.0,319.0 Z" fill="#a79a87" />
  <path d="M 602.0,400.0 L 568.0,403.0 L 564.0,410.0 L 566.0,425.0 L 576.0,427.0 L 583.0,432.0 L 585.0,430.0 L 591.0,433.0 L 607.0,416.0 L 602.0,400.0 Z" fill="#5f5743" />
  <path d="M 741.0,467.0 L 718.0,482.0 L 722.0,500.0 L 738.0,507.0 L 751.0,496.0 L 765.0,487.0 L 760.0,475.0 L 742.0,468.0 Z" fill="#100e1a" />
  <path d="M 0.0,216.0 L 0.0,246.0 L 23.0,248.0 L 30.0,235.0 L 26.0,225.0 L 24.0,223.0 L 9.0,222.0 L 0.0,216.0 Z" fill="#14111c" />
  <path d="M 764.0,488.0 L 766.0,489.0 L 778.0,508.0 L 771.0,522.0 L 769.0,524.0 L 744.0,523.0 L 738.0,508.0 L 763.0,489.0 Z" fill="#141122" />
  <path d="M 378.0,49.0 L 380.0,49.0 L 384.0,55.0 L 391.0,69.0 L 390.0,80.0 L 386.0,91.0 L 382.0,90.0 L 359.0,76.0 L 360.0,59.0 L 377.0,50.0 Z" fill="#18152a" />
  <path d="M 350.0,553.0 L 385.0,553.0 L 389.0,567.0 L 379.0,582.0 L 374.0,586.0 L 348.0,574.0 L 346.0,563.0 L 350.0,553.0 Z" fill="#100f0f" />
  <path d="M 738.0,536.0 L 740.0,536.0 L 756.0,554.0 L 756.0,559.0 L 750.0,575.0 L 747.0,576.0 L 723.0,560.0 L 725.0,544.0 L 737.0,537.0 L 749.0,577.0 L 738.0,536.0 Z" fill="#19152d" />
  <path d="M 432.0,173.0 L 459.0,189.0 L 460.0,196.0 L 456.0,205.0 L 422.0,205.0 L 419.0,191.0 L 417.0,188.0 L 431.0,174.0 Z" fill="#221e35" />
  <path d="M 261.0,130.0 L 270.0,133.0 L 282.0,142.0 L 282.0,158.0 L 275.0,167.0 L 268.0,174.0 L 266.0,174.0 L 264.0,172.0 L 247.0,166.0 L 244.0,155.0 L 250.0,148.0 L 260.0,131.0 L 268.0,175.0 L 261.0,130.0 Z" fill="#b6b4a1" />
  <path d="M 521.0,175.0 L 499.0,190.0 L 498.0,193.0 L 503.0,209.0 L 523.0,217.0 L 544.0,194.0 L 542.0,186.0 L 540.0,184.0 L 522.0,176.0 Z" fill="#1d1933" />
  <path d="M 422.0,206.0 L 455.0,207.0 L 459.0,221.0 L 458.0,224.0 L 445.0,238.0 L 420.0,229.0 L 417.0,217.0 L 420.0,208.0 L 422.0,207.0 Z" fill="#3e363e" />
  <path d="M 268.0,397.0 L 271.0,397.0 L 291.0,406.0 L 293.0,419.0 L 285.0,425.0 L 272.0,439.0 L 254.0,430.0 L 251.0,419.0 L 267.0,398.0 Z" fill="#3e2109" />
  <path d="M 798.0,89.0 L 799.0,118.0 L 784.0,120.0 L 774.0,105.0 L 777.0,93.0 L 789.0,93.0 L 797.0,90.0 Z" fill="#131021" />
  <path d="M 732.0,200.0 L 712.0,219.0 L 716.0,235.0 L 733.0,242.0 L 758.0,220.0 L 755.0,211.0 L 733.0,201.0 Z" fill="#1a162e" />
  <path d="M 774.0,454.0 L 788.0,456.0 L 799.0,460.0 L 798.0,478.0 L 790.0,481.0 L 766.0,485.0 L 762.0,477.0 L 762.0,474.0 L 774.0,455.0 Z" fill="#120f20" />
  <path d="M 574.0,546.0 L 601.0,563.0 L 602.0,569.0 L 599.0,577.0 L 571.0,581.0 L 562.0,580.0 L 558.0,561.0 L 573.0,547.0 Z" fill="#171427" />
  <path d="M 796.0,33.0 L 799.0,33.0 L 799.0,64.0 L 778.0,63.0 L 768.0,48.0 L 768.0,46.0 L 783.0,38.0 L 795.0,34.0 Z" fill="#131021" />
  <path d="M 429.0,352.0 L 431.0,352.0 L 443.0,363.0 L 448.0,364.0 L 450.0,367.0 L 454.0,369.0 L 454.0,377.0 L 452.0,382.0 L 417.0,388.0 L 411.0,367.0 L 428.0,353.0 Z" fill="#38352d" />
  <path d="M 232.0,536.0 L 237.0,536.0 L 242.0,556.0 L 225.0,571.0 L 200.0,560.0 L 196.0,551.0 L 196.0,548.0 L 200.0,540.0 L 231.0,537.0 Z" fill="#0c0d0c" />
  <path d="M 0.0,188.0 L 17.0,188.0 L 24.0,203.0 L 28.0,208.0 L 24.0,222.0 L 9.0,221.0 L 2.0,217.0 L 0.0,215.0 L 0.0,189.0 Z" fill="#14111c" />
  <path d="M 137.0,348.0 L 157.0,358.0 L 158.0,366.0 L 161.0,373.0 L 160.0,376.0 L 124.0,389.0 L 120.0,388.0 L 117.0,366.0 L 136.0,349.0 Z" fill="#d9c3a0" />
  <path d="M 702.0,533.0 L 724.0,544.0 L 722.0,561.0 L 706.0,575.0 L 688.0,566.0 L 686.0,558.0 L 701.0,534.0 Z" fill="#19152d" />
  <path d="M 542.0,375.0 L 561.0,383.0 L 566.0,400.0 L 566.0,405.0 L 563.0,411.0 L 526.0,410.0 L 521.0,398.0 L 523.0,398.0 L 538.0,382.0 L 541.0,376.0 Z" fill="#7a775f" />
  <path d="M 448.0,383.0 L 452.0,383.0 L 457.0,401.0 L 439.0,419.0 L 434.0,419.0 L 432.0,416.0 L 424.0,414.0 L 415.0,407.0 L 412.0,399.0 L 417.0,389.0 L 447.0,384.0 Z" fill="#54523e" />
  <path d="M 561.0,255.0 L 540.0,265.0 L 533.0,283.0 L 535.0,292.0 L 571.0,290.0 L 572.0,287.0 L 566.0,276.0 L 561.0,255.0 Z" fill="#928372" />
  <path d="M 0.0,477.0 L 0.0,513.0 L 27.0,513.0 L 35.0,499.0 L 35.0,496.0 L 29.0,483.0 L 9.0,481.0 L 0.0,477.0 Z" fill="#231e3f" />
  <path d="M 37.0,319.0 L 67.0,319.0 L 74.0,334.0 L 74.0,337.0 L 70.0,338.0 L 51.0,357.0 L 44.0,355.0 L 36.0,351.0 L 29.0,335.0 L 37.0,320.0 L 70.0,340.0 L 37.0,319.0 Z" fill="#191622" />
  <path d="M 482.0,0.0 L 513.0,0.0 L 511.0,12.0 L 511.0,29.0 L 506.0,31.0 L 502.0,31.0 L 482.0,13.0 L 482.0,1.0 Z" fill="#151225" />
  <path d="M 448.0,326.0 L 450.0,326.0 L 453.0,331.0 L 453.0,334.0 L 457.0,335.0 L 463.0,345.0 L 456.0,367.0 L 453.0,368.0 L 448.0,363.0 L 443.0,362.0 L 431.0,351.0 L 432.0,334.0 L 447.0,327.0 L 430.0,351.0 L 455.0,369.0 L 448.0,326.0 Z" fill="#6d6554" />
  <path d="M 0.0,0.0 L 8.0,1.0 L 32.0,25.0 L 26.0,37.0 L 8.0,36.0 L 0.0,33.0 L 0.0,1.0 Z" fill="#161116" />
  <path d="M 260.0,0.0 L 290.0,0.0 L 289.0,12.0 L 271.0,31.0 L 262.0,24.0 L 261.0,1.0 Z" fill="#151223" />
  <path d="M 347.0,111.0 L 381.0,111.0 L 385.0,124.0 L 385.0,128.0 L 377.0,138.0 L 372.0,142.0 L 368.0,141.0 L 347.0,133.0 L 344.0,119.0 L 347.0,112.0 Z" fill="#4c4442" />
  <path d="M 672.0,497.0 L 675.0,497.0 L 680.0,514.0 L 664.0,531.0 L 639.0,522.0 L 636.0,508.0 L 639.0,501.0 L 671.0,498.0 Z" fill="#1e1e1f" />
  <path d="M 629.0,535.0 L 631.0,535.0 L 640.0,564.0 L 603.0,568.0 L 602.0,562.0 L 607.0,549.0 L 608.0,541.0 L 626.0,536.0 L 628.0,536.0 L 641.0,564.0 L 629.0,535.0 Z" fill="#171527" />
  <path d="M 353.0,0.0 L 393.0,0.0 L 392.0,7.0 L 388.0,11.0 L 377.0,29.0 L 355.0,19.0 L 353.0,1.0 Z" fill="#161326" />
  <path d="M 649.0,0.0 L 672.0,0.0 L 679.0,17.0 L 679.0,25.0 L 676.0,34.0 L 661.0,27.0 L 648.0,19.0 L 649.0,1.0 Z" fill="#131021" />
  <path d="M 429.0,113.0 L 449.0,121.0 L 454.0,136.0 L 451.0,144.0 L 434.0,155.0 L 409.0,144.0 L 407.0,136.0 L 428.0,114.0 Z" fill="#1b172f" />
  <path d="M 768.0,137.0 L 775.0,138.0 L 787.0,157.0 L 774.0,165.0 L 766.0,173.0 L 749.0,168.0 L 742.0,149.0 L 747.0,139.0 L 767.0,138.0 Z" fill="#151224" />
  <path d="M 459.0,223.0 L 482.0,231.0 L 485.0,241.0 L 483.0,246.0 L 471.0,257.0 L 465.0,265.0 L 464.0,264.0 L 462.0,266.0 L 456.0,260.0 L 448.0,255.0 L 446.0,241.0 L 446.0,238.0 L 459.0,224.0 Z" fill="#383233" />
  <path d="M 715.0,236.0 L 733.0,243.0 L 739.0,258.0 L 729.0,280.0 L 726.0,281.0 L 697.0,268.0 L 694.0,255.0 L 714.0,237.0 Z" fill="#1a162e" />
  <path d="M 167.0,107.0 L 192.0,108.0 L 196.0,123.0 L 182.0,143.0 L 181.0,144.0 L 157.0,132.0 L 154.0,112.0 L 156.0,108.0 L 166.0,108.0 Z" fill="#161424" />
  <path d="M 247.0,167.0 L 264.0,173.0 L 269.0,177.0 L 271.0,193.0 L 266.0,206.0 L 245.0,205.0 L 229.0,201.0 L 226.0,189.0 L 246.0,168.0 Z" fill="#d3d2bf" />
  <path d="M 235.0,288.0 L 240.0,288.0 L 254.0,294.0 L 258.0,308.0 L 258.0,310.0 L 247.0,325.0 L 243.0,333.0 L 240.0,333.0 L 228.0,327.0 L 221.0,326.0 L 218.0,318.0 L 217.0,304.0 L 222.0,300.0 L 227.0,299.0 L 228.0,298.0 L 226.0,296.0 L 234.0,289.0 Z" fill="#16150e" />
  <path d="M 121.0,201.0 L 143.0,212.0 L 144.0,226.0 L 130.0,242.0 L 126.0,245.0 L 106.0,235.0 L 104.0,225.0 L 120.0,202.0 Z" fill="#181526" />
  <path d="M 293.0,325.0 L 282.0,347.0 L 286.0,360.0 L 290.0,363.0 L 308.0,369.0 L 328.0,349.0 L 325.0,339.0 L 294.0,326.0 Z" fill="#241a0e" />
  <path d="M 213.0,503.0 L 239.0,520.0 L 240.0,530.0 L 237.0,535.0 L 206.0,539.0 L 199.0,538.0 L 194.0,520.0 L 213.0,503.0 Z" fill="#090905" />
  <path d="M 415.0,65.0 L 417.0,67.0 L 421.0,83.0 L 426.0,92.0 L 424.0,97.0 L 387.0,97.0 L 386.0,92.0 L 391.0,80.0 L 392.0,71.0 L 414.0,66.0 Z" fill="#19152d" />
  <path d="M 254.0,25.0 L 262.0,25.0 L 270.0,32.0 L 272.0,40.0 L 270.0,46.0 L 243.0,55.0 L 230.0,31.0 L 231.0,29.0 L 235.0,28.0 L 253.0,26.0 Z" fill="#161324" />
  <path d="M 441.0,437.0 L 462.0,446.0 L 465.0,454.0 L 464.0,459.0 L 446.0,478.0 L 442.0,479.0 L 427.0,473.0 L 425.0,471.0 L 425.0,467.0 L 421.0,458.0 L 421.0,455.0 L 440.0,438.0 Z" fill="#2f2921" />
  <path d="M 29.0,594.0 L 32.0,594.0 L 34.0,597.0 L 41.0,615.0 L 41.0,621.0 L 0.0,622.0 L 0.0,599.0 L 28.0,595.0 Z" fill="#352e65" />
  <path d="M 668.0,162.0 L 702.0,164.0 L 705.0,175.0 L 690.0,199.0 L 659.0,184.0 L 659.0,181.0 L 667.0,163.0 L 658.0,184.0 L 668.0,162.0 Z" fill="#19162d" />
  <path d="M 737.0,23.0 L 755.0,32.0 L 759.0,42.0 L 736.0,63.0 L 718.0,56.0 L 714.0,42.0 L 716.0,35.0 L 736.0,24.0 Z" fill="#131021" />
  <path d="M 0.0,115.0 L 13.0,121.0 L 32.0,126.0 L 37.0,137.0 L 37.0,141.0 L 31.0,153.0 L 0.0,152.0 L 0.0,117.0 Z" fill="#141018" />
  <path d="M 468.0,278.0 L 448.0,300.0 L 452.0,315.0 L 463.0,316.0 L 474.0,313.0 L 485.0,313.0 L 490.0,312.0 L 492.0,308.0 L 493.0,303.0 L 489.0,287.0 L 475.0,280.0 L 470.0,278.0 L 469.0,279.0 Z" fill="#8b7d6e" />
  <path d="M 200.0,561.0 L 195.0,576.0 L 202.0,598.0 L 207.0,601.0 L 215.0,598.0 L 227.0,590.0 L 225.0,579.0 L 226.0,577.0 L 223.0,571.0 L 200.0,561.0 Z" fill="#39334f" />
  <path d="M 210.0,445.0 L 230.0,453.0 L 235.0,469.0 L 234.0,475.0 L 214.0,488.0 L 190.0,475.0 L 189.0,467.0 L 200.0,458.0 L 200.0,456.0 L 205.0,452.0 L 209.0,446.0 Z" fill="#2f2314" />
  <path d="M 496.0,124.0 L 531.0,124.0 L 536.0,139.0 L 520.0,157.0 L 517.0,157.0 L 496.0,149.0 L 494.0,147.0 L 491.0,134.0 L 496.0,125.0 Z" fill="#19152c" />
  <path d="M 88.0,451.0 L 89.0,452.0 L 87.0,453.0 L 78.0,475.0 L 112.0,491.0 L 127.0,464.0 L 126.0,461.0 L 122.0,458.0 L 121.0,455.0 L 118.0,457.0 L 111.0,453.0 L 109.0,455.0 L 107.0,453.0 L 102.0,452.0 L 96.0,452.0 L 95.0,454.0 L 92.0,452.0 L 90.0,454.0 L 120.0,457.0 L 88.0,451.0 Z" fill="#2f284c" />
  <path d="M 788.0,570.0 L 799.0,570.0 L 799.0,603.0 L 781.0,598.0 L 771.0,597.0 L 767.0,590.0 L 767.0,588.0 L 776.0,579.0 L 787.0,571.0 Z" fill="#19152d" />
  <path d="M 684.0,125.0 L 703.0,133.0 L 707.0,147.0 L 707.0,152.0 L 702.0,163.0 L 676.0,162.0 L 667.0,160.0 L 662.0,147.0 L 683.0,126.0 Z" fill="#161326" />
  <path d="M 659.0,284.0 L 666.0,285.0 L 681.0,293.0 L 683.0,298.0 L 683.0,304.0 L 680.0,310.0 L 679.0,318.0 L 655.0,317.0 L 643.0,319.0 L 638.0,300.0 L 655.0,285.0 L 658.0,285.0 Z" fill="#837568" />
  <path d="M 312.0,385.0 L 292.0,406.0 L 294.0,420.0 L 310.0,428.0 L 315.0,429.0 L 329.0,407.0 L 330.0,403.0 L 328.0,395.0 L 313.0,386.0 Z" fill="#341f0b" />
  <path d="M 636.0,53.0 L 671.0,54.0 L 675.0,67.0 L 675.0,69.0 L 666.0,79.0 L 658.0,86.0 L 656.0,86.0 L 634.0,76.0 L 630.0,66.0 L 636.0,54.0 Z" fill="#151223" />
  <path d="M 611.0,30.0 L 617.0,30.0 L 632.0,38.0 L 635.0,54.0 L 630.0,65.0 L 596.0,65.0 L 591.0,54.0 L 591.0,51.0 L 602.0,36.0 L 608.0,31.0 L 610.0,31.0 Z" fill="#151223" />
  <path d="M 766.0,308.0 L 768.0,308.0 L 783.0,337.0 L 764.0,353.0 L 746.0,345.0 L 741.0,327.0 L 755.0,318.0 L 765.0,309.0 Z" fill="#171427" />
  <path d="M 331.0,179.0 L 349.0,181.0 L 353.0,193.0 L 353.0,196.0 L 335.0,216.0 L 334.0,219.0 L 330.0,219.0 L 320.0,210.0 L 314.0,207.0 L 311.0,195.0 L 313.0,182.0 L 323.0,182.0 L 330.0,180.0 Z" fill="#b6b6a1" />
  <path d="M 526.0,411.0 L 563.0,412.0 L 565.0,421.0 L 565.0,427.0 L 559.0,435.0 L 541.0,442.0 L 535.0,442.0 L 524.0,427.0 L 522.0,422.0 L 526.0,412.0 Z" fill="#7f7b62" />
  <path d="M 410.0,598.0 L 412.0,601.0 L 413.0,622.0 L 381.0,622.0 L 383.0,607.0 L 401.0,600.0 L 409.0,599.0 Z" fill="#17142a" />
  <path d="M 31.0,234.0 L 60.0,235.0 L 65.0,249.0 L 65.0,251.0 L 42.0,272.0 L 40.0,272.0 L 32.0,266.0 L 24.0,250.0 L 31.0,234.0 Z" fill="#13111d" />
  <path d="M 709.0,592.0 L 731.0,600.0 L 734.0,622.0 L 693.0,622.0 L 693.0,611.0 L 708.0,593.0 Z" fill="#18142d" />
  <path d="M 394.0,0.0 L 426.0,0.0 L 424.0,27.0 L 420.0,33.0 L 397.0,9.0 L 393.0,7.0 L 394.0,1.0 Z" fill="#171427" />
  <path d="M 586.0,88.0 L 589.0,88.0 L 618.0,104.0 L 620.0,113.0 L 598.0,133.0 L 580.0,126.0 L 573.0,109.0 L 581.0,91.0 L 585.0,89.0 Z" fill="#161425" />
  <path d="M 172.0,277.0 L 191.0,286.0 L 196.0,298.0 L 196.0,301.0 L 184.0,313.0 L 183.0,317.0 L 178.0,322.0 L 155.0,313.0 L 154.0,297.0 L 172.0,277.0 Z" fill="#f4eee0" />
  <path d="M 554.0,517.0 L 575.0,529.0 L 574.0,545.0 L 557.0,561.0 L 542.0,554.0 L 539.0,554.0 L 536.0,544.0 L 536.0,542.0 L 554.0,517.0 Z" fill="#0a0a0c" />
  <path d="M 633.0,258.0 L 656.0,267.0 L 658.0,279.0 L 658.0,284.0 L 655.0,284.0 L 638.0,299.0 L 635.0,299.0 L 620.0,292.0 L 617.0,281.0 L 625.0,268.0 L 633.0,259.0 L 619.0,292.0 L 633.0,258.0 Z" fill="#5a5149" />
  <path d="M 6.0,513.0 L 26.0,514.0 L 34.0,531.0 L 0.0,555.0 L 0.0,514.0 L 5.0,514.0 L 0.0,556.0 L 6.0,513.0 Z" fill="#302959" />
  <path d="M 327.0,528.0 L 304.0,550.0 L 308.0,563.0 L 310.0,565.0 L 345.0,564.0 L 349.0,554.0 L 346.0,539.0 L 344.0,536.0 L 328.0,529.0 Z" fill="#1c1d16" />
  <path d="M 358.0,254.0 L 339.0,272.0 L 339.0,278.0 L 342.0,289.0 L 365.0,289.0 L 367.0,287.0 L 381.0,286.0 L 381.0,282.0 L 384.0,278.0 L 380.0,271.0 L 376.0,270.0 L 374.0,267.0 L 373.0,268.0 L 371.0,265.0 L 360.0,259.0 L 358.0,256.0 Z" fill="#3a382b" />
  <path d="M 677.0,42.0 L 713.0,42.0 L 717.0,53.0 L 717.0,57.0 L 697.0,79.0 L 676.0,68.0 L 672.0,54.0 L 677.0,43.0 Z" fill="#141122" />
  <path d="M 390.0,567.0 L 375.0,587.0 L 376.0,600.0 L 378.0,603.0 L 382.0,607.0 L 401.0,599.0 L 409.0,598.0 L 414.0,593.0 L 411.0,576.0 L 391.0,568.0 Z" fill="#100e19" />
  <path d="M 197.0,0.0 L 235.0,0.0 L 230.0,29.0 L 215.0,18.0 L 197.0,1.0 Z" fill="#151223" />
  <path d="M 724.0,321.0 L 741.0,328.0 L 746.0,346.0 L 728.0,363.0 L 703.0,351.0 L 701.0,345.0 L 723.0,322.0 Z" fill="#181428" />
  <path d="M 236.0,0.0 L 259.0,0.0 L 261.0,4.0 L 261.0,24.0 L 246.0,25.0 L 232.0,28.0 L 235.0,1.0 Z" fill="#151223" />
  <path d="M 729.0,380.0 L 753.0,390.0 L 757.0,400.0 L 752.0,413.0 L 738.0,414.0 L 714.0,412.0 L 711.0,398.0 L 728.0,381.0 Z" fill="#100e1b" />
  <path d="M 33.0,416.0 L 38.0,416.0 L 44.0,437.0 L 38.0,449.0 L 0.0,449.0 L 0.0,419.0 L 17.0,419.0 L 32.0,417.0 Z" fill="#151223" />
  <path d="M 533.0,233.0 L 563.0,233.0 L 567.0,249.0 L 560.0,255.0 L 540.0,264.0 L 536.0,261.0 L 535.0,256.0 L 525.0,244.0 L 528.0,234.0 L 532.0,234.0 Z" fill="#332d34" />
  <path d="M 723.0,561.0 L 707.0,575.0 L 710.0,591.0 L 731.0,599.0 L 749.0,581.0 L 748.0,577.0 L 724.0,562.0 Z" fill="#1a1530" />
  <path d="M 174.0,70.0 L 192.0,78.0 L 196.0,91.0 L 196.0,96.0 L 192.0,105.0 L 156.0,107.0 L 152.0,90.0 L 173.0,71.0 Z" fill="#151322" />
  <path d="M 80.0,296.0 L 113.0,312.0 L 111.0,315.0 L 111.0,320.0 L 97.0,334.0 L 94.0,342.0 L 88.0,342.0 L 75.0,336.0 L 70.0,325.0 L 68.0,318.0 L 77.0,298.0 L 79.0,297.0 Z" fill="#282430" />
  <path d="M 34.0,55.0 L 61.0,57.0 L 66.0,69.0 L 48.0,93.0 L 45.0,95.0 L 32.0,87.0 L 25.0,68.0 L 33.0,56.0 Z" fill="#141018" />
  <path d="M 557.0,340.0 L 561.0,341.0 L 570.0,347.0 L 572.0,346.0 L 575.0,349.0 L 579.0,349.0 L 580.0,352.0 L 578.0,359.0 L 578.0,368.0 L 573.0,371.0 L 562.0,382.0 L 545.0,376.0 L 542.0,372.0 L 540.0,364.0 L 557.0,341.0 Z" fill="#625a46" />
  <path d="M 417.0,411.0 L 423.0,413.0 L 424.0,415.0 L 432.0,417.0 L 434.0,420.0 L 437.0,419.0 L 439.0,421.0 L 441.0,436.0 L 420.0,455.0 L 404.0,448.0 L 400.0,441.0 L 399.0,435.0 L 404.0,427.0 L 406.0,427.0 L 414.0,413.0 L 415.0,414.0 L 416.0,412.0 Z" fill="#484332" />
  <path d="M 450.0,495.0 L 484.0,497.0 L 487.0,506.0 L 487.0,509.0 L 473.0,528.0 L 470.0,530.0 L 441.0,516.0 L 450.0,496.0 Z" fill="#282526" />
  <path d="M 377.0,397.0 L 382.0,399.0 L 411.0,398.0 L 414.0,407.0 L 417.0,410.0 L 413.0,413.0 L 398.0,435.0 L 390.0,430.0 L 389.0,431.0 L 367.0,420.0 L 368.0,415.0 L 372.0,413.0 L 375.0,401.0 L 377.0,399.0 L 415.0,413.0 L 405.0,427.0 L 377.0,397.0 Z" fill="#615c46" />
  <path d="M 277.0,456.0 L 312.0,456.0 L 317.0,471.0 L 302.0,489.0 L 293.0,487.0 L 277.0,481.0 L 273.0,468.0 L 273.0,464.0 L 277.0,457.0 Z" fill="#0a0a05" />
  <path d="M 546.0,22.0 L 565.0,31.0 L 569.0,43.0 L 553.0,60.0 L 549.0,64.0 L 547.0,64.0 L 529.0,54.0 L 528.0,51.0 L 526.0,39.0 L 545.0,23.0 Z" fill="#161325" />
  <path d="M 218.0,226.0 L 242.0,238.0 L 254.0,242.0 L 256.0,245.0 L 256.0,251.0 L 234.0,272.0 L 215.0,263.0 L 208.0,245.0 L 217.0,227.0 Z" fill="#bcb097" />
  <path d="M 280.0,98.0 L 302.0,109.0 L 305.0,119.0 L 304.0,126.0 L 283.0,141.0 L 275.0,137.0 L 270.0,132.0 L 265.0,131.0 L 261.0,128.0 L 259.0,120.0 L 279.0,99.0 Z" fill="#a19582" />
  <path d="M 776.0,244.0 L 799.0,244.0 L 799.0,275.0 L 781.0,275.0 L 775.0,273.0 L 767.0,260.0 L 775.0,245.0 Z" fill="#17142b" />
  <path d="M 236.0,108.0 L 257.0,119.0 L 259.0,121.0 L 261.0,129.0 L 246.0,152.0 L 242.0,154.0 L 237.0,150.0 L 222.0,143.0 L 219.0,127.0 L 235.0,109.0 Z" fill="#d1bba3" />
  <path d="M 367.0,340.0 L 391.0,350.0 L 394.0,359.0 L 381.0,373.0 L 378.0,373.0 L 375.0,380.0 L 373.0,382.0 L 367.0,380.0 L 366.0,381.0 L 361.0,377.0 L 353.0,374.0 L 349.0,359.0 L 366.0,341.0 Z" fill="#323024" />
  <path d="M 127.0,24.0 L 146.0,33.0 L 146.0,48.0 L 143.0,52.0 L 128.0,67.0 L 109.0,57.0 L 108.0,49.0 L 118.0,28.0 L 126.0,25.0 Z" fill="#13111d" />
  <path d="M 348.0,575.0 L 341.0,591.0 L 351.0,606.0 L 349.0,609.0 L 356.0,608.0 L 375.0,601.0 L 374.0,587.0 L 350.0,576.0 L 376.0,601.0 L 348.0,575.0 Z" fill="#171616" />
  <path d="M 599.0,578.0 L 563.0,582.0 L 556.0,593.0 L 564.0,622.0 L 581.0,622.0 L 602.0,589.0 L 599.0,580.0 Z" fill="#1b1730" />
  <path d="M 651.0,465.0 L 657.0,468.0 L 664.0,475.0 L 677.0,480.0 L 678.0,489.0 L 675.0,496.0 L 639.0,500.0 L 635.0,479.0 L 650.0,466.0 Z" fill="#262325" />
  <path d="M 456.0,578.0 L 439.0,595.0 L 442.0,610.0 L 449.0,621.0 L 462.0,622.0 L 467.0,613.0 L 471.0,609.0 L 477.0,596.0 L 476.0,588.0 L 474.0,586.0 L 457.0,579.0 Z" fill="#18142b" />
  <path d="M 779.0,509.0 L 799.0,510.0 L 799.0,533.0 L 780.0,538.0 L 770.0,524.0 L 779.0,510.0 Z" fill="#141122" />
  <path d="M 770.0,187.0 L 763.0,197.0 L 756.0,211.0 L 758.0,218.0 L 761.0,221.0 L 765.0,222.0 L 799.0,209.0 L 798.0,198.0 L 786.0,192.0 L 771.0,188.0 Z" fill="#17132b" />
  <path d="M 290.0,12.0 L 271.0,32.0 L 273.0,42.0 L 282.0,40.0 L 295.0,49.0 L 310.0,32.0 L 299.0,19.0 L 291.0,13.0 Z" fill="#191627" />
  <path d="M 157.0,133.0 L 138.0,154.0 L 142.0,167.0 L 163.0,177.0 L 184.0,156.0 L 180.0,144.0 L 158.0,134.0 Z" fill="#181526" />
  <path d="M 675.0,247.0 L 657.0,266.0 L 659.0,283.0 L 666.0,284.0 L 681.0,291.0 L 690.0,276.0 L 696.0,269.0 L 693.0,256.0 L 676.0,248.0 Z" fill="#252034" />
  <path d="M 314.0,565.0 L 345.0,565.0 L 347.0,576.0 L 341.0,590.0 L 324.0,597.0 L 322.0,595.0 L 320.0,596.0 L 306.0,575.0 L 309.0,567.0 L 313.0,566.0 Z" fill="#202119" />
  <path d="M 228.0,33.0 L 230.0,33.0 L 242.0,54.0 L 242.0,59.0 L 236.0,75.0 L 210.0,60.0 L 211.0,45.0 L 227.0,34.0 Z" fill="#161324" />
  <path d="M 706.0,175.0 L 729.0,184.0 L 731.0,200.0 L 711.0,219.0 L 695.0,211.0 L 693.0,209.0 L 691.0,199.0 L 705.0,176.0 Z" fill="#1a162e" />
  <path d="M 618.0,0.0 L 648.0,0.0 L 648.0,20.0 L 632.0,37.0 L 616.0,29.0 L 618.0,16.0 L 618.0,1.0 Z" fill="#141122" />
  <path d="M 646.0,583.0 L 625.0,600.0 L 628.0,622.0 L 654.0,622.0 L 656.0,620.0 L 658.0,615.0 L 661.0,591.0 L 647.0,584.0 Z" fill="#1a1630" />
  <path d="M 699.0,88.0 L 720.0,99.0 L 719.0,117.0 L 703.0,132.0 L 684.0,123.0 L 682.0,112.0 L 698.0,89.0 Z" fill="#151223" />
  <path d="M 623.0,170.0 L 655.0,185.0 L 645.0,207.0 L 611.0,205.0 L 608.0,195.0 L 623.0,170.0 Z" fill="#1b172f" />
  <path d="M 643.0,139.0 L 660.0,146.0 L 666.0,158.0 L 667.0,162.0 L 658.0,183.0 L 654.0,184.0 L 623.0,169.0 L 620.0,159.0 L 642.0,140.0 Z" fill="#19152b" />
  <path d="M 670.0,437.0 L 673.0,439.0 L 680.0,454.0 L 683.0,455.0 L 679.0,471.0 L 679.0,477.0 L 676.0,479.0 L 666.0,475.0 L 652.0,464.0 L 652.0,448.0 L 660.0,442.0 L 669.0,438.0 Z" fill="#5d564b" />
  <path d="M 770.0,13.0 L 757.0,33.0 L 759.0,41.0 L 767.0,46.0 L 787.0,35.0 L 799.0,32.0 L 799.0,24.0 L 771.0,14.0 Z" fill="#131021" />
  <path d="M 493.0,329.0 L 516.0,337.0 L 519.0,354.0 L 511.0,362.0 L 495.0,372.0 L 493.0,370.0 L 494.0,366.0 L 490.0,360.0 L 490.0,346.0 L 487.0,345.0 L 487.0,339.0 L 493.0,330.0 Z" fill="#423c2d" />
  <path d="M 267.0,495.0 L 270.0,496.0 L 276.0,510.0 L 281.0,522.0 L 280.0,526.0 L 241.0,528.0 L 240.0,518.0 L 246.0,507.0 L 247.0,502.0 L 266.0,496.0 Z" fill="#090a06" />
  <path d="M 91.0,94.0 L 109.0,103.0 L 114.0,121.0 L 113.0,124.0 L 102.0,126.0 L 74.0,135.0 L 71.0,114.0 L 90.0,95.0 Z" fill="#13111c" />
  <path d="M 636.0,565.0 L 641.0,565.0 L 645.0,583.0 L 624.0,600.0 L 603.0,588.0 L 600.0,580.0 L 602.0,570.0 L 609.0,568.0 L 635.0,566.0 Z" fill="#1b1731" />
  <path d="M 227.0,591.0 L 245.0,599.0 L 246.0,605.0 L 251.0,613.0 L 253.0,622.0 L 209.0,621.0 L 207.0,602.0 L 215.0,599.0 L 226.0,592.0 L 254.0,622.0 L 227.0,591.0 Z" fill="#3d3761" />
  <path d="M 799.0,419.0 L 794.0,424.0 L 768.0,435.0 L 768.0,438.0 L 775.0,453.0 L 788.0,455.0 L 799.0,459.0 L 799.0,421.0 Z" fill="#120f1f" />
  <path d="M 202.0,384.0 L 228.0,393.0 L 230.0,405.0 L 230.0,411.0 L 208.0,425.0 L 198.0,397.0 L 199.0,390.0 L 203.0,387.0 L 201.0,386.0 L 202.0,384.0 Z" fill="#5e3e1c" />
  <path d="M 204.0,179.0 L 224.0,189.0 L 228.0,198.0 L 229.0,202.0 L 218.0,225.0 L 216.0,226.0 L 181.0,208.0 L 179.0,200.0 L 203.0,180.0 Z" fill="#f3efe5" />
  <path d="M 286.0,599.0 L 291.0,602.0 L 304.0,615.0 L 312.0,617.0 L 313.0,622.0 L 267.0,622.0 L 284.0,600.0 L 266.0,622.0 L 286.0,599.0 Z" fill="#2e2a3a" />
  <path d="M 425.0,473.0 L 403.0,494.0 L 404.0,501.0 L 437.0,518.0 L 441.0,515.0 L 443.0,511.0 L 449.0,493.0 L 444.0,480.0 L 425.0,473.0 Z" fill="#2c2824" />
  <path d="M 586.0,0.0 L 617.0,0.0 L 617.0,16.0 L 615.0,29.0 L 610.0,30.0 L 607.0,30.0 L 598.0,19.0 L 585.0,8.0 L 586.0,1.0 Z" fill="#141122" />
  <path d="M 756.0,430.0 L 767.0,436.0 L 774.0,453.0 L 761.0,474.0 L 742.0,467.0 L 740.0,462.0 L 739.0,447.0 L 755.0,431.0 L 761.0,475.0 L 756.0,430.0 Z" fill="#0e0d16" />
  <path d="M 347.0,134.0 L 372.0,143.0 L 373.0,161.0 L 353.0,174.0 L 348.0,168.0 L 340.0,148.0 L 347.0,134.0 Z" fill="#9d8e81" />
  <path d="M 352.0,375.0 L 361.0,378.0 L 366.0,382.0 L 367.0,381.0 L 372.0,383.0 L 376.0,393.0 L 376.0,399.0 L 374.0,401.0 L 371.0,413.0 L 367.0,415.0 L 366.0,419.0 L 362.0,421.0 L 353.0,415.0 L 331.0,405.0 L 329.0,395.0 L 351.0,376.0 Z" fill="#13130b" />
  <path d="M 112.0,320.0 L 98.0,334.0 L 95.0,342.0 L 92.0,343.0 L 92.0,354.0 L 116.0,366.0 L 137.0,347.0 L 134.0,332.0 L 113.0,321.0 Z" fill="#fcfcf7" />
  <path d="M 161.0,21.0 L 147.0,32.0 L 147.0,48.0 L 172.0,57.0 L 184.0,35.0 L 162.0,22.0 Z" fill="#14111e" />
  <path d="M 78.0,593.0 L 60.0,610.0 L 42.0,618.0 L 41.0,622.0 L 83.0,622.0 L 85.0,602.0 L 79.0,594.0 Z" fill="#37316b" />
</svg>