<svg width="256" height="256" viewBox="0 0 256 256" xmlns="http://www.w3.org/2000/svg" shape-rendering="geometricPrecision">
  <path d="M 106.00 17.00 L 111.00 21.00 L 108.00 18.00 L 103.00 18.00 L 101.00 22.00 L 100.00 21.00 L 89.00 29.00 L 86.00 35.00 L 87.00 38.00 L 86.00 34.00 L 101.00 19.00" fill="none" stroke="#000000" stroke-width="0.82" />
  <path d="M 139.00 17.00 L 142.00 17.00 L 149.00 22.00 L 147.00 20.00 L 137.00 18.00 L 129.00 22.00 L 124.00 21.00 L 110.00 24.00" fill="none" stroke="#3B404A" stroke-width="0.82" />
  <path d="M 104.00 21.00 L 109.00 27.00 L 105.00 23.00 L 105.00 21.00" fill="none" stroke="#130A08" stroke-width="0.82" />
  <path d="M 138.00 26.00 L 141.00 30.00 L 144.00 30.00 L 137.00 27.00 L 133.00 30.00 L 131.00 29.00" fill="none" stroke="#171014" stroke-width="0.82" />
  <path d="M 96.00 29.00 L 92.00 33.00 L 92.00 35.00 L 91.00 36.00 L 91.00 34.00 L 90.00 38.00" fill="none" stroke="#020000" stroke-width="0.82" />
  <path d="M 146.00 29.00 L 157.00 41.00 L 153.00 66.00 L 156.00 41.00 L 151.00 36.00 L 149.00 31.00" fill="none" stroke="#4E89B0" stroke-width="0.82" />
  <path d="M 122.00 30.00 L 133.00 41.00 L 131.00 38.00 L 128.00 38.00 L 127.00 35.00 L 122.00 31.00" fill="none" stroke="#8D5364" stroke-width="0.82" />
  <path d="M 117.00 32.00 L 131.00 47.00 L 140.00 64.00 L 138.00 65.00 L 136.00 57.00 L 124.00 38.00" fill="none" stroke="#61312C" stroke-width="0.82" />
  <path d="M 103.00 36.00 L 109.00 41.00 L 113.00 42.00 L 118.00 47.00 L 122.00 58.00 L 138.00 70.00 L 137.00 71.00 L 120.00 56.00 L 117.00 47.00 L 106.00 36.00 L 99.00 38.00 L 99.00 43.00 L 93.00 48.00 L 92.00 51.00 L 93.00 57.00 L 91.00 52.00 L 98.00 42.00" fill="none" stroke="#3C3034" stroke-width="0.82" />
  <path d="M 146.00 38.00 L 151.00 45.00 L 147.00 38.00" fill="none" stroke="#896EA1" stroke-width="0.82" />
  <path d="M 107.00 42.00 L 105.00 46.00 L 105.00 44.00 L 102.00 47.00 L 99.00 46.00" fill="none" stroke="#948291" stroke-width="0.82" />
  <path d="M 139.00 42.00 L 142.00 42.00 L 140.00 44.00 L 138.00 43.00 L 136.00 47.00" fill="none" stroke="#916591" stroke-width="0.82" />
  <path d="M 108.00 47.00 L 112.00 51.00 L 121.00 67.00 L 109.00 47.00" fill="none" stroke="#BB7B47" stroke-width="0.82" />
  <path d="M 147.00 53.00 L 146.00 64.00 L 148.00 65.00 L 145.00 66.00 L 144.00 71.00 L 146.00 54.00" fill="none" stroke="#764262" stroke-width="0.82" />
  <path d="M 92.00 60.00 L 91.00 62.00 L 96.00 68.00 L 100.00 66.00 L 102.00 63.00 L 95.00 68.00 L 94.00 64.00 L 91.00 63.00 L 89.00 67.00 L 90.00 63.00" fill="none" stroke="#060304" stroke-width="0.82" />
  <path d="M 112.00 63.00 L 114.00 63.00 L 111.00 66.00 L 113.00 71.00 L 110.00 67.00 L 111.00 65.00 L 108.00 69.00 L 103.00 71.00 L 102.00 70.00" fill="none" stroke="#0A182D" stroke-width="0.82" />
  <path d="M 124.00 67.00 L 126.00 67.00 L 130.00 71.00 L 133.00 81.00 L 127.00 67.00" fill="none" stroke="#99413E" stroke-width="0.82" />
  <path d="M 122.00 69.00 L 114.00 76.00 L 117.00 80.00 L 113.00 76.00" fill="none" stroke="#925430" stroke-width="0.82" />
  <path d="M 152.00 71.00 L 169.00 71.00 L 182.00 76.00 L 187.00 82.00 L 202.00 78.00 L 211.00 73.00 L 226.00 72.00 L 233.00 75.00 L 233.00 81.00 L 232.00 78.00 L 208.00 74.00 L 185.00 81.00 L 184.00 77.00 L 151.00 72.00 L 151.00 85.00 L 155.00 90.00 L 156.00 86.00 L 160.00 87.00 L 155.00 86.00 L 152.00 88.00 L 151.00 80.00 L 149.00 77.00 L 150.00 76.00 L 149.00 75.00 L 146.00 79.00 L 150.00 73.00" fill="none" stroke="#222A3C" stroke-width="0.82" />
  <path d="M 88.00 73.00 L 86.00 77.00 L 81.00 79.00 L 74.00 87.00 L 66.00 92.00 L 87.00 74.00" fill="none" stroke="#000000" stroke-width="0.82" />
  <path d="M 105.00 73.00 L 107.00 79.00 L 106.00 73.00" fill="none" stroke="#0C2137" stroke-width="0.82" />
  <path d="M 156.00 75.00 L 161.00 84.00 L 157.00 75.00" fill="none" stroke="#684F69" stroke-width="0.82" />
  <path d="M 169.00 76.00 L 176.00 81.00 L 177.00 80.00 L 174.00 82.00 L 175.00 84.00" fill="none" stroke="#804C66" stroke-width="0.82" />
  <path d="M 238.00 76.00 L 243.00 80.00 L 247.00 80.00 L 243.00 79.00 L 243.00 81.00" fill="none" stroke="#05080E" stroke-width="0.82" />
  <path d="M 142.00 77.00 L 145.00 81.00 L 144.00 83.00 L 142.00 78.00 L 143.00 77.00 L 140.00 78.00" fill="none" stroke="#71798D" stroke-width="0.82" />
  <path d="M 121.00 80.00 L 128.00 85.00 L 130.00 92.00 L 133.00 94.00 L 138.00 94.00 L 140.00 92.00 L 141.00 94.00 L 139.00 86.00 L 135.00 82.00 L 139.00 92.00 L 133.00 95.00 L 131.00 94.00 L 129.00 97.00 L 118.00 100.00 L 130.00 94.00 L 126.00 83.00 L 122.00 84.00 L 122.00 82.00" fill="none" stroke="#624257" stroke-width="0.82" />
  <path d="M 238.00 80.00 L 239.00 86.00 L 237.00 82.00" fill="none" stroke="#37404A" stroke-width="0.82" />
  <path d="M 114.00 81.00 L 112.00 83.00 L 111.00 82.00 L 104.00 85.00" fill="none" stroke="#1C192B" stroke-width="0.82" />
  <path d="M 149.00 81.00 L 145.00 85.00 L 146.00 94.00 L 144.00 97.00 L 145.00 90.00" fill="none" stroke="#322733" stroke-width="0.82" />
  <path d="M 223.00 82.00 L 229.00 84.00 L 231.00 83.00 L 229.00 83.00 L 231.00 88.00 L 231.00 86.00 L 229.00 88.00 L 227.00 94.00 L 225.00 94.00 L 220.00 100.00 L 220.00 103.00 L 223.00 104.00 L 223.00 102.00 L 220.00 104.00 L 219.00 101.00 L 217.00 104.00 L 215.00 104.00 L 218.00 96.00 L 217.00 97.00 L 217.00 94.00 L 215.00 95.00 L 215.00 93.00 L 210.00 91.00 L 209.00 88.00 L 215.00 100.00 L 213.00 106.00 L 211.00 100.00 L 210.00 106.00 L 210.00 103.00 L 209.00 105.00 L 208.00 104.00 L 209.00 101.00 L 208.00 103.00 L 206.00 101.00 L 207.00 98.00 L 210.00 98.00 L 207.00 97.00 L 205.00 99.00 L 204.00 93.00 L 203.00 94.00 L 202.00 92.00 L 203.00 97.00 L 227.00 82.00 L 224.00 84.00 L 224.00 87.00 L 223.00 83.00" fill="none" stroke="#393340" stroke-width="0.82" />
  <path d="M 88.00 83.00 L 100.00 86.00 L 104.00 93.00 L 104.00 97.00 L 102.00 91.00 L 90.00 83.00 L 82.00 84.00" fill="none" stroke="#473338" stroke-width="0.82" />
  <path d="M 242.00 83.00 L 244.00 83.00 L 242.00 84.00 L 242.00 94.00 L 241.00 95.00 L 241.00 93.00 L 239.00 98.00 L 243.00 102.00 L 243.00 100.00 L 240.00 101.00 L 241.00 99.00 L 239.00 99.00 L 239.00 102.00 L 241.00 86.00" fill="none" stroke="#212738" stroke-width="0.82" />
  <path d="M 177.00 84.00 L 179.00 86.00 L 178.00 90.00 L 182.00 92.00 L 178.00 91.00 L 177.00 85.00" fill="none" stroke="#382317" stroke-width="0.82" />
  <path d="M 246.00 84.00 L 254.00 89.00 L 246.00 85.00" fill="none" stroke="#000000" stroke-width="0.82" />
  <path d="M 117.00 87.00 L 115.00 95.00 L 118.00 95.00 L 115.00 97.00 L 114.00 92.00" fill="none" stroke="#413437" stroke-width="0.82" />
  <path d="M 89.00 88.00 L 91.00 91.00 L 95.00 91.00 L 88.00 90.00 L 86.00 92.00 L 85.00 91.00 L 83.00 93.00 L 80.00 93.00" fill="none" stroke="#9F682D" stroke-width="0.82" />
  <path d="M 198.00 88.00 L 197.00 99.00 L 194.00 107.00 L 197.00 92.00" fill="none" stroke="#6A3841" stroke-width="0.82" />
  <path d="M 78.00 89.00 L 67.00 100.00" fill="none" stroke="#996745" stroke-width="0.82" />
  <path d="M 108.00 90.00 L 114.00 103.00 L 119.00 107.00 L 119.00 109.00 L 118.00 108.00 L 117.00 103.00 L 114.00 105.00 L 108.00 92.00" fill="none" stroke="#473C41" stroke-width="0.82" />
  <path d="M 123.00 90.00 L 125.00 91.00 L 123.00 93.00 L 123.00 91.00 L 121.00 95.00" fill="none" stroke="#28222E" stroke-width="0.82" />
  <path d="M 215.00 90.00 L 219.00 90.00 L 222.00 92.00 L 223.00 91.00 L 215.00 91.00" fill="none" stroke="#60504D" stroke-width="0.82" />
  <path d="M 95.00 94.00 L 97.00 99.00 L 96.00 100.00 L 95.00 95.00" fill="none" stroke="#A48D8D" stroke-width="0.82" />
  <path d="M 152.00 94.00 L 169.00 95.00 L 172.00 98.00 L 176.00 96.00 L 185.00 100.00 L 175.00 96.00 L 172.00 97.00 L 150.00 95.00" fill="none" stroke="#070405" stroke-width="0.82" />
  <path d="M 249.00 95.00 L 253.00 97.00 L 251.00 102.00 L 253.00 96.00 L 252.00 95.00" fill="none" stroke="#15152A" stroke-width="0.82" />
  <path d="M 82.00 96.00 L 85.00 99.00 L 83.00 102.00 L 83.00 96.00" fill="none" stroke="#877165" stroke-width="0.82" />
  <path d="M 188.00 96.00 L 190.00 99.00 L 189.00 106.00 L 192.00 111.00 L 189.00 107.00 L 188.00 98.00" fill="none" stroke="#70251E" stroke-width="0.82" />
  <path d="M 142.00 98.00 L 138.00 102.00 L 135.00 112.00 L 138.00 101.00" fill="none" stroke="#392332" stroke-width="0.82" />
  <path d="M 231.00 99.00 L 228.00 106.00 L 228.00 102.00" fill="none" stroke="#211614" stroke-width="0.82" />
  <path d="M 107.00 101.00 L 108.00 105.00 L 103.00 109.00 L 99.00 120.00 L 93.00 118.00 L 89.00 121.00 L 88.00 124.00 L 101.00 114.00 L 103.00 106.00 L 101.00 104.00 L 89.00 104.00 L 79.00 108.00 L 78.00 111.00 L 77.00 110.00 L 108.00 101.00" fill="none" stroke="#242C46" stroke-width="0.82" />
  <path d="M 148.00 101.00 L 150.00 103.00 L 150.00 101.00 L 148.00 106.00 L 144.00 109.00" fill="none" stroke="#000000" stroke-width="0.82" />
  <path d="M 178.00 101.00 L 178.00 105.00 L 175.00 111.00" fill="none" stroke="#915533" stroke-width="0.82" />
  <path d="M 155.00 102.00 L 167.00 104.00 L 168.00 110.00 L 165.00 103.00 L 154.00 103.00" fill="none" stroke="#00040D" stroke-width="0.82" />
  <path d="M 152.00 105.00 L 157.00 109.00 L 158.00 105.00 L 156.00 109.00 L 154.00 109.00 L 154.00 105.00" fill="none" stroke="#000000" stroke-width="0.82" />
  <path d="M 201.00 106.00 L 205.00 109.00 L 204.00 116.00 L 205.00 108.00 L 199.00 107.00" fill="none" stroke="#342821" stroke-width="0.82" />
  <path d="M 57.00 108.00 L 73.00 111.00 L 81.00 118.00 L 89.00 115.00 L 92.00 116.00 L 88.00 115.00 L 89.00 111.00 L 86.00 116.00 L 75.00 116.00 L 75.00 112.00 L 74.00 113.00 L 61.00 108.00 L 53.00 110.00 L 52.00 109.00" fill="none" stroke="#1A1619" stroke-width="0.82" />
  <path d="M 247.00 108.00 L 253.00 110.00 L 246.00 109.00" fill="none" stroke="#020103" stroke-width="0.82" />
  <path d="M 47.00 109.00 L 49.00 110.00 L 44.00 111.00 L 41.00 115.00" fill="none" stroke="#000000" stroke-width="0.82" />
  <path d="M 198.00 110.00 L 202.00 117.00 L 198.00 111.00 L 199.00 110.00" fill="none" stroke="#1B1819" stroke-width="0.82" />
  <path d="M 48.00 115.00 L 48.00 121.00 L 47.00 122.00 L 46.00 118.00 L 46.00 124.00 L 45.00 125.00 L 45.00 123.00 L 47.00 116.00" fill="none" stroke="#010511" stroke-width="0.82" />
  <path d="M 143.00 116.00 L 155.00 127.00 L 164.00 132.00 L 194.00 156.00 L 198.00 169.00 L 198.00 175.00 L 206.00 185.00 L 215.00 187.00 L 225.00 199.00 L 228.00 199.00 L 230.00 201.00 L 248.00 201.00 L 254.00 206.00 L 253.00 216.00 L 254.00 205.00 L 251.00 202.00 L 239.00 200.00 L 229.00 202.00 L 221.00 196.00 L 218.00 203.00 L 215.00 205.00 L 221.00 192.00 L 217.00 188.00 L 219.00 193.00 L 218.00 194.00 L 203.00 182.00 L 198.00 176.00 L 195.00 177.00 L 197.00 175.00 L 197.00 169.00 L 192.00 153.00 L 190.00 153.00 L 184.00 147.00 L 175.00 142.00 L 158.00 128.00 L 153.00 126.00 L 153.00 124.00 L 146.00 117.00 L 140.00 117.00 L 139.00 119.00" fill="none" stroke="#0D1722" stroke-width="0.82" />
  <path d="M 194.00 116.00 L 202.00 124.00 L 205.00 125.00 L 199.00 120.00" fill="none" stroke="#000206" stroke-width="0.82" />
  <path d="M 139.00 121.00 L 144.00 126.00 L 141.00 124.00 L 140.00 121.00" fill="none" stroke="#3E475C" stroke-width="0.82" />
  <path d="M 81.00 122.00 L 84.00 128.00 L 82.00 122.00" fill="none" stroke="#2C1E1E" stroke-width="0.82" />
  <path d="M 99.00 124.00 L 96.00 131.00 L 98.00 136.00 L 96.00 134.00 L 95.00 137.00 L 96.00 130.00" fill="none" stroke="#0D1929" stroke-width="0.82" />
  <path d="M 135.00 124.00 L 138.00 127.00 L 141.00 127.00 L 139.00 126.00 L 139.00 130.00" fill="none" stroke="#08254B" stroke-width="0.82" />
  <path d="M 104.00 126.00 L 107.00 129.00 L 108.00 133.00 L 106.00 129.00 L 106.00 127.00 L 108.00 126.00 L 105.00 126.00" fill="none" stroke="#00112A" stroke-width="0.82" />
  <path d="M 77.00 128.00 L 80.00 128.00 L 74.00 131.00 L 57.00 131.00 L 52.00 135.00 L 50.00 139.00 L 51.00 136.00" fill="none" stroke="#6E2827" stroke-width="0.82" />
  <path d="M 101.00 128.00 L 103.00 131.00 L 103.00 133.00 L 101.00 129.00" fill="none" stroke="#000000" stroke-width="0.82" />
  <path d="M 81.00 130.00 L 83.00 133.00 L 85.00 132.00 L 83.00 134.00 L 83.00 140.00" fill="none" stroke="#723136" stroke-width="0.82" />
  <path d="M 138.00 132.00 L 134.00 139.00 L 127.00 140.00 L 120.00 144.00 L 109.00 147.00 L 135.00 135.00 L 133.00 135.00 L 133.00 133.00 L 132.00 134.00" fill="none" stroke="#212D4A" stroke-width="0.82" />
  <path d="M 105.00 134.00 L 107.00 136.00 L 111.00 136.00 L 114.00 142.00 L 109.00 135.00 L 105.00 135.00 L 101.00 138.00 L 98.00 141.00 L 99.00 143.00 L 98.00 140.00" fill="none" stroke="#0A0F34" stroke-width="0.82" />
  <path d="M 67.00 137.00 L 71.00 137.00 L 73.00 140.00 L 73.00 138.00 L 68.00 137.00" fill="none" stroke="#41171B" stroke-width="0.82" />
  <path d="M 161.00 140.00 L 165.00 144.00 L 167.00 143.00 L 177.00 153.00 L 175.00 156.00 L 176.00 151.00 L 172.00 147.00 L 173.00 145.00 L 170.00 147.00 L 169.00 144.00 L 165.00 143.00 L 164.00 145.00 L 172.00 154.00 L 172.00 151.00 L 168.00 150.00 L 170.00 153.00 L 167.00 147.00 L 166.00 148.00 L 161.00 144.00 L 162.00 140.00" fill="none" stroke="#353233" stroke-width="0.82" />
  <path d="M 58.00 141.00 L 67.00 141.00 L 86.00 150.00 L 90.00 148.00 L 97.00 150.00 L 86.00 149.00 L 76.00 144.00 L 57.00 142.00 L 52.00 144.00 L 47.00 143.00 L 43.00 145.00" fill="none" stroke="#000000" stroke-width="0.82" />
  <path d="M 148.00 142.00 L 170.00 156.00 L 149.00 142.00 L 147.00 144.00 L 146.00 143.00 L 141.00 150.00 L 145.00 161.00 L 141.00 152.00 L 142.00 146.00 L 134.00 148.00 L 128.00 154.00" fill="none" stroke="#2F2522" stroke-width="0.82" />
  <path d="M 127.00 144.00 L 128.00 149.00 L 128.00 144.00" fill="none" stroke="#1B374E" stroke-width="0.82" />
  <path d="M 43.00 147.00 L 46.00 151.00 L 43.00 148.00 L 44.00 147.00" fill="none" stroke="#000000" stroke-width="0.82" />
  <path d="M 178.00 148.00 L 183.00 153.00 L 185.00 153.00 L 193.00 163.00 L 191.00 162.00 L 189.00 165.00 L 189.00 163.00 L 188.00 167.00 L 190.00 169.00 L 191.00 168.00 L 194.00 173.00 L 190.00 168.00 L 189.00 170.00 L 187.00 165.00 L 191.00 160.00 L 182.00 153.00" fill="none" stroke="#17161C" stroke-width="0.82" />
  <path d="M 62.00 150.00 L 65.00 153.00 L 65.00 156.00 L 64.00 153.00 L 62.00 155.00 L 63.00 156.00 L 57.00 159.00 L 61.00 151.00 L 57.00 154.00" fill="none" stroke="#1A1B22" stroke-width="0.82" />
  <path d="M 76.00 150.00 L 76.00 155.00 L 65.00 165.00 L 76.00 153.00 L 77.00 150.00" fill="none" stroke="#112846" stroke-width="0.82" />
  <path d="M 43.00 151.00 L 44.00 154.00 L 47.00 154.00 L 43.00 155.00 L 43.00 157.00 L 42.00 153.00 L 40.00 155.00 L 38.00 161.00 L 27.00 173.00 L 18.00 187.00 L 12.00 193.00 L 6.00 196.00 L 20.00 182.00 L 38.00 159.00 L 40.00 154.00" fill="none" stroke="#000000" stroke-width="0.82" />
  <path d="M 147.00 151.00 L 147.00 155.00 L 149.00 158.00 L 153.00 162.00 L 161.00 165.00 L 168.00 172.00 L 167.00 184.00 L 164.00 190.00 L 158.00 195.00 L 156.00 202.00 L 153.00 204.00 L 166.00 184.00 L 167.00 170.00 L 161.00 164.00 L 150.00 160.00 L 147.00 156.00" fill="none" stroke="#36424F" stroke-width="0.82" />
  <path d="M 150.00 151.00 L 157.00 158.00 L 156.00 159.00 L 154.00 157.00" fill="none" stroke="#524340" stroke-width="0.82" />
  <path d="M 79.00 152.00 L 83.00 156.00 L 81.00 152.00 L 79.00 154.00" fill="none" stroke="#0D3661" stroke-width="0.82" />
  <path d="M 86.00 152.00 L 89.00 153.00 L 87.00 157.00 L 95.00 165.00 L 86.00 156.00 L 89.00 152.00" fill="none" stroke="#252536" stroke-width="0.82" />
  <path d="M 117.00 156.00 L 121.00 156.00 L 116.00 158.00 L 113.00 157.00 L 109.00 158.00 L 108.00 160.00 L 107.00 159.00" fill="none" stroke="#16111B" stroke-width="0.82" />
  <path d="M 42.00 159.00 L 42.00 163.00 L 38.00 169.00 L 34.00 172.00 L 27.00 183.00 L 26.00 184.00 L 26.00 182.00 L 18.00 195.00 L 11.00 200.00 L 11.00 203.00 L 41.00 163.00" fill="none" stroke="#1A1F3B" stroke-width="0.82" />
  <path d="M 176.00 160.00 L 183.00 170.00 L 180.00 168.00 L 176.00 161.00" fill="none" stroke="#16161C" stroke-width="0.82" />
  <path d="M 143.00 163.00 L 143.00 166.00 L 147.00 171.00 L 147.00 173.00 L 143.00 167.00" fill="none" stroke="#333341" stroke-width="0.82" />
  <path d="M 54.00 164.00 L 58.00 167.00 L 57.00 165.00 L 50.00 166.00" fill="none" stroke="#825777" stroke-width="0.82" />
  <path d="M 98.00 164.00 L 99.00 169.00 L 97.00 180.00 L 99.00 164.00" fill="none" stroke="#030818" stroke-width="0.82" />
  <path d="M 133.00 166.00 L 125.00 172.00 L 124.00 171.00 L 115.00 179.00" fill="none" stroke="#161925" stroke-width="0.82" />
  <path d="M 50.00 168.00 L 53.00 171.00 L 53.00 178.00 L 51.00 168.00" fill="none" stroke="#704C70" stroke-width="0.82" />
  <path d="M 69.00 168.00 L 74.00 169.00 L 80.00 173.00 L 72.00 168.00 L 66.00 170.00 L 63.00 175.00 L 61.00 177.00 L 60.00 176.00 L 52.00 185.00 L 51.00 189.00 L 51.00 187.00 L 49.00 192.00 L 48.00 193.00 L 48.00 191.00 L 39.00 208.00 L 41.00 202.00 L 57.00 177.00" fill="none" stroke="#15203F" stroke-width="0.82" />
  <path d="M 139.00 168.00 L 128.00 177.00" fill="none" stroke="#1A2944" stroke-width="0.82" />
  <path d="M 143.00 171.00 L 134.00 180.00 L 133.00 179.00 L 128.00 184.00 L 126.00 184.00 L 125.00 187.00 L 124.00 185.00 L 121.00 189.00 L 118.00 189.00" fill="none" stroke="#1A1825" stroke-width="0.82" />
  <path d="M 85.00 172.00 L 81.00 188.00 L 78.00 189.00 L 75.00 188.00 L 73.00 184.00 L 69.00 184.00 L 81.00 183.00 L 84.00 175.00" fill="none" stroke="#010209" stroke-width="0.82" />
  <path d="M 76.00 174.00 L 77.00 175.00 L 73.00 180.00 L 76.00 175.00" fill="none" stroke="#102A4F" stroke-width="0.82" />
  <path d="M 104.00 174.00 L 109.00 175.00 L 101.00 175.00" fill="none" stroke="#000000" stroke-width="0.82" />
  <path d="M 89.00 175.00 L 86.00 185.00 L 88.00 178.00 L 87.00 176.00 L 86.00 178.00" fill="none" stroke="#000101" stroke-width="0.82" />
  <path d="M 147.00 175.00 L 154.00 184.00 L 147.00 177.00" fill="none" stroke="#362E39" stroke-width="0.82" />
  <path d="M 157.00 176.00 L 159.00 184.00 L 161.00 186.00 L 158.00 181.00" fill="none" stroke="#594640" stroke-width="0.82" />
  <path d="M 69.00 177.00 L 65.00 181.00 L 65.00 183.00 L 64.00 184.00 L 64.00 182.00 L 60.00 192.00 L 58.00 193.00 L 58.00 196.00 L 49.00 208.00 L 48.00 209.00 L 48.00 207.00 L 44.00 215.00 L 45.00 219.00 L 44.00 220.00 L 44.00 216.00 L 46.00 210.00 L 62.00 186.00" fill="none" stroke="#0A1520" stroke-width="0.82" />
  <path d="M 143.00 178.00 L 132.00 190.00" fill="none" stroke="#252E49" stroke-width="0.82" />
  <path d="M 195.00 179.00 L 206.00 191.00 L 204.00 188.00 L 205.00 187.00 L 201.00 187.00 L 196.00 179.00" fill="none" stroke="#3C0500" stroke-width="0.82" />
  <path d="M 111.00 180.00 L 115.00 183.00 L 116.00 186.00 L 113.00 181.00 L 111.00 181.00" fill="none" stroke="#000200" stroke-width="0.82" />
  <path d="M 39.00 182.00 L 30.00 192.00 L 32.00 194.00 L 32.00 199.00 L 30.00 191.00 L 29.00 192.00" fill="none" stroke="#041129" stroke-width="0.82" />
  <path d="M 42.00 185.00 L 36.00 195.00 L 36.00 198.00 L 41.00 186.00" fill="none" stroke="#030E25" stroke-width="0.82" />
  <path d="M 67.00 185.00 L 73.00 194.00 L 72.00 195.00 L 67.00 186.00" fill="none" stroke="#000000" stroke-width="0.82" />
  <path d="M 169.00 185.00 L 177.00 193.00 L 179.00 198.00 L 178.00 206.00 L 174.00 211.00 L 178.00 203.00 L 178.00 198.00 L 170.00 185.00" fill="none" stroke="#000409" stroke-width="0.82" />
  <path d="M 169.00 189.00 L 169.00 192.00 L 168.00 191.00 L 167.00 194.00 L 164.00 195.00" fill="none" stroke="#24304A" stroke-width="0.82" />
  <path d="M 212.00 191.00 L 216.00 198.00 L 215.00 196.00 L 214.00 200.00 L 209.00 203.00 L 203.00 201.00 L 200.00 206.00 L 200.00 203.00 L 213.00 193.00" fill="none" stroke="#252733" stroke-width="0.82" />
  <path d="M 90.00 194.00 L 92.00 196.00 L 89.00 195.00 L 87.00 197.00 L 89.00 200.00 L 87.00 196.00 L 86.00 200.00 L 85.00 201.00 L 85.00 199.00 L 83.00 204.00 L 81.00 205.00 L 84.00 211.00 L 81.00 208.00" fill="none" stroke="#000000" stroke-width="0.82" />
  <path d="M 162.00 197.00 L 166.00 202.00 L 162.00 198.00" fill="none" stroke="#08192E" stroke-width="0.82" />
  <path d="M 174.00 197.00 L 175.00 201.00 L 173.00 206.00 L 166.00 208.00 L 173.00 204.00 L 175.00 197.00" fill="none" stroke="#0B0E1A" stroke-width="0.82" />
  <path d="M 28.00 200.00 L 30.00 200.00 L 25.00 204.00 L 26.00 207.00 L 22.00 207.00 L 21.00 210.00" fill="none" stroke="#1C0803" stroke-width="0.82" />
  <path d="M 35.00 200.00 L 27.00 212.00 L 32.00 203.00" fill="none" stroke="#02081A" stroke-width="0.82" />
  <path d="M 108.00 200.00 L 117.00 205.00 L 111.00 201.00 L 104.00 201.00" fill="none" stroke="#010605" stroke-width="0.82" />
  <path d="M 99.00 203.00 L 97.00 211.00 L 98.00 213.00 L 98.00 207.00" fill="none" stroke="#000514" stroke-width="0.82" />
  <path d="M 148.00 203.00 L 152.00 210.00 L 149.00 203.00" fill="none" stroke="#01172C" stroke-width="0.82" />
  <path d="M 129.00 204.00 L 135.00 209.00 L 131.00 208.00 L 130.00 204.00" fill="none" stroke="#000000" stroke-width="0.82" />
  <path d="M 90.00 206.00 L 94.00 209.00 L 93.00 214.00 L 95.00 217.00 L 93.00 215.00 L 89.00 217.00 L 91.00 223.00 L 93.00 224.00 L 95.00 219.00 L 91.00 224.00 L 87.00 213.00 L 87.00 211.00 L 93.00 208.00 L 88.00 207.00 L 87.00 209.00" fill="none" stroke="#040711" stroke-width="0.82" />
  <path d="M 110.00 207.00 L 113.00 210.00 L 116.00 210.00 L 115.00 208.00 L 118.00 207.00 L 114.00 209.00 L 111.00 207.00 L 111.00 210.00" fill="none" stroke="#000000" stroke-width="0.82" />
  <path d="M 138.00 208.00 L 142.00 211.00 L 141.00 213.00 L 141.00 209.00 L 139.00 208.00" fill="none" stroke="#17172E" stroke-width="0.82" />
  <path d="M 37.00 210.00 L 30.00 220.00 L 30.00 218.00 L 28.00 220.00" fill="none" stroke="#121720" stroke-width="0.82" />
  <path d="M 164.00 210.00 L 168.00 214.00 L 172.00 212.00 L 167.00 214.00 L 165.00 210.00" fill="none" stroke="#000000" stroke-width="0.82" />
  <path d="M 245.00 211.00 L 245.00 216.00 L 244.00 214.00 L 243.00 216.00 L 240.00 216.00 L 240.00 214.00 L 239.00 216.00 L 237.00 212.00" fill="none" stroke="#2B100A" stroke-width="0.82" />
  <path d="M 19.00 217.00 L 22.00 217.00 L 13.00 227.00" fill="none" stroke="#081127" stroke-width="0.82" />
  <path d="M 29.00 222.00 L 33.00 230.00 L 31.00 231.00 L 32.00 233.00 L 30.00 232.00 L 30.00 222.00" fill="none" stroke="#000D4F" stroke-width="0.82" />
  <path d="M 45.00 222.00 L 46.00 223.00 L 42.00 231.00 L 45.00 223.00" fill="none" stroke="#000000" stroke-width="0.82" />
  <path d="M 87.00 224.00 L 86.00 226.00 L 89.00 229.00 L 87.00 232.00 L 88.00 229.00 L 86.00 231.00 L 85.00 234.00 L 85.00 230.00 L 82.00 230.00 L 81.00 236.00 L 83.00 240.00 L 82.00 239.00 L 85.00 237.00 L 88.00 237.00 L 81.00 237.00 L 80.00 232.00 L 84.00 235.00 L 89.00 227.00 L 85.00 227.00" fill="none" stroke="#000000" stroke-width="0.82" />
  <path d="M 9.00 231.00 L 17.00 232.00 L 8.00 232.00" fill="none" stroke="#00001A" stroke-width="0.82" />
  <path d="M 82.00 245.00 L 81.00 246.00 L 83.00 250.00 L 79.00 246.00" fill="none" stroke="#000208" stroke-width="0.82" />
  <path d="M 106.00 17.00 L 111.00 21.00 L 102.00 18.00 L 100.00 23.00 L 88.00 31.00 L 87.00 38.00 L 90.00 28.00" fill="none" stroke="#000000" stroke-width="0.82" />
  <path d="M 137.00 27.00 L 146.00 29.00 L 157.00 42.00 L 153.00 67.00 L 155.00 40.00 L 149.00 31.00 L 142.00 28.00 L 131.00 29.00" fill="none" stroke="#8D565B" stroke-width="0.82" />
  <path d="M 108.00 46.00 L 122.00 69.00 L 114.00 76.00 L 117.00 80.00 L 112.00 76.00 L 120.00 64.00 L 108.00 47.00" fill="none" stroke="#B97A46" stroke-width="0.82" />
  <path d="M 88.00 73.00 L 66.00 94.00 L 77.00 82.00" fill="none" stroke="#000000" stroke-width="0.82" />
  <path d="M 89.00 83.00 L 101.00 87.00 L 81.00 84.00" fill="none" stroke="#452D38" stroke-width="0.82" />
  <path d="M 136.00 83.00 L 141.00 94.00 L 140.00 91.00 L 138.00 94.00 L 134.00 92.00 L 129.00 97.00 L 121.00 99.00 L 130.00 91.00 L 139.00 88.00 L 137.00 85.00" fill="none" stroke="#7F455B" stroke-width="0.82" />
  <path d="M 230.00 87.00 L 222.00 100.00 L 216.00 102.00 L 229.00 89.00" fill="none" stroke="#2E2A36" stroke-width="0.82" />
  <path d="M 96.00 103.00 L 102.00 106.00 L 88.00 104.00 L 81.00 107.00 L 80.00 111.00 L 77.00 110.00" fill="none" stroke="#4B3734" stroke-width="0.82" />
  <path d="M 103.00 108.00 L 102.00 115.00 L 97.00 120.00 L 102.00 112.00" fill="none" stroke="#273450" stroke-width="0.82" />
  <path d="M 248.00 108.00 L 253.00 110.00 L 251.00 109.00 L 252.00 114.00 L 247.00 109.00" fill="none" stroke="#050508" stroke-width="0.82" />
  <path d="M 81.00 122.00 L 87.00 132.00 L 82.00 122.00" fill="none" stroke="#2C1E1E" stroke-width="0.82" />
  <path d="M 80.00 126.00 L 82.00 132.00 L 85.00 132.00 L 83.00 139.00 L 79.00 128.00 L 74.00 131.00 L 57.00 131.00 L 49.00 139.00" fill="none" stroke="#0C0704" stroke-width="0.82" />
  <path d="M 135.00 137.00 L 112.00 146.00" fill="none" stroke="#373034" stroke-width="0.82" />
  <path d="M 42.00 153.00 L 45.00 154.00 L 40.00 155.00 L 36.00 164.00 L 40.00 154.00" fill="none" stroke="#000000" stroke-width="0.82" />
  <path d="M 143.00 164.00 L 147.00 176.00 L 155.00 186.00 L 148.00 178.00 L 144.00 164.00" fill="none" stroke="#292833" stroke-width="0.82" />
  <path d="M 33.00 166.00 L 15.00 191.00 L 6.00 196.00 L 28.00 172.00" fill="none" stroke="#000000" stroke-width="0.82" />
  <path d="M 169.00 185.00 L 177.00 193.00 L 179.00 200.00 L 172.00 187.00" fill="none" stroke="#000712" stroke-width="0.82" />
  <path d="M 211.00 190.00 L 216.00 197.00 L 215.00 200.00 L 210.00 203.00 L 201.00 202.00 L 200.00 206.00" fill="none" stroke="#5B5A65" stroke-width="0.82" />
  <path d="M 38.00 208.00 L 31.00 219.00 L 36.00 210.00" fill="none" stroke="#060813" stroke-width="0.82" />
  <path d="M 84.00 229.00 L 86.00 231.00 L 89.00 229.00 L 84.00 234.00 L 83.00 230.00 L 81.00 236.00 L 81.00 231.00" fill="none" stroke="#000000" stroke-width="0.82" />
  <path d="M 106.00 17.00 L 110.00 21.00 L 102.00 18.00 L 101.00 23.00 L 89.00 30.00 L 87.00 38.00" fill="none" stroke="#000000" stroke-width="0.82" />
  <path d="M 104.00 21.00 L 115.00 31.00 L 105.00 21.00" fill="none" stroke="#130A08" stroke-width="0.82" />
  <path d="M 110.00 48.00 L 120.00 61.00 L 110.00 49.00" fill="none" stroke="#9A7F73" stroke-width="0.82" />
  <path d="M 136.00 83.00 L 142.00 94.00 L 140.00 91.00 L 135.00 94.00 L 138.00 85.00" fill="none" stroke="#894C69" stroke-width="0.82" />
  <path d="M 57.00 108.00 L 73.00 111.00 L 81.00 118.00 L 92.00 116.00 L 88.00 113.00 L 81.00 117.00 L 56.00 109.00 L 47.00 109.00 L 42.00 115.00" fill="none" stroke="#0E0E00" stroke-width="0.82" />
  <path d="M 144.00 116.00 L 187.00 150.00 L 196.00 164.00 L 189.00 151.00 L 151.00 126.00 L 152.00 123.00 L 145.00 122.00 L 147.00 117.00 L 141.00 117.00 L 141.00 123.00 L 139.00 118.00" fill="none" stroke="#0D1B29" stroke-width="0.82" />
  <path d="M 78.00 127.00 L 83.00 135.00 L 78.00 128.00 L 70.00 130.00" fill="none" stroke="#2C1C1F" stroke-width="0.82" />
  <path d="M 103.00 133.00 L 111.00 137.00 L 108.00 134.00 L 99.00 141.00 L 104.00 133.00" fill="none" stroke="#000000" stroke-width="0.82" />
  <path d="M 198.00 174.00 L 207.00 186.00 L 219.00 190.00 L 224.00 199.00 L 248.00 201.00 L 254.00 207.00 L 250.00 202.00 L 221.00 197.00 L 217.00 203.00 L 215.00 200.00 L 216.00 204.00 L 220.00 196.00 L 217.00 188.00 L 197.00 177.00 L 207.00 196.00 L 207.00 190.00 L 196.00 177.00" fill="none" stroke="#322319" stroke-width="0.82" />
  <path d="M 66.00 180.00 L 48.00 210.00 L 65.00 181.00" fill="none" stroke="#000000" stroke-width="0.82" />
  <path d="M 106.00 17.00 L 112.00 23.00 L 139.00 17.00 L 149.00 22.00 L 102.00 18.00 L 86.00 38.00" fill="none" stroke="#000000" stroke-width="0.82" />
  <path d="M 137.00 27.00 L 156.00 40.00 L 155.00 52.00 L 156.00 42.00 L 149.00 31.00 L 132.00 28.00" fill="none" stroke="#896C66" stroke-width="0.82" />
  <path d="M 103.00 36.00 L 144.00 81.00 L 152.00 71.00 L 169.00 71.00 L 186.00 82.00 L 225.00 72.00 L 233.00 81.00 L 233.00 75.00 L 185.00 82.00 L 184.00 77.00 L 150.00 73.00 L 143.00 81.00 L 120.00 56.00 L 116.00 44.00 L 106.00 36.00 L 99.00 39.00" fill="none" stroke="#120E11" stroke-width="0.82" />
  <path d="M 91.00 62.00 L 87.00 77.00 L 65.00 94.00 L 65.00 100.00 L 72.00 93.00 L 63.00 96.00 L 87.00 75.00 L 90.00 64.00" fill="none" stroke="#130A0C" stroke-width="0.82" />
  <path d="M 39.00 157.00 L 42.00 163.00 L 14.00 198.00 L 42.00 158.00 L 6.00 196.00 L 32.00 167.00" fill="none" stroke="#000000" stroke-width="0.82" />
  <path d="M 204.00 183.00 L 220.00 192.00 L 204.00 184.00" fill="none" stroke="#000000" stroke-width="0.82" />
  <path d="M 106.00 17.00 L 112.00 23.00 L 142.00 17.00 L 148.00 26.00 L 148.00 21.00 L 137.00 18.00 L 102.00 18.00 L 89.00 30.00" fill="none" stroke="#000000" stroke-width="0.82" />
  <path d="M 103.00 36.00 L 118.00 47.00 L 122.00 58.00 L 116.00 44.00 L 106.00 36.00 L 99.00 39.00" fill="none" stroke="#1C1419" stroke-width="0.82" />
  <path d="M 159.00 164.00 L 168.00 172.00 L 162.00 192.00 L 167.00 170.00 L 161.00 164.00" fill="none" stroke="#555665" stroke-width="0.82" />
  <path d="M 106.00 17.00 L 112.00 23.00 L 142.00 24.00 L 137.00 24.00 L 141.00 17.00 L 148.00 26.00 L 146.00 19.00 L 112.00 25.00 L 101.00 19.00" fill="none" stroke="#000000" stroke-width="0.82" />
  <path d="M 152.00 71.00 L 185.00 79.00 L 150.00 73.00" fill="none" stroke="#425162" stroke-width="0.82" />
  <path d="M 217.00 72.00 L 231.00 74.00 L 234.00 81.00 L 233.00 75.00 L 212.00 73.00 L 177.00 86.00" fill="none" stroke="#000000" stroke-width="0.82" />
  <path d="M 59.00 108.00 L 77.00 115.00 L 50.00 109.00" fill="none" stroke="#000000" stroke-width="0.82" />
  <path d="M 99.00 41.00 L 99.00 47.00 L 106.00 45.00 L 96.00 45.00 L 92.00 58.00 L 94.00 47.00" fill="none" stroke="#450A13" stroke-width="0.82" />
  <path d="M 229.00 85.00 L 231.00 88.00 L 227.00 94.00 L 220.00 102.00 L 218.00 101.00" fill="none" stroke="#000000" stroke-width="0.82" />
  <path d="M 89.00 104.00 L 101.00 104.00 L 103.00 108.00 L 108.00 105.00 L 103.00 109.00 L 99.00 120.00 L 93.00 118.00 L 88.00 123.00 L 101.00 114.00 L 102.00 106.00 L 85.00 105.00 L 77.00 110.00" fill="none" stroke="#000000" stroke-width="0.82" />
  <path d="M 151.00 144.00 L 170.00 156.00" fill="none" stroke="#000000" stroke-width="0.82" />
  <path d="M 165.00 144.00 L 173.00 154.00 L 163.00 145.00" fill="none" stroke="#000000" stroke-width="0.82" />
  <path d="M 210.00 90.00 L 218.00 96.00 L 215.00 103.00 L 215.00 100.00 L 212.00 103.00 L 217.00 94.00 L 210.00 91.00" fill="none" stroke="#000000" stroke-width="0.82" />
  <path d="M 148.00 142.00 L 170.00 156.00 L 149.00 142.00 L 141.00 150.00 L 145.00 161.00 L 141.00 152.00 L 142.00 146.00 L 139.00 147.00" fill="none" stroke="#000000" stroke-width="0.82" />
  <path d="M 184.00 153.00 L 192.00 162.00 L 188.00 166.00 L 191.00 160.00" fill="none" stroke="#000000" stroke-width="0.82" />
  <path d="M 69.00 168.00 L 80.00 173.00 L 72.00 168.00 L 66.00 170.00 L 52.00 185.00 L 41.00 206.00 L 38.00 208.00 L 46.00 194.00" fill="none" stroke="#000000" stroke-width="0.82" />
  <path d="M 84.00 229.00 L 87.00 232.00 L 89.00 229.00 L 84.00 235.00 L 83.00 230.00 L 81.00 231.00 L 84.00 240.00 L 80.00 232.00" fill="none" stroke="#000000" stroke-width="0.82" />
</svg>