<svg width="1000" height="600" viewBox="0 0 1000 600" xmlns="http://www.w3.org/2000/svg" shape-rendering="geometricPrecision">
  <path d="M 633.0,422.0 L 635.0,422.0 L 640.0,427.0 L 638.0,450.0 L 631.0,456.0 L 620.0,462.0 L 606.0,448.0 L 609.0,427.0 L 632.0,423.0 Z" fill="#c1a6a9" stroke-width="0.05" />
  <path d="M 576.0,170.0 L 549.0,175.0 L 546.0,197.0 L 561.0,211.0 L 580.0,203.0 L 585.0,188.0 L 586.0,180.0 L 577.0,171.0 Z" fill="#251b57" stroke-width="0.05" />
  <path d="M 113.0,435.0 L 100.0,448.0 L 97.0,473.0 L 105.0,480.0 L 124.0,466.0 L 131.0,463.0 L 132.0,453.0 L 114.0,436.0 Z" fill="#4f2a67" stroke-width="0.05" />
  <path d="M 919.0,393.0 L 904.0,405.0 L 886.0,413.0 L 907.0,437.0 L 930.0,430.0 L 932.0,428.0 L 936.0,411.0 L 919.0,393.0 Z" fill="#f5e3bf" stroke-width="0.05" />
  <path d="M 154.0,0.0 L 190.0,0.0 L 189.0,22.0 L 170.0,37.0 L 153.0,20.0 L 154.0,1.0 Z" fill="#3e2a7c" stroke-width="0.05" />
  <path d="M 224.0,28.0 L 241.0,43.0 L 239.0,50.0 L 239.0,64.0 L 214.0,71.0 L 204.0,61.0 L 206.0,39.0 L 223.0,29.0 Z" fill="#382878" stroke-width="0.05" />
  <path d="M 729.0,484.0 L 746.0,499.0 L 743.0,521.0 L 717.0,526.0 L 707.0,516.0 L 712.0,496.0 L 728.0,485.0 Z" fill="#f0d1c6" stroke-width="0.05" />
  <path d="M 199.0,62.0 L 204.0,62.0 L 213.0,71.0 L 213.0,79.0 L 210.0,91.0 L 194.0,102.0 L 190.0,103.0 L 175.0,88.0 L 177.0,67.0 L 198.0,63.0 Z" fill="#312772" stroke-width="0.05" />
  <path d="M 719.0,169.0 L 717.0,171.0 L 717.0,176.0 L 706.0,190.0 L 704.0,203.0 L 715.0,217.0 L 720.0,227.0 L 724.0,224.0 L 733.0,221.0 L 734.0,223.0 L 736.0,223.0 L 738.0,222.0 L 739.0,218.0 L 737.0,201.0 L 738.0,187.0 L 720.0,170.0 Z" fill="#a68b95" stroke-width="0.05" />
  <path d="M 809.0,396.0 L 795.0,401.0 L 784.0,403.0 L 782.0,425.0 L 795.0,438.0 L 800.0,439.0 L 809.0,429.0 L 817.0,426.0 L 820.0,420.0 L 822.0,407.0 L 810.0,397.0 Z" fill="#efd9cb" stroke-width="0.05" />
  <path d="M 49.0,51.0 L 32.0,64.0 L 29.0,89.0 L 36.0,95.0 L 57.0,90.0 L 63.0,90.0 L 66.0,68.0 L 50.0,52.0 Z" fill="#eceed4" stroke-width="0.05" />
  <path d="M 310.0,252.0 L 313.0,252.0 L 322.0,261.0 L 320.0,282.0 L 300.0,295.0 L 284.0,279.0 L 284.0,259.0 L 309.0,253.0 Z" fill="#2e1e62" stroke-width="0.05" />
  <path d="M 803.0,575.0 L 819.0,599.0 L 782.0,599.0 L 782.0,592.0 L 801.0,576.0 L 820.0,599.0 L 803.0,575.0 Z" fill="#fad9d0" stroke-width="0.05" />
  <path d="M 660.0,15.0 L 666.0,17.0 L 673.0,24.0 L 676.0,30.0 L 674.0,40.0 L 677.0,45.0 L 677.0,48.0 L 662.0,51.0 L 651.0,55.0 L 641.0,44.0 L 641.0,34.0 L 644.0,27.0 L 658.0,16.0 L 678.0,48.0 L 660.0,15.0 Z" fill="#825089" stroke-width="0.05" />
  <path d="M 301.0,28.0 L 303.0,28.0 L 316.0,37.0 L 315.0,53.0 L 313.0,59.0 L 293.0,70.0 L 278.0,55.0 L 278.0,48.0 L 285.0,43.0 L 296.0,31.0 L 300.0,29.0 Z" fill="#3b2979" stroke-width="0.05" />
  <path d="M 27.0,89.0 L 36.0,97.0 L 36.0,117.0 L 20.0,127.0 L 7.0,132.0 L 0.0,133.0 L 0.0,92.0 L 26.0,90.0 Z" fill="#ecedd4" stroke-width="0.05" />
  <path d="M 150.0,531.0 L 152.0,531.0 L 167.0,546.0 L 165.0,565.0 L 140.0,573.0 L 130.0,564.0 L 133.0,543.0 L 149.0,532.0 Z" fill="#f4f3e8" stroke-width="0.05" />
  <path d="M 801.0,173.0 L 803.0,173.0 L 810.0,179.0 L 810.0,195.0 L 808.0,203.0 L 800.0,211.0 L 796.0,212.0 L 789.0,217.0 L 779.0,205.0 L 779.0,203.0 L 775.0,201.0 L 774.0,198.0 L 774.0,179.0 L 800.0,174.0 Z" fill="#e7eccb" stroke-width="0.05" />
  <path d="M 863.0,430.0 L 865.0,432.0 L 866.0,443.0 L 868.0,448.0 L 867.0,454.0 L 853.0,466.0 L 843.0,471.0 L 839.0,470.0 L 832.0,464.0 L 832.0,444.0 L 833.0,445.0 L 837.0,443.0 L 841.0,438.0 L 846.0,435.0 L 862.0,431.0 Z" fill="#eacdd0" stroke-width="0.05" />
  <path d="M 508.0,384.0 L 519.0,393.0 L 516.0,414.0 L 497.0,427.0 L 482.0,411.0 L 484.0,390.0 L 507.0,385.0 Z" fill="#fad4cd" stroke-width="0.05" />
  <path d="M 824.0,139.0 L 806.0,150.0 L 804.0,159.0 L 804.0,173.0 L 811.0,179.0 L 836.0,174.0 L 840.0,156.0 L 825.0,140.0 Z" fill="#f7d6da" stroke-width="0.05" />
  <path d="M 0.0,45.0 L 6.0,46.0 L 31.0,64.0 L 28.0,88.0 L 0.0,91.0 L 0.0,46.0 Z" fill="#f4edd4" stroke-width="0.05" />
  <path d="M 938.0,519.0 L 921.0,528.0 L 906.0,540.0 L 906.0,561.0 L 915.0,567.0 L 941.0,551.0 L 941.0,520.0 L 939.0,520.0 Z" fill="#f9d5b9" stroke-width="0.05" />
  <path d="M 779.0,525.0 L 755.0,530.0 L 753.0,532.0 L 753.0,540.0 L 750.0,553.0 L 760.0,563.0 L 764.0,564.0 L 767.0,567.0 L 765.0,569.0 L 768.0,568.0 L 792.0,547.0 L 790.0,535.0 L 780.0,526.0 Z" fill="#f0cfc6" stroke-width="0.05" />
  <path d="M 182.0,311.0 L 199.0,328.0 L 196.0,338.0 L 196.0,348.0 L 170.0,354.0 L 160.0,345.0 L 163.0,324.0 L 181.0,312.0 Z" fill="#441a5a" stroke-width="0.05" />
  <path d="M 815.0,107.0 L 823.0,112.0 L 826.0,116.0 L 824.0,138.0 L 806.0,149.0 L 789.0,134.0 L 789.0,127.0 L 791.0,124.0 L 814.0,108.0 Z" fill="#f8e0e2" stroke-width="0.05" />
  <path d="M 757.0,261.0 L 743.0,272.0 L 741.0,280.0 L 739.0,278.0 L 739.0,275.0 L 737.0,276.0 L 734.0,297.0 L 736.0,299.0 L 738.0,298.0 L 747.0,308.0 L 771.0,301.0 L 775.0,288.0 L 775.0,281.0 L 757.0,261.0 Z" fill="#ebeac5" stroke-width="0.05" />
  <path d="M 666.0,511.0 L 658.0,518.0 L 657.0,522.0 L 656.0,519.0 L 654.0,526.0 L 646.0,533.0 L 645.0,536.0 L 645.0,541.0 L 651.0,547.0 L 656.0,555.0 L 665.0,552.0 L 667.0,549.0 L 677.0,544.0 L 680.0,537.0 L 681.0,523.0 L 667.0,512.0 L 665.0,553.0 L 666.0,555.0 L 666.0,511.0 Z" fill="#d3bcba" stroke-width="0.05" />
  <path d="M 770.0,111.0 L 774.0,112.0 L 788.0,126.0 L 788.0,134.0 L 783.0,137.0 L 774.0,147.0 L 765.0,153.0 L 763.0,153.0 L 750.0,143.0 L 751.0,128.0 L 753.0,122.0 L 769.0,112.0 Z" fill="#f2f6ce" stroke-width="0.05" />
  <path d="M 576.0,68.0 L 562.0,77.0 L 551.0,82.0 L 553.0,101.0 L 564.0,110.0 L 590.0,103.0 L 593.0,83.0 L 577.0,69.0 Z" fill="#30246d" stroke-width="0.05" />
  <path d="M 488.0,36.0 L 505.0,51.0 L 502.0,72.0 L 476.0,78.0 L 466.0,68.0 L 467.0,57.0 L 470.0,48.0 L 482.0,39.0 L 487.0,37.0 Z" fill="#392674" stroke-width="0.05" />
  <path d="M 733.0,297.0 L 720.0,301.0 L 713.0,307.0 L 711.0,327.0 L 714.0,330.0 L 716.0,336.0 L 721.0,341.0 L 727.0,338.0 L 730.0,339.0 L 736.0,334.0 L 739.0,334.0 L 739.0,332.0 L 742.0,329.0 L 746.0,308.0 L 738.0,299.0 L 736.0,300.0 L 734.0,298.0 L 744.0,331.0 L 743.0,332.0 L 733.0,297.0 Z" fill="#c5ada7" stroke-width="0.05" />
  <path d="M 465.0,477.0 L 467.0,477.0 L 482.0,493.0 L 479.0,513.0 L 461.0,519.0 L 457.0,519.0 L 444.0,508.0 L 447.0,488.0 L 464.0,478.0 Z" fill="#e7bfba" stroke-width="0.05" />
  <path d="M 317.0,474.0 L 321.0,474.0 L 330.0,483.0 L 328.0,504.0 L 309.0,517.0 L 292.0,501.0 L 294.0,480.0 L 316.0,475.0 Z" fill="#311a57" stroke-width="0.05" />
  <path d="M 725.0,76.0 L 731.0,77.0 L 737.0,83.0 L 735.0,106.0 L 718.0,117.0 L 712.0,118.0 L 713.0,120.0 L 714.0,119.0 L 711.0,117.0 L 708.0,109.0 L 702.0,103.0 L 702.0,95.0 L 697.0,83.0 L 724.0,77.0 L 699.0,85.0 L 725.0,76.0 Z" fill="#e9edca" stroke-width="0.05" />
  <path d="M 427.0,199.0 L 436.0,200.0 L 438.0,202.0 L 441.0,207.0 L 445.0,210.0 L 445.0,213.0 L 448.0,218.0 L 448.0,223.0 L 424.0,242.0 L 408.0,226.0 L 411.0,205.0 L 416.0,201.0 L 426.0,200.0 Z" fill="#f1cac5" stroke-width="0.05" />
  <path d="M 928.0,0.0 L 965.0,0.0 L 961.0,21.0 L 944.0,33.0 L 927.0,16.0 L 928.0,1.0 Z" fill="#f1fad2" stroke-width="0.05" />
  <path d="M 846.0,24.0 L 850.0,24.0 L 863.0,35.0 L 865.0,40.0 L 865.0,46.0 L 859.0,50.0 L 840.0,69.0 L 838.0,68.0 L 835.0,63.0 L 824.0,52.0 L 825.0,39.0 L 826.0,34.0 L 828.0,32.0 L 845.0,25.0 Z" fill="#e4e3d5" stroke-width="0.05" />
  <path d="M 417.0,161.0 L 425.0,164.0 L 437.0,176.0 L 435.0,187.0 L 435.0,199.0 L 427.0,198.0 L 416.0,200.0 L 411.0,204.0 L 403.0,194.0 L 405.0,174.0 L 408.0,173.0 L 414.0,167.0 L 416.0,162.0 Z" fill="#8c5a7c" stroke-width="0.05" />
  <path d="M 844.0,490.0 L 855.0,498.0 L 854.0,519.0 L 842.0,526.0 L 834.0,533.0 L 818.0,517.0 L 819.0,510.0 L 824.0,507.0 L 834.0,496.0 L 843.0,491.0 Z" fill="#efcdc7" stroke-width="0.05" />
  <path d="M 701.0,428.0 L 707.0,429.0 L 717.0,438.0 L 718.0,452.0 L 714.0,454.0 L 702.0,466.0 L 695.0,470.0 L 692.0,469.0 L 675.0,453.0 L 676.0,434.0 L 700.0,429.0 Z" fill="#f4d7c6" stroke-width="0.05" />
  <path d="M 271.0,159.0 L 276.0,159.0 L 285.0,167.0 L 285.0,176.0 L 282.0,185.0 L 282.0,190.0 L 263.0,201.0 L 247.0,183.0 L 249.0,164.0 L 270.0,160.0 Z" fill="#36256a" stroke-width="0.05" />
  <path d="M 420.0,444.0 L 431.0,452.0 L 430.0,473.0 L 411.0,484.0 L 404.0,486.0 L 397.0,481.0 L 395.0,477.0 L 396.0,461.0 L 419.0,445.0 Z" fill="#fad4cd" stroke-width="0.05" />
  <path d="M 496.0,348.0 L 512.0,363.0 L 509.0,375.0 L 509.0,382.0 L 507.0,384.0 L 482.0,389.0 L 473.0,381.0 L 470.0,365.0 L 488.0,352.0 L 495.0,349.0 Z" fill="#fbd3cc" stroke-width="0.05" />
  <path d="M 0.0,555.0 L 17.0,564.0 L 32.0,577.0 L 32.0,595.0 L 30.0,599.0 L 0.0,599.0 L 0.0,557.0 Z" fill="#ecc5c7" stroke-width="0.05" />
  <path d="M 700.0,0.0 L 749.0,0.0 L 726.0,23.0 L 717.0,28.0 L 699.0,14.0 L 700.0,1.0 Z" fill="#f0fcd0" stroke-width="0.05" />
  <path d="M 665.0,362.0 L 670.0,362.0 L 671.0,364.0 L 685.0,363.0 L 693.0,370.0 L 692.0,390.0 L 684.0,394.0 L 681.0,400.0 L 674.0,404.0 L 657.0,387.0 L 660.0,377.0 L 661.0,363.0 L 664.0,363.0 Z" fill="#a2899b" stroke-width="0.05" />
  <path d="M 643.0,542.0 L 645.0,542.0 L 657.0,556.0 L 657.0,568.0 L 655.0,567.0 L 653.0,571.0 L 652.0,599.0 L 621.0,599.0 L 619.0,562.0 L 623.0,560.0 L 630.0,552.0 L 642.0,543.0 L 657.0,569.0 L 654.0,599.0 L 643.0,542.0 Z" fill="#282556" stroke-width="0.05" />
  <path d="M 599.0,221.0 L 579.0,241.0 L 572.0,246.0 L 575.0,258.0 L 582.0,264.0 L 585.0,264.0 L 587.0,267.0 L 594.0,264.0 L 599.0,265.0 L 607.0,261.0 L 608.0,263.0 L 613.0,262.0 L 614.0,260.0 L 614.0,246.0 L 611.0,245.0 L 611.0,242.0 L 609.0,240.0 L 613.0,240.0 L 614.0,238.0 L 604.0,225.0 L 600.0,224.0 L 600.0,222.0 L 615.0,240.0 L 614.0,241.0 L 616.0,241.0 L 613.0,250.0 L 599.0,221.0 Z" fill="#573b7f" stroke-width="0.05" />
  <path d="M 42.0,341.0 L 59.0,358.0 L 59.0,361.0 L 56.0,366.0 L 34.0,382.0 L 32.0,382.0 L 23.0,375.0 L 26.0,351.0 L 41.0,342.0 Z" fill="#e0dac0" stroke-width="0.05" />
  <path d="M 392.0,481.0 L 396.0,481.0 L 404.0,487.0 L 407.0,508.0 L 398.0,512.0 L 381.0,526.0 L 366.0,508.0 L 370.0,496.0 L 370.0,487.0 L 391.0,482.0 Z" fill="#bf6e86" stroke-width="0.05" />
  <path d="M 884.0,414.0 L 888.0,416.0 L 906.0,437.0 L 904.0,458.0 L 885.0,470.0 L 868.0,454.0 L 869.0,448.0 L 865.0,429.0 L 869.0,420.0 L 883.0,415.0 Z" fill="#f7debd" stroke-width="0.05" />
  <path d="M 788.0,135.0 L 805.0,149.0 L 803.0,159.0 L 803.0,172.0 L 774.0,178.0 L 766.0,171.0 L 764.0,154.0 L 774.0,148.0 L 783.0,138.0 L 787.0,136.0 Z" fill="#f4eed5" stroke-width="0.05" />
  <path d="M 948.0,84.0 L 938.0,94.0 L 927.0,99.0 L 925.0,119.0 L 934.0,126.0 L 938.0,127.0 L 949.0,120.0 L 950.0,117.0 L 961.0,107.0 L 961.0,103.0 L 951.0,92.0 L 949.0,85.0 Z" fill="#e9e6d7" stroke-width="0.05" />
  <path d="M 794.0,360.0 L 810.0,375.0 L 808.0,385.0 L 809.0,395.0 L 795.0,400.0 L 784.0,402.0 L 770.0,392.0 L 768.0,375.0 L 779.0,370.0 L 793.0,361.0 Z" fill="#f5e5cc" stroke-width="0.05" />
  <path d="M 71.0,211.0 L 73.0,211.0 L 92.0,229.0 L 91.0,248.0 L 61.0,253.0 L 50.0,242.0 L 53.0,232.0 L 53.0,225.0 L 70.0,212.0 Z" fill="#f1f2cb" stroke-width="0.05" />
  <path d="M 866.0,366.0 L 883.0,383.0 L 882.0,391.0 L 885.0,413.0 L 868.0,419.0 L 844.0,398.0 L 847.0,387.0 L 847.0,378.0 L 865.0,367.0 Z" fill="#f3e4c7" stroke-width="0.05" />
  <path d="M 539.0,75.0 L 541.0,75.0 L 550.0,82.0 L 552.0,101.0 L 527.0,118.0 L 525.0,118.0 L 511.0,104.0 L 514.0,83.0 L 538.0,76.0 Z" fill="#332570" stroke-width="0.05" />
  <path d="M 873.0,78.0 L 875.0,78.0 L 891.0,94.0 L 888.0,115.0 L 862.0,120.0 L 852.0,111.0 L 857.0,87.0 L 872.0,79.0 Z" fill="#f0f7ce" stroke-width="0.05" />
  <path d="M 166.0,377.0 L 183.0,393.0 L 182.0,400.0 L 176.0,403.0 L 164.0,415.0 L 156.0,420.0 L 144.0,409.0 L 147.0,389.0 L 165.0,378.0 Z" fill="#2a1853" stroke-width="0.05" />
  <path d="M 186.0,127.0 L 190.0,128.0 L 200.0,136.0 L 203.0,155.0 L 191.0,160.0 L 177.0,170.0 L 175.0,170.0 L 159.0,153.0 L 164.0,133.0 L 185.0,128.0 Z" fill="#292369" stroke-width="0.05" />
  <path d="M 359.0,477.0 L 361.0,477.0 L 369.0,486.0 L 369.0,496.0 L 366.0,506.0 L 353.0,516.0 L 344.0,520.0 L 329.0,505.0 L 331.0,484.0 L 358.0,478.0 Z" fill="#231a56" stroke-width="0.05" />
  <path d="M 595.0,417.0 L 597.0,417.0 L 608.0,427.0 L 605.0,447.0 L 587.0,458.0 L 570.0,439.0 L 570.0,437.0 L 584.0,424.0 L 594.0,418.0 Z" fill="#e7b2b0" stroke-width="0.05" />
  <path d="M 371.0,221.0 L 389.0,239.0 L 388.0,258.0 L 359.0,264.0 L 350.0,255.0 L 352.0,233.0 L 370.0,222.0 Z" fill="#241e5f" stroke-width="0.05" />
  <path d="M 318.0,384.0 L 324.0,386.0 L 334.0,395.0 L 335.0,406.0 L 325.0,413.0 L 309.0,428.0 L 307.0,428.0 L 291.0,411.0 L 294.0,392.0 L 317.0,385.0 Z" fill="#3a1957" stroke-width="0.05" />
  <path d="M 768.0,393.0 L 772.0,394.0 L 783.0,402.0 L 781.0,425.0 L 774.0,425.0 L 766.0,433.0 L 761.0,435.0 L 746.0,419.0 L 746.0,410.0 L 767.0,394.0 Z" fill="#edd7c8" stroke-width="0.05" />
  <path d="M 888.0,523.0 L 905.0,540.0 L 905.0,560.0 L 877.0,568.0 L 867.0,559.0 L 871.0,535.0 L 887.0,524.0 Z" fill="#f9d5b8" stroke-width="0.05" />
  <path d="M 327.0,97.0 L 302.0,103.0 L 299.0,124.0 L 314.0,139.0 L 329.0,132.0 L 334.0,127.0 L 337.0,107.0 L 328.0,98.0 Z" fill="#2e246b" stroke-width="0.05" />
  <path d="M 385.0,157.0 L 387.0,157.0 L 404.0,174.0 L 402.0,194.0 L 374.0,199.0 L 364.0,189.0 L 367.0,169.0 L 384.0,158.0 Z" fill="#2a2166" stroke-width="0.05" />
  <path d="M 81.0,436.0 L 79.0,439.0 L 74.0,441.0 L 62.0,451.0 L 60.0,468.0 L 69.0,478.0 L 74.0,476.0 L 75.0,477.0 L 77.0,475.0 L 87.0,475.0 L 88.0,473.0 L 93.0,474.0 L 96.0,473.0 L 97.0,470.0 L 98.0,454.0 L 87.0,445.0 L 83.0,437.0 L 84.0,443.0 L 81.0,436.0 Z" fill="#ddbbaa" stroke-width="0.05" />
  <path d="M 940.0,552.0 L 944.0,553.0 L 958.0,570.0 L 958.0,576.0 L 955.0,578.0 L 955.0,599.0 L 920.0,599.0 L 916.0,567.0 L 939.0,553.0 Z" fill="#f1cbc2" stroke-width="0.05" />
  <path d="M 903.0,50.0 L 878.0,56.0 L 877.0,72.0 L 875.0,77.0 L 891.0,93.0 L 910.0,81.0 L 914.0,60.0 L 904.0,51.0 Z" fill="#f0f8ce" stroke-width="0.05" />
  <path d="M 57.0,276.0 L 39.0,287.0 L 36.0,310.0 L 45.0,319.0 L 54.0,316.0 L 73.0,313.0 L 74.0,293.0 L 58.0,277.0 Z" fill="#f0edc7" stroke-width="0.05" />
  <path d="M 552.0,420.0 L 568.0,434.0 L 569.0,439.0 L 543.0,461.0 L 541.0,461.0 L 530.0,453.0 L 533.0,432.0 L 551.0,421.0 Z" fill="#e0aaac" stroke-width="0.05" />
  <path d="M 791.0,461.0 L 795.0,461.0 L 805.0,471.0 L 801.0,491.0 L 790.0,499.0 L 781.0,503.0 L 767.0,486.0 L 769.0,467.0 L 790.0,462.0 Z" fill="#eacbc6" stroke-width="0.05" />
  <path d="M 721.0,261.0 L 736.0,276.0 L 733.0,296.0 L 720.0,300.0 L 719.0,302.0 L 713.0,304.0 L 698.0,290.0 L 697.0,277.0 L 709.0,271.0 L 720.0,262.0 Z" fill="#816e89" stroke-width="0.05" />
  <path d="M 258.0,314.0 L 261.0,314.0 L 271.0,322.0 L 271.0,345.0 L 265.0,346.0 L 262.0,350.0 L 252.0,355.0 L 235.0,339.0 L 237.0,331.0 L 250.0,318.0 L 257.0,315.0 Z" fill="#e656b7" stroke-width="0.05" />
  <path d="M 579.0,292.0 L 573.0,295.0 L 571.0,300.0 L 569.0,297.0 L 566.0,300.0 L 564.0,308.0 L 563.0,322.0 L 572.0,331.0 L 596.0,327.0 L 598.0,320.0 L 600.0,306.0 L 585.0,292.0 L 581.0,294.0 L 579.0,292.0 Z" fill="#d7a3c5" stroke-width="0.05" />
  <path d="M 156.0,346.0 L 162.0,347.0 L 170.0,355.0 L 166.0,376.0 L 147.0,388.0 L 131.0,371.0 L 134.0,351.0 L 155.0,347.0 Z" fill="#2b1956" stroke-width="0.05" />
  <path d="M 648.0,267.0 L 627.0,271.0 L 624.0,273.0 L 624.0,281.0 L 621.0,295.0 L 634.0,308.0 L 639.0,307.0 L 653.0,299.0 L 655.0,276.0 L 649.0,268.0 Z" fill="#dac3c4" stroke-width="0.05" />
  <path d="M 970.0,333.0 L 987.0,347.0 L 999.0,354.0 L 999.0,369.0 L 963.0,375.0 L 959.0,375.0 L 954.0,370.0 L 950.0,365.0 L 951.0,345.0 L 969.0,334.0 Z" fill="#e9e3c6" stroke-width="0.05" />
  <path d="M 48.0,243.0 L 50.0,243.0 L 61.0,254.0 L 57.0,275.0 L 38.0,286.0 L 25.0,274.0 L 29.0,249.0 L 47.0,244.0 Z" fill="#f5ebd2" stroke-width="0.05" />
  <path d="M 183.0,400.0 L 176.0,404.0 L 164.0,416.0 L 157.0,420.0 L 158.0,435.0 L 171.0,445.0 L 187.0,440.0 L 196.0,439.0 L 199.0,418.0 L 183.0,400.0 Z" fill="#2b1955" stroke-width="0.05" />
  <path d="M 158.0,243.0 L 160.0,243.0 L 176.0,260.0 L 173.0,270.0 L 173.0,278.0 L 149.0,286.0 L 136.0,277.0 L 134.0,261.0 L 157.0,244.0 Z" fill="#241d5e" stroke-width="0.05" />
  <path d="M 94.0,276.0 L 93.0,281.0 L 87.0,286.0 L 80.0,288.0 L 75.0,293.0 L 74.0,298.0 L 74.0,313.0 L 86.0,323.0 L 90.0,320.0 L 92.0,316.0 L 97.0,316.0 L 102.0,308.0 L 110.0,302.0 L 110.0,296.0 L 94.0,276.0 Z" fill="#d1beab" stroke-width="0.05" />
  <path d="M 678.0,544.0 L 696.0,561.0 L 692.0,575.0 L 690.0,599.0 L 655.0,599.0 L 656.0,585.0 L 654.0,571.0 L 655.0,568.0 L 657.0,570.0 L 658.0,569.0 L 658.0,556.0 L 662.0,553.0 L 666.0,554.0 L 667.0,550.0 L 676.0,545.0 L 665.0,555.0 L 667.0,555.0 L 656.0,571.0 L 657.0,572.0 L 654.0,573.0 L 657.0,573.0 L 654.0,574.0 L 657.0,574.0 L 654.0,575.0 L 657.0,575.0 L 654.0,576.0 L 657.0,576.0 L 654.0,577.0 L 657.0,577.0 L 654.0,578.0 L 657.0,578.0 L 654.0,579.0 L 657.0,579.0 L 654.0,580.0 L 657.0,580.0 L 654.0,581.0 L 657.0,582.0 L 653.0,583.0 L 657.0,583.0 L 653.0,584.0 L 657.0,584.0 L 653.0,585.0 L 653.0,599.0 L 678.0,544.0 Z" fill="#f0e2d7" stroke-width="0.05" />
  <path d="M 692.0,76.0 L 665.0,91.0 L 664.0,99.0 L 668.0,123.0 L 682.0,116.0 L 701.0,102.0 L 701.0,95.0 L 696.0,83.0 L 697.0,80.0 L 694.0,80.0 L 699.0,84.0 L 692.0,76.0 Z" fill="#452b6c" stroke-width="0.05" />
  <path d="M 450.0,135.0 L 452.0,135.0 L 460.0,142.0 L 460.0,152.0 L 457.0,161.0 L 457.0,167.0 L 455.0,169.0 L 449.0,168.0 L 446.0,170.0 L 446.0,173.0 L 438.0,176.0 L 423.0,162.0 L 426.0,140.0 L 433.0,138.0 L 434.0,139.0 L 437.0,137.0 L 449.0,136.0 Z" fill="#412b67" stroke-width="0.05" />
  <path d="M 386.0,259.0 L 393.0,263.0 L 395.0,280.0 L 387.0,288.0 L 384.0,296.0 L 377.0,303.0 L 375.0,303.0 L 357.0,284.0 L 359.0,278.0 L 360.0,265.0 L 385.0,260.0 Z" fill="#332963" stroke-width="0.05" />
  <path d="M 717.0,362.0 L 721.0,363.0 L 729.0,373.0 L 727.0,390.0 L 726.0,394.0 L 723.0,397.0 L 714.0,400.0 L 707.0,405.0 L 701.0,398.0 L 693.0,392.0 L 694.0,370.0 L 704.0,367.0 L 706.0,365.0 L 707.0,366.0 L 716.0,363.0 L 723.0,399.0 L 717.0,362.0 Z" fill="#b28496" stroke-width="0.05" />
  <path d="M 962.0,21.0 L 957.0,26.0 L 943.0,35.0 L 941.0,55.0 L 952.0,65.0 L 972.0,59.0 L 977.0,37.0 L 963.0,22.0 Z" fill="#f5eeda" stroke-width="0.05" />
  <path d="M 550.0,284.0 L 535.0,294.0 L 522.0,306.0 L 524.0,318.0 L 534.0,327.0 L 562.0,322.0 L 565.0,299.0 L 562.0,298.0 L 550.0,284.0 Z" fill="#f9d8cf" stroke-width="0.05" />
  <path d="M 305.0,348.0 L 307.0,348.0 L 321.0,364.0 L 320.0,383.0 L 293.0,391.0 L 283.0,380.0 L 286.0,360.0 L 304.0,349.0 Z" fill="#511858" stroke-width="0.05" />
  <path d="M 564.0,547.0 L 566.0,547.0 L 575.0,559.0 L 575.0,562.0 L 573.0,568.0 L 567.0,575.0 L 566.0,583.0 L 560.0,591.0 L 559.0,592.0 L 550.0,583.0 L 540.0,572.0 L 540.0,570.0 L 543.0,552.0 L 563.0,548.0 Z" fill="#dad8d1" stroke-width="0.05" />
  <path d="M 995.0,370.0 L 999.0,370.0 L 999.0,398.0 L 988.0,402.0 L 974.0,413.0 L 972.0,413.0 L 955.0,397.0 L 960.0,376.0 L 982.0,373.0 L 987.0,371.0 L 994.0,371.0 Z" fill="#e4dcc2" stroke-width="0.05" />
  <path d="M 961.0,108.0 L 951.0,117.0 L 949.0,121.0 L 937.0,128.0 L 939.0,143.0 L 953.0,153.0 L 970.0,147.0 L 974.0,132.0 L 979.0,125.0 L 962.0,109.0 Z" fill="#e7e0d8" stroke-width="0.05" />
  <path d="M 705.0,517.0 L 707.0,517.0 L 717.0,527.0 L 713.0,550.0 L 696.0,560.0 L 679.0,543.0 L 681.0,537.0 L 682.0,523.0 L 704.0,518.0 Z" fill="#edcac2" stroke-width="0.05" />
  <path d="M 157.0,154.0 L 159.0,154.0 L 175.0,171.0 L 174.0,189.0 L 147.0,197.0 L 137.0,187.0 L 140.0,165.0 L 156.0,155.0 Z" fill="#272266" stroke-width="0.05" />
  <path d="M 71.0,403.0 L 82.0,412.0 L 78.0,438.0 L 62.0,449.0 L 43.0,429.0 L 45.0,423.0 L 46.0,409.0 L 70.0,404.0 Z" fill="#f7debb" stroke-width="0.05" />
  <path d="M 685.0,270.0 L 687.0,270.0 L 696.0,277.0 L 698.0,292.0 L 693.0,295.0 L 682.0,306.0 L 669.0,315.0 L 656.0,301.0 L 656.0,277.0 L 684.0,271.0 Z" fill="#201f5d" stroke-width="0.05" />
  <path d="M 381.0,351.0 L 387.0,351.0 L 395.0,358.0 L 394.0,379.0 L 374.0,391.0 L 359.0,377.0 L 359.0,371.0 L 357.0,370.0 L 358.0,366.0 L 356.0,365.0 L 356.0,357.0 L 357.0,355.0 L 380.0,352.0 L 357.0,375.0 L 381.0,351.0 Z" fill="#b18886" stroke-width="0.05" />
  <path d="M 163.0,57.0 L 167.0,57.0 L 176.0,66.0 L 174.0,87.0 L 155.0,100.0 L 139.0,84.0 L 140.0,65.0 L 162.0,58.0 Z" fill="#312872" stroke-width="0.05" />
  <path d="M 590.0,104.0 L 565.0,111.0 L 563.0,132.0 L 578.0,146.0 L 597.0,135.0 L 602.0,115.0 L 591.0,105.0 Z" fill="#2a2266" stroke-width="0.05" />
  <path d="M 739.0,221.0 L 759.0,244.0 L 756.0,261.0 L 742.0,272.0 L 742.0,274.0 L 740.0,275.0 L 741.0,279.0 L 739.0,274.0 L 736.0,275.0 L 722.0,260.0 L 722.0,227.0 L 733.0,222.0 L 734.0,224.0 L 738.0,223.0 L 723.0,263.0 L 739.0,221.0 Z" fill="#dedbbd" stroke-width="0.05" />
  <path d="M 923.0,208.0 L 926.0,208.0 L 935.0,217.0 L 932.0,239.0 L 913.0,251.0 L 898.0,236.0 L 901.0,214.0 L 922.0,209.0 Z" fill="#f2f4cc" stroke-width="0.05" />
  <path d="M 523.0,319.0 L 535.0,328.0 L 532.0,350.0 L 512.0,362.0 L 497.0,347.0 L 498.0,338.0 L 522.0,320.0 Z" fill="#fad8cf" stroke-width="0.05" />
  <path d="M 792.0,548.0 L 766.0,570.0 L 773.0,582.0 L 782.0,591.0 L 796.0,578.0 L 803.0,574.0 L 806.0,560.0 L 793.0,549.0 Z" fill="#f4d3ca" stroke-width="0.05" />
  <path d="M 333.0,320.0 L 337.0,321.0 L 350.0,332.0 L 351.0,348.0 L 341.0,351.0 L 321.0,363.0 L 308.0,349.0 L 307.0,341.0 L 310.0,332.0 L 310.0,327.0 L 332.0,321.0 Z" fill="#351b5a" stroke-width="0.05" />
  <path d="M 211.0,184.0 L 198.0,194.0 L 187.0,200.0 L 188.0,215.0 L 201.0,226.0 L 226.0,220.0 L 229.0,199.0 L 212.0,185.0 Z" fill="#1f1953" stroke-width="0.05" />
  <path d="M 91.0,562.0 L 95.0,563.0 L 101.0,569.0 L 102.0,579.0 L 99.0,599.0 L 67.0,599.0 L 66.0,597.0 L 68.0,586.0 L 68.0,568.0 L 86.0,563.0 L 90.0,563.0 L 63.0,599.0 L 91.0,562.0 Z" fill="#eeece0" stroke-width="0.05" />
  <path d="M 386.0,67.0 L 366.0,80.0 L 364.0,101.0 L 375.0,110.0 L 396.0,95.0 L 401.0,93.0 L 402.0,83.0 L 387.0,68.0 Z" fill="#33256f" stroke-width="0.05" />
  <path d="M 173.0,190.0 L 186.0,200.0 L 187.0,215.0 L 178.0,220.0 L 169.0,229.0 L 161.0,234.0 L 144.0,217.0 L 147.0,198.0 L 172.0,191.0 Z" fill="#272165" stroke-width="0.05" />
  <path d="M 625.0,108.0 L 647.0,130.0 L 646.0,134.0 L 630.0,141.0 L 614.0,151.0 L 606.0,143.0 L 599.0,135.0 L 603.0,115.0 L 624.0,109.0 Z" fill="#282265" stroke-width="0.05" />
  <path d="M 469.0,292.0 L 474.0,293.0 L 482.0,300.0 L 482.0,308.0 L 479.0,322.0 L 463.0,333.0 L 454.0,330.0 L 453.0,327.0 L 444.0,321.0 L 447.0,298.0 L 448.0,295.0 L 468.0,293.0 L 445.0,319.0 L 448.0,320.0 L 444.0,322.0 L 460.0,334.0 L 469.0,292.0 Z" fill="#efcbc4" stroke-width="0.05" />
  <path d="M 505.0,295.0 L 509.0,295.0 L 521.0,305.0 L 523.0,318.0 L 498.0,337.0 L 480.0,321.0 L 483.0,308.0 L 483.0,300.0 L 504.0,296.0 Z" fill="#fad8d0" stroke-width="0.05" />
  <path d="M 133.0,188.0 L 137.0,188.0 L 146.0,197.0 L 143.0,218.0 L 125.0,229.0 L 106.0,211.0 L 107.0,193.0 L 132.0,189.0 Z" fill="#262064" stroke-width="0.05" />
  <path d="M 349.0,63.0 L 365.0,79.0 L 363.0,100.0 L 337.0,106.0 L 327.0,96.0 L 330.0,77.0 L 348.0,64.0 Z" fill="#32246e" stroke-width="0.05" />
  <path d="M 457.0,445.0 L 469.0,455.0 L 466.0,476.0 L 446.0,488.0 L 431.0,473.0 L 432.0,452.0 L 456.0,446.0 Z" fill="#fad6ce" stroke-width="0.05" />
  <path d="M 216.0,408.0 L 220.0,409.0 L 233.0,421.0 L 232.0,431.0 L 235.0,438.0 L 235.0,447.0 L 208.0,452.0 L 197.0,440.0 L 200.0,419.0 L 208.0,414.0 L 210.0,411.0 L 215.0,409.0 Z" fill="#61375b" stroke-width="0.05" />
  <path d="M 47.0,154.0 L 46.0,156.0 L 42.0,156.0 L 29.0,161.0 L 28.0,168.0 L 24.0,174.0 L 21.0,187.0 L 31.0,195.0 L 39.0,197.0 L 64.0,179.0 L 62.0,166.0 L 47.0,154.0 Z" fill="#eae6d5" stroke-width="0.05" />
  <path d="M 226.0,116.0 L 208.0,131.0 L 201.0,135.0 L 204.0,156.0 L 213.0,161.0 L 240.0,153.0 L 240.0,141.0 L 242.0,133.0 L 230.0,122.0 L 227.0,117.0 Z" fill="#231c58" stroke-width="0.05" />
  <path d="M 342.0,441.0 L 344.0,441.0 L 361.0,461.0 L 360.0,476.0 L 331.0,483.0 L 321.0,473.0 L 324.0,452.0 L 341.0,442.0 Z" fill="#271b58" stroke-width="0.05" />
  <path d="M 282.0,280.0 L 284.0,280.0 L 300.0,296.0 L 297.0,315.0 L 278.0,321.0 L 271.0,321.0 L 261.0,313.0 L 258.0,294.0 L 266.0,291.0 L 281.0,281.0 Z" fill="#4c1b5d" stroke-width="0.05" />
  <path d="M 867.0,455.0 L 869.0,455.0 L 885.0,471.0 L 881.0,491.0 L 855.0,497.0 L 845.0,489.0 L 842.0,472.0 L 850.0,469.0 L 866.0,456.0 Z" fill="#f2d3c5" stroke-width="0.05" />
  <path d="M 702.0,204.0 L 704.0,204.0 L 714.0,217.0 L 719.0,227.0 L 721.0,228.0 L 702.0,237.0 L 689.0,247.0 L 685.0,246.0 L 670.0,231.0 L 674.0,212.0 L 701.0,205.0 Z" fill="#252062" stroke-width="0.05" />
  <path d="M 999.0,490.0 L 988.0,494.0 L 980.0,500.0 L 961.0,503.0 L 955.0,514.0 L 958.0,518.0 L 977.0,532.0 L 999.0,529.0 L 999.0,492.0 Z" fill="#f8d3c1" stroke-width="0.05" />
  <path d="M 793.0,327.0 L 774.0,336.0 L 761.0,345.0 L 759.0,347.0 L 758.0,357.0 L 758.0,365.0 L 768.0,374.0 L 779.0,369.0 L 793.0,360.0 L 795.0,358.0 L 795.0,348.0 L 792.0,336.0 L 793.0,329.0 Z" fill="#f4eccd" stroke-width="0.05" />
  <path d="M 884.0,116.0 L 890.0,117.0 L 898.0,125.0 L 898.0,133.0 L 895.0,146.0 L 876.0,158.0 L 859.0,141.0 L 861.0,136.0 L 862.0,121.0 L 883.0,117.0 Z" fill="#f1f5cd" stroke-width="0.05" />
  <path d="M 818.0,426.0 L 831.0,441.0 L 831.0,463.0 L 805.0,470.0 L 795.0,460.0 L 795.0,440.0 L 801.0,440.0 L 809.0,430.0 L 817.0,427.0 Z" fill="#edd2cc" stroke-width="0.05" />
  <path d="M 369.0,416.0 L 378.0,423.0 L 378.0,436.0 L 376.0,442.0 L 364.0,452.0 L 363.0,459.0 L 361.0,460.0 L 359.0,458.0 L 345.0,442.0 L 344.0,439.0 L 347.0,431.0 L 349.0,418.0 L 368.0,417.0 Z" fill="#977a92" stroke-width="0.05" />
  <path d="M 891.0,0.0 L 927.0,0.0 L 926.0,16.0 L 907.0,28.0 L 890.0,11.0 L 891.0,1.0 Z" fill="#effacf" stroke-width="0.05" />
  <path d="M 242.0,473.0 L 220.0,487.0 L 218.0,506.0 L 230.0,516.0 L 244.0,505.0 L 256.0,498.0 L 253.0,490.0 L 254.0,486.0 L 243.0,474.0 Z" fill="#f3ded8" stroke-width="0.05" />
  <path d="M 286.0,474.0 L 293.0,480.0 L 292.0,500.0 L 283.0,507.0 L 283.0,510.0 L 275.0,515.0 L 257.0,499.0 L 256.0,493.0 L 262.0,490.0 L 271.0,481.0 L 285.0,475.0 Z" fill="#cd71a3" stroke-width="0.05" />
  <path d="M 151.0,21.0 L 153.0,21.0 L 169.0,38.0 L 166.0,56.0 L 139.0,64.0 L 129.0,57.0 L 124.0,51.0 L 124.0,37.0 L 150.0,22.0 Z" fill="#392977" stroke-width="0.05" />
  <path d="M 612.0,70.0 L 628.0,88.0 L 626.0,106.0 L 624.0,108.0 L 602.0,114.0 L 591.0,104.0 L 594.0,83.0 L 611.0,71.0 Z" fill="#2e266d" stroke-width="0.05" />
  <path d="M 267.0,346.0 L 272.0,346.0 L 276.0,348.0 L 284.0,355.0 L 283.0,357.0 L 285.0,359.0 L 285.0,365.0 L 282.0,380.0 L 263.0,387.0 L 256.0,388.0 L 247.0,379.0 L 253.0,356.0 L 262.0,351.0 L 266.0,347.0 Z" fill="#e85cbf" stroke-width="0.05" />
  <path d="M 719.0,452.0 L 714.0,455.0 L 702.0,467.0 L 695.0,471.0 L 694.0,480.0 L 711.0,496.0 L 729.0,483.0 L 731.0,476.0 L 731.0,462.0 L 720.0,453.0 Z" fill="#f0d2c1" stroke-width="0.05" />
  <path d="M 970.0,60.0 L 972.0,60.0 L 977.0,65.0 L 988.0,70.0 L 999.0,78.0 L 980.0,89.0 L 971.0,97.0 L 961.0,102.0 L 952.0,92.0 L 949.0,81.0 L 952.0,72.0 L 952.0,66.0 L 969.0,61.0 Z" fill="#edeed5" stroke-width="0.05" />
  <path d="M 150.0,121.0 L 163.0,133.0 L 158.0,153.0 L 141.0,164.0 L 139.0,164.0 L 124.0,149.0 L 126.0,141.0 L 126.0,128.0 L 149.0,122.0 Z" fill="#292368" stroke-width="0.05" />
  <path d="M 873.0,269.0 L 884.0,279.0 L 882.0,299.0 L 864.0,311.0 L 862.0,311.0 L 846.0,296.0 L 846.0,290.0 L 848.0,286.0 L 846.0,284.0 L 846.0,276.0 L 872.0,270.0 Z" fill="#eceeca" stroke-width="0.05" />
  <path d="M 144.0,502.0 L 148.0,502.0 L 151.0,505.0 L 150.0,506.0 L 154.0,509.0 L 151.0,530.0 L 132.0,542.0 L 117.0,527.0 L 119.0,505.0 L 124.0,506.0 L 143.0,503.0 Z" fill="#eeece2" stroke-width="0.05" />
  <path d="M 714.0,39.0 L 718.0,40.0 L 731.0,53.0 L 728.0,75.0 L 704.0,81.0 L 698.0,81.0 L 696.0,78.0 L 696.0,81.0 L 690.0,70.0 L 691.0,67.0 L 687.0,59.0 L 713.0,40.0 Z" fill="#eff6ce" stroke-width="0.05" />
  <path d="M 42.0,430.0 L 62.0,450.0 L 59.0,467.0 L 32.0,471.0 L 26.0,466.0 L 26.0,442.0 L 41.0,431.0 Z" fill="#f8d9c1" stroke-width="0.05" />
  <path d="M 24.0,467.0 L 26.0,467.0 L 32.0,472.0 L 29.0,496.0 L 24.0,497.0 L 11.0,506.0 L 4.0,508.0 L 0.0,508.0 L 0.0,469.0 L 23.0,468.0 L 0.0,509.0 L 24.0,467.0 Z" fill="#f3c5d0" stroke-width="0.05" />
  <path d="M 726.0,395.0 L 745.0,410.0 L 745.0,418.0 L 729.0,428.0 L 718.0,437.0 L 705.0,427.0 L 708.0,405.0 L 721.0,398.0 L 723.0,400.0 L 725.0,396.0 Z" fill="#f2d8c2" stroke-width="0.05" />
  <path d="M 189.0,23.0 L 170.0,38.0 L 167.0,56.0 L 177.0,66.0 L 203.0,61.0 L 205.0,38.0 L 190.0,24.0 Z" fill="#372978" stroke-width="0.05" />
  <path d="M 312.0,571.0 L 296.0,581.0 L 296.0,599.0 L 327.0,599.0 L 328.0,586.0 L 313.0,572.0 Z" fill="#333060" stroke-width="0.05" />
  <path d="M 312.0,60.0 L 329.0,77.0 L 326.0,97.0 L 301.0,102.0 L 290.0,92.0 L 294.0,77.0 L 294.0,71.0 L 311.0,61.0 Z" fill="#342773" stroke-width="0.05" />
  <path d="M 637.0,451.0 L 641.0,452.0 L 658.0,467.0 L 659.0,471.0 L 657.0,475.0 L 657.0,488.0 L 630.0,494.0 L 617.0,482.0 L 620.0,463.0 L 631.0,457.0 L 636.0,452.0 Z" fill="#1f1b53" stroke-width="0.05" />
  <path d="M 944.0,176.0 L 940.0,179.0 L 937.0,185.0 L 930.0,188.0 L 926.0,207.0 L 935.0,216.0 L 963.0,211.0 L 965.0,199.0 L 962.0,190.0 L 948.0,177.0 L 945.0,177.0 Z" fill="#ece8d3" stroke-width="0.05" />
  <path d="M 427.0,66.0 L 429.0,66.0 L 440.0,75.0 L 439.0,90.0 L 437.0,97.0 L 417.0,107.0 L 402.0,92.0 L 403.0,83.0 L 426.0,67.0 Z" fill="#342570" stroke-width="0.05" />
  <path d="M 966.0,244.0 L 970.0,245.0 L 988.0,262.0 L 988.0,264.0 L 961.0,285.0 L 953.0,280.0 L 949.0,276.0 L 950.0,256.0 L 958.0,252.0 L 965.0,245.0 Z" fill="#f6e4de" stroke-width="0.05" />
  <path d="M 345.0,256.0 L 350.0,256.0 L 359.0,265.0 L 357.0,283.0 L 339.0,298.0 L 337.0,298.0 L 321.0,283.0 L 322.0,262.0 L 326.0,260.0 L 344.0,257.0 Z" fill="#251c5e" stroke-width="0.05" />
  <path d="M 607.0,262.0 L 599.0,266.0 L 590.0,266.0 L 587.0,272.0 L 588.0,276.0 L 585.0,291.0 L 600.0,305.0 L 615.0,297.0 L 620.0,296.0 L 622.0,288.0 L 623.0,271.0 L 614.0,263.0 L 608.0,264.0 L 615.0,266.0 L 617.0,268.0 L 607.0,262.0 Z" fill="#a566b2" stroke-width="0.05" />
  <path d="M 654.0,299.0 L 645.0,305.0 L 634.0,309.0 L 635.0,311.0 L 633.0,315.0 L 632.0,332.0 L 648.0,344.0 L 650.0,344.0 L 655.0,339.0 L 656.0,333.0 L 659.0,328.0 L 668.0,319.0 L 668.0,315.0 L 655.0,300.0 Z" fill="#c7929e" stroke-width="0.05" />
  <path d="M 513.0,231.0 L 516.0,233.0 L 511.0,236.0 L 502.0,236.0 L 500.0,234.0 L 497.0,251.0 L 495.0,255.0 L 512.0,273.0 L 531.0,262.0 L 534.0,245.0 L 534.0,243.0 L 526.0,236.0 L 523.0,234.0 L 517.0,234.0 L 513.0,231.0 Z" fill="#c49fa7" stroke-width="0.05" />
  <path d="M 307.0,163.0 L 312.0,163.0 L 323.0,172.0 L 325.0,186.0 L 300.0,205.0 L 283.0,190.0 L 283.0,185.0 L 286.0,176.0 L 286.0,168.0 L 306.0,164.0 Z" fill="#292367" stroke-width="0.05" />
  <path d="M 20.0,376.0 L 23.0,376.0 L 33.0,384.0 L 36.0,402.0 L 19.0,409.0 L 10.0,416.0 L 0.0,421.0 L 0.0,379.0 L 19.0,377.0 Z" fill="#e4d6c0" stroke-width="0.05" />
  <path d="M 541.0,389.0 L 546.0,389.0 L 556.0,398.0 L 552.0,419.0 L 533.0,431.0 L 517.0,414.0 L 520.0,394.0 L 540.0,390.0 Z" fill="#fad8d0" stroke-width="0.05" />
  <path d="M 692.0,480.0 L 696.0,482.0 L 711.0,497.0 L 706.0,516.0 L 681.0,522.0 L 666.0,510.0 L 665.0,499.0 L 678.0,492.0 L 691.0,481.0 Z" fill="#eecfc3" stroke-width="0.05" />
  <path d="M 667.0,123.0 L 648.0,131.0 L 646.0,135.0 L 651.0,156.0 L 650.0,164.0 L 668.0,179.0 L 684.0,166.0 L 688.0,147.0 L 668.0,124.0 L 684.0,167.0 L 667.0,123.0 Z" fill="#262163" stroke-width="0.05" />
  <path d="M 558.0,239.0 L 562.0,240.0 L 571.0,246.0 L 573.0,256.0 L 563.0,265.0 L 562.0,268.0 L 561.0,266.0 L 559.0,268.0 L 556.0,275.0 L 549.0,279.0 L 532.0,263.0 L 532.0,258.0 L 535.0,243.0 L 557.0,240.0 Z" fill="#a97f8a" stroke-width="0.05" />
  <path d="M 756.0,0.0 L 796.0,0.0 L 797.0,3.0 L 797.0,9.0 L 789.0,30.0 L 787.0,44.0 L 778.0,50.0 L 772.0,58.0 L 768.0,58.0 L 767.0,54.0 L 756.0,41.0 L 758.0,35.0 L 756.0,1.0 Z" fill="#e9ead7" stroke-width="0.05" />
  <path d="M 787.0,45.0 L 778.0,51.0 L 772.0,59.0 L 768.0,59.0 L 766.0,79.0 L 775.0,88.0 L 800.0,83.0 L 803.0,62.0 L 788.0,46.0 Z" fill="#e8e8d3" stroke-width="0.05" />
  <path d="M 615.0,482.0 L 630.0,495.0 L 626.0,517.0 L 608.0,528.0 L 589.0,509.0 L 591.0,499.0 L 596.0,491.0 L 604.0,486.0 L 614.0,483.0 Z" fill="#1b1442" stroke-width="0.05" />
  <path d="M 28.0,497.0 L 30.0,497.0 L 44.0,511.0 L 40.0,521.0 L 39.0,532.0 L 0.0,542.0 L 0.0,510.0 L 11.0,507.0 L 24.0,498.0 L 27.0,498.0 L 40.0,532.0 L 28.0,497.0 Z" fill="#f7d5bf" stroke-width="0.05" />
  <path d="M 346.0,0.0 L 381.0,0.0 L 376.0,35.0 L 353.0,40.0 L 342.0,30.0 L 346.0,1.0 Z" fill="#3c2776" stroke-width="0.05" />
  <path d="M 298.0,214.0 L 316.0,231.0 L 313.0,239.0 L 312.0,251.0 L 284.0,258.0 L 276.0,250.0 L 274.0,233.0 L 297.0,215.0 Z" fill="#292065" stroke-width="0.05" />
  <path d="M 90.0,249.0 L 92.0,249.0 L 93.0,256.0 L 95.0,257.0 L 95.0,273.0 L 93.0,275.0 L 92.0,281.0 L 87.0,285.0 L 80.0,287.0 L 78.0,290.0 L 74.0,292.0 L 58.0,276.0 L 62.0,254.0 L 89.0,250.0 Z" fill="#ebe7c4" stroke-width="0.05" />
  <path d="M 836.0,175.0 L 811.0,180.0 L 811.0,195.0 L 809.0,202.0 L 826.0,218.0 L 845.0,206.0 L 845.0,199.0 L 847.0,196.0 L 848.0,187.0 L 837.0,176.0 Z" fill="#e7ebca" stroke-width="0.05" />
  <path d="M 399.0,195.0 L 403.0,195.0 L 410.0,203.0 L 406.0,227.0 L 400.0,233.0 L 389.0,238.0 L 372.0,220.0 L 374.0,214.0 L 375.0,200.0 L 398.0,196.0 Z" fill="#2c2162" stroke-width="0.05" />
  <path d="M 701.0,103.0 L 682.0,117.0 L 669.0,124.0 L 689.0,147.0 L 714.0,140.0 L 715.0,132.0 L 712.0,123.0 L 713.0,121.0 L 707.0,109.0 L 702.0,104.0 L 715.0,119.0 L 715.0,140.0 L 701.0,103.0 Z" fill="#522d6d" stroke-width="0.05" />
  <path d="M 683.0,167.0 L 706.0,189.0 L 704.0,201.0 L 701.0,204.0 L 673.0,212.0 L 664.0,203.0 L 665.0,192.0 L 668.0,180.0 L 679.0,172.0 L 683.0,167.0 Z" fill="#232060" stroke-width="0.05" />
  <path d="M 801.0,492.0 L 805.0,493.0 L 809.0,497.0 L 810.0,502.0 L 818.0,511.0 L 817.0,516.0 L 809.0,520.0 L 801.0,528.0 L 791.0,534.0 L 780.0,525.0 L 781.0,505.0 L 800.0,493.0 Z" fill="#eecdc0" stroke-width="0.05" />
  <path d="M 480.0,412.0 L 482.0,412.0 L 497.0,428.0 L 494.0,449.0 L 469.0,454.0 L 459.0,445.0 L 462.0,424.0 L 479.0,413.0 Z" fill="#fad2cb" stroke-width="0.05" />
  <path d="M 576.0,36.0 L 601.0,36.0 L 615.0,51.0 L 612.0,69.0 L 593.0,82.0 L 576.0,67.0 L 578.0,61.0 L 576.0,37.0 Z" fill="#372977" stroke-width="0.05" />
  <path d="M 361.0,190.0 L 364.0,190.0 L 374.0,200.0 L 373.0,214.0 L 371.0,220.0 L 355.0,231.0 L 351.0,232.0 L 336.0,218.0 L 338.0,208.0 L 338.0,196.0 L 360.0,191.0 Z" fill="#272065" stroke-width="0.05" />
  <path d="M 559.0,323.0 L 563.0,323.0 L 571.0,331.0 L 568.0,353.0 L 548.0,366.0 L 533.0,351.0 L 535.0,342.0 L 535.0,329.0 L 558.0,324.0 Z" fill="#fad8d0" stroke-width="0.05" />
  <path d="M 55.0,559.0 L 67.0,567.0 L 66.0,595.0 L 62.0,599.0 L 31.0,599.0 L 33.0,595.0 L 33.0,575.0 L 47.0,563.0 L 54.0,560.0 L 66.0,598.0 L 64.0,599.0 L 66.0,599.0 L 55.0,559.0 Z" fill="#efe7d9" stroke-width="0.05" />
  <path d="M 472.0,382.0 L 483.0,390.0 L 481.0,411.0 L 463.0,423.0 L 461.0,423.0 L 445.0,407.0 L 446.0,400.0 L 454.0,396.0 L 468.0,384.0 L 471.0,383.0 Z" fill="#f7c0bc" stroke-width="0.05" />
  <path d="M 484.0,0.0 L 488.0,0.0 L 490.0,13.0 L 491.0,25.0 L 488.0,35.0 L 479.0,40.0 L 471.0,47.0 L 469.0,47.0 L 452.0,31.0 L 452.0,27.0 L 454.0,25.0 L 460.0,22.0 L 483.0,1.0 Z" fill="#412a7d" stroke-width="0.05" />
  <path d="M 356.0,285.0 L 375.0,304.0 L 374.0,313.0 L 351.0,331.0 L 336.0,320.0 L 337.0,299.0 L 339.0,299.0 L 355.0,286.0 Z" fill="#271d5c" stroke-width="0.05" />
  <path d="M 130.0,464.0 L 132.0,464.0 L 150.0,481.0 L 146.0,501.0 L 123.0,505.0 L 114.0,504.0 L 106.0,499.0 L 105.0,481.0 L 118.0,471.0 L 129.0,465.0 Z" fill="#211d53" stroke-width="0.05" />
  <path d="M 57.0,91.0 L 36.0,96.0 L 37.0,117.0 L 46.0,125.0 L 46.0,129.0 L 51.0,133.0 L 55.0,128.0 L 69.0,120.0 L 72.0,114.0 L 74.0,101.0 L 64.0,91.0 L 58.0,92.0 Z" fill="#eae8d7" stroke-width="0.05" />
  <path d="M 973.0,557.0 L 975.0,557.0 L 991.0,572.0 L 999.0,576.0 L 999.0,599.0 L 956.0,599.0 L 956.0,578.0 L 959.0,576.0 L 959.0,571.0 L 966.0,566.0 L 972.0,558.0 Z" fill="#ecc5c9" stroke-width="0.05" />
  <path d="M 279.0,565.0 L 281.0,565.0 L 295.0,579.0 L 295.0,599.0 L 256.0,599.0 L 257.0,579.0 L 274.0,567.0 L 278.0,566.0 Z" fill="#f7f5e8" stroke-width="0.05" />
  <path d="M 373.0,36.0 L 379.0,37.0 L 389.0,45.0 L 386.0,66.0 L 366.0,79.0 L 350.0,62.0 L 353.0,41.0 L 372.0,37.0 Z" fill="#392776" stroke-width="0.05" />
  <path d="M 83.0,0.0 L 122.0,0.0 L 120.0,8.0 L 119.0,30.0 L 95.0,34.0 L 89.0,34.0 L 80.0,24.0 L 83.0,1.0 Z" fill="#f0fcd1" stroke-width="0.05" />
  <path d="M 39.0,25.0 L 23.0,36.0 L 5.0,45.0 L 31.0,63.0 L 34.0,62.0 L 49.0,49.0 L 49.0,34.0 L 40.0,26.0 Z" fill="#f6e5d9" stroke-width="0.05" />
  <path d="M 931.0,240.0 L 933.0,240.0 L 949.0,256.0 L 948.0,275.0 L 922.0,283.0 L 911.0,273.0 L 914.0,252.0 L 930.0,241.0 Z" fill="#f2f4cd" stroke-width="0.05" />
  <path d="M 772.0,301.0 L 748.0,308.0 L 742.0,330.0 L 744.0,330.0 L 760.0,345.0 L 774.0,335.0 L 792.0,327.0 L 793.0,326.0 L 791.0,323.0 L 773.0,302.0 Z" fill="#efeac6" stroke-width="0.05" />
  <path d="M 216.0,318.0 L 222.0,322.0 L 224.0,321.0 L 234.0,329.0 L 236.0,332.0 L 235.0,338.0 L 229.0,341.0 L 212.0,357.0 L 206.0,359.0 L 197.0,349.0 L 198.0,333.0 L 200.0,328.0 L 215.0,319.0 Z" fill="#d44b94" stroke-width="0.05" />
  <path d="M 501.0,481.0 L 518.0,497.0 L 517.0,506.0 L 520.0,527.0 L 500.0,535.0 L 480.0,513.0 L 483.0,493.0 L 500.0,482.0 Z" fill="#f3dad0" stroke-width="0.05" />
  <path d="M 255.0,499.0 L 259.0,501.0 L 274.0,515.0 L 272.0,534.0 L 243.0,541.0 L 232.0,531.0 L 230.0,517.0 L 254.0,500.0 Z" fill="#f6ece3" stroke-width="0.05" />
  <path d="M 845.0,296.0 L 832.0,307.0 L 815.0,315.0 L 813.0,319.0 L 818.0,322.0 L 833.0,339.0 L 857.0,333.0 L 862.0,318.0 L 862.0,312.0 L 846.0,297.0 Z" fill="#f4f1cd" stroke-width="0.05" />
  <path d="M 170.0,280.0 L 174.0,280.0 L 185.0,290.0 L 182.0,310.0 L 163.0,323.0 L 148.0,308.0 L 149.0,287.0 L 169.0,281.0 Z" fill="#2c1b5c" stroke-width="0.05" />
  <path d="M 970.0,148.0 L 953.0,154.0 L 949.0,177.0 L 963.0,191.0 L 965.0,191.0 L 976.0,183.0 L 993.0,177.0 L 999.0,173.0 L 999.0,167.0 L 997.0,165.0 L 971.0,149.0 Z" fill="#eae6d4" stroke-width="0.05" />
  <path d="M 659.0,425.0 L 642.0,426.0 L 640.0,429.0 L 639.0,442.0 L 639.0,450.0 L 660.0,467.0 L 661.0,463.0 L 667.0,460.0 L 674.0,453.0 L 675.0,433.0 L 670.0,428.0 L 662.0,428.0 L 660.0,426.0 L 673.0,458.0 L 659.0,468.0 L 659.0,425.0 Z" fill="#6a5c7e" stroke-width="0.05" />
  <path d="M 581.0,203.0 L 589.0,210.0 L 592.0,210.0 L 592.0,213.0 L 599.0,220.0 L 574.0,244.0 L 570.0,245.0 L 561.0,239.0 L 562.0,212.0 L 580.0,204.0 Z" fill="#4e2757" stroke-width="0.05" />
  <path d="M 861.0,232.0 L 836.0,250.0 L 839.0,271.0 L 844.0,275.0 L 849.0,275.0 L 873.0,268.0 L 877.0,248.0 L 862.0,233.0 Z" fill="#e3e8c9" stroke-width="0.05" />
  <path d="M 774.0,426.0 L 782.0,426.0 L 795.0,439.0 L 794.0,460.0 L 768.0,466.0 L 757.0,455.0 L 761.0,436.0 L 766.0,434.0 L 773.0,427.0 Z" fill="#ecd2c6" stroke-width="0.05" />
  <path d="M 451.0,31.0 L 427.0,51.0 L 428.0,64.0 L 440.0,74.0 L 465.0,68.0 L 466.0,57.0 L 469.0,48.0 L 452.0,32.0 Z" fill="#3b2777" stroke-width="0.05" />
  <path d="M 0.0,0.0 L 34.0,0.0 L 35.0,10.0 L 39.0,23.0 L 37.0,26.0 L 35.0,26.0 L 11.0,42.0 L 7.0,44.0 L 0.0,44.0 L 0.0,1.0 Z" fill="#f7e4e0" stroke-width="0.05" />
  <path d="M 365.0,508.0 L 353.0,517.0 L 345.0,521.0 L 343.0,529.0 L 343.0,543.0 L 351.0,550.0 L 354.0,550.0 L 372.0,537.0 L 380.0,533.0 L 380.0,527.0 L 378.0,523.0 L 366.0,509.0 Z" fill="#201c56" stroke-width="0.05" />
  <path d="M 621.0,296.0 L 632.0,306.0 L 634.0,311.0 L 632.0,315.0 L 631.0,332.0 L 608.0,337.0 L 597.0,327.0 L 601.0,306.0 L 615.0,298.0 L 620.0,297.0 Z" fill="#e5b0c0" stroke-width="0.05" />
  <path d="M 837.0,271.0 L 845.0,276.0 L 845.0,284.0 L 847.0,286.0 L 845.0,290.0 L 845.0,295.0 L 832.0,306.0 L 814.0,314.0 L 810.0,292.0 L 812.0,288.0 L 812.0,283.0 L 826.0,275.0 L 836.0,272.0 L 814.0,315.0 L 837.0,271.0 Z" fill="#e4e7c9" stroke-width="0.05" />
  <path d="M 242.0,380.0 L 247.0,380.0 L 256.0,389.0 L 255.0,409.0 L 246.0,415.0 L 240.0,416.0 L 233.0,420.0 L 218.0,407.0 L 220.0,399.0 L 220.0,383.0 L 241.0,381.0 Z" fill="#ea618b" stroke-width="0.05" />
  <path d="M 362.0,101.0 L 374.0,110.0 L 376.0,125.0 L 350.0,144.0 L 335.0,130.0 L 334.0,128.0 L 338.0,107.0 L 361.0,102.0 Z" fill="#2f246c" stroke-width="0.05" />
  <path d="M 448.0,224.0 L 451.0,225.0 L 460.0,234.0 L 461.0,237.0 L 462.0,249.0 L 458.0,251.0 L 459.0,253.0 L 457.0,254.0 L 457.0,256.0 L 441.0,266.0 L 424.0,248.0 L 425.0,242.0 L 447.0,225.0 Z" fill="#e3c1bb" stroke-width="0.05" />
  <path d="M 829.0,555.0 L 831.0,555.0 L 842.0,564.0 L 838.0,599.0 L 821.0,599.0 L 816.0,594.0 L 804.0,574.0 L 807.0,561.0 L 828.0,556.0 Z" fill="#f2cfc9" stroke-width="0.05" />
  <path d="M 591.0,328.0 L 597.0,328.0 L 607.0,337.0 L 607.0,344.0 L 603.0,360.0 L 593.0,367.0 L 584.0,371.0 L 569.0,354.0 L 572.0,332.0 L 590.0,329.0 Z" fill="#f8d8d1" stroke-width="0.05" />
  <path d="M 893.0,339.0 L 898.0,340.0 L 907.0,347.0 L 910.0,365.0 L 900.0,370.0 L 884.0,382.0 L 867.0,365.0 L 871.0,345.0 L 892.0,340.0 Z" fill="#f4ecc7" stroke-width="0.05" />
  <path d="M 844.0,207.0 L 859.0,221.0 L 860.0,225.0 L 862.0,226.0 L 861.0,231.0 L 836.0,249.0 L 824.0,240.0 L 827.0,218.0 L 843.0,208.0 Z" fill="#e1e7ca" stroke-width="0.05" />
  <path d="M 632.0,231.0 L 617.0,242.0 L 614.0,250.0 L 616.0,251.0 L 614.0,262.0 L 624.0,271.0 L 649.0,266.0 L 649.0,246.0 L 640.0,236.0 L 633.0,232.0 L 643.0,235.0 L 645.0,238.0 L 647.0,238.0 L 646.0,239.0 L 649.0,239.0 L 648.0,241.0 L 650.0,241.0 L 613.0,242.0 L 651.0,242.0 L 612.0,243.0 L 652.0,243.0 L 612.0,244.0 L 649.0,244.0 L 612.0,245.0 L 614.0,245.0 L 616.0,266.0 L 649.0,267.0 L 624.0,272.0 L 632.0,231.0 Z" fill="#baadb8" stroke-width="0.05" />
  <path d="M 268.0,446.0 L 270.0,446.0 L 281.0,455.0 L 283.0,463.0 L 285.0,465.0 L 286.0,473.0 L 271.0,480.0 L 262.0,489.0 L 255.0,492.0 L 255.0,486.0 L 243.0,473.0 L 244.0,459.0 L 246.0,458.0 L 245.0,454.0 L 267.0,447.0 Z" fill="#eb58ba" stroke-width="0.05" />
  <path d="M 169.0,471.0 L 151.0,482.0 L 147.0,502.0 L 149.0,502.0 L 152.0,505.0 L 151.0,506.0 L 154.0,508.0 L 166.0,508.0 L 167.0,506.0 L 182.0,504.0 L 182.0,491.0 L 184.0,480.0 L 179.0,479.0 L 182.0,477.0 L 178.0,473.0 L 173.0,476.0 L 170.0,472.0 L 167.0,508.0 L 169.0,471.0 Z" fill="#bcb7ba" stroke-width="0.05" />
  <path d="M 398.0,0.0 L 436.0,0.0 L 436.0,6.0 L 416.0,24.0 L 414.0,24.0 L 406.0,9.0 L 399.0,1.0 Z" fill="#432c80" stroke-width="0.05" />
  <path d="M 472.0,192.0 L 461.0,198.0 L 456.0,205.0 L 446.0,211.0 L 449.0,218.0 L 449.0,223.0 L 461.0,234.0 L 471.0,231.0 L 476.0,227.0 L 488.0,224.0 L 488.0,206.0 L 473.0,193.0 L 489.0,224.0 L 472.0,192.0 Z" fill="#704a73" stroke-width="0.05" />
  <path d="M 33.0,311.0 L 36.0,311.0 L 44.0,319.0 L 44.0,331.0 L 42.0,340.0 L 26.0,350.0 L 9.0,337.0 L 0.0,332.0 L 0.0,316.0 L 32.0,312.0 Z" fill="#e2dec4" stroke-width="0.05" />
  <path d="M 629.0,0.0 L 660.0,0.0 L 660.0,14.0 L 644.0,26.0 L 629.0,8.0 L 629.0,1.0 Z" fill="#966699" stroke-width="0.05" />
  <path d="M 202.0,156.0 L 211.0,162.0 L 211.0,183.0 L 198.0,193.0 L 187.0,199.0 L 175.0,190.0 L 176.0,171.0 L 191.0,161.0 L 201.0,157.0 Z" fill="#282267" stroke-width="0.05" />
  <path d="M 192.0,440.0 L 196.0,440.0 L 206.0,450.0 L 207.0,454.0 L 203.0,457.0 L 201.0,466.0 L 189.0,476.0 L 194.0,477.0 L 182.0,479.0 L 183.0,477.0 L 178.0,472.0 L 173.0,475.0 L 170.0,471.0 L 172.0,445.0 L 191.0,441.0 L 180.0,479.0 L 192.0,440.0 Z" fill="#5e5073" stroke-width="0.05" />
  <path d="M 210.0,92.0 L 191.0,104.0 L 189.0,112.0 L 189.0,127.0 L 200.0,135.0 L 226.0,115.0 L 227.0,109.0 L 211.0,93.0 Z" fill="#2c256d" stroke-width="0.05" />
  <path d="M 747.0,144.0 L 750.0,144.0 L 763.0,154.0 L 765.0,171.0 L 739.0,186.0 L 724.0,172.0 L 725.0,160.0 L 723.0,152.0 L 746.0,145.0 Z" fill="#ededca" stroke-width="0.05" />
  <path d="M 230.0,532.0 L 232.0,532.0 L 243.0,542.0 L 243.0,549.0 L 240.0,562.0 L 220.0,574.0 L 204.0,559.0 L 205.0,550.0 L 211.0,547.0 L 223.0,536.0 L 229.0,533.0 Z" fill="#f7f3e8" stroke-width="0.05" />
  <path d="M 333.0,128.0 L 329.0,133.0 L 314.0,141.0 L 312.0,162.0 L 324.0,171.0 L 349.0,152.0 L 350.0,145.0 L 334.0,129.0 Z" fill="#2a2165" stroke-width="0.05" />
  <path d="M 753.0,41.0 L 757.0,43.0 L 767.0,56.0 L 765.0,78.0 L 738.0,83.0 L 729.0,75.0 L 732.0,53.0 L 747.0,43.0 L 752.0,42.0 Z" fill="#f0f8ce" stroke-width="0.05" />
  <path d="M 88.0,474.0 L 97.0,474.0 L 104.0,480.0 L 105.0,499.0 L 83.0,514.0 L 80.0,514.0 L 65.0,497.0 L 69.0,486.0 L 69.0,480.0 L 77.0,476.0 L 87.0,476.0 L 88.0,474.0 Z" fill="#bf8d96" stroke-width="0.05" />
  <path d="M 562.0,132.0 L 544.0,144.0 L 540.0,166.0 L 549.0,174.0 L 576.0,169.0 L 578.0,147.0 L 563.0,133.0 Z" fill="#292165" stroke-width="0.05" />
  <path d="M 100.0,93.0 L 91.0,98.0 L 75.0,101.0 L 71.0,120.0 L 80.0,130.0 L 90.0,140.0 L 92.0,134.0 L 109.0,116.0 L 107.0,101.0 L 105.0,97.0 L 101.0,94.0 Z" fill="#cab2af" stroke-width="0.05" />
  <path d="M 457.0,168.0 L 455.0,170.0 L 449.0,169.0 L 447.0,170.0 L 446.0,174.0 L 438.0,177.0 L 436.0,187.0 L 436.0,199.0 L 442.0,207.0 L 446.0,210.0 L 448.0,209.0 L 456.0,204.0 L 461.0,197.0 L 472.0,191.0 L 472.0,182.0 L 458.0,169.0 Z" fill="#5a366b" stroke-width="0.05" />
  <path d="M 451.0,544.0 L 457.0,547.0 L 467.0,557.0 L 466.0,574.0 L 469.0,581.0 L 469.0,585.0 L 465.0,599.0 L 426.0,599.0 L 426.0,590.0 L 434.0,557.0 L 449.0,545.0 L 425.0,599.0 L 451.0,544.0 Z" fill="#d1969d" stroke-width="0.05" />
  <path d="M 750.0,0.0 L 755.0,0.0 L 757.0,20.0 L 757.0,35.0 L 755.0,40.0 L 747.0,42.0 L 733.0,52.0 L 731.0,52.0 L 716.0,38.0 L 717.0,29.0 L 726.0,24.0 L 749.0,1.0 Z" fill="#f1fbcf" stroke-width="0.05" />
  <path d="M 859.0,142.0 L 847.0,150.0 L 841.0,156.0 L 837.0,175.0 L 848.0,186.0 L 873.0,180.0 L 875.0,158.0 L 860.0,143.0 Z" fill="#f3f5d0" stroke-width="0.05" />
  <path d="M 246.0,184.0 L 246.0,187.0 L 240.0,193.0 L 230.0,199.0 L 228.0,206.0 L 227.0,220.0 L 238.0,230.0 L 260.0,224.0 L 262.0,201.0 L 246.0,184.0 Z" fill="#431e5a" stroke-width="0.05" />
  <path d="M 568.0,0.0 L 628.0,0.0 L 627.0,6.0 L 610.0,18.0 L 600.0,35.0 L 575.0,35.0 L 568.0,1.0 Z" fill="#422a7c" stroke-width="0.05" />
  <path d="M 966.0,0.0 L 999.0,0.0 L 999.0,23.0 L 980.0,37.0 L 978.0,37.0 L 962.0,20.0 L 966.0,1.0 Z" fill="#f7e4e0" stroke-width="0.05" />
  <path d="M 412.0,130.0 L 415.0,130.0 L 425.0,140.0 L 422.0,161.0 L 417.0,160.0 L 413.0,167.0 L 408.0,172.0 L 404.0,173.0 L 387.0,156.0 L 389.0,147.0 L 389.0,137.0 L 392.0,135.0 L 411.0,131.0 Z" fill="#2f2264" stroke-width="0.05" />
  <path d="M 573.0,257.0 L 582.0,265.0 L 585.0,265.0 L 587.0,268.0 L 586.0,284.0 L 584.0,291.0 L 581.0,293.0 L 579.0,291.0 L 573.0,294.0 L 570.0,297.0 L 571.0,299.0 L 569.0,296.0 L 566.0,299.0 L 562.0,297.0 L 550.0,283.0 L 550.0,280.0 L 557.0,275.0 L 560.0,268.0 L 563.0,267.0 L 562.0,269.0 L 564.0,265.0 L 572.0,258.0 Z" fill="#866a85" stroke-width="0.05" />
  <path d="M 119.0,341.0 L 122.0,341.0 L 133.0,351.0 L 131.0,369.0 L 116.0,379.0 L 114.0,383.0 L 110.0,386.0 L 105.0,379.0 L 104.0,373.0 L 98.0,367.0 L 102.0,347.0 L 118.0,342.0 Z" fill="#693f75" stroke-width="0.05" />
  <path d="M 231.0,448.0 L 237.0,449.0 L 245.0,456.0 L 245.0,458.0 L 243.0,459.0 L 242.0,472.0 L 223.0,485.0 L 219.0,486.0 L 203.0,468.0 L 202.0,465.0 L 204.0,457.0 L 208.0,453.0 L 230.0,449.0 Z" fill="#e4cfcb" stroke-width="0.05" />
  <path d="M 649.0,165.0 L 667.0,180.0 L 663.0,202.0 L 638.0,205.0 L 626.0,196.0 L 623.0,181.0 L 632.0,177.0 L 648.0,166.0 Z" fill="#281f5a" stroke-width="0.05" />
  <path d="M 79.0,523.0 L 96.0,539.0 L 93.0,552.0 L 93.0,561.0 L 68.0,567.0 L 55.0,557.0 L 53.0,544.0 L 61.0,539.0 L 71.0,530.0 L 70.0,529.0 L 72.0,529.0 L 78.0,524.0 Z" fill="#eee8e2" stroke-width="0.05" />
  <path d="M 588.0,510.0 L 608.0,529.0 L 604.0,541.0 L 603.0,553.0 L 590.0,557.0 L 576.0,559.0 L 567.0,548.0 L 567.0,538.0 L 571.0,526.0 L 587.0,511.0 Z" fill="#1c1541" stroke-width="0.05" />
  <path d="M 905.0,561.0 L 877.0,570.0 L 874.0,599.0 L 919.0,599.0 L 915.0,568.0 L 906.0,562.0 Z" fill="#f9d4b8" stroke-width="0.05" />
  <path d="M 291.0,502.0 L 308.0,517.0 L 305.0,539.0 L 283.0,543.0 L 273.0,533.0 L 275.0,516.0 L 283.0,511.0 L 284.0,507.0 L 290.0,503.0 Z" fill="#766787" stroke-width="0.05" />
  <path d="M 302.0,540.0 L 306.0,540.0 L 315.0,548.0 L 312.0,570.0 L 296.0,580.0 L 281.0,564.0 L 284.0,544.0 L 301.0,541.0 Z" fill="#635c7f" stroke-width="0.05" />
  <path d="M 605.0,448.0 L 587.0,459.0 L 584.0,469.0 L 582.0,471.0 L 581.0,478.0 L 595.0,492.0 L 598.0,488.0 L 616.0,481.0 L 619.0,462.0 L 606.0,449.0 Z" fill="#ceadad" stroke-width="0.05" />
  <path d="M 36.0,118.0 L 39.0,119.0 L 45.0,125.0 L 45.0,129.0 L 51.0,134.0 L 48.0,153.0 L 46.0,155.0 L 42.0,155.0 L 31.0,160.0 L 28.0,160.0 L 0.0,143.0 L 0.0,134.0 L 7.0,133.0 L 20.0,128.0 L 23.0,125.0 L 35.0,119.0 Z" fill="#e4dcdb" stroke-width="0.05" />
  <path d="M 436.0,7.0 L 423.0,20.0 L 415.0,25.0 L 412.0,38.0 L 427.0,50.0 L 451.0,30.0 L 451.0,25.0 L 445.0,16.0 L 437.0,8.0 Z" fill="#402a7d" stroke-width="0.05" />
  <path d="M 524.0,128.0 L 543.0,144.0 L 539.0,166.0 L 512.0,171.0 L 501.0,161.0 L 499.0,148.0 L 508.0,143.0 L 523.0,129.0 Z" fill="#2b1f63" stroke-width="0.05" />
  <path d="M 95.0,185.0 L 100.0,185.0 L 106.0,193.0 L 106.0,206.0 L 104.0,213.0 L 93.0,222.0 L 93.0,227.0 L 91.0,228.0 L 73.0,210.0 L 73.0,207.0 L 75.0,189.0 L 94.0,186.0 Z" fill="#c9abac" stroke-width="0.05" />
  <path d="M 123.0,54.0 L 125.0,54.0 L 139.0,65.0 L 139.0,83.0 L 127.0,91.0 L 108.0,99.0 L 101.0,93.0 L 101.0,78.0 L 104.0,69.0 L 122.0,55.0 Z" fill="#4b2d74" stroke-width="0.05" />
  <path d="M 999.0,114.0 L 979.0,126.0 L 975.0,132.0 L 971.0,146.0 L 972.0,149.0 L 999.0,165.0 L 999.0,116.0 L 999.0,166.0 L 999.0,114.0 Z" fill="#ebe7d4" stroke-width="0.05" />
  <path d="M 393.0,567.0 L 399.0,579.0 L 412.0,597.0 L 412.0,599.0 L 364.0,599.0 L 369.0,585.0 L 369.0,577.0 L 390.0,568.0 L 392.0,568.0 L 413.0,599.0 L 393.0,567.0 Z" fill="#2a2757" stroke-width="0.05" />
  <path d="M 765.0,572.0 L 772.0,582.0 L 781.0,591.0 L 781.0,599.0 L 734.0,599.0 L 739.0,593.0 L 763.0,573.0 L 732.0,599.0 L 765.0,572.0 Z" fill="#fad9d0" stroke-width="0.05" />
  <path d="M 232.0,340.0 L 235.0,340.0 L 252.0,356.0 L 248.0,368.0 L 247.0,378.0 L 229.0,382.0 L 220.0,382.0 L 209.0,373.0 L 207.0,360.0 L 212.0,358.0 L 231.0,341.0 Z" fill="#fa7ece" stroke-width="0.05" />
  <path d="M 797.0,0.0 L 852.0,0.0 L 848.0,12.0 L 848.0,23.0 L 843.0,24.0 L 827.0,32.0 L 821.0,28.0 L 798.0,6.0 L 797.0,1.0 Z" fill="#e6e5d8" stroke-width="0.05" />
  <path d="M 138.0,85.0 L 154.0,100.0 L 150.0,120.0 L 125.0,127.0 L 110.0,116.0 L 107.0,100.0 L 119.0,96.0 L 137.0,86.0 Z" fill="#2c256b" stroke-width="0.05" />
  <path d="M 335.0,407.0 L 348.0,418.0 L 343.0,440.0 L 324.0,451.0 L 308.0,435.0 L 308.0,429.0 L 334.0,408.0 Z" fill="#2c1957" stroke-width="0.05" />
  <path d="M 408.0,317.0 L 392.0,326.0 L 391.0,330.0 L 388.0,333.0 L 390.0,335.0 L 387.0,342.0 L 387.0,350.0 L 394.0,357.0 L 408.0,353.0 L 414.0,355.0 L 416.0,351.0 L 419.0,351.0 L 422.0,348.0 L 424.0,329.0 L 418.0,326.0 L 409.0,318.0 L 417.0,323.0 L 408.0,317.0 Z" fill="#81595c" stroke-width="0.05" />
  <path d="M 240.0,154.0 L 212.0,162.0 L 212.0,184.0 L 229.0,198.0 L 235.0,196.0 L 240.0,192.0 L 245.0,187.0 L 248.0,173.0 L 248.0,163.0 L 241.0,155.0 Z" fill="#211445" stroke-width="0.05" />
  <path d="M 618.0,384.0 L 625.0,388.0 L 637.0,400.0 L 635.0,421.0 L 608.0,426.0 L 596.0,416.0 L 595.0,403.0 L 617.0,385.0 Z" fill="#fad8cf" stroke-width="0.05" />
  <path d="M 611.0,174.0 L 614.0,174.0 L 623.0,182.0 L 625.0,198.0 L 613.0,206.0 L 600.0,219.0 L 593.0,213.0 L 592.0,209.0 L 589.0,209.0 L 582.0,202.0 L 587.0,180.0 L 604.0,175.0 L 610.0,175.0 Z" fill="#352557" stroke-width="0.05" />
  <path d="M 931.0,430.0 L 944.0,442.0 L 940.0,462.0 L 921.0,473.0 L 905.0,458.0 L 907.0,438.0 L 930.0,431.0 Z" fill="#f7ddbb" stroke-width="0.05" />
  <path d="M 544.0,198.0 L 549.0,200.0 L 561.0,212.0 L 560.0,238.0 L 534.0,242.0 L 523.0,233.0 L 528.0,208.0 L 533.0,205.0 L 541.0,203.0 L 543.0,199.0 Z" fill="#3e2165" stroke-width="0.05" />
  <path d="M 198.0,246.0 L 177.0,259.0 L 173.0,279.0 L 186.0,290.0 L 209.0,283.0 L 211.0,264.0 L 199.0,247.0 Z" fill="#2c1c5d" stroke-width="0.05" />
  <path d="M 918.0,304.0 L 898.0,317.0 L 896.0,338.0 L 908.0,347.0 L 925.0,333.0 L 934.0,328.0 L 935.0,321.0 L 919.0,305.0 Z" fill="#f4f0c9" stroke-width="0.05" />
  <path d="M 529.0,453.0 L 506.0,459.0 L 503.0,481.0 L 519.0,496.0 L 536.0,484.0 L 547.0,480.0 L 544.0,464.0 L 530.0,454.0 Z" fill="#f5d2ca" stroke-width="0.05" />
  <path d="M 261.0,31.0 L 268.0,37.0 L 271.0,44.0 L 274.0,47.0 L 277.0,47.0 L 277.0,54.0 L 262.0,67.0 L 252.0,73.0 L 250.0,73.0 L 240.0,65.0 L 240.0,50.0 L 242.0,43.0 L 260.0,32.0 Z" fill="#4a2873" stroke-width="0.05" />
  <path d="M 382.0,0.0 L 397.0,0.0 L 403.0,6.0 L 414.0,25.0 L 411.0,38.0 L 390.0,44.0 L 386.0,42.0 L 377.0,35.0 L 378.0,21.0 L 382.0,1.0 Z" fill="#40297c" stroke-width="0.05" />
  <path d="M 89.0,146.0 L 92.0,148.0 L 94.0,153.0 L 102.0,161.0 L 103.0,164.0 L 100.0,183.0 L 91.0,186.0 L 74.0,188.0 L 64.0,178.0 L 63.0,165.0 L 75.0,158.0 L 88.0,147.0 Z" fill="#d9c7b9" stroke-width="0.05" />
  <path d="M 894.0,147.0 L 896.0,147.0 L 913.0,164.0 L 912.0,169.0 L 905.0,173.0 L 887.0,189.0 L 882.0,187.0 L 874.0,180.0 L 876.0,159.0 L 893.0,148.0 Z" fill="#f2f5cd" stroke-width="0.05" />
  <path d="M 405.0,418.0 L 407.0,418.0 L 418.0,427.0 L 420.0,443.0 L 396.0,460.0 L 377.0,443.0 L 379.0,436.0 L 379.0,424.0 L 404.0,419.0 Z" fill="#faccc7" stroke-width="0.05" />
  <path d="M 144.0,218.0 L 125.0,230.0 L 122.0,252.0 L 134.0,260.0 L 159.0,242.0 L 160.0,234.0 L 145.0,219.0 Z" fill="#241f61" stroke-width="0.05" />
  <path d="M 120.0,252.0 L 133.0,261.0 L 135.0,277.0 L 112.0,295.0 L 109.0,294.0 L 95.0,277.0 L 94.0,275.0 L 96.0,273.0 L 96.0,258.0 L 119.0,253.0 Z" fill="#4d2b6b" stroke-width="0.05" />
  <path d="M 234.0,251.0 L 238.0,254.0 L 248.0,267.0 L 248.0,287.0 L 222.0,295.0 L 210.0,284.0 L 212.0,265.0 L 233.0,252.0 Z" fill="#2d0f3f" stroke-width="0.05" />
  <path d="M 500.0,73.0 L 503.0,73.0 L 513.0,82.0 L 510.0,103.0 L 491.0,114.0 L 474.0,98.0 L 476.0,92.0 L 477.0,78.0 L 499.0,74.0 Z" fill="#32236d" stroke-width="0.05" />
  <path d="M 437.0,286.0 L 412.0,293.0 L 409.0,317.0 L 415.0,322.0 L 417.0,322.0 L 418.0,325.0 L 424.0,328.0 L 428.0,328.0 L 435.0,323.0 L 443.0,321.0 L 447.0,295.0 L 438.0,287.0 Z" fill="#f5d2ca" stroke-width="0.05" />
  <path d="M 78.0,25.0 L 80.0,25.0 L 89.0,35.0 L 85.0,56.0 L 67.0,68.0 L 49.0,50.0 L 50.0,34.0 L 77.0,26.0 Z" fill="#f2fbcf" stroke-width="0.05" />
  <path d="M 843.0,399.0 L 850.0,403.0 L 867.0,418.0 L 868.0,421.0 L 865.0,428.0 L 859.0,431.0 L 846.0,434.0 L 841.0,437.0 L 837.0,442.0 L 833.0,444.0 L 832.0,443.0 L 831.0,439.0 L 819.0,425.0 L 822.0,416.0 L 822.0,408.0 L 824.0,406.0 L 842.0,400.0 Z" fill="#ecd5ce" stroke-width="0.05" />
  <path d="M 709.0,325.0 L 713.0,330.0 L 715.0,336.0 L 721.0,342.0 L 719.0,348.0 L 718.0,361.0 L 693.0,369.0 L 686.0,363.0 L 689.0,337.0 L 707.0,326.0 L 721.0,361.0 L 720.0,362.0 L 709.0,325.0 Z" fill="#5e4a76" stroke-width="0.05" />
  <path d="M 925.0,17.0 L 927.0,17.0 L 943.0,33.0 L 940.0,54.0 L 914.0,59.0 L 904.0,50.0 L 907.0,29.0 L 924.0,18.0 Z" fill="#f1face" stroke-width="0.05" />
  <path d="M 298.0,124.0 L 280.0,136.0 L 276.0,158.0 L 286.0,167.0 L 311.0,162.0 L 312.0,145.0 L 314.0,140.0 L 299.0,125.0 Z" fill="#2b246a" stroke-width="0.05" />
  <path d="M 598.0,135.0 L 579.0,147.0 L 577.0,170.0 L 586.0,179.0 L 613.0,173.0 L 613.0,151.0 L 599.0,136.0 Z" fill="#241d5b" stroke-width="0.05" />
  <path d="M 256.0,409.0 L 246.0,416.0 L 240.0,417.0 L 234.0,421.0 L 233.0,431.0 L 236.0,438.0 L 236.0,448.0 L 244.0,455.0 L 247.0,452.0 L 271.0,444.0 L 270.0,423.0 L 257.0,410.0 Z" fill="#ca818e" stroke-width="0.05" />
  <path d="M 223.0,221.0 L 227.0,221.0 L 237.0,230.0 L 235.0,250.0 L 212.0,264.0 L 199.0,246.0 L 202.0,227.0 L 222.0,222.0 Z" fill="#1c1242" stroke-width="0.05" />
  <path d="M 480.0,322.0 L 461.0,335.0 L 462.0,338.0 L 461.0,343.0 L 458.0,346.0 L 458.0,355.0 L 470.0,364.0 L 488.0,351.0 L 496.0,347.0 L 497.0,338.0 L 481.0,323.0 Z" fill="#e2beb7" stroke-width="0.05" />
  <path d="M 455.0,355.0 L 459.0,356.0 L 469.0,364.0 L 472.0,381.0 L 447.0,399.0 L 445.0,399.0 L 431.0,384.0 L 434.0,361.0 L 454.0,356.0 Z" fill="#f6bcba" stroke-width="0.05" />
  <path d="M 35.0,403.0 L 37.0,403.0 L 45.0,410.0 L 43.0,428.0 L 27.0,441.0 L 24.0,441.0 L 0.0,422.0 L 10.0,417.0 L 19.0,410.0 L 34.0,404.0 Z" fill="#f4dcbb" stroke-width="0.05" />
  <path d="M 962.0,212.0 L 964.0,212.0 L 973.0,220.0 L 967.0,243.0 L 963.0,245.0 L 958.0,251.0 L 949.0,255.0 L 933.0,239.0 L 936.0,217.0 L 961.0,213.0 Z" fill="#f3f3d0" stroke-width="0.05" />
  <path d="M 34.0,206.0 L 20.0,220.0 L 1.0,233.0 L 6.0,234.0 L 21.0,245.0 L 28.0,248.0 L 49.0,242.0 L 52.0,232.0 L 52.0,224.0 L 35.0,207.0 Z" fill="#f4edd3" stroke-width="0.05" />
  <path d="M 147.0,308.0 L 126.0,320.0 L 122.0,340.0 L 133.0,350.0 L 147.0,348.0 L 160.0,344.0 L 162.0,323.0 L 148.0,309.0 Z" fill="#281b5b" stroke-width="0.05" />
  <path d="M 655.0,388.0 L 657.0,388.0 L 673.0,404.0 L 670.0,427.0 L 662.0,427.0 L 659.0,424.0 L 640.0,426.0 L 636.0,422.0 L 638.0,400.0 L 654.0,389.0 Z" fill="#c6a9ad" stroke-width="0.05" />
  <path d="M 409.0,39.0 L 415.0,41.0 L 426.0,51.0 L 428.0,65.0 L 420.0,69.0 L 404.0,82.0 L 402.0,82.0 L 387.0,67.0 L 389.0,46.0 L 394.0,43.0 L 408.0,40.0 Z" fill="#382673" stroke-width="0.05" />
  <path d="M 741.0,331.0 L 743.0,331.0 L 743.0,333.0 L 745.0,332.0 L 759.0,346.0 L 757.0,365.0 L 754.0,367.0 L 729.0,372.0 L 728.0,369.0 L 721.0,362.0 L 722.0,360.0 L 719.0,360.0 L 721.0,343.0 L 727.0,339.0 L 730.0,340.0 L 731.0,338.0 L 740.0,334.0 L 740.0,332.0 L 719.0,362.0 L 741.0,331.0 Z" fill="#dcb6b6" stroke-width="0.05" />
  <path d="M 872.0,181.0 L 874.0,181.0 L 885.0,190.0 L 887.0,204.0 L 877.0,210.0 L 863.0,225.0 L 861.0,225.0 L 860.0,221.0 L 846.0,207.0 L 846.0,199.0 L 848.0,196.0 L 849.0,187.0 L 871.0,182.0 Z" fill="#e5e9ca" stroke-width="0.05" />
  <path d="M 692.0,391.0 L 684.0,395.0 L 682.0,400.0 L 674.0,405.0 L 672.0,412.0 L 671.0,428.0 L 676.0,433.0 L 692.0,429.0 L 694.0,430.0 L 696.0,428.0 L 704.0,427.0 L 705.0,425.0 L 705.0,415.0 L 707.0,406.0 L 692.0,391.0 Z" fill="#d1a9ad" stroke-width="0.05" />
  <path d="M 301.0,0.0 L 345.0,0.0 L 341.0,30.0 L 318.0,37.0 L 303.0,27.0 L 301.0,1.0 Z" fill="#412b7e" stroke-width="0.05" />
  <path d="M 897.0,236.0 L 878.0,247.0 L 874.0,268.0 L 884.0,278.0 L 910.0,273.0 L 913.0,252.0 L 898.0,237.0 Z" fill="#f2f4cd" stroke-width="0.05" />
  <path d="M 106.0,407.0 L 101.0,410.0 L 88.0,412.0 L 83.0,411.0 L 82.0,415.0 L 79.0,436.0 L 83.0,436.0 L 86.0,440.0 L 85.0,443.0 L 87.0,441.0 L 88.0,445.0 L 98.0,453.0 L 99.0,448.0 L 111.0,437.0 L 113.0,432.0 L 114.0,416.0 L 107.0,408.0 L 79.0,437.0 L 106.0,407.0 Z" fill="#c89ba0" stroke-width="0.05" />
  <path d="M 282.0,191.0 L 299.0,206.0 L 298.0,213.0 L 274.0,232.0 L 272.0,232.0 L 261.0,224.0 L 263.0,202.0 L 281.0,192.0 Z" fill="#282266" stroke-width="0.05" />
  <path d="M 626.0,7.0 L 630.0,9.0 L 643.0,26.0 L 643.0,29.0 L 640.0,34.0 L 640.0,43.0 L 615.0,50.0 L 601.0,35.0 L 611.0,18.0 L 625.0,8.0 Z" fill="#422875" stroke-width="0.05" />
  <path d="M 436.0,98.0 L 438.0,98.0 L 454.0,113.0 L 452.0,134.0 L 425.0,139.0 L 415.0,129.0 L 418.0,109.0 L 435.0,99.0 Z" fill="#302468" stroke-width="0.05" />
  <path d="M 70.0,120.0 L 55.0,129.0 L 52.0,133.0 L 49.0,154.0 L 62.0,165.0 L 75.0,157.0 L 89.0,145.0 L 89.0,140.0 L 71.0,121.0 Z" fill="#f1f3d0" stroke-width="0.05" />
  <path d="M 535.0,167.0 L 540.0,167.0 L 548.0,174.0 L 546.0,194.0 L 542.0,201.0 L 527.0,207.0 L 512.0,191.0 L 513.0,172.0 L 534.0,168.0 Z" fill="#47246b" stroke-width="0.05" />
  <path d="M 670.0,232.0 L 650.0,247.0 L 650.0,269.0 L 652.0,272.0 L 656.0,276.0 L 686.0,269.0 L 687.0,248.0 L 671.0,233.0 Z" fill="#22205a" stroke-width="0.05" />
  <path d="M 993.0,306.0 L 999.0,306.0 L 999.0,352.0 L 987.0,346.0 L 977.0,337.0 L 975.0,337.0 L 971.0,332.0 L 974.0,309.0 L 992.0,307.0 L 999.0,353.0 L 993.0,306.0 Z" fill="#e6e6c7" stroke-width="0.05" />
  <path d="M 320.0,283.0 L 301.0,295.0 L 298.0,316.0 L 309.0,326.0 L 335.0,319.0 L 336.0,298.0 L 321.0,284.0 Z" fill="#341c5e" stroke-width="0.05" />
  <path d="M 989.0,264.0 L 999.0,265.0 L 999.0,305.0 L 974.0,308.0 L 963.0,299.0 L 961.0,286.0 L 988.0,265.0 Z" fill="#f6e0d4" stroke-width="0.05" />
  <path d="M 910.0,366.0 L 919.0,373.0 L 918.0,393.0 L 904.0,404.0 L 886.0,412.0 L 883.0,384.0 L 900.0,371.0 L 909.0,367.0 Z" fill="#f5e7c4" stroke-width="0.05" />
  <path d="M 909.0,82.0 L 911.0,82.0 L 926.0,98.0 L 924.0,118.0 L 899.0,125.0 L 889.0,116.0 L 889.0,108.0 L 892.0,94.0 L 908.0,83.0 Z" fill="#f0f7ce" stroke-width="0.05" />
  <path d="M 123.0,0.0 L 153.0,0.0 L 152.0,20.0 L 125.0,36.0 L 123.0,36.0 L 120.0,32.0 L 121.0,8.0 L 123.0,1.0 Z" fill="#8e6392" stroke-width="0.05" />
  <path d="M 20.0,186.0 L 9.0,192.0 L 0.0,194.0 L 0.0,232.0 L 20.0,219.0 L 34.0,205.0 L 38.0,199.0 L 35.0,196.0 L 29.0,195.0 L 20.0,186.0 Z" fill="#eae3d6" stroke-width="0.05" />
  <path d="M 253.0,90.0 L 227.0,110.0 L 227.0,116.0 L 231.0,122.0 L 243.0,133.0 L 262.0,119.0 L 263.0,98.0 L 254.0,91.0 Z" fill="#48205c" stroke-width="0.05" />
  <path d="M 798.0,7.0 L 799.0,8.0 L 797.0,10.0 L 796.0,16.0 L 790.0,30.0 L 788.0,45.0 L 804.0,62.0 L 817.0,51.0 L 823.0,51.0 L 826.0,33.0 L 798.0,7.0 Z" fill="#e6e3d7" stroke-width="0.05" />
  <path d="M 734.0,107.0 L 736.0,107.0 L 752.0,122.0 L 750.0,128.0 L 749.0,143.0 L 722.0,151.0 L 720.0,145.0 L 715.0,139.0 L 716.0,132.0 L 713.0,123.0 L 714.0,120.0 L 715.0,121.0 L 717.0,118.0 L 733.0,108.0 Z" fill="#edeecb" stroke-width="0.05" />
  <path d="M 773.0,199.0 L 775.0,202.0 L 778.0,203.0 L 778.0,205.0 L 789.0,218.0 L 785.0,229.0 L 785.0,235.0 L 759.0,243.0 L 739.0,220.0 L 742.0,217.0 L 760.0,210.0 L 772.0,200.0 Z" fill="#e2e7c9" stroke-width="0.05" />
  <path d="M 437.0,0.0 L 483.0,0.0 L 460.0,21.0 L 452.0,26.0 L 446.0,16.0 L 437.0,7.0 L 437.0,1.0 Z" fill="#432c81" stroke-width="0.05" />
  <path d="M 63.0,499.0 L 65.0,499.0 L 80.0,515.0 L 79.0,522.0 L 71.0,529.0 L 70.0,528.0 L 70.0,530.0 L 61.0,538.0 L 53.0,543.0 L 41.0,533.0 L 40.0,526.0 L 45.0,511.0 L 62.0,500.0 Z" fill="#e6c2bb" stroke-width="0.05" />
  <path d="M 881.0,300.0 L 898.0,316.0 L 896.0,322.0 L 895.0,338.0 L 871.0,344.0 L 859.0,333.0 L 859.0,329.0 L 863.0,318.0 L 863.0,312.0 L 880.0,301.0 Z" fill="#f4f0c9" stroke-width="0.05" />
  <path d="M 968.0,436.0 L 946.0,442.0 L 942.0,454.0 L 941.0,463.0 L 957.0,478.0 L 967.0,472.0 L 971.0,467.0 L 986.0,457.0 L 989.0,454.0 L 969.0,437.0 Z" fill="#f6dac9" stroke-width="0.05" />
  <path d="M 644.0,136.0 L 646.0,136.0 L 650.0,156.0 L 649.0,164.0 L 624.0,180.0 L 622.0,180.0 L 614.0,173.0 L 614.0,152.0 L 630.0,142.0 L 643.0,137.0 Z" fill="#262063" stroke-width="0.05" />
  <path d="M 57.0,468.0 L 59.0,468.0 L 69.0,479.0 L 64.0,498.0 L 44.0,510.0 L 30.0,496.0 L 33.0,472.0 L 56.0,469.0 Z" fill="#f9dac0" stroke-width="0.05" />
  <path d="M 458.0,255.0 L 463.0,255.0 L 476.0,267.0 L 474.0,292.0 L 469.0,291.0 L 447.0,294.0 L 438.0,286.0 L 438.0,274.0 L 440.0,267.0 L 444.0,266.0 L 458.0,256.0 Z" fill="#dfa4a7" stroke-width="0.05" />
  <path d="M 745.0,419.0 L 729.0,429.0 L 718.0,438.0 L 719.0,451.0 L 731.0,461.0 L 754.0,456.0 L 757.0,454.0 L 760.0,435.0 L 746.0,420.0 Z" fill="#f4d4c8" stroke-width="0.05" />
  <path d="M 441.0,509.0 L 444.0,509.0 L 457.0,520.0 L 452.0,543.0 L 434.0,555.0 L 416.0,538.0 L 418.0,516.0 L 440.0,510.0 Z" fill="#d67890" stroke-width="0.05" />
  <path d="M 174.0,88.0 L 155.0,101.0 L 151.0,120.0 L 163.0,132.0 L 188.0,126.0 L 188.0,112.0 L 190.0,104.0 L 175.0,89.0 Z" fill="#2c256c" stroke-width="0.05" />
  <path d="M 402.0,93.0 L 375.0,111.0 L 377.0,125.0 L 389.0,135.0 L 414.0,129.0 L 418.0,108.0 L 403.0,94.0 Z" fill="#2e2269" stroke-width="0.05" />
  <path d="M 554.0,509.0 L 571.0,524.0 L 566.0,538.0 L 566.0,546.0 L 543.0,551.0 L 523.0,528.0 L 540.0,520.0 L 553.0,510.0 Z" fill="#ecded4" stroke-width="0.05" />
  <path d="M 157.0,436.0 L 170.0,445.0 L 169.0,470.0 L 151.0,481.0 L 132.0,463.0 L 133.0,453.0 L 142.0,448.0 L 156.0,437.0 Z" fill="#1d1952" stroke-width="0.05" />
  <path d="M 849.0,112.0 L 852.0,112.0 L 861.0,120.0 L 860.0,136.0 L 858.0,142.0 L 840.0,155.0 L 825.0,139.0 L 827.0,117.0 L 848.0,113.0 Z" fill="#f5edd9" stroke-width="0.05" />
  <path d="M 568.0,354.0 L 549.0,367.0 L 546.0,388.0 L 555.0,397.0 L 580.0,392.0 L 583.0,371.0 L 569.0,355.0 Z" fill="#fad9d0" stroke-width="0.05" />
  <path d="M 325.0,187.0 L 337.0,196.0 L 337.0,208.0 L 335.0,217.0 L 333.0,217.0 L 316.0,230.0 L 299.0,213.0 L 300.0,206.0 L 324.0,188.0 Z" fill="#272063" stroke-width="0.05" />
  <path d="M 37.0,533.0 L 40.0,533.0 L 52.0,544.0 L 52.0,550.0 L 54.0,552.0 L 55.0,558.0 L 47.0,562.0 L 31.0,576.0 L 17.0,563.0 L 0.0,554.0 L 0.0,543.0 L 36.0,534.0 Z" fill="#f0cbc4" stroke-width="0.05" />
  <path d="M 349.0,153.0 L 366.0,169.0 L 363.0,189.0 L 337.0,195.0 L 326.0,186.0 L 324.0,172.0 L 348.0,154.0 Z" fill="#292165" stroke-width="0.05" />
  <path d="M 333.0,218.0 L 335.0,218.0 L 351.0,233.0 L 349.0,255.0 L 322.0,260.0 L 313.0,251.0 L 314.0,239.0 L 317.0,230.0 L 332.0,219.0 Z" fill="#251e5f" stroke-width="0.05" />
  <path d="M 24.0,274.0 L 0.0,289.0 L 0.0,315.0 L 35.0,310.0 L 38.0,287.0 L 25.0,275.0 Z" fill="#f5e8cf" stroke-width="0.05" />
  <path d="M 954.0,398.0 L 972.0,414.0 L 968.0,435.0 L 945.0,442.0 L 932.0,429.0 L 937.0,412.0 L 953.0,399.0 Z" fill="#f3e1bf" stroke-width="0.05" />
  <path d="M 888.0,204.0 L 877.0,211.0 L 864.0,224.0 L 862.0,232.0 L 877.0,247.0 L 896.0,236.0 L 899.0,228.0 L 900.0,214.0 L 889.0,205.0 Z" fill="#f1f3cd" stroke-width="0.05" />
  <path d="M 823.0,241.0 L 835.0,250.0 L 838.0,270.0 L 826.0,274.0 L 811.0,283.0 L 797.0,269.0 L 799.0,248.0 L 822.0,242.0 Z" fill="#e5e8c9" stroke-width="0.05" />
  <path d="M 353.0,565.0 L 355.0,565.0 L 368.0,576.0 L 368.0,585.0 L 363.0,599.0 L 328.0,599.0 L 329.0,586.0 L 333.0,584.0 L 352.0,566.0 Z" fill="#191850" stroke-width="0.05" />
  <path d="M 830.0,464.0 L 841.0,472.0 L 844.0,489.0 L 834.0,495.0 L 824.0,506.0 L 818.0,510.0 L 811.0,502.0 L 810.0,497.0 L 802.0,491.0 L 806.0,471.0 L 829.0,465.0 Z" fill="#eccbcd" stroke-width="0.05" />
  <path d="M 489.0,0.0 L 529.0,0.0 L 528.0,23.0 L 524.0,30.0 L 523.0,38.0 L 506.0,50.0 L 489.0,35.0 L 492.0,25.0 L 489.0,1.0 Z" fill="#422b7f" stroke-width="0.05" />
  <path d="M 577.0,393.0 L 581.0,393.0 L 594.0,404.0 L 595.0,416.0 L 584.0,423.0 L 570.0,436.0 L 553.0,419.0 L 557.0,398.0 L 576.0,394.0 Z" fill="#f4d4cb" stroke-width="0.05" />
  <path d="M 97.0,368.0 L 103.0,373.0 L 104.0,379.0 L 109.0,386.0 L 106.0,406.0 L 101.0,409.0 L 82.0,411.0 L 72.0,402.0 L 73.0,388.0 L 75.0,382.0 L 87.0,373.0 L 96.0,369.0 Z" fill="#dbc3ae" stroke-width="0.05" />
  <path d="M 473.0,99.0 L 490.0,114.0 L 487.0,126.0 L 487.0,137.0 L 461.0,142.0 L 453.0,135.0 L 453.0,124.0 L 455.0,114.0 L 472.0,100.0 Z" fill="#37226b" stroke-width="0.05" />
  <path d="M 109.0,303.0 L 112.0,308.0 L 125.0,321.0 L 121.0,340.0 L 104.0,346.0 L 98.0,344.0 L 96.0,345.0 L 96.0,343.0 L 92.0,339.0 L 90.0,340.0 L 87.0,334.0 L 86.0,324.0 L 91.0,320.0 L 92.0,317.0 L 97.0,317.0 L 101.0,313.0 L 103.0,308.0 L 108.0,304.0 L 91.0,341.0 L 109.0,303.0 Z" fill="#926a88" stroke-width="0.05" />
  <path d="M 0.0,144.0 L 0.0,193.0 L 2.0,193.0 L 5.0,191.0 L 9.0,191.0 L 21.0,184.0 L 22.0,177.0 L 27.0,168.0 L 28.0,161.0 L 0.0,144.0 Z" fill="#e5dcd9" stroke-width="0.05" />
  <path d="M 376.0,126.0 L 389.0,136.0 L 386.0,156.0 L 366.0,168.0 L 350.0,152.0 L 351.0,144.0 L 358.0,140.0 L 369.0,130.0 L 375.0,127.0 Z" fill="#2d2268" stroke-width="0.05" />
  <path d="M 713.0,141.0 L 715.0,141.0 L 721.0,149.0 L 724.0,160.0 L 723.0,171.0 L 722.0,172.0 L 719.0,168.0 L 716.0,171.0 L 716.0,176.0 L 706.0,188.0 L 685.0,167.0 L 689.0,148.0 L 712.0,142.0 Z" fill="#55356e" stroke-width="0.05" />
  <path d="M 35.0,0.0 L 82.0,0.0 L 79.0,24.0 L 51.0,33.0 L 49.0,33.0 L 40.0,25.0 L 35.0,1.0 Z" fill="#f1fdd2" stroke-width="0.05" />
  <path d="M 306.0,436.0 L 308.0,436.0 L 323.0,451.0 L 320.0,473.0 L 297.0,479.0 L 293.0,479.0 L 287.0,473.0 L 286.0,465.0 L 284.0,463.0 L 282.0,455.0 L 289.0,451.0 L 305.0,437.0 Z" fill="#4f185b" stroke-width="0.05" />
  <path d="M 569.0,440.0 L 586.0,458.0 L 580.0,477.0 L 556.0,483.0 L 552.0,483.0 L 548.0,479.0 L 545.0,464.0 L 543.0,462.0 L 568.0,441.0 Z" fill="#e7989f" stroke-width="0.05" />
  <path d="M 273.0,534.0 L 244.0,542.0 L 241.0,563.0 L 256.0,578.0 L 274.0,566.0 L 280.0,564.0 L 283.0,544.0 L 274.0,535.0 Z" fill="#f7f2e7" stroke-width="0.05" />
  <path d="M 539.0,573.0 L 558.0,592.0 L 558.0,599.0 L 518.0,599.0 L 520.0,585.0 L 538.0,574.0 Z" fill="#f5f5e7" stroke-width="0.05" />
  <path d="M 407.0,226.0 L 424.0,243.0 L 424.0,249.0 L 417.0,252.0 L 395.0,267.0 L 394.0,263.0 L 389.0,259.0 L 389.0,241.0 L 390.0,239.0 L 400.0,234.0 L 407.0,226.0 Z" fill="#a68d9b" stroke-width="0.05" />
  <path d="M 627.0,333.0 L 633.0,333.0 L 649.0,345.0 L 650.0,353.0 L 639.0,360.0 L 629.0,370.0 L 620.0,375.0 L 604.0,359.0 L 604.0,356.0 L 608.0,344.0 L 608.0,338.0 L 626.0,334.0 Z" fill="#f5c2bf" stroke-width="0.05" />
  <path d="M 999.0,174.0 L 993.0,178.0 L 976.0,184.0 L 964.0,192.0 L 966.0,199.0 L 964.0,211.0 L 974.0,220.0 L 999.0,218.0 L 999.0,176.0 Z" fill="#e7dfd7" stroke-width="0.05" />
  <path d="M 86.0,337.0 L 89.0,338.0 L 90.0,342.0 L 92.0,340.0 L 96.0,346.0 L 98.0,345.0 L 101.0,347.0 L 98.0,366.0 L 74.0,381.0 L 59.0,364.0 L 60.0,355.0 L 85.0,338.0 Z" fill="#e7d9bb" stroke-width="0.05" />
  <path d="M 238.0,65.0 L 251.0,74.0 L 253.0,89.0 L 228.0,108.0 L 211.0,92.0 L 211.0,87.0 L 214.0,79.0 L 214.0,72.0 L 237.0,66.0 Z" fill="#30256d" stroke-width="0.05" />
  <path d="M 864.0,560.0 L 867.0,560.0 L 877.0,569.0 L 875.0,576.0 L 873.0,599.0 L 839.0,599.0 L 843.0,564.0 L 863.0,561.0 Z" fill="#f8d6bf" stroke-width="0.05" />
  <path d="M 741.0,522.0 L 744.0,522.0 L 753.0,531.0 L 749.0,553.0 L 731.0,563.0 L 714.0,549.0 L 717.0,537.0 L 717.0,528.0 L 719.0,526.0 L 740.0,523.0 Z" fill="#f1d2c8" stroke-width="0.05" />
  <path d="M 999.0,79.0 L 983.0,88.0 L 971.0,98.0 L 962.0,103.0 L 962.0,108.0 L 976.0,122.0 L 979.0,124.0 L 984.0,123.0 L 999.0,113.0 L 999.0,81.0 Z" fill="#edeed1" stroke-width="0.05" />
  <path d="M 911.0,170.0 L 913.0,170.0 L 929.0,187.0 L 925.0,207.0 L 900.0,213.0 L 888.0,203.0 L 886.0,190.0 L 893.0,186.0 L 905.0,174.0 L 910.0,171.0 Z" fill="#f2f5cd" stroke-width="0.05" />
  <path d="M 478.0,514.0 L 480.0,514.0 L 499.0,534.0 L 499.0,539.0 L 482.0,546.0 L 469.0,556.0 L 465.0,555.0 L 453.0,543.0 L 458.0,520.0 L 477.0,515.0 Z" fill="#d4bdba" stroke-width="0.05" />
  <path d="M 854.0,520.0 L 842.0,527.0 L 834.0,534.0 L 831.0,546.0 L 831.0,554.0 L 842.0,563.0 L 858.0,561.0 L 867.0,558.0 L 870.0,535.0 L 855.0,521.0 Z" fill="#f9d6b9" stroke-width="0.05" />
  <path d="M 395.0,281.0 L 411.0,293.0 L 411.0,301.0 L 408.0,316.0 L 390.0,326.0 L 375.0,313.0 L 376.0,304.0 L 385.0,296.0 L 388.0,288.0 L 394.0,282.0 Z" fill="#eecec8" stroke-width="0.05" />
  <path d="M 58.0,364.0 L 55.0,368.0 L 41.0,379.0 L 33.0,383.0 L 37.0,402.0 L 45.0,409.0 L 70.0,403.0 L 72.0,401.0 L 72.0,388.0 L 74.0,382.0 L 59.0,365.0 Z" fill="#e6dac1" stroke-width="0.05" />
  <path d="M 376.0,443.0 L 365.0,452.0 L 365.0,457.0 L 362.0,460.0 L 361.0,476.0 L 370.0,486.0 L 395.0,480.0 L 395.0,461.0 L 377.0,444.0 L 396.0,480.0 L 376.0,443.0 Z" fill="#d19da5" stroke-width="0.05" />
  <path d="M 939.0,144.0 L 914.0,163.0 L 913.0,169.0 L 921.0,178.0 L 931.0,187.0 L 937.0,184.0 L 942.0,176.0 L 948.0,176.0 L 952.0,159.0 L 952.0,153.0 L 950.0,153.0 L 940.0,145.0 Z" fill="#ece9d2" stroke-width="0.05" />
  <path d="M 531.0,351.0 L 548.0,367.0 L 545.0,388.0 L 520.0,393.0 L 509.0,383.0 L 513.0,363.0 L 530.0,352.0 Z" fill="#fad8cf" stroke-width="0.05" />
  <path d="M 356.0,376.0 L 356.0,378.0 L 355.0,377.0 L 352.0,379.0 L 352.0,382.0 L 348.0,387.0 L 335.0,395.0 L 336.0,406.0 L 348.0,417.0 L 361.0,417.0 L 370.0,415.0 L 371.0,405.0 L 374.0,396.0 L 374.0,392.0 L 362.0,380.0 L 359.0,378.0 L 357.0,379.0 L 356.0,376.0 Z" fill="#9f7d92" stroke-width="0.05" />
  <path d="M 903.0,459.0 L 905.0,459.0 L 920.0,473.0 L 920.0,486.0 L 918.0,496.0 L 893.0,502.0 L 882.0,491.0 L 886.0,471.0 L 902.0,460.0 Z" fill="#f8d9ba" stroke-width="0.05" />
  <path d="M 749.0,554.0 L 760.0,564.0 L 766.0,567.0 L 764.0,569.0 L 765.0,571.0 L 732.0,598.0 L 729.0,581.0 L 731.0,564.0 L 748.0,555.0 Z" fill="#eabfbb" stroke-width="0.05" />
  <path d="M 640.0,44.0 L 618.0,50.0 L 615.0,53.0 L 613.0,69.0 L 626.0,85.0 L 629.0,87.0 L 649.0,75.0 L 651.0,56.0 L 641.0,45.0 Z" fill="#322670" stroke-width="0.05" />
  <path d="M 795.0,269.0 L 811.0,285.0 L 809.0,292.0 L 813.0,312.0 L 812.0,318.0 L 793.0,325.0 L 773.0,301.0 L 777.0,280.0 L 794.0,270.0 Z" fill="#eaecca" stroke-width="0.05" />
  <path d="M 445.0,320.0 L 447.0,320.0 L 445.0,323.0 L 443.0,322.0 L 435.0,324.0 L 430.0,328.0 L 425.0,329.0 L 424.0,331.0 L 424.0,345.0 L 422.0,350.0 L 433.0,360.0 L 457.0,354.0 L 457.0,346.0 L 459.0,345.0 L 461.0,338.0 L 459.0,333.0 L 461.0,333.0 L 453.0,331.0 L 453.0,328.0 L 446.0,324.0 L 445.0,320.0 Z" fill="#a07578" stroke-width="0.05" />
  <path d="M 130.0,371.0 L 116.0,380.0 L 115.0,383.0 L 109.0,389.0 L 107.0,407.0 L 114.0,415.0 L 116.0,416.0 L 123.0,413.0 L 143.0,409.0 L 146.0,388.0 L 131.0,372.0 Z" fill="#362161" stroke-width="0.05" />
  <path d="M 520.0,528.0 L 522.0,528.0 L 525.0,531.0 L 542.0,551.0 L 539.0,572.0 L 521.0,584.0 L 519.0,584.0 L 504.0,568.0 L 505.0,565.0 L 500.0,538.0 L 505.0,534.0 L 519.0,529.0 Z" fill="#f5f4e8" stroke-width="0.05" />
  <path d="M 762.0,79.0 L 765.0,79.0 L 775.0,89.0 L 771.0,110.0 L 754.0,121.0 L 752.0,121.0 L 736.0,106.0 L 738.0,84.0 L 761.0,80.0 Z" fill="#f0f7ce" stroke-width="0.05" />
  <path d="M 286.0,93.0 L 292.0,94.0 L 301.0,103.0 L 299.0,118.0 L 297.0,124.0 L 279.0,135.0 L 263.0,120.0 L 264.0,99.0 L 285.0,94.0 L 262.0,120.0 L 286.0,93.0 Z" fill="#30266f" stroke-width="0.05" />
  <path d="M 201.0,467.0 L 219.0,487.0 L 217.0,505.0 L 191.0,512.0 L 183.0,505.0 L 183.0,491.0 L 185.0,480.0 L 194.0,478.0 L 195.0,477.0 L 191.0,475.0 L 200.0,468.0 L 190.0,476.0 L 201.0,467.0 Z" fill="#f4ece3" stroke-width="0.05" />
  <path d="M 208.0,374.0 L 219.0,382.0 L 219.0,399.0 L 217.0,407.0 L 213.0,408.0 L 200.0,418.0 L 183.0,399.0 L 184.0,393.0 L 191.0,389.0 L 207.0,375.0 Z" fill="#7f466e" stroke-width="0.05" />
  <path d="M 668.0,320.0 L 688.0,337.0 L 685.0,362.0 L 671.0,363.0 L 670.0,361.0 L 660.0,361.0 L 658.0,363.0 L 657.0,358.0 L 651.0,353.0 L 650.0,345.0 L 656.0,339.0 L 657.0,333.0 L 662.0,325.0 L 667.0,321.0 Z" fill="#3b3164" stroke-width="0.05" />
  <path d="M 64.0,180.0 L 40.0,197.0 L 35.0,206.0 L 53.0,224.0 L 72.0,210.0 L 74.0,189.0 L 65.0,181.0 Z" fill="#f1f1ce" stroke-width="0.05" />
  <path d="M 129.0,564.0 L 113.0,568.0 L 102.0,569.0 L 103.0,579.0 L 100.0,599.0 L 136.0,599.0 L 139.0,573.0 L 130.0,565.0 Z" fill="#efeee0" stroke-width="0.05" />
  <path d="M 573.0,569.0 L 589.0,592.0 L 596.0,599.0 L 559.0,599.0 L 559.0,593.0 L 567.0,583.0 L 568.0,575.0 L 572.0,570.0 L 597.0,599.0 L 573.0,569.0 Z" fill="#453e5c" stroke-width="0.05" />
  <path d="M 673.0,454.0 L 675.0,454.0 L 694.0,471.0 L 693.0,479.0 L 678.0,491.0 L 665.0,498.0 L 665.0,496.0 L 661.0,496.0 L 658.0,493.0 L 658.0,475.0 L 662.0,463.0 L 667.0,461.0 L 673.0,455.0 L 673.0,459.0 L 673.0,454.0 Z" fill="#e9c2c4" stroke-width="0.05" />
  <path d="M 933.0,329.0 L 935.0,329.0 L 950.0,344.0 L 949.0,365.0 L 923.0,372.0 L 919.0,372.0 L 911.0,365.0 L 908.0,348.0 L 932.0,330.0 Z" fill="#e6e4c5" stroke-width="0.05" />
  <path d="M 191.0,0.0 L 227.0,0.0 L 225.0,27.0 L 207.0,38.0 L 190.0,23.0 L 191.0,1.0 Z" fill="#3f2b7d" stroke-width="0.05" />
  <path d="M 952.0,516.0 L 955.0,516.0 L 977.0,533.0 L 975.0,538.0 L 974.0,556.0 L 969.0,560.0 L 966.0,565.0 L 959.0,570.0 L 942.0,551.0 L 942.0,520.0 L 951.0,517.0 L 975.0,556.0 L 952.0,516.0 Z" fill="#ebc5cc" stroke-width="0.05" />
  <path d="M 865.0,47.0 L 877.0,56.0 L 875.0,76.0 L 857.0,86.0 L 851.0,82.0 L 846.0,81.0 L 843.0,78.0 L 844.0,75.0 L 840.0,70.0 L 859.0,51.0 L 864.0,48.0 Z" fill="#e8e6d6" stroke-width="0.05" />
  <path d="M 424.0,250.0 L 417.0,253.0 L 395.0,268.0 L 396.0,280.0 L 411.0,292.0 L 436.0,286.0 L 438.0,281.0 L 437.0,274.0 L 440.0,266.0 L 425.0,251.0 Z" fill="#f5d2ca" stroke-width="0.05" />
  <path d="M 879.0,492.0 L 882.0,492.0 L 893.0,503.0 L 888.0,522.0 L 870.0,534.0 L 855.0,520.0 L 856.0,498.0 L 878.0,493.0 Z" fill="#f5d2bf" stroke-width="0.05" />
  <path d="M 394.0,380.0 L 375.0,392.0 L 371.0,416.0 L 379.0,423.0 L 406.0,417.0 L 407.0,401.0 L 409.0,395.0 L 395.0,381.0 Z" fill="#f8c1be" stroke-width="0.05" />
  <path d="M 338.0,31.0 L 342.0,31.0 L 352.0,40.0 L 349.0,62.0 L 329.0,76.0 L 314.0,60.0 L 316.0,53.0 L 317.0,38.0 L 337.0,32.0 Z" fill="#382672" stroke-width="0.05" />
  <path d="M 994.0,530.0 L 999.0,530.0 L 999.0,575.0 L 991.0,571.0 L 983.0,563.0 L 980.0,562.0 L 975.0,555.0 L 976.0,538.0 L 978.0,533.0 L 993.0,531.0 Z" fill="#f8d4b9" stroke-width="0.05" />
  <path d="M 604.0,360.0 L 593.0,368.0 L 584.0,372.0 L 581.0,392.0 L 594.0,403.0 L 611.0,388.0 L 619.0,383.0 L 620.0,376.0 L 605.0,361.0 Z" fill="#f9d8d0" stroke-width="0.05" />
  <path d="M 495.0,256.0 L 495.0,258.0 L 497.0,258.0 L 511.0,273.0 L 508.0,294.0 L 482.0,299.0 L 475.0,293.0 L 476.0,268.0 L 484.0,262.0 L 488.0,265.0 L 493.0,260.0 L 495.0,260.0 L 495.0,256.0 Z" fill="#dbb8b8" stroke-width="0.05" />
  <path d="M 420.0,351.0 L 426.0,354.0 L 433.0,361.0 L 430.0,383.0 L 415.0,392.0 L 409.0,394.0 L 395.0,380.0 L 396.0,358.0 L 408.0,354.0 L 414.0,356.0 L 416.0,352.0 L 419.0,352.0 Z" fill="#f7bebb" stroke-width="0.05" />
  <path d="M 939.0,55.0 L 951.0,65.0 L 951.0,72.0 L 948.0,83.0 L 938.0,93.0 L 927.0,98.0 L 911.0,81.0 L 915.0,60.0 L 938.0,56.0 Z" fill="#f0f7cf" stroke-width="0.05" />
  <path d="M 105.0,212.0 L 100.0,218.0 L 94.0,222.0 L 92.0,233.0 L 92.0,248.0 L 94.0,256.0 L 96.0,257.0 L 121.0,251.0 L 124.0,229.0 L 105.0,212.0 Z" fill="#633673" stroke-width="0.05" />
  <path d="M 510.0,192.0 L 512.0,192.0 L 527.0,208.0 L 522.0,233.0 L 517.0,233.0 L 513.0,230.0 L 512.0,231.0 L 514.0,234.0 L 502.0,235.0 L 489.0,223.0 L 489.0,207.0 L 509.0,193.0 Z" fill="#2c1e5c" stroke-width="0.05" />
  <path d="M 115.0,527.0 L 132.0,543.0 L 129.0,563.0 L 113.0,567.0 L 101.0,568.0 L 94.0,562.0 L 94.0,552.0 L 97.0,539.0 L 114.0,528.0 Z" fill="#f5f4e8" stroke-width="0.05" />
  <path d="M 275.0,253.0 L 277.0,253.0 L 283.0,258.0 L 283.0,279.0 L 260.0,293.0 L 257.0,293.0 L 249.0,287.0 L 249.0,268.0 L 252.0,268.0 L 258.0,261.0 L 264.0,257.0 L 274.0,254.0 Z" fill="#491f64" stroke-width="0.05" />
  <path d="M 503.0,569.0 L 519.0,585.0 L 517.0,599.0 L 466.0,599.0 L 470.0,583.0 L 496.0,574.0 L 502.0,570.0 Z" fill="#f2f2e5" stroke-width="0.05" />
  <path d="M 661.0,0.0 L 699.0,0.0 L 698.0,14.0 L 690.0,21.0 L 677.0,29.0 L 666.0,16.0 L 661.0,14.0 L 661.0,1.0 Z" fill="#f1fad4" stroke-width="0.05" />
  <path d="M 998.0,399.0 L 999.0,455.0 L 990.0,454.0 L 969.0,436.0 L 973.0,414.0 L 988.0,403.0 L 997.0,400.0 L 999.0,456.0 L 998.0,399.0 Z" fill="#f0dbc4" stroke-width="0.05" />
  <path d="M 522.0,39.0 L 524.0,39.0 L 540.0,55.0 L 540.0,74.0 L 514.0,82.0 L 503.0,72.0 L 506.0,51.0 L 521.0,40.0 Z" fill="#3a2877" stroke-width="0.05" />
  <path d="M 812.0,319.0 L 794.0,326.0 L 793.0,336.0 L 796.0,348.0 L 795.0,359.0 L 810.0,374.0 L 832.0,358.0 L 831.0,353.0 L 834.0,340.0 L 818.0,323.0 L 813.0,320.0 Z" fill="#f6d9db" stroke-width="0.05" />
  <path d="M 948.0,366.0 L 950.0,366.0 L 959.0,376.0 L 954.0,397.0 L 937.0,411.0 L 919.0,392.0 L 920.0,373.0 L 947.0,367.0 Z" fill="#e9e0c4" stroke-width="0.05" />
  <path d="M 381.0,533.0 L 369.0,540.0 L 358.0,549.0 L 353.0,551.0 L 354.0,563.0 L 369.0,576.0 L 393.0,566.0 L 392.0,559.0 L 394.0,551.0 L 384.0,540.0 L 381.0,533.0 Z" fill="#302d5f" stroke-width="0.05" />
  <path d="M 530.0,0.0 L 567.0,0.0 L 574.0,33.0 L 574.0,35.0 L 562.0,38.0 L 549.0,49.0 L 540.0,54.0 L 524.0,38.0 L 525.0,30.0 L 529.0,23.0 L 530.0,1.0 Z" fill="#3f2b7d" stroke-width="0.05" />
  <path d="M 297.0,316.0 L 278.0,322.0 L 272.0,322.0 L 272.0,345.0 L 279.0,349.0 L 285.0,355.0 L 284.0,357.0 L 286.0,359.0 L 306.0,347.0 L 309.0,327.0 L 298.0,317.0 Z" fill="#6d175f" stroke-width="0.05" />
  <path d="M 906.0,274.0 L 911.0,274.0 L 921.0,283.0 L 918.0,303.0 L 904.0,313.0 L 898.0,315.0 L 883.0,300.0 L 885.0,279.0 L 905.0,275.0 Z" fill="#f3f3cc" stroke-width="0.05" />
  <path d="M 0.0,423.0 L 0.0,468.0 L 15.0,468.0 L 25.0,466.0 L 25.0,442.0 L 15.0,436.0 L 0.0,423.0 Z" fill="#f5d8d4" stroke-width="0.05" />
  <path d="M 510.0,104.0 L 491.0,115.0 L 488.0,126.0 L 487.0,138.0 L 498.0,147.0 L 500.0,147.0 L 508.0,142.0 L 524.0,127.0 L 525.0,119.0 L 511.0,105.0 Z" fill="#2d2166" stroke-width="0.05" />
  <path d="M 831.0,360.0 L 841.0,369.0 L 846.0,378.0 L 846.0,387.0 L 843.0,398.0 L 822.0,406.0 L 810.0,396.0 L 809.0,385.0 L 811.0,374.0 L 830.0,361.0 Z" fill="#f5d4cc" stroke-width="0.05" />
  <path d="M 714.0,550.0 L 698.0,560.0 L 696.0,563.0 L 696.0,568.0 L 693.0,575.0 L 691.0,599.0 L 731.0,599.0 L 728.0,581.0 L 730.0,563.0 L 715.0,551.0 Z" fill="#f1d1c7" stroke-width="0.05" />
  <path d="M 239.0,563.0 L 256.0,579.0 L 255.0,599.0 L 218.0,599.0 L 221.0,574.0 L 238.0,564.0 Z" fill="#f3f0e4" stroke-width="0.05" />
  <path d="M 962.0,301.0 L 964.0,301.0 L 973.0,308.0 L 970.0,332.0 L 951.0,344.0 L 935.0,328.0 L 936.0,321.0 L 951.0,308.0 L 961.0,302.0 Z" fill="#e1e2c6" stroke-width="0.05" />
  <path d="M 817.0,52.0 L 823.0,52.0 L 826.0,54.0 L 839.0,70.0 L 828.0,80.0 L 828.0,82.0 L 822.0,88.0 L 814.0,92.0 L 807.0,89.0 L 801.0,84.0 L 804.0,63.0 L 816.0,53.0 Z" fill="#e0d9da" stroke-width="0.05" />
  <path d="M 698.0,15.0 L 716.0,29.0 L 715.0,38.0 L 686.0,58.0 L 676.0,43.0 L 676.0,31.0 L 697.0,16.0 Z" fill="#f0f9cf" stroke-width="0.05" />
  <path d="M 800.0,84.0 L 776.0,89.0 L 772.0,110.0 L 789.0,126.0 L 793.0,121.0 L 814.0,107.0 L 815.0,105.0 L 813.0,93.0 L 801.0,85.0 Z" fill="#f0f4d1" stroke-width="0.05" />
  <path d="M 0.0,233.0 L 6.0,235.0 L 21.0,246.0 L 28.0,249.0 L 24.0,273.0 L 6.0,285.0 L 0.0,287.0 L 0.0,235.0 L 0.0,288.0 L 0.0,233.0 Z" fill="#f8d8de" stroke-width="0.05" />
  <path d="M 429.0,384.0 L 445.0,400.0 L 444.0,408.0 L 428.0,421.0 L 419.0,426.0 L 417.0,426.0 L 407.0,417.0 L 408.0,401.0 L 410.0,395.0 L 428.0,385.0 Z" fill="#f6b5b4" stroke-width="0.05" />
  <path d="M 656.0,489.0 L 657.0,493.0 L 661.0,497.0 L 665.0,497.0 L 665.0,511.0 L 655.0,519.0 L 653.0,526.0 L 645.0,533.0 L 627.0,517.0 L 630.0,497.0 L 634.0,494.0 L 655.0,490.0 L 657.0,521.0 L 656.0,489.0 Z" fill="#3c3565" stroke-width="0.05" />
  <path d="M 948.0,276.0 L 922.0,284.0 L 919.0,304.0 L 935.0,320.0 L 962.0,300.0 L 960.0,286.0 L 949.0,277.0 L 963.0,300.0 L 948.0,276.0 Z" fill="#f3f2cb" stroke-width="0.05" />
  <path d="M 208.0,284.0 L 222.0,296.0 L 217.0,316.0 L 203.0,326.0 L 199.0,327.0 L 183.0,310.0 L 186.0,291.0 L 207.0,285.0 Z" fill="#401752" stroke-width="0.05" />
  <path d="M 290.0,412.0 L 307.0,429.0 L 307.0,435.0 L 298.0,441.0 L 289.0,450.0 L 282.0,454.0 L 271.0,446.0 L 271.0,425.0 L 289.0,413.0 Z" fill="#57205a" stroke-width="0.05" />
  <path d="M 626.0,197.0 L 638.0,206.0 L 636.0,231.0 L 634.0,232.0 L 632.0,230.0 L 617.0,241.0 L 605.0,225.0 L 601.0,224.0 L 600.0,220.0 L 613.0,207.0 L 625.0,199.0 L 610.0,240.0 L 612.0,240.0 L 612.0,242.0 L 614.0,242.0 L 626.0,197.0 Z" fill="#6d5a6e" stroke-width="0.05" />
  <path d="M 915.0,497.0 L 918.0,497.0 L 937.0,519.0 L 921.0,527.0 L 915.0,533.0 L 905.0,539.0 L 891.0,525.0 L 889.0,520.0 L 893.0,510.0 L 893.0,504.0 L 895.0,502.0 L 914.0,498.0 Z" fill="#f9d7b8" stroke-width="0.05" />
  <path d="M 626.0,518.0 L 645.0,534.0 L 644.0,541.0 L 636.0,546.0 L 623.0,559.0 L 619.0,561.0 L 604.0,553.0 L 605.0,541.0 L 608.0,530.0 L 625.0,519.0 Z" fill="#161247" stroke-width="0.05" />
  <path d="M 531.0,263.0 L 512.0,274.0 L 509.0,294.0 L 522.0,305.0 L 535.0,293.0 L 549.0,284.0 L 549.0,280.0 L 532.0,264.0 Z" fill="#ebcac3" stroke-width="0.05" />
  <path d="M 187.0,216.0 L 201.0,227.0 L 198.0,245.0 L 176.0,259.0 L 160.0,242.0 L 161.0,235.0 L 163.0,233.0 L 169.0,230.0 L 178.0,221.0 L 186.0,217.0 Z" fill="#262063" stroke-width="0.05" />
  <path d="M 408.0,508.0 L 398.0,513.0 L 381.0,527.0 L 381.0,532.0 L 385.0,540.0 L 392.0,548.0 L 395.0,550.0 L 415.0,537.0 L 417.0,527.0 L 417.0,515.0 L 409.0,509.0 Z" fill="#da99a6" stroke-width="0.05" />
  <path d="M 265.0,0.0 L 300.0,0.0 L 302.0,24.0 L 302.0,27.0 L 296.0,30.0 L 285.0,42.0 L 278.0,47.0 L 275.0,45.0 L 274.0,46.0 L 270.0,41.0 L 269.0,37.0 L 262.0,30.0 L 264.0,25.0 L 265.0,1.0 Z" fill="#572d7c" stroke-width="0.05" />
  <path d="M 601.0,554.0 L 605.0,554.0 L 618.0,562.0 L 620.0,599.0 L 598.0,599.0 L 590.0,592.0 L 574.0,568.0 L 576.0,560.0 L 600.0,555.0 Z" fill="#14103c" stroke-width="0.05" />
  <path d="M 86.0,56.0 L 67.0,69.0 L 64.0,90.0 L 74.0,100.0 L 91.0,97.0 L 100.0,92.0 L 101.0,71.0 L 87.0,57.0 Z" fill="#eff5cc" stroke-width="0.05" />
  <path d="M 217.0,506.0 L 191.0,513.0 L 191.0,522.0 L 188.0,533.0 L 204.0,549.0 L 206.0,549.0 L 223.0,535.0 L 231.0,531.0 L 229.0,516.0 L 218.0,507.0 Z" fill="#f7f1e8" stroke-width="0.05" />
  <path d="M 924.0,119.0 L 899.0,126.0 L 899.0,133.0 L 896.0,146.0 L 913.0,163.0 L 931.0,148.0 L 938.0,144.0 L 936.0,128.0 L 925.0,120.0 Z" fill="#f2f4cd" stroke-width="0.05" />
  <path d="M 662.0,203.0 L 672.0,212.0 L 670.0,229.0 L 669.0,232.0 L 659.0,238.0 L 652.0,245.0 L 650.0,244.0 L 652.0,242.0 L 649.0,238.0 L 643.0,234.0 L 639.0,235.0 L 636.0,232.0 L 638.0,223.0 L 638.0,209.0 L 639.0,206.0 L 642.0,205.0 L 646.0,206.0 L 661.0,204.0 L 641.0,236.0 L 643.0,237.0 L 642.0,238.0 L 644.0,238.0 L 643.0,239.0 L 647.0,240.0 L 645.0,241.0 L 647.0,241.0 L 646.0,242.0 L 648.0,242.0 L 647.0,243.0 L 650.0,246.0 L 662.0,203.0 Z" fill="#4f3b5a" stroke-width="0.05" />
  <path d="M 498.0,540.0 L 500.0,544.0 L 504.0,565.0 L 503.0,568.0 L 496.0,573.0 L 471.0,582.0 L 467.0,574.0 L 468.0,557.0 L 482.0,547.0 L 497.0,541.0 Z" fill="#f1efe3" stroke-width="0.05" />
  <path d="M 755.0,456.0 L 757.0,456.0 L 768.0,467.0 L 766.0,485.0 L 746.0,498.0 L 730.0,483.0 L 732.0,476.0 L 732.0,462.0 L 754.0,457.0 Z" fill="#f5d5cb" stroke-width="0.05" />
  <path d="M 992.0,219.0 L 999.0,219.0 L 999.0,264.0 L 989.0,263.0 L 968.0,243.0 L 974.0,221.0 L 991.0,220.0 Z" fill="#f6e6de" stroke-width="0.05" />
  <path d="M 784.0,236.0 L 786.0,236.0 L 798.0,248.0 L 796.0,268.0 L 787.0,274.0 L 775.0,280.0 L 758.0,262.0 L 758.0,253.0 L 760.0,244.0 L 783.0,237.0 L 776.0,281.0 L 784.0,236.0 Z" fill="#e3e7c9" stroke-width="0.05" />
  <path d="M 890.0,12.0 L 885.0,15.0 L 864.0,35.0 L 866.0,40.0 L 866.0,46.0 L 877.0,55.0 L 903.0,49.0 L 906.0,29.0 L 891.0,13.0 Z" fill="#f0f9cd" stroke-width="0.05" />
  <path d="M 516.0,415.0 L 532.0,431.0 L 530.0,451.0 L 525.0,454.0 L 505.0,458.0 L 495.0,449.0 L 498.0,428.0 L 515.0,416.0 Z" fill="#f0d1c9" stroke-width="0.05" />
  <path d="M 105.0,500.0 L 114.0,505.0 L 118.0,505.0 L 116.0,526.0 L 98.0,538.0 L 96.0,538.0 L 80.0,522.0 L 81.0,515.0 L 83.0,515.0 L 96.0,505.0 L 104.0,501.0 Z" fill="#e7e4dc" stroke-width="0.05" />
  <path d="M 248.0,288.0 L 252.0,289.0 L 257.0,294.0 L 260.0,313.0 L 250.0,317.0 L 236.0,331.0 L 227.0,322.0 L 224.0,320.0 L 222.0,321.0 L 217.0,317.0 L 222.0,303.0 L 223.0,295.0 L 247.0,289.0 Z" fill="#7f1e54" stroke-width="0.05" />
  <path d="M 188.0,534.0 L 168.0,547.0 L 166.0,565.0 L 179.0,576.0 L 203.0,559.0 L 204.0,550.0 L 189.0,535.0 Z" fill="#f5f4e8" stroke-width="0.05" />
  <path d="M 203.0,560.0 L 220.0,575.0 L 217.0,599.0 L 180.0,599.0 L 179.0,577.0 L 202.0,561.0 Z" fill="#efede1" stroke-width="0.05" />
  <path d="M 481.0,139.0 L 488.0,139.0 L 498.0,148.0 L 500.0,162.0 L 491.0,167.0 L 473.0,181.0 L 458.0,168.0 L 458.0,161.0 L 461.0,152.0 L 461.0,143.0 L 480.0,140.0 Z" fill="#3a2269" stroke-width="0.05" />
  <path d="M 196.0,349.0 L 171.0,355.0 L 167.0,376.0 L 183.0,392.0 L 191.0,388.0 L 199.0,380.0 L 203.0,378.0 L 208.0,373.0 L 207.0,362.0 L 205.0,358.0 L 197.0,350.0 Z" fill="#501c59" stroke-width="0.05" />
  <path d="M 676.0,49.0 L 678.0,49.0 L 685.0,57.0 L 690.0,67.0 L 689.0,70.0 L 692.0,75.0 L 690.0,77.0 L 683.0,79.0 L 666.0,90.0 L 664.0,90.0 L 650.0,76.0 L 652.0,56.0 L 662.0,52.0 L 675.0,50.0 Z" fill="#533073" stroke-width="0.05" />
  <path d="M 650.0,354.0 L 656.0,358.0 L 656.0,362.0 L 658.0,364.0 L 660.0,362.0 L 659.0,377.0 L 656.0,387.0 L 648.0,391.0 L 639.0,399.0 L 637.0,399.0 L 620.0,383.0 L 622.0,375.0 L 629.0,371.0 L 639.0,361.0 L 649.0,355.0 Z" fill="#f7cfc8" stroke-width="0.05" />
  <path d="M 548.0,480.0 L 536.0,485.0 L 519.0,497.0 L 518.0,506.0 L 521.0,527.0 L 540.0,519.0 L 554.0,508.0 L 553.0,485.0 L 549.0,481.0 Z" fill="#f8d8cf" stroke-width="0.05" />
  <path d="M 552.0,102.0 L 564.0,111.0 L 562.0,131.0 L 543.0,143.0 L 525.0,127.0 L 526.0,119.0 L 537.0,113.0 L 546.0,105.0 L 551.0,103.0 Z" fill="#2e2369" stroke-width="0.05" />
  <path d="M 328.0,505.0 L 309.0,518.0 L 306.0,539.0 L 315.0,547.0 L 342.0,542.0 L 342.0,529.0 L 344.0,521.0 L 329.0,506.0 Z" fill="#211955" stroke-width="0.05" />
  <path d="M 853.0,0.0 L 890.0,0.0 L 889.0,12.0 L 885.0,14.0 L 864.0,34.0 L 849.0,23.0 L 849.0,12.0 L 853.0,1.0 Z" fill="#e9ecd3" stroke-width="0.05" />
  <path d="M 465.0,69.0 L 475.0,78.0 L 474.0,97.0 L 455.0,113.0 L 438.0,97.0 L 440.0,90.0 L 441.0,75.0 L 464.0,70.0 Z" fill="#3a2571" stroke-width="0.05" />
  <path d="M 649.0,76.0 L 630.0,87.0 L 628.0,91.0 L 628.0,101.0 L 626.0,107.0 L 637.0,119.0 L 648.0,130.0 L 666.0,123.0 L 663.0,99.0 L 664.0,91.0 L 650.0,77.0 Z" fill="#2b246a" stroke-width="0.05" />
  <path d="M 698.0,293.0 L 713.0,305.0 L 710.0,324.0 L 702.0,327.0 L 690.0,336.0 L 688.0,336.0 L 669.0,319.0 L 669.0,316.0 L 671.0,314.0 L 682.0,307.0 L 693.0,296.0 L 697.0,294.0 Z" fill="#1f1e5d" stroke-width="0.05" />
  <path d="M 817.0,517.0 L 809.0,521.0 L 801.0,529.0 L 791.0,535.0 L 793.0,548.0 L 807.0,560.0 L 830.0,554.0 L 830.0,546.0 L 833.0,533.0 L 818.0,518.0 Z" fill="#ebcbc4" stroke-width="0.05" />
  <path d="M 486.0,225.0 L 491.0,226.0 L 499.0,234.0 L 496.0,251.0 L 494.0,259.0 L 488.0,263.0 L 484.0,261.0 L 476.0,266.0 L 463.0,254.0 L 460.0,254.0 L 459.0,251.0 L 463.0,249.0 L 463.0,241.0 L 461.0,235.0 L 471.0,232.0 L 476.0,228.0 L 485.0,226.0 L 458.0,254.0 L 495.0,259.0 L 488.0,264.0 L 486.0,225.0 Z" fill="#a18193" stroke-width="0.05" />
  <path d="M 572.0,36.0 L 575.0,36.0 L 577.0,60.0 L 575.0,68.0 L 552.0,81.0 L 548.0,80.0 L 541.0,74.0 L 541.0,55.0 L 562.0,39.0 L 571.0,37.0 Z" fill="#372776" stroke-width="0.05" />
  <path d="M 69.0,314.0 L 74.0,314.0 L 85.0,323.0 L 87.0,336.0 L 73.0,344.0 L 58.0,356.0 L 49.0,346.0 L 46.0,345.0 L 46.0,343.0 L 43.0,340.0 L 46.0,319.0 L 68.0,315.0 L 59.0,357.0 L 69.0,314.0 Z" fill="#e4dfc3" stroke-width="0.05" />
  <path d="M 940.0,463.0 L 921.0,474.0 L 921.0,486.0 L 919.0,497.0 L 933.0,513.0 L 939.0,519.0 L 949.0,517.0 L 954.0,515.0 L 960.0,503.0 L 956.0,487.0 L 956.0,479.0 L 941.0,464.0 Z" fill="#f9d9bb" stroke-width="0.05" />
  <path d="M 0.0,333.0 L 0.0,378.0 L 22.0,375.0 L 25.0,350.0 L 0.0,333.0 Z" fill="#ecdfc3" stroke-width="0.05" />
  <path d="M 261.0,121.0 L 263.0,121.0 L 279.0,136.0 L 275.0,158.0 L 249.0,163.0 L 241.0,154.0 L 241.0,141.0 L 243.0,134.0 L 260.0,122.0 Z" fill="#49276d" stroke-width="0.05" />
  <path d="M 756.0,366.0 L 758.0,366.0 L 767.0,374.0 L 769.0,392.0 L 763.0,395.0 L 747.0,409.0 L 742.0,407.0 L 727.0,394.0 L 730.0,373.0 L 755.0,367.0 Z" fill="#f4dac8" stroke-width="0.05" />
  <path d="M 839.0,71.0 L 843.0,75.0 L 842.0,78.0 L 846.0,82.0 L 851.0,83.0 L 856.0,87.0 L 851.0,111.0 L 827.0,116.0 L 815.0,104.0 L 814.0,93.0 L 822.0,89.0 L 829.0,82.0 L 829.0,80.0 L 838.0,72.0 Z" fill="#edefd2" stroke-width="0.05" />
  <path d="M 257.0,225.0 L 261.0,225.0 L 273.0,233.0 L 276.0,252.0 L 264.0,256.0 L 258.0,260.0 L 252.0,267.0 L 249.0,267.0 L 239.0,255.0 L 236.0,251.0 L 238.0,231.0 L 256.0,226.0 Z" fill="#451f60" stroke-width="0.05" />
  <path d="M 445.0,408.0 L 428.0,422.0 L 419.0,427.0 L 421.0,443.0 L 431.0,451.0 L 458.0,444.0 L 461.0,424.0 L 446.0,409.0 Z" fill="#f9c4c1" stroke-width="0.05" />
  <path d="M 720.0,229.0 L 722.0,244.0 L 721.0,260.0 L 709.0,270.0 L 698.0,276.0 L 695.0,276.0 L 687.0,269.0 L 688.0,248.0 L 702.0,238.0 L 719.0,230.0 Z" fill="#352663" stroke-width="0.05" />
  <path d="M 491.0,450.0 L 495.0,450.0 L 505.0,459.0 L 502.0,480.0 L 482.0,492.0 L 467.0,476.0 L 470.0,455.0 L 490.0,451.0 Z" fill="#f7d6cd" stroke-width="0.05" />
  <path d="M 180.0,505.0 L 184.0,506.0 L 190.0,512.0 L 190.0,522.0 L 187.0,534.0 L 168.0,546.0 L 152.0,530.0 L 155.0,509.0 L 167.0,509.0 L 167.0,507.0 L 179.0,506.0 Z" fill="#f5f3e8" stroke-width="0.05" />
  <path d="M 341.0,543.0 L 352.0,551.0 L 354.0,564.0 L 330.0,585.0 L 328.0,585.0 L 313.0,571.0 L 316.0,548.0 L 340.0,544.0 Z" fill="#1c1a54" stroke-width="0.05" />
  <path d="M 165.0,566.0 L 178.0,576.0 L 179.0,599.0 L 137.0,599.0 L 140.0,574.0 L 164.0,567.0 Z" fill="#f0efe1" stroke-width="0.05" />
  <path d="M 134.0,278.0 L 137.0,278.0 L 148.0,286.0 L 147.0,307.0 L 125.0,320.0 L 113.0,308.0 L 111.0,304.0 L 111.0,296.0 L 133.0,279.0 Z" fill="#261d60" stroke-width="0.05" />
  <path d="M 766.0,486.0 L 747.0,499.0 L 744.0,521.0 L 753.0,530.0 L 779.0,524.0 L 779.0,513.0 L 781.0,504.0 L 767.0,487.0 Z" fill="#f7d6cd" stroke-width="0.05" />
  <path d="M 228.0,0.0 L 264.0,0.0 L 262.0,28.0 L 260.0,31.0 L 243.0,42.0 L 241.0,42.0 L 226.0,28.0 L 228.0,1.0 Z" fill="#3f2a7d" stroke-width="0.05" />
  <path d="M 989.0,455.0 L 995.0,455.0 L 999.0,457.0 L 999.0,489.0 L 988.0,493.0 L 980.0,499.0 L 965.0,502.0 L 960.0,501.0 L 957.0,487.0 L 957.0,479.0 L 967.0,473.0 L 971.0,468.0 L 988.0,456.0 Z" fill="#f4d0d3" stroke-width="0.05" />
  <path d="M 414.0,538.0 L 417.0,539.0 L 434.0,556.0 L 425.0,590.0 L 425.0,598.0 L 413.0,598.0 L 400.0,579.0 L 393.0,563.0 L 395.0,551.0 L 413.0,539.0 Z" fill="#e1b7ba" stroke-width="0.05" />
  <path d="M 282.0,381.0 L 293.0,392.0 L 290.0,411.0 L 271.0,424.0 L 256.0,408.0 L 257.0,389.0 L 281.0,382.0 Z" fill="#9a2a6d" stroke-width="0.05" />
  <path d="M 277.0,55.0 L 262.0,68.0 L 252.0,74.0 L 254.0,90.0 L 264.0,98.0 L 289.0,92.0 L 293.0,77.0 L 293.0,71.0 L 278.0,56.0 Z" fill="#4e2a75" stroke-width="0.05" />
  <path d="M 858.0,333.0 L 836.0,339.0 L 834.0,341.0 L 832.0,359.0 L 842.0,369.0 L 846.0,377.0 L 867.0,364.0 L 870.0,344.0 L 859.0,334.0 Z" fill="#f4e6cf" stroke-width="0.05" />
  <path d="M 765.0,172.0 L 773.0,178.0 L 773.0,198.0 L 760.0,209.0 L 740.0,217.0 L 738.0,201.0 L 739.0,187.0 L 760.0,174.0 L 764.0,173.0 Z" fill="#f2f5cd" stroke-width="0.05" />
  <path d="M 999.0,24.0 L 987.0,34.0 L 978.0,38.0 L 973.0,55.0 L 973.0,60.0 L 977.0,64.0 L 999.0,76.0 L 999.0,26.0 Z" fill="#f8d8db" stroke-width="0.05" />
  <path d="M 141.0,410.0 L 144.0,410.0 L 156.0,421.0 L 157.0,435.0 L 142.0,447.0 L 132.0,452.0 L 113.0,434.0 L 115.0,426.0 L 115.0,417.0 L 127.0,413.0 L 140.0,411.0 Z" fill="#1f1a55" stroke-width="0.05" />
  <path d="M 429.0,474.0 L 431.0,474.0 L 446.0,489.0 L 443.0,508.0 L 418.0,515.0 L 408.0,507.0 L 405.0,486.0 L 409.0,486.0 L 428.0,475.0 Z" fill="#e2a5aa" stroke-width="0.05" />
  <path d="M 373.0,314.0 L 378.0,316.0 L 390.0,327.0 L 390.0,330.0 L 387.0,333.0 L 389.0,335.0 L 386.0,342.0 L 386.0,350.0 L 357.0,354.0 L 352.0,347.0 L 351.0,332.0 L 372.0,315.0 Z" fill="#9b7f90" stroke-width="0.05" />
  <path d="M 501.0,162.0 L 473.0,182.0 L 473.0,192.0 L 489.0,206.0 L 511.0,191.0 L 512.0,172.0 L 502.0,163.0 Z" fill="#372167" stroke-width="0.05" />
  <path d="M 352.0,348.0 L 339.0,353.0 L 322.0,363.0 L 321.0,365.0 L 321.0,383.0 L 334.0,394.0 L 348.0,386.0 L 351.0,382.0 L 351.0,379.0 L 358.0,373.0 L 358.0,371.0 L 356.0,370.0 L 357.0,366.0 L 355.0,365.0 L 356.0,354.0 L 353.0,349.0 L 358.0,377.0 L 357.0,378.0 L 352.0,348.0 Z" fill="#402a5e" stroke-width="0.05" />
  <path d="M 580.0,478.0 L 553.0,484.0 L 555.0,508.0 L 572.0,524.0 L 588.0,509.0 L 590.0,499.0 L 594.0,491.0 L 581.0,479.0 Z" fill="#f0d0c8" stroke-width="0.05" />
  <path d="M 123.0,150.0 L 139.0,165.0 L 136.0,187.0 L 106.0,192.0 L 100.0,184.0 L 104.0,163.0 L 122.0,151.0 Z" fill="#2e2267" stroke-width="0.05" />
  <path d="M 809.0,203.0 L 800.0,212.0 L 796.0,213.0 L 789.0,219.0 L 786.0,229.0 L 786.0,235.0 L 798.0,247.0 L 823.0,240.0 L 826.0,219.0 L 810.0,204.0 Z" fill="#e3e8ca" stroke-width="0.05" />
  <path d="M 109.0,117.0 L 125.0,128.0 L 125.0,141.0 L 123.0,149.0 L 121.0,151.0 L 103.0,162.0 L 93.0,150.0 L 93.0,148.0 L 90.0,145.0 L 90.0,141.0 L 93.0,134.0 L 102.0,125.0 L 104.0,121.0 L 108.0,118.0 L 103.0,163.0 L 109.0,117.0 Z" fill="#4e2d70" stroke-width="0.05" />
  <path d="M 118.0,31.0 L 123.0,37.0 L 124.0,53.0 L 104.0,68.0 L 102.0,72.0 L 86.0,55.0 L 90.0,35.0 L 117.0,32.0 Z" fill="#d3c0b5" stroke-width="0.05" />
</svg>