<svg width="640" height="640" viewBox="0 0 640 640" xmlns="http://www.w3.org/2000/svg" shape-rendering="geometricPrecision">
  <path d="M 88.00 23.00 L 105.00 38.00 L 163.00 131.00 L 180.00 118.00 L 189.00 120.00 L 176.00 120.00 L 165.00 137.00 L 97.00 29.00 L 91.00 23.00 L 73.00 29.00" fill="none" stroke="#000000" stroke-width="1.23" />
  <path d="M 78.00 31.00 L 157.00 161.00 L 83.00 38.00" fill="none" stroke="#000000" stroke-width="1.23" />
  <path d="M 72.00 34.00 L 120.00 116.00 L 72.00 35.00" fill="none" stroke="#000000" stroke-width="1.23" />
  <path d="M 567.00 39.00 L 603.00 39.00 L 622.00 49.00 L 620.00 43.00 L 567.00 40.00 L 525.00 49.00 L 343.00 221.00 L 523.00 50.00" fill="none" stroke="#000000" stroke-width="1.23" />
  <path d="M 606.00 46.00 L 544.00 52.00 L 495.00 92.00" fill="none" stroke="#000000" stroke-width="1.23" />
  <path d="M 621.00 51.00 L 599.00 78.00" fill="none" stroke="#000000" stroke-width="1.23" />
  <path d="M 510.00 71.00 L 493.00 88.00" fill="none" stroke="#000000" stroke-width="1.23" />
  <path d="M 491.00 89.00 L 445.00 133.00" fill="none" stroke="#000000" stroke-width="1.23" />
  <path d="M 490.00 98.00 L 526.00 109.00 L 488.00 99.00 L 442.00 144.00" fill="none" stroke="#000000" stroke-width="1.23" />
  <path d="M 577.00 98.00 L 556.00 119.00" fill="none" stroke="#000000" stroke-width="1.23" />
  <path d="M 526.00 104.00 L 530.00 111.00 L 516.00 126.00 L 529.00 107.00" fill="none" stroke="#000000" stroke-width="1.23" />
  <path d="M 287.00 120.00 L 297.00 128.00 L 286.00 121.00 L 272.00 127.00 L 259.00 160.00 L 270.00 129.00" fill="none" stroke="#000000" stroke-width="1.23" />
  <path d="M 186.00 121.00 L 172.00 135.00" fill="none" stroke="#000000" stroke-width="1.23" />
  <path d="M 116.00 125.00 L 130.00 146.00 L 117.00 125.00" fill="none" stroke="#000000" stroke-width="1.23" />
  <path d="M 187.00 125.00 L 171.00 168.00 L 173.00 215.00 L 169.00 188.00 L 180.00 132.00" fill="none" stroke="#000000" stroke-width="1.23" />
  <path d="M 293.00 128.00 L 276.00 154.00 L 266.00 195.00 L 268.00 201.00 L 275.00 197.00 L 266.00 206.00 L 282.00 131.00" fill="none" stroke="#000000" stroke-width="1.23" />
  <path d="M 488.00 129.00 L 470.00 146.00" fill="none" stroke="#000000" stroke-width="1.23" />
  <path d="M 279.00 130.00 L 269.00 145.00 L 275.00 133.00" fill="none" stroke="#000000" stroke-width="1.23" />
  <path d="M 297.00 130.00 L 289.00 152.00 L 296.00 131.00" fill="none" stroke="#000000" stroke-width="1.23" />
  <path d="M 494.00 130.00 L 534.00 137.00 L 492.00 131.00 L 462.00 159.00" fill="none" stroke="#000000" stroke-width="1.23" />
  <path d="M 132.00 132.00 L 141.00 145.00 L 132.00 133.00" fill="none" stroke="#000000" stroke-width="1.23" />
  <path d="M 477.00 133.00 L 460.00 147.00" fill="none" stroke="#000000" stroke-width="1.23" />
  <path d="M 190.00 134.00 L 185.00 162.00 L 187.00 139.00" fill="none" stroke="#000000" stroke-width="1.23" />
  <path d="M 554.00 136.00 L 609.00 161.00 L 553.00 137.00 L 526.00 152.00 L 532.00 141.00 L 512.00 159.00" fill="none" stroke="#000000" stroke-width="1.23" />
  <path d="M 164.00 139.00 L 163.00 171.00 L 157.00 180.00 L 155.00 162.00 L 163.00 141.00" fill="none" stroke="#000000" stroke-width="1.23" />
  <path d="M 439.00 139.00 L 416.00 162.00" fill="none" stroke="#000000" stroke-width="1.23" />
  <path d="M 554.00 144.00 L 595.00 157.00 L 556.00 144.00 L 514.00 168.00" fill="none" stroke="#000000" stroke-width="1.23" />
  <path d="M 270.00 147.00 L 261.00 182.00 L 267.00 151.00" fill="none" stroke="#000000" stroke-width="1.23" />
  <path d="M 438.00 149.00 L 462.00 155.00 L 424.00 196.00 L 437.00 150.00 L 397.00 187.00" fill="none" stroke="#000000" stroke-width="1.23" />
  <path d="M 131.00 152.00 L 137.00 162.00 L 131.00 154.00" fill="none" stroke="#000000" stroke-width="1.23" />
  <path d="M 288.00 156.00 L 280.00 188.00 L 287.00 157.00" fill="none" stroke="#000000" stroke-width="1.23" />
  <path d="M 492.00 160.00 L 478.00 173.00" fill="none" stroke="#000000" stroke-width="1.23" />
  <path d="M 149.00 161.00 L 155.00 169.00 L 149.00 162.00" fill="none" stroke="#000000" stroke-width="1.23" />
  <path d="M 461.00 161.00 L 433.00 188.00" fill="none" stroke="#000000" stroke-width="1.23" />
  <path d="M 259.00 162.00 L 251.00 191.00 L 258.00 163.00" fill="none" stroke="#000000" stroke-width="1.23" />
  <path d="M 414.00 163.00 L 388.00 188.00" fill="none" stroke="#000000" stroke-width="1.23" />
  <path d="M 184.00 164.00 L 205.00 197.00 L 184.00 165.00" fill="none" stroke="#000000" stroke-width="1.23" />
  <path d="M 493.00 172.00 L 514.00 174.00 L 522.00 180.00 L 518.00 185.00 L 521.00 180.00 L 491.00 173.00 L 444.00 201.00" fill="none" stroke="#000000" stroke-width="1.23" />
  <path d="M 522.00 186.00 L 477.00 212.00" fill="none" stroke="#000000" stroke-width="1.23" />
  <path d="M 386.00 189.00 L 346.00 227.00" fill="none" stroke="#000000" stroke-width="1.23" />
  <path d="M 397.00 189.00 L 365.00 219.00" fill="none" stroke="#000000" stroke-width="1.23" />
  <path d="M 181.00 193.00 L 188.00 194.00 L 181.00 198.00 L 191.00 211.00 L 187.00 216.00 L 182.00 200.00 L 177.00 204.00 L 181.00 197.00" fill="none" stroke="#000000" stroke-width="1.23" />
  <path d="M 431.00 199.00 L 447.00 207.00 L 429.00 200.00 L 390.00 222.00" fill="none" stroke="#000000" stroke-width="1.23" />
  <path d="M 255.00 201.00 L 256.00 215.00 L 256.00 201.00" fill="none" stroke="#000000" stroke-width="1.23" />
  <path d="M 201.00 203.00 L 209.00 211.00 L 202.00 203.00" fill="none" stroke="#000000" stroke-width="1.23" />
  <path d="M 196.00 204.00 L 198.00 213.00 L 209.00 215.00 L 195.00 211.00" fill="none" stroke="#000000" stroke-width="1.23" />
  <path d="M 450.00 208.00 L 466.00 214.00 L 448.00 209.00 L 404.00 236.00 L 401.00 230.00" fill="none" stroke="#000000" stroke-width="1.23" />
  <path d="M 150.00 211.00 L 161.00 223.00 L 150.00 264.00 L 157.00 216.00 L 125.00 213.00 L 96.00 220.00" fill="none" stroke="#000000" stroke-width="1.23" />
  <path d="M 177.00 213.00 L 171.00 226.00 L 176.00 214.00" fill="none" stroke="#000000" stroke-width="1.23" />
  <path d="M 274.00 214.00 L 264.00 239.00 L 273.00 215.00" fill="none" stroke="#000000" stroke-width="1.23" />
  <path d="M 278.00 216.00 L 328.00 230.00 L 342.00 223.00 L 328.00 229.00 L 278.00 217.00" fill="none" stroke="#000000" stroke-width="1.23" />
  <path d="M 363.00 221.00 L 365.00 228.00 L 362.00 222.00 L 350.00 232.00 L 343.00 227.00" fill="none" stroke="#000000" stroke-width="1.23" />
  <path d="M 95.00 222.00 L 79.00 245.00 L 80.00 260.00 L 86.00 228.00" fill="none" stroke="#000000" stroke-width="1.23" />
  <path d="M 387.00 224.00 L 401.00 234.00 L 390.00 230.00 L 365.00 241.00 L 389.00 225.00 L 362.00 237.00 L 353.00 234.00" fill="none" stroke="#000000" stroke-width="1.23" />
  <path d="M 252.00 226.00 L 244.00 254.00 L 253.00 226.00" fill="none" stroke="#000000" stroke-width="1.23" />
  <path d="M 169.00 230.00 L 173.00 240.00 L 170.00 230.00" fill="none" stroke="#000000" stroke-width="1.23" />
  <path d="M 172.00 242.00 L 180.00 254.00 L 172.00 244.00" fill="none" stroke="#000000" stroke-width="1.23" />
  <path d="M 251.00 246.00 L 241.00 264.00" fill="none" stroke="#000000" stroke-width="1.23" />
  <path d="M 256.00 248.00 L 260.00 257.00 L 257.00 248.00" fill="none" stroke="#000000" stroke-width="1.23" />
  <path d="M 172.00 253.00 L 175.00 265.00 L 154.00 284.00 L 168.00 274.00 L 173.00 253.00" fill="none" stroke="#000000" stroke-width="1.23" />
  <path d="M 380.00 253.00 L 398.00 264.00 L 381.00 253.00" fill="none" stroke="#000000" stroke-width="1.23" />
  <path d="M 412.00 266.00 L 436.00 269.00 L 501.00 300.00 L 446.00 273.00 L 409.00 268.00" fill="none" stroke="#000000" stroke-width="1.23" />
  <path d="M 148.00 267.00 L 157.00 279.00 L 148.00 268.00" fill="none" stroke="#000000" stroke-width="1.23" />
  <path d="M 241.00 268.00 L 247.00 277.00 L 242.00 268.00" fill="none" stroke="#000000" stroke-width="1.23" />
  <path d="M 394.00 271.00 L 409.00 296.00 L 395.00 271.00" fill="none" stroke="#000000" stroke-width="1.23" />
  <path d="M 233.00 273.00 L 249.00 285.00 L 258.00 277.00 L 246.00 283.00 L 235.00 274.00" fill="none" stroke="#000000" stroke-width="1.23" />
  <path d="M 112.00 279.00 L 108.00 296.00 L 113.00 279.00" fill="none" stroke="#000000" stroke-width="1.23" />
  <path d="M 121.00 280.00 L 127.00 293.00 L 122.00 280.00" fill="none" stroke="#000000" stroke-width="1.23" />
  <path d="M 76.00 289.00 L 85.00 303.00 L 77.00 289.00" fill="none" stroke="#000000" stroke-width="1.23" />
  <path d="M 155.00 300.00 L 165.00 305.00 L 155.00 301.00" fill="none" stroke="#000000" stroke-width="1.23" />
  <path d="M 446.00 301.00 L 459.00 311.00 L 446.00 302.00" fill="none" stroke="#000000" stroke-width="1.23" />
  <path d="M 293.00 302.00 L 300.00 311.00 L 294.00 302.00" fill="none" stroke="#000000" stroke-width="1.23" />
  <path d="M 501.00 302.00 L 518.00 315.00 L 501.00 304.00" fill="none" stroke="#000000" stroke-width="1.23" />
  <path d="M 405.00 308.00 L 414.00 315.00 L 406.00 308.00" fill="none" stroke="#000000" stroke-width="1.23" />
  <path d="M 104.00 314.00 L 137.00 317.00 L 96.00 315.00" fill="none" stroke="#000000" stroke-width="1.23" />
  <path d="M 84.00 316.00 L 80.00 331.00 L 83.00 317.00" fill="none" stroke="#000000" stroke-width="1.23" />
  <path d="M 135.00 319.00 L 124.00 349.00 L 128.00 334.00 L 118.00 348.00 L 134.00 320.00" fill="none" stroke="#000000" stroke-width="1.23" />
  <path d="M 514.00 321.00 L 526.00 327.00 L 517.00 321.00" fill="none" stroke="#000000" stroke-width="1.23" />
  <path d="M 265.00 323.00 L 324.00 328.00 L 324.00 371.00 L 324.00 327.00 L 262.00 324.00 L 250.00 411.00 L 260.00 328.00" fill="none" stroke="#000000" stroke-width="1.23" />
  <path d="M 234.00 329.00 L 242.00 340.00 L 233.00 331.00" fill="none" stroke="#000000" stroke-width="1.23" />
  <path d="M 294.00 329.00 L 301.00 329.00 L 291.00 339.00 L 285.00 390.00 L 293.00 331.00" fill="none" stroke="#000000" stroke-width="1.23" />
  <path d="M 162.00 330.00 L 129.00 397.00 L 153.00 338.00" fill="none" stroke="#000000" stroke-width="1.23" />
  <path d="M 504.00 332.00 L 514.00 345.00 L 492.00 343.00 L 510.00 338.00" fill="none" stroke="#000000" stroke-width="1.23" />
  <path d="M 80.00 333.00 L 73.00 373.00 L 79.00 336.00" fill="none" stroke="#000000" stroke-width="1.23" />
  <path d="M 337.00 335.00 L 342.00 347.00 L 339.00 336.00" fill="none" stroke="#000000" stroke-width="1.23" />
  <path d="M 336.00 339.00 L 334.00 378.00 L 335.00 341.00" fill="none" stroke="#000000" stroke-width="1.23" />
  <path d="M 341.00 349.00 L 339.00 383.00 L 334.00 380.00 L 325.00 419.00 L 341.00 350.00" fill="none" stroke="#000000" stroke-width="1.23" />
  <path d="M 364.00 351.00 L 377.00 353.00 L 353.00 354.00" fill="none" stroke="#000000" stroke-width="1.23" />
  <path d="M 123.00 352.00 L 116.00 366.00 L 118.00 355.00" fill="none" stroke="#000000" stroke-width="1.23" />
  <path d="M 262.00 352.00 L 263.00 366.00 L 261.00 355.00" fill="none" stroke="#000000" stroke-width="1.23" />
  <path d="M 525.00 354.00 L 520.00 367.00 L 524.00 355.00" fill="none" stroke="#000000" stroke-width="1.23" />
  <path d="M 93.00 355.00 L 91.00 365.00 L 92.00 356.00" fill="none" stroke="#000000" stroke-width="1.23" />
  <path d="M 121.00 365.00 L 116.00 371.00 L 122.00 375.00 L 121.00 400.00 L 117.00 377.00 L 109.00 388.00 L 115.00 373.00 L 106.00 382.00 L 117.00 368.00" fill="none" stroke="#000000" stroke-width="1.23" />
  <path d="M 93.00 366.00 L 94.00 379.00 L 92.00 367.00" fill="none" stroke="#000000" stroke-width="1.23" />
  <path d="M 151.00 369.00 L 140.00 404.00 L 127.00 415.00 L 140.00 402.00 L 151.00 372.00" fill="none" stroke="#000000" stroke-width="1.23" />
  <path d="M 229.00 369.00 L 240.00 386.00 L 229.00 370.00" fill="none" stroke="#000000" stroke-width="1.23" />
  <path d="M 507.00 370.00 L 513.00 373.00 L 513.00 392.00 L 508.00 370.00" fill="none" stroke="#000000" stroke-width="1.23" />
  <path d="M 451.00 372.00 L 478.00 380.00 L 451.00 373.00" fill="none" stroke="#000000" stroke-width="1.23" />
  <path d="M 242.00 383.00 L 245.00 398.00 L 245.00 390.00 L 231.00 407.00 L 215.00 435.00 L 243.00 383.00" fill="none" stroke="#000000" stroke-width="1.23" />
  <path d="M 339.00 385.00 L 336.00 397.00 L 338.00 386.00" fill="none" stroke="#000000" stroke-width="1.23" />
  <path d="M 400.00 390.00 L 411.00 397.00 L 402.00 390.00" fill="none" stroke="#000000" stroke-width="1.23" />
  <path d="M 134.00 394.00 L 123.00 411.00 L 70.00 412.00 L 66.00 419.00 L 127.00 403.00" fill="none" stroke="#000000" stroke-width="1.23" />
  <path d="M 448.00 396.00 L 472.00 413.00 L 447.00 397.00" fill="none" stroke="#000000" stroke-width="1.23" />
  <path d="M 245.00 400.00 L 240.00 409.00 L 251.00 419.00 L 300.00 421.00 L 336.00 435.00 L 301.00 421.00 L 250.00 419.00 L 245.00 409.00 L 238.00 411.00 L 240.00 419.00 L 238.00 410.00" fill="none" stroke="#000000" stroke-width="1.23" />
  <path d="M 402.00 410.00 L 402.00 417.00 L 395.00 414.00 L 401.00 413.00" fill="none" stroke="#000000" stroke-width="1.23" />
  <path d="M 439.00 410.00 L 455.00 419.00 L 439.00 411.00" fill="none" stroke="#000000" stroke-width="1.23" />
  <path d="M 513.00 427.00 L 509.00 442.00 L 512.00 428.00" fill="none" stroke="#000000" stroke-width="1.23" />
  <path d="M 302.00 428.00 L 311.00 436.00 L 307.00 440.00 L 307.00 432.00" fill="none" stroke="#000000" stroke-width="1.23" />
  <path d="M 312.00 429.00 L 335.00 456.00 L 312.00 430.00" fill="none" stroke="#000000" stroke-width="1.23" />
  <path d="M 292.00 433.00 L 301.00 452.00 L 303.00 441.00 L 292.00 434.00" fill="none" stroke="#000000" stroke-width="1.23" />
  <path d="M 442.00 433.00 L 454.00 442.00 L 440.00 435.00" fill="none" stroke="#000000" stroke-width="1.23" />
  <path d="M 181.00 445.00 L 173.00 466.00 L 178.00 449.00" fill="none" stroke="#000000" stroke-width="1.23" />
  <path d="M 506.00 447.00 L 505.00 464.00 L 507.00 447.00" fill="none" stroke="#000000" stroke-width="1.23" />
  <path d="M 285.00 451.00 L 293.00 464.00 L 293.00 451.00 L 290.00 465.00 L 286.00 451.00" fill="none" stroke="#000000" stroke-width="1.23" />
  <path d="M 135.00 453.00 L 139.00 467.00 L 134.00 454.00" fill="none" stroke="#000000" stroke-width="1.23" />
  <path d="M 306.00 454.00 L 317.00 465.00 L 306.00 455.00" fill="none" stroke="#000000" stroke-width="1.23" />
  <path d="M 60.00 458.00 L 70.00 471.00 L 60.00 459.00" fill="none" stroke="#000000" stroke-width="1.23" />
  <path d="M 101.00 459.00 L 102.00 468.00 L 102.00 459.00" fill="none" stroke="#000000" stroke-width="1.23" />
  <path d="M 442.00 459.00 L 453.00 465.00 L 443.00 459.00" fill="none" stroke="#000000" stroke-width="1.23" />
  <path d="M 122.00 460.00 L 130.00 478.00 L 163.00 494.00 L 156.00 495.00 L 157.00 487.00 L 144.00 489.00 L 148.00 483.00 L 133.00 476.00 L 137.00 490.00 L 122.00 470.00" fill="none" stroke="#000000" stroke-width="1.23" />
  <path d="M 497.00 463.00 L 498.00 473.00 L 498.00 463.00" fill="none" stroke="#000000" stroke-width="1.23" />
  <path d="M 483.00 464.00 L 495.00 470.00 L 482.00 465.00" fill="none" stroke="#000000" stroke-width="1.23" />
  <path d="M 288.00 469.00 L 296.00 492.00 L 289.00 469.00" fill="none" stroke="#000000" stroke-width="1.23" />
  <path d="M 298.00 470.00 L 302.00 484.00 L 299.00 470.00" fill="none" stroke="#000000" stroke-width="1.23" />
  <path d="M 466.00 480.00 L 488.00 487.00 L 467.00 480.00" fill="none" stroke="#000000" stroke-width="1.23" />
  <path d="M 439.00 489.00 L 446.00 498.00 L 439.00 491.00" fill="none" stroke="#000000" stroke-width="1.23" />
  <path d="M 260.00 503.00 L 256.00 516.00 L 258.00 505.00" fill="none" stroke="#000000" stroke-width="1.23" />
  <path d="M 179.00 504.00 L 191.00 520.00 L 183.00 518.00 L 180.00 504.00" fill="none" stroke="#000000" stroke-width="1.23" />
  <path d="M 498.00 505.00 L 473.00 535.00 L 491.00 511.00" fill="none" stroke="#000000" stroke-width="1.23" />
  <path d="M 299.00 513.00 L 304.00 526.00 L 300.00 513.00" fill="none" stroke="#000000" stroke-width="1.23" />
  <path d="M 168.00 515.00 L 192.00 554.00 L 171.00 517.00" fill="none" stroke="#000000" stroke-width="1.23" />
  <path d="M 203.00 520.00 L 216.00 543.00 L 205.00 526.00" fill="none" stroke="#000000" stroke-width="1.23" />
  <path d="M 189.00 521.00 L 201.00 539.00 L 188.00 522.00" fill="none" stroke="#000000" stroke-width="1.23" />
  <path d="M 456.00 522.00 L 466.00 533.00 L 455.00 523.00" fill="none" stroke="#000000" stroke-width="1.23" />
  <path d="M 438.00 525.00 L 448.00 539.00 L 457.00 536.00 L 448.00 538.00 L 438.00 526.00" fill="none" stroke="#000000" stroke-width="1.23" />
  <path d="M 321.00 533.00 L 335.00 548.00 L 322.00 533.00" fill="none" stroke="#000000" stroke-width="1.23" />
  <path d="M 434.00 538.00 L 441.00 541.00 L 438.00 546.00 L 435.00 538.00" fill="none" stroke="#000000" stroke-width="1.23" />
  <path d="M 246.00 540.00 L 259.00 563.00 L 271.00 561.00 L 258.00 563.00 L 246.00 543.00" fill="none" stroke="#000000" stroke-width="1.23" />
  <path d="M 199.00 541.00 L 224.00 553.00 L 199.00 543.00" fill="none" stroke="#000000" stroke-width="1.23" />
  <path d="M 241.00 545.00 L 229.00 553.00 L 224.00 546.00" fill="none" stroke="#000000" stroke-width="1.23" />
  <path d="M 375.00 546.00 L 385.00 562.00 L 376.00 546.00" fill="none" stroke="#000000" stroke-width="1.23" />
  <path d="M 322.00 547.00 L 332.00 553.00 L 321.00 548.00" fill="none" stroke="#000000" stroke-width="1.23" />
  <path d="M 360.00 552.00 L 375.00 567.00 L 360.00 553.00" fill="none" stroke="#000000" stroke-width="1.23" />
  <path d="M 426.00 552.00 L 432.00 565.00 L 426.00 553.00" fill="none" stroke="#000000" stroke-width="1.23" />
  <path d="M 234.00 557.00 L 239.00 566.00 L 235.00 557.00" fill="none" stroke="#000000" stroke-width="1.23" />
  <path d="M 420.00 563.00 L 426.00 573.00 L 421.00 563.00" fill="none" stroke="#000000" stroke-width="1.23" />
  <path d="M 268.00 565.00 L 277.00 576.00 L 268.00 566.00" fill="none" stroke="#000000" stroke-width="1.23" />
  <path d="M 416.00 569.00 L 422.00 578.00 L 398.00 584.00 L 387.00 572.00 L 419.00 571.00" fill="none" stroke="#000000" stroke-width="1.23" />
  <path d="M 287.00 570.00 L 294.00 581.00 L 288.00 570.00" fill="none" stroke="#000000" stroke-width="1.23" />
  <path d="M 377.00 576.00 L 382.00 584.00 L 376.00 577.00" fill="none" stroke="#000000" stroke-width="1.23" />
  <path d="M 296.00 582.00 L 319.00 604.00" fill="none" stroke="#000000" stroke-width="1.23" />
  <path d="M 329.00 586.00 L 336.00 596.00 L 331.00 586.00" fill="none" stroke="#000000" stroke-width="1.23" />
  <path d="M 284.00 588.00 L 288.00 597.00 L 285.00 588.00" fill="none" stroke="#000000" stroke-width="1.23" />
  <path d="M 347.00 589.00 L 352.00 599.00 L 348.00 589.00" fill="none" stroke="#000000" stroke-width="1.23" />
  <path d="M 322.00 597.00 L 331.00 608.00 L 322.00 598.00" fill="none" stroke="#000000" stroke-width="1.23" />
  <path d="M 188.00 125.00 L 170.00 182.00 L 180.00 132.00" fill="none" stroke="#000000" stroke-width="1.23" />
  <path d="M 281.00 129.00 L 264.00 162.00 L 274.00 135.00" fill="none" stroke="#000000" stroke-width="1.23" />
  <path d="M 494.00 130.00 L 534.00 137.00 L 490.00 132.00 L 434.00 188.00 L 465.00 154.00" fill="none" stroke="#000000" stroke-width="1.23" />
  <path d="M 554.00 136.00 L 609.00 161.00 L 553.00 137.00 L 521.00 150.00" fill="none" stroke="#000000" stroke-width="1.23" />
  <path d="M 523.00 175.00 L 519.00 189.00 L 477.00 212.00 L 525.00 176.00" fill="none" stroke="#000000" stroke-width="1.23" />
  <path d="M 171.00 184.00 L 173.00 216.00 L 170.00 185.00" fill="none" stroke="#000000" stroke-width="1.23" />
  <path d="M 387.00 188.00 L 366.00 209.00" fill="none" stroke="#000000" stroke-width="1.23" />
  <path d="M 395.00 190.00 L 418.00 196.00 L 394.00 191.00 L 371.00 223.00 L 365.00 219.00" fill="none" stroke="#000000" stroke-width="1.23" />
  <path d="M 449.00 208.00 L 467.00 214.00 L 448.00 209.00 L 423.00 225.00" fill="none" stroke="#000000" stroke-width="1.23" />
  <path d="M 195.00 210.00 L 246.00 216.00 L 255.00 229.00 L 250.00 219.00 L 195.00 211.00" fill="none" stroke="#000000" stroke-width="1.23" />
  <path d="M 149.00 211.00 L 161.00 225.00 L 149.00 212.00 L 96.00 220.00" fill="none" stroke="#000000" stroke-width="1.23" />
  <path d="M 363.00 221.00 L 350.00 232.00 L 343.00 227.00" fill="none" stroke="#000000" stroke-width="1.23" />
  <path d="M 161.00 227.00 L 152.00 261.00 L 160.00 229.00" fill="none" stroke="#000000" stroke-width="1.23" />
  <path d="M 412.00 266.00 L 450.00 275.00 L 409.00 268.00" fill="none" stroke="#000000" stroke-width="1.23" />
  <path d="M 454.00 275.00 L 501.00 297.00 L 452.00 276.00" fill="none" stroke="#000000" stroke-width="1.23" />
  <path d="M 418.00 277.00 L 426.00 290.00 L 420.00 278.00" fill="none" stroke="#000000" stroke-width="1.23" />
  <path d="M 240.00 280.00 L 254.00 281.00 L 240.00 281.00" fill="none" stroke="#000000" stroke-width="1.23" />
  <path d="M 161.00 332.00 L 123.00 411.00 L 75.00 408.00 L 66.00 418.00 L 125.00 407.00 L 153.00 337.00" fill="none" stroke="#000000" stroke-width="1.23" />
  <path d="M 236.00 332.00 L 248.00 352.00 L 241.00 360.00 L 239.00 332.00" fill="none" stroke="#000000" stroke-width="1.23" />
  <path d="M 293.00 333.00 L 289.00 356.00 L 292.00 335.00" fill="none" stroke="#000000" stroke-width="1.23" />
  <path d="M 334.00 400.00 L 329.00 425.00 L 335.00 400.00" fill="none" stroke="#000000" stroke-width="1.23" />
  <path d="M 246.00 412.00 L 334.00 434.00 L 244.00 414.00" fill="none" stroke="#000000" stroke-width="1.23" />
  <path d="M 321.00 442.00 L 333.00 454.00 L 322.00 442.00" fill="none" stroke="#000000" stroke-width="1.23" />
  <path d="M 100.00 478.00 L 107.00 489.00 L 100.00 480.00" fill="none" stroke="#000000" stroke-width="1.23" />
  <path d="M 497.00 506.00 L 487.00 522.00 L 491.00 510.00" fill="none" stroke="#000000" stroke-width="1.23" />
  <path d="M 290.00 551.00 L 304.00 567.00 L 290.00 552.00" fill="none" stroke="#000000" stroke-width="1.23" />
  <path d="M 281.00 560.00 L 285.00 567.00 L 283.00 560.00 L 273.00 566.00" fill="none" stroke="#000000" stroke-width="1.23" />
  <path d="M 390.00 575.00 L 414.00 588.00 L 391.00 575.00" fill="none" stroke="#000000" stroke-width="1.23" />
  <path d="M 616.00 42.00 L 541.00 53.00 L 495.00 93.00" fill="none" stroke="#000000" stroke-width="1.23" />
  <path d="M 267.00 147.00 L 263.00 163.00 L 268.00 147.00" fill="none" stroke="#000000" stroke-width="1.23" />
  <path d="M 438.00 149.00 L 460.00 155.00 L 436.00 150.00 L 397.00 187.00" fill="none" stroke="#000000" stroke-width="1.23" />
  <path d="M 449.00 208.00 L 467.00 214.00 L 433.00 219.00" fill="none" stroke="#000000" stroke-width="1.23" />
  <path d="M 149.00 211.00 L 96.00 220.00" fill="none" stroke="#000000" stroke-width="1.23" />
  <path d="M 362.00 211.00 L 345.00 229.00 L 367.00 224.00 L 343.00 227.00" fill="none" stroke="#000000" stroke-width="1.23" />
  <path d="M 392.00 224.00 L 411.00 231.00 L 398.00 242.00 L 389.00 225.00 L 355.00 235.00 L 394.00 226.00" fill="none" stroke="#000000" stroke-width="1.23" />
  <path d="M 170.00 265.00 L 154.00 284.00 L 170.00 269.00" fill="none" stroke="#000000" stroke-width="1.23" />
  <path d="M 412.00 266.00 L 427.00 270.00 L 409.00 270.00" fill="none" stroke="#000000" stroke-width="1.23" />
  <path d="M 431.00 269.00 L 452.00 274.00 L 428.00 272.00" fill="none" stroke="#000000" stroke-width="1.23" />
  <path d="M 395.00 271.00 L 405.00 288.00 L 395.00 272.00" fill="none" stroke="#000000" stroke-width="1.23" />
  <path d="M 104.00 314.00 L 137.00 316.00 L 96.00 315.00 L 92.00 341.00 L 94.00 315.00" fill="none" stroke="#000000" stroke-width="1.23" />
  <path d="M 264.00 323.00 L 308.00 324.00 L 261.00 325.00 L 250.00 406.00 L 261.00 324.00" fill="none" stroke="#000000" stroke-width="1.23" />
  <path d="M 78.00 341.00 L 75.00 358.00 L 79.00 341.00" fill="none" stroke="#000000" stroke-width="1.23" />
  <path d="M 151.00 372.00 L 140.00 404.00 L 150.00 373.00" fill="none" stroke="#000000" stroke-width="1.23" />
  <path d="M 567.00 39.00 L 610.00 42.00 L 538.00 43.00 L 465.00 106.00 L 523.00 50.00" fill="none" stroke="#000000" stroke-width="1.23" />
  <path d="M 528.00 54.00 L 493.00 88.00" fill="none" stroke="#000000" stroke-width="1.23" />
  <path d="M 476.00 103.00 L 432.00 147.00" fill="none" stroke="#000000" stroke-width="1.23" />
  <path d="M 140.00 137.00 L 155.00 161.00 L 140.00 138.00" fill="none" stroke="#000000" stroke-width="1.23" />
  <path d="M 395.00 190.00 L 419.00 196.00 L 391.00 193.00" fill="none" stroke="#000000" stroke-width="1.23" />
  <path d="M 195.00 209.00 L 245.00 215.00 L 255.00 229.00 L 241.00 264.00 L 254.00 229.00 L 247.00 238.00 L 250.00 227.00 L 195.00 211.00" fill="none" stroke="#000000" stroke-width="1.23" />
  <path d="M 297.00 223.00 L 321.00 229.00 L 296.00 224.00" fill="none" stroke="#000000" stroke-width="1.23" />
  <path d="M 430.00 269.00 L 501.00 297.00 L 428.00 272.00" fill="none" stroke="#000000" stroke-width="1.23" />
  <path d="M 143.00 367.00 L 123.00 411.00 L 73.00 409.00 L 127.00 403.00 L 142.00 368.00" fill="none" stroke="#000000" stroke-width="1.23" />
  <path d="M 81.00 23.00 L 163.00 131.00 L 189.00 120.00 L 163.00 132.00 L 160.00 186.00 L 154.00 151.00 L 79.00 32.00 L 157.00 161.00 L 161.00 128.00 L 92.00 23.00 L 71.00 32.00" fill="none" stroke="#000000" stroke-width="1.23" />
  <path d="M 528.00 54.00 L 500.00 82.00" fill="none" stroke="#000000" stroke-width="1.23" />
  <path d="M 290.00 119.00 L 298.00 128.00 L 268.00 132.00" fill="none" stroke="#000000" stroke-width="1.23" />
  <path d="M 385.00 225.00 L 399.00 242.00 L 389.00 225.00 L 355.00 235.00" fill="none" stroke="#000000" stroke-width="1.23" />
  <path d="M 463.00 283.00 L 490.00 294.00 L 461.00 286.00" fill="none" stroke="#000000" stroke-width="1.23" />
  <path d="M 263.00 323.00 L 300.00 324.00 L 261.00 324.00" fill="none" stroke="#000000" stroke-width="1.23" />
  <path d="M 172.00 523.00 L 188.00 548.00 L 173.00 523.00" fill="none" stroke="#000000" stroke-width="1.23" />
  <path d="M 567.00 39.00 L 610.00 42.00 L 526.00 48.00 L 432.00 137.00 L 511.00 61.00" fill="none" stroke="#000000" stroke-width="1.23" />
  <path d="M 473.00 105.00 L 440.00 139.00" fill="none" stroke="#000000" stroke-width="1.23" />
  <path d="M 429.00 139.00 L 322.00 226.00 L 428.00 140.00" fill="none" stroke="#000000" stroke-width="1.23" />
  <path d="M 78.00 407.00 L 123.00 411.00 L 65.00 418.00" fill="none" stroke="#000000" stroke-width="1.23" />
  <path d="M 75.00 40.00 L 116.00 113.00 L 75.00 44.00" fill="none" stroke="#000000" stroke-width="1.23" />
  <path d="M 179.00 118.00 L 163.00 145.00 L 156.00 123.00 L 177.00 119.00" fill="none" stroke="#000000" stroke-width="1.23" />
  <path d="M 188.00 171.00 L 205.00 197.00 L 188.00 172.00" fill="none" stroke="#000000" stroke-width="1.23" />
  <path d="M 262.00 421.00 L 328.00 430.00" fill="none" stroke="#000000" stroke-width="1.23" />
  <path d="M 78.00 47.00 L 99.00 82.00 L 78.00 49.00" fill="none" stroke="#000000" stroke-width="1.23" />
  <path d="M 98.00 86.00 L 116.00 113.00 L 100.00 86.00" fill="none" stroke="#000000" stroke-width="1.23" />
  <path d="M 236.00 215.00 L 254.00 221.00 L 249.00 244.00 L 251.00 219.00 L 235.00 216.00" fill="none" stroke="#000000" stroke-width="1.23" />
  <path d="M 81.00 23.00 L 106.00 39.00 L 92.00 23.00 L 71.00 32.00" fill="none" stroke="#000000" stroke-width="1.23" />
  <path d="M 105.00 41.00 L 122.00 64.00 L 106.00 41.00" fill="none" stroke="#000000" stroke-width="1.23" />
  <path d="M 135.00 89.00 L 163.00 132.00 L 189.00 120.00 L 162.00 145.00 L 137.00 90.00" fill="none" stroke="#000000" stroke-width="1.23" />
  <path d="M 263.00 323.00 L 299.00 324.00 L 262.00 324.00 L 254.00 365.00 L 261.00 324.00" fill="none" stroke="#000000" stroke-width="1.23" />
  <path d="M 278.00 582.00 L 298.00 601.00 L 280.00 582.00" fill="none" stroke="#000000" stroke-width="1.23" />
  <path d="M 369.00 197.00 L 334.00 229.00 L 294.00 225.00" fill="none" stroke="#000000" stroke-width="1.23" />
  <path d="M 279.00 130.00 L 262.00 180.00 L 274.00 135.00" fill="none" stroke="#000000" stroke-width="1.23" />
  <path d="M 156.00 163.00 L 163.00 169.00 L 157.00 180.00 L 158.00 164.00" fill="none" stroke="#000000" stroke-width="1.23" />
  <path d="M 523.00 175.00 L 513.00 193.00 L 525.00 176.00" fill="none" stroke="#000000" stroke-width="1.23" />
  <path d="M 519.00 378.00 L 516.00 406.00 L 518.00 380.00" fill="none" stroke="#000000" stroke-width="1.23" />
  <path d="M 339.00 385.00 L 330.00 424.00 L 338.00 386.00" fill="none" stroke="#000000" stroke-width="1.23" />
  <path d="M 245.00 388.00 L 240.00 409.00 L 251.00 419.00 L 332.00 433.00 L 236.00 413.00 L 243.00 392.00 L 214.00 435.00 L 241.00 395.00" fill="none" stroke="#000000" stroke-width="1.23" />
  <path d="M 232.00 424.00 L 215.00 451.00 L 230.00 425.00" fill="none" stroke="#000000" stroke-width="1.23" />
</svg>