<svg width="1024" height="1536" viewBox="0 0 1024 1536" xmlns="http://www.w3.org/2000/svg" shape-rendering="geometricPrecision">
  <path d="M 665.00 117.00 L 604.00 186.00 L 556.00 270.00 L 557.00 283.00 L 562.00 259.00 L 626.00 160.00" fill="none" stroke="#000000" stroke-width="1.26" />
  <path d="M 672.00 126.00 L 706.00 213.00 L 714.00 290.00 L 678.00 371.00 L 706.00 476.00 L 666.00 530.00 L 664.00 576.00 L 686.00 627.00 L 664.00 577.00 L 666.00 529.00 L 705.00 476.00 L 678.00 370.00 L 713.00 290.00 L 706.00 217.00 L 673.00 126.00" fill="none" stroke="#000000" stroke-width="1.26" />
  <path d="M 335.00 128.00 L 328.00 143.00 L 358.00 292.00 L 380.00 328.00 L 358.00 293.00 L 329.00 137.00" fill="none" stroke="#000000" stroke-width="1.26" />
  <path d="M 336.00 133.00 L 393.00 198.00 L 431.00 272.00 L 388.00 192.00 L 339.00 138.00" fill="none" stroke="#000000" stroke-width="1.26" />
  <path d="M 676.00 137.00 L 698.00 223.00 L 707.00 301.00 L 676.00 138.00" fill="none" stroke="#000000" stroke-width="1.26" />
  <path d="M 347.00 156.00 L 354.00 162.00 L 348.00 156.00" fill="none" stroke="#000000" stroke-width="1.26" />
  <path d="M 658.00 156.00 L 680.00 197.00 L 682.00 221.00 L 661.00 156.00 L 622.00 213.00 L 651.00 165.00" fill="none" stroke="#000000" stroke-width="1.26" />
  <path d="M 343.00 161.00 L 382.00 203.00 L 401.00 244.00 L 380.00 200.00 L 351.00 169.00" fill="none" stroke="#000000" stroke-width="1.26" />
  <path d="M 342.00 163.00 L 359.00 225.00 L 342.00 167.00" fill="none" stroke="#000000" stroke-width="1.26" />
  <path d="M 611.00 188.00 L 561.00 281.00 L 610.00 189.00" fill="none" stroke="#000000" stroke-width="1.26" />
  <path d="M 436.00 203.00 L 444.00 211.00 L 436.00 204.00" fill="none" stroke="#000000" stroke-width="1.26" />
  <path d="M 446.00 212.00 L 484.00 254.00 L 447.00 214.00" fill="none" stroke="#000000" stroke-width="1.26" />
  <path d="M 622.00 216.00 L 634.00 297.00 L 623.00 216.00" fill="none" stroke="#000000" stroke-width="1.26" />
  <path d="M 651.00 216.00 L 654.00 221.00 L 650.00 217.00" fill="none" stroke="#000000" stroke-width="1.26" />
  <path d="M 682.00 226.00 L 683.00 262.00 L 683.00 226.00" fill="none" stroke="#000000" stroke-width="1.26" />
  <path d="M 357.00 227.00 L 379.00 286.00 L 401.00 246.00 L 377.00 287.00 L 358.00 227.00" fill="none" stroke="#000000" stroke-width="1.26" />
  <path d="M 506.00 252.00 L 515.00 255.00 L 506.00 253.00" fill="none" stroke="#000000" stroke-width="1.26" />
  <path d="M 522.00 253.00 L 525.00 259.00 L 523.00 253.00" fill="none" stroke="#000000" stroke-width="1.26" />
  <path d="M 527.00 253.00 L 529.00 259.00 L 528.00 253.00" fill="none" stroke="#000000" stroke-width="1.26" />
  <path d="M 461.00 259.00 L 435.00 272.00" fill="none" stroke="#000000" stroke-width="1.26" />
  <path d="M 683.00 264.00 L 682.00 277.00" fill="none" stroke="#000000" stroke-width="1.26" />
  <path d="M 431.00 274.00 L 382.00 326.00 L 404.00 295.00" fill="none" stroke="#000000" stroke-width="1.26" />
  <path d="M 660.00 275.00 L 683.00 300.00 L 702.00 302.00 L 681.00 302.00 L 652.00 358.00 L 681.00 298.00 L 661.00 277.00" fill="none" stroke="#000000" stroke-width="1.26" />
  <path d="M 621.00 277.00 L 604.00 290.00" fill="none" stroke="#000000" stroke-width="1.26" />
  <path d="M 426.00 283.00 L 401.00 321.00 L 421.00 383.00 L 400.00 321.00 L 376.00 348.00 L 390.00 394.00 L 376.00 346.00 L 423.00 288.00" fill="none" stroke="#000000" stroke-width="1.26" />
  <path d="M 557.00 285.00 L 600.00 297.00 L 632.00 323.00 L 650.00 363.00 L 664.00 375.00 L 674.00 373.00 L 652.00 367.00 L 626.00 318.00 L 598.00 295.00 L 558.00 285.00" fill="none" stroke="#000000" stroke-width="1.26" />
  <path d="M 555.00 289.00 L 507.00 340.00 L 477.00 390.00 L 517.00 327.00 L 511.00 323.00 L 551.00 293.00" fill="none" stroke="#000000" stroke-width="1.26" />
  <path d="M 378.00 293.00 L 387.00 311.00 L 379.00 293.00" fill="none" stroke="#000000" stroke-width="1.26" />
  <path d="M 576.00 297.00 L 637.00 343.00 L 598.00 312.00 L 562.00 351.00 L 595.00 310.00 L 576.00 298.00" fill="none" stroke="#000000" stroke-width="1.26" />
  <path d="M 633.00 299.00 L 636.00 322.00 L 634.00 299.00" fill="none" stroke="#000000" stroke-width="1.26" />
  <path d="M 700.00 311.00 L 677.00 342.00 L 654.00 363.00 L 696.00 315.00" fill="none" stroke="#000000" stroke-width="1.26" />
  <path d="M 377.00 331.00 L 351.00 363.00 L 360.00 391.00 L 351.00 362.00 L 376.00 332.00" fill="none" stroke="#000000" stroke-width="1.26" />
  <path d="M 50.00 343.00 L 48.00 398.00 L 49.00 345.00" fill="none" stroke="#000000" stroke-width="1.26" />
  <path d="M 52.00 344.00 L 183.00 731.00 L 52.00 349.00" fill="none" stroke="#000000" stroke-width="1.26" />
  <path d="M 380.00 348.00 L 412.00 393.00 L 381.00 348.00" fill="none" stroke="#000000" stroke-width="1.26" />
  <path d="M 558.00 353.00 L 560.00 372.00 L 556.00 355.00 L 474.00 394.00 L 460.00 411.00 L 469.00 399.00" fill="none" stroke="#000000" stroke-width="1.26" />
  <path d="M 62.00 361.00 L 123.00 439.00 L 199.00 695.00 L 122.00 439.00 L 62.00 362.00" fill="none" stroke="#000000" stroke-width="1.26" />
  <path d="M 356.00 367.00 L 378.00 389.00 L 357.00 370.00" fill="none" stroke="#000000" stroke-width="1.26" />
  <path d="M 663.00 377.00 L 674.00 391.00 L 677.00 383.00 L 670.00 388.00 L 664.00 377.00" fill="none" stroke="#000000" stroke-width="1.26" />
  <path d="M 580.00 384.00 L 597.00 404.00 L 581.00 386.00" fill="none" stroke="#000000" stroke-width="1.26" />
  <path d="M 421.00 385.00 L 409.00 417.00 L 418.00 388.00" fill="none" stroke="#000000" stroke-width="1.26" />
  <path d="M 448.00 386.00 L 458.00 431.00 L 449.00 386.00" fill="none" stroke="#000000" stroke-width="1.26" />
  <path d="M 446.00 387.00 L 435.00 420.00 L 445.00 388.00" fill="none" stroke="#000000" stroke-width="1.26" />
  <path d="M 581.00 388.00 L 560.00 400.00 L 544.00 443.00 L 526.00 452.00 L 544.00 441.00 L 559.00 411.00" fill="none" stroke="#000000" stroke-width="1.26" />
  <path d="M 365.00 389.00 L 366.00 418.00 L 378.00 443.00 L 370.00 435.00 L 364.00 391.00" fill="none" stroke="#000000" stroke-width="1.26" />
  <path d="M 561.00 391.00 L 550.00 396.00" fill="none" stroke="#000000" stroke-width="1.26" />
  <path d="M 359.00 393.00 L 353.00 437.00 L 360.00 462.00 L 388.00 442.00 L 360.00 464.00 L 353.00 438.00 L 358.00 399.00" fill="none" stroke="#000000" stroke-width="1.26" />
  <path d="M 371.00 393.00 L 371.00 416.00 L 384.00 441.00 L 371.00 417.00 L 370.00 394.00" fill="none" stroke="#000000" stroke-width="1.26" />
  <path d="M 373.00 395.00 L 382.00 402.00 L 389.00 437.00 L 372.00 396.00" fill="none" stroke="#000000" stroke-width="1.26" />
  <path d="M 387.00 396.00 L 401.00 409.00 L 388.00 396.00" fill="none" stroke="#000000" stroke-width="1.26" />
  <path d="M 550.00 398.00 L 525.00 406.00 L 523.00 414.00 L 522.00 406.00" fill="none" stroke="#000000" stroke-width="1.26" />
  <path d="M 47.00 401.00 L 46.00 484.00 L 146.00 731.00 L 46.00 485.00 L 48.00 401.00" fill="none" stroke="#000000" stroke-width="1.26" />
  <path d="M 385.00 402.00 L 395.00 414.00 L 385.00 405.00" fill="none" stroke="#000000" stroke-width="1.26" />
  <path d="M 552.00 407.00 L 525.00 420.00 L 510.00 445.00 L 497.00 444.00 L 489.00 424.00 L 478.00 427.00 L 519.00 435.00 L 524.00 420.00" fill="none" stroke="#000000" stroke-width="1.26" />
  <path d="M 552.00 412.00 L 534.00 444.00 L 551.00 415.00" fill="none" stroke="#000000" stroke-width="1.26" />
  <path d="M 598.00 416.00 L 592.00 425.00" fill="none" stroke="#000000" stroke-width="1.26" />
  <path d="M 413.00 423.00 L 389.00 440.00" fill="none" stroke="#000000" stroke-width="1.26" />
  <path d="M 416.00 424.00 L 469.00 451.00 L 523.00 453.00 L 455.00 443.00 L 416.00 425.00" fill="none" stroke="#000000" stroke-width="1.26" />
  <path d="M 477.00 431.00 L 485.00 445.00 L 478.00 431.00" fill="none" stroke="#000000" stroke-width="1.26" />
  <path d="M 464.00 432.00 L 474.00 440.00 L 464.00 433.00" fill="none" stroke="#000000" stroke-width="1.26" />
  <path d="M 441.00 437.00 L 415.00 465.00" fill="none" stroke="#000000" stroke-width="1.26" />
  <path d="M 543.00 448.00 L 564.00 468.00 L 543.00 449.00" fill="none" stroke="#000000" stroke-width="1.26" />
  <path d="M 659.00 450.00 L 686.00 489.00 L 660.00 455.00" fill="none" stroke="#000000" stroke-width="1.26" />
  <path d="M 446.00 452.00 L 492.00 487.00 L 448.00 452.00 L 400.00 481.00" fill="none" stroke="#000000" stroke-width="1.26" />
  <path d="M 473.00 453.00 L 496.00 484.00 L 479.00 456.00" fill="none" stroke="#000000" stroke-width="1.26" />
  <path d="M 85.00 455.00 L 54.00 487.00" fill="none" stroke="#000000" stroke-width="1.26" />
  <path d="M 502.00 463.00 L 508.00 467.00 L 502.00 464.00" fill="none" stroke="#000000" stroke-width="1.26" />
  <path d="M 359.00 467.00 L 341.00 483.00" fill="none" stroke="#000000" stroke-width="1.26" />
  <path d="M 565.00 475.00 L 541.00 518.00 L 559.00 483.00" fill="none" stroke="#000000" stroke-width="1.26" />
  <path d="M 369.00 481.00 L 375.00 485.00 L 367.00 482.00" fill="none" stroke="#000000" stroke-width="1.26" />
  <path d="M 699.00 483.00 L 688.00 492.00" fill="none" stroke="#000000" stroke-width="1.26" />
  <path d="M 396.00 485.00 L 408.00 508.00 L 387.00 536.00 L 393.00 541.00 L 387.00 535.00 L 363.00 551.00 L 337.00 537.00 L 319.00 503.00 L 399.00 519.00 L 406.00 506.00 L 396.00 486.00" fill="none" stroke="#000000" stroke-width="1.26" />
  <path d="M 495.00 486.00 L 537.00 536.00 L 496.00 486.00" fill="none" stroke="#000000" stroke-width="1.26" />
  <path d="M 388.00 496.00 L 376.00 507.00" fill="none" stroke="#000000" stroke-width="1.26" />
  <path d="M 791.00 498.00 L 781.00 506.00" fill="none" stroke="#000000" stroke-width="1.26" />
  <path d="M 799.00 498.00 L 815.00 514.00 L 797.00 499.00" fill="none" stroke="#000000" stroke-width="1.26" />
  <path d="M 825.00 499.00 L 867.00 505.00 L 918.00 556.00 L 868.00 507.00 L 830.00 499.00" fill="none" stroke="#000000" stroke-width="1.26" />
  <path d="M 627.00 500.00 L 637.00 507.00" fill="none" stroke="#000000" stroke-width="1.26" />
  <path d="M 796.00 501.00 L 770.00 544.00 L 791.00 506.00" fill="none" stroke="#000000" stroke-width="1.26" />
  <path d="M 425.00 505.00 L 432.00 516.00 L 425.00 506.00" fill="none" stroke="#000000" stroke-width="1.26" />
  <path d="M 378.00 515.00 L 386.00 530.00 L 379.00 515.00" fill="none" stroke="#000000" stroke-width="1.26" />
  <path d="M 817.00 515.00 L 836.00 536.00 L 817.00 516.00" fill="none" stroke="#000000" stroke-width="1.26" />
  <path d="M 762.00 517.00 L 753.00 523.00" fill="none" stroke="#000000" stroke-width="1.26" />
  <path d="M 746.00 527.00 L 722.00 597.00 L 741.00 535.00" fill="none" stroke="#000000" stroke-width="1.26" />
  <path d="M 622.00 529.00 L 608.00 540.00" fill="none" stroke="#000000" stroke-width="1.26" />
  <path d="M 746.00 533.00 L 755.00 543.00 L 746.00 535.00" fill="none" stroke="#000000" stroke-width="1.26" />
  <path d="M 537.00 538.00 L 518.00 565.00 L 534.00 541.00" fill="none" stroke="#000000" stroke-width="1.26" />
  <path d="M 863.00 538.00 L 866.00 544.00 L 864.00 538.00" fill="none" stroke="#000000" stroke-width="1.26" />
  <path d="M 868.00 539.00 L 876.00 546.00 L 871.00 539.00" fill="none" stroke="#000000" stroke-width="1.26" />
  <path d="M 540.00 541.00 L 566.00 563.00 L 541.00 541.00" fill="none" stroke="#000000" stroke-width="1.26" />
  <path d="M 606.00 541.00 L 598.00 548.00" fill="none" stroke="#000000" stroke-width="1.26" />
  <path d="M 661.00 541.00 L 632.00 565.00" fill="none" stroke="#000000" stroke-width="1.26" />
  <path d="M 832.00 544.00 L 810.00 566.00" fill="none" stroke="#000000" stroke-width="1.26" />
  <path d="M 887.00 544.00 L 920.00 585.00 L 932.00 641.00 L 919.00 585.00 L 889.00 547.00" fill="none" stroke="#000000" stroke-width="1.26" />
  <path d="M 320.00 545.00 L 338.00 574.00 L 351.00 576.00 L 372.00 598.00 L 410.00 604.00 L 370.00 596.00 L 353.00 577.00 L 340.00 577.00 L 320.00 547.00" fill="none" stroke="#000000" stroke-width="1.26" />
  <path d="M 595.00 549.00 L 575.00 565.00" fill="none" stroke="#000000" stroke-width="1.26" />
  <path d="M 764.00 550.00 L 748.00 569.00" fill="none" stroke="#000000" stroke-width="1.26" />
  <path d="M 364.00 554.00 L 370.00 562.00 L 365.00 554.00" fill="none" stroke="#000000" stroke-width="1.26" />
  <path d="M 412.00 556.00 L 422.00 564.00" fill="none" stroke="#000000" stroke-width="1.26" />
  <path d="M 515.00 557.00 L 516.00 564.00 L 516.00 557.00" fill="none" stroke="#000000" stroke-width="1.26" />
  <path d="M 777.00 557.00 L 799.00 580.00 L 808.00 628.00 L 798.00 580.00 L 777.00 558.00" fill="none" stroke="#000000" stroke-width="1.26" />
  <path d="M 489.00 559.00 L 514.00 559.00 L 486.00 560.00 L 426.00 587.00 L 370.00 568.00 L 354.00 573.00" fill="none" stroke="#000000" stroke-width="1.26" />
  <path d="M 594.00 564.00 L 566.00 618.00 L 598.00 564.00 L 574.00 569.00" fill="none" stroke="#000000" stroke-width="1.26" />
  <path d="M 629.00 566.00 L 581.00 612.00 L 458.00 703.00 L 458.00 696.00 L 621.00 574.00" fill="none" stroke="#000000" stroke-width="1.26" />
  <path d="M 746.00 570.00 L 731.00 586.00" fill="none" stroke="#000000" stroke-width="1.26" />
  <path d="M 631.00 571.00 L 618.00 620.00 L 630.00 572.00" fill="none" stroke="#000000" stroke-width="1.26" />
  <path d="M 566.00 572.00 L 552.00 625.00 L 564.00 573.00 L 480.00 625.00" fill="none" stroke="#000000" stroke-width="1.26" />
  <path d="M 861.00 573.00 L 865.00 581.00 L 860.00 576.00" fill="none" stroke="#000000" stroke-width="1.26" />
  <path d="M 836.00 578.00 L 826.00 612.00 L 843.00 643.00 L 825.00 611.00 L 833.00 582.00" fill="none" stroke="#000000" stroke-width="1.26" />
  <path d="M 795.00 582.00 L 773.00 614.00 L 791.00 586.00" fill="none" stroke="#000000" stroke-width="1.26" />
  <path d="M 162.00 585.00 L 151.00 622.00 L 162.00 587.00" fill="none" stroke="#000000" stroke-width="1.26" />
  <path d="M 853.00 586.00 L 835.00 602.00" fill="none" stroke="#000000" stroke-width="1.26" />
  <path d="M 453.00 595.00 L 473.00 631.00 L 472.00 649.00 L 458.00 604.00 L 483.00 611.00 L 454.00 595.00" fill="none" stroke="#000000" stroke-width="1.26" />
  <path d="M 721.00 599.00 L 754.00 661.00 L 799.00 672.00 L 839.00 652.00 L 799.00 671.00 L 752.00 660.00 L 722.00 599.00" fill="none" stroke="#000000" stroke-width="1.26" />
  <path d="M 415.00 600.00 L 418.00 606.00 L 416.00 600.00" fill="none" stroke="#000000" stroke-width="1.26" />
  <path d="M 436.00 601.00 L 444.00 640.00 L 436.00 602.00" fill="none" stroke="#000000" stroke-width="1.26" />
  <path d="M 413.00 604.00 L 396.00 632.00 L 410.00 607.00" fill="none" stroke="#000000" stroke-width="1.26" />
  <path d="M 900.00 604.00 L 909.00 657.00 L 898.00 704.00 L 868.00 693.00 L 899.00 697.00 L 908.00 655.00 L 902.00 607.00" fill="none" stroke="#000000" stroke-width="1.26" />
  <path d="M 417.00 610.00 L 423.00 648.00 L 454.00 696.00 L 424.00 652.00 L 418.00 610.00" fill="none" stroke="#000000" stroke-width="1.26" />
  <path d="M 859.00 612.00 L 862.00 618.00 L 860.00 612.00" fill="none" stroke="#000000" stroke-width="1.26" />
  <path d="M 823.00 613.00 L 830.00 633.00 L 821.00 621.00" fill="none" stroke="#000000" stroke-width="1.26" />
  <path d="M 876.00 614.00 L 904.00 649.00 L 877.00 618.00" fill="none" stroke="#000000" stroke-width="1.26" />
  <path d="M 824.00 616.00 L 830.00 630.00 L 824.00 618.00" fill="none" stroke="#000000" stroke-width="1.26" />
  <path d="M 413.00 618.00 L 414.00 661.00 L 414.00 618.00" fill="none" stroke="#000000" stroke-width="1.26" />
  <path d="M 767.00 618.00 L 803.00 666.00 L 767.00 620.00" fill="none" stroke="#000000" stroke-width="1.26" />
  <path d="M 561.00 630.00 L 527.00 689.00 L 556.00 636.00" fill="none" stroke="#000000" stroke-width="1.26" />
  <path d="M 679.00 631.00 L 665.00 646.00" fill="none" stroke="#000000" stroke-width="1.26" />
  <path d="M 807.00 634.00 L 813.00 641.00 L 807.00 635.00" fill="none" stroke="#000000" stroke-width="1.26" />
  <path d="M 602.00 637.00 L 593.00 644.00" fill="none" stroke="#000000" stroke-width="1.26" />
  <path d="M 682.00 637.00 L 544.00 751.00" fill="none" stroke="#000000" stroke-width="1.26" />
  <path d="M 939.00 642.00 L 925.00 706.00 L 891.00 757.00 L 861.00 783.00 L 899.00 863.00 L 848.00 762.00 L 894.00 750.00 L 926.00 698.00 L 940.00 642.00" fill="none" stroke="#000000" stroke-width="1.26" />
  <path d="M 375.00 646.00 L 312.00 761.00 L 365.00 657.00" fill="none" stroke="#000000" stroke-width="1.26" />
  <path d="M 842.00 649.00 L 842.00 661.00" fill="none" stroke="#000000" stroke-width="1.26" />
  <path d="M 472.00 651.00 L 461.00 687.00 L 471.00 653.00" fill="none" stroke="#000000" stroke-width="1.26" />
  <path d="M 138.00 654.00 L 132.00 664.00" fill="none" stroke="#000000" stroke-width="1.26" />
  <path d="M 578.00 654.00 L 567.00 662.00" fill="none" stroke="#000000" stroke-width="1.26" />
  <path d="M 655.00 654.00 L 635.00 671.00" fill="none" stroke="#000000" stroke-width="1.26" />
  <path d="M 425.00 660.00 L 436.00 715.00 L 456.00 760.00 L 441.00 733.00 L 425.00 664.00" fill="none" stroke="#000000" stroke-width="1.26" />
  <path d="M 739.00 662.00 L 748.00 671.00" fill="none" stroke="#000000" stroke-width="1.26" />
  <path d="M 413.00 663.00 L 405.00 677.00" fill="none" stroke="#000000" stroke-width="1.26" />
  <path d="M 633.00 672.00 L 615.00 687.00" fill="none" stroke="#000000" stroke-width="1.26" />
  <path d="M 750.00 672.00 L 806.00 723.00" fill="none" stroke="#000000" stroke-width="1.26" />
  <path d="M 548.00 675.00 L 539.00 682.00" fill="none" stroke="#000000" stroke-width="1.26" />
  <path d="M 403.00 678.00 L 385.00 696.00" fill="none" stroke="#000000" stroke-width="1.26" />
  <path d="M 844.00 682.00 L 824.00 738.00 L 843.00 684.00" fill="none" stroke="#000000" stroke-width="1.26" />
  <path d="M 694.00 686.00 L 634.00 755.00 L 595.00 822.00 L 663.00 719.00" fill="none" stroke="#000000" stroke-width="1.26" />
  <path d="M 383.00 687.00 L 395.00 736.00 L 382.00 690.00" fill="none" stroke="#000000" stroke-width="1.26" />
  <path d="M 257.00 691.00 L 266.00 724.00 L 258.00 691.00" fill="none" stroke="#000000" stroke-width="1.26" />
  <path d="M 865.00 691.00 L 829.00 739.00 L 864.00 692.00" fill="none" stroke="#000000" stroke-width="1.26" />
  <path d="M 369.00 692.00 L 322.00 756.00 L 367.00 699.00" fill="none" stroke="#000000" stroke-width="1.26" />
  <path d="M 248.00 695.00 L 211.00 724.00" fill="none" stroke="#000000" stroke-width="1.26" />
  <path d="M 519.00 695.00 L 477.00 739.00" fill="none" stroke="#000000" stroke-width="1.26" />
  <path d="M 602.00 697.00 L 591.00 706.00" fill="none" stroke="#000000" stroke-width="1.26" />
  <path d="M 245.00 702.00 L 232.00 713.00" fill="none" stroke="#000000" stroke-width="1.26" />
  <path d="M 456.00 704.00 L 452.00 744.00 L 455.00 707.00" fill="none" stroke="#000000" stroke-width="1.26" />
  <path d="M 719.00 717.00 L 747.00 746.00 L 719.00 718.00" fill="none" stroke="#000000" stroke-width="1.26" />
  <path d="M 221.00 721.00 L 211.00 729.00" fill="none" stroke="#000000" stroke-width="1.26" />
  <path d="M 566.00 725.00 L 539.00 750.00" fill="none" stroke="#000000" stroke-width="1.26" />
  <path d="M 266.00 726.00 L 222.00 759.00" fill="none" stroke="#000000" stroke-width="1.26" />
  <path d="M 201.00 731.00 L 184.00 744.00" fill="none" stroke="#000000" stroke-width="1.26" />
  <path d="M 431.00 732.00 L 456.00 783.00 L 449.00 772.00 L 430.00 806.00 L 448.00 770.00 L 432.00 732.00" fill="none" stroke="#000000" stroke-width="1.26" />
  <path d="M 186.00 733.00 L 109.00 764.00" fill="none" stroke="#000000" stroke-width="1.26" />
  <path d="M 142.00 737.00 L 133.00 744.00" fill="none" stroke="#000000" stroke-width="1.26" />
  <path d="M 825.00 741.00 L 846.00 760.00 L 825.00 742.00" fill="none" stroke="#000000" stroke-width="1.26" />
  <path d="M 663.00 742.00 L 690.00 796.00 L 664.00 742.00" fill="none" stroke="#000000" stroke-width="1.26" />
  <path d="M 179.00 747.00 L 147.00 771.00" fill="none" stroke="#000000" stroke-width="1.26" />
  <path d="M 537.00 751.00 L 520.00 767.00" fill="none" stroke="#000000" stroke-width="1.26" />
  <path d="M 694.00 751.00 L 707.00 759.00 L 694.00 752.00" fill="none" stroke="#000000" stroke-width="1.26" />
  <path d="M 542.00 753.00 L 495.00 799.00" fill="none" stroke="#000000" stroke-width="1.26" />
  <path d="M 758.00 756.00 L 774.00 773.00 L 758.00 757.00" fill="none" stroke="#000000" stroke-width="1.26" />
  <path d="M 217.00 758.00 L 209.00 766.00" fill="none" stroke="#000000" stroke-width="1.26" />
  <path d="M 811.00 763.00 L 782.00 772.00" fill="none" stroke="#000000" stroke-width="1.26" />
  <path d="M 102.00 765.00 L 98.00 772.00 L 111.00 801.00 L 145.00 810.00 L 111.00 802.00 L 98.00 770.00" fill="none" stroke="#000000" stroke-width="1.26" />
  <path d="M 844.00 766.00 L 824.00 782.00" fill="none" stroke="#000000" stroke-width="1.26" />
  <path d="M 206.00 768.00 L 196.00 776.00" fill="none" stroke="#000000" stroke-width="1.26" />
  <path d="M 518.00 769.00 L 502.00 785.00" fill="none" stroke="#000000" stroke-width="1.26" />
  <path d="M 231.00 773.00 L 184.00 812.00 L 191.00 851.00 L 184.00 811.00 L 147.00 808.00 L 210.00 792.00 L 214.00 782.00" fill="none" stroke="#000000" stroke-width="1.26" />
  <path d="M 255.00 775.00 L 238.00 806.00 L 254.00 778.00" fill="none" stroke="#000000" stroke-width="1.26" />
  <path d="M 142.00 776.00 L 152.00 804.00 L 143.00 776.00" fill="none" stroke="#000000" stroke-width="1.26" />
  <path d="M 249.00 776.00 L 236.00 784.00 L 227.00 809.00 L 235.00 786.00" fill="none" stroke="#000000" stroke-width="1.26" />
  <path d="M 773.00 777.00 L 767.00 789.00" fill="none" stroke="#000000" stroke-width="1.26" />
  <path d="M 776.00 779.00 L 799.00 862.00 L 775.00 781.00" fill="none" stroke="#000000" stroke-width="1.26" />
  <path d="M 193.00 782.00 L 200.00 797.00 L 193.00 784.00" fill="none" stroke="#000000" stroke-width="1.26" />
  <path d="M 300.00 786.00 L 292.00 792.00" fill="none" stroke="#000000" stroke-width="1.26" />
  <path d="M 500.00 787.00 L 447.00 874.00 L 487.00 801.00" fill="none" stroke="#000000" stroke-width="1.26" />
  <path d="M 818.00 787.00 L 802.00 796.00" fill="none" stroke="#000000" stroke-width="1.26" />
  <path d="M 264.00 789.00 L 279.00 835.00 L 264.00 792.00" fill="none" stroke="#000000" stroke-width="1.26" />
  <path d="M 269.00 797.00 L 307.00 826.00 L 313.00 864.00 L 306.00 826.00 L 288.00 805.00 L 269.00 798.00" fill="none" stroke="#000000" stroke-width="1.26" />
  <path d="M 388.00 800.00 L 397.00 826.00 L 388.00 802.00" fill="none" stroke="#000000" stroke-width="1.26" />
  <path d="M 209.00 803.00 L 215.00 853.00 L 207.00 854.00 L 208.00 804.00" fill="none" stroke="#000000" stroke-width="1.26" />
  <path d="M 691.00 803.00 L 744.00 833.00 L 759.00 893.00 L 783.00 918.00 L 818.00 919.00 L 804.00 920.00 L 760.00 896.00 L 743.00 831.00 L 689.00 804.00 L 676.00 835.00 L 687.00 807.00" fill="none" stroke="#000000" stroke-width="1.26" />
  <path d="M 213.00 810.00 L 219.00 812.00 L 213.00 812.00" fill="none" stroke="#000000" stroke-width="1.26" />
  <path d="M 224.00 811.00 L 236.00 860.00 L 211.00 872.00 L 203.00 848.00 L 195.00 852.00 L 207.00 893.00 L 194.00 857.00 L 229.00 840.00 L 225.00 811.00" fill="none" stroke="#000000" stroke-width="1.26" />
  <path d="M 144.00 812.00 L 141.00 838.00 L 164.00 887.00 L 184.00 912.00 L 209.00 924.00 L 182.00 911.00 L 163.00 886.00 L 141.00 839.00 L 143.00 814.00" fill="none" stroke="#000000" stroke-width="1.26" />
  <path d="M 251.00 813.00 L 241.00 842.00 L 249.00 816.00" fill="none" stroke="#000000" stroke-width="1.26" />
  <path d="M 546.00 816.00 L 552.00 820.00 L 545.00 817.00" fill="none" stroke="#000000" stroke-width="1.26" />
  <path d="M 260.00 823.00 L 261.00 836.00 L 259.00 824.00" fill="none" stroke="#000000" stroke-width="1.26" />
  <path d="M 589.00 830.00 L 607.00 868.00 L 589.00 831.00" fill="none" stroke="#000000" stroke-width="1.26" />
  <path d="M 638.00 833.00 L 655.00 847.00 L 651.00 852.00 L 653.00 844.00 L 639.00 833.00" fill="none" stroke="#000000" stroke-width="1.26" />
  <path d="M 399.00 837.00 L 408.00 856.00 L 397.00 838.00 L 373.00 870.00 L 302.00 911.00 L 259.00 889.00 L 373.00 868.00 L 391.00 845.00" fill="none" stroke="#000000" stroke-width="1.26" />
  <path d="M 676.00 837.00 L 680.00 849.00 L 669.00 859.00 L 677.00 837.00" fill="none" stroke="#000000" stroke-width="1.26" />
  <path d="M 262.00 838.00 L 262.00 850.00 L 261.00 839.00" fill="none" stroke="#000000" stroke-width="1.26" />
  <path d="M 838.00 840.00 L 847.00 848.00 L 839.00 840.00" fill="none" stroke="#000000" stroke-width="1.26" />
  <path d="M 244.00 842.00 L 257.00 886.00 L 244.00 845.00" fill="none" stroke="#000000" stroke-width="1.26" />
  <path d="M 276.00 846.00 L 261.00 882.00 L 275.00 847.00" fill="none" stroke="#000000" stroke-width="1.26" />
  <path d="M 238.00 851.00 L 239.00 863.00 L 237.00 852.00" fill="none" stroke="#000000" stroke-width="1.26" />
  <path d="M 158.00 854.00 L 192.00 859.00 L 156.00 855.00" fill="none" stroke="#000000" stroke-width="1.26" />
  <path d="M 641.00 856.00 L 628.00 863.00" fill="none" stroke="#000000" stroke-width="1.26" />
  <path d="M 836.00 856.00 L 864.00 864.00 L 876.00 887.00 L 868.00 873.00 L 831.00 868.00 L 808.00 883.00 L 818.00 916.00 L 808.00 881.00 L 868.00 867.00 L 837.00 856.00 L 799.00 874.00 L 793.00 885.00 L 803.00 911.00 L 791.00 882.00" fill="none" stroke="#000000" stroke-width="1.26" />
  <path d="M 407.00 861.00 L 414.00 895.00 L 408.00 861.00" fill="none" stroke="#000000" stroke-width="1.26" />
  <path d="M 668.00 861.00 L 671.00 872.00 L 669.00 861.00" fill="none" stroke="#000000" stroke-width="1.26" />
  <path d="M 238.00 865.00 L 241.00 894.00 L 233.00 872.00 L 226.00 879.00" fill="none" stroke="#000000" stroke-width="1.26" />
  <path d="M 664.00 866.00 L 647.00 877.00" fill="none" stroke="#000000" stroke-width="1.26" />
  <path d="M 670.00 874.00 L 670.00 899.00 L 723.00 975.00 L 717.00 988.00 L 722.00 975.00 L 670.00 900.00" fill="none" stroke="#000000" stroke-width="1.26" />
  <path d="M 418.00 875.00 L 459.00 889.00 L 418.00 876.00" fill="none" stroke="#000000" stroke-width="1.26" />
  <path d="M 234.00 877.00 L 210.00 896.00" fill="none" stroke="#000000" stroke-width="1.26" />
  <path d="M 642.00 878.00 L 594.00 893.00" fill="none" stroke="#000000" stroke-width="1.26" />
  <path d="M 224.00 880.00 L 216.00 887.00" fill="none" stroke="#000000" stroke-width="1.26" />
  <path d="M 839.00 881.00 L 849.00 921.00 L 822.00 920.00 L 850.00 917.00 L 840.00 881.00" fill="none" stroke="#000000" stroke-width="1.26" />
  <path d="M 644.00 883.00 L 647.00 906.00 L 643.00 884.00" fill="none" stroke="#000000" stroke-width="1.26" />
  <path d="M 466.00 888.00 L 488.00 889.00 L 465.00 889.00" fill="none" stroke="#000000" stroke-width="1.26" />
  <path d="M 592.00 889.00 L 518.00 901.00 L 499.00 892.00 L 456.00 898.00" fill="none" stroke="#000000" stroke-width="1.26" />
  <path d="M 877.00 894.00 L 908.00 1008.00 L 877.00 896.00" fill="none" stroke="#000000" stroke-width="1.26" />
  <path d="M 241.00 896.00 L 219.00 918.00" fill="none" stroke="#000000" stroke-width="1.26" />
  <path d="M 595.00 897.00 L 600.00 911.00 L 596.00 897.00" fill="none" stroke="#000000" stroke-width="1.26" />
  <path d="M 209.00 898.00 L 217.00 914.00 L 210.00 898.00" fill="none" stroke="#000000" stroke-width="1.26" />
  <path d="M 507.00 898.00 L 493.00 920.00" fill="none" stroke="#000000" stroke-width="1.26" />
  <path d="M 258.00 901.00 L 236.00 917.00 L 238.00 905.00 L 234.00 918.00 L 212.00 933.00 L 215.00 925.00" fill="none" stroke="#000000" stroke-width="1.26" />
  <path d="M 264.00 901.00 L 272.00 925.00 L 264.00 902.00" fill="none" stroke="#000000" stroke-width="1.26" />
  <path d="M 666.00 902.00 L 653.00 915.00" fill="none" stroke="#000000" stroke-width="1.26" />
  <path d="M 508.00 908.00 L 504.00 946.00 L 507.00 909.00" fill="none" stroke="#000000" stroke-width="1.26" />
  <path d="M 517.00 909.00 L 557.00 942.00 L 601.00 1002.00 L 598.00 1009.00 L 596.00 996.00 L 543.00 927.00 L 518.00 909.00 L 511.00 912.00" fill="none" stroke="#000000" stroke-width="1.26" />
  <path d="M 251.00 912.00 L 243.00 918.00" fill="none" stroke="#000000" stroke-width="1.26" />
  <path d="M 599.00 913.00 L 603.00 924.00 L 600.00 913.00" fill="none" stroke="#000000" stroke-width="1.26" />
  <path d="M 659.00 916.00 L 568.00 950.00" fill="none" stroke="#000000" stroke-width="1.26" />
  <path d="M 521.00 921.00 L 585.00 1009.00 L 524.00 923.00" fill="none" stroke="#000000" stroke-width="1.26" />
  <path d="M 444.00 922.00 L 399.00 1019.00 L 444.00 923.00" fill="none" stroke="#000000" stroke-width="1.26" />
  <path d="M 208.00 926.00 L 213.00 948.00 L 235.00 956.00 L 271.00 930.00 L 235.00 955.00 L 215.00 951.00 L 207.00 928.00" fill="none" stroke="#000000" stroke-width="1.26" />
  <path d="M 647.00 929.00 L 648.00 952.00 L 689.00 999.00 L 705.00 995.00 L 710.00 1007.00 L 710.00 996.00 L 687.00 997.00 L 647.00 951.00" fill="none" stroke="#000000" stroke-width="1.26" />
  <path d="M 662.00 930.00 L 710.00 981.00 L 663.00 930.00" fill="none" stroke="#000000" stroke-width="1.26" />
  <path d="M 649.00 931.00 L 696.00 994.00 L 650.00 935.00" fill="none" stroke="#000000" stroke-width="1.26" />
  <path d="M 767.00 935.00 L 741.00 992.00 L 763.00 941.00" fill="none" stroke="#000000" stroke-width="1.26" />
  <path d="M 466.00 937.00 L 473.00 944.00 L 467.00 937.00" fill="none" stroke="#000000" stroke-width="1.26" />
  <path d="M 768.00 940.00 L 830.00 1008.00 L 768.00 942.00" fill="none" stroke="#000000" stroke-width="1.26" />
  <path d="M 513.00 945.00 L 557.00 1038.00 L 514.00 951.00" fill="none" stroke="#000000" stroke-width="1.26" />
  <path d="M 482.00 946.00 L 489.00 950.00 L 481.00 947.00" fill="none" stroke="#000000" stroke-width="1.26" />
  <path d="M 822.00 953.00 L 826.00 997.00 L 823.00 953.00" fill="none" stroke="#000000" stroke-width="1.26" />
  <path d="M 350.00 956.00 L 345.00 967.00 L 344.00 960.00" fill="none" stroke="#000000" stroke-width="1.26" />
  <path d="M 460.00 961.00 L 445.00 1012.00 L 459.00 962.00" fill="none" stroke="#000000" stroke-width="1.26" />
  <path d="M 349.00 967.00 L 385.00 991.00 L 349.00 968.00" fill="none" stroke="#000000" stroke-width="1.26" />
  <path d="M 778.00 968.00 L 767.00 987.00 L 776.00 970.00" fill="none" stroke="#000000" stroke-width="1.26" />
  <path d="M 781.00 968.00 L 767.00 997.00 L 774.00 1003.00 L 785.00 993.00 L 773.00 1002.00 L 765.00 998.00 L 772.00 1008.00 L 767.00 993.00 L 781.00 969.00" fill="none" stroke="#000000" stroke-width="1.26" />
  <path d="M 344.00 969.00 L 334.00 978.00" fill="none" stroke="#000000" stroke-width="1.26" />
  <path d="M 786.00 982.00 L 792.00 990.00 L 787.00 982.00" fill="none" stroke="#000000" stroke-width="1.26" />
  <path d="M 478.00 983.00 L 488.00 991.00 L 478.00 984.00 L 464.00 996.00" fill="none" stroke="#000000" stroke-width="1.26" />
  <path d="M 717.00 990.00 L 784.00 1110.00 L 800.00 1124.00 L 784.00 1111.00 L 718.00 990.00" fill="none" stroke="#000000" stroke-width="1.26" />
  <path d="M 489.00 993.00 L 508.00 1011.00 L 490.00 993.00" fill="none" stroke="#000000" stroke-width="1.26" />
  <path d="M 740.00 994.00 L 771.00 1026.00 L 774.00 1040.00 L 811.00 1059.00 L 871.00 1054.00 L 908.00 1013.00 L 875.00 1051.00 L 794.00 1054.00 L 772.00 1038.00 L 769.00 1023.00 L 741.00 994.00" fill="none" stroke="#000000" stroke-width="1.26" />
  <path d="M 798.00 994.00 L 803.00 1003.00 L 796.00 1024.00 L 788.00 1003.00 L 774.00 1022.00 L 786.00 1004.00 L 797.00 1015.00 L 798.00 995.00" fill="none" stroke="#000000" stroke-width="1.26" />
  <path d="M 307.00 997.00 L 296.00 1007.00" fill="none" stroke="#000000" stroke-width="1.26" />
  <path d="M 339.00 998.00 L 378.00 1025.00 L 383.00 1043.00 L 377.00 1023.00 L 340.00 1000.00" fill="none" stroke="#000000" stroke-width="1.26" />
  <path d="M 761.00 998.00 L 768.00 1006.00" fill="none" stroke="#000000" stroke-width="1.26" />
  <path d="M 843.00 1006.00 L 849.00 1009.00 L 843.00 1014.00 L 842.00 1008.00" fill="none" stroke="#000000" stroke-width="1.26" />
  <path d="M 866.00 1006.00 L 878.00 1022.00 L 868.00 1006.00 L 862.00 1011.00" fill="none" stroke="#000000" stroke-width="1.26" />
  <path d="M 824.00 1008.00 L 817.00 1018.00 L 822.00 1025.00 L 815.00 1020.00 L 799.00 1051.00 L 814.00 1022.00" fill="none" stroke="#000000" stroke-width="1.26" />
  <path d="M 579.00 1009.00 L 565.00 1025.00" fill="none" stroke="#000000" stroke-width="1.26" />
  <path d="M 643.00 1009.00 L 632.00 1015.00" fill="none" stroke="#000000" stroke-width="1.26" />
  <path d="M 901.00 1009.00 L 899.00 1015.00 L 902.00 1009.00" fill="none" stroke="#000000" stroke-width="1.26" />
  <path d="M 509.00 1013.00 L 526.00 1029.00 L 510.00 1013.00" fill="none" stroke="#000000" stroke-width="1.26" />
  <path d="M 859.00 1013.00 L 827.00 1050.00 L 858.00 1015.00" fill="none" stroke="#000000" stroke-width="1.26" />
  <path d="M 444.00 1014.00 L 437.00 1046.00 L 443.00 1015.00" fill="none" stroke="#000000" stroke-width="1.26" />
  <path d="M 285.00 1016.00 L 274.00 1026.00" fill="none" stroke="#000000" stroke-width="1.26" />
  <path d="M 591.00 1016.00 L 578.00 1027.00" fill="none" stroke="#000000" stroke-width="1.26" />
  <path d="M 651.00 1017.00 L 637.00 1024.00" fill="none" stroke="#000000" stroke-width="1.26" />
  <path d="M 863.00 1020.00 L 834.00 1050.00 L 858.00 1022.00" fill="none" stroke="#000000" stroke-width="1.26" />
  <path d="M 272.00 1027.00 L 252.00 1048.00 L 241.00 1141.00 L 253.00 1045.00" fill="none" stroke="#000000" stroke-width="1.26" />
  <path d="M 568.00 1033.00 L 559.00 1039.00" fill="none" stroke="#000000" stroke-width="1.26" />
  <path d="M 603.00 1050.00 L 685.00 1161.00 L 603.00 1051.00" fill="none" stroke="#000000" stroke-width="1.26" />
  <path d="M 508.00 1063.00 L 560.00 1081.00 L 655.00 1169.00 L 695.00 1222.00 L 744.00 1239.00 L 773.00 1229.00 L 810.00 1311.00 L 776.00 1231.00 L 746.00 1238.00 L 692.00 1220.00 L 647.00 1160.00 L 547.00 1071.00 L 504.00 1064.00 L 390.00 1112.00" fill="none" stroke="#000000" stroke-width="1.26" />
  <path d="M 351.00 1083.00 L 343.00 1092.00" fill="none" stroke="#000000" stroke-width="1.26" />
  <path d="M 303.00 1087.00 L 343.00 1135.00 L 304.00 1087.00" fill="none" stroke="#000000" stroke-width="1.26" />
  <path d="M 711.00 1095.00 L 746.00 1122.00 L 733.00 1137.00 L 745.00 1120.00 L 710.00 1099.00" fill="none" stroke="#000000" stroke-width="1.26" />
  <path d="M 336.00 1101.00 L 382.00 1126.00 L 387.00 1158.00 L 382.00 1125.00 L 336.00 1102.00" fill="none" stroke="#000000" stroke-width="1.26" />
  <path d="M 799.00 1105.00 L 823.00 1131.00 L 828.00 1157.00 L 822.00 1173.00 L 841.00 1198.00 L 885.00 1319.00 L 840.00 1198.00 L 823.00 1176.00 L 821.00 1127.00 L 801.00 1108.00" fill="none" stroke="#000000" stroke-width="1.26" />
  <path d="M 390.00 1114.00 L 401.00 1149.00 L 371.00 1178.00 L 400.00 1149.00 L 391.00 1114.00" fill="none" stroke="#000000" stroke-width="1.26" />
  <path d="M 726.00 1133.00 L 761.00 1174.00 L 726.00 1134.00" fill="none" stroke="#000000" stroke-width="1.26" />
  <path d="M 240.00 1143.00 L 250.00 1161.00 L 290.00 1182.00 L 297.00 1208.00 L 249.00 1288.00 L 296.00 1208.00 L 289.00 1180.00 L 247.00 1159.00 L 241.00 1143.00" fill="none" stroke="#000000" stroke-width="1.26" />
  <path d="M 763.00 1176.00 L 785.00 1199.00 L 763.00 1177.00" fill="none" stroke="#000000" stroke-width="1.26" />
  <path d="M 366.00 1177.00 L 347.00 1185.00 L 294.00 1181.00" fill="none" stroke="#000000" stroke-width="1.26" />
  <path d="M 821.00 1177.00 L 801.00 1211.00 L 776.00 1225.00 L 820.00 1179.00" fill="none" stroke="#000000" stroke-width="1.26" />
  <path d="M 371.00 1180.00 L 381.00 1220.00 L 372.00 1180.00" fill="none" stroke="#000000" stroke-width="1.26" />
  <path d="M 347.00 1197.00 L 358.00 1218.00 L 374.00 1223.00 L 354.00 1215.00 L 320.00 1228.00 L 305.00 1259.00 L 310.00 1271.00 L 330.00 1269.00 L 309.00 1271.00 L 304.00 1259.00 L 252.00 1292.00 L 196.00 1296.00 L 184.00 1325.00 L 195.00 1296.00 L 307.00 1253.00 L 319.00 1230.00 L 353.00 1214.00 L 348.00 1197.00" fill="none" stroke="#000000" stroke-width="1.26" />
  <path d="M 787.00 1200.00 L 797.00 1211.00 L 787.00 1201.00" fill="none" stroke="#000000" stroke-width="1.26" />
  <path d="M 810.00 1203.00 L 822.00 1227.00 L 810.00 1204.00" fill="none" stroke="#000000" stroke-width="1.26" />
  <path d="M 300.00 1214.00 L 319.00 1224.00 L 300.00 1215.00" fill="none" stroke="#000000" stroke-width="1.26" />
  <path d="M 380.00 1223.00 L 319.00 1318.00 L 372.00 1234.00" fill="none" stroke="#000000" stroke-width="1.26" />
  <path d="M 350.00 1225.00 L 292.00 1351.00 L 349.00 1226.00" fill="none" stroke="#000000" stroke-width="1.26" />
  <path d="M 824.00 1229.00 L 798.00 1266.00 L 813.00 1306.00 L 798.00 1264.00 L 817.00 1233.00" fill="none" stroke="#000000" stroke-width="1.26" />
  <path d="M 827.00 1230.00 L 853.00 1245.00 L 870.00 1290.00 L 853.00 1244.00 L 826.00 1231.00" fill="none" stroke="#000000" stroke-width="1.26" />
  <path d="M 825.00 1234.00 L 850.00 1303.00 L 816.00 1309.00 L 849.00 1303.00 L 825.00 1236.00" fill="none" stroke="#000000" stroke-width="1.26" />
  <path d="M 149.00 1241.00 L 153.00 1248.00 L 148.00 1242.00" fill="none" stroke="#000000" stroke-width="1.26" />
  <path d="M 153.00 1242.00 L 160.00 1249.00 L 154.00 1242.00" fill="none" stroke="#000000" stroke-width="1.26" />
  <path d="M 544.00 1243.00 L 553.00 1250.00 L 543.00 1248.00" fill="none" stroke="#000000" stroke-width="1.26" />
  <path d="M 179.00 1245.00 L 187.00 1251.00 L 180.00 1245.00" fill="none" stroke="#000000" stroke-width="1.26" />
  <path d="M 191.00 1246.00 L 195.00 1252.00 L 192.00 1246.00" fill="none" stroke="#000000" stroke-width="1.26" />
  <path d="M 196.00 1247.00 L 217.00 1250.00 L 196.00 1248.00" fill="none" stroke="#000000" stroke-width="1.26" />
  <path d="M 219.00 1249.00 L 225.00 1256.00 L 223.00 1249.00 L 217.00 1255.00 L 220.00 1249.00" fill="none" stroke="#000000" stroke-width="1.26" />
  <path d="M 226.00 1249.00 L 236.00 1255.00 L 227.00 1253.00" fill="none" stroke="#000000" stroke-width="1.26" />
  <path d="M 247.00 1252.00 L 247.00 1258.00 L 248.00 1252.00" fill="none" stroke="#000000" stroke-width="1.26" />
  <path d="M 250.00 1252.00 L 258.00 1260.00 L 251.00 1252.00" fill="none" stroke="#000000" stroke-width="1.26" />
  <path d="M 626.00 1257.00 L 635.00 1263.00 L 626.00 1258.00" fill="none" stroke="#000000" stroke-width="1.26" />
  <path d="M 300.00 1267.00 L 282.00 1300.00 L 255.00 1293.00 L 282.00 1298.00 L 299.00 1268.00" fill="none" stroke="#000000" stroke-width="1.26" />
  <path d="M 441.00 1272.00 L 443.00 1279.00 L 445.00 1272.00 L 438.00 1274.00" fill="none" stroke="#000000" stroke-width="1.26" />
  <path d="M 421.00 1275.00 L 411.00 1279.00 L 421.00 1278.00" fill="none" stroke="#000000" stroke-width="1.26" />
  <path d="M 384.00 1276.00 L 396.00 1283.00 L 385.00 1279.00" fill="none" stroke="#000000" stroke-width="1.26" />
  <path d="M 397.00 1276.00 L 408.00 1282.00 L 408.00 1276.00 L 407.00 1282.00 L 396.00 1278.00" fill="none" stroke="#000000" stroke-width="1.26" />
  <path d="M 654.00 1285.00 L 641.00 1290.00" fill="none" stroke="#000000" stroke-width="1.26" />
  <path d="M 621.00 1292.00 L 500.00 1296.00" fill="none" stroke="#000000" stroke-width="1.26" />
  <path d="M 283.00 1304.00 L 304.00 1322.00 L 277.00 1308.00" fill="none" stroke="#000000" stroke-width="1.26" />
  <path d="M 221.00 1306.00 L 227.00 1311.00 L 221.00 1308.00" fill="none" stroke="#000000" stroke-width="1.26" />
  <path d="M 218.00 1308.00 L 205.00 1329.00 L 202.00 1363.00 L 210.00 1320.00" fill="none" stroke="#000000" stroke-width="1.26" />
  <path d="M 248.00 1316.00 L 238.00 1338.00 L 245.00 1319.00" fill="none" stroke="#000000" stroke-width="1.26" />
  <path d="M 808.00 1318.00 L 802.00 1343.00 L 808.00 1324.00" fill="none" stroke="#000000" stroke-width="1.26" />
  <path d="M 785.00 1320.00 L 775.00 1354.00 L 783.00 1322.00" fill="none" stroke="#000000" stroke-width="1.26" />
  <path d="M 805.00 1320.00 L 797.00 1378.00 L 804.00 1322.00" fill="none" stroke="#000000" stroke-width="1.26" />
  <path d="M 883.00 1320.00 L 874.00 1332.00 L 875.00 1350.00 L 874.00 1331.00" fill="none" stroke="#000000" stroke-width="1.26" />
  <path d="M 886.00 1321.00 L 898.00 1363.00 L 886.00 1323.00" fill="none" stroke="#000000" stroke-width="1.26" />
  <path d="M 603.00 1323.00 L 606.00 1330.00 L 601.00 1324.00" fill="none" stroke="#000000" stroke-width="1.26" />
  <path d="M 610.00 1323.00 L 613.00 1330.00 L 611.00 1323.00" fill="none" stroke="#000000" stroke-width="1.26" />
  <path d="M 842.00 1323.00 L 840.00 1385.00 L 856.00 1389.00 L 880.00 1386.00 L 898.00 1369.00 L 880.00 1385.00 L 831.00 1390.00 L 726.00 1360.00 L 624.00 1370.00 L 481.00 1346.00 L 447.00 1350.00 L 839.00 1385.00 L 841.00 1326.00" fill="none" stroke="#000000" stroke-width="1.26" />
  <path d="M 625.00 1326.00 L 635.00 1332.00 L 628.00 1326.00" fill="none" stroke="#000000" stroke-width="1.26" />
  <path d="M 654.00 1327.00 L 661.00 1334.00 L 655.00 1327.00" fill="none" stroke="#000000" stroke-width="1.26" />
  <path d="M 46.00 1328.00 L 142.00 1340.00 L 58.00 1328.00 L 13.00 1336.00" fill="none" stroke="#000000" stroke-width="1.26" />
  <path d="M 182.00 1329.00 L 178.00 1352.00 L 181.00 1331.00" fill="none" stroke="#000000" stroke-width="1.26" />
  <path d="M 683.00 1330.00 L 686.00 1337.00 L 680.00 1332.00" fill="none" stroke="#000000" stroke-width="1.26" />
  <path d="M 691.00 1330.00 L 698.00 1337.00 L 691.00 1332.00" fill="none" stroke="#000000" stroke-width="1.26" />
  <path d="M 846.00 1330.00 L 843.00 1348.00 L 845.00 1331.00" fill="none" stroke="#000000" stroke-width="1.26" />
  <path d="M 701.00 1331.00 L 707.00 1338.00 L 702.00 1331.00" fill="none" stroke="#000000" stroke-width="1.26" />
  <path d="M 209.00 1333.00 L 208.00 1365.00 L 208.00 1337.00" fill="none" stroke="#000000" stroke-width="1.26" />
  <path d="M 726.00 1333.00 L 742.00 1338.00 L 724.00 1334.00" fill="none" stroke="#000000" stroke-width="1.26" />
  <path d="M 763.00 1337.00 L 773.00 1343.00 L 763.00 1339.00" fill="none" stroke="#000000" stroke-width="1.26" />
  <path d="M 234.00 1343.00 L 236.00 1361.00 L 235.00 1343.00" fill="none" stroke="#000000" stroke-width="1.26" />
  <path d="M 327.00 1344.00 L 465.00 1357.00 L 325.00 1345.00 L 242.00 1369.00 L 181.00 1364.00 L 129.00 1348.00" fill="none" stroke="#000000" stroke-width="1.26" />
  <path d="M 801.00 1349.00 L 801.00 1375.00" fill="none" stroke="#000000" stroke-width="1.26" />
  <path d="M 868.00 1353.00 L 877.00 1383.00 L 874.00 1359.00" fill="none" stroke="#000000" stroke-width="1.26" />
  <path d="M 842.00 1356.00 L 849.00 1385.00 L 843.00 1356.00" fill="none" stroke="#000000" stroke-width="1.26" />
  <path d="M 894.00 1366.00 L 885.00 1376.00" fill="none" stroke="#000000" stroke-width="1.26" />
  <path d="M 777.00 1367.00 L 784.00 1373.00 L 776.00 1368.00" fill="none" stroke="#000000" stroke-width="1.26" />
</svg>