<svg width="256" height="256" viewBox="0 0 256 256" xmlns="http://www.w3.org/2000/svg" shape-rendering="geometricPrecision">
  <path d="M 121.00 4.00 L 130.00 4.00 L 139.00 11.00 L 153.00 10.00 L 157.00 14.00 L 157.00 16.00 L 164.00 20.00 L 176.00 23.00 L 183.00 27.00 L 215.00 23.00 L 218.00 24.00 L 225.00 31.00 L 216.00 23.00 L 172.00 22.00 L 156.00 14.00 L 155.00 11.00 L 137.00 9.00 L 133.00 6.00 L 118.00 5.00 L 114.00 9.00 L 112.00 16.00 L 108.00 21.00 L 108.00 26.00 L 111.00 33.00 L 108.00 27.00 L 108.00 20.00 L 116.00 6.00" fill="none" stroke="#161216" stroke-width="0.50" />
  <path d="M 124.00 8.00 L 119.00 13.00 L 122.00 17.00 L 129.00 13.00 L 132.00 14.00 L 130.00 12.00 L 130.00 8.00 L 129.00 12.00 L 122.00 18.00 L 119.00 12.00" fill="none" stroke="#5C687E" stroke-width="0.50" />
  <path d="M 144.00 14.00 L 145.00 17.00 L 151.00 22.00 L 148.00 19.00 L 145.00 19.00 L 144.00 16.00" fill="none" stroke="#174B86" stroke-width="0.50" />
  <path d="M 116.00 18.00 L 117.00 24.00 L 120.00 28.00 L 116.00 20.00" fill="none" stroke="#5D8DAE" stroke-width="0.50" />
  <path d="M 137.00 20.00 L 140.00 29.00 L 149.00 37.00 L 149.00 39.00 L 165.00 48.00 L 169.00 52.00 L 175.00 66.00 L 168.00 52.00 L 162.00 46.00 L 148.00 38.00 L 148.00 35.00 L 140.00 30.00 L 137.00 23.00" fill="none" stroke="#676276" stroke-width="0.50" />
  <path d="M 134.00 21.00 L 135.00 22.00 L 129.00 23.00 L 127.00 22.00 L 125.00 25.00 L 122.00 23.00" fill="none" stroke="#408CBA" stroke-width="0.50" />
  <path d="M 114.00 24.00 L 114.00 28.00 L 117.00 32.00 L 129.00 38.00 L 137.00 39.00 L 125.00 35.00 L 114.00 29.00 L 113.00 26.00" fill="none" stroke="#2A486E" stroke-width="0.50" />
  <path d="M 153.00 24.00 L 154.00 28.00 L 159.00 34.00 L 153.00 27.00" fill="none" stroke="#204681" stroke-width="0.50" />
  <path d="M 174.00 27.00 L 176.00 33.00 L 192.00 47.00 L 194.00 58.00 L 191.00 45.00 L 189.00 43.00 L 188.00 44.00 L 184.00 39.00 L 183.00 40.00 L 183.00 38.00 L 177.00 35.00 L 175.00 32.00 L 174.00 33.00 L 173.00 29.00" fill="none" stroke="#2F7597" stroke-width="0.50" />
  <path d="M 165.00 29.00 L 165.00 33.00 L 167.00 34.00 L 167.00 32.00 L 165.00 34.00" fill="none" stroke="#AECBE6" stroke-width="0.50" />
  <path d="M 188.00 30.00 L 188.00 34.00 L 191.00 38.00 L 188.00 35.00" fill="none" stroke="#3485A5" stroke-width="0.50" />
  <path d="M 224.00 33.00 L 221.00 44.00 L 221.00 55.00 L 219.00 58.00 L 219.00 56.00 L 217.00 64.00 L 208.00 79.00 L 206.00 89.00 L 205.00 87.00 L 204.00 88.00 L 221.00 51.00 L 220.00 44.00 L 215.00 54.00 L 217.00 47.00 L 223.00 37.00" fill="none" stroke="#4E4137" stroke-width="0.50" />
  <path d="M 161.00 34.00 L 176.00 49.00 L 192.00 82.00 L 192.00 79.00 L 188.00 77.00 L 175.00 49.00 L 165.00 38.00" fill="none" stroke="#29508B" stroke-width="0.50" />
  <path d="M 197.00 34.00 L 202.00 42.00 L 201.00 44.00 L 208.00 50.00 L 210.00 49.00 L 208.00 51.00 L 213.00 56.00 L 213.00 63.00 L 212.00 56.00 L 208.00 52.00 L 206.00 47.00 L 203.00 47.00 L 199.00 39.00 L 200.00 34.00 L 199.00 36.00 L 195.00 37.00" fill="none" stroke="#5A809C" stroke-width="0.50" />
  <path d="M 111.00 35.00 L 115.00 40.00 L 110.00 36.00 L 101.00 43.00 L 100.00 42.00 L 92.00 46.00 L 91.00 48.00 L 93.00 50.00 L 91.00 51.00 L 92.00 52.00 L 90.00 56.00 L 91.00 52.00" fill="none" stroke="#000000" stroke-width="0.50" />
  <path d="M 140.00 36.00 L 140.00 39.00 L 143.00 43.00 L 139.00 38.00" fill="none" stroke="#2F91CA" stroke-width="0.50" />
  <path d="M 11.00 37.00 L 17.00 38.00 L 10.00 38.00" fill="none" stroke="#000000" stroke-width="0.50" />
  <path d="M 176.00 39.00 L 180.00 44.00 L 176.00 40.00" fill="none" stroke="#3168B2" stroke-width="0.50" />
  <path d="M 59.00 41.00 L 63.00 41.00 L 69.00 47.00 L 65.00 42.00 L 56.00 42.00 L 51.00 45.00 L 26.00 49.00 L 19.00 46.00 L 13.00 48.00 L 6.00 61.00 L 6.00 68.00 L 11.00 76.00 L 11.00 82.00 L 18.00 97.00 L 13.00 89.00 L 10.00 76.00 L 6.00 69.00 L 6.00 60.00 L 13.00 47.00" fill="none" stroke="#504040" stroke-width="0.50" />
  <path d="M 108.00 41.00 L 114.00 47.00 L 125.00 48.00 L 130.00 53.00 L 130.00 59.00 L 133.00 65.00 L 143.00 71.00 L 137.00 71.00 L 139.00 68.00 L 133.00 67.00 L 130.00 60.00 L 129.00 51.00 L 125.00 47.00 L 117.00 47.00 L 109.00 44.00 L 108.00 42.00 L 107.00 44.00" fill="none" stroke="#374C70" stroke-width="0.50" />
  <path d="M 135.00 41.00 L 143.00 50.00 L 142.00 48.00 L 139.00 49.00 L 137.00 53.00 L 138.00 57.00 L 136.00 55.00 L 139.00 45.00 L 135.00 42.00" fill="none" stroke="#788FB5" stroke-width="0.50" />
  <path d="M 144.00 45.00 L 156.00 54.00 L 162.00 66.00 L 162.00 70.00 L 164.00 73.00 L 163.00 78.00 L 161.00 66.00 L 155.00 54.00 L 147.00 46.00" fill="none" stroke="#1C202B" stroke-width="0.50" />
  <path d="M 183.00 45.00 L 187.00 49.00 L 191.00 60.00 L 185.00 46.00" fill="none" stroke="#5A3E4D" stroke-width="0.50" />
  <path d="M 67.00 49.00 L 70.00 49.00 L 80.00 61.00 L 83.00 62.00 L 94.00 60.00 L 109.00 73.00 L 112.00 82.00 L 107.00 70.00 L 103.00 66.00 L 91.00 60.00 L 79.00 61.00 L 73.00 55.00 L 71.00 52.00 L 73.00 49.00 L 71.00 49.00" fill="none" stroke="#2E3F58" stroke-width="0.50" />
  <path d="M 145.00 51.00 L 153.00 58.00 L 150.00 54.00" fill="none" stroke="#2768B2" stroke-width="0.50" />
  <path d="M 19.00 53.00 L 26.00 59.00 L 34.00 56.00 L 38.00 58.00 L 39.00 56.00 L 46.00 53.00 L 50.00 55.00 L 52.00 54.00 L 43.00 54.00 L 37.00 57.00 L 35.00 56.00 L 28.00 58.00 L 22.00 55.00 L 26.00 53.00 L 20.00 53.00" fill="none" stroke="#9DA1A0" stroke-width="0.50" />
  <path d="M 65.00 54.00 L 63.00 56.00 L 54.00 57.00" fill="none" stroke="#45392D" stroke-width="0.50" />
  <path d="M 15.00 55.00 L 22.00 63.00 L 22.00 68.00 L 17.00 72.00 L 12.00 69.00 L 11.00 66.00 L 21.00 68.00 L 20.00 62.00" fill="none" stroke="#52493B" stroke-width="0.50" />
  <path d="M 107.00 56.00 L 114.00 58.00 L 116.00 61.00 L 106.00 57.00 L 97.00 59.00" fill="none" stroke="#054F94" stroke-width="0.50" />
  <path d="M 143.00 59.00 L 153.00 68.00 L 157.00 76.00 L 162.00 98.00 L 156.00 76.00 L 150.00 64.00" fill="none" stroke="#2A559D" stroke-width="0.50" />
  <path d="M 187.00 59.00 L 187.00 62.00 L 192.00 70.00 L 194.00 70.00 L 196.00 66.00 L 203.00 69.00 L 200.00 67.00 L 199.00 71.00 L 198.00 64.00 L 194.00 68.00 L 194.00 64.00 L 192.00 62.00 L 191.00 72.00 L 186.00 60.00" fill="none" stroke="#4B394A" stroke-width="0.50" />
  <path d="M 53.00 60.00 L 57.00 64.00 L 57.00 69.00 L 56.00 62.00 L 54.00 60.00" fill="none" stroke="#6D4B40" stroke-width="0.50" />
  <path d="M 124.00 61.00 L 127.00 66.00 L 128.00 72.00 L 127.00 73.00 L 124.00 62.00" fill="none" stroke="#334580" stroke-width="0.50" />
  <path d="M 28.00 64.00 L 25.00 73.00 L 19.00 77.00 L 25.00 71.00 L 27.00 65.00" fill="none" stroke="#454D68" stroke-width="0.50" />
  <path d="M 108.00 64.00 L 113.00 71.00 L 113.00 74.00 L 112.00 71.00 L 111.00 73.00 L 111.00 69.00 L 108.00 65.00" fill="none" stroke="#668DBF" stroke-width="0.50" />
  <path d="M 210.00 64.00 L 205.00 72.00 L 198.00 73.00 L 192.00 76.00" fill="none" stroke="#192C4F" stroke-width="0.50" />
  <path d="M 48.00 65.00 L 52.00 65.00 L 54.00 67.00 L 45.00 67.00 L 52.00 79.00 L 47.00 69.00 L 43.00 70.00 L 42.00 68.00 L 39.00 71.00 L 37.00 70.00 L 37.00 74.00" fill="none" stroke="#3D4862" stroke-width="0.50" />
  <path d="M 122.00 66.00 L 123.00 69.00 L 119.00 76.00 L 119.00 82.00 L 112.00 99.00 L 108.00 101.00 L 115.00 91.00 L 123.00 66.00 L 121.00 67.00" fill="none" stroke="#324991" stroke-width="0.50" />
  <path d="M 76.00 67.00 L 79.00 72.00 L 75.00 78.00 L 78.00 79.00 L 74.00 78.00 L 69.00 82.00 L 53.00 88.00 L 52.00 87.00 L 77.00 73.00" fill="none" stroke="#542F39" stroke-width="0.50" />
  <path d="M 83.00 67.00 L 83.00 73.00 L 82.00 69.00" fill="none" stroke="#0A0F17" stroke-width="0.50" />
  <path d="M 90.00 68.00 L 91.00 75.00 L 94.00 81.00 L 92.00 80.00 L 89.00 69.00" fill="none" stroke="#0F0C12" stroke-width="0.50" />
  <path d="M 173.00 68.00 L 175.00 69.00 L 175.00 72.00 L 186.00 93.00 L 185.00 97.00 L 185.00 93.00 L 175.00 73.00" fill="none" stroke="#546D89" stroke-width="0.50" />
  <path d="M 132.00 69.00 L 134.00 75.00 L 140.00 78.00 L 141.00 76.00 L 136.00 75.00 L 136.00 79.00 L 133.00 83.00 L 135.00 86.00 L 133.00 87.00 L 134.00 89.00 L 131.00 89.00 L 135.00 79.00 L 131.00 70.00" fill="none" stroke="#363967" stroke-width="0.50" />
  <path d="M 28.00 70.00 L 33.00 74.00 L 33.00 78.00 L 35.00 80.00 L 34.00 91.00 L 32.00 92.00 L 31.00 100.00 L 34.00 80.00 L 32.00 72.00" fill="none" stroke="#432B26" stroke-width="0.50" />
  <path d="M 69.00 71.00 L 71.00 72.00 L 70.00 71.00 L 59.00 74.00 L 58.00 76.00 L 57.00 75.00" fill="none" stroke="#452D3D" stroke-width="0.50" />
  <path d="M 87.00 72.00 L 88.00 73.00 L 86.00 74.00 L 84.00 81.00 L 85.00 85.00 L 79.00 89.00 L 79.00 92.00 L 84.00 82.00 L 86.00 73.00" fill="none" stroke="#2C4370" stroke-width="0.50" />
  <path d="M 101.00 73.00 L 107.00 79.00 L 110.00 87.00 L 104.00 75.00" fill="none" stroke="#5A73A6" stroke-width="0.50" />
  <path d="M 182.00 74.00 L 186.00 80.00 L 183.00 74.00" fill="none" stroke="#2C1F2C" stroke-width="0.50" />
  <path d="M 127.00 75.00 L 131.00 79.00 L 131.00 81.00 L 128.00 75.00" fill="none" stroke="#3E1E2D" stroke-width="0.50" />
  <path d="M 47.00 79.00 L 49.00 79.00 L 48.00 81.00 L 52.00 85.00 L 48.00 82.00 L 47.00 83.00 L 47.00 81.00 L 46.00 83.00" fill="none" stroke="#613334" stroke-width="0.50" />
  <path d="M 26.00 80.00 L 28.00 83.00 L 26.00 89.00 L 26.00 81.00" fill="none" stroke="#8E6544" stroke-width="0.50" />
  <path d="M 196.00 83.00 L 195.00 89.00 L 203.00 105.00 L 203.00 110.00 L 194.00 89.00 L 195.00 86.00" fill="none" stroke="#143544" stroke-width="0.50" />
  <path d="M 188.00 85.00 L 199.00 107.00 L 198.00 110.00 L 197.00 105.00 L 195.00 105.00 L 195.00 103.00 L 194.00 105.00 L 195.00 101.00 L 188.00 86.00" fill="none" stroke="#33222C" stroke-width="0.50" />
  <path d="M 47.00 86.00 L 50.00 90.00 L 48.00 86.00 L 46.00 90.00" fill="none" stroke="#6C3332" stroke-width="0.50" />
  <path d="M 107.00 91.00 L 109.00 92.00 L 107.00 92.00 L 107.00 96.00 L 106.00 92.00" fill="none" stroke="#4C3F6B" stroke-width="0.50" />
  <path d="M 26.00 93.00 L 23.00 97.00 L 23.00 100.00 L 21.00 100.00 L 20.00 98.00 L 19.00 100.00" fill="none" stroke="#784D33" stroke-width="0.50" />
  <path d="M 61.00 93.00 L 70.00 108.00 L 73.00 102.00 L 69.00 108.00 L 66.00 101.00 L 65.00 102.00 L 63.00 100.00 L 61.00 94.00" fill="none" stroke="#000000" stroke-width="0.50" />
  <path d="M 76.00 93.00 L 78.00 95.00 L 76.00 98.00 L 78.00 94.00 L 77.00 93.00" fill="none" stroke="#1A0303" stroke-width="0.50" />
  <path d="M 92.00 93.00 L 85.00 102.00 L 89.00 95.00" fill="none" stroke="#6E4975" stroke-width="0.50" />
  <path d="M 117.00 94.00 L 131.00 107.00 L 141.00 108.00 L 149.00 118.00 L 153.00 118.00 L 155.00 120.00 L 154.00 122.00 L 155.00 118.00 L 147.00 118.00 L 140.00 107.00 L 131.00 106.00 L 118.00 94.00" fill="none" stroke="#311116" stroke-width="0.50" />
  <path d="M 71.00 95.00 L 70.00 96.00 L 74.00 98.00 L 69.00 96.00 L 68.00 97.00" fill="none" stroke="#070205" stroke-width="0.50" />
  <path d="M 168.00 96.00 L 164.00 101.00 L 166.00 108.00 L 166.00 117.00 L 164.00 114.00 L 165.00 108.00" fill="none" stroke="#943D33" stroke-width="0.50" />
  <path d="M 137.00 98.00 L 145.00 104.00 L 155.00 116.00 L 150.00 112.00 L 149.00 107.00 L 147.00 108.00 L 146.00 104.00 L 140.00 102.00 L 138.00 98.00" fill="none" stroke="#2E1C2D" stroke-width="0.50" />
  <path d="M 186.00 99.00 L 187.00 105.00 L 189.00 106.00 L 187.00 108.00 L 188.00 110.00 L 193.00 119.00 L 206.00 134.00 L 212.00 144.00 L 217.00 159.00 L 215.00 160.00 L 215.00 164.00 L 213.00 165.00 L 215.00 167.00 L 209.00 172.00 L 210.00 175.00 L 205.00 175.00 L 215.00 157.00 L 214.00 151.00 L 205.00 134.00 L 193.00 120.00 L 200.00 125.00 L 192.00 118.00 L 187.00 109.00 L 187.00 106.00" fill="none" stroke="#2D1619" stroke-width="0.50" />
  <path d="M 78.00 100.00 L 82.00 108.00 L 78.00 102.00" fill="none" stroke="#70536F" stroke-width="0.50" />
  <path d="M 85.00 108.00 L 86.00 112.00 L 88.00 112.00 L 89.00 109.00 L 85.00 112.00" fill="none" stroke="#5F3F1F" stroke-width="0.50" />
  <path d="M 251.00 110.00 L 253.00 114.00 L 252.00 118.00 L 250.00 118.00 L 249.00 111.00 L 253.00 111.00" fill="none" stroke="#000000" stroke-width="0.50" />
  <path d="M 130.00 113.00 L 140.00 121.00 L 136.00 117.00 L 135.00 118.00 L 129.00 114.00" fill="none" stroke="#282034" stroke-width="0.50" />
  <path d="M 138.00 123.00 L 138.00 126.00 L 135.00 129.00 L 132.00 143.00 L 132.00 138.00 L 137.00 125.00" fill="none" stroke="#31426B" stroke-width="0.50" />
  <path d="M 214.00 130.00 L 224.00 139.00 L 227.00 145.00 L 237.00 178.00 L 241.00 186.00 L 237.00 180.00 L 226.00 145.00 L 220.00 136.00" fill="none" stroke="#311C26" stroke-width="0.50" />
  <path d="M 134.00 144.00 L 135.00 148.00 L 140.00 153.00 L 139.00 161.00 L 139.00 155.00 L 137.00 156.00 L 138.00 157.00 L 137.00 154.00 L 139.00 153.00 L 134.00 147.00" fill="none" stroke="#302030" stroke-width="0.50" />
  <path d="M 179.00 146.00 L 180.00 150.00 L 190.00 158.00 L 187.00 154.00 L 184.00 155.00 L 186.00 158.00 L 183.00 154.00 L 184.00 153.00 L 181.00 152.00 L 179.00 148.00" fill="none" stroke="#381515" stroke-width="0.50" />
  <path d="M 175.00 147.00 L 177.00 174.00 L 181.00 175.00 L 183.00 173.00 L 176.00 179.00 L 177.00 175.00 L 176.00 171.00 L 174.00 170.00 L 174.00 152.00 L 176.00 147.00" fill="none" stroke="#371313" stroke-width="0.50" />
  <path d="M 200.00 167.00 L 206.00 172.00 L 203.00 167.00" fill="none" stroke="#381414" stroke-width="0.50" />
  <path d="M 133.00 169.00 L 135.00 172.00 L 138.00 199.00 L 144.00 204.00 L 143.00 205.00 L 143.00 203.00 L 137.00 199.00 L 134.00 169.00" fill="none" stroke="#17172E" stroke-width="0.50" />
  <path d="M 234.00 187.00 L 238.00 192.00 L 236.00 192.00 L 235.00 189.00" fill="none" stroke="#000000" stroke-width="0.50" />
  <path d="M 171.00 199.00 L 173.00 212.00 L 175.00 214.00 L 175.00 219.00 L 177.00 222.00 L 177.00 227.00 L 175.00 230.00 L 176.00 222.00 L 175.00 224.00 L 171.00 200.00" fill="none" stroke="#220B0F" stroke-width="0.50" />
  <path d="M 156.00 216.00 L 155.00 219.00 L 160.00 224.00 L 154.00 219.00 L 154.00 217.00" fill="none" stroke="#2E131A" stroke-width="0.50" />
  <path d="M 162.00 224.00 L 170.00 235.00 L 169.00 233.00 L 168.00 236.00 L 170.00 238.00 L 168.00 237.00 L 165.00 227.00 L 162.00 225.00" fill="none" stroke="#000000" stroke-width="0.50" />
  <path d="M 184.00 226.00 L 188.00 230.00 L 193.00 240.00 L 186.00 229.00 L 187.00 228.00 L 183.00 227.00 L 182.00 230.00 L 187.00 238.00 L 188.00 244.00 L 182.00 231.00 L 182.00 227.00" fill="none" stroke="#094141" stroke-width="0.50" />
  <path d="M 144.00 14.00 L 160.00 34.00 L 154.00 29.00 L 153.00 23.00 L 145.00 18.00" fill="none" stroke="#174B86" stroke-width="0.50" />
  <path d="M 137.00 19.00 L 141.00 31.00 L 152.00 42.00 L 170.00 53.00 L 175.00 72.00 L 186.00 93.00 L 184.00 95.00 L 169.00 53.00 L 162.00 46.00 L 149.00 40.00 L 137.00 23.00" fill="none" stroke="#72799A" stroke-width="0.50" />
  <path d="M 174.00 27.00 L 181.00 37.00 L 179.00 30.00 L 177.00 28.00 L 177.00 35.00 L 173.00 29.00" fill="none" stroke="#264D66" stroke-width="0.50" />
  <path d="M 165.00 29.00 L 181.00 44.00 L 166.00 34.00 L 165.00 30.00" fill="none" stroke="#AECBE6" stroke-width="0.50" />
  <path d="M 188.00 30.00 L 192.00 39.00 L 187.00 31.00" fill="none" stroke="#3485A5" stroke-width="0.50" />
  <path d="M 183.00 36.00 L 183.00 40.00 L 192.00 47.00 L 194.00 58.00 L 192.00 46.00 L 189.00 43.00 L 187.00 45.00" fill="none" stroke="#166F99" stroke-width="0.50" />
  <path d="M 135.00 41.00 L 142.00 49.00 L 136.00 41.00" fill="none" stroke="#8FA3BD" stroke-width="0.50" />
  <path d="M 143.00 44.00 L 156.00 54.00 L 162.00 66.00 L 163.00 78.00 L 161.00 66.00 L 154.00 53.00" fill="none" stroke="#2C376D" stroke-width="0.50" />
  <path d="M 184.00 45.00 L 196.00 66.00 L 191.00 70.00 L 188.00 65.00 L 186.00 58.00 L 193.00 64.00 L 187.00 52.00" fill="none" stroke="#8E5869" stroke-width="0.50" />
  <path d="M 159.00 51.00 L 168.00 64.00 L 159.00 52.00" fill="none" stroke="#4F62AD" stroke-width="0.50" />
  <path d="M 71.00 52.00 L 82.00 62.00 L 94.00 60.00 L 79.00 61.00 L 72.00 52.00" fill="none" stroke="#473D4F" stroke-width="0.50" />
  <path d="M 95.00 62.00 L 109.00 73.00 L 112.00 84.00 L 107.00 70.00 L 101.00 65.00" fill="none" stroke="#1F2C36" stroke-width="0.50" />
  <path d="M 123.00 66.00 L 116.00 91.00 L 109.00 101.00 L 115.00 91.00 L 119.00 75.00" fill="none" stroke="#334F96" stroke-width="0.50" />
  <path d="M 166.00 67.00 L 174.00 81.00 L 166.00 69.00" fill="none" stroke="#615A9F" stroke-width="0.50" />
  <path d="M 47.00 69.00 L 55.00 81.00 L 47.00 70.00" fill="none" stroke="#8C7F7A" stroke-width="0.50" />
  <path d="M 28.00 70.00 L 34.00 77.00 L 32.00 99.00 L 33.00 73.00 L 29.00 72.00 L 21.00 80.00 L 24.00 93.00 L 20.00 81.00" fill="none" stroke="#543D31" stroke-width="0.50" />
  <path d="M 76.00 76.00 L 69.00 82.00 L 55.00 87.00" fill="none" stroke="#65475C" stroke-width="0.50" />
  <path d="M 83.00 81.00 L 85.00 85.00 L 79.00 92.00 L 78.00 89.00 L 83.00 82.00" fill="none" stroke="#70344E" stroke-width="0.50" />
  <path d="M 178.00 88.00 L 183.00 99.00 L 177.00 89.00 L 174.00 94.00" fill="none" stroke="#6E3F75" stroke-width="0.50" />
  <path d="M 77.00 93.00 L 77.00 97.00 L 71.00 98.00 L 70.00 96.00 L 74.00 94.00 L 69.00 96.00 L 77.00 94.00" fill="none" stroke="#492932" stroke-width="0.50" />
  <path d="M 116.00 97.00 L 120.00 103.00 L 124.00 101.00 L 133.00 108.00 L 140.00 107.00 L 143.00 110.00 L 120.00 104.00 L 127.00 121.00 L 127.00 138.00 L 138.00 192.00 L 135.00 187.00 L 126.00 121.00 L 116.00 99.00" fill="none" stroke="#2A2626" stroke-width="0.50" />
  <path d="M 193.00 110.00 L 205.00 124.00 L 195.00 114.00 L 200.00 113.00 L 229.00 138.00 L 245.00 184.00 L 227.00 135.00 L 202.00 113.00 L 194.00 110.00" fill="none" stroke="#271A26" stroke-width="0.50" />
  <path d="M 138.00 123.00 L 132.00 140.00 L 138.00 152.00 L 132.00 139.00 L 137.00 124.00" fill="none" stroke="#31426B" stroke-width="0.50" />
  <path d="M 184.00 226.00 L 192.00 238.00 L 192.00 247.00 L 186.00 227.00 L 182.00 227.00" fill="none" stroke="#007F7F" stroke-width="0.50" />
  <path d="M 182.00 230.00 L 188.00 240.00 L 188.00 244.00 L 182.00 231.00" fill="none" stroke="#1C0200" stroke-width="0.50" />
  <path d="M 124.00 8.00 L 119.00 12.00 L 121.00 17.00 L 131.00 13.00 L 139.00 20.00 L 140.00 14.00 L 137.00 21.00 L 140.00 29.00 L 150.00 41.00 L 170.00 53.00 L 174.00 68.00 L 169.00 51.00 L 148.00 39.00 L 140.00 30.00 L 135.00 14.00 L 130.00 11.00 L 121.00 18.00 L 118.00 13.00" fill="none" stroke="#686A7D" stroke-width="0.50" />
  <path d="M 113.00 13.00 L 108.00 26.00 L 115.00 40.00 L 110.00 36.00 L 91.00 47.00 L 111.00 33.00 L 109.00 18.00" fill="none" stroke="#3E3E49" stroke-width="0.50" />
  <path d="M 121.00 20.00 L 125.00 25.00 L 135.00 22.00 L 121.00 24.00 L 120.00 21.00" fill="none" stroke="#414E62" stroke-width="0.50" />
  <path d="M 140.00 35.00 L 142.00 43.00 L 156.00 54.00 L 164.00 73.00 L 155.00 54.00 L 140.00 40.00" fill="none" stroke="#2F91CA" stroke-width="0.50" />
  <path d="M 222.00 49.00 L 206.00 87.00 L 221.00 50.00" fill="none" stroke="#000000" stroke-width="0.50" />
  <path d="M 14.00 57.00 L 11.00 67.00 L 21.00 71.00 L 22.00 67.00 L 12.00 70.00 L 11.00 62.00" fill="none" stroke="#C8B194" stroke-width="0.50" />
  <path d="M 88.00 67.00 L 101.00 98.00 L 89.00 67.00" fill="none" stroke="#9CAABD" stroke-width="0.50" />
  <path d="M 28.00 74.00 L 20.00 83.00 L 23.00 93.00 L 20.00 81.00" fill="none" stroke="#A27652" stroke-width="0.50" />
  <path d="M 120.00 78.00 L 112.00 99.00 L 119.00 79.00" fill="none" stroke="#382542" stroke-width="0.50" />
  <path d="M 112.00 19.00 L 117.00 32.00 L 139.00 39.00 L 162.00 66.00 L 140.00 37.00 L 114.00 30.00 L 112.00 21.00" fill="none" stroke="#4779B3" stroke-width="0.50" />
  <path d="M 18.00 52.00 L 26.00 60.00 L 39.00 58.00 L 29.00 57.00 L 26.00 62.00 L 20.00 53.00" fill="none" stroke="#8A8174" stroke-width="0.50" />
  <path d="M 194.00 112.00 L 228.00 137.00 L 244.00 188.00 L 226.00 134.00 L 202.00 114.00" fill="none" stroke="#271824" stroke-width="0.50" />
  <path d="M 217.00 131.00 L 230.00 156.00 L 221.00 136.00" fill="none" stroke="#402430" stroke-width="0.50" />
  <path d="M 59.00 41.00 L 75.00 50.00 L 58.00 42.00 L 28.00 49.00 L 15.00 46.00 L 7.00 65.00 L 13.00 47.00" fill="none" stroke="#000000" stroke-width="0.50" />
  <path d="M 6.00 67.00 L 20.00 98.00 L 6.00 69.00" fill="none" stroke="#000000" stroke-width="0.50" />
  <path d="M 141.00 42.00 L 161.00 66.00 L 154.00 53.00" fill="none" stroke="#61778E" stroke-width="0.50" />
  <path d="M 224.00 33.00 L 214.00 63.00 L 212.00 55.00 L 223.00 37.00" fill="none" stroke="#56645A" stroke-width="0.50" />
  <path d="M 117.00 100.00 L 125.00 112.00 L 134.00 164.00 L 118.00 102.00 L 134.00 106.00 L 118.00 100.00" fill="none" stroke="#000000" stroke-width="0.50" />
  <path d="M 141.00 42.00 L 161.00 65.00 L 148.00 47.00" fill="none" stroke="#61778E" stroke-width="0.50" />
  <path d="M 205.00 47.00 L 209.00 51.00 L 210.00 49.00 L 213.00 64.00 L 212.00 56.00 L 207.00 50.00" fill="none" stroke="#000000" stroke-width="0.41" />
  <path d="M 95.00 83.00 L 102.00 92.00 L 101.00 97.00 L 96.00 85.00" fill="none" stroke="#000000" stroke-width="0.41" />
  <path d="M 118.00 95.00 L 129.00 105.00 L 142.00 110.00 L 140.00 107.00 L 133.00 108.00" fill="none" stroke="#000000" stroke-width="0.41" />
  <path d="M 172.00 27.00 L 180.00 36.00 L 174.00 27.00 L 172.00 28.00" fill="none" stroke="#000000" stroke-width="0.41" />
  <path d="M 182.00 73.00 L 189.00 88.00 L 192.00 89.00 L 190.00 90.00 L 198.00 106.00 L 196.00 102.00 L 194.00 105.00 L 194.00 99.00 L 182.00 75.00" fill="none" stroke="#000000" stroke-width="0.41" />
  <path d="M 83.00 81.00 L 85.00 85.00 L 79.00 89.00 L 78.00 96.00 L 76.00 98.00 L 68.00 96.00 L 77.00 93.00 L 78.00 89.00 L 75.00 89.00 L 83.00 82.00" fill="none" stroke="#000000" stroke-width="0.41" />
  <path d="M 117.00 94.00 L 126.00 103.00 L 139.00 107.00 L 144.00 112.00 L 140.00 107.00 L 133.00 108.00 L 118.00 94.00" fill="none" stroke="#000000" stroke-width="0.41" />
  <path d="M 197.00 124.00 L 206.00 134.00 L 216.00 155.00 L 215.00 166.00 L 209.00 174.00 L 215.00 163.00 L 215.00 155.00 L 198.00 124.00" fill="none" stroke="#000000" stroke-width="0.41" />
  <path d="M 189.00 174.00 L 181.00 182.00 L 183.00 191.00 L 180.00 192.00 L 181.00 180.00" fill="none" stroke="#000000" stroke-width="0.41" />
  <path d="M 134.00 176.00 L 139.00 194.00 L 138.00 201.00 L 134.00 180.00" fill="none" stroke="#000000" stroke-width="0.41" />
  <path d="M 172.00 207.00 L 177.00 223.00 L 175.00 229.00 L 172.00 209.00" fill="none" stroke="#000000" stroke-width="0.41" />
</svg>