<svg width="295" height="295" viewBox="0 0 295 295" xmlns="http://www.w3.org/2000/svg" shape-rendering="geometricPrecision">
  <path d="M 72.0,67.0 L 49.0,80.0 L 46.0,89.0 L 47.0,95.0 L 55.0,100.0 L 60.0,99.0 L 69.0,102.0 L 79.0,103.0 L 81.0,104.0 L 80.0,106.0 L 89.0,98.0 L 89.0,79.0 L 73.0,68.0 Z" fill="#c56444" />
  <path d="M 72.0,67.0 L 49.0,80.0 L 46.0,89.0 L 47.0,95.0 L 55.0,100.0 L 60.0,99.0 L 69.0,102.0 L 79.0,103.0 L 81.0,104.0 L 80.0,106.0 L 89.0,98.0 L 89.0,79.0 L 73.0,68.0 Z" fill="none" stroke="#000000" stroke-width="1.00" />
  <path d="M 46.0,93.0 L 42.0,97.0 L 31.0,102.0 L 28.0,123.0 L 28.0,130.0 L 38.0,139.0 L 40.0,138.0 L 42.0,140.0 L 46.0,138.0 L 49.0,111.0 L 54.0,101.0 L 46.0,95.0 Z" fill="#5e1b09" />
  <path d="M 46.0,93.0 L 42.0,97.0 L 31.0,102.0 L 28.0,123.0 L 28.0,130.0 L 38.0,139.0 L 40.0,138.0 L 42.0,140.0 L 46.0,138.0 L 49.0,111.0 L 54.0,101.0 L 46.0,95.0 Z" fill="none" stroke="#000000" stroke-width="1.00" />
  <path d="M 252.0,64.0 L 237.0,72.0 L 235.0,85.0 L 231.0,89.0 L 238.0,92.0 L 249.0,100.0 L 268.0,92.0 L 268.0,73.0 L 253.0,65.0 Z" fill="#502e12" />
  <path d="M 252.0,64.0 L 237.0,72.0 L 235.0,85.0 L 231.0,89.0 L 238.0,92.0 L 249.0,100.0 L 268.0,92.0 L 268.0,73.0 L 253.0,65.0 Z" fill="none" stroke="#000000" stroke-width="1.00" />
  <path d="M 180.0,63.0 L 175.0,66.0 L 159.0,71.0 L 155.0,77.0 L 154.0,89.0 L 170.0,99.0 L 191.0,90.0 L 193.0,85.0 L 192.0,72.0 L 181.0,64.0 Z" fill="#cba69b" />
  <path d="M 180.0,63.0 L 175.0,66.0 L 159.0,71.0 L 155.0,77.0 L 154.0,89.0 L 170.0,99.0 L 191.0,90.0 L 193.0,85.0 L 192.0,72.0 L 181.0,64.0 Z" fill="none" stroke="#000000" stroke-width="1.00" />
  <path d="M 0.0,231.0 L 20.0,232.0 L 37.0,250.0 L 36.0,258.0 L 29.0,265.0 L 12.0,266.0 L 0.0,271.0 L 0.0,233.0 Z" fill="#1d0c05" />
  <path d="M 0.0,231.0 L 20.0,232.0 L 37.0,250.0 L 36.0,258.0 L 29.0,265.0 L 12.0,266.0 L 0.0,271.0 L 0.0,233.0 Z" fill="none" stroke="#000000" stroke-width="1.00" />
  <path d="M 21.0,130.0 L 27.0,130.0 L 38.0,140.0 L 37.0,150.0 L 30.0,155.0 L 30.0,160.0 L 26.0,160.0 L 24.0,162.0 L 0.0,161.0 L 0.0,131.0 L 20.0,131.0 Z" fill="#130b08" />
  <path d="M 21.0,130.0 L 27.0,130.0 L 38.0,140.0 L 37.0,150.0 L 30.0,155.0 L 30.0,160.0 L 26.0,160.0 L 24.0,162.0 L 0.0,161.0 L 0.0,131.0 L 20.0,131.0 Z" fill="none" stroke="#000000" stroke-width="1.00" />
  <path d="M 92.0,235.0 L 96.0,235.0 L 111.0,251.0 L 111.0,262.0 L 90.0,274.0 L 88.0,274.0 L 77.0,265.0 L 77.0,254.0 L 74.0,251.0 L 74.0,239.0 L 91.0,236.0 Z" fill="#92a692" />
  <path d="M 92.0,235.0 L 96.0,235.0 L 111.0,251.0 L 111.0,262.0 L 90.0,274.0 L 88.0,274.0 L 77.0,265.0 L 77.0,254.0 L 74.0,251.0 L 74.0,239.0 L 91.0,236.0 Z" fill="none" stroke="#000000" stroke-width="1.00" />
  <path d="M 170.0,130.0 L 175.0,130.0 L 174.0,136.0 L 178.0,148.0 L 178.0,161.0 L 161.0,170.0 L 151.0,165.0 L 143.0,165.0 L 144.0,163.0 L 148.0,162.0 L 144.0,140.0 L 145.0,133.0 L 169.0,131.0 Z" fill="#938171" />
  <path d="M 170.0,130.0 L 175.0,130.0 L 174.0,136.0 L 178.0,148.0 L 178.0,161.0 L 161.0,170.0 L 151.0,165.0 L 143.0,165.0 L 144.0,163.0 L 148.0,162.0 L 144.0,140.0 L 145.0,133.0 L 169.0,131.0 Z" fill="none" stroke="#000000" stroke-width="1.00" />
  <path d="M 62.0,235.0 L 65.0,235.0 L 73.0,240.0 L 73.0,251.0 L 76.0,254.0 L 76.0,264.0 L 60.0,275.0 L 37.0,259.0 L 39.0,250.0 L 57.0,237.0 L 58.0,238.0 L 61.0,236.0 Z" fill="#442d18" />
  <path d="M 62.0,235.0 L 65.0,235.0 L 73.0,240.0 L 73.0,251.0 L 76.0,254.0 L 76.0,264.0 L 60.0,275.0 L 37.0,259.0 L 39.0,250.0 L 57.0,237.0 L 58.0,238.0 L 61.0,236.0 Z" fill="none" stroke="#000000" stroke-width="1.00" />
  <path d="M 215.0,60.0 L 236.0,72.0 L 234.0,85.0 L 227.0,92.0 L 226.0,97.0 L 218.0,103.0 L 213.0,104.0 L 207.0,102.0 L 193.0,89.0 L 193.0,72.0 L 214.0,61.0 Z" fill="#d14707" />
  <path d="M 215.0,60.0 L 236.0,72.0 L 234.0,85.0 L 227.0,92.0 L 226.0,97.0 L 218.0,103.0 L 213.0,104.0 L 207.0,102.0 L 193.0,89.0 L 193.0,72.0 L 214.0,61.0 Z" fill="none" stroke="#000000" stroke-width="1.00" />
  <path d="M 183.0,207.0 L 213.0,212.0 L 219.0,227.0 L 210.0,238.0 L 182.0,237.0 L 180.0,229.0 L 183.0,219.0 L 183.0,208.0 Z" fill="#ddd3ad" />
  <path d="M 183.0,207.0 L 213.0,212.0 L 219.0,227.0 L 210.0,238.0 L 182.0,237.0 L 180.0,229.0 L 183.0,219.0 L 183.0,208.0 Z" fill="none" stroke="#000000" stroke-width="1.00" />
  <path d="M 19.0,266.0 L 28.0,266.0 L 28.0,282.0 L 30.0,294.0 L 0.0,294.0 L 0.0,272.0 L 8.0,268.0 L 18.0,267.0 Z" fill="#1f0d05" />
  <path d="M 19.0,266.0 L 28.0,266.0 L 28.0,282.0 L 30.0,294.0 L 0.0,294.0 L 0.0,272.0 L 8.0,268.0 L 18.0,267.0 Z" fill="none" stroke="#000000" stroke-width="1.00" />
  <path d="M 112.0,262.0 L 126.0,268.0 L 136.0,277.0 L 133.0,293.0 L 126.0,294.0 L 112.0,282.0 L 109.0,266.0 L 109.0,264.0 L 111.0,263.0 Z" fill="#33c9ec" />
  <path d="M 112.0,262.0 L 126.0,268.0 L 136.0,277.0 L 133.0,293.0 L 126.0,294.0 L 112.0,282.0 L 109.0,266.0 L 109.0,264.0 L 111.0,263.0 Z" fill="none" stroke="#000000" stroke-width="1.00" />
  <path d="M 48.0,134.0 L 60.0,134.0 L 71.0,140.0 L 77.0,141.0 L 80.0,145.0 L 80.0,153.0 L 73.0,161.0 L 68.0,162.0 L 63.0,166.0 L 50.0,172.0 L 46.0,172.0 L 36.0,167.0 L 31.0,161.0 L 31.0,155.0 L 38.0,150.0 L 39.0,140.0 L 40.0,139.0 L 42.0,141.0 L 46.0,139.0 L 48.0,135.0 Z" fill="#cbb49e" />
  <path d="M 48.0,134.0 L 60.0,134.0 L 71.0,140.0 L 77.0,141.0 L 80.0,145.0 L 80.0,153.0 L 73.0,161.0 L 68.0,162.0 L 63.0,166.0 L 50.0,172.0 L 46.0,172.0 L 36.0,167.0 L 31.0,161.0 L 31.0,155.0 L 38.0,150.0 L 39.0,140.0 L 40.0,139.0 L 42.0,141.0 L 46.0,139.0 L 48.0,135.0 Z" fill="none" stroke="#000000" stroke-width="1.00" />
  <path d="M 121.0,174.0 L 125.0,179.0 L 129.0,192.0 L 137.0,207.0 L 136.0,210.0 L 131.0,210.0 L 126.0,213.0 L 105.0,212.0 L 92.0,192.0 L 94.0,187.0 L 105.0,186.0 L 118.0,179.0 L 120.0,175.0 Z" fill="#a8a077" />
  <path d="M 121.0,174.0 L 125.0,179.0 L 129.0,192.0 L 137.0,207.0 L 136.0,210.0 L 131.0,210.0 L 126.0,213.0 L 105.0,212.0 L 92.0,192.0 L 94.0,187.0 L 105.0,186.0 L 118.0,179.0 L 120.0,175.0 Z" fill="none" stroke="#000000" stroke-width="1.00" />
  <path d="M 294.0,260.0 L 282.0,266.0 L 283.0,273.0 L 287.0,281.0 L 285.0,294.0 L 294.0,294.0 L 294.0,262.0 Z" fill="#ce2e01" />
  <path d="M 294.0,260.0 L 282.0,266.0 L 283.0,273.0 L 287.0,281.0 L 285.0,294.0 L 294.0,294.0 L 294.0,262.0 Z" fill="none" stroke="#000000" stroke-width="1.00" />
  <path d="M 287.0,103.0 L 269.0,129.0 L 269.0,132.0 L 278.0,141.0 L 282.0,148.0 L 287.0,153.0 L 294.0,154.0 L 294.0,105.0 L 288.0,104.0 Z" fill="#130f0b" />
  <path d="M 287.0,103.0 L 269.0,129.0 L 269.0,132.0 L 278.0,141.0 L 282.0,148.0 L 287.0,153.0 L 294.0,154.0 L 294.0,105.0 L 288.0,104.0 Z" fill="none" stroke="#000000" stroke-width="1.00" />
  <path d="M 204.0,267.0 L 209.0,267.0 L 212.0,270.0 L 213.0,269.0 L 213.0,274.0 L 211.0,278.0 L 213.0,294.0 L 190.0,294.0 L 194.0,272.0 L 198.0,268.0 L 203.0,268.0 Z" fill="#019ef6" />
  <path d="M 204.0,267.0 L 209.0,267.0 L 212.0,270.0 L 213.0,269.0 L 213.0,274.0 L 211.0,278.0 L 213.0,294.0 L 190.0,294.0 L 194.0,272.0 L 198.0,268.0 L 203.0,268.0 Z" fill="none" stroke="#000000" stroke-width="1.00" />
  <path d="M 157.0,232.0 L 169.0,232.0 L 180.0,234.0 L 182.0,238.0 L 178.0,256.0 L 162.0,266.0 L 152.0,263.0 L 148.0,254.0 L 143.0,233.0 L 156.0,233.0 Z" fill="#cedccf" />
  <path d="M 157.0,232.0 L 169.0,232.0 L 180.0,234.0 L 182.0,238.0 L 178.0,256.0 L 162.0,266.0 L 152.0,263.0 L 148.0,254.0 L 143.0,233.0 L 156.0,233.0 Z" fill="none" stroke="#000000" stroke-width="1.00" />
  <path d="M 217.0,31.0 L 238.0,34.0 L 246.0,38.0 L 249.0,38.0 L 249.0,40.0 L 252.0,43.0 L 252.0,63.0 L 238.0,71.0 L 235.0,71.0 L 216.0,59.0 L 217.0,32.0 Z" fill="#c06e28" />
  <path d="M 217.0,31.0 L 238.0,34.0 L 246.0,38.0 L 249.0,38.0 L 249.0,40.0 L 252.0,43.0 L 252.0,63.0 L 238.0,71.0 L 235.0,71.0 L 216.0,59.0 L 217.0,32.0 Z" fill="none" stroke="#000000" stroke-width="1.00" />
  <path d="M 266.0,267.0 L 281.0,267.0 L 283.0,276.0 L 286.0,281.0 L 284.0,294.0 L 269.0,294.0 L 266.0,281.0 L 266.0,268.0 Z" fill="#cf2e01" />
  <path d="M 266.0,267.0 L 281.0,267.0 L 283.0,276.0 L 286.0,281.0 L 284.0,294.0 L 269.0,294.0 L 266.0,281.0 L 266.0,268.0 Z" fill="none" stroke="#000000" stroke-width="1.00" />
  <path d="M 112.0,67.0 L 118.0,69.0 L 130.0,98.0 L 109.0,110.0 L 90.0,98.0 L 90.0,79.0 L 111.0,68.0 Z" fill="#c93211" />
  <path d="M 112.0,67.0 L 118.0,69.0 L 130.0,98.0 L 109.0,110.0 L 90.0,98.0 L 90.0,79.0 L 111.0,68.0 Z" fill="none" stroke="#000000" stroke-width="1.00" />
  <path d="M 104.0,0.0 L 141.0,0.0 L 140.0,34.0 L 119.0,33.0 L 109.0,35.0 L 106.0,35.0 L 103.0,6.0 L 104.0,1.0 Z" fill="#0d0502" />
  <path d="M 104.0,0.0 L 141.0,0.0 L 140.0,34.0 L 119.0,33.0 L 109.0,35.0 L 106.0,35.0 L 103.0,6.0 L 104.0,1.0 Z" fill="none" stroke="#000000" stroke-width="1.00" />
  <path d="M 54.0,41.0 L 75.0,41.0 L 75.0,48.0 L 71.0,51.0 L 71.0,67.0 L 50.0,78.0 L 48.0,81.0 L 36.0,67.0 L 36.0,60.0 L 38.0,57.0 L 53.0,42.0 L 47.0,83.0 L 54.0,41.0 Z" fill="#563319" />
  <path d="M 54.0,41.0 L 75.0,41.0 L 75.0,48.0 L 71.0,51.0 L 71.0,67.0 L 50.0,78.0 L 48.0,81.0 L 36.0,67.0 L 36.0,60.0 L 38.0,57.0 L 53.0,42.0 L 47.0,83.0 L 54.0,41.0 Z" fill="none" stroke="#000000" stroke-width="1.00" />
  <path d="M 66.0,0.0 L 103.0,0.0 L 102.0,6.0 L 105.0,29.0 L 105.0,36.0 L 102.0,39.0 L 76.0,41.0 L 72.0,27.0 L 71.0,15.0 L 66.0,1.0 Z" fill="#150a06" />
  <path d="M 66.0,0.0 L 103.0,0.0 L 102.0,6.0 L 105.0,29.0 L 105.0,36.0 L 102.0,39.0 L 76.0,41.0 L 72.0,27.0 L 71.0,15.0 L 66.0,1.0 Z" fill="none" stroke="#000000" stroke-width="1.00" />
  <path d="M 130.0,99.0 L 139.0,101.0 L 140.0,103.0 L 140.0,114.0 L 145.0,132.0 L 143.0,137.0 L 111.0,137.0 L 109.0,120.0 L 110.0,110.0 L 129.0,100.0 Z" fill="#ca3714" />
  <path d="M 130.0,99.0 L 139.0,101.0 L 140.0,103.0 L 140.0,114.0 L 145.0,132.0 L 143.0,137.0 L 111.0,137.0 L 109.0,120.0 L 110.0,110.0 L 129.0,100.0 Z" fill="none" stroke="#000000" stroke-width="1.00" />
  <path d="M 241.0,132.0 L 243.0,132.0 L 250.0,149.0 L 262.0,167.0 L 245.0,173.0 L 236.0,178.0 L 234.0,177.0 L 231.0,169.0 L 219.0,150.0 L 218.0,146.0 L 230.0,134.0 L 240.0,133.0 Z" fill="#ddc292" />
  <path d="M 241.0,132.0 L 243.0,132.0 L 250.0,149.0 L 262.0,167.0 L 245.0,173.0 L 236.0,178.0 L 234.0,177.0 L 231.0,169.0 L 219.0,150.0 L 218.0,146.0 L 230.0,134.0 L 240.0,133.0 Z" fill="none" stroke="#000000" stroke-width="1.00" />
  <path d="M 91.0,40.0 L 103.0,40.0 L 105.0,48.0 L 109.0,54.0 L 112.0,66.0 L 90.0,78.0 L 82.0,74.0 L 72.0,66.0 L 72.0,51.0 L 76.0,48.0 L 76.0,42.0 L 90.0,41.0 Z" fill="#b63e09" />
  <path d="M 91.0,40.0 L 103.0,40.0 L 105.0,48.0 L 109.0,54.0 L 112.0,66.0 L 90.0,78.0 L 82.0,74.0 L 72.0,66.0 L 72.0,51.0 L 76.0,48.0 L 76.0,42.0 L 90.0,41.0 Z" fill="none" stroke="#000000" stroke-width="1.00" />
  <path d="M 276.0,192.0 L 266.0,206.0 L 273.0,224.0 L 276.0,229.0 L 294.0,232.0 L 294.0,193.0 L 276.0,192.0 Z" fill="#d93400" />
  <path d="M 276.0,192.0 L 266.0,206.0 L 273.0,224.0 L 276.0,229.0 L 294.0,232.0 L 294.0,193.0 L 276.0,192.0 Z" fill="none" stroke="#000000" stroke-width="1.00" />
  <path d="M 229.0,225.0 L 233.0,225.0 L 245.0,237.0 L 256.0,245.0 L 256.0,258.0 L 235.0,271.0 L 227.0,261.0 L 219.0,257.0 L 213.0,251.0 L 211.0,238.0 L 220.0,227.0 L 228.0,226.0 Z" fill="#d73502" />
  <path d="M 229.0,225.0 L 233.0,225.0 L 245.0,237.0 L 256.0,245.0 L 256.0,258.0 L 235.0,271.0 L 227.0,261.0 L 219.0,257.0 L 213.0,251.0 L 211.0,238.0 L 220.0,227.0 L 228.0,226.0 Z" fill="none" stroke="#000000" stroke-width="1.00" />
  <path d="M 110.0,138.0 L 143.0,138.0 L 147.0,162.0 L 144.0,162.0 L 139.0,167.0 L 121.0,173.0 L 120.0,168.0 L 116.0,162.0 L 108.0,155.0 L 104.0,147.0 L 104.0,145.0 L 109.0,139.0 Z" fill="#9f2809" />
  <path d="M 110.0,138.0 L 143.0,138.0 L 147.0,162.0 L 144.0,162.0 L 139.0,167.0 L 121.0,173.0 L 120.0,168.0 L 116.0,162.0 L 108.0,155.0 L 104.0,147.0 L 104.0,145.0 L 109.0,139.0 Z" fill="none" stroke="#000000" stroke-width="1.00" />
  <path d="M 219.0,259.0 L 227.0,262.0 L 235.0,272.0 L 242.0,285.0 L 244.0,294.0 L 214.0,294.0 L 212.0,282.0 L 214.0,269.0 L 212.0,269.0 L 209.0,266.0 L 218.0,260.0 Z" fill="#0ae1f5" />
  <path d="M 219.0,259.0 L 227.0,262.0 L 235.0,272.0 L 242.0,285.0 L 244.0,294.0 L 214.0,294.0 L 212.0,282.0 L 214.0,269.0 L 212.0,269.0 L 209.0,266.0 L 218.0,260.0 Z" fill="none" stroke="#000000" stroke-width="1.00" />
  <path d="M 177.0,257.0 L 179.0,257.0 L 195.0,269.0 L 191.0,280.0 L 189.0,294.0 L 168.0,294.0 L 166.0,281.0 L 162.0,269.0 L 164.0,265.0 L 176.0,258.0 Z" fill="#1fe5fb" />
  <path d="M 177.0,257.0 L 179.0,257.0 L 195.0,269.0 L 191.0,280.0 L 189.0,294.0 L 168.0,294.0 L 166.0,281.0 L 162.0,269.0 L 164.0,265.0 L 176.0,258.0 Z" fill="none" stroke="#000000" stroke-width="1.00" />
  <path d="M 37.0,0.0 L 65.0,0.0 L 70.0,15.0 L 71.0,27.0 L 74.0,37.0 L 74.0,40.0 L 54.0,40.0 L 36.0,21.0 L 37.0,1.0 Z" fill="#0d0603" />
  <path d="M 37.0,0.0 L 65.0,0.0 L 70.0,15.0 L 71.0,27.0 L 74.0,37.0 L 74.0,40.0 L 54.0,40.0 L 36.0,21.0 L 37.0,1.0 Z" fill="none" stroke="#000000" stroke-width="1.00" />
  <path d="M 183.0,238.0 L 210.0,239.0 L 212.0,251.0 L 220.0,258.0 L 212.0,262.0 L 208.0,266.0 L 195.0,268.0 L 179.0,256.0 L 182.0,246.0 L 182.0,239.0 Z" fill="#54b9ba" />
  <path d="M 183.0,238.0 L 210.0,239.0 L 212.0,251.0 L 220.0,258.0 L 212.0,262.0 L 208.0,266.0 L 195.0,268.0 L 179.0,256.0 L 182.0,246.0 L 182.0,239.0 Z" fill="none" stroke="#000000" stroke-width="1.00" />
  <path d="M 188.0,29.0 L 216.0,31.0 L 215.0,59.0 L 194.0,71.0 L 192.0,71.0 L 180.0,62.0 L 179.0,33.0 L 187.0,30.0 Z" fill="#e14304" />
  <path d="M 188.0,29.0 L 216.0,31.0 L 215.0,59.0 L 194.0,71.0 L 192.0,71.0 L 180.0,62.0 L 179.0,33.0 L 187.0,30.0 Z" fill="none" stroke="#000000" stroke-width="1.00" />
  <path d="M 209.0,104.0 L 216.0,105.0 L 230.0,133.0 L 217.0,146.0 L 212.0,143.0 L 209.0,143.0 L 205.0,139.0 L 203.0,133.0 L 184.0,126.0 L 202.0,114.0 L 209.0,105.0 Z" fill="#d66845" />
  <path d="M 209.0,104.0 L 216.0,105.0 L 230.0,133.0 L 217.0,146.0 L 212.0,143.0 L 209.0,143.0 L 205.0,139.0 L 203.0,133.0 L 184.0,126.0 L 202.0,114.0 L 209.0,105.0 Z" fill="none" stroke="#000000" stroke-width="1.00" />
  <path d="M 218.0,0.0 L 253.0,0.0 L 254.0,22.0 L 253.0,34.0 L 251.0,36.0 L 246.0,37.0 L 238.0,33.0 L 217.0,30.0 L 218.0,1.0 L 216.0,30.0 L 218.0,0.0 Z" fill="#2b261e" />
  <path d="M 218.0,0.0 L 253.0,0.0 L 254.0,22.0 L 253.0,34.0 L 251.0,36.0 L 246.0,37.0 L 238.0,33.0 L 217.0,30.0 L 218.0,1.0 L 216.0,30.0 L 218.0,0.0 Z" fill="none" stroke="#000000" stroke-width="1.00" />
  <path d="M 199.0,185.0 L 210.0,186.0 L 218.0,190.0 L 213.0,211.0 L 183.0,206.0 L 195.0,188.0 L 198.0,186.0 Z" fill="#e0ddd1" />
  <path d="M 199.0,185.0 L 210.0,186.0 L 218.0,190.0 L 213.0,211.0 L 183.0,206.0 L 195.0,188.0 L 198.0,186.0 Z" fill="none" stroke="#000000" stroke-width="1.00" />
  <path d="M 131.0,211.0 L 136.0,211.0 L 141.0,226.0 L 142.0,235.0 L 130.0,240.0 L 112.0,251.0 L 96.0,234.0 L 96.0,232.0 L 106.0,213.0 L 126.0,214.0 L 130.0,212.0 L 95.0,234.0 L 131.0,211.0 Z" fill="#ebeceb" />
  <path d="M 131.0,211.0 L 136.0,211.0 L 141.0,226.0 L 142.0,235.0 L 130.0,240.0 L 112.0,251.0 L 96.0,234.0 L 96.0,232.0 L 106.0,213.0 L 126.0,214.0 L 130.0,212.0 L 95.0,234.0 L 131.0,211.0 Z" fill="none" stroke="#000000" stroke-width="1.00" />
  <path d="M 152.0,264.0 L 162.0,267.0 L 161.0,271.0 L 163.0,273.0 L 167.0,294.0 L 134.0,294.0 L 137.0,277.0 L 151.0,265.0 L 133.0,294.0 L 152.0,264.0 Z" fill="#7d9ca2" />
  <path d="M 152.0,264.0 L 162.0,267.0 L 161.0,271.0 L 163.0,273.0 L 167.0,294.0 L 134.0,294.0 L 137.0,277.0 L 151.0,265.0 L 133.0,294.0 L 152.0,264.0 Z" fill="none" stroke="#000000" stroke-width="1.00" />
  <path d="M 176.0,33.0 L 178.0,33.0 L 179.0,63.0 L 158.0,70.0 L 142.0,57.0 L 141.0,46.0 L 142.0,39.0 L 144.0,37.0 L 168.0,36.0 L 175.0,34.0 Z" fill="#dc4707" />
  <path d="M 176.0,33.0 L 178.0,33.0 L 179.0,63.0 L 158.0,70.0 L 142.0,57.0 L 141.0,46.0 L 142.0,39.0 L 144.0,37.0 L 168.0,36.0 L 175.0,34.0 Z" fill="none" stroke="#000000" stroke-width="1.00" />
  <path d="M 283.0,153.0 L 294.0,155.0 L 294.0,192.0 L 276.0,191.0 L 276.0,187.0 L 264.0,168.0 L 277.0,160.0 L 279.0,156.0 L 282.0,154.0 Z" fill="#e07834" />
  <path d="M 283.0,153.0 L 294.0,155.0 L 294.0,192.0 L 276.0,191.0 L 276.0,187.0 L 264.0,168.0 L 277.0,160.0 L 279.0,156.0 L 282.0,154.0 Z" fill="none" stroke="#000000" stroke-width="1.00" />
  <path d="M 180.0,0.0 L 217.0,0.0 L 215.0,30.0 L 188.0,28.0 L 181.0,31.0 L 180.0,1.0 Z" fill="#20110a" />
  <path d="M 180.0,0.0 L 217.0,0.0 L 215.0,30.0 L 188.0,28.0 L 181.0,31.0 L 180.0,1.0 Z" fill="none" stroke="#000000" stroke-width="1.00" />
  <path d="M 141.0,166.0 L 151.0,166.0 L 160.0,170.0 L 161.0,196.0 L 147.0,204.0 L 139.0,207.0 L 137.0,206.0 L 123.0,174.0 L 130.0,170.0 L 140.0,167.0 Z" fill="#c0b88c" />
  <path d="M 141.0,166.0 L 151.0,166.0 L 160.0,170.0 L 161.0,196.0 L 147.0,204.0 L 139.0,207.0 L 137.0,206.0 L 123.0,174.0 L 130.0,170.0 L 140.0,167.0 Z" fill="none" stroke="#000000" stroke-width="1.00" />
  <path d="M 182.0,127.0 L 203.0,134.0 L 204.0,139.0 L 209.0,144.0 L 212.0,144.0 L 215.0,147.0 L 193.0,165.0 L 179.0,161.0 L 179.0,148.0 L 176.0,142.0 L 175.0,133.0 L 177.0,128.0 L 181.0,128.0 Z" fill="#c3bc9a" />
  <path d="M 182.0,127.0 L 203.0,134.0 L 204.0,139.0 L 209.0,144.0 L 212.0,144.0 L 215.0,147.0 L 193.0,165.0 L 179.0,161.0 L 179.0,148.0 L 176.0,142.0 L 175.0,133.0 L 177.0,128.0 L 181.0,128.0 Z" fill="none" stroke="#000000" stroke-width="1.00" />
  <path d="M 0.0,0.0 L 36.0,0.0 L 35.0,21.0 L 21.0,38.0 L 0.0,38.0 L 0.0,1.0 Z" fill="#120a07" />
  <path d="M 0.0,0.0 L 36.0,0.0 L 35.0,21.0 L 21.0,38.0 L 0.0,38.0 L 0.0,1.0 Z" fill="none" stroke="#000000" stroke-width="1.00" />
  <path d="M 0.0,100.0 L 18.0,100.0 L 30.0,103.0 L 27.0,129.0 L 0.0,130.0 L 0.0,101.0 Z" fill="#110703" />
  <path d="M 0.0,100.0 L 18.0,100.0 L 30.0,103.0 L 27.0,129.0 L 0.0,130.0 L 0.0,101.0 Z" fill="none" stroke="#000000" stroke-width="1.00" />
  <path d="M 230.0,90.0 L 238.0,93.0 L 249.0,101.0 L 249.0,119.0 L 251.0,124.0 L 243.0,131.0 L 231.0,133.0 L 230.0,132.0 L 217.0,106.0 L 217.0,104.0 L 227.0,97.0 L 229.0,91.0 Z" fill="#713822" />
  <path d="M 230.0,90.0 L 238.0,93.0 L 249.0,101.0 L 249.0,119.0 L 251.0,124.0 L 243.0,131.0 L 231.0,133.0 L 230.0,132.0 L 217.0,106.0 L 217.0,104.0 L 227.0,97.0 L 229.0,91.0 Z" fill="none" stroke="#000000" stroke-width="1.00" />
  <path d="M 37.0,169.0 L 30.0,182.0 L 20.0,194.0 L 30.0,212.0 L 44.0,212.0 L 50.0,210.0 L 57.0,210.0 L 60.0,204.0 L 60.0,200.0 L 58.0,198.0 L 48.0,173.0 L 37.0,169.0 Z" fill="#c2aa6f" />
  <path d="M 37.0,169.0 L 30.0,182.0 L 20.0,194.0 L 30.0,212.0 L 44.0,212.0 L 50.0,210.0 L 57.0,210.0 L 60.0,204.0 L 60.0,200.0 L 58.0,198.0 L 48.0,173.0 L 37.0,169.0 Z" fill="none" stroke="#000000" stroke-width="1.00" />
  <path d="M 142.0,0.0 L 179.0,0.0 L 180.0,30.0 L 179.0,32.0 L 168.0,35.0 L 153.0,35.0 L 143.0,37.0 L 141.0,35.0 L 142.0,1.0 Z" fill="#150803" />
  <path d="M 142.0,0.0 L 179.0,0.0 L 180.0,30.0 L 179.0,32.0 L 168.0,35.0 L 153.0,35.0 L 143.0,37.0 L 141.0,35.0 L 142.0,1.0 Z" fill="none" stroke="#000000" stroke-width="1.00" />
  <path d="M 253.0,35.0 L 266.0,36.0 L 280.0,49.0 L 291.0,62.0 L 268.0,72.0 L 257.0,67.0 L 253.0,64.0 L 253.0,43.0 L 250.0,40.0 L 250.0,37.0 L 252.0,36.0 Z" fill="#2b2217" />
  <path d="M 253.0,35.0 L 266.0,36.0 L 280.0,49.0 L 291.0,62.0 L 268.0,72.0 L 257.0,67.0 L 253.0,64.0 L 253.0,43.0 L 250.0,40.0 L 250.0,37.0 L 252.0,36.0 Z" fill="none" stroke="#000000" stroke-width="1.00" />
  <path d="M 178.0,162.0 L 192.0,166.0 L 193.0,172.0 L 199.0,184.0 L 194.0,188.0 L 184.0,203.0 L 182.0,205.0 L 174.0,199.0 L 162.0,195.0 L 161.0,171.0 L 177.0,163.0 Z" fill="#efefcb" />
  <path d="M 178.0,162.0 L 192.0,166.0 L 193.0,172.0 L 199.0,184.0 L 194.0,188.0 L 184.0,203.0 L 182.0,205.0 L 174.0,199.0 L 162.0,195.0 L 161.0,171.0 L 177.0,163.0 Z" fill="none" stroke="#000000" stroke-width="1.00" />
  <path d="M 107.0,265.0 L 109.0,267.0 L 111.0,282.0 L 124.0,294.0 L 92.0,294.0 L 90.0,275.0 L 99.0,271.0 L 105.0,266.0 L 125.0,294.0 L 107.0,265.0 Z" fill="#0298e3" />
  <path d="M 107.0,265.0 L 109.0,267.0 L 111.0,282.0 L 124.0,294.0 L 92.0,294.0 L 90.0,275.0 L 99.0,271.0 L 105.0,266.0 L 125.0,294.0 L 107.0,265.0 Z" fill="none" stroke="#000000" stroke-width="1.00" />
  <path d="M 36.0,259.0 L 29.0,266.0 L 29.0,282.0 L 31.0,294.0 L 59.0,294.0 L 58.0,290.0 L 60.0,276.0 L 37.0,260.0 Z" fill="#271006" />
  <path d="M 36.0,259.0 L 29.0,266.0 L 29.0,282.0 L 31.0,294.0 L 59.0,294.0 L 58.0,290.0 L 60.0,276.0 L 37.0,260.0 Z" fill="none" stroke="#000000" stroke-width="1.00" />
  <path d="M 254.0,0.0 L 294.0,0.0 L 294.0,21.0 L 266.0,35.0 L 254.0,34.0 L 254.0,1.0 Z" fill="#1f1710" />
  <path d="M 254.0,0.0 L 294.0,0.0 L 294.0,21.0 L 266.0,35.0 L 254.0,34.0 L 254.0,1.0 Z" fill="none" stroke="#000000" stroke-width="1.00" />
  <path d="M 26.0,161.0 L 30.0,161.0 L 35.0,166.0 L 36.0,170.0 L 29.0,182.0 L 20.0,193.0 L 0.0,193.0 L 0.0,162.0 L 25.0,162.0 Z" fill="#644f39" />
  <path d="M 26.0,161.0 L 30.0,161.0 L 35.0,166.0 L 36.0,170.0 L 29.0,182.0 L 20.0,193.0 L 0.0,193.0 L 0.0,162.0 L 25.0,162.0 Z" fill="none" stroke="#000000" stroke-width="1.00" />
  <path d="M 268.0,93.0 L 250.0,101.0 L 251.0,123.0 L 266.0,126.0 L 268.0,129.0 L 285.0,105.0 L 285.0,102.0 L 269.0,94.0 Z" fill="#1f1a15" />
  <path d="M 268.0,93.0 L 250.0,101.0 L 251.0,123.0 L 266.0,126.0 L 268.0,129.0 L 285.0,105.0 L 285.0,102.0 L 269.0,94.0 Z" fill="none" stroke="#000000" stroke-width="1.00" />
  <path d="M 216.0,147.0 L 230.0,169.0 L 234.0,180.0 L 219.0,189.0 L 210.0,185.0 L 199.0,183.0 L 194.0,172.0 L 193.0,166.0 L 215.0,148.0 Z" fill="#c7b170" />
  <path d="M 216.0,147.0 L 230.0,169.0 L 234.0,180.0 L 219.0,189.0 L 210.0,185.0 L 199.0,183.0 L 194.0,172.0 L 193.0,166.0 L 215.0,148.0 Z" fill="none" stroke="#000000" stroke-width="1.00" />
  <path d="M 50.0,211.0 L 57.0,211.0 L 57.0,215.0 L 61.0,223.0 L 63.0,234.0 L 58.0,237.0 L 57.0,236.0 L 38.0,250.0 L 20.0,231.0 L 30.0,213.0 L 49.0,212.0 Z" fill="#634d2f" />
  <path d="M 50.0,211.0 L 57.0,211.0 L 57.0,215.0 L 61.0,223.0 L 63.0,234.0 L 58.0,237.0 L 57.0,236.0 L 38.0,250.0 L 20.0,231.0 L 30.0,213.0 L 49.0,212.0 Z" fill="none" stroke="#000000" stroke-width="1.00" />
  <path d="M 275.0,230.0 L 294.0,233.0 L 294.0,259.0 L 281.0,266.0 L 266.0,266.0 L 257.0,257.0 L 257.0,245.0 L 274.0,231.0 Z" fill="#cf2e00" />
  <path d="M 275.0,230.0 L 294.0,233.0 L 294.0,259.0 L 281.0,266.0 L 266.0,266.0 L 257.0,257.0 L 257.0,245.0 L 274.0,231.0 Z" fill="none" stroke="#000000" stroke-width="1.00" />
  <path d="M 153.0,90.0 L 169.0,99.0 L 172.0,103.0 L 173.0,108.0 L 171.0,110.0 L 173.0,112.0 L 174.0,124.0 L 176.0,128.0 L 159.0,131.0 L 145.0,131.0 L 141.0,114.0 L 140.0,101.0 L 143.0,99.0 L 145.0,95.0 L 152.0,91.0 Z" fill="#7d7977" />
  <path d="M 153.0,90.0 L 169.0,99.0 L 172.0,103.0 L 173.0,108.0 L 171.0,110.0 L 173.0,112.0 L 174.0,124.0 L 176.0,128.0 L 159.0,131.0 L 145.0,131.0 L 141.0,114.0 L 140.0,101.0 L 143.0,99.0 L 145.0,95.0 L 152.0,91.0 Z" fill="none" stroke="#000000" stroke-width="1.00" />
  <path d="M 76.0,265.0 L 61.0,276.0 L 59.0,290.0 L 60.0,294.0 L 91.0,294.0 L 89.0,275.0 L 77.0,266.0 Z" fill="#143c55" />
  <path d="M 76.0,265.0 L 61.0,276.0 L 59.0,290.0 L 60.0,294.0 L 91.0,294.0 L 89.0,275.0 L 77.0,266.0 Z" fill="none" stroke="#000000" stroke-width="1.00" />
  <path d="M 0.0,194.0 L 19.0,194.0 L 29.0,212.0 L 19.0,231.0 L 1.0,231.0 L 0.0,195.0 Z" fill="#3e2915" />
  <path d="M 0.0,194.0 L 19.0,194.0 L 29.0,212.0 L 19.0,231.0 L 1.0,231.0 L 0.0,195.0 Z" fill="none" stroke="#000000" stroke-width="1.00" />
  <path d="M 88.0,99.0 L 91.0,99.0 L 109.0,111.0 L 108.0,120.0 L 110.0,137.0 L 105.0,143.0 L 103.0,145.0 L 84.0,146.0 L 81.0,145.0 L 76.0,138.0 L 76.0,135.0 L 79.0,132.0 L 80.0,107.0 L 87.0,100.0 Z" fill="#af462c" />
  <path d="M 88.0,99.0 L 91.0,99.0 L 109.0,111.0 L 108.0,120.0 L 110.0,137.0 L 105.0,143.0 L 103.0,145.0 L 84.0,146.0 L 81.0,145.0 L 76.0,138.0 L 76.0,135.0 L 79.0,132.0 L 80.0,107.0 L 87.0,100.0 Z" fill="none" stroke="#000000" stroke-width="1.00" />
  <path d="M 290.0,63.0 L 294.0,63.0 L 294.0,104.0 L 288.0,103.0 L 269.0,93.0 L 269.0,72.0 L 289.0,64.0 Z" fill="#1b140e" />
  <path d="M 290.0,63.0 L 294.0,63.0 L 294.0,104.0 L 288.0,103.0 L 269.0,93.0 L 269.0,72.0 L 289.0,64.0 Z" fill="none" stroke="#000000" stroke-width="1.00" />
  <path d="M 32.0,67.0 L 35.0,67.0 L 47.0,82.0 L 45.0,93.0 L 42.0,96.0 L 30.0,102.0 L 18.0,99.0 L 0.0,99.0 L 0.0,70.0 L 17.0,71.0 L 31.0,68.0 Z" fill="#0c0503" />
  <path d="M 32.0,67.0 L 35.0,67.0 L 47.0,82.0 L 45.0,93.0 L 42.0,96.0 L 30.0,102.0 L 18.0,99.0 L 0.0,99.0 L 0.0,70.0 L 17.0,71.0 L 31.0,68.0 Z" fill="none" stroke="#000000" stroke-width="1.00" />
  <path d="M 141.0,57.0 L 119.0,69.0 L 131.0,98.0 L 140.0,100.0 L 145.0,94.0 L 152.0,90.0 L 154.0,85.0 L 154.0,77.0 L 158.0,72.0 L 155.0,68.0 L 142.0,58.0 Z" fill="#c94121" />
  <path d="M 141.0,57.0 L 119.0,69.0 L 131.0,98.0 L 140.0,100.0 L 145.0,94.0 L 152.0,90.0 L 154.0,85.0 L 154.0,77.0 L 158.0,72.0 L 155.0,68.0 L 142.0,58.0 Z" fill="none" stroke="#000000" stroke-width="1.00" />
  <path d="M 2.0,38.0 L 21.0,39.0 L 35.0,60.0 L 35.0,66.0 L 17.0,70.0 L 0.0,69.0 L 1.0,39.0 Z" fill="#050201" />
  <path d="M 2.0,38.0 L 21.0,39.0 L 35.0,60.0 L 35.0,66.0 L 17.0,70.0 L 0.0,69.0 L 1.0,39.0 Z" fill="none" stroke="#000000" stroke-width="1.00" />
  <path d="M 233.0,182.0 L 221.0,188.0 L 218.0,191.0 L 214.0,213.0 L 219.0,223.0 L 219.0,226.0 L 233.0,224.0 L 247.0,208.0 L 243.0,197.0 L 234.0,183.0 Z" fill="#bd8349" />
  <path d="M 233.0,182.0 L 221.0,188.0 L 218.0,191.0 L 214.0,213.0 L 219.0,223.0 L 219.0,226.0 L 233.0,224.0 L 247.0,208.0 L 243.0,197.0 L 234.0,183.0 Z" fill="none" stroke="#000000" stroke-width="1.00" />
  <path d="M 56.0,100.0 L 79.0,104.0 L 78.0,132.0 L 75.0,135.0 L 74.0,139.0 L 71.0,139.0 L 60.0,133.0 L 48.0,133.0 L 50.0,111.0 L 55.0,101.0 L 76.0,139.0 L 75.0,140.0 L 77.0,140.0 L 56.0,100.0 Z" fill="#b6b1ae" />
  <path d="M 56.0,100.0 L 79.0,104.0 L 78.0,132.0 L 75.0,135.0 L 74.0,139.0 L 71.0,139.0 L 60.0,133.0 L 48.0,133.0 L 50.0,111.0 L 55.0,101.0 L 76.0,139.0 L 75.0,140.0 L 77.0,140.0 L 56.0,100.0 Z" fill="none" stroke="#000000" stroke-width="1.00" />
  <path d="M 265.0,206.0 L 257.0,208.0 L 248.0,208.0 L 235.0,222.0 L 234.0,225.0 L 251.0,241.0 L 257.0,244.0 L 275.0,229.0 L 266.0,207.0 Z" fill="#cf3403" />
  <path d="M 265.0,206.0 L 257.0,208.0 L 248.0,208.0 L 235.0,222.0 L 234.0,225.0 L 251.0,241.0 L 257.0,244.0 L 275.0,229.0 L 266.0,207.0 Z" fill="none" stroke="#000000" stroke-width="1.00" />
  <path d="M 251.0,125.0 L 266.0,127.0 L 268.0,132.0 L 277.0,141.0 L 284.0,151.0 L 278.0,156.0 L 277.0,159.0 L 263.0,167.0 L 251.0,149.0 L 244.0,134.0 L 244.0,131.0 L 250.0,126.0 L 285.0,152.0 L 251.0,125.0 Z" fill="#e2d9bd" />
  <path d="M 251.0,125.0 L 266.0,127.0 L 268.0,132.0 L 277.0,141.0 L 284.0,151.0 L 278.0,156.0 L 277.0,159.0 L 263.0,167.0 L 251.0,149.0 L 244.0,134.0 L 244.0,131.0 L 250.0,126.0 L 285.0,152.0 L 251.0,125.0 Z" fill="none" stroke="#000000" stroke-width="1.00" />
  <path d="M 141.0,236.0 L 143.0,238.0 L 151.0,264.0 L 136.0,276.0 L 126.0,267.0 L 112.0,261.0 L 112.0,252.0 L 130.0,241.0 L 140.0,237.0 Z" fill="#dcd8cf" />
  <path d="M 141.0,236.0 L 143.0,238.0 L 151.0,264.0 L 136.0,276.0 L 126.0,267.0 L 112.0,261.0 L 112.0,252.0 L 130.0,241.0 L 140.0,237.0 Z" fill="none" stroke="#000000" stroke-width="1.00" />
  <path d="M 91.0,193.0 L 96.0,198.0 L 99.0,206.0 L 105.0,213.0 L 95.0,233.0 L 79.0,238.0 L 75.0,237.0 L 72.0,239.0 L 64.0,234.0 L 62.0,223.0 L 58.0,215.0 L 58.0,209.0 L 62.0,203.0 L 68.0,203.0 L 90.0,194.0 Z" fill="#dbdacb" />
  <path d="M 91.0,193.0 L 96.0,198.0 L 99.0,206.0 L 105.0,213.0 L 95.0,233.0 L 79.0,238.0 L 75.0,237.0 L 72.0,239.0 L 64.0,234.0 L 62.0,223.0 L 58.0,215.0 L 58.0,209.0 L 62.0,203.0 L 68.0,203.0 L 90.0,194.0 Z" fill="none" stroke="#000000" stroke-width="1.00" />
  <path d="M 293.0,22.0 L 294.0,62.0 L 292.0,62.0 L 281.0,49.0 L 267.0,36.0 L 292.0,23.0 Z" fill="#201710" />
  <path d="M 293.0,22.0 L 294.0,62.0 L 292.0,62.0 L 281.0,49.0 L 267.0,36.0 L 292.0,23.0 Z" fill="none" stroke="#000000" stroke-width="1.00" />
  <path d="M 257.0,258.0 L 236.0,271.0 L 245.0,290.0 L 245.0,294.0 L 268.0,294.0 L 265.0,281.0 L 265.0,266.0 L 258.0,259.0 Z" fill="#d23606" />
  <path d="M 257.0,258.0 L 236.0,271.0 L 245.0,290.0 L 245.0,294.0 L 268.0,294.0 L 265.0,281.0 L 265.0,266.0 L 258.0,259.0 Z" fill="none" stroke="#000000" stroke-width="1.00" />
  <path d="M 74.0,161.0 L 49.0,173.0 L 61.0,202.0 L 68.0,202.0 L 86.0,195.0 L 90.0,193.0 L 93.0,189.0 L 80.0,164.0 L 75.0,162.0 L 61.0,203.0 L 74.0,161.0 Z" fill="#e7e2b5" />
  <path d="M 74.0,161.0 L 49.0,173.0 L 61.0,202.0 L 68.0,202.0 L 86.0,195.0 L 90.0,193.0 L 93.0,189.0 L 80.0,164.0 L 75.0,162.0 L 61.0,203.0 L 74.0,161.0 Z" fill="none" stroke="#000000" stroke-width="1.00" />
  <path d="M 162.0,196.0 L 147.0,205.0 L 137.0,209.0 L 137.0,213.0 L 143.0,232.0 L 179.0,232.0 L 182.0,219.0 L 182.0,206.0 L 174.0,200.0 L 163.0,197.0 Z" fill="#efefea" />
  <path d="M 162.0,196.0 L 147.0,205.0 L 137.0,209.0 L 137.0,213.0 L 143.0,232.0 L 179.0,232.0 L 182.0,219.0 L 182.0,206.0 L 174.0,200.0 L 163.0,197.0 Z" fill="none" stroke="#000000" stroke-width="1.00" />
  <path d="M 119.0,34.0 L 140.0,35.0 L 142.0,37.0 L 140.0,46.0 L 141.0,56.0 L 119.0,68.0 L 114.0,67.0 L 112.0,65.0 L 110.0,54.0 L 106.0,48.0 L 103.0,39.0 L 106.0,36.0 L 118.0,35.0 Z" fill="#b2510d" />
  <path d="M 119.0,34.0 L 140.0,35.0 L 142.0,37.0 L 140.0,46.0 L 141.0,56.0 L 119.0,68.0 L 114.0,67.0 L 112.0,65.0 L 110.0,54.0 L 106.0,48.0 L 103.0,39.0 L 106.0,36.0 L 118.0,35.0 Z" fill="none" stroke="#000000" stroke-width="1.00" />
  <path d="M 192.0,90.0 L 208.0,103.0 L 204.0,111.0 L 181.0,127.0 L 177.0,127.0 L 175.0,124.0 L 174.0,112.0 L 172.0,110.0 L 174.0,108.0 L 174.0,105.0 L 171.0,100.0 L 191.0,91.0 Z" fill="#ceb5ad" />
  <path d="M 192.0,90.0 L 208.0,103.0 L 204.0,111.0 L 181.0,127.0 L 177.0,127.0 L 175.0,124.0 L 174.0,112.0 L 172.0,110.0 L 174.0,108.0 L 174.0,105.0 L 171.0,100.0 L 191.0,91.0 Z" fill="none" stroke="#000000" stroke-width="1.00" />
  <path d="M 35.0,22.0 L 53.0,40.0 L 37.0,58.0 L 34.0,58.0 L 22.0,39.0 L 34.0,23.0 Z" fill="#1d100b" />
  <path d="M 35.0,22.0 L 53.0,40.0 L 37.0,58.0 L 34.0,58.0 L 22.0,39.0 L 34.0,23.0 Z" fill="none" stroke="#000000" stroke-width="1.00" />
  <path d="M 262.0,168.0 L 264.0,169.0 L 275.0,187.0 L 275.0,193.0 L 267.0,204.0 L 264.0,206.0 L 248.0,207.0 L 244.0,197.0 L 234.0,182.0 L 235.0,179.0 L 245.0,174.0 L 261.0,169.0 Z" fill="#cba457" />
  <path d="M 262.0,168.0 L 264.0,169.0 L 275.0,187.0 L 275.0,193.0 L 267.0,204.0 L 264.0,206.0 L 248.0,207.0 L 244.0,197.0 L 234.0,182.0 L 235.0,179.0 L 245.0,174.0 L 261.0,169.0 Z" fill="none" stroke="#000000" stroke-width="1.00" />
  <path d="M 81.0,146.0 L 103.0,146.0 L 107.0,155.0 L 115.0,162.0 L 119.0,168.0 L 120.0,173.0 L 118.0,178.0 L 105.0,185.0 L 93.0,186.0 L 88.0,179.0 L 81.0,164.0 L 75.0,161.0 L 75.0,159.0 L 81.0,153.0 L 81.0,147.0 Z" fill="#5a271a" />
  <path d="M 81.0,146.0 L 103.0,146.0 L 107.0,155.0 L 115.0,162.0 L 119.0,168.0 L 120.0,173.0 L 118.0,178.0 L 105.0,185.0 L 93.0,186.0 L 88.0,179.0 L 81.0,164.0 L 75.0,161.0 L 75.0,159.0 L 81.0,153.0 L 81.0,147.0 Z" fill="none" stroke="#000000" stroke-width="1.00" />
</svg>