<svg width="256" height="256" viewBox="0 0 256 256" xmlns="http://www.w3.org/2000/svg" shape-rendering="geometricPrecision">
  <path d="M 42.00 28.00 L 52.00 28.00 L 58.00 30.00 L 64.00 36.00 L 63.00 41.00 L 63.00 34.00 L 40.00 29.00 L 34.00 36.00 L 37.00 49.00 L 34.00 41.00 L 35.00 33.00" fill="none" stroke="#000000" stroke-width="0.50" />
  <path d="M 57.00 35.00 L 60.00 39.00 L 59.00 36.00 L 57.00 36.00 L 58.00 35.00" fill="none" stroke="#000000" stroke-width="0.50" />
  <path d="M 54.00 42.00 L 62.00 50.00 L 61.00 47.00 L 56.00 43.00 L 57.00 42.00 L 62.00 43.00 L 67.00 48.00 L 63.00 43.00 L 54.00 43.00" fill="none" stroke="#000000" stroke-width="0.50" />
  <path d="M 100.00 44.00 L 113.00 52.00 L 119.00 58.00 L 118.00 67.00 L 110.00 75.00 L 112.00 79.00 L 128.00 81.00 L 135.00 84.00 L 151.00 85.00 L 153.00 87.00 L 157.00 84.00 L 160.00 85.00 L 162.00 83.00 L 170.00 83.00 L 174.00 86.00 L 186.00 88.00 L 191.00 92.00 L 190.00 90.00 L 161.00 83.00 L 156.00 84.00 L 152.00 87.00 L 123.00 80.00 L 111.00 79.00 L 109.00 74.00 L 106.00 72.00 L 118.00 64.00 L 118.00 56.00 L 107.00 48.00 L 106.00 49.00 L 103.00 44.00 L 96.00 47.00 L 91.00 45.00 L 84.00 50.00" fill="none" stroke="#000000" stroke-width="0.50" />
  <path d="M 103.00 51.00 L 96.00 61.00 L 95.00 68.00 L 97.00 57.00 L 101.00 52.00" fill="none" stroke="#000000" stroke-width="0.50" />
  <path d="M 84.00 53.00 L 92.00 58.00 L 93.00 64.00 L 91.00 56.00 L 88.00 54.00 L 85.00 55.00 L 85.00 53.00" fill="none" stroke="#000000" stroke-width="0.50" />
  <path d="M 52.00 55.00 L 56.00 59.00 L 54.00 59.00 L 52.00 56.00" fill="none" stroke="#000000" stroke-width="0.50" />
  <path d="M 111.00 56.00 L 114.00 59.00 L 115.00 64.00 L 113.00 59.00" fill="none" stroke="#000000" stroke-width="0.50" />
  <path d="M 35.00 58.00 L 41.00 67.00 L 35.00 59.00" fill="none" stroke="#000000" stroke-width="0.50" />
  <path d="M 109.00 59.00 L 108.00 62.00 L 110.00 64.00 L 113.00 64.00 L 110.00 65.00 L 108.00 61.00 L 105.00 64.00" fill="none" stroke="#000000" stroke-width="0.50" />
  <path d="M 59.00 60.00 L 62.00 61.00 L 55.00 62.00" fill="none" stroke="#000000" stroke-width="0.50" />
  <path d="M 88.00 63.00 L 90.00 64.00 L 88.00 65.00 L 89.00 66.00 L 85.00 69.00 L 87.00 64.00" fill="none" stroke="#000000" stroke-width="0.50" />
  <path d="M 79.00 67.00 L 74.00 79.00 L 76.00 72.00" fill="none" stroke="#000000" stroke-width="0.50" />
  <path d="M 81.00 69.00 L 86.00 74.00 L 84.00 79.00 L 86.00 72.00" fill="none" stroke="#000000" stroke-width="0.50" />
  <path d="M 32.00 70.00 L 37.00 73.00 L 56.00 73.00 L 63.00 70.00 L 69.00 71.00 L 67.00 72.00 L 62.00 70.00 L 36.00 73.00 L 30.00 71.00 L 26.00 74.00 L 24.00 80.00 L 24.00 78.00 L 23.00 80.00 L 17.00 82.00 L 18.00 84.00 L 15.00 83.00 L 25.00 76.00" fill="none" stroke="#000000" stroke-width="0.50" />
  <path d="M 95.00 71.00 L 98.00 74.00 L 102.00 74.00 L 96.00 73.00 L 96.00 71.00" fill="none" stroke="#000000" stroke-width="0.50" />
  <path d="M 64.00 74.00 L 58.00 77.00 L 55.00 82.00 L 56.00 92.00 L 54.00 84.00" fill="none" stroke="#000000" stroke-width="0.50" />
  <path d="M 104.00 76.00 L 110.00 84.00 L 111.00 88.00 L 117.00 94.00 L 114.00 90.00 L 116.00 88.00 L 122.00 88.00 L 126.00 90.00 L 115.00 88.00 L 112.00 90.00 L 104.00 77.00" fill="none" stroke="#000000" stroke-width="0.50" />
  <path d="M 33.00 80.00 L 39.00 82.00 L 44.00 80.00 L 33.00 81.00 L 31.00 85.00 L 32.00 81.00 L 30.00 82.00 L 31.00 88.00" fill="none" stroke="#000000" stroke-width="0.50" />
  <path d="M 72.00 80.00 L 71.00 88.00 L 73.00 93.00 L 71.00 87.00" fill="none" stroke="#000000" stroke-width="0.50" />
  <path d="M 24.00 82.00 L 32.00 98.00 L 35.00 101.00 L 35.00 106.00 L 38.00 110.00 L 35.00 108.00 L 35.00 100.00 L 30.00 95.00 L 24.00 84.00" fill="none" stroke="#000000" stroke-width="0.50" />
  <path d="M 83.00 82.00 L 89.00 84.00 L 80.00 83.00" fill="none" stroke="#000000" stroke-width="0.50" />
  <path d="M 99.00 83.00 L 94.00 88.00 L 96.00 90.00 L 96.00 94.00 L 94.00 89.00" fill="none" stroke="#000000" stroke-width="0.50" />
  <path d="M 11.00 84.00 L 13.00 86.00 L 14.00 85.00 L 10.00 85.00 L 6.00 88.00 L 3.00 95.00 L 3.00 100.00 L 3.00 93.00 L 5.00 89.00" fill="none" stroke="#000000" stroke-width="0.50" />
  <path d="M 80.00 85.00 L 84.00 87.00 L 84.00 90.00 L 87.00 90.00 L 88.00 86.00 L 83.00 90.00 L 83.00 88.00" fill="none" stroke="#000000" stroke-width="0.50" />
  <path d="M 126.00 85.00 L 130.00 88.00 L 131.00 97.00 L 133.00 98.00 L 135.00 95.00 L 133.00 90.00 L 132.00 99.00 L 135.00 100.00 L 131.00 100.00 L 130.00 96.00 L 129.00 100.00 L 129.00 88.00" fill="none" stroke="#000000" stroke-width="0.50" />
  <path d="M 167.00 86.00 L 169.00 88.00 L 169.00 100.00 L 168.00 88.00" fill="none" stroke="#000000" stroke-width="0.50" />
  <path d="M 12.00 88.00 L 12.00 97.00 L 16.00 101.00 L 25.00 102.00 L 29.00 106.00 L 30.00 105.00 L 28.00 107.00 L 30.00 109.00 L 25.00 109.00 L 25.00 107.00 L 21.00 104.00 L 24.00 109.00 L 28.00 106.00 L 27.00 105.00 L 29.00 103.00 L 26.00 102.00 L 25.00 105.00 L 12.00 98.00 L 11.00 89.00" fill="none" stroke="#000000" stroke-width="0.50" />
  <path d="M 175.00 90.00 L 172.00 101.00 L 174.00 91.00" fill="none" stroke="#000000" stroke-width="0.50" />
  <path d="M 65.00 91.00 L 65.00 93.00 L 67.00 94.00 L 65.00 99.00 L 67.00 101.00 L 70.00 99.00 L 74.00 102.00 L 73.00 100.00 L 70.00 102.00 L 72.00 95.00 L 67.00 103.00 L 64.00 103.00 L 64.00 93.00" fill="none" stroke="#000000" stroke-width="0.50" />
  <path d="M 182.00 91.00 L 185.00 95.00 L 187.00 105.00 L 190.00 106.00 L 190.00 102.00 L 187.00 106.00 L 183.00 93.00" fill="none" stroke="#000000" stroke-width="0.50" />
  <path d="M 126.00 92.00 L 123.00 97.00 L 124.00 99.00 L 121.00 97.00 L 125.00 93.00" fill="none" stroke="#000000" stroke-width="0.50" />
  <path d="M 40.00 93.00 L 46.00 97.00 L 45.00 93.00 L 40.00 94.00 L 41.00 96.00" fill="none" stroke="#000000" stroke-width="0.50" />
  <path d="M 105.00 95.00 L 109.00 97.00 L 107.00 101.00 L 109.00 95.00 L 105.00 96.00" fill="none" stroke="#000000" stroke-width="0.50" />
  <path d="M 119.00 95.00 L 118.00 99.00 L 118.00 96.00 L 116.00 100.00 L 114.00 100.00 L 114.00 98.00 L 113.00 100.00 L 113.00 98.00" fill="none" stroke="#000000" stroke-width="0.50" />
  <path d="M 57.00 97.00 L 54.00 102.00 L 55.00 105.00 L 53.00 106.00 L 53.00 104.00 L 52.00 106.00 L 54.00 101.00" fill="none" stroke="#000000" stroke-width="0.50" />
  <path d="M 47.00 101.00 L 45.00 107.00 L 46.00 102.00" fill="none" stroke="#000000" stroke-width="0.50" />
  <path d="M 98.00 101.00 L 100.00 101.00 L 102.00 104.00 L 98.00 108.00 L 102.00 102.00 L 96.00 103.00" fill="none" stroke="#000000" stroke-width="0.50" />
  <path d="M 2.00 102.00 L 8.00 112.00 L 3.00 102.00" fill="none" stroke="#000000" stroke-width="0.50" />
  <path d="M 14.00 108.00 L 19.00 112.00 L 18.00 113.00 L 21.00 117.00 L 23.00 126.00 L 30.00 134.00 L 30.00 132.00 L 32.00 131.00 L 29.00 132.00 L 23.00 128.00 L 19.00 115.00 L 20.00 114.00 L 18.00 112.00 L 18.00 109.00 L 16.00 108.00" fill="none" stroke="#000000" stroke-width="0.50" />
  <path d="M 39.00 112.00 L 42.00 118.00 L 45.00 121.00 L 48.00 121.00 L 47.00 124.00 L 39.00 114.00" fill="none" stroke="#000000" stroke-width="0.50" />
  <path d="M 43.00 112.00 L 54.00 124.00 L 55.00 126.00 L 53.00 128.00 L 53.00 124.00 L 46.00 116.00 L 45.00 117.00 L 43.00 113.00 L 44.00 112.00" fill="none" stroke="#000000" stroke-width="0.50" />
  <path d="M 69.00 113.00 L 73.00 113.00 L 77.00 118.00 L 80.00 116.00 L 74.00 123.00 L 73.00 122.00 L 73.00 124.00 L 87.00 136.00 L 96.00 135.00 L 119.00 144.00 L 138.00 157.00 L 155.00 172.00 L 165.00 175.00 L 198.00 197.00 L 202.00 197.00 L 215.00 204.00 L 223.00 204.00 L 233.00 216.00 L 244.00 221.00 L 250.00 226.00 L 246.00 221.00 L 237.00 218.00 L 229.00 212.00 L 224.00 217.00 L 221.00 213.00 L 228.00 211.00 L 224.00 206.00 L 225.00 205.00 L 219.00 203.00 L 216.00 203.00 L 215.00 205.00 L 209.00 200.00 L 208.00 204.00 L 164.00 174.00 L 150.00 169.00 L 143.00 163.00 L 142.00 160.00 L 121.00 145.00 L 92.00 134.00 L 84.00 135.00 L 78.00 127.00 L 72.00 125.00 L 76.00 115.00 L 75.00 114.00 L 67.00 115.00 L 68.00 123.00 L 64.00 127.00 L 67.00 131.00 L 67.00 135.00 L 64.00 128.00 L 67.00 121.00 L 67.00 114.00" fill="none" stroke="#000000" stroke-width="0.50" />
  <path d="M 90.00 117.00 L 116.00 117.00 L 128.00 121.00 L 140.00 131.00 L 137.00 140.00 L 139.00 131.00 L 134.00 124.00 L 87.00 118.00" fill="none" stroke="#000000" stroke-width="0.50" />
  <path d="M 86.00 120.00 L 88.00 122.00 L 88.00 125.00 L 87.00 120.00" fill="none" stroke="#000000" stroke-width="0.50" />
  <path d="M 102.00 122.00 L 104.00 125.00 L 102.00 125.00 L 103.00 122.00 L 101.00 124.00 L 100.00 123.00" fill="none" stroke="#000000" stroke-width="0.50" />
  <path d="M 44.00 127.00 L 48.00 128.00 L 42.00 128.00 L 41.00 130.00 L 43.00 131.00 L 40.00 130.00 L 29.00 142.00 L 30.00 139.00" fill="none" stroke="#000000" stroke-width="0.50" />
  <path d="M 123.00 130.00 L 128.00 130.00 L 131.00 132.00 L 121.00 131.00" fill="none" stroke="#000000" stroke-width="0.50" />
  <path d="M 22.00 133.00 L 26.00 140.00 L 24.00 139.00 L 22.00 134.00" fill="none" stroke="#000000" stroke-width="0.50" />
  <path d="M 121.00 133.00 L 129.00 141.00 L 128.00 143.00 L 125.00 135.00 L 122.00 133.00 L 121.00 134.00" fill="none" stroke="#000000" stroke-width="0.50" />
  <path d="M 131.00 134.00 L 133.00 134.00 L 130.00 136.00 L 131.00 140.00 L 130.00 135.00" fill="none" stroke="#000000" stroke-width="0.50" />
  <path d="M 69.00 135.00 L 69.00 154.00 L 89.00 170.00 L 84.00 165.00 L 80.00 168.00 L 82.00 164.00 L 68.00 154.00 L 68.00 137.00" fill="none" stroke="#000000" stroke-width="0.50" />
  <path d="M 39.00 137.00 L 34.00 142.00 L 32.00 148.00 L 34.00 139.00" fill="none" stroke="#000000" stroke-width="0.50" />
  <path d="M 77.00 137.00 L 81.00 144.00 L 85.00 144.00 L 92.00 149.00 L 93.00 146.00 L 92.00 145.00 L 90.00 148.00 L 91.00 145.00 L 89.00 145.00 L 87.00 147.00 L 84.00 142.00 L 81.00 142.00 L 80.00 144.00 L 78.00 140.00" fill="none" stroke="#000000" stroke-width="0.50" />
  <path d="M 29.00 148.00 L 29.00 150.00 L 36.00 156.00 L 35.00 157.00 L 35.00 154.00 L 33.00 152.00 L 34.00 151.00 L 36.00 150.00 L 38.00 152.00 L 43.00 148.00 L 45.00 149.00 L 41.00 149.00 L 38.00 151.00 L 37.00 150.00" fill="none" stroke="#000000" stroke-width="0.50" />
  <path d="M 74.00 148.00 L 85.00 158.00 L 93.00 162.00 L 98.00 156.00 L 101.00 156.00 L 103.00 158.00 L 103.00 153.00 L 101.00 153.00 L 101.00 155.00 L 98.00 155.00 L 95.00 159.00 L 93.00 159.00 L 96.00 156.00 L 93.00 161.00 L 74.00 150.00 L 75.00 148.00" fill="none" stroke="#000000" stroke-width="0.50" />
  <path d="M 55.00 149.00 L 60.00 154.00 L 54.00 152.00 L 53.00 153.00 L 56.00 157.00 L 50.00 150.00" fill="none" stroke="#000000" stroke-width="0.50" />
  <path d="M 58.00 159.00 L 62.00 159.00 L 57.00 160.00 L 53.00 164.00 L 48.00 175.00 L 48.00 178.00 L 51.00 182.00 L 48.00 174.00 L 53.00 163.00" fill="none" stroke="#000000" stroke-width="0.50" />
  <path d="M 133.00 159.00 L 141.00 168.00 L 137.00 164.00 L 137.00 162.00" fill="none" stroke="#000000" stroke-width="0.50" />
  <path d="M 62.00 161.00 L 57.00 165.00 L 52.00 179.00 L 56.00 167.00 L 55.00 166.00" fill="none" stroke="#000000" stroke-width="0.50" />
  <path d="M 88.00 164.00 L 96.00 169.00 L 107.00 172.00 L 90.00 165.00" fill="none" stroke="#000000" stroke-width="0.50" />
  <path d="M 101.00 164.00 L 114.00 169.00 L 122.00 169.00 L 103.00 164.00 L 100.00 165.00" fill="none" stroke="#000000" stroke-width="0.50" />
  <path d="M 75.00 168.00 L 72.00 177.00 L 74.00 180.00 L 74.00 185.00 L 79.00 188.00 L 73.00 185.00 L 71.00 171.00 L 70.00 175.00 L 69.00 173.00 L 67.00 177.00 L 71.00 181.00 L 70.00 184.00 L 72.00 187.00 L 70.00 186.00 L 69.00 188.00 L 72.00 195.00 L 69.00 190.00 L 67.00 176.00" fill="none" stroke="#000000" stroke-width="0.50" />
  <path d="M 122.00 171.00 L 125.00 173.00 L 127.00 171.00 L 130.00 172.00 L 146.00 188.00 L 151.00 190.00 L 137.00 179.00 L 135.00 180.00 L 139.00 176.00 L 148.00 177.00 L 147.00 178.00 L 142.00 175.00 L 140.00 176.00 L 121.00 172.00" fill="none" stroke="#000000" stroke-width="0.50" />
  <path d="M 95.00 172.00 L 99.00 174.00 L 96.00 174.00 L 97.00 177.00" fill="none" stroke="#000000" stroke-width="0.50" />
  <path d="M 109.00 172.00 L 106.00 181.00 L 110.00 182.00 L 111.00 180.00 L 104.00 182.00 L 106.00 177.00" fill="none" stroke="#000000" stroke-width="0.50" />
  <path d="M 84.00 173.00 L 89.00 175.00 L 93.00 179.00 L 93.00 174.00 L 92.00 179.00 L 90.00 175.00" fill="none" stroke="#000000" stroke-width="0.50" />
  <path d="M 116.00 175.00 L 116.00 181.00 L 121.00 181.00 L 115.00 182.00 L 115.00 179.00 L 114.00 182.00 L 113.00 178.00 L 116.00 176.00" fill="none" stroke="#000000" stroke-width="0.50" />
  <path d="M 125.00 175.00 L 141.00 189.00 L 141.00 192.00 L 130.00 178.00 L 131.00 177.00" fill="none" stroke="#000000" stroke-width="0.50" />
  <path d="M 61.00 181.00 L 64.00 184.00 L 65.00 183.00 L 62.00 185.00 L 62.00 183.00 L 59.00 182.00 L 58.00 185.00 L 60.00 188.00 L 56.00 182.00" fill="none" stroke="#000000" stroke-width="0.50" />
  <path d="M 126.00 181.00 L 129.00 185.00 L 129.00 187.00 L 126.00 182.00" fill="none" stroke="#000000" stroke-width="0.50" />
  <path d="M 62.00 189.00 L 71.00 199.00 L 76.00 199.00 L 78.00 190.00 L 72.00 198.00 L 68.00 199.00 L 69.00 195.00 L 65.00 193.00 L 63.00 189.00" fill="none" stroke="#000000" stroke-width="0.50" />
  <path d="M 155.00 195.00 L 165.00 202.00 L 167.00 200.00 L 172.00 202.00 L 169.00 200.00 L 165.00 201.00 L 165.00 199.00 L 164.00 200.00 L 162.00 198.00 L 163.00 197.00 L 161.00 198.00 L 157.00 195.00 L 153.00 196.00" fill="none" stroke="#000000" stroke-width="0.50" />
  <path d="M 186.00 195.00 L 191.00 198.00 L 195.00 202.00 L 195.00 204.00" fill="none" stroke="#000000" stroke-width="0.50" />
  <path d="M 153.00 198.00 L 157.00 204.00 L 153.00 199.00" fill="none" stroke="#000000" stroke-width="0.50" />
  <path d="M 200.00 200.00 L 208.00 207.00 L 210.00 211.00 L 212.00 211.00 L 213.00 209.00 L 209.00 211.00 L 206.00 206.00 L 200.00 201.00" fill="none" stroke="#000000" stroke-width="0.50" />
  <path d="M 171.00 204.00 L 193.00 209.00 L 198.00 212.00 L 201.00 210.00 L 205.00 214.00 L 203.00 211.00 L 202.00 216.00 L 199.00 211.00 L 194.00 211.00 L 191.00 208.00 L 172.00 204.00" fill="none" stroke="#000000" stroke-width="0.50" />
  <path d="M 197.00 215.00 L 201.00 219.00 L 199.00 215.00" fill="none" stroke="#000000" stroke-width="0.50" />
  <path d="M 207.00 215.00 L 211.00 218.00 L 211.00 221.00 L 217.00 223.00 L 216.00 224.00 L 209.00 221.00 L 211.00 217.00 L 210.00 216.00" fill="none" stroke="#000000" stroke-width="0.50" />
  <path d="M 219.00 224.00 L 239.00 236.00 L 245.00 235.00 L 249.00 237.00 L 246.00 238.00 L 244.00 241.00 L 246.00 235.00 L 239.00 235.00 L 223.00 224.00 L 220.00 224.00 L 220.00 226.00 L 218.00 225.00 L 218.00 229.00 L 216.00 227.00" fill="none" stroke="#000000" stroke-width="0.50" />
  <path d="M 39.00 38.00 L 43.00 44.00 L 45.00 57.00 L 49.00 61.00 L 47.00 65.00 L 49.00 60.00 L 44.00 57.00 L 43.00 63.00 L 44.00 55.00 L 40.00 48.00 L 35.00 58.00 L 42.00 68.00 L 35.00 59.00 L 42.00 44.00 L 39.00 40.00" fill="none" stroke="#000000" stroke-width="0.50" />
  <path d="M 100.00 44.00 L 119.00 58.00 L 118.00 67.00 L 110.00 75.00 L 112.00 79.00 L 152.00 87.00 L 170.00 83.00 L 191.00 92.00 L 161.00 83.00 L 152.00 86.00 L 111.00 79.00 L 106.00 72.00 L 118.00 64.00 L 118.00 56.00 L 106.00 49.00 L 103.00 44.00 L 96.00 48.00 L 94.00 45.00 L 86.00 48.00 L 85.00 55.00 L 84.00 49.00 L 95.00 49.00" fill="none" stroke="#000000" stroke-width="0.50" />
  <path d="M 88.00 54.00 L 93.00 64.00 L 89.00 54.00" fill="none" stroke="#000000" stroke-width="0.50" />
  <path d="M 85.00 59.00 L 84.00 63.00 L 75.00 65.00 L 71.00 74.00 L 66.00 70.00 L 56.00 73.00 L 46.00 71.00 L 36.00 73.00 L 34.00 70.00 L 28.00 72.00 L 24.00 80.00 L 6.00 88.00 L 3.00 102.00 L 8.00 111.00 L 3.00 103.00 L 3.00 93.00 L 26.00 74.00 L 72.00 70.00 L 74.00 66.00" fill="none" stroke="#000000" stroke-width="0.50" />
  <path d="M 79.00 67.00 L 72.00 80.00 L 73.00 93.00 L 71.00 87.00 L 76.00 71.00" fill="none" stroke="#000000" stroke-width="0.50" />
  <path d="M 59.00 76.00 L 55.00 88.00 L 55.00 81.00" fill="none" stroke="#000000" stroke-width="0.50" />
  <path d="M 110.00 83.00 L 111.00 88.00 L 117.00 93.00 L 110.00 88.00" fill="none" stroke="#000000" stroke-width="0.50" />
  <path d="M 10.00 88.00 L 13.00 88.00 L 11.00 95.00 L 16.00 101.00 L 29.00 103.00 L 13.00 99.00 L 10.00 90.00" fill="none" stroke="#000000" stroke-width="0.50" />
  <path d="M 18.00 92.00 L 22.00 96.00 L 28.00 96.00 L 18.00 93.00" fill="none" stroke="#000000" stroke-width="0.50" />
  <path d="M 183.00 92.00 L 187.00 104.00 L 184.00 92.00" fill="none" stroke="#000000" stroke-width="0.50" />
  <path d="M 39.00 112.00 L 47.00 124.00 L 39.00 114.00 L 42.00 112.00 L 53.00 123.00 L 54.00 130.00 L 47.00 116.00 L 50.00 114.00 L 46.00 115.00 L 43.00 112.00 L 45.00 117.00" fill="none" stroke="#000000" stroke-width="0.50" />
  <path d="M 14.00 113.00 L 20.00 116.00 L 23.00 127.00 L 30.00 133.00 L 23.00 128.00 L 20.00 115.00 L 16.00 117.00 L 25.00 141.00 L 14.00 114.00" fill="none" stroke="#000000" stroke-width="0.50" />
  <path d="M 76.00 126.00 L 87.00 136.00 L 95.00 135.00 L 119.00 144.00 L 153.00 171.00 L 165.00 175.00 L 194.00 195.00 L 210.00 201.00 L 208.00 203.00 L 206.00 199.00 L 150.00 169.00 L 131.00 152.00 L 84.00 135.00 L 78.00 127.00" fill="none" stroke="#000000" stroke-width="0.50" />
  <path d="M 44.00 127.00 L 48.00 128.00 L 43.00 128.00 L 43.00 131.00 L 42.00 129.00 L 34.00 135.00" fill="none" stroke="#000000" stroke-width="0.50" />
  <path d="M 69.00 136.00 L 69.00 147.00 L 68.00 138.00" fill="none" stroke="#000000" stroke-width="0.50" />
  <path d="M 43.00 148.00 L 33.00 152.00 L 36.00 156.00 L 32.00 151.00" fill="none" stroke="#000000" stroke-width="0.50" />
  <path d="M 73.00 172.00 L 71.00 175.00 L 74.00 185.00 L 79.00 188.00 L 77.00 197.00 L 74.00 195.00 L 69.00 198.00 L 58.00 186.00 L 59.00 182.00 L 57.00 184.00 L 77.00 190.00 L 74.00 186.00 L 69.00 187.00 L 72.00 194.00 L 69.00 190.00 L 74.00 182.00 L 69.00 174.00 L 71.00 182.00 L 70.00 184.00 L 68.00 179.00 L 68.00 173.00 L 71.00 173.00" fill="none" stroke="#000000" stroke-width="0.50" />
  <path d="M 139.00 175.00 L 148.00 178.00 L 139.00 176.00" fill="none" stroke="#000000" stroke-width="0.50" />
  <path d="M 201.00 210.00 L 211.00 217.00 L 212.00 222.00 L 203.00 213.00 L 202.00 215.00 L 203.00 211.00 L 195.00 211.00 L 194.00 214.00" fill="none" stroke="#000000" stroke-width="0.50" />
  <path d="M 225.00 227.00 L 239.00 236.00 L 246.00 235.00 L 232.00 232.00" fill="none" stroke="#000000" stroke-width="0.50" />
  <path d="M 101.00 43.00 L 119.00 58.00 L 114.00 72.00 L 117.00 55.00 L 103.00 44.00 L 96.00 48.00" fill="none" stroke="#000000" stroke-width="0.50" />
  <path d="M 24.00 82.00 L 35.00 101.00 L 27.00 96.00 L 24.00 84.00" fill="none" stroke="#000000" stroke-width="0.50" />
  <path d="M 161.00 83.00 L 190.00 92.00 L 155.00 85.00" fill="none" stroke="#000000" stroke-width="0.50" />
  <path d="M 10.00 85.00 L 14.00 85.00 L 12.00 97.00 L 24.00 102.00 L 13.00 99.00 L 7.00 87.00 L 3.00 102.00 L 8.00 111.00 L 3.00 93.00" fill="none" stroke="#000000" stroke-width="0.50" />
  <path d="M 35.00 106.00 L 43.00 119.00 L 50.00 125.00 L 39.00 114.00 L 42.00 112.00 L 54.00 125.00 L 54.00 131.00 L 53.00 123.00 L 35.00 107.00 L 42.00 106.00" fill="none" stroke="#000000" stroke-width="0.50" />
  <path d="M 16.00 116.00 L 26.00 140.00 L 16.00 122.00" fill="none" stroke="#000000" stroke-width="0.50" />
  <path d="M 83.00 134.00 L 122.00 146.00 L 156.00 173.00 L 208.00 201.00 L 156.00 172.00 L 129.00 151.00 L 95.00 135.00 L 84.00 134.00" fill="none" stroke="#000000" stroke-width="0.50" />
  <path d="M 71.00 174.00 L 79.00 189.00 L 70.00 187.00 L 70.00 183.00 L 75.00 196.00 L 70.00 191.00 L 71.00 176.00" fill="none" stroke="#000000" stroke-width="0.50" />
  <path d="M 143.00 186.00 L 150.00 190.00 L 143.00 190.00 L 146.00 195.00 L 141.00 189.00" fill="none" stroke="#000000" stroke-width="0.50" />
  <path d="M 44.00 28.00 L 64.00 37.00 L 41.00 29.00 L 34.00 38.00 L 36.00 32.00" fill="none" stroke="#000000" stroke-width="0.50" />
  <path d="M 38.00 38.00 L 46.00 44.00 L 44.00 57.00 L 49.00 61.00 L 44.00 58.00 L 43.00 63.00 L 43.00 43.00 L 38.00 39.00" fill="none" stroke="#000000" stroke-width="0.50" />
  <path d="M 38.00 47.00 L 41.00 56.00 L 38.00 53.00 L 35.00 58.00 L 42.00 69.00 L 35.00 56.00" fill="none" stroke="#000000" stroke-width="0.50" />
  <path d="M 85.00 59.00 L 84.00 64.00 L 75.00 65.00 L 72.00 76.00 L 66.00 70.00 L 36.00 72.00 L 72.00 71.00 L 84.00 62.00" fill="none" stroke="#000000" stroke-width="0.50" />
  <path d="M 45.00 127.00 L 29.00 143.00 L 43.00 128.00" fill="none" stroke="#000000" stroke-width="0.50" />
  <path d="M 99.00 44.00 L 119.00 59.00 L 109.00 75.00 L 112.00 80.00 L 154.00 87.00 L 110.00 79.00 L 106.00 72.00 L 118.00 63.00 L 117.00 55.00 L 103.00 44.00 L 96.00 48.00" fill="none" stroke="#000000" stroke-width="0.50" />
  <path d="M 42.00 46.00 L 49.00 60.00 L 44.00 58.00 L 43.00 63.00 L 43.00 52.00" fill="none" stroke="#000000" stroke-width="0.50" />
  <path d="M 39.00 47.00 L 41.00 56.00 L 35.00 58.00 L 42.00 69.00 L 35.00 59.00 L 40.00 47.00" fill="none" stroke="#000000" stroke-width="0.50" />
  <path d="M 84.00 57.00 L 85.00 63.00 L 76.00 64.00 L 72.00 76.00 L 66.00 70.00 L 37.00 72.00 L 72.00 71.00 L 74.00 66.00" fill="none" stroke="#000000" stroke-width="0.50" />
  <path d="M 33.00 70.00 L 24.00 82.00 L 35.00 102.00 L 26.00 97.00 L 26.00 74.00" fill="none" stroke="#000000" stroke-width="0.50" />
  <path d="M 88.00 114.00 L 122.00 119.00 L 136.00 126.00 L 139.00 134.00 L 134.00 124.00 L 120.00 118.00" fill="none" stroke="#000000" stroke-width="0.50" />
  <path d="M 85.00 135.00 L 120.00 145.00 L 198.00 198.00 L 129.00 151.00" fill="none" stroke="#000000" stroke-width="0.50" />
  <path d="M 88.00 114.00 L 122.00 119.00 L 139.00 134.00 L 134.00 124.00" fill="none" stroke="#000000" stroke-width="0.50" />
  <path d="M 40.00 47.00 L 35.00 58.00 L 45.00 72.00 L 65.00 70.00 L 72.00 76.00 L 74.00 67.00 L 85.00 63.00 L 84.00 57.00 L 71.00 73.00 L 45.00 68.00 L 39.00 78.00 L 35.00 56.00" fill="none" stroke="#000000" stroke-width="0.50" />
  <path d="M 95.00 50.00 L 103.00 52.00 L 96.00 65.00 L 99.00 52.00 L 91.00 53.00" fill="none" stroke="#000000" stroke-width="0.50" />
  <path d="M 109.00 50.00 L 119.00 59.00 L 109.00 75.00 L 112.00 80.00 L 152.00 87.00 L 170.00 83.00 L 191.00 91.00 L 111.00 80.00 L 106.00 72.00 L 118.00 63.00 L 116.00 54.00" fill="none" stroke="#000000" stroke-width="0.50" />
  <path d="M 88.00 114.00 L 119.00 118.00 L 131.00 127.00" fill="none" stroke="#000000" stroke-width="0.50" />
  <path d="M 43.00 47.00 L 48.00 73.00 L 65.00 70.00 L 72.00 76.00 L 74.00 67.00 L 85.00 63.00 L 71.00 73.00 L 38.00 72.00 L 40.00 78.00 L 43.00 52.00" fill="none" stroke="#000000" stroke-width="0.50" />
  <path d="M 87.00 135.00 L 120.00 145.00 L 208.00 201.00 L 197.00 201.00 L 151.00 169.00 L 132.00 148.00 L 94.00 135.00" fill="none" stroke="#000000" stroke-width="0.50" />
  <path d="M 110.00 79.00 L 153.00 87.00 L 170.00 83.00 L 191.00 91.00 L 135.00 84.00" fill="none" stroke="#000000" stroke-width="0.50" />
  <path d="M 18.00 112.00 L 24.00 128.00 L 29.00 133.00 L 30.00 131.00 L 25.00 130.00 L 20.00 114.00" fill="none" stroke="#000000" stroke-width="0.08" />
  <path d="M 155.00 195.00 L 165.00 202.00 L 163.00 197.00 L 153.00 196.00" fill="none" stroke="#000000" stroke-width="0.08" />
</svg>