<svg width="256" height="256" viewBox="0 0 256 256" xmlns="http://www.w3.org/2000/svg" shape-rendering="geometricPrecision">
  <path d="M 206.756 2.188 L 222.530 1.846 L 234.930 10.764 L 237.122 17.424 L 236.234 22.582 L 229.090 26.884 L 223.652 35.980 L 222.716 29.504 L 221.042 35.230 L 235.132 19.558 L 234.926 9.322 L 227.576 6.810 L 205.704 2.960 L 199.424 6.254 L 200.894 10.642 L 189.814 15.040 L 187.706 19.152 L 186.920 21.030 L 199.046 8.384" fill="none" stroke="#401B10" stroke-width="0.31" />
  <path d="M 109.782 7.714 L 113.054 7.956 L 112.674 6.290 L 110.288 11.122 L 108.184 4.376 L 105.422 7.152 L 106.788 7.164" fill="none" stroke="#000000" stroke-width="2.09" />
  <path d="M 215.034 7.196 L 209.006 11.776 L 207.048 15.276 L 196.304 26.124 L 206.986 12.660 L 210.622 10.618" fill="none" stroke="#902425" stroke-width="2.87" />
  <path d="M 107.608 9.928 L 108.060 9.432 L 104.956 14.796 L 91.206 14.838 L 86.008 20.248" fill="none" stroke="#000000" stroke-width="0.30" />
  <path d="M 221.794 13.354 L 227.504 15.720 L 226.898 24.936 L 226.652 14.534 L 218.914 12.266 L 219.640 16.324 L 220.386 18.336 L 217.442 16.870 L 220.122 15.076 L 215.056 20.346 L 206.238 22.524" fill="none" stroke="#1F3458" stroke-width="0.31" />
  <path d="M 120.148 19.020 L 128.214 18.312 L 134.386 20.982 L 135.773 21.548 L 139.360 22.188 L 150.000 19.766 L 171.240 21.370 L 178.886 30.400 L 177.740 28.694 L 175.976 33.870 L 173.964 35.924 L 172.648 35.782 L 173.922 37.746 L 174.616 29.156 L 174.224 22.748 L 148.844 20.582 L 136.424 21.496 L 127.936 17.648 L 117.480 18.552 L 110.422 26.902 L 111.550 30.072 L 109.724 29.130 L 108.110 31.006 L 104.348 27.916 L 102.422 26.780 L 100.304 29.444 L 102.844 25.186 L 94.892 27.518 L 98.798 40.002 L 94.028 25.094 L 110.832 30.906 L 114.828 22.314" fill="none" stroke="#25131C" stroke-width="1.45" />
  <path d="M 84.666 22.558 L 89.962 29.592 L 86.220 24.682" fill="none" stroke="#7F3F00" stroke-width="0.96" />
  <path d="M 153.060 22.104 L 161.036 26.038 L 162.216 36.678 L 157.808 36.742 L 159.812 30.868" fill="none" stroke="#915445" stroke-width="1.64" />
  <path d="M 188.384 24.010 L 189.190 28.740 L 190.566 21.000" fill="none" stroke="#000000" stroke-width="0.29" />
  <path d="M 165.430 24.870 L 167.202 34.016 L 169.666 39.466 L 165.056 23.410" fill="none" stroke="#522931" stroke-width="1.10" />
  <path d="M 136.258 24.548 L 141.582 26.648 L 137.294 28.448 L 135.570 30.486 L 133.842 32.326 L 133.770 35.904 L 132.246 31.090 L 131.608 35.996 L 131.012 33.028" fill="none" stroke="#352136" stroke-width="0.29" />
  <path d="M 122.758 26.418 L 121.754 34.532 L 123.758 25.422" fill="none" stroke="#2365A7" stroke-width="0.30" />
  <path d="M 204.998 27.846 L 202.424 33.648 L 199.276 34.520 L 197.248 43.962 L 199.792 43.300 L 195.934 45.014 L 198.752 41.288" fill="none" stroke="#7D1E27" stroke-width="2.80" />
  <path d="M 98.588 28.978 L 102.166 37.042" fill="none" stroke="#3E2A35" stroke-width="0.20" />
  <path d="M 116.126 28.741 L 117.206 32.769 L 112.846 33.717 L 113.692 35.650 L 105.325 39.423 L 111.820 35.447 L 108.810 31.084" fill="none" stroke="#3D2133" stroke-width="0.29" />
  <path d="M 199.440 29.844 L 200.526 31.478 L 197.770 28.720 L 191.946 33.070 L 181.171 35.057" fill="none" stroke="#93282A" stroke-width="1.84" />
  <path d="M 164.461 35.813 L 167.135 42.345 L 170.905 49.258 L 168.507 45.028 L 171.763 45.654 L 169.993 41.919 L 168.296 42.081 L 166.392 44.232 L 165.538 44.306 L 163.555 48.003 L 164.673 44.550 L 160.668 47.110 L 161.923 36.189 L 160.351 38.396 L 159.294 39.315 L 156.023 41.297" fill="none" stroke="#380B10" stroke-width="0.29" />
  <path d="M 123.102 36.699 L 128.425 38.664 L 124.786 35.380" fill="none" stroke="#230808" stroke-width="0.29" />
  <path d="M 118.178 38.725 L 122.937 44.077 L 125.840 44.158 L 127.456 46.336 L 128.372 42.632 L 129.251 39.740 L 127.587 39.788 L 126.206 45.119 L 122.992 42.192 L 121.500 43.523 L 119.810 40.476" fill="none" stroke="#000000" stroke-width="2.61" />
  <path d="M 174.813 38.419 L 175.152 40.083 L 181.682 47.581 L 185.470 45.952 L 181.093 42.545 L 180.979 48.022 L 173.577 41.005 L 170.792 40.010 L 176.017 40.186" fill="none" stroke="#3B070A" stroke-width="0.29" />
  <path d="M 212.842 39.218 L 209.816 43.113 L 210.712 44.350 L 209.219 43.057 L 207.867 42.941" fill="none" stroke="#000005" stroke-width="2.24" />
  <path d="M 147.557 43.536 L 156.721 46.462 L 162.303 50.216 L 162.734 48.269 L 157.135 50.278 L 157.710 48.671 L 152.494 45.688 L 149.392 45.710 L 137.277 60.512 L 136.743 63.750 L 135.446 71.100 L 132.937 70.129 L 131.162 77.988 L 129.082 75.597 L 146.264 48.019" fill="none" stroke="#645D58" stroke-width="0.30" />
  <path d="M 174.767 46.456 L 177.927 49.632 L 178.365 49.212 L 169.800 57.448 L 171.810 57.345 L 162.818 64.236 L 176.660 48.207 L 175.988 48.901 L 177.916 46.677 L 176.774 47.117" fill="none" stroke="#41080D" stroke-width="2.24" />
  <path d="M 203.383 47.556 L 203.452 48.996 L 203.439 51.160 L 202.140 58.771 L 206.099 63.441 L 205.971 67.698 L 198.513 83.845 L 193.849 94.564 L 195.868 89.448 L 194.515 83.874 L 190.780 89.999 L 197.021 84.523 L 203.354 71.833 L 205.576 59.742 L 206.724 57.653 L 201.594 62.090 L 202.575 65.602 L 200.352 64.656 L 201.798 69.935 L 199.059 69.957 L 195.754 76.438 L 188.740 80.201 L 186.669 81.606 L 188.605 80.856 L 184.594 87.506 L 182.182 88.718 L 181.151 91.580 L 172.090 91.631 L 162.962 94.688 L 163.996 93.793 L 161.104 98.484 L 198.004 70.188 L 202.142 52.427" fill="none" stroke="#1C212C" stroke-width="0.29" />
  <path d="M 189.706 52.650 L 196.041 54.858 L 197.583 60.062 L 196.492 52.789 L 190.358 54.212 L 186.442 55.969 L 189.152 52.322" fill="none" stroke="#105091" stroke-width="0.31" />
  <path d="M 157.338 52.826 L 156.272 55.952 L 146.957 66.866 L 156.947 55.821" fill="none" stroke="#C23621" stroke-width="1.33" />
  <path d="M 183.975 53.098 L 181.885 56.961 L 181.041 54.430 L 172.519 67.108 L 170.019 65.979 L 164.763 71.899 L 163.498 72.695 L 163.892 73.604 L 162.599 71.565 L 163.580 69.212 L 155.778 78.779 L 162.143 69.400 L 159.149 67.834" fill="none" stroke="#1C1A24" stroke-width="0.59" />
  <path d="M 190.071 57.716 L 190.988 64.535 L 188.437 58.857" fill="none" stroke="#206094" stroke-width="1.08" />
  <path d="M 181.528 59.607 L 175.007 69.161 L 159.088 83.781 L 157.130 90.069 L 159.952 85.733 L 154.803 82.586 L 152.678 85.337 L 154.658 91.099" fill="none" stroke="#1C1816" stroke-width="0.30" />
  <path d="M 195.564 59.787 L 190.743 72.086 L 188.794 74.119 L 195.857 62.582" fill="none" stroke="#5D79A6" stroke-width="1.43" />
  <path d="M 145.195 64.658 L 135.063 84.921 L 135.341 85.626 L 139.432 67.389" fill="none" stroke="#A93C2D" stroke-width="0.78" />
  <path d="M 156.072 64.349 L 157.910 67.551 L 153.996 69.405 L 152.761 66.899 L 153.118 70.487" fill="none" stroke="#5B1118" stroke-width="0.31" />
  <path d="M 184.114 65.313 L 186.031 71.167 L 188.432 76.856 L 184.589 65.850 L 180.913 65.896" fill="none" stroke="#0C1732" stroke-width="0.42" />
  <path d="M 146.807 70.256 L 154.938 76.343 L 154.839 74.723 L 148.110 71.829 L 148.265 76.210 L 146.927 72.230" fill="none" stroke="#222A42" stroke-width="3.00" />
  <path d="M 126.494 78.987 L 128.496 77.384 L 124.549 78.324 L 122.495 83.607 L 120.170 86.183 L 121.744 94.083 L 120.888 90.716 L 123.634 83.172" fill="none" stroke="#000000" stroke-width="0.49" />
  <path d="M 186.341 87.992 L 192.091 92.367 L 190.855 96.153 L 188.194 87.527 L 187.899 90.336" fill="none" stroke="#27201E" stroke-width="0.31" />
  <path d="M 142.935 90.389 L 136.691 94.142 L 138.592 96.726 L 137.337 94.882 L 138.222 94.100 L 135.907 94.720 L 134.834 91.447 L 133.799 91.972 L 120.079 97.756 L 111.426 109.883 L 107.871 112.089 L 108.234 108.526 L 132.355 100.409" fill="none" stroke="#74422D" stroke-width="0.76" />
  <path d="M 171.380 96.325 L 165.929 104.155 L 168.143 100.687 L 164.140 103.769 L 157.287 105.685" fill="none" stroke="#000000" stroke-width="0.30" />
  <path d="M 140.223 99.253 L 133.850 105.930 L 133.435 106.653" fill="none" stroke="#353D4E" stroke-width="0.31" />
  <path d="M 126.084 100.551 L 135.689 113.069 L 131.042 109.340 L 126.103 98.269" fill="none" stroke="#8C5B3C" stroke-width="1.03" />
  <path d="M 189.472 101.757 L 193.429 99.586 L 210.880 112.021 L 220.101 115.343 L 227.062 118.192 L 235.630 124.026 L 233.981 128.590 L 235.388 125.119 L 232.377 119.412 L 218.833 112.684 L 212.002 111.963 L 193.465 98.884 L 191.823 100.081" fill="none" stroke="#042345" stroke-width="0.73" />
  <path d="M 155.139 102.820 L 158.427 103.385 L 161.011 103.466 L 158.452 103.943 L 152.574 103.526 L 148.057 108.643 L 141.893 107.040 L 134.084 116.122 L 138.429 119.732 L 138.843 118.017 L 136.149 119.748 L 134.141 115.110 L 133.153 123.025 L 131.001 119.809 L 131.338 123.153 L 127.879 119.767 L 126.195 119.979 L 130.561 141.252 L 128.420 136.289 L 125.617 122.844 L 133.331 117.827" fill="none" stroke="#1D1D25" stroke-width="0.31" />
  <path d="M 189.547 102.997 L 194.896 108.815 L 189.575 101.664" fill="none" stroke="#521E22" stroke-width="0.30" />
  <path d="M 118.197 107.280 L 113.996 109.225 L 111.694 114.791" fill="none" stroke="#472922" stroke-width="0.49" />
  <path d="M 178.602 108.481 L 179.533 109.773 L 180.987 113.508 L 177.995 116.940 L 176.182 114.050 L 173.659 113.596 L 176.034 114.999 L 180.934 110.358 L 174.629 112.334" fill="none" stroke="#000001" stroke-width="0.29" />
  <path d="M 152.994 111.270 L 157.867 120.455 L 157.183 123.767 L 157.386 119.624 L 153.792 122.481 L 157.151 118.801 L 153.038 115.953 L 154.300 111.558" fill="none" stroke="#123565" stroke-width="1.87" />
  <path d="M 158.821 109.834 L 164.462 122.527 L 163.417 145.823 L 163.886 120.927 L 159.688 111.644" fill="none" stroke="#063063" stroke-width="0.46" />
  <path d="M 108.828 115.496 L 110.847 121.545 L 108.551 116.797" fill="none" stroke="#000000" stroke-width="0.42" />
  <path d="M 202.005 118.824 L 206.650 124.330 L 210.391 124.441 L 207.031 126.239 L 203.411 123.604" fill="none" stroke="#330A06" stroke-width="0.47" />
  <path d="M 118.549 119.948 L 121.927 127.254 L 119.964 126.798 L 124.498 131.572 L 119.970 130.009 L 117.203 129.823 L 119.597 126.873 L 120.531 122.518" fill="none" stroke="#100808" stroke-width="1.37" />
  <path d="M 229.913 121.053 L 230.429 124.441 L 223.542 124.313" fill="none" stroke="#0E101B" stroke-width="0.63" />
  <path d="M 151.222 124.933 L 159.472 128.482 L 158.188 133.685 L 154.044 132.956 L 160.322 136.901 L 161.803 141.981 L 157.174 136.185 L 157.109 138.815 L 156.326 133.145 L 154.514 135.162 L 155.369 130.852 L 151.914 132.834 L 159.002 134.374 L 157.457 130.408 L 153.026 128.215 L 154.819 127.016 L 154.683 127.199 L 153.094 122.862" fill="none" stroke="#13284E" stroke-width="2.59" />
  <path d="M 112.654 124.276 L 115.570 124.231 L 110.171 125.538 L 109.142 128.299 L 108.738 127.334 L 108.660 134.784 L 107.067 133.310 L 108.967 131.551 L 99.968 144.806 L 102.240 147.739 L 129.312 142.559 L 136.811 145.745 L 149.099 153.705 L 149.045 161.687 L 147.744 157.230 L 143.802 158.670 L 147.166 164.209 L 142.207 165.232 L 144.040 169.774 L 146.662 169.162 L 147.471 174.420 L 145.879 169.471 L 149.051 164.552 L 151.301 166.794 L 149.743 164.208 L 155.136 161.913 L 143.706 170.848 L 141.903 170.315 L 144.083 165.358 L 139.618 164.575 L 136.865 169.786 L 141.161 167.119 L 141.622 171.386 L 145.203 156.689 L 149.011 153.264 L 139.125 147.527 L 135.966 145.044 L 116.773 143.737 L 103.111 147.364 L 100.751 146.348 L 102.832 144.054 L 100.115 146.154 L 99.795 144.257 L 98.738 145.170 L 82.152 146.892 L 73.343 158.337 L 71.325 157.721 L 66.459 159.158 L 98.967 142.506 L 103.065 137.090" fill="none" stroke="#0C0D14" stroke-width="0.29" />
  <path d="M 221.133 127.894 L 224.679 131.302 L 219.911 129.479 L 219.702 129.569" fill="none" stroke="#051413" stroke-width="0.55" />
  <path d="M 234.748 128.422 L 233.976 133.942 L 229.836 135.844 L 235.166 130.440" fill="none" stroke="#000000" stroke-width="0.46" />
  <path d="M 218.675 130.863 L 221.278 133.644 L 222.451 139.365 L 216.997 133.372" fill="none" stroke="#0C0408" stroke-width="0.29" />
  <path d="M 63.817 145.355 L 75.503 148.489 L 61.837 146.026 L 54.257 148.521 L 55.521 154.142 L 52.540 156.217 L 41.205 160.735 L 39.166 164.830 L 40.606 163.936 L 39.434 167.611 L 37.795 167.797 L 37.889 165.679 L 34.845 177.450 L 37.987 195.261 L 34.471 184.808 L 34.498 176.580 L 36.185 169.041" fill="none" stroke="#000000" stroke-width="0.29" />
  <path d="M 165.734 145.277 L 163.886 151.376 L 162.343 161.378 L 158.969 172.297 L 156.350 173.462 L 161.921 161.373 L 164.185 147.973" fill="none" stroke="#094475" stroke-width="1.04" />
  <path d="M 119.069 148.677 L 120.749 157.795 L 123.383 163.368 L 128.017 168.804 L 126.555 165.000 L 124.530 149.740 L 126.230 154.583 L 123.612 151.164 L 122.029 156.248 L 124.213 149.925 L 123.916 159.070 L 121.206 162.661 L 125.430 169.278 L 121.195 162.537 L 121.536 159.353 L 120.510 160.180 L 121.447 169.509 L 119.899 166.648 L 119.483 163.670 L 118.566 163.862 L 117.342 162.453 L 117.477 161.756 L 118.258 155.102 L 119.417 153.053 L 121.044 154.218 L 119.081 154.625 L 119.202 149.676 L 119.722 153.206 L 116.606 153.302 L 115.648 158.554 L 115.158 153.946 L 113.026 160.063 L 114.891 165.491 L 114.680 163.633 L 113.348 167.734 L 116.001 167.610 L 116.893 165.450 L 114.831 169.604 L 112.242 155.044 L 112.492 150.577 L 116.263 152.846 L 116.998 149.872 L 110.478 150.943 L 109.517 163.587 L 111.639 167.181 L 108.720 167.628 L 110.294 156.177 L 106.929 160.070 L 109.225 169.270 L 104.168 161.126 L 106.603 156.561 L 107.931 156.748 L 109.544 148.763 L 105.959 155.575 L 104.401 150.013 L 105.549 158.949 L 105.308 154.236 L 102.910 153.178 L 102.074 153.049 L 100.956 164.796 L 104.103 167.725 L 104.600 162.013 L 101.773 168.932 L 102.089 164.875 L 99.317 167.723 L 98.952 164.007 L 100.572 162.197 L 101.968 163.338 L 101.663 151.739 L 100.165 155.565 L 100.570 162.445 L 95.102 162.829 L 97.515 156.278 L 95.905 158.908 L 96.618 168.592 L 92.498 168.077 L 92.854 161.092 L 96.299 154.523 L 98.083 152.941 L 97.405 155.909 L 99.715 153.814 L 92.736 156.655 L 95.466 152.001 L 91.978 161.572 L 115.829 160.535 L 118.125 157.952" fill="none" stroke="#1B1922" stroke-width="3.25" />
  <path d="M 132.058 147.935 L 131.534 152.262 L 129.790 161.150 L 127.907 163.554 L 130.805 170.546 L 127.943 162.460 L 126.906 156.315" fill="none" stroke="#3E2A32" stroke-width="1.10" />
  <path d="M 154.245 151.828 L 156.188 156.914 L 157.012 162.692 L 157.182 159.448 L 154.880 156.724 L 155.201 151.990" fill="none" stroke="#132546" stroke-width="2.37" />
  <path d="M 80.358 154.127 L 79.410 160.314 L 78.932 155.637" fill="none" stroke="#2D3141" stroke-width="0.30" />
  <path d="M 93.870 156.488 L 86.794 161.678 L 89.888 161.930 L 88.604 161.725 L 86.412 162.191 L 88.786 165.037 L 87.103 158.307 L 84.784 159.442 L 85.101 167.634" fill="none" stroke="#171924" stroke-width="2.82" />
  <path d="M 75.465 156.865 L 74.370 162.934 L 78.399 167.444 L 77.519 167.164 L 72.150 160.306" fill="none" stroke="#43464B" stroke-width="0.98" />
  <path d="M 70.269 161.279 L 70.626 168.435 L 71.367 170.980 L 68.656 167.235 L 67.584 165.345 L 67.309 167.069 L 65.245 167.189 L 63.441 169.493 L 63.191 165.936 L 62.795 170.780 L 66.501 164.774" fill="none" stroke="#1D2431" stroke-width="1.06" />
  <path d="M 53.596 161.241 L 44.157 167.952 L 39.054 179.082 L 37.826 176.772 L 41.644 173.735" fill="none" stroke="#171B27" stroke-width="0.42" />
  <path d="M 57.691 163.004 L 50.189 170.852" fill="none" stroke="#0D1019" stroke-width="0.30" />
  <path d="M 47.906 170.540 L 40.854 181.733 L 39.759 195.056 L 43.874 197.017 L 39.256 193.914 L 40.606 194.287 L 40.541 181.570 L 44.368 173.300" fill="none" stroke="#0D1018" stroke-width="4.87" />
  <path d="M 112.778 174.871 L 115.589 173.274 L 113.518 173.527 L 108.108 174.676 L 99.928 181.626" fill="none" stroke="#000000" stroke-width="0.30" />
  <path d="M 72.073 173.717 L 74.048 172.928 L 73.081 176.831 L 70.449 174.606 L 71.442 179.709 L 77.068 183.949 L 79.365 183.235 L 77.372 180.361 L 81.817 181.052 L 77.446 180.323 L 77.440 182.968 L 74.196 184.436 L 73.804 179.614 L 69.109 179.831 L 68.605 183.022 L 67.879 181.296 L 67.538 184.561 L 65.286 185.967 L 65.467 188.626 L 64.375 189.342 L 61.938 193.901 L 61.882 191.369 L 58.003 198.622 L 59.487 194.344 L 57.199 198.539 L 54.308 199.239 L 50.276 201.962 L 50.537 203.657 L 51.306 200.431 L 66.675 183.611" fill="none" stroke="#030405" stroke-width="1.16" />
  <path d="M 85.097 194.966 L 88.079 196.321 L 87.631 194.921 L 87.867 199.321 L 81.334 201.709 L 76.186 206.041 L 84.662 199.469" fill="none" stroke="#1C1C38" stroke-width="0.30" />
  <path d="M 51.933 204.926 L 52.681 208.916 L 58.877 210.234 L 52.436 204.737 L 50.322 207.403" fill="none" stroke="#13161D" stroke-width="0.29" />
  <path d="M 70.236 207.632 L 75.064 208.304 L 73.399 214.114 L 75.122 208.183 L 71.460 208.866 L 71.661 210.838 L 68.951 208.733" fill="none" stroke="#050610" stroke-width="0.29" />
  <path d="M 44.631 211.554 L 43.509 214.430 L 44.173 217.752 L 43.028 210.781 L 37.845 213.718 L 39.252 218.507 L 39.878 215.692 L 41.152 218.318 L 41.091 223.409 L 43.199 219.143" fill="none" stroke="#040406" stroke-width="0.31" />
  <path d="M 70.453 212.794 L 63.151 221.175" fill="none" stroke="#000000" stroke-width="0.30" />
  <path d="M 37.987 228.129 L 43.051 235.164 L 45.813 233.139 L 42.855 235.325 L 40.945 231.688 L 39.469 231.706 L 42.555 231.950 L 46.626 230.708 L 38.931 229.929" fill="none" stroke="#020303" stroke-width="0.64" />
  <path d="M 62.418 236.532 L 65.347 240.432 L 64.991 236.552 L 62.562 236.973 L 59.404 242.186 L 59.461 240.801 L 58.511 236.504" fill="none" stroke="#010819" stroke-width="0.29" />
  <path d="M 70.470 242.928 L 76.719 246.388 L 76.732 254.169 L 77.036 248.318 L 74.428 242.257 L 69.190 244.343" fill="none" stroke="#000000" stroke-width="1.39" />
  <path d="M 58.926 251.037 L 63.154 252.086 L 58.129 252.381 L 60.865 254.611 L 55.898 251.342" fill="none" stroke="#030304" stroke-width="0.29" />
  <path d="M 107.567 5.674 L 113.238 7.179 L 112.298 7.496 L 110.861 9.714 L 110.887 21.286 L 106.028 6.589 L 107.296 8.229" fill="none" stroke="#000000" stroke-width="0.59" />
  <path d="M 91.981 25.257 L 99.454 39.643 L 96.001 28.134 L 98.606 23.583 L 109.621 29.112 L 95.933 23.460" fill="none" stroke="#2E1A1F" stroke-width="0.72" />
  <path d="M 229.233 24.830 L 223.159 33.139 L 219.172 34.753 L 224.595 28.347" fill="none" stroke="#000000" stroke-width="0.30" />
  <path d="M 120.179 34.318 L 128.848 37.508 L 122.296 34.200" fill="none" stroke="#1B0404" stroke-width="0.37" />
  <path d="M 194.916 52.005 L 196.521 63.392 L 188.911 75.794 L 196.262 60.245 L 192.678 52.072" fill="none" stroke="#2574A2" stroke-width="0.91" />
  <path d="M 185.985 58.962 L 190.440 64.458 L 188.474 57.727 L 184.961 64.649" fill="none" stroke="#1B3B5D" stroke-width="1.56" />
  <path d="M 140.488 62.545 L 142.299 67.104 L 139.108 77.576 L 141.888 65.801" fill="none" stroke="#9A573E" stroke-width="0.39" />
  <path d="M 169.023 73.348 L 157.695 79.666 L 152.446 92.406 L 157.397 86.677 L 153.877 84.062 L 152.912 87.687 L 151.631 87.540 L 147.425 86.406 L 152.595 83.304" fill="none" stroke="#38141A" stroke-width="0.73" />
  <path d="M 145.976 79.983 L 147.726 83.730 L 144.661 87.025 L 144.856 82.562 L 141.089 82.801 L 142.652 87.186 L 141.697 80.463" fill="none" stroke="#7C1E28" stroke-width="0.81" />
  <path d="M 128.311 81.174 L 125.543 90.599 L 126.048 83.407" fill="none" stroke="#606D62" stroke-width="0.29" />
  <path d="M 143.047 92.315 L 136.963 93.340 L 139.430 97.145 L 136.049 94.431 L 131.379 100.016 L 139.477 92.541" fill="none" stroke="#371C0B" stroke-width="0.30" />
  <path d="M 134.287 91.403 L 136.018 93.008 L 122.848 99.064 L 109.011 110.469" fill="none" stroke="#AF7341" stroke-width="0.77" />
  <path d="M 172.249 96.820 L 173.419 98.705 L 168.552 99.296 L 166.390 104.645 L 166.872 99.128" fill="none" stroke="#794021" stroke-width="0.29" />
  <path d="M 126.239 99.040 L 135.366 114.506 L 150.158 105.006 L 136.385 114.198 L 137.313 117.488 L 135.280 116.510 L 133.510 120.856 L 131.101 118.405 L 127.693 120.732 L 133.144 113.863 L 125.893 98.919" fill="none" stroke="#B48151" stroke-width="1.03" />
  <path d="M 151.434 101.220 L 159.843 101.247 L 150.796 103.617" fill="none" stroke="#13375C" stroke-width="0.29" />
  <path d="M 162.319 110.676 L 165.344 123.124 L 159.158 112.683" fill="none" stroke="#063063" stroke-width="0.30" />
  <path d="M 113.338 125.728 L 100.186 140.550 L 99.613 146.446 L 133.257 144.722 L 148.565 154.022 L 137.894 146.491 L 116.053 144.609 L 83.691 146.665 L 73.657 153.736 L 79.114 167.680 L 73.298 155.560 L 64.862 159.846 L 100.909 142.170" fill="none" stroke="#050609" stroke-width="1.08" />
  <path d="M 223.369 125.626 L 224.606 130.164 L 219.511 129.418 L 222.239 140.877 L 226.182 133.130 L 221.405 140.026 L 218.578 127.855" fill="none" stroke="#051413" stroke-width="0.30" />
  <path d="M 65.025 146.173 L 75.306 147.817 L 62.247 146.169 L 56.776 148.528 L 51.890 158.222 L 42.090 160.658 L 35.688 167.283 L 35.494 180.372 L 36.241 196.661 L 34.829 185.161 L 33.757 171.837 L 55.603 150.521" fill="none" stroke="#000000" stroke-width="4.27" />
  <path d="M 72.814 176.124 L 68.179 179.171 L 67.950 189.271 L 50.999 204.759 L 68.268 178.760" fill="none" stroke="#000000" stroke-width="0.61" />
  <path d="M 42.330 229.655 L 47.152 230.970 L 41.079 230.141 L 41.010 236.269 L 40.374 233.032" fill="none" stroke="#020203" stroke-width="0.68" />
  <path d="M 208.108 2.045 L 224.091 2.712 L 232.088 7.230 L 234.319 22.716 L 235.474 12.037 L 227.073 5.089 L 206.092 3.838 L 189.278 17.496" fill="none" stroke="#000000" stroke-width="0.29" />
  <path d="M 108.067 6.213 L 113.826 8.324 L 115.858 15.835 L 115.035 5.467 L 108.383 6.437 L 105.141 16.678 L 87.342 19.669 L 89.641 26.916 L 91.806 21.197 L 86.822 27.556 L 90.550 14.708 L 106.371 9.850" fill="none" stroke="#000000" stroke-width="0.31" />
  <path d="M 223.949 13.598 L 231.392 19.456 L 231.591 12.743 L 228.414 15.249 L 227.582 22.202 L 224.263 13.258 L 218.272 22.226 L 206.175 21.008 L 218.260 17.714" fill="none" stroke="#114881" stroke-width="3.19" />
  <path d="M 115.242 18.619 L 130.603 19.813 L 116.836 20.321 L 111.971 30.240 L 113.693 22.165" fill="none" stroke="#000000" stroke-width="0.32" />
  <path d="M 150.765 20.041 L 173.450 20.919 L 178.240 31.136 L 170.653 36.320 L 175.616 21.083 L 130.931 21.427" fill="none" stroke="#000000" stroke-width="0.74" />
  <path d="M 193.342 50.694 L 198.220 64.519 L 186.838 76.630 L 196.757 60.973 L 194.408 51.617 L 188.948 57.756 L 192.767 64.831 L 188.107 54.882" fill="none" stroke="#225D8A" stroke-width="0.62" />
  <path d="M 173.086 90.224 L 175.384 91.677 L 168.322 92.829 L 158.831 101.083 L 163.550 95.383" fill="none" stroke="#2B1708" stroke-width="0.31" />
  <path d="M 132.566 143.633 L 139.940 150.551 L 132.402 143.313 L 82.668 146.251 L 74.477 154.855 L 76.927 166.447 L 73.947 159.259 L 96.336 145.112" fill="none" stroke="#10090A" stroke-width="0.33" />
  <path d="M 164.026 151.021 L 160.818 170.207 L 164.244 152.057" fill="none" stroke="#000000" stroke-width="0.30" />
  <path d="M 48.302 158.657 L 32.791 171.453 L 36.461 192.360 L 36.810 171.546" fill="none" stroke="#000000" stroke-width="0.29" />
  <path d="M 207.047 1.205 L 226.837 8.071 L 197.473 5.580" fill="none" stroke="#000000" stroke-width="0.31" />
  <path d="M 107.736 6.068 L 116.587 16.697 L 114.470 6.701 L 109.036 5.196 L 105.084 15.180 L 89.258 16.548 L 87.720 26.968 L 87.053 19.049" fill="none" stroke="#000000" stroke-width="0.53" />
  <path d="M 233.218 12.349 L 231.823 19.298 L 225.142 14.550 L 214.117 19.779 L 225.619 17.992 L 226.969 20.185" fill="none" stroke="#D9341B" stroke-width="0.30" />
  <path d="M 151.399 20.970 L 169.761 20.619 L 177.326 28.337 L 175.167 22.738 L 151.974 22.476 L 124.522 26.565" fill="none" stroke="#000000" stroke-width="0.78" />
  <path d="M 140.665 80.327 L 149.948 87.887 L 143.160 90.598 L 147.463 80.469 L 138.667 82.725 L 143.009 88.068 L 141.125 85.093" fill="none" stroke="#54131B" stroke-width="1.73" />
  <path d="M 140.123 87.077 L 139.327 98.021 L 131.883 91.661 L 108.084 114.018 L 134.536 95.975 L 138.497 87.840" fill="none" stroke="#221F25" stroke-width="0.76" />
  <path d="M 188.514 99.826 L 212.299 113.128 L 197.125 103.019 L 191.829 101.619 L 196.101 109.809 L 187.254 100.931" fill="none" stroke="#00020D" stroke-width="0.30" />
  <path d="M 216.805 113.183 L 236.070 124.666 L 218.666 118.057" fill="none" stroke="#000000" stroke-width="0.29" />
  <path d="M 118.191 146.506 L 83.149 148.159 L 73.443 155.804 L 79.555 164.230 L 74.386 152.912" fill="none" stroke="#13121B" stroke-width="0.49" />
  <path d="M 45.941 158.557 L 33.163 180.797 L 39.606 163.225" fill="none" stroke="#000000" stroke-width="0.31" />
  <path d="M 203.073 53.795 L 206.394 69.354 L 194.467 98.687 L 196.153 88.888 L 192.721 90.630 L 205.232 71.804 L 204.990 56.151 L 183.759 84.801 L 203.066 60.875" fill="none" stroke="#502735" stroke-width="0.52" />
  <path d="M 83.987 146.858 L 103.568 146.609 L 81.467 149.276 L 72.646 157.390 L 77.050 162.894 L 73.086 154.710" fill="none" stroke="#000000" stroke-width="0.89" />
  <path d="M 133.735 21.428 L 171.195 20.894 L 179.535 24.510 L 151.649 20.024 L 126.865 23.918" fill="none" stroke="#000000" stroke-width="0.33" />
  <path d="M 134.681 92.674 L 138.848 95.698 L 142.014 92.213 L 132.765 96.422 L 136.408 91.626 L 124.076 97.531" fill="none" stroke="#AF7341" stroke-width="0.53" />
  <path d="M 98.413 143.526 L 80.001 148.780 L 75.270 163.282 L 74.168 154.127" fill="none" stroke="#000000" stroke-width="1.04" />
  <path d="M 205.108 49.947 L 205.210 68.595 L 194.511 95.879 L 207.664 58.550 L 188.823 80.488 L 203.432 51.550" fill="none" stroke="#310C10" stroke-width="3.01" />
  <path d="M 206.449 2.314 L 231.653 8.617 L 233.330 22.493 L 234.670 11.787 L 226.369 4.455 L 199.194 6.157" fill="none" stroke="#000000" stroke-width="0.29" />
  <path d="M 207.898 10.365 L 202.865 19.733 L 233.532 18.006 L 222.768 12.033 L 196.454 26.512 L 207.959 11.559" fill="none" stroke="#D43F2E" stroke-width="0.32" />
  <path d="M 206.554 49.737 L 207.317 60.816 L 203.616 57.766 L 195.706 73.894 L 187.782 78.420 L 203.416 50.325" fill="none" stroke="#310C10" stroke-width="0.57" />
  <path d="M 207.162 65.047 L 193.630 95.445 L 193.892 89.781 L 207.777 69.025" fill="none" stroke="#000000" stroke-width="0.31" />
  <path d="M 147.445 43.411 L 158.588 48.269 L 145.466 47.177 L 122.833 93.985 L 142.253 56.670" fill="none" stroke="#2C1809" stroke-width="0.54" />
  <path d="M 205.541 54.234 L 207.311 60.911 L 189.021 80.246 L 202.125 60.877" fill="none" stroke="#4A0B11" stroke-width="0.55" />
  <path d="M 155.011 101.112 L 159.910 102.207 L 159.454 103.922 L 153.265 102.172 L 138.338 114.913" fill="none" stroke="#000000" stroke-width="0.47" />
  <path d="M 107.160 132.239 L 100.016 143.892 L 103.153 146.982 L 133.610 143.464 L 147.500 153.971 L 135.213 144.655 L 102.953 147.045 L 99.999 144.192 L 97.747 147.090 L 81.760 148.222 L 71.361 155.609 L 65.182 159.812 L 100.529 141.464 L 104.382 136.017" fill="none" stroke="#000000" stroke-width="0.80" />
  <path d="M 64.216 144.899 L 74.939 147.618 L 62.669 145.986 L 58.935 148.759" fill="none" stroke="#000000" stroke-width="0.29" />
</svg>