<svg width="720" height="1194" viewBox="0 0 720 1194" xmlns="http://www.w3.org/2000/svg" shape-rendering="geometricPrecision">
  <path d="M 616.0,733.0 L 651.0,738.0 L 650.0,774.0 L 613.0,777.0 L 613.0,760.0 L 610.0,738.0 L 615.0,734.0 Z" fill="#fcf6d3" />
  <path d="M 122.0,162.0 L 160.0,164.0 L 160.0,201.0 L 149.0,203.0 L 124.0,204.0 L 122.0,202.0 L 120.0,176.0 L 121.0,163.0 Z" fill="#e68d78" />
  <path d="M 127.0,81.0 L 159.0,83.0 L 160.0,121.0 L 124.0,124.0 L 120.0,120.0 L 122.0,83.0 L 126.0,82.0 Z" fill="#e58872" />
  <path d="M 574.0,899.0 L 571.0,902.0 L 571.0,938.0 L 576.0,943.0 L 610.0,939.0 L 610.0,904.0 L 575.0,900.0 Z" fill="#fdf7d3" />
  <path d="M 491.0,819.0 L 527.0,823.0 L 530.0,857.0 L 493.0,861.0 L 489.0,857.0 L 490.0,820.0 Z" fill="#fef7d3" />
  <path d="M 328.0,898.0 L 367.0,903.0 L 366.0,938.0 L 331.0,942.0 L 325.0,907.0 L 325.0,901.0 L 327.0,899.0 Z" fill="#fcf3d0" />
  <path d="M 77.0,817.0 L 82.0,820.0 L 81.0,859.0 L 79.0,861.0 L 73.0,861.0 L 42.0,857.0 L 42.0,822.0 L 49.0,820.0 L 76.0,818.0 Z" fill="#f9eecc" />
  <path d="M 31.0,285.0 L 41.0,285.0 L 45.0,289.0 L 43.0,305.0 L 43.0,328.0 L 0.0,326.0 L 0.0,287.0 L 30.0,286.0 Z" fill="#f0e7c5" />
  <path d="M 654.0,488.0 L 691.0,491.0 L 686.0,528.0 L 653.0,530.0 L 651.0,508.0 L 649.0,504.0 L 650.0,495.0 L 653.0,489.0 L 653.0,531.0 L 654.0,488.0 Z" fill="#faf1d0" />
  <path d="M 355.0,1105.0 L 364.0,1105.0 L 369.0,1108.0 L 367.0,1152.0 L 358.0,1186.0 L 311.0,1186.0 L 324.0,1186.0 L 326.0,1184.0 L 327.0,1152.0 L 329.0,1139.0 L 329.0,1110.0 L 347.0,1106.0 L 354.0,1106.0 Z" fill="#fbf0cd" />
  <path d="M 152.0,570.0 L 161.0,570.0 L 169.0,578.0 L 167.0,610.0 L 161.0,615.0 L 131.0,611.0 L 127.0,608.0 L 127.0,599.0 L 123.0,574.0 L 151.0,571.0 Z" fill="#ea8a78" />
  <path d="M 467.0,654.0 L 469.0,655.0 L 468.0,657.0 L 461.0,657.0 L 460.0,655.0 L 457.0,658.0 L 452.0,658.0 L 452.0,680.0 L 450.0,684.0 L 450.0,696.0 L 491.0,695.0 L 488.0,656.0 L 473.0,656.0 L 470.0,654.0 L 483.0,654.0 L 456.0,655.0 L 467.0,654.0 Z" fill="#cacba8" />
  <path d="M 653.0,817.0 L 688.0,819.0 L 688.0,857.0 L 658.0,860.0 L 654.0,860.0 L 652.0,858.0 L 652.0,818.0 Z" fill="#faf3d1" />
  <path d="M 531.0,0.0 L 574.0,0.0 L 574.0,38.0 L 571.0,41.0 L 536.0,38.0 L 532.0,1.0 Z" fill="#fdefc8" />
  <path d="M 455.0,445.0 L 448.0,451.0 L 447.0,486.0 L 451.0,490.0 L 483.0,487.0 L 486.0,454.0 L 473.0,452.0 L 469.0,447.0 L 456.0,446.0 Z" fill="#ebe597" />
  <path d="M 276.0,653.0 L 285.0,654.0 L 288.0,659.0 L 286.0,691.0 L 280.0,694.0 L 248.0,690.0 L 245.0,656.0 L 275.0,654.0 Z" fill="#b1b492" />
  <path d="M 529.0,1021.0 L 495.0,1026.0 L 494.0,1062.0 L 515.0,1064.0 L 527.0,1067.0 L 534.0,1063.0 L 534.0,1025.0 L 530.0,1022.0 Z" fill="#fdf4d1" />
  <path d="M 199.0,732.0 L 207.0,738.0 L 206.0,774.0 L 200.0,779.0 L 167.0,774.0 L 167.0,738.0 L 198.0,733.0 Z" fill="#f7edca" />
  <path d="M 402.0,940.0 L 406.0,940.0 L 408.0,981.0 L 403.0,984.0 L 398.0,984.0 L 371.0,980.0 L 372.0,943.0 L 401.0,941.0 Z" fill="#fdf4d1" />
  <path d="M 689.0,983.0 L 719.0,984.0 L 719.0,1022.0 L 689.0,1023.0 L 688.0,984.0 Z" fill="#fdf7d1" />
  <path d="M 650.0,940.0 L 654.0,942.0 L 655.0,981.0 L 651.0,984.0 L 644.0,984.0 L 616.0,980.0 L 616.0,945.0 L 631.0,945.0 L 634.0,942.0 L 649.0,941.0 Z" fill="#f9f3d0" />
  <path d="M 204.0,693.0 L 242.0,696.0 L 241.0,732.0 L 209.0,738.0 L 205.0,736.0 L 200.0,731.0 L 203.0,694.0 Z" fill="#fcf1ce" />
  <path d="M 241.0,39.0 L 245.0,42.0 L 245.0,81.0 L 242.0,83.0 L 233.0,84.0 L 207.0,81.0 L 206.0,42.0 L 240.0,40.0 Z" fill="#f6e5bc" />
  <path d="M 589.0,491.0 L 612.0,492.0 L 610.0,528.0 L 596.0,530.0 L 592.0,534.0 L 587.0,531.0 L 575.0,533.0 L 572.0,504.0 L 573.0,493.0 L 588.0,492.0 Z" fill="#f4a892" />
  <path d="M 237.0,900.0 L 241.0,900.0 L 245.0,904.0 L 244.0,941.0 L 240.0,945.0 L 204.0,942.0 L 205.0,904.0 L 212.0,902.0 L 236.0,901.0 Z" fill="#fdf3d0" />
  <path d="M 713.0,941.0 L 719.0,941.0 L 719.0,983.0 L 690.0,982.0 L 692.0,943.0 L 712.0,942.0 Z" fill="#fdf7d1" />
  <path d="M 164.0,161.0 L 173.0,163.0 L 180.0,162.0 L 202.0,164.0 L 201.0,200.0 L 176.0,201.0 L 172.0,203.0 L 169.0,207.0 L 165.0,205.0 L 161.0,201.0 L 161.0,164.0 L 163.0,162.0 Z" fill="#e89077" />
  <path d="M 369.0,777.0 L 407.0,782.0 L 408.0,816.0 L 406.0,818.0 L 366.0,819.0 L 365.0,782.0 L 368.0,778.0 Z" fill="#f9efce" />
  <path d="M 36.0,897.0 L 41.0,901.0 L 41.0,938.0 L 37.0,942.0 L 0.0,939.0 L 0.0,903.0 L 35.0,898.0 Z" fill="#f4e9c8" />
  <path d="M 450.0,0.0 L 493.0,0.0 L 493.0,22.0 L 491.0,41.0 L 450.0,36.0 L 450.0,1.0 Z" fill="#fbeec4" />
  <path d="M 390.0,1023.0 L 402.0,1024.0 L 410.0,1047.0 L 393.0,1063.0 L 372.0,1059.0 L 367.0,1024.0 L 389.0,1024.0 Z" fill="#fcf3d0" />
  <path d="M 0.0,80.0 L 42.0,83.0 L 41.0,119.0 L 0.0,121.0 L 0.0,81.0 Z" fill="#ede0bc" />
  <path d="M 366.0,1024.0 L 331.0,1027.0 L 329.0,1058.0 L 329.0,1063.0 L 335.0,1064.0 L 355.0,1067.0 L 362.0,1067.0 L 366.0,1064.0 L 371.0,1059.0 L 366.0,1026.0 Z" fill="#fcf2cf" />
  <path d="M 691.0,735.0 L 719.0,736.0 L 719.0,774.0 L 691.0,775.0 L 687.0,744.0 L 687.0,738.0 L 690.0,736.0 Z" fill="#fef6d2" />
  <path d="M 81.0,1105.0 L 117.0,1109.0 L 117.0,1135.0 L 119.0,1141.0 L 117.0,1193.0 L 58.0,1193.0 L 58.0,1186.0 L 68.0,1186.0 L 70.0,1182.0 L 77.0,1148.0 L 78.0,1108.0 L 80.0,1106.0 L 54.0,1193.0 L 57.0,1193.0 L 81.0,1105.0 Z" fill="#faedcb" />
  <path d="M 478.0,488.0 L 483.0,488.0 L 489.0,494.0 L 490.0,502.0 L 488.0,507.0 L 488.0,520.0 L 486.0,531.0 L 484.0,533.0 L 480.0,533.0 L 452.0,529.0 L 452.0,491.0 L 477.0,489.0 Z" fill="#e1db7c" />
  <path d="M 244.0,942.0 L 286.0,945.0 L 286.0,980.0 L 284.0,982.0 L 245.0,982.0 L 243.0,980.0 L 241.0,958.0 L 241.0,945.0 L 243.0,943.0 Z" fill="#fcf3d0" />
  <path d="M 691.0,284.0 L 719.0,286.0 L 719.0,324.0 L 688.0,325.0 L 687.0,287.0 L 690.0,285.0 Z" fill="#fef5d2" />
  <path d="M 241.0,733.0 L 208.0,739.0 L 207.0,774.0 L 238.0,779.0 L 243.0,779.0 L 247.0,775.0 L 248.0,739.0 L 242.0,734.0 Z" fill="#f4e9c8" />
  <path d="M 82.0,491.0 L 121.0,495.0 L 121.0,530.0 L 119.0,532.0 L 103.0,533.0 L 80.0,532.0 L 77.0,529.0 L 77.0,508.0 L 78.0,494.0 L 81.0,492.0 Z" fill="#e79580" />
  <path d="M 413.0,366.0 L 447.0,370.0 L 447.0,405.0 L 414.0,410.0 L 411.0,410.0 L 407.0,407.0 L 407.0,371.0 L 412.0,367.0 Z" fill="#f9f1cf" />
  <path d="M 273.0,40.0 L 284.0,40.0 L 286.0,42.0 L 285.0,83.0 L 246.0,81.0 L 246.0,42.0 L 272.0,41.0 Z" fill="#f7e6be" />
  <path d="M 321.0,1022.0 L 325.0,1022.0 L 330.0,1027.0 L 328.0,1063.0 L 325.0,1066.0 L 321.0,1066.0 L 288.0,1062.0 L 289.0,1026.0 L 320.0,1023.0 Z" fill="#fdf3d0" />
  <path d="M 46.0,691.0 L 39.0,697.0 L 39.0,735.0 L 43.0,739.0 L 79.0,735.0 L 78.0,695.0 L 47.0,692.0 Z" fill="#f9ecca" />
  <path d="M 690.0,818.0 L 719.0,818.0 L 719.0,860.0 L 689.0,858.0 L 689.0,819.0 Z" fill="#fdf6d3" />
  <path d="M 84.0,161.0 L 80.0,164.0 L 80.0,201.0 L 82.0,203.0 L 121.0,202.0 L 119.0,165.0 L 85.0,162.0 Z" fill="#e4917b" />
  <path d="M 0.0,160.0 L 25.0,163.0 L 41.0,163.0 L 40.0,202.0 L 19.0,203.0 L 0.0,206.0 L 0.0,161.0 Z" fill="#eee1bf" />
  <path d="M 445.0,570.0 L 446.0,571.0 L 441.0,571.0 L 438.0,574.0 L 433.0,571.0 L 431.0,575.0 L 429.0,572.0 L 427.0,572.0 L 429.0,575.0 L 428.0,576.0 L 425.0,576.0 L 423.0,573.0 L 422.0,576.0 L 420.0,576.0 L 418.0,573.0 L 417.0,575.0 L 413.0,575.0 L 413.0,577.0 L 411.0,578.0 L 411.0,611.0 L 413.0,611.0 L 414.0,608.0 L 416.0,608.0 L 417.0,610.0 L 421.0,609.0 L 426.0,611.0 L 425.0,615.0 L 422.0,615.0 L 421.0,612.0 L 415.0,613.0 L 414.0,611.0 L 413.0,614.0 L 416.0,615.0 L 420.0,613.0 L 421.0,615.0 L 423.0,612.0 L 422.0,611.0 L 424.0,613.0 L 429.0,614.0 L 430.0,616.0 L 425.0,616.0 L 431.0,613.0 L 432.0,611.0 L 433.0,612.0 L 431.0,616.0 L 436.0,615.0 L 438.0,617.0 L 444.0,618.0 L 454.0,609.0 L 454.0,602.0 L 452.0,601.0 L 452.0,581.0 L 449.0,581.0 L 450.0,576.0 L 448.0,572.0 L 446.0,574.0 L 441.0,573.0 L 451.0,573.0 L 450.0,574.0 L 452.0,579.0 L 434.0,574.0 L 416.0,576.0 L 419.0,577.0 L 414.0,578.0 L 452.0,593.0 L 452.0,595.0 L 435.0,612.0 L 445.0,612.0 L 434.0,613.0 L 446.0,613.0 L 434.0,614.0 L 445.0,614.0 L 439.0,615.0 L 443.0,615.0 L 442.0,616.0 L 445.0,570.0 Z" fill="#7c8757" />
  <path d="M 494.0,0.0 L 530.0,0.0 L 535.0,35.0 L 535.0,39.0 L 530.0,44.0 L 493.0,42.0 L 492.0,36.0 L 494.0,22.0 L 494.0,1.0 Z" fill="#fceec7" />
  <path d="M 651.0,614.0 L 644.0,616.0 L 629.0,615.0 L 616.0,617.0 L 617.0,652.0 L 641.0,655.0 L 651.0,654.0 L 651.0,614.0 Z" fill="#f3a692" />
  <path d="M 562.0,1022.0 L 570.0,1022.0 L 574.0,1025.0 L 573.0,1062.0 L 567.0,1067.0 L 535.0,1062.0 L 535.0,1026.0 L 561.0,1023.0 Z" fill="#fdf6d3" />
  <path d="M 403.0,243.0 L 407.0,243.0 L 413.0,248.0 L 411.0,284.0 L 406.0,288.0 L 371.0,284.0 L 370.0,247.0 L 402.0,244.0 Z" fill="#faf0cd" />
  <path d="M 330.0,204.0 L 346.0,205.0 L 352.0,207.0 L 365.0,207.0 L 370.0,243.0 L 370.0,246.0 L 330.0,247.0 L 327.0,244.0 L 330.0,205.0 Z" fill="#faeecc" />
  <path d="M 614.0,1062.0 L 651.0,1068.0 L 651.0,1084.0 L 649.0,1088.0 L 649.0,1111.0 L 654.0,1143.0 L 656.0,1144.0 L 655.0,1149.0 L 611.0,1149.0 L 611.0,1146.0 L 598.0,1128.0 L 607.0,1108.0 L 611.0,1095.0 L 611.0,1065.0 L 613.0,1063.0 Z" fill="#faf1d0" />
  <path d="M 407.0,326.0 L 373.0,331.0 L 371.0,366.0 L 406.0,371.0 L 413.0,365.0 L 408.0,327.0 Z" fill="#fcf3d2" />
  <path d="M 33.0,529.0 L 39.0,529.0 L 44.0,534.0 L 43.0,572.0 L 18.0,572.0 L 0.0,570.0 L 0.0,530.0 L 32.0,530.0 Z" fill="#f3e7c6" />
  <path d="M 692.0,121.0 L 719.0,121.0 L 719.0,163.0 L 689.0,162.0 L 691.0,122.0 Z" fill="#fef3cf" />
  <path d="M 567.0,612.0 L 562.0,614.0 L 560.0,613.0 L 537.0,616.0 L 535.0,655.0 L 541.0,656.0 L 542.0,653.0 L 542.0,656.0 L 548.0,656.0 L 550.0,654.0 L 551.0,655.0 L 549.0,657.0 L 553.0,657.0 L 555.0,655.0 L 556.0,658.0 L 558.0,658.0 L 559.0,656.0 L 559.0,658.0 L 562.0,659.0 L 567.0,659.0 L 568.0,656.0 L 568.0,660.0 L 571.0,660.0 L 574.0,657.0 L 573.0,654.0 L 575.0,652.0 L 577.0,653.0 L 579.0,651.0 L 579.0,653.0 L 576.0,655.0 L 576.0,649.0 L 577.0,647.0 L 579.0,647.0 L 578.0,648.0 L 575.0,643.0 L 578.0,643.0 L 578.0,639.0 L 575.0,637.0 L 576.0,632.0 L 578.0,631.0 L 578.0,625.0 L 575.0,619.0 L 578.0,619.0 L 579.0,617.0 L 578.0,615.0 L 575.0,616.0 L 575.0,613.0 L 568.0,613.0 L 576.0,614.0 L 578.0,620.0 L 578.0,644.0 L 567.0,612.0 Z" fill="#788650" />
  <path d="M 534.0,735.0 L 571.0,739.0 L 570.0,775.0 L 536.0,779.0 L 532.0,778.0 L 533.0,736.0 Z" fill="#f6efce" />
  <path d="M 614.0,367.0 L 640.0,369.0 L 651.0,368.0 L 651.0,407.0 L 631.0,409.0 L 614.0,409.0 L 612.0,407.0 L 612.0,382.0 L 610.0,371.0 L 613.0,368.0 Z" fill="#f3a28d" />
  <path d="M 227.0,327.0 L 205.0,329.0 L 205.0,370.0 L 227.0,372.0 L 228.0,370.0 L 231.0,370.0 L 234.0,373.0 L 240.0,374.0 L 248.0,366.0 L 247.0,328.0 L 228.0,328.0 Z" fill="#f6dd14" />
  <path d="M 84.0,613.0 L 121.0,616.0 L 120.0,652.0 L 107.0,652.0 L 101.0,654.0 L 84.0,655.0 L 80.0,651.0 L 81.0,626.0 L 83.0,614.0 Z" fill="#e49380" />
  <path d="M 0.0,327.0 L 42.0,329.0 L 38.0,365.0 L 0.0,369.0 L 0.0,328.0 Z" fill="#f1e7c6" />
  <path d="M 123.0,244.0 L 164.0,249.0 L 164.0,283.0 L 133.0,288.0 L 124.0,288.0 L 119.0,284.0 L 119.0,247.0 L 122.0,245.0 Z" fill="#e8907b" />
  <path d="M 201.0,42.0 L 205.0,43.0 L 206.0,82.0 L 191.0,83.0 L 179.0,81.0 L 164.0,81.0 L 167.0,45.0 L 200.0,43.0 Z" fill="#f6e4bc" />
  <path d="M 289.0,614.0 L 285.0,617.0 L 285.0,653.0 L 288.0,656.0 L 321.0,653.0 L 322.0,647.0 L 324.0,645.0 L 322.0,640.0 L 324.0,635.0 L 326.0,634.0 L 326.0,632.0 L 323.0,630.0 L 327.0,628.0 L 323.0,626.0 L 325.0,624.0 L 326.0,619.0 L 291.0,615.0 L 327.0,629.0 L 326.0,640.0 L 322.0,644.0 L 325.0,645.0 L 289.0,614.0 Z" fill="#b3b590" />
  <path d="M 575.0,0.0 L 615.0,0.0 L 615.0,39.0 L 611.0,42.0 L 575.0,38.0 L 575.0,1.0 Z" fill="#fcefc8" />
  <path d="M 78.0,368.0 L 81.0,370.0 L 83.0,407.0 L 78.0,411.0 L 44.0,407.0 L 45.0,372.0 L 77.0,369.0 Z" fill="#e59d88" />
  <path d="M 575.0,653.0 L 575.0,656.0 L 577.0,656.0 L 579.0,654.0 L 578.0,653.0 L 581.0,653.0 L 591.0,654.0 L 595.0,656.0 L 598.0,655.0 L 612.0,657.0 L 612.0,690.0 L 589.0,693.0 L 575.0,693.0 L 573.0,682.0 L 574.0,677.0 L 572.0,674.0 L 573.0,669.0 L 571.0,662.0 L 572.0,659.0 L 575.0,657.0 L 575.0,653.0 Z" fill="#debda2" />
  <path d="M 154.0,981.0 L 161.0,981.0 L 163.0,983.0 L 163.0,1021.0 L 160.0,1023.0 L 148.0,1023.0 L 125.0,1020.0 L 122.0,984.0 L 153.0,982.0 Z" fill="#f4e9ca" />
  <path d="M 371.0,1060.0 L 392.0,1064.0 L 401.0,1079.0 L 384.0,1102.0 L 380.0,1106.0 L 370.0,1108.0 L 364.0,1104.0 L 362.0,1091.0 L 362.0,1068.0 L 370.0,1061.0 Z" fill="#fdf3d0" />
  <path d="M 325.0,0.0 L 366.0,0.0 L 364.0,39.0 L 337.0,41.0 L 325.0,40.0 L 326.0,1.0 Z" fill="#f3e5bd" />
  <path d="M 533.0,448.0 L 568.0,453.0 L 569.0,489.0 L 532.0,493.0 L 530.0,491.0 L 530.0,461.0 L 532.0,449.0 Z" fill="#f5a288" />
  <path d="M 204.0,371.0 L 227.0,373.0 L 228.0,371.0 L 231.0,371.0 L 234.0,374.0 L 238.0,374.0 L 241.0,378.0 L 240.0,407.0 L 221.0,407.0 L 206.0,410.0 L 204.0,408.0 L 204.0,384.0 L 202.0,381.0 L 203.0,372.0 Z" fill="#f0d580" />
  <path d="M 69.0,530.0 L 77.0,530.0 L 81.0,533.0 L 80.0,571.0 L 44.0,573.0 L 45.0,534.0 L 68.0,531.0 Z" fill="#e59d89" />
  <path d="M 158.0,817.0 L 160.0,817.0 L 165.0,822.0 L 164.0,860.0 L 162.0,862.0 L 158.0,862.0 L 124.0,857.0 L 124.0,822.0 L 140.0,819.0 L 157.0,818.0 Z" fill="#f6edca" />
  <path d="M 683.0,529.0 L 686.0,529.0 L 692.0,533.0 L 689.0,572.0 L 680.0,573.0 L 668.0,571.0 L 654.0,571.0 L 653.0,532.0 L 682.0,530.0 Z" fill="#f9f2cf" />
  <path d="M 527.0,82.0 L 535.0,84.0 L 535.0,119.0 L 529.0,125.0 L 494.0,120.0 L 495.0,84.0 L 526.0,83.0 Z" fill="#ee9884" />
  <path d="M 123.0,1105.0 L 160.0,1110.0 L 163.0,1145.0 L 176.0,1177.0 L 178.0,1179.0 L 183.0,1179.0 L 183.0,1193.0 L 118.0,1193.0 L 120.0,1157.0 L 120.0,1141.0 L 118.0,1135.0 L 118.0,1109.0 L 122.0,1106.0 Z" fill="#fbeecc" />
  <path d="M 375.0,1107.0 L 382.0,1107.0 L 409.0,1117.0 L 408.0,1147.0 L 411.0,1161.0 L 418.0,1185.0 L 420.0,1187.0 L 429.0,1187.0 L 429.0,1193.0 L 347.0,1193.0 L 346.0,1187.0 L 358.0,1187.0 L 360.0,1183.0 L 368.0,1152.0 L 370.0,1109.0 L 374.0,1108.0 Z" fill="#fbf1cf" />
  <path d="M 200.0,284.0 L 168.0,287.0 L 168.0,310.0 L 170.0,318.0 L 169.0,323.0 L 186.0,325.0 L 197.0,328.0 L 206.0,327.0 L 205.0,291.0 L 201.0,285.0 Z" fill="#f6da24" />
  <path d="M 331.0,530.0 L 327.0,534.0 L 326.0,539.0 L 325.0,572.0 L 328.0,575.0 L 365.0,572.0 L 365.0,534.0 L 332.0,531.0 Z" fill="#f7eecc" />
  <path d="M 448.0,857.0 L 411.0,861.0 L 414.0,895.0 L 445.0,900.0 L 448.0,900.0 L 452.0,897.0 L 452.0,874.0 L 451.0,861.0 L 449.0,858.0 Z" fill="#fdf4d1" />
  <path d="M 655.0,40.0 L 686.0,43.0 L 690.0,80.0 L 674.0,82.0 L 652.0,82.0 L 651.0,43.0 L 653.0,41.0 L 691.0,80.0 L 652.0,83.0 L 655.0,40.0 Z" fill="#f8ecc8" />
  <path d="M 248.0,367.0 L 287.0,371.0 L 286.0,381.0 L 288.0,408.0 L 242.0,409.0 L 242.0,378.0 L 240.0,375.0 L 247.0,368.0 Z" fill="#f8de18" />
  <path d="M 523.0,778.0 L 533.0,779.0 L 533.0,816.0 L 531.0,819.0 L 528.0,822.0 L 521.0,822.0 L 492.0,818.0 L 495.0,780.0 L 522.0,779.0 Z" fill="#fef6d3" />
  <path d="M 489.0,242.0 L 456.0,247.0 L 456.0,284.0 L 471.0,286.0 L 474.0,288.0 L 474.0,290.0 L 475.0,287.0 L 486.0,289.0 L 491.0,284.0 L 491.0,275.0 L 493.0,274.0 L 493.0,270.0 L 495.0,275.0 L 495.0,281.0 L 491.0,286.0 L 489.0,244.0 L 494.0,245.0 L 490.0,246.0 L 495.0,246.0 L 490.0,247.0 L 495.0,247.0 L 490.0,248.0 L 495.0,248.0 L 491.0,249.0 L 495.0,249.0 L 491.0,251.0 L 491.0,253.0 L 495.0,253.0 L 491.0,254.0 L 495.0,254.0 L 491.0,255.0 L 495.0,255.0 L 491.0,256.0 L 491.0,258.0 L 494.0,259.0 L 492.0,260.0 L 493.0,264.0 L 491.0,265.0 L 495.0,266.0 L 491.0,267.0 L 491.0,273.0 L 489.0,242.0 Z" fill="#eceadf" />
  <path d="M 652.0,654.0 L 689.0,657.0 L 688.0,693.0 L 656.0,697.0 L 648.0,690.0 L 648.0,686.0 L 650.0,683.0 L 651.0,655.0 Z" fill="#faf2cf" />
  <path d="M 278.0,1105.0 L 287.0,1106.0 L 287.0,1140.0 L 295.0,1183.0 L 297.0,1185.0 L 310.0,1185.0 L 311.0,1191.0 L 252.0,1191.0 L 247.0,1145.0 L 248.0,1108.0 L 277.0,1106.0 Z" fill="#faefcc" />
  <path d="M 30.0,736.0 L 39.0,736.0 L 43.0,740.0 L 41.0,777.0 L 37.0,779.0 L 0.0,775.0 L 0.0,739.0 L 29.0,737.0 Z" fill="#f3e8c8" />
  <path d="M 564.0,1106.0 L 568.0,1106.0 L 578.0,1117.0 L 597.0,1128.0 L 610.0,1146.0 L 610.0,1193.0 L 527.0,1193.0 L 526.0,1188.0 L 524.0,1187.0 L 524.0,1183.0 L 535.0,1182.0 L 540.0,1161.0 L 540.0,1147.0 L 533.0,1130.0 L 534.0,1109.0 L 563.0,1107.0 Z" fill="#fcf3d2" />
  <path d="M 614.0,284.0 L 649.0,288.0 L 648.0,325.0 L 623.0,327.0 L 611.0,326.0 L 610.0,288.0 L 613.0,285.0 Z" fill="#f49f8c" />
  <path d="M 530.0,858.0 L 493.0,862.0 L 493.0,898.0 L 529.0,902.0 L 533.0,898.0 L 533.0,860.0 L 531.0,859.0 Z" fill="#fdf5d2" />
  <path d="M 82.0,326.0 L 118.0,329.0 L 118.0,365.0 L 86.0,369.0 L 80.0,368.0 L 76.0,331.0 L 81.0,327.0 Z" fill="#e5907c" />
  <path d="M 652.0,204.0 L 676.0,205.0 L 685.0,207.0 L 690.0,241.0 L 690.0,243.0 L 653.0,246.0 L 651.0,231.0 L 652.0,205.0 Z" fill="#f8eecb" />
  <path d="M 576.0,201.0 L 611.0,206.0 L 609.0,242.0 L 596.0,244.0 L 592.0,243.0 L 590.0,245.0 L 576.0,247.0 L 570.0,243.0 L 570.0,206.0 L 575.0,202.0 Z" fill="#f3a18e" />
  <path d="M 316.0,902.0 L 324.0,902.0 L 330.0,941.0 L 287.0,945.0 L 288.0,905.0 L 315.0,903.0 Z" fill="#fcf3d0" />
  <path d="M 159.0,202.0 L 161.0,202.0 L 168.0,208.0 L 167.0,246.0 L 163.0,248.0 L 123.0,243.0 L 124.0,206.0 L 135.0,204.0 L 158.0,203.0 Z" fill="#e98a76" />
  <path d="M 197.0,818.0 L 203.0,819.0 L 206.0,857.0 L 201.0,862.0 L 165.0,860.0 L 166.0,822.0 L 196.0,819.0 Z" fill="#f6ecca" />
  <path d="M 412.0,529.0 L 407.0,533.0 L 406.0,571.0 L 409.0,571.0 L 411.0,577.0 L 414.0,573.0 L 424.0,573.0 L 422.0,575.0 L 414.0,577.0 L 413.0,530.0 L 422.0,530.0 L 447.0,533.0 L 447.0,557.0 L 445.0,563.0 L 447.0,565.0 L 445.0,566.0 L 447.0,566.0 L 447.0,568.0 L 433.0,570.0 L 447.0,570.0 L 427.0,571.0 L 447.0,571.0 L 426.0,572.0 L 446.0,573.0 L 407.0,574.0 L 433.0,574.0 L 425.0,575.0 L 428.0,575.0 L 412.0,529.0 Z" fill="#f1ebc8" />
  <path d="M 370.0,367.0 L 406.0,372.0 L 406.0,406.0 L 376.0,410.0 L 370.0,410.0 L 365.0,406.0 L 366.0,376.0 L 367.0,370.0 L 369.0,368.0 Z" fill="#faf1d0" />
  <path d="M 327.0,776.0 L 362.0,780.0 L 364.0,782.0 L 364.0,817.0 L 328.0,820.0 L 322.0,814.0 L 326.0,777.0 Z" fill="#f8edcc" />
  <path d="M 711.0,532.0 L 719.0,532.0 L 719.0,573.0 L 690.0,572.0 L 693.0,533.0 L 710.0,533.0 Z" fill="#fef6d2" />
  <path d="M 19.0,983.0 L 39.0,984.0 L 40.0,1021.0 L 38.0,1024.0 L 36.0,1026.0 L 0.0,1025.0 L 0.0,985.0 L 18.0,984.0 Z" fill="#f5ebca" />
  <path d="M 287.0,691.0 L 283.0,694.0 L 283.0,734.0 L 287.0,737.0 L 294.0,737.0 L 321.0,733.0 L 323.0,729.0 L 323.0,696.0 L 288.0,692.0 Z" fill="#fdf2d0" />
  <path d="M 163.0,942.0 L 201.0,944.0 L 200.0,982.0 L 164.0,983.0 L 161.0,980.0 L 160.0,944.0 L 162.0,943.0 Z" fill="#f5ecca" />
  <path d="M 107.0,653.0 L 121.0,653.0 L 125.0,657.0 L 125.0,689.0 L 120.0,694.0 L 85.0,690.0 L 85.0,656.0 L 106.0,654.0 Z" fill="#eba793" />
  <path d="M 491.0,285.0 L 503.0,285.0 L 508.0,287.0 L 530.0,287.0 L 530.0,321.0 L 528.0,323.0 L 511.0,324.0 L 493.0,324.0 L 491.0,321.0 L 489.0,321.0 L 492.0,320.0 L 489.0,299.0 L 490.0,297.0 L 488.0,293.0 L 485.0,295.0 L 486.0,301.0 L 488.0,302.0 L 490.0,286.0 L 492.0,286.0 L 487.0,289.0 L 490.0,293.0 L 491.0,285.0 Z" fill="#b0b2bd" />
  <path d="M 246.0,284.0 L 205.0,288.0 L 207.0,305.0 L 207.0,327.0 L 241.0,327.0 L 246.0,326.0 L 246.0,286.0 Z" fill="#f7dd23" />
  <path d="M 287.0,859.0 L 325.0,861.0 L 327.0,898.0 L 324.0,901.0 L 294.0,904.0 L 287.0,904.0 L 282.0,900.0 L 283.0,865.0 L 286.0,860.0 Z" fill="#fcf3d0" />
  <path d="M 326.0,82.0 L 345.0,82.0 L 351.0,84.0 L 367.0,83.0 L 368.0,119.0 L 366.0,121.0 L 351.0,120.0 L 349.0,122.0 L 327.0,122.0 L 321.0,84.0 L 325.0,83.0 Z" fill="#e9917c" />
  <path d="M 686.0,939.0 L 655.0,942.0 L 656.0,981.0 L 682.0,983.0 L 689.0,982.0 L 691.0,943.0 L 687.0,940.0 Z" fill="#faf3d0" />
  <path d="M 0.0,0.0 L 38.0,0.0 L 38.0,39.0 L 0.0,41.0 L 0.0,1.0 L 449.0,920.0 L 447.0,921.0 L 450.0,921.0 L 444.0,923.0 L 451.0,923.0 L 443.0,924.0 L 452.0,924.0 L 440.0,926.0 L 453.0,926.0 L 438.0,927.0 L 454.0,927.0 L 436.0,929.0 L 455.0,929.0 L 434.0,930.0 L 456.0,930.0 L 432.0,932.0 L 457.0,932.0 L 431.0,933.0 L 458.0,933.0 L 429.0,935.0 L 459.0,935.0 L 427.0,936.0 L 460.0,936.0 L 426.0,937.0 L 461.0,937.0 L 425.0,938.0 L 462.0,938.0 L 424.0,940.0 L 464.0,941.0 L 427.0,942.0 L 464.0,942.0 L 429.0,943.0 L 463.0,943.0 L 430.0,944.0 L 463.0,944.0 L 431.0,945.0 L 463.0,945.0 L 432.0,946.0 L 462.0,946.0 L 433.0,947.0 L 462.0,947.0 L 434.0,948.0 L 462.0,948.0 L 435.0,950.0 L 461.0,950.0 L 436.0,951.0 L 460.0,951.0 L 437.0,952.0 L 460.0,952.0 L 438.0,954.0 L 460.0,954.0 L 439.0,955.0 L 460.0,955.0 L 440.0,956.0 L 460.0,956.0 L 440.0,957.0 L 460.0,957.0 L 440.0,958.0 L 460.0,958.0 L 440.0,959.0 L 460.0,959.0 L 440.0,961.0 L 460.0,961.0 L 441.0,962.0 L 460.0,962.0 L 441.0,964.0 L 461.0,964.0 L 441.0,966.0 L 461.0,967.0 L 440.0,968.0 L 461.0,968.0 L 440.0,969.0 L 462.0,969.0 L 439.0,971.0 L 462.0,971.0 L 439.0,972.0 L 462.0,973.0 L 438.0,974.0 L 463.0,974.0 L 438.0,976.0 L 463.0,976.0 L 437.0,977.0 L 463.0,977.0 L 437.0,978.0 L 463.0,978.0 L 437.0,979.0 L 463.0,979.0 L 433.0,980.0 L 463.0,980.0 L 425.0,981.0 L 462.0,981.0 L 425.0,982.0 L 460.0,982.0 L 426.0,983.0 L 458.0,983.0 L 426.0,984.0 L 457.0,984.0 L 426.0,985.0 L 455.0,985.0 L 427.0,986.0 L 454.0,986.0 L 427.0,987.0 L 452.0,987.0 L 428.0,988.0 L 452.0,988.0 L 428.0,989.0 L 452.0,989.0 L 428.0,990.0 L 452.0,990.0 L 429.0,991.0 L 451.0,991.0 L 429.0,992.0 L 451.0,992.0 L 430.0,993.0 L 451.0,993.0 L 430.0,994.0 L 451.0,994.0 L 430.0,995.0 L 451.0,995.0 L 431.0,996.0 L 451.0,996.0 L 431.0,997.0 L 451.0,997.0 L 432.0,998.0 L 451.0,998.0 L 432.0,999.0 L 451.0,999.0 L 432.0,1000.0 L 451.0,1000.0 L 433.0,1001.0 L 450.0,1001.0 L 433.0,1002.0 L 450.0,1002.0 L 434.0,1003.0 L 450.0,1003.0 L 434.0,1004.0 L 450.0,1004.0 L 435.0,1005.0 L 450.0,1005.0 L 436.0,1006.0 L 450.0,1006.0 L 437.0,1007.0 L 450.0,1007.0 L 438.0,1008.0 L 450.0,1008.0 L 439.0,1009.0 L 450.0,1009.0 L 440.0,1010.0 L 449.0,1010.0 L 441.0,1011.0 L 449.0,1011.0 L 442.0,1012.0 L 449.0,1012.0 L 443.0,1013.0 L 449.0,1013.0 L 444.0,1014.0 L 449.0,1014.0 L 445.0,1015.0 L 449.0,1016.0 L 408.0,1017.0 L 449.0,1017.0 L 405.0,1018.0 L 449.0,1018.0 L 404.0,1019.0 L 429.0,1019.0 L 403.0,1020.0 L 435.0,1020.0 L 403.0,1021.0 L 439.0,1021.0 L 402.0,1022.0 L 442.0,1022.0 L 402.0,1023.0 L 441.0,1023.0 L 403.0,1024.0 L 440.0,1024.0 L 403.0,1025.0 L 439.0,1025.0 L 403.0,1026.0 L 438.0,1026.0 L 404.0,1027.0 L 437.0,1027.0 L 404.0,1028.0 L 436.0,1028.0 L 404.0,1029.0 L 435.0,1029.0 L 405.0,1030.0 L 434.0,1030.0 L 405.0,1031.0 L 433.0,1031.0 L 405.0,1032.0 L 431.0,1032.0 L 406.0,1033.0 L 430.0,1033.0 L 406.0,1034.0 L 429.0,1034.0 L 407.0,1035.0 L 428.0,1035.0 L 407.0,1036.0 L 427.0,1036.0 L 407.0,1037.0 L 425.0,1037.0 L 408.0,1038.0 L 424.0,1038.0 L 408.0,1039.0 L 423.0,1039.0 L 409.0,1040.0 L 422.0,1040.0 L 409.0,1041.0 L 420.0,1041.0 L 410.0,1042.0 L 419.0,1042.0 L 410.0,1043.0 L 418.0,1043.0 L 410.0,1044.0 L 417.0,1044.0 L 411.0,1045.0 L 415.0,1045.0 L 411.0,1046.0 L 414.0,1046.0 L 410.0,1048.0 L 413.0,1048.0 L 409.0,1049.0 L 414.0,1049.0 L 408.0,1050.0 L 416.0,1050.0 L 407.0,1051.0 L 417.0,1051.0 L 406.0,1052.0 L 418.0,1052.0 L 405.0,1053.0 L 419.0,1053.0 L 404.0,1054.0 L 420.0,1054.0 L 403.0,1055.0 L 421.0,1055.0 L 401.0,1056.0 L 423.0,1056.0 L 400.0,1057.0 L 424.0,1057.0 L 399.0,1058.0 L 425.0,1058.0 L 398.0,1059.0 L 426.0,1059.0 L 397.0,1060.0 L 427.0,1060.0 L 396.0,1061.0 L 428.0,1061.0 L 395.0,1062.0 L 429.0,1062.0 L 394.0,1063.0 L 430.0,1063.0 L 393.0,1064.0 L 431.0,1064.0 L 393.0,1065.0 L 430.0,1065.0 L 394.0,1066.0 L 429.0,1066.0 L 394.0,1067.0 L 428.0,1067.0 L 395.0,1068.0 L 427.0,1068.0 L 396.0,1069.0 L 426.0,1069.0 L 396.0,1070.0 L 425.0,1070.0 L 397.0,1071.0 L 424.0,1071.0 L 398.0,1072.0 L 423.0,1072.0 L 398.0,1073.0 L 422.0,1073.0 L 399.0,1074.0 L 421.0,1074.0 L 399.0,1075.0 L 420.0,1075.0 L 400.0,1076.0 L 419.0,1076.0 L 401.0,1077.0 L 418.0,1077.0 L 401.0,1078.0 L 416.0,1078.0 L 402.0,1079.0 L 415.0,1079.0 L 402.0,1080.0 L 414.0,1080.0 L 401.0,1081.0 L 412.0,1081.0 L 401.0,1082.0 L 411.0,1082.0 L 399.0,1084.0 L 410.0,1084.0 L 398.0,1085.0 L 411.0,1085.0 L 397.0,1086.0 L 411.0,1086.0 L 396.0,1087.0 L 412.0,1088.0 L 395.0,1089.0 L 412.0,1089.0 L 394.0,1090.0 L 413.0,1090.0 L 393.0,1091.0 L 413.0,1091.0 L 392.0,1092.0 L 414.0,1093.0 L 391.0,1094.0 L 415.0,1094.0 L 390.0,1095.0 L 415.0,1095.0 L 389.0,1096.0 L 415.0,1096.0 L 388.0,1097.0 L 416.0,1098.0 L 387.0,1099.0 L 417.0,1099.0 L 386.0,1100.0 L 417.0,1100.0 L 385.0,1101.0 L 418.0,1102.0 L 384.0,1103.0 L 418.0,1103.0 L 383.0,1104.0 L 419.0,1104.0 L 382.0,1105.0 L 419.0,1105.0 L 381.0,1106.0 L 420.0,1106.0 L 383.0,1107.0 L 420.0,1107.0 L 386.0,1108.0 L 419.0,1108.0 L 389.0,1109.0 L 418.0,1109.0 L 391.0,1110.0 L 417.0,1110.0 L 394.0,1111.0 L 416.0,1111.0 L 397.0,1112.0 L 415.0,1112.0 L 399.0,1113.0 L 414.0,1113.0 L 402.0,1114.0 L 413.0,1114.0 L 405.0,1115.0 L 411.0,1115.0 L 407.0,1116.0 L 611.0,1150.0 L 654.0,1150.0 L 611.0,1151.0 L 654.0,1151.0 L 611.0,1152.0 L 654.0,1152.0 L 611.0,1153.0 L 654.0,1153.0 L 611.0,1154.0 L 654.0,1154.0 L 611.0,1155.0 L 654.0,1155.0 L 611.0,1156.0 L 654.0,1156.0 L 611.0,1157.0 L 654.0,1157.0 L 611.0,1158.0 L 654.0,1158.0 L 611.0,1159.0 L 654.0,1159.0 L 611.0,1160.0 L 654.0,1160.0 L 611.0,1161.0 L 654.0,1161.0 L 611.0,1162.0 L 654.0,1162.0 L 611.0,1163.0 L 654.0,1163.0 L 611.0,1164.0 L 654.0,1164.0 L 611.0,1166.0 L 719.0,1166.0 L 611.0,1167.0 L 719.0,1167.0 L 611.0,1168.0 L 719.0,1168.0 L 611.0,1169.0 L 719.0,1169.0 L 611.0,1170.0 L 719.0,1170.0 L 611.0,1171.0 L 719.0,1171.0 L 611.0,1172.0 L 719.0,1172.0 L 611.0,1173.0 L 719.0,1173.0 L 611.0,1174.0 L 719.0,1174.0 L 611.0,1175.0 L 719.0,1175.0 L 611.0,1176.0 L 719.0,1176.0 L 611.0,1177.0 L 719.0,1177.0 L 611.0,1178.0 L 719.0,1178.0 L 611.0,1179.0 L 719.0,1179.0 L 611.0,1180.0 L 719.0,1180.0 L 611.0,1181.0 L 719.0,1182.0 L 515.0,1183.0 L 719.0,1183.0 L 515.0,1184.0 L 719.0,1184.0 L 515.0,1185.0 L 719.0,1186.0 L 312.0,1187.0 L 719.0,1187.0 L 312.0,1188.0 L 719.0,1188.0 L 312.0,1189.0 L 719.0,1189.0 L 312.0,1190.0 L 719.0,1191.0 L 266.0,1192.0 L 719.0,1192.0 L 0.0,1193.0 L 719.0,1193.0 L 0.0,0.0 Z" fill="#faefcb" />
  <path d="M 81.0,860.0 L 116.0,863.0 L 120.0,899.0 L 84.0,905.0 L 79.0,899.0 L 78.0,878.0 L 80.0,861.0 Z" fill="#f2e8c7" />
  <path d="M 556.0,82.0 L 572.0,82.0 L 576.0,84.0 L 576.0,120.0 L 573.0,123.0 L 568.0,123.0 L 536.0,119.0 L 536.0,85.0 L 555.0,83.0 Z" fill="#ef9985" />
  <path d="M 451.0,817.0 L 489.0,821.0 L 488.0,857.0 L 458.0,860.0 L 450.0,859.0 L 448.0,842.0 L 448.0,820.0 L 450.0,818.0 Z" fill="#fef6d3" />
  <path d="M 37.0,447.0 L 39.0,447.0 L 46.0,453.0 L 43.0,476.0 L 43.0,489.0 L 41.0,491.0 L 29.0,491.0 L 0.0,486.0 L 0.0,452.0 L 36.0,448.0 Z" fill="#f3e7c6" />
  <path d="M 31.0,366.0 L 39.0,366.0 L 44.0,371.0 L 43.0,407.0 L 41.0,409.0 L 35.0,409.0 L 0.0,404.0 L 0.0,370.0 L 30.0,367.0 Z" fill="#f2e6c5" />
  <path d="M 125.0,775.0 L 137.0,776.0 L 160.0,781.0 L 159.0,816.0 L 124.0,821.0 L 120.0,817.0 L 120.0,779.0 L 124.0,776.0 Z" fill="#fbf1ce" />
  <path d="M 76.0,899.0 L 78.0,899.0 L 84.0,906.0 L 83.0,939.0 L 79.0,942.0 L 71.0,942.0 L 42.0,938.0 L 42.0,902.0 L 75.0,900.0 Z" fill="#faedcd" />
  <path d="M 563.0,490.0 L 570.0,490.0 L 572.0,492.0 L 571.0,504.0 L 574.0,533.0 L 532.0,529.0 L 532.0,494.0 L 562.0,491.0 Z" fill="#f3a28d" />
  <path d="M 439.0,654.0 L 435.0,656.0 L 427.0,655.0 L 425.0,657.0 L 418.0,658.0 L 410.0,657.0 L 409.0,693.0 L 449.0,695.0 L 449.0,684.0 L 451.0,680.0 L 451.0,658.0 L 447.0,654.0 L 421.0,655.0 L 427.0,657.0 L 439.0,654.0 Z" fill="#bec29d" />
  <path d="M 203.0,943.0 L 240.0,946.0 L 242.0,980.0 L 204.0,985.0 L 201.0,982.0 L 202.0,944.0 Z" fill="#fdf3d0" />
  <path d="M 66.0,981.0 L 78.0,981.0 L 82.0,985.0 L 80.0,1023.0 L 41.0,1021.0 L 40.0,984.0 L 65.0,982.0 Z" fill="#faedcc" />
  <path d="M 162.0,82.0 L 201.0,84.0 L 199.0,120.0 L 164.0,124.0 L 161.0,121.0 L 161.0,83.0 Z" fill="#e78f79" />
  <path d="M 31.0,203.0 L 42.0,204.0 L 46.0,242.0 L 42.0,246.0 L 0.0,242.0 L 0.0,207.0 L 19.0,204.0 L 30.0,204.0 Z" fill="#efe4c2" />
  <path d="M 615.0,900.0 L 648.0,905.0 L 651.0,939.0 L 634.0,941.0 L 628.0,944.0 L 615.0,944.0 L 611.0,940.0 L 611.0,903.0 L 614.0,901.0 L 631.0,944.0 L 615.0,900.0 Z" fill="#f7f1d0" />
  <path d="M 691.0,40.0 L 719.0,41.0 L 719.0,79.0 L 691.0,79.0 L 687.0,48.0 L 687.0,43.0 L 690.0,41.0 Z" fill="#fdf0cc" />
  <path d="M 120.0,0.0 L 162.0,0.0 L 160.0,37.0 L 124.0,41.0 L 120.0,40.0 L 120.0,1.0 Z" fill="#f7e6ba" />
  <path d="M 650.0,531.0 L 652.0,531.0 L 653.0,534.0 L 653.0,571.0 L 651.0,574.0 L 650.0,575.0 L 616.0,571.0 L 618.0,536.0 L 649.0,532.0 Z" fill="#f4a691" />
  <path d="M 123.0,858.0 L 161.0,863.0 L 159.0,897.0 L 128.0,902.0 L 124.0,902.0 L 121.0,899.0 L 118.0,863.0 L 122.0,859.0 Z" fill="#f5ebcc" />
  <path d="M 247.0,285.0 L 289.0,285.0 L 288.0,325.0 L 261.0,327.0 L 247.0,327.0 L 247.0,286.0 Z" fill="#f8de1a" />
  <path d="M 328.0,942.0 L 330.0,942.0 L 331.0,944.0 L 330.0,981.0 L 325.0,985.0 L 287.0,980.0 L 287.0,946.0 L 327.0,943.0 Z" fill="#fdf3d0" />
  <path d="M 692.0,492.0 L 719.0,492.0 L 719.0,531.0 L 710.0,532.0 L 691.0,532.0 L 687.0,529.0 L 692.0,493.0 Z" fill="#fef6d2" />
  <path d="M 494.0,121.0 L 529.0,126.0 L 532.0,160.0 L 494.0,164.0 L 489.0,159.0 L 491.0,143.0 L 490.0,124.0 L 493.0,122.0 Z" fill="#ed9682" />
  <path d="M 609.0,408.0 L 612.0,408.0 L 614.0,410.0 L 614.0,451.0 L 609.0,452.0 L 575.0,447.0 L 576.0,412.0 L 588.0,410.0 L 592.0,412.0 L 594.0,410.0 L 599.0,409.0 L 608.0,409.0 Z" fill="#f3a691" />
  <path d="M 278.0,1023.0 L 284.0,1023.0 L 288.0,1026.0 L 287.0,1063.0 L 282.0,1067.0 L 245.0,1063.0 L 245.0,1026.0 L 277.0,1024.0 Z" fill="#fcf2cf" />
  <path d="M 123.0,325.0 L 162.0,330.0 L 163.0,350.0 L 166.0,365.0 L 146.0,368.0 L 123.0,369.0 L 119.0,365.0 L 119.0,329.0 L 122.0,326.0 Z" fill="#eb8d7b" />
  <path d="M 18.0,615.0 L 40.0,615.0 L 44.0,653.0 L 0.0,657.0 L 0.0,618.0 L 17.0,616.0 Z" fill="#f2e7c6" />
  <path d="M 616.0,0.0 L 655.0,0.0 L 654.0,40.0 L 650.0,43.0 L 616.0,39.0 L 616.0,1.0 Z" fill="#fcefc8" />
  <path d="M 77.0,121.0 L 83.0,124.0 L 83.0,161.0 L 79.0,164.0 L 43.0,161.0 L 45.0,123.0 L 76.0,122.0 Z" fill="#e29b82" />
  <path d="M 440.0,735.0 L 450.0,736.0 L 448.0,775.0 L 412.0,775.0 L 407.0,738.0 L 439.0,736.0 Z" fill="#f8f0d0" />
  <path d="M 528.0,410.0 L 531.0,411.0 L 532.0,420.0 L 533.0,447.0 L 531.0,451.0 L 529.0,452.0 L 492.0,448.0 L 492.0,444.0 L 494.0,441.0 L 494.0,414.0 L 515.0,411.0 L 527.0,411.0 Z" fill="#ccc424" />
  <path d="M 441.0,37.0 L 448.0,37.0 L 448.0,80.0 L 412.0,82.0 L 410.0,79.0 L 406.0,40.0 L 440.0,38.0 Z" fill="#f8eac6" />
  <path d="M 592.0,120.0 L 591.0,122.0 L 576.0,121.0 L 573.0,124.0 L 572.0,160.0 L 576.0,163.0 L 610.0,159.0 L 613.0,124.0 L 596.0,123.0 L 592.0,120.0 Z" fill="#f0a08c" />
  <path d="M 310.0,491.0 L 326.0,491.0 L 330.0,530.0 L 327.0,533.0 L 288.0,530.0 L 289.0,494.0 L 298.0,492.0 L 309.0,492.0 Z" fill="#f8efcc" />
  <path d="M 43.0,490.0 L 77.0,495.0 L 76.0,529.0 L 44.0,533.0 L 39.0,528.0 L 40.0,500.0 L 42.0,491.0 Z" fill="#e9ab95" />
  <path d="M 322.0,733.0 L 330.0,740.0 L 330.0,747.0 L 328.0,750.0 L 329.0,754.0 L 327.0,758.0 L 327.0,775.0 L 325.0,777.0 L 321.0,777.0 L 313.0,775.0 L 293.0,774.0 L 289.0,773.0 L 288.0,768.0 L 288.0,738.0 L 321.0,734.0 Z" fill="#f8edcc" />
  <path d="M 535.0,120.0 L 572.0,124.0 L 571.0,159.0 L 541.0,163.0 L 536.0,163.0 L 533.0,161.0 L 530.0,125.0 L 534.0,121.0 Z" fill="#ef9f8b" />
  <path d="M 488.0,531.0 L 521.0,535.0 L 528.0,534.0 L 530.0,568.0 L 527.0,568.0 L 524.0,565.0 L 522.0,567.0 L 523.0,569.0 L 520.0,570.0 L 519.0,568.0 L 517.0,570.0 L 514.0,568.0 L 513.0,570.0 L 510.0,569.0 L 508.0,572.0 L 516.0,571.0 L 486.0,532.0 L 485.0,545.0 L 486.0,559.0 L 489.0,562.0 L 488.0,565.0 L 527.0,565.0 L 488.0,566.0 L 528.0,566.0 L 488.0,567.0 L 526.0,568.0 L 489.0,569.0 L 507.0,570.0 L 490.0,571.0 L 505.0,571.0 L 493.0,572.0 L 506.0,572.0 L 492.0,573.0 L 506.0,573.0 L 493.0,574.0 L 496.0,574.0 L 488.0,531.0 Z" fill="#b7b529" />
  <path d="M 653.0,736.0 L 686.0,738.0 L 690.0,775.0 L 655.0,778.0 L 651.0,774.0 L 652.0,737.0 Z" fill="#faf3d1" />
  <path d="M 164.0,861.0 L 183.0,861.0 L 201.0,863.0 L 202.0,896.0 L 201.0,900.0 L 175.0,902.0 L 164.0,902.0 L 160.0,898.0 L 160.0,883.0 L 163.0,862.0 L 202.0,900.0 L 164.0,861.0 Z" fill="#f4eac9" />
  <path d="M 604.0,243.0 L 610.0,243.0 L 615.0,248.0 L 614.0,283.0 L 610.0,287.0 L 577.0,283.0 L 575.0,248.0 L 590.0,246.0 L 592.0,244.0 L 603.0,244.0 Z" fill="#f2a490" />
  <path d="M 83.0,82.0 L 107.0,83.0 L 111.0,85.0 L 118.0,83.0 L 121.0,84.0 L 119.0,120.0 L 111.0,119.0 L 109.0,121.0 L 102.0,122.0 L 82.0,123.0 L 80.0,121.0 L 80.0,88.0 L 82.0,83.0 Z" fill="#e08c76" />
  <path d="M 168.0,367.0 L 169.0,369.0 L 165.0,382.0 L 166.0,409.0 L 171.0,412.0 L 172.0,409.0 L 174.0,411.0 L 177.0,411.0 L 193.0,408.0 L 203.0,408.0 L 203.0,384.0 L 201.0,381.0 L 201.0,373.0 L 174.0,373.0 L 168.0,367.0 Z" fill="#ebc69c" />
  <path d="M 158.0,653.0 L 163.0,653.0 L 166.0,655.0 L 166.0,683.0 L 164.0,685.0 L 163.0,692.0 L 160.0,695.0 L 151.0,695.0 L 126.0,690.0 L 126.0,658.0 L 140.0,655.0 L 157.0,654.0 L 125.0,690.0 L 158.0,653.0 Z" fill="#eca68f" />
  <path d="M 616.0,653.0 L 649.0,656.0 L 649.0,683.0 L 647.0,686.0 L 647.0,690.0 L 623.0,693.0 L 616.0,693.0 L 613.0,691.0 L 613.0,656.0 L 615.0,654.0 Z" fill="#f6af98" />
  <path d="M 642.0,859.0 L 652.0,859.0 L 654.0,861.0 L 656.0,897.0 L 648.0,904.0 L 616.0,899.0 L 616.0,862.0 L 641.0,860.0 Z" fill="#f6efcc" />
  <path d="M 571.0,408.0 L 552.0,411.0 L 532.0,412.0 L 534.0,447.0 L 569.0,452.0 L 574.0,447.0 L 575.0,412.0 L 572.0,409.0 Z" fill="#f3a28b" />
  <path d="M 536.0,39.0 L 570.0,42.0 L 570.0,81.0 L 556.0,81.0 L 537.0,84.0 L 531.0,82.0 L 530.0,45.0 L 535.0,40.0 Z" fill="#f9ebc7" />
  <path d="M 40.0,1022.0 L 79.0,1024.0 L 77.0,1060.0 L 42.0,1064.0 L 37.0,1032.0 L 37.0,1026.0 L 39.0,1023.0 Z" fill="#fbeecd" />
  <path d="M 444.0,406.0 L 447.0,406.0 L 456.0,413.0 L 453.0,443.0 L 454.0,445.0 L 448.0,450.0 L 410.0,446.0 L 411.0,411.0 L 443.0,407.0 Z" fill="#faf1d0" />
  <path d="M 119.0,900.0 L 121.0,900.0 L 124.0,903.0 L 125.0,939.0 L 119.0,944.0 L 113.0,944.0 L 84.0,938.0 L 85.0,906.0 L 118.0,901.0 Z" fill="#f3e7c8" />
  <path d="M 687.0,776.0 L 691.0,776.0 L 691.0,817.0 L 682.0,818.0 L 654.0,816.0 L 656.0,779.0 L 686.0,777.0 Z" fill="#faf3d1" />
  <path d="M 71.0,202.0 L 81.0,203.0 L 82.0,243.0 L 78.0,246.0 L 74.0,246.0 L 50.0,243.0 L 46.0,240.0 L 43.0,204.0 L 70.0,203.0 Z" fill="#e39982" />
  <path d="M 162.0,734.0 L 126.0,740.0 L 126.0,774.0 L 160.0,780.0 L 166.0,775.0 L 166.0,737.0 L 163.0,735.0 Z" fill="#f5e9c8" />
  <path d="M 370.0,981.0 L 402.0,985.0 L 404.0,1008.0 L 404.0,1018.0 L 402.0,1021.0 L 389.0,1023.0 L 367.0,1023.0 L 366.0,984.0 L 369.0,982.0 Z" fill="#fcf3d0" />
  <path d="M 656.0,0.0 L 690.0,0.0 L 691.0,25.0 L 691.0,39.0 L 687.0,42.0 L 655.0,39.0 L 656.0,1.0 Z" fill="#fcefc8" />
  <path d="M 202.0,489.0 L 193.0,491.0 L 177.0,490.0 L 166.0,493.0 L 168.0,529.0 L 167.0,530.0 L 200.0,535.0 L 202.0,535.0 L 208.0,530.0 L 208.0,507.0 L 205.0,506.0 L 207.0,505.0 L 207.0,501.0 L 205.0,500.0 L 208.0,499.0 L 208.0,492.0 L 205.0,489.0 L 203.0,490.0 L 208.0,501.0 L 208.0,505.0 L 202.0,489.0 Z" fill="#cb817b" />
  <path d="M 113.0,573.0 L 122.0,573.0 L 127.0,610.0 L 122.0,615.0 L 89.0,613.0 L 85.0,612.0 L 84.0,610.0 L 85.0,577.0 L 112.0,574.0 Z" fill="#e68c79" />
  <path d="M 645.0,775.0 L 651.0,775.0 L 655.0,779.0 L 653.0,816.0 L 651.0,818.0 L 620.0,816.0 L 617.0,813.0 L 616.0,795.0 L 613.0,778.0 L 644.0,776.0 Z" fill="#fef7d3" />
  <path d="M 43.0,162.0 L 79.0,165.0 L 79.0,201.0 L 53.0,203.0 L 41.0,202.0 L 42.0,163.0 Z" fill="#e4a38b" />
  <path d="M 574.0,39.0 L 611.0,43.0 L 609.0,81.0 L 600.0,81.0 L 593.0,83.0 L 575.0,83.0 L 571.0,81.0 L 571.0,42.0 L 573.0,40.0 Z" fill="#f9ebc8" />
  <path d="M 249.0,614.0 L 284.0,618.0 L 285.0,638.0 L 283.0,641.0 L 285.0,644.0 L 283.0,645.0 L 283.0,651.0 L 280.0,653.0 L 276.0,652.0 L 252.0,655.0 L 245.0,655.0 L 243.0,653.0 L 243.0,620.0 L 248.0,615.0 L 285.0,648.0 L 284.0,653.0 L 249.0,614.0 Z" fill="#b1b392" />
  <path d="M 275.0,570.0 L 283.0,570.0 L 288.0,575.0 L 286.0,616.0 L 282.0,617.0 L 250.0,613.0 L 249.0,575.0 L 274.0,571.0 Z" fill="#fbf1cc" />
  <path d="M 111.0,818.0 L 120.0,818.0 L 123.0,821.0 L 123.0,857.0 L 117.0,863.0 L 82.0,859.0 L 83.0,821.0 L 110.0,819.0 Z" fill="#f4e9c7" />
  <path d="M 483.0,160.0 L 489.0,160.0 L 494.0,165.0 L 493.0,201.0 L 490.0,203.0 L 473.0,200.0 L 456.0,200.0 L 453.0,164.0 L 472.0,161.0 L 482.0,161.0 Z" fill="#ed9583" />
  <path d="M 493.0,372.0 L 526.0,374.0 L 529.0,380.0 L 531.0,392.0 L 531.0,410.0 L 515.0,410.0 L 494.0,413.0 L 484.0,404.0 L 487.0,384.0 L 491.0,381.0 L 493.0,373.0 Z" fill="#d7cd40" />
  <path d="M 529.0,323.0 L 492.0,326.0 L 494.0,371.0 L 506.0,371.0 L 527.0,374.0 L 531.0,371.0 L 533.0,367.0 L 533.0,327.0 L 530.0,324.0 Z" fill="#fdf2d2" />
  <path d="M 686.0,448.0 L 692.0,450.0 L 691.0,490.0 L 655.0,487.0 L 654.0,481.0 L 652.0,450.0 L 685.0,449.0 Z" fill="#faf2d0" />
  <path d="M 482.0,1021.0 L 489.0,1021.0 L 494.0,1025.0 L 493.0,1062.0 L 488.0,1066.0 L 485.0,1066.0 L 473.0,1063.0 L 460.0,1062.0 L 459.0,1060.0 L 455.0,1024.0 L 481.0,1022.0 Z" fill="#fcf4d1" />
  <path d="M 197.0,1103.0 L 203.0,1103.0 L 207.0,1108.0 L 207.0,1123.0 L 204.0,1146.0 L 190.0,1177.0 L 178.0,1178.0 L 176.0,1175.0 L 163.0,1141.0 L 161.0,1108.0 L 163.0,1106.0 L 196.0,1104.0 Z" fill="#fbefcc" />
  <path d="M 359.0,616.0 L 360.0,617.0 L 357.0,618.0 L 357.0,620.0 L 355.0,620.0 L 352.0,617.0 L 350.0,619.0 L 327.0,619.0 L 326.0,624.0 L 324.0,626.0 L 328.0,627.0 L 327.0,635.0 L 325.0,635.0 L 324.0,638.0 L 327.0,640.0 L 323.0,640.0 L 326.0,645.0 L 323.0,647.0 L 322.0,653.0 L 328.0,660.0 L 332.0,660.0 L 333.0,658.0 L 336.0,659.0 L 337.0,657.0 L 341.0,658.0 L 342.0,655.0 L 344.0,656.0 L 342.0,658.0 L 346.0,657.0 L 350.0,653.0 L 352.0,656.0 L 355.0,656.0 L 353.0,654.0 L 359.0,656.0 L 361.0,654.0 L 366.0,653.0 L 366.0,645.0 L 364.0,639.0 L 365.0,636.0 L 363.0,628.0 L 364.0,623.0 L 362.0,617.0 L 360.0,620.0 L 324.0,630.0 L 323.0,644.0 L 360.0,653.0 L 326.0,655.0 L 366.0,655.0 L 327.0,656.0 L 361.0,656.0 L 337.0,659.0 L 359.0,616.0 Z" fill="#9da377" />
  <path d="M 574.0,818.0 L 611.0,822.0 L 611.0,857.0 L 578.0,861.0 L 575.0,861.0 L 570.0,857.0 L 571.0,821.0 L 573.0,819.0 Z" fill="#fdf7d3" />
  <path d="M 483.0,858.0 L 489.0,858.0 L 492.0,861.0 L 492.0,899.0 L 489.0,900.0 L 453.0,896.0 L 452.0,861.0 L 482.0,859.0 Z" fill="#fcf4d1" />
  <path d="M 459.0,1063.0 L 487.0,1067.0 L 488.0,1108.0 L 452.0,1109.0 L 450.0,1069.0 L 457.0,1064.0 L 452.0,1110.0 L 459.0,1063.0 Z" fill="#fdf4d1" />
  <path d="M 613.0,493.0 L 649.0,496.0 L 648.0,504.0 L 650.0,508.0 L 652.0,528.0 L 652.0,530.0 L 649.0,531.0 L 618.0,535.0 L 611.0,528.0 L 613.0,494.0 Z" fill="#f4a28c" />
  <path d="M 164.0,1021.0 L 200.0,1026.0 L 199.0,1061.0 L 163.0,1065.0 L 160.0,1063.0 L 160.0,1024.0 L 163.0,1022.0 Z" fill="#fbf1ce" />
  <path d="M 351.0,121.0 L 365.0,122.0 L 366.0,163.0 L 352.0,162.0 L 348.0,164.0 L 328.0,164.0 L 328.0,123.0 L 350.0,122.0 Z" fill="#eb947f" />
  <path d="M 0.0,858.0 L 38.0,860.0 L 36.0,896.0 L 0.0,902.0 L 0.0,859.0 Z" fill="#f4e9c7" />
  <path d="M 243.0,245.0 L 288.0,245.0 L 289.0,284.0 L 247.0,284.0 L 243.0,263.0 L 242.0,246.0 Z" fill="#f6dd1c" />
  <path d="M 169.0,324.0 L 204.0,329.0 L 204.0,370.0 L 202.0,372.0 L 174.0,372.0 L 170.0,369.0 L 169.0,366.0 L 167.0,366.0 L 164.0,350.0 L 164.0,330.0 L 168.0,327.0 L 168.0,325.0 Z" fill="#f6d321" />
  <path d="M 168.0,449.0 L 203.0,452.0 L 204.0,486.0 L 201.0,489.0 L 177.0,489.0 L 173.0,491.0 L 165.0,491.0 L 165.0,450.0 L 167.0,450.0 L 204.0,487.0 L 168.0,449.0 Z" fill="#ce837e" />
  <path d="M 244.0,1064.0 L 281.0,1067.0 L 283.0,1075.0 L 283.0,1089.0 L 285.0,1100.0 L 285.0,1104.0 L 248.0,1107.0 L 245.0,1104.0 L 244.0,1065.0 Z" fill="#fdf2cf" />
  <path d="M 564.0,857.0 L 569.0,857.0 L 574.0,861.0 L 573.0,899.0 L 571.0,901.0 L 568.0,901.0 L 534.0,897.0 L 534.0,861.0 L 563.0,858.0 Z" fill="#fbf6d2" />
  <path d="M 288.0,1063.0 L 325.0,1067.0 L 321.0,1102.0 L 292.0,1106.0 L 288.0,1106.0 L 286.0,1104.0 L 283.0,1067.0 L 287.0,1064.0 Z" fill="#fdf3d0" />
  <path d="M 358.0,736.0 L 364.0,736.0 L 370.0,741.0 L 369.0,776.0 L 365.0,781.0 L 362.0,779.0 L 328.0,775.0 L 328.0,758.0 L 330.0,754.0 L 329.0,750.0 L 331.0,747.0 L 331.0,740.0 L 357.0,737.0 Z" fill="#f5ebc9" />
  <path d="M 685.0,326.0 L 687.0,326.0 L 688.0,328.0 L 693.0,366.0 L 682.0,367.0 L 680.0,365.0 L 679.0,367.0 L 652.0,367.0 L 652.0,329.0 L 684.0,327.0 Z" fill="#f9f1cf" />
  <path d="M 403.0,650.0 L 401.0,653.0 L 399.0,653.0 L 399.0,651.0 L 398.0,655.0 L 407.0,654.0 L 407.0,656.0 L 409.0,656.0 L 408.0,693.0 L 405.0,696.0 L 397.0,696.0 L 370.0,692.0 L 370.0,681.0 L 368.0,680.0 L 368.0,673.0 L 370.0,672.0 L 370.0,661.0 L 369.0,659.0 L 367.0,660.0 L 370.0,658.0 L 376.0,658.0 L 377.0,655.0 L 379.0,657.0 L 391.0,656.0 L 392.0,654.0 L 393.0,656.0 L 400.0,656.0 L 395.0,652.0 L 388.0,652.0 L 382.0,655.0 L 378.0,652.0 L 373.0,655.0 L 403.0,650.0 Z" fill="#bec1a0" />
  <path d="M 359.0,818.0 L 364.0,818.0 L 366.0,820.0 L 366.0,858.0 L 326.0,861.0 L 328.0,821.0 L 358.0,819.0 Z" fill="#fdf4d1" />
  <path d="M 114.0,449.0 L 117.0,449.0 L 121.0,453.0 L 124.0,491.0 L 121.0,494.0 L 116.0,494.0 L 108.0,492.0 L 82.0,490.0 L 84.0,453.0 L 94.0,453.0 L 113.0,450.0 Z" fill="#e99480" />
  <path d="M 319.0,654.0 L 322.0,654.0 L 328.0,661.0 L 328.0,692.0 L 324.0,695.0 L 316.0,695.0 L 288.0,691.0 L 288.0,657.0 L 307.0,655.0 L 327.0,655.0 L 319.0,654.0 Z" fill="#bdbf9a" />
  <path d="M 533.0,817.0 L 570.0,821.0 L 569.0,856.0 L 536.0,860.0 L 531.0,858.0 L 528.0,823.0 L 532.0,818.0 Z" fill="#fdf7d3" />
  <path d="M 125.0,940.0 L 159.0,944.0 L 160.0,980.0 L 129.0,983.0 L 121.0,983.0 L 119.0,981.0 L 119.0,945.0 L 124.0,941.0 Z" fill="#f4e9c9" />
  <path d="M 615.0,40.0 L 650.0,44.0 L 651.0,83.0 L 647.0,82.0 L 617.0,84.0 L 610.0,81.0 L 612.0,61.0 L 611.0,46.0 L 612.0,42.0 L 614.0,41.0 Z" fill="#faecc8" />
  <path d="M 542.0,654.0 L 542.0,657.0 L 532.0,655.0 L 530.0,691.0 L 531.0,693.0 L 534.0,696.0 L 539.0,696.0 L 573.0,692.0 L 573.0,677.0 L 571.0,674.0 L 572.0,669.0 L 570.0,661.0 L 564.0,659.0 L 556.0,659.0 L 554.0,657.0 L 555.0,656.0 L 553.0,658.0 L 549.0,658.0 L 547.0,656.0 L 543.0,657.0 L 550.0,655.0 L 568.0,657.0 L 542.0,654.0 Z" fill="#bec19d" />
  <path d="M 285.0,489.0 L 248.0,492.0 L 247.0,529.0 L 284.0,534.0 L 287.0,530.0 L 289.0,493.0 L 286.0,490.0 Z" fill="#fcefcc" />
  <path d="M 696.0,325.0 L 719.0,325.0 L 719.0,364.0 L 694.0,365.0 L 688.0,326.0 L 695.0,326.0 Z" fill="#fef5d2" />
  <path d="M 496.0,735.0 L 531.0,737.0 L 531.0,777.0 L 494.0,779.0 L 491.0,776.0 L 491.0,740.0 L 495.0,736.0 Z" fill="#f8efce" />
  <path d="M 451.0,737.0 L 490.0,740.0 L 491.0,750.0 L 489.0,776.0 L 452.0,778.0 L 449.0,775.0 L 451.0,738.0 Z" fill="#f4ebcb" />
  <path d="M 412.0,200.0 L 408.0,203.0 L 408.0,243.0 L 413.0,247.0 L 417.0,247.0 L 448.0,241.0 L 447.0,204.0 L 431.0,204.0 L 413.0,201.0 Z" fill="#f9efcd" />
  <path d="M 54.0,82.0 L 80.0,83.0 L 79.0,120.0 L 45.0,122.0 L 42.0,119.0 L 42.0,86.0 L 43.0,83.0 L 53.0,83.0 Z" fill="#e19e84" />
  <path d="M 125.0,1021.0 L 120.0,1028.0 L 119.0,1061.0 L 123.0,1065.0 L 159.0,1063.0 L 159.0,1024.0 L 126.0,1022.0 Z" fill="#fcf2cf" />
  <path d="M 76.0,1061.0 L 82.0,1065.0 L 82.0,1104.0 L 78.0,1107.0 L 73.0,1107.0 L 49.0,1104.0 L 44.0,1103.0 L 43.0,1101.0 L 41.0,1065.0 L 75.0,1062.0 Z" fill="#fcefcd" />
  <path d="M 0.0,243.0 L 41.0,247.0 L 40.0,284.0 L 0.0,286.0 L 0.0,244.0 Z" fill="#efe6c5" />
  <path d="M 576.0,735.0 L 609.0,738.0 L 612.0,760.0 L 612.0,778.0 L 576.0,780.0 L 571.0,775.0 L 572.0,739.0 L 575.0,736.0 Z" fill="#f5edcc" />
  <path d="M 600.0,82.0 L 611.0,82.0 L 616.0,84.0 L 614.0,122.0 L 596.0,122.0 L 593.0,119.0 L 591.0,121.0 L 577.0,120.0 L 577.0,84.0 L 599.0,83.0 Z" fill="#ef9e89" />
  <path d="M 83.0,243.0 L 118.0,247.0 L 118.0,284.0 L 84.0,288.0 L 82.0,288.0 L 79.0,285.0 L 79.0,246.0 L 82.0,244.0 Z" fill="#e3947f" />
  <path d="M 362.0,573.0 L 366.0,573.0 L 369.0,576.0 L 367.0,578.0 L 368.0,579.0 L 366.0,576.0 L 364.0,579.0 L 365.0,588.0 L 367.0,589.0 L 368.0,585.0 L 366.0,590.0 L 366.0,595.0 L 368.0,596.0 L 366.0,597.0 L 366.0,600.0 L 369.0,601.0 L 366.0,603.0 L 368.0,606.0 L 366.0,606.0 L 365.0,612.0 L 367.0,613.0 L 365.0,617.0 L 367.0,617.0 L 364.0,614.0 L 359.0,619.0 L 356.0,618.0 L 360.0,615.0 L 363.0,617.0 L 363.0,620.0 L 355.0,619.0 L 352.0,616.0 L 350.0,618.0 L 329.0,617.0 L 329.0,576.0 L 335.0,575.0 L 361.0,574.0 L 369.0,592.0 L 371.0,606.0 L 369.0,610.0 L 371.0,613.0 L 370.0,614.0 L 362.0,573.0 Z" fill="#e5e1c4" />
  <path d="M 0.0,1105.0 L 37.0,1109.0 L 37.0,1145.0 L 44.0,1183.0 L 46.0,1186.0 L 57.0,1186.0 L 57.0,1192.0 L 0.0,1192.0 L 0.0,1106.0 Z" fill="#f7eac8" />
  <path d="M 242.0,570.0 L 231.0,573.0 L 210.0,575.0 L 214.0,583.0 L 213.0,591.0 L 215.0,601.0 L 215.0,603.0 L 210.0,608.0 L 210.0,611.0 L 227.0,613.0 L 228.0,612.0 L 230.0,615.0 L 242.0,618.0 L 249.0,613.0 L 248.0,574.0 L 243.0,571.0 Z" fill="#fbefda" />
  <path d="M 486.0,696.0 L 490.0,696.0 L 491.0,699.0 L 495.0,735.0 L 491.0,739.0 L 484.0,739.0 L 451.0,736.0 L 449.0,734.0 L 450.0,697.0 L 485.0,697.0 Z" fill="#fef5d2" />
  <path d="M 614.0,123.0 L 638.0,125.0 L 652.0,124.0 L 651.0,162.0 L 635.0,162.0 L 622.0,164.0 L 616.0,164.0 L 611.0,159.0 L 614.0,124.0 Z" fill="#ef9c87" />
  <path d="M 0.0,940.0 L 37.0,943.0 L 37.0,982.0 L 0.0,984.0 L 0.0,941.0 Z" fill="#f6ecca" />
  <path d="M 484.0,326.0 L 491.0,326.0 L 493.0,371.0 L 452.0,365.0 L 453.0,330.0 L 466.0,329.0 L 471.0,327.0 L 483.0,327.0 Z" fill="#faf2d0" />
  <path d="M 329.0,447.0 L 365.0,452.0 L 365.0,488.0 L 352.0,488.0 L 328.0,491.0 L 326.0,490.0 L 326.0,450.0 L 328.0,448.0 Z" fill="#fbf2ce" />
  <path d="M 85.0,775.0 L 119.0,780.0 L 119.0,817.0 L 87.0,820.0 L 83.0,820.0 L 79.0,817.0 L 80.0,780.0 L 84.0,776.0 Z" fill="#fbeecc" />
  <path d="M 610.0,691.0 L 616.0,694.0 L 615.0,733.0 L 610.0,737.0 L 577.0,734.0 L 576.0,694.0 L 609.0,692.0 Z" fill="#fdf6d4" />
  <path d="M 42.0,777.0 L 79.0,781.0 L 78.0,816.0 L 48.0,820.0 L 42.0,820.0 L 38.0,816.0 L 39.0,780.0 L 41.0,778.0 Z" fill="#f9edcc" />
  <path d="M 207.0,82.0 L 224.0,83.0 L 231.0,85.0 L 240.0,84.0 L 241.0,122.0 L 206.0,126.0 L 200.0,120.0 L 202.0,84.0 L 206.0,83.0 Z" fill="#e68c77" />
  <path d="M 647.0,1022.0 L 650.0,1022.0 L 654.0,1026.0 L 654.0,1064.0 L 651.0,1067.0 L 615.0,1061.0 L 616.0,1026.0 L 646.0,1023.0 Z" fill="#fbf3d1" />
  <path d="M 110.0,366.0 L 119.0,366.0 L 123.0,370.0 L 122.0,408.0 L 116.0,411.0 L 84.0,407.0 L 82.0,370.0 L 109.0,367.0 Z" fill="#e79782" />
  <path d="M 214.0,447.0 L 241.0,450.0 L 242.0,487.0 L 211.0,492.0 L 209.0,492.0 L 205.0,488.0 L 204.0,452.0 L 208.0,448.0 L 213.0,448.0 L 203.0,489.0 L 214.0,447.0 Z" fill="#e2b6ab" />
  <path d="M 535.0,1063.0 L 529.0,1068.0 L 528.0,1102.0 L 532.0,1107.0 L 539.0,1108.0 L 568.0,1105.0 L 569.0,1095.0 L 567.0,1068.0 L 536.0,1064.0 Z" fill="#fef5d3" />
  <path d="M 614.0,204.0 L 650.0,207.0 L 651.0,243.0 L 647.0,246.0 L 615.0,247.0 L 610.0,242.0 L 611.0,208.0 L 613.0,205.0 Z" fill="#f29a85" />
  <path d="M 278.0,817.0 L 286.0,818.0 L 287.0,858.0 L 284.0,861.0 L 277.0,861.0 L 246.0,857.0 L 246.0,821.0 L 277.0,818.0 Z" fill="#fdf3d0" />
  <path d="M 156.0,448.0 L 164.0,449.0 L 164.0,490.0 L 125.0,490.0 L 122.0,453.0 L 155.0,449.0 Z" fill="#ec8f7b" />
  <path d="M 190.0,901.0 L 203.0,901.0 L 205.0,903.0 L 203.0,942.0 L 192.0,943.0 L 164.0,941.0 L 165.0,903.0 L 189.0,902.0 Z" fill="#faf0cd" />
  <path d="M 347.0,247.0 L 369.0,247.0 L 370.0,285.0 L 367.0,287.0 L 330.0,285.0 L 330.0,249.0 L 346.0,248.0 Z" fill="#f8edcb" />
  <path d="M 245.0,1105.0 L 208.0,1109.0 L 208.0,1123.0 L 205.0,1146.0 L 191.0,1177.0 L 189.0,1179.0 L 184.0,1179.0 L 184.0,1193.0 L 265.0,1193.0 L 253.0,1193.0 L 251.0,1191.0 L 246.0,1145.0 L 246.0,1106.0 Z" fill="#fbefcc" />
  <path d="M 701.0,450.0 L 719.0,451.0 L 719.0,491.0 L 692.0,491.0 L 693.0,451.0 L 700.0,451.0 Z" fill="#fef6d0" />
  <path d="M 406.0,569.0 L 408.0,572.0 L 405.0,572.0 L 404.0,574.0 L 400.0,574.0 L 399.0,572.0 L 393.0,572.0 L 392.0,575.0 L 386.0,574.0 L 388.0,571.0 L 392.0,571.0 L 385.0,575.0 L 381.0,573.0 L 383.0,571.0 L 383.0,573.0 L 380.0,574.0 L 378.0,572.0 L 376.0,574.0 L 372.0,574.0 L 373.0,572.0 L 371.0,574.0 L 367.0,572.0 L 367.0,574.0 L 369.0,574.0 L 367.0,576.0 L 369.0,579.0 L 365.0,579.0 L 367.0,585.0 L 366.0,587.0 L 368.0,587.0 L 367.0,591.0 L 370.0,592.0 L 367.0,592.0 L 367.0,595.0 L 369.0,596.0 L 367.0,597.0 L 367.0,599.0 L 370.0,600.0 L 367.0,604.0 L 370.0,607.0 L 369.0,608.0 L 367.0,606.0 L 368.0,610.0 L 366.0,612.0 L 370.0,611.0 L 377.0,613.0 L 400.0,615.0 L 406.0,613.0 L 405.0,615.0 L 408.0,615.0 L 410.0,611.0 L 409.0,573.0 L 407.0,573.0 L 407.0,575.0 L 371.0,576.0 L 378.0,576.0 L 370.0,577.0 L 373.0,577.0 L 368.0,584.0 L 369.0,586.0 L 366.0,588.0 L 367.0,600.0 L 372.0,606.0 L 370.0,609.0 L 371.0,610.0 L 407.0,612.0 L 406.0,569.0 Z" fill="#768155" />
  <path d="M 449.0,37.0 L 492.0,42.0 L 488.0,60.0 L 489.0,64.0 L 487.0,80.0 L 450.0,81.0 L 449.0,38.0 Z" fill="#f9ebc7" />
  <path d="M 329.0,286.0 L 367.0,288.0 L 366.0,324.0 L 339.0,328.0 L 329.0,327.0 L 327.0,325.0 L 328.0,287.0 Z" fill="#f8eecc" />
  <path d="M 0.0,405.0 L 0.0,451.0 L 38.0,446.0 L 40.0,410.0 L 15.0,408.0 L 0.0,405.0 Z" fill="#f2e7c5" />
  <path d="M 455.0,285.0 L 471.0,287.0 L 474.0,291.0 L 475.0,288.0 L 484.0,289.0 L 487.0,291.0 L 488.0,290.0 L 488.0,292.0 L 484.0,296.0 L 486.0,297.0 L 488.0,295.0 L 489.0,297.0 L 488.0,300.0 L 486.0,299.0 L 485.0,301.0 L 487.0,304.0 L 489.0,303.0 L 489.0,300.0 L 491.0,320.0 L 488.0,321.0 L 491.0,322.0 L 492.0,325.0 L 474.0,327.0 L 471.0,326.0 L 457.0,329.0 L 452.0,329.0 L 449.0,326.0 L 449.0,290.0 L 453.0,286.0 L 489.0,293.0 L 455.0,285.0 Z" fill="#f8f2de" />
  <path d="M 25.0,40.0 L 39.0,40.0 L 42.0,43.0 L 42.0,82.0 L 0.0,79.0 L 0.0,42.0 L 24.0,41.0 Z" fill="#eadcb4" />
  <path d="M 574.0,980.0 L 610.0,985.0 L 609.0,1020.0 L 581.0,1024.0 L 574.0,1024.0 L 570.0,1021.0 L 570.0,984.0 L 573.0,981.0 Z" fill="#fcf6d3" />
  <path d="M 328.0,693.0 L 364.0,697.0 L 364.0,735.0 L 330.0,739.0 L 323.0,732.0 L 324.0,696.0 L 327.0,694.0 Z" fill="#fef3d1" />
  <path d="M 41.0,654.0 L 44.0,654.0 L 45.0,691.0 L 38.0,697.0 L 0.0,693.0 L 0.0,658.0 L 40.0,655.0 Z" fill="#f2e7c8" />
  <path d="M 653.0,572.0 L 687.0,574.0 L 689.0,613.0 L 652.0,615.0 L 652.0,573.0 Z" fill="#fbf2d1" />
  <path d="M 607.0,160.0 L 611.0,160.0 L 615.0,164.0 L 613.0,204.0 L 607.0,205.0 L 577.0,200.0 L 576.0,164.0 L 606.0,161.0 Z" fill="#f29e8b" />
  <path d="M 711.0,243.0 L 719.0,243.0 L 719.0,285.0 L 691.0,283.0 L 692.0,244.0 L 710.0,244.0 Z" fill="#fdf5d1" />
  <path d="M 278.0,201.0 L 286.0,202.0 L 289.0,204.0 L 287.0,233.0 L 288.0,244.0 L 244.0,244.0 L 247.0,202.0 L 277.0,202.0 L 243.0,244.0 L 278.0,201.0 Z" fill="#f6db12" />
  <path d="M 647.0,83.0 L 617.0,85.0 L 615.0,122.0 L 650.0,124.0 L 653.0,121.0 L 651.0,84.0 L 648.0,84.0 Z" fill="#ef9984" />
  <path d="M 304.0,407.0 L 326.0,407.0 L 329.0,410.0 L 329.0,446.0 L 325.0,450.0 L 323.0,450.0 L 286.0,447.0 L 284.0,445.0 L 285.0,442.0 L 288.0,441.0 L 289.0,408.0 L 303.0,408.0 Z" fill="#fbf0cb" />
  <path d="M 328.0,1064.0 L 361.0,1068.0 L 361.0,1091.0 L 363.0,1104.0 L 347.0,1105.0 L 329.0,1109.0 L 322.0,1102.0 L 327.0,1065.0 Z" fill="#fdf3d0" />
  <path d="M 172.0,606.0 L 188.0,610.0 L 189.0,616.0 L 202.0,620.0 L 200.0,651.0 L 188.0,652.0 L 177.0,655.0 L 167.0,655.0 L 163.0,652.0 L 161.0,620.0 L 162.0,615.0 L 168.0,610.0 L 169.0,607.0 L 172.0,607.0 Z" fill="#d99d97" />
  <path d="M 206.0,775.0 L 242.0,780.0 L 241.0,816.0 L 215.0,818.0 L 202.0,817.0 L 201.0,779.0 L 205.0,776.0 Z" fill="#fdf3d0" />
  <path d="M 529.0,692.0 L 534.0,697.0 L 534.0,734.0 L 532.0,736.0 L 502.0,735.0 L 496.0,734.0 L 495.0,729.0 L 491.0,696.0 L 528.0,693.0 Z" fill="#fef5d2" />
  <path d="M 409.0,447.0 L 447.0,451.0 L 446.0,486.0 L 412.0,490.0 L 408.0,489.0 L 406.0,462.0 L 404.0,454.0 L 404.0,452.0 L 408.0,448.0 Z" fill="#fbf2d0" />
  <path d="M 199.0,568.0 L 204.0,568.0 L 210.0,573.0 L 209.0,577.0 L 213.0,583.0 L 212.0,591.0 L 214.0,603.0 L 209.0,608.0 L 209.0,614.0 L 202.0,619.0 L 189.0,615.0 L 188.0,609.0 L 174.0,605.0 L 169.0,606.0 L 169.0,583.0 L 170.0,579.0 L 172.0,578.0 L 172.0,574.0 L 173.0,580.0 L 182.0,579.0 L 187.0,578.0 L 189.0,576.0 L 188.0,570.0 L 198.0,569.0 L 171.0,607.0 L 199.0,568.0 Z" fill="#ae4344" />
  <path d="M 686.0,614.0 L 688.0,614.0 L 693.0,653.0 L 689.0,656.0 L 652.0,653.0 L 653.0,616.0 L 685.0,615.0 Z" fill="#faf2d0" />
  <path d="M 691.0,0.0 L 719.0,0.0 L 719.0,40.0 L 692.0,39.0 L 691.0,1.0 Z" fill="#fcefc6" />
  <path d="M 0.0,776.0 L 38.0,780.0 L 37.0,816.0 L 0.0,818.0 L 0.0,777.0 Z" fill="#f4e9c7" />
  <path d="M 0.0,1026.0 L 36.0,1027.0 L 41.0,1064.0 L 36.0,1066.0 L 0.0,1067.0 L 0.0,1027.0 L 0.0,1068.0 L 0.0,1026.0 Z" fill="#f7eccb" />
  <path d="M 369.0,530.0 L 406.0,533.0 L 406.0,568.0 L 404.0,573.0 L 400.0,573.0 L 399.0,571.0 L 395.0,572.0 L 392.0,570.0 L 388.0,570.0 L 385.0,573.0 L 383.0,570.0 L 380.0,573.0 L 378.0,571.0 L 366.0,571.0 L 366.0,533.0 L 368.0,531.0 L 366.0,572.0 L 392.0,572.0 L 371.0,573.0 L 392.0,574.0 L 369.0,575.0 L 378.0,575.0 L 370.0,576.0 L 373.0,576.0 L 369.0,530.0 Z" fill="#f5efcf" />
  <path d="M 481.0,570.0 L 480.0,572.0 L 476.0,571.0 L 476.0,573.0 L 465.0,572.0 L 465.0,574.0 L 458.0,573.0 L 451.0,576.0 L 452.0,577.0 L 450.0,581.0 L 453.0,578.0 L 453.0,601.0 L 455.0,602.0 L 455.0,608.0 L 460.0,609.0 L 461.0,611.0 L 466.0,610.0 L 471.0,613.0 L 474.0,611.0 L 484.0,614.0 L 490.0,614.0 L 493.0,608.0 L 493.0,578.0 L 491.0,576.0 L 492.0,574.0 L 488.0,570.0 L 485.0,572.0 L 483.0,571.0 L 493.0,575.0 L 491.0,584.0 L 492.0,586.0 L 452.0,594.0 L 492.0,606.0 L 490.0,608.0 L 491.0,609.0 L 453.0,611.0 L 493.0,612.0 L 474.0,613.0 L 492.0,613.0 L 480.0,614.0 L 491.0,614.0 L 481.0,570.0 Z" fill="#8b9567" />
  <path d="M 122.0,530.0 L 162.0,534.0 L 160.0,560.0 L 161.0,569.0 L 123.0,573.0 L 119.0,533.0 L 121.0,531.0 Z" fill="#e9917c" />
  <path d="M 651.0,244.0 L 647.0,247.0 L 616.0,248.0 L 615.0,283.0 L 648.0,287.0 L 651.0,286.0 L 653.0,257.0 L 652.0,245.0 Z" fill="#f2a48e" />
  <path d="M 28.0,120.0 L 42.0,120.0 L 44.0,122.0 L 42.0,162.0 L 25.0,162.0 L 0.0,159.0 L 0.0,122.0 L 27.0,121.0 Z" fill="#eddfbd" />
  <path d="M 43.0,408.0 L 77.0,412.0 L 76.0,447.0 L 56.0,450.0 L 47.0,453.0 L 39.0,446.0 L 40.0,419.0 L 42.0,409.0 Z" fill="#e8ad94" />
  <path d="M 78.0,736.0 L 82.0,740.0 L 85.0,774.0 L 79.0,780.0 L 42.0,776.0 L 44.0,740.0 L 77.0,737.0 Z" fill="#f9edcb" />
  <path d="M 31.0,817.0 L 38.0,817.0 L 42.0,821.0 L 41.0,857.0 L 39.0,859.0 L 0.0,857.0 L 0.0,819.0 L 30.0,818.0 Z" fill="#f5e9c8" />
  <path d="M 193.0,409.0 L 205.0,410.0 L 206.0,432.0 L 208.0,440.0 L 206.0,443.0 L 208.0,444.0 L 208.0,447.0 L 204.0,451.0 L 174.0,448.0 L 165.0,449.0 L 163.0,447.0 L 163.0,412.0 L 166.0,410.0 L 170.0,413.0 L 172.0,412.0 L 172.0,410.0 L 174.0,412.0 L 192.0,410.0 Z" fill="#cc8079" />
  <path d="M 691.0,860.0 L 719.0,861.0 L 719.0,900.0 L 692.0,900.0 L 691.0,861.0 Z" fill="#fdf6d2" />
  <path d="M 694.0,613.0 L 719.0,613.0 L 719.0,652.0 L 694.0,653.0 L 689.0,619.0 L 689.0,614.0 L 693.0,614.0 Z" fill="#fef6d2" />
  <path d="M 210.0,612.0 L 227.0,614.0 L 228.0,613.0 L 230.0,616.0 L 243.0,619.0 L 242.0,653.0 L 229.0,653.0 L 227.0,655.0 L 207.0,657.0 L 201.0,651.0 L 203.0,624.0 L 202.0,621.0 L 210.0,613.0 Z" fill="#c09386" />
  <path d="M 246.0,530.0 L 254.0,530.0 L 284.0,535.0 L 282.0,569.0 L 275.0,569.0 L 249.0,574.0 L 243.0,570.0 L 240.0,535.0 L 245.0,531.0 Z" fill="#fbefcc" />
  <path d="M 326.0,123.0 L 327.0,164.0 L 297.0,161.0 L 291.0,162.0 L 287.0,160.0 L 287.0,141.0 L 289.0,137.0 L 289.0,126.0 L 291.0,124.0 L 293.0,124.0 L 296.0,127.0 L 325.0,124.0 Z" fill="#e9917c" />
  <path d="M 569.0,326.0 L 534.0,330.0 L 534.0,366.0 L 564.0,371.0 L 571.0,371.0 L 574.0,368.0 L 574.0,330.0 L 570.0,327.0 Z" fill="#f49a86" />
  <path d="M 532.0,530.0 L 574.0,534.0 L 573.0,567.0 L 570.0,568.0 L 570.0,570.0 L 569.0,567.0 L 565.0,568.0 L 566.0,569.0 L 564.0,567.0 L 548.0,568.0 L 546.0,570.0 L 547.0,571.0 L 546.0,568.0 L 543.0,571.0 L 540.0,569.0 L 541.0,568.0 L 542.0,569.0 L 540.0,571.0 L 538.0,569.0 L 532.0,569.0 L 530.0,560.0 L 531.0,531.0 L 553.0,570.0 L 562.0,570.0 L 536.0,571.0 L 553.0,571.0 L 537.0,572.0 L 543.0,572.0 L 532.0,530.0 Z" fill="#e9a285" />
  <path d="M 567.0,160.0 L 571.0,160.0 L 575.0,163.0 L 576.0,200.0 L 570.0,205.0 L 536.0,201.0 L 537.0,164.0 L 566.0,161.0 Z" fill="#f09985" />
  <path d="M 369.0,119.0 L 407.0,124.0 L 406.0,159.0 L 373.0,164.0 L 367.0,163.0 L 366.0,122.0 L 368.0,120.0 Z" fill="#eb8d7a" />
  <path d="M 615.0,451.0 L 613.0,452.0 L 612.0,460.0 L 611.0,490.0 L 613.0,492.0 L 649.0,495.0 L 654.0,487.0 L 651.0,452.0 L 616.0,452.0 Z" fill="#f5a28c" />
  <path d="M 683.0,244.0 L 691.0,244.0 L 690.0,284.0 L 687.0,286.0 L 653.0,284.0 L 654.0,247.0 L 682.0,245.0 Z" fill="#f9f1cf" />
  <path d="M 493.0,202.0 L 530.0,206.0 L 530.0,243.0 L 519.0,243.0 L 513.0,245.0 L 509.0,244.0 L 506.0,246.0 L 496.0,246.0 L 494.0,244.0 L 490.0,244.0 L 490.0,235.0 L 488.0,234.0 L 487.0,229.0 L 489.0,225.0 L 487.0,221.0 L 489.0,223.0 L 490.0,222.0 L 492.0,205.0 L 489.0,204.0 L 492.0,203.0 L 486.0,238.0 L 488.0,239.0 L 487.0,240.0 L 491.0,246.0 L 494.0,246.0 L 493.0,202.0 Z" fill="#9b9dac" />
  <path d="M 161.0,284.0 L 165.0,284.0 L 167.0,286.0 L 167.0,310.0 L 169.0,318.0 L 167.0,327.0 L 163.0,330.0 L 157.0,328.0 L 124.0,324.0 L 125.0,289.0 L 160.0,285.0 Z" fill="#ea927d" />
  <path d="M 576.0,284.0 L 609.0,288.0 L 610.0,326.0 L 593.0,326.0 L 591.0,328.0 L 583.0,329.0 L 574.0,329.0 L 570.0,326.0 L 572.0,293.0 L 573.0,287.0 L 575.0,285.0 Z" fill="#f3a491" />
  <path d="M 564.0,568.0 L 548.0,569.0 L 547.0,572.0 L 545.0,571.0 L 545.0,569.0 L 543.0,573.0 L 541.0,571.0 L 540.0,572.0 L 538.0,570.0 L 534.0,570.0 L 534.0,580.0 L 537.0,578.0 L 537.0,571.0 L 541.0,569.0 L 567.0,568.0 L 573.0,569.0 L 552.0,570.0 L 573.0,570.0 L 552.0,571.0 L 575.0,571.0 L 553.0,572.0 L 575.0,572.0 L 574.0,573.0 L 576.0,573.0 L 573.0,574.0 L 576.0,574.0 L 573.0,575.0 L 576.0,575.0 L 573.0,576.0 L 576.0,576.0 L 573.0,577.0 L 576.0,577.0 L 574.0,578.0 L 576.0,579.0 L 574.0,580.0 L 534.0,581.0 L 574.0,581.0 L 534.0,582.0 L 575.0,582.0 L 534.0,583.0 L 575.0,583.0 L 534.0,584.0 L 575.0,584.0 L 534.0,585.0 L 575.0,585.0 L 534.0,586.0 L 575.0,586.0 L 534.0,587.0 L 575.0,587.0 L 534.0,588.0 L 575.0,588.0 L 534.0,589.0 L 575.0,589.0 L 534.0,590.0 L 575.0,590.0 L 534.0,591.0 L 574.0,591.0 L 534.0,592.0 L 575.0,592.0 L 534.0,593.0 L 574.0,593.0 L 534.0,594.0 L 574.0,594.0 L 534.0,595.0 L 574.0,595.0 L 534.0,596.0 L 574.0,596.0 L 534.0,597.0 L 574.0,597.0 L 534.0,599.0 L 574.0,599.0 L 534.0,600.0 L 574.0,600.0 L 534.0,601.0 L 574.0,601.0 L 534.0,602.0 L 574.0,602.0 L 534.0,603.0 L 574.0,603.0 L 534.0,604.0 L 574.0,604.0 L 534.0,605.0 L 574.0,605.0 L 534.0,606.0 L 574.0,606.0 L 534.0,607.0 L 572.0,607.0 L 534.0,609.0 L 574.0,609.0 L 534.0,610.0 L 574.0,610.0 L 534.0,611.0 L 573.0,611.0 L 534.0,612.0 L 571.0,612.0 L 534.0,613.0 L 562.0,613.0 L 536.0,615.0 L 540.0,615.0 L 564.0,568.0 Z" fill="#74824b" />
  <path d="M 367.0,0.0 L 404.0,0.0 L 405.0,22.0 L 405.0,40.0 L 367.0,42.0 L 365.0,40.0 L 365.0,20.0 L 367.0,1.0 Z" fill="#f4e6bf" />
  <path d="M 414.0,609.0 L 416.0,610.0 L 410.0,612.0 L 408.0,616.0 L 408.0,630.0 L 406.0,631.0 L 405.0,629.0 L 408.0,632.0 L 407.0,643.0 L 404.0,644.0 L 405.0,647.0 L 407.0,647.0 L 407.0,645.0 L 407.0,655.0 L 412.0,657.0 L 418.0,657.0 L 421.0,654.0 L 423.0,655.0 L 421.0,656.0 L 425.0,656.0 L 427.0,654.0 L 435.0,655.0 L 439.0,653.0 L 446.0,653.0 L 446.0,623.0 L 444.0,619.0 L 435.0,616.0 L 433.0,617.0 L 431.0,614.0 L 426.0,615.0 L 425.0,611.0 L 423.0,611.0 L 424.0,612.0 L 421.0,610.0 L 417.0,611.0 L 413.0,615.0 L 412.0,613.0 L 416.0,616.0 L 417.0,614.0 L 421.0,614.0 L 420.0,616.0 L 425.0,617.0 L 431.0,617.0 L 436.0,612.0 L 436.0,614.0 L 442.0,615.0 L 445.0,613.0 L 446.0,617.0 L 450.0,614.0 L 420.0,611.0 L 432.0,612.0 L 405.0,614.0 L 407.0,614.0 L 404.0,615.0 L 406.0,617.0 L 405.0,620.0 L 447.0,621.0 L 447.0,630.0 L 450.0,631.0 L 450.0,633.0 L 404.0,634.0 L 450.0,634.0 L 404.0,635.0 L 450.0,635.0 L 404.0,636.0 L 404.0,638.0 L 450.0,638.0 L 405.0,639.0 L 450.0,639.0 L 404.0,640.0 L 404.0,642.0 L 450.0,643.0 L 427.0,656.0 L 414.0,609.0 Z" fill="#949c6f" />
  <path d="M 404.0,858.0 L 410.0,860.0 L 413.0,895.0 L 407.0,901.0 L 372.0,898.0 L 371.0,863.0 L 403.0,859.0 Z" fill="#fcf3d0" />
  <path d="M 446.0,1021.0 L 449.0,1021.0 L 454.0,1024.0 L 459.0,1062.0 L 450.0,1068.0 L 435.0,1065.0 L 432.0,1064.0 L 414.0,1048.0 L 443.0,1022.0 L 445.0,1022.0 Z" fill="#fdf4d1" />
  <path d="M 688.0,1024.0 L 655.0,1026.0 L 655.0,1064.0 L 674.0,1065.0 L 691.0,1065.0 L 688.0,1026.0 Z" fill="#faf2d0" />
  <path d="M 464.0,980.0 L 488.0,984.0 L 488.0,1020.0 L 462.0,1023.0 L 453.0,1023.0 L 449.0,1020.0 L 453.0,987.0 L 463.0,981.0 Z" fill="#fcf3d0" />
  <path d="M 113.0,736.0 L 121.0,736.0 L 125.0,740.0 L 125.0,774.0 L 119.0,779.0 L 86.0,774.0 L 82.0,738.0 L 112.0,737.0 Z" fill="#f6eac8" />
  <path d="M 532.0,285.0 L 572.0,288.0 L 569.0,312.0 L 569.0,325.0 L 534.0,329.0 L 534.0,327.0 L 530.0,323.0 L 532.0,286.0 Z" fill="#f1a290" />
  <path d="M 0.0,694.0 L 38.0,698.0 L 38.0,735.0 L 0.0,738.0 L 0.0,695.0 Z" fill="#f3e8c8" />
  <path d="M 481.0,405.0 L 484.0,405.0 L 493.0,413.0 L 493.0,441.0 L 491.0,444.0 L 491.0,448.0 L 486.0,453.0 L 473.0,451.0 L 472.0,448.0 L 469.0,446.0 L 456.0,445.0 L 454.0,443.0 L 457.0,414.0 L 469.0,411.0 L 473.0,407.0 L 480.0,406.0 Z" fill="#dcd560" />
  <path d="M 615.0,572.0 L 650.0,576.0 L 651.0,613.0 L 644.0,615.0 L 629.0,614.0 L 617.0,616.0 L 612.0,613.0 L 614.0,573.0 Z" fill="#f49c89" />
  <path d="M 452.0,366.0 L 492.0,372.0 L 491.0,379.0 L 486.0,384.0 L 483.0,404.0 L 473.0,406.0 L 469.0,410.0 L 457.0,413.0 L 448.0,406.0 L 448.0,369.0 L 451.0,367.0 Z" fill="#f1e9ad" />
  <path d="M 691.0,408.0 L 719.0,408.0 L 719.0,450.0 L 693.0,450.0 L 689.0,447.0 L 690.0,409.0 Z" fill="#fef6d2" />
  <path d="M 715.0,80.0 L 719.0,80.0 L 719.0,120.0 L 692.0,120.0 L 692.0,81.0 L 714.0,81.0 Z" fill="#fdf1ce" />
  <path d="M 610.0,940.0 L 576.0,944.0 L 575.0,979.0 L 610.0,984.0 L 615.0,980.0 L 615.0,945.0 L 611.0,941.0 Z" fill="#fdf7d3" />
  <path d="M 425.0,776.0 L 449.0,776.0 L 452.0,779.0 L 451.0,816.0 L 448.0,819.0 L 444.0,819.0 L 409.0,815.0 L 408.0,781.0 L 412.0,777.0 L 424.0,777.0 Z" fill="#fef6d3" />
  <path d="M 81.0,1022.0 L 120.0,1026.0 L 118.0,1061.0 L 83.0,1065.0 L 78.0,1061.0 L 78.0,1048.0 L 81.0,1023.0 Z" fill="#f3e8c7" />
  <path d="M 195.0,1062.0 L 200.0,1062.0 L 204.0,1066.0 L 203.0,1101.0 L 196.0,1103.0 L 163.0,1105.0 L 163.0,1066.0 L 194.0,1063.0 Z" fill="#fdf0cd" />
  <path d="M 145.0,1064.0 L 160.0,1064.0 L 162.0,1066.0 L 162.0,1106.0 L 160.0,1108.0 L 151.0,1108.0 L 123.0,1104.0 L 123.0,1066.0 L 144.0,1065.0 L 160.0,1109.0 L 145.0,1064.0 Z" fill="#fcf1ce" />
  <path d="M 441.0,487.0 L 447.0,487.0 L 451.0,491.0 L 451.0,530.0 L 448.0,532.0 L 440.0,532.0 L 412.0,528.0 L 410.0,491.0 L 440.0,488.0 Z" fill="#faf1ce" />
  <path d="M 39.0,0.0 L 79.0,0.0 L 79.0,39.0 L 43.0,43.0 L 39.0,39.0 L 39.0,1.0 Z" fill="#f1e1b3" />
  <path d="M 237.0,981.0 L 244.0,982.0 L 244.0,1025.0 L 205.0,1021.0 L 205.0,986.0 L 236.0,982.0 Z" fill="#fcf2d0" />
  <path d="M 330.0,982.0 L 365.0,985.0 L 366.0,1023.0 L 330.0,1026.0 L 325.0,1021.0 L 326.0,985.0 L 329.0,983.0 Z" fill="#fcf2cf" />
  <path d="M 593.0,327.0 L 591.0,329.0 L 575.0,330.0 L 575.0,368.0 L 585.0,368.0 L 592.0,370.0 L 610.0,370.0 L 614.0,366.0 L 612.0,328.0 L 594.0,328.0 Z" fill="#f6a08c" />
  <path d="M 524.0,566.0 L 524.0,568.0 L 527.0,566.0 L 527.0,569.0 L 520.0,571.0 L 519.0,569.0 L 517.0,571.0 L 514.0,569.0 L 515.0,571.0 L 512.0,573.0 L 507.0,573.0 L 507.0,571.0 L 491.0,572.0 L 494.0,578.0 L 494.0,606.0 L 491.0,608.0 L 494.0,612.0 L 533.0,612.0 L 533.0,570.0 L 531.0,569.0 L 510.0,570.0 L 502.0,572.0 L 536.0,573.0 L 494.0,575.0 L 536.0,575.0 L 536.0,583.0 L 492.0,585.0 L 535.0,595.0 L 535.0,601.0 L 494.0,608.0 L 536.0,610.0 L 491.0,612.0 L 536.0,612.0 L 491.0,613.0 L 536.0,614.0 L 492.0,615.0 L 535.0,615.0 L 524.0,566.0 Z" fill="#8b9664" />
  <path d="M 331.0,364.0 L 326.0,368.0 L 326.0,406.0 L 330.0,410.0 L 350.0,406.0 L 364.0,405.0 L 366.0,370.0 L 354.0,368.0 L 351.0,369.0 L 348.0,367.0 L 332.0,365.0 Z" fill="#f9efcd" />
  <path d="M 169.0,244.0 L 174.0,246.0 L 202.0,247.0 L 200.0,283.0 L 173.0,286.0 L 168.0,286.0 L 165.0,283.0 L 164.0,258.0 L 165.0,249.0 L 168.0,245.0 Z" fill="#f3d433" />
  <path d="M 384.0,819.0 L 406.0,819.0 L 407.0,857.0 L 374.0,862.0 L 371.0,862.0 L 367.0,858.0 L 367.0,820.0 L 383.0,820.0 Z" fill="#fdf5d2" />
  <path d="M 712.0,653.0 L 719.0,653.0 L 719.0,695.0 L 689.0,693.0 L 690.0,656.0 L 693.0,654.0 L 711.0,654.0 Z" fill="#fdf6d2" />
  <path d="M 361.0,406.0 L 364.0,406.0 L 369.0,410.0 L 369.0,448.0 L 365.0,451.0 L 330.0,446.0 L 330.0,411.0 L 350.0,407.0 L 360.0,407.0 Z" fill="#f9f0cd" />
  <path d="M 402.0,736.0 L 406.0,738.0 L 412.0,776.0 L 407.0,781.0 L 370.0,776.0 L 371.0,741.0 L 401.0,737.0 Z" fill="#f8efcd" />
  <path d="M 407.0,81.0 L 369.0,84.0 L 369.0,118.0 L 401.0,123.0 L 409.0,122.0 L 412.0,118.0 L 413.0,83.0 L 408.0,82.0 Z" fill="#eb917a" />
  <path d="M 455.0,609.0 L 460.0,610.0 L 461.0,612.0 L 466.0,611.0 L 471.0,614.0 L 474.0,612.0 L 474.0,614.0 L 480.0,613.0 L 480.0,615.0 L 491.0,615.0 L 490.0,653.0 L 488.0,655.0 L 484.0,655.0 L 483.0,653.0 L 481.0,655.0 L 473.0,655.0 L 471.0,653.0 L 467.0,653.0 L 463.0,656.0 L 461.0,654.0 L 455.0,656.0 L 456.0,654.0 L 457.0,657.0 L 451.0,657.0 L 447.0,653.0 L 447.0,640.0 L 449.0,638.0 L 446.0,635.0 L 447.0,622.0 L 445.0,621.0 L 445.0,618.0 L 450.0,616.0 L 451.0,613.0 L 455.0,611.0 L 446.0,620.0 L 448.0,621.0 L 447.0,628.0 L 448.0,630.0 L 450.0,630.0 L 447.0,631.0 L 451.0,631.0 L 449.0,632.0 L 451.0,633.0 L 449.0,634.0 L 451.0,634.0 L 448.0,635.0 L 451.0,635.0 L 449.0,636.0 L 450.0,637.0 L 446.0,638.0 L 451.0,638.0 L 446.0,639.0 L 451.0,639.0 L 448.0,642.0 L 451.0,643.0 L 448.0,644.0 L 450.0,644.0 L 467.0,655.0 L 483.0,655.0 L 461.0,656.0 L 468.0,656.0 L 455.0,609.0 Z" fill="#89915e" />
  <path d="M 111.0,120.0 L 120.0,121.0 L 123.0,124.0 L 124.0,143.0 L 122.0,161.0 L 119.0,164.0 L 111.0,164.0 L 84.0,160.0 L 84.0,124.0 L 102.0,123.0 L 110.0,121.0 Z" fill="#e3927b" />
  <path d="M 654.0,1065.0 L 691.0,1066.0 L 695.0,1069.0 L 695.0,1074.0 L 689.0,1089.0 L 689.0,1098.0 L 685.0,1109.0 L 660.0,1141.0 L 658.0,1143.0 L 655.0,1143.0 L 650.0,1111.0 L 650.0,1088.0 L 652.0,1084.0 L 653.0,1066.0 Z" fill="#fbf2d0" />
  <path d="M 44.0,328.0 L 55.0,329.0 L 57.0,331.0 L 75.0,332.0 L 79.0,367.0 L 49.0,371.0 L 45.0,371.0 L 41.0,368.0 L 39.0,364.0 L 43.0,329.0 Z" fill="#e8a790" />
  <path d="M 75.0,448.0 L 83.0,453.0 L 81.0,491.0 L 75.0,494.0 L 44.0,489.0 L 44.0,476.0 L 47.0,454.0 L 56.0,451.0 L 74.0,449.0 Z" fill="#e89984" />
  <path d="M 287.0,531.0 L 326.0,534.0 L 324.0,552.0 L 324.0,572.0 L 289.0,575.0 L 283.0,569.0 L 284.0,544.0 L 286.0,532.0 Z" fill="#f7eecb" />
  <path d="M 691.0,901.0 L 719.0,901.0 L 719.0,940.0 L 698.0,942.0 L 691.0,942.0 L 687.0,939.0 L 691.0,902.0 Z" fill="#fdf7d1" />
  <path d="M 84.0,691.0 L 119.0,695.0 L 121.0,735.0 L 94.0,737.0 L 80.0,736.0 L 79.0,695.0 L 83.0,692.0 Z" fill="#faedcb" />
  <path d="M 368.0,613.0 L 370.0,613.0 L 370.0,615.0 L 372.0,613.0 L 376.0,613.0 L 386.0,615.0 L 407.0,616.0 L 407.0,618.0 L 405.0,617.0 L 404.0,620.0 L 406.0,621.0 L 407.0,619.0 L 407.0,626.0 L 404.0,629.0 L 406.0,630.0 L 407.0,628.0 L 407.0,632.0 L 403.0,634.0 L 404.0,643.0 L 406.0,642.0 L 407.0,634.0 L 405.0,631.0 L 365.0,614.0 L 367.0,614.0 L 364.0,615.0 L 367.0,615.0 L 363.0,616.0 L 368.0,616.0 L 364.0,617.0 L 368.0,617.0 L 364.0,618.0 L 367.0,618.0 L 364.0,620.0 L 366.0,643.0 L 406.0,643.0 L 366.0,644.0 L 406.0,645.0 L 367.0,646.0 L 406.0,646.0 L 366.0,647.0 L 406.0,647.0 L 366.0,648.0 L 406.0,648.0 L 367.0,649.0 L 406.0,649.0 L 367.0,650.0 L 406.0,650.0 L 367.0,651.0 L 406.0,651.0 L 367.0,652.0 L 406.0,652.0 L 367.0,654.0 L 405.0,654.0 L 367.0,656.0 L 385.0,656.0 L 368.0,657.0 L 376.0,657.0 L 369.0,658.0 L 368.0,613.0 Z" fill="#7b8455" />
  <path d="M 608.0,1021.0 L 610.0,1021.0 L 615.0,1026.0 L 614.0,1061.0 L 611.0,1064.0 L 574.0,1061.0 L 575.0,1025.0 L 607.0,1022.0 Z" fill="#fdf6d4" />
  <path d="M 41.0,858.0 L 78.0,862.0 L 78.0,898.0 L 42.0,901.0 L 37.0,896.0 L 38.0,863.0 L 40.0,859.0 Z" fill="#faefcd" />
  <path d="M 641.0,408.0 L 651.0,408.0 L 651.0,451.0 L 615.0,450.0 L 615.0,410.0 L 640.0,409.0 Z" fill="#f3a38d" />
  <path d="M 112.0,285.0 L 83.0,289.0 L 83.0,325.0 L 119.0,328.0 L 123.0,324.0 L 124.0,289.0 L 120.0,285.0 L 113.0,286.0 Z" fill="#e7947e" />
  <path d="M 123.0,408.0 L 162.0,413.0 L 162.0,447.0 L 121.0,452.0 L 117.0,448.0 L 117.0,446.0 L 119.0,411.0 L 122.0,409.0 Z" fill="#ea937d" />
  <path d="M 286.0,448.0 L 325.0,451.0 L 325.0,490.0 L 289.0,492.0 L 286.0,489.0 L 286.0,449.0 Z" fill="#fbf1ce" />
  <path d="M 710.0,775.0 L 719.0,775.0 L 719.0,817.0 L 692.0,817.0 L 692.0,776.0 L 709.0,776.0 Z" fill="#fef6d3" />
  <path d="M 532.0,161.0 L 495.0,165.0 L 494.0,201.0 L 520.0,203.0 L 524.0,205.0 L 532.0,204.0 L 535.0,201.0 L 536.0,169.0 L 536.0,164.0 L 533.0,162.0 Z" fill="#ed9b89" />
  <path d="M 44.0,612.0 L 81.0,616.0 L 79.0,651.0 L 45.0,653.0 L 41.0,617.0 L 43.0,613.0 Z" fill="#e69e8b" />
  <path d="M 229.0,654.0 L 243.0,654.0 L 245.0,657.0 L 247.0,691.0 L 242.0,695.0 L 205.0,692.0 L 205.0,685.0 L 207.0,683.0 L 205.0,682.0 L 205.0,677.0 L 208.0,658.0 L 228.0,655.0 Z" fill="#d2c1ab" />
  <path d="M 635.0,163.0 L 652.0,164.0 L 650.0,206.0 L 615.0,203.0 L 616.0,165.0 L 634.0,164.0 L 614.0,203.0 L 635.0,163.0 Z" fill="#f29c88" />
  <path d="M 571.0,693.0 L 575.0,694.0 L 576.0,734.0 L 572.0,738.0 L 535.0,734.0 L 535.0,697.0 L 570.0,694.0 Z" fill="#fef6d3" />
  <path d="M 247.0,776.0 L 280.0,782.0 L 284.0,816.0 L 251.0,820.0 L 244.0,819.0 L 242.0,816.0 L 243.0,780.0 L 246.0,777.0 Z" fill="#fdf3d0" />
  <path d="M 83.0,408.0 L 92.0,408.0 L 118.0,412.0 L 116.0,448.0 L 94.0,452.0 L 82.0,452.0 L 77.0,448.0 L 78.0,412.0 L 82.0,409.0 Z" fill="#e79681" />
  <path d="M 685.0,81.0 L 691.0,81.0 L 691.0,121.0 L 654.0,121.0 L 652.0,84.0 L 684.0,82.0 Z" fill="#faeecb" />
  <path d="M 323.0,40.0 L 326.0,42.0 L 326.0,81.0 L 323.0,83.0 L 286.0,82.0 L 287.0,42.0 L 322.0,41.0 Z" fill="#f7e6c1" />
  <path d="M 46.0,243.0 L 78.0,247.0 L 78.0,285.0 L 45.0,288.0 L 41.0,284.0 L 42.0,247.0 L 45.0,244.0 Z" fill="#e5a790" />
  <path d="M 0.0,571.0 L 44.0,574.0 L 43.0,612.0 L 41.0,614.0 L 18.0,614.0 L 0.0,617.0 L 0.0,572.0 Z" fill="#f1e7c5" />
  <path d="M 205.0,1022.0 L 244.0,1026.0 L 244.0,1063.0 L 205.0,1066.0 L 200.0,1061.0 L 201.0,1025.0 L 204.0,1023.0 Z" fill="#fcf2cf" />
  <path d="M 447.0,326.0 L 452.0,330.0 L 451.0,366.0 L 446.0,369.0 L 414.0,365.0 L 409.0,331.0 L 409.0,328.0 L 412.0,327.0 L 446.0,327.0 Z" fill="#fcf3d2" />
  <path d="M 599.0,779.0 L 612.0,779.0 L 613.0,781.0 L 617.0,816.0 L 611.0,821.0 L 575.0,817.0 L 576.0,781.0 L 598.0,780.0 Z" fill="#fdf7d3" />
  <path d="M 203.0,164.0 L 242.0,165.0 L 242.0,201.0 L 202.0,201.0 L 203.0,165.0 Z" fill="#e98d75" />
  <path d="M 408.0,938.0 L 425.0,941.0 L 437.0,953.0 L 441.0,965.0 L 436.0,979.0 L 422.0,981.0 L 409.0,980.0 L 407.0,939.0 Z" fill="#fcf4d1" />
  <path d="M 652.0,285.0 L 686.0,287.0 L 687.0,304.0 L 687.0,325.0 L 652.0,328.0 L 649.0,325.0 L 650.0,288.0 L 652.0,286.0 Z" fill="#f9eecd" />
  <path d="M 286.0,83.0 L 320.0,84.0 L 326.0,122.0 L 296.0,126.0 L 293.0,123.0 L 289.0,125.0 L 287.0,124.0 L 283.0,120.0 L 283.0,96.0 L 285.0,84.0 Z" fill="#e78d77" />
  <path d="M 570.0,938.0 L 533.0,943.0 L 537.0,978.0 L 568.0,983.0 L 570.0,983.0 L 574.0,979.0 L 575.0,943.0 L 571.0,939.0 Z" fill="#fcf6d4" />
  <path d="M 286.0,981.0 L 325.0,986.0 L 324.0,1021.0 L 296.0,1025.0 L 286.0,1024.0 L 285.0,982.0 Z" fill="#fdf3d0" />
  <path d="M 321.0,1103.0 L 328.0,1109.0 L 328.0,1139.0 L 326.0,1152.0 L 325.0,1184.0 L 296.0,1183.0 L 288.0,1140.0 L 288.0,1107.0 L 320.0,1104.0 Z" fill="#fbf0ce" />
  <path d="M 77.0,40.0 L 79.0,40.0 L 83.0,44.0 L 82.0,82.0 L 43.0,82.0 L 43.0,44.0 L 76.0,41.0 Z" fill="#f0e1b8" />
  <path d="M 317.0,815.0 L 322.0,815.0 L 327.0,820.0 L 325.0,860.0 L 288.0,858.0 L 287.0,818.0 L 316.0,816.0 Z" fill="#fdf4d1" />
  <path d="M 80.0,0.0 L 119.0,0.0 L 119.0,40.0 L 92.0,43.0 L 83.0,43.0 L 80.0,40.0 L 80.0,1.0 Z" fill="#f3e5b8" />
  <path d="M 286.0,161.0 L 291.0,163.0 L 297.0,162.0 L 307.0,164.0 L 328.0,165.0 L 325.0,201.0 L 303.0,201.0 L 291.0,203.0 L 283.0,201.0 L 283.0,164.0 L 285.0,162.0 Z" fill="#e98f77" />
  <path d="M 278.0,120.0 L 282.0,120.0 L 288.0,125.0 L 288.0,137.0 L 286.0,141.0 L 286.0,160.0 L 283.0,163.0 L 279.0,163.0 L 248.0,158.0 L 245.0,125.0 L 277.0,121.0 Z" fill="#e88a75" />
  <path d="M 494.0,651.0 L 494.0,654.0 L 489.0,654.0 L 492.0,694.0 L 528.0,692.0 L 530.0,690.0 L 531.0,655.0 L 529.0,657.0 L 522.0,656.0 L 521.0,653.0 L 519.0,656.0 L 507.0,655.0 L 505.0,653.0 L 506.0,652.0 L 504.0,654.0 L 495.0,654.0 L 524.0,653.0 L 494.0,651.0 Z" fill="#b3b793" />
  <path d="M 248.0,691.0 L 282.0,695.0 L 282.0,734.0 L 248.0,738.0 L 242.0,733.0 L 243.0,695.0 L 247.0,692.0 Z" fill="#fdf1cf" />
  <path d="M 84.0,939.0 L 118.0,945.0 L 118.0,980.0 L 84.0,985.0 L 78.0,980.0 L 78.0,943.0 L 83.0,940.0 Z" fill="#efe3c4" />
  <path d="M 498.0,612.0 L 500.0,612.0 L 498.0,614.0 L 493.0,613.0 L 491.0,619.0 L 491.0,652.0 L 493.0,653.0 L 494.0,650.0 L 494.0,653.0 L 504.0,653.0 L 506.0,651.0 L 507.0,654.0 L 511.0,654.0 L 513.0,652.0 L 514.0,654.0 L 512.0,654.0 L 517.0,655.0 L 519.0,655.0 L 520.0,652.0 L 523.0,654.0 L 522.0,655.0 L 524.0,655.0 L 524.0,652.0 L 526.0,655.0 L 525.0,656.0 L 529.0,656.0 L 531.0,654.0 L 534.0,655.0 L 536.0,616.0 L 533.0,613.0 L 529.0,612.0 L 502.0,612.0 L 499.0,615.0 L 507.0,615.0 L 511.0,613.0 L 511.0,615.0 L 522.0,615.0 L 523.0,613.0 L 503.0,616.0 L 498.0,612.0 Z" fill="#88925a" />
  <path d="M 117.0,1062.0 L 119.0,1062.0 L 122.0,1065.0 L 122.0,1105.0 L 118.0,1108.0 L 111.0,1108.0 L 83.0,1104.0 L 83.0,1066.0 L 116.0,1063.0 Z" fill="#fcf0cd" />
  <path d="M 303.0,202.0 L 327.0,202.0 L 329.0,204.0 L 326.0,243.0 L 290.0,247.0 L 288.0,241.0 L 290.0,204.0 L 302.0,203.0 Z" fill="#fcefc7" />
  <path d="M 278.0,326.0 L 289.0,327.0 L 289.0,367.0 L 287.0,370.0 L 249.0,366.0 L 248.0,328.0 L 277.0,327.0 Z" fill="#f9dc10" />
  <path d="M 529.0,490.0 L 520.0,492.0 L 490.0,494.0 L 491.0,502.0 L 489.0,507.0 L 489.0,520.0 L 487.0,531.0 L 502.0,531.0 L 521.0,534.0 L 529.0,533.0 L 531.0,530.0 L 530.0,492.0 L 529.0,534.0 L 529.0,490.0 Z" fill="#c5bf20" />
  <path d="M 167.0,775.0 L 161.0,780.0 L 160.0,816.0 L 165.0,821.0 L 201.0,817.0 L 200.0,780.0 L 168.0,776.0 Z" fill="#fcf2cf" />
  <path d="M 0.0,487.0 L 0.0,529.0 L 38.0,528.0 L 40.0,492.0 L 29.0,492.0 L 0.0,487.0 Z" fill="#f2e8c6" />
  <path d="M 574.0,448.0 L 612.0,453.0 L 610.0,490.0 L 589.0,490.0 L 573.0,492.0 L 570.0,489.0 L 569.0,453.0 L 573.0,449.0 Z" fill="#f6a28d" />
  <path d="M 405.0,0.0 L 449.0,0.0 L 449.0,36.0 L 414.0,39.0 L 406.0,39.0 L 405.0,1.0 Z" fill="#f9ebc2" />
  <path d="M 160.0,38.0 L 121.0,42.0 L 127.0,80.0 L 153.0,82.0 L 163.0,81.0 L 166.0,45.0 L 161.0,39.0 Z" fill="#f5e4bb" />
  <path d="M 235.0,123.0 L 206.0,128.0 L 203.0,163.0 L 243.0,164.0 L 247.0,159.0 L 244.0,125.0 L 241.0,123.0 L 236.0,124.0 Z" fill="#e7907b" />
  <path d="M 563.0,244.0 L 570.0,244.0 L 574.0,247.0 L 576.0,283.0 L 572.0,287.0 L 532.0,284.0 L 534.0,269.0 L 534.0,248.0 L 562.0,245.0 Z" fill="#efa08c" />
  <path d="M 409.0,981.0 L 424.0,981.0 L 433.0,1004.0 L 447.0,1017.0 L 448.0,1020.0 L 440.0,1021.0 L 418.0,1016.0 L 405.0,1017.0 L 403.0,985.0 L 408.0,982.0 Z" fill="#fcf3d0" />
  <path d="M 672.0,163.0 L 689.0,164.0 L 691.0,202.0 L 685.0,206.0 L 676.0,204.0 L 652.0,203.0 L 653.0,164.0 L 671.0,164.0 Z" fill="#f8efcd" />
  <path d="M 453.0,897.0 L 449.0,900.0 L 449.0,919.0 L 465.0,941.0 L 487.0,936.0 L 490.0,901.0 L 454.0,898.0 Z" fill="#fdf4d2" />
  <path d="M 234.0,817.0 L 242.0,817.0 L 245.0,821.0 L 245.0,857.0 L 243.0,859.0 L 207.0,857.0 L 204.0,819.0 L 233.0,818.0 Z" fill="#fdf3d0" />
  <path d="M 714.0,1023.0 L 719.0,1023.0 L 719.0,1062.0 L 715.0,1062.0 L 696.0,1069.0 L 692.0,1066.0 L 691.0,1061.0 L 689.0,1024.0 L 713.0,1024.0 Z" fill="#fdf7d1" />
  <path d="M 519.0,244.0 L 531.0,244.0 L 531.0,246.0 L 533.0,247.0 L 533.0,269.0 L 531.0,286.0 L 508.0,286.0 L 503.0,284.0 L 492.0,284.0 L 492.0,275.0 L 495.0,274.0 L 495.0,270.0 L 492.0,269.0 L 492.0,265.0 L 494.0,265.0 L 492.0,251.0 L 494.0,251.0 L 496.0,247.0 L 518.0,245.0 L 491.0,247.0 L 494.0,247.0 L 491.0,248.0 L 494.0,248.0 L 494.0,253.0 L 496.0,253.0 L 493.0,254.0 L 496.0,254.0 L 493.0,256.0 L 495.0,256.0 L 494.0,258.0 L 496.0,266.0 L 492.0,270.0 L 492.0,273.0 L 496.0,275.0 L 493.0,276.0 L 496.0,276.0 L 494.0,277.0 L 494.0,280.0 L 496.0,280.0 L 494.0,281.0 L 496.0,281.0 L 495.0,282.0 L 519.0,244.0 Z" fill="#a1a6b3" />
  <path d="M 652.0,408.0 L 689.0,409.0 L 688.0,447.0 L 659.0,449.0 L 652.0,449.0 L 652.0,409.0 Z" fill="#f9f1d1" />
  <path d="M 408.0,694.0 L 449.0,696.0 L 448.0,734.0 L 406.0,737.0 L 405.0,697.0 L 407.0,695.0 Z" fill="#fdf5d1" />
  <path d="M 405.0,407.0 L 410.0,410.0 L 409.0,446.0 L 404.0,451.0 L 370.0,448.0 L 370.0,411.0 L 404.0,408.0 Z" fill="#fbf2d0" />
  <path d="M 206.0,858.0 L 242.0,860.0 L 241.0,899.0 L 211.0,902.0 L 205.0,902.0 L 202.0,899.0 L 202.0,862.0 L 205.0,859.0 Z" fill="#fcf2cf" />
  <path d="M 714.0,365.0 L 719.0,365.0 L 719.0,407.0 L 692.0,407.0 L 692.0,368.0 L 694.0,366.0 L 713.0,366.0 Z" fill="#fef5d2" />
  <path d="M 151.0,122.0 L 161.0,122.0 L 163.0,124.0 L 163.0,161.0 L 161.0,163.0 L 123.0,161.0 L 125.0,143.0 L 124.0,125.0 L 150.0,123.0 Z" fill="#e68d78" />
  <path d="M 221.0,408.0 L 241.0,409.0 L 243.0,439.0 L 247.0,442.0 L 247.0,444.0 L 242.0,449.0 L 232.0,449.0 L 228.0,447.0 L 219.0,446.0 L 209.0,447.0 L 209.0,444.0 L 207.0,443.0 L 209.0,440.0 L 207.0,432.0 L 206.0,411.0 L 220.0,409.0 Z" fill="#e7c288" />
  <path d="M 124.0,691.0 L 159.0,697.0 L 161.0,734.0 L 130.0,739.0 L 125.0,739.0 L 122.0,736.0 L 120.0,695.0 L 123.0,692.0 Z" fill="#fbeecc" />
  <path d="M 74.0,286.0 L 79.0,286.0 L 82.0,289.0 L 83.0,324.0 L 75.0,331.0 L 57.0,330.0 L 55.0,328.0 L 44.0,327.0 L 44.0,305.0 L 46.0,289.0 L 73.0,287.0 Z" fill="#e69e87" />
  <path d="M 352.0,489.0 L 327.0,492.0 L 331.0,529.0 L 363.0,533.0 L 365.0,533.0 L 369.0,529.0 L 369.0,493.0 L 365.0,489.0 L 353.0,490.0 Z" fill="#f9efcc" />
  <path d="M 407.0,489.0 L 370.0,493.0 L 370.0,529.0 L 400.0,532.0 L 407.0,532.0 L 411.0,529.0 L 408.0,490.0 Z" fill="#fbf2cf" />
  <path d="M 493.0,1063.0 L 508.0,1064.0 L 528.0,1068.0 L 527.0,1102.0 L 489.0,1107.0 L 488.0,1067.0 L 492.0,1064.0 Z" fill="#fef5d2" />
  <path d="M 165.0,983.0 L 201.0,983.0 L 204.0,986.0 L 204.0,1022.0 L 199.0,1025.0 L 164.0,1020.0 L 164.0,984.0 Z" fill="#faf0ce" />
  <path d="M 656.0,898.0 L 664.0,900.0 L 690.0,902.0 L 686.0,938.0 L 664.0,941.0 L 652.0,940.0 L 649.0,904.0 L 655.0,899.0 Z" fill="#faf3d1" />
  <path d="M 523.0,941.0 L 530.0,941.0 L 532.0,943.0 L 537.0,979.0 L 530.0,985.0 L 494.0,981.0 L 499.0,945.0 L 522.0,942.0 Z" fill="#fdf5d2" />
  <path d="M 420.0,1108.0 L 451.0,1110.0 L 451.0,1153.0 L 442.0,1186.0 L 420.0,1186.0 L 418.0,1182.0 L 410.0,1153.0 L 409.0,1143.0 L 410.0,1117.0 L 419.0,1109.0 Z" fill="#fbf1d0" />
  <path d="M 534.0,367.0 L 540.0,369.0 L 570.0,372.0 L 571.0,407.0 L 552.0,410.0 L 532.0,411.0 L 532.0,392.0 L 528.0,375.0 L 533.0,368.0 Z" fill="#f2a58d" />
  <path d="M 452.0,530.0 L 448.0,533.0 L 448.0,557.0 L 446.0,563.0 L 448.0,565.0 L 448.0,571.0 L 453.0,574.0 L 458.0,572.0 L 464.0,573.0 L 465.0,571.0 L 476.0,572.0 L 476.0,570.0 L 480.0,571.0 L 481.0,569.0 L 485.0,571.0 L 489.0,568.0 L 488.0,562.0 L 485.0,559.0 L 484.0,534.0 L 453.0,531.0 L 487.0,565.0 L 446.0,566.0 L 487.0,566.0 L 490.0,567.0 L 490.0,569.0 L 449.0,574.0 L 452.0,530.0 Z" fill="#e1de99" />
  <path d="M 111.0,41.0 L 120.0,41.0 L 126.0,81.0 L 111.0,84.0 L 107.0,82.0 L 83.0,81.0 L 84.0,44.0 L 110.0,42.0 Z" fill="#f3e2b9" />
  <path d="M 316.0,573.0 L 325.0,573.0 L 328.0,576.0 L 328.0,617.0 L 322.0,618.0 L 292.0,615.0 L 288.0,613.0 L 289.0,576.0 L 315.0,574.0 L 287.0,615.0 L 316.0,573.0 Z" fill="#f8efcb" />
  <path d="M 615.0,981.0 L 650.0,985.0 L 649.0,1021.0 L 615.0,1025.0 L 610.0,1020.0 L 611.0,985.0 L 614.0,982.0 Z" fill="#f9f3d0" />
  <path d="M 641.0,691.0 L 648.0,691.0 L 656.0,698.0 L 654.0,735.0 L 650.0,737.0 L 616.0,732.0 L 617.0,694.0 L 640.0,692.0 Z" fill="#fdf6d3" />
  <path d="M 467.0,1109.0 L 488.0,1109.0 L 492.0,1127.0 L 491.0,1135.0 L 493.0,1139.0 L 495.0,1153.0 L 505.0,1181.0 L 507.0,1183.0 L 514.0,1183.0 L 514.0,1193.0 L 432.0,1193.0 L 432.0,1187.0 L 443.0,1186.0 L 452.0,1153.0 L 452.0,1111.0 L 466.0,1110.0 Z" fill="#fcf3d1" />
  <path d="M 618.0,816.0 L 651.0,819.0 L 651.0,858.0 L 620.0,861.0 L 616.0,861.0 L 612.0,858.0 L 612.0,821.0 L 617.0,817.0 Z" fill="#faf1cf" />
  <path d="M 206.0,202.0 L 246.0,202.0 L 243.0,243.0 L 241.0,246.0 L 206.0,244.0 L 206.0,203.0 Z" fill="#f6db1d" />
  <path d="M 166.0,366.0 L 146.0,369.0 L 124.0,370.0 L 123.0,407.0 L 146.0,409.0 L 161.0,412.0 L 164.0,411.0 L 164.0,382.0 L 167.0,367.0 Z" fill="#ea927d" />
  <path d="M 116.0,203.0 L 122.0,203.0 L 124.0,205.0 L 122.0,216.0 L 122.0,244.0 L 119.0,246.0 L 114.0,246.0 L 83.0,242.0 L 82.0,204.0 L 115.0,204.0 Z" fill="#e48f7c" />
  <path d="M 242.0,0.0 L 284.0,0.0 L 283.0,39.0 L 258.0,41.0 L 245.0,41.0 L 243.0,39.0 L 242.0,1.0 Z" fill="#f8eabd" />
  <path d="M 313.0,326.0 L 327.0,326.0 L 331.0,329.0 L 330.0,364.0 L 327.0,367.0 L 307.0,367.0 L 290.0,365.0 L 290.0,328.0 L 312.0,327.0 Z" fill="#fcf2cd" />
  <path d="M 324.0,244.0 L 326.0,244.0 L 330.0,248.0 L 329.0,285.0 L 318.0,286.0 L 290.0,284.0 L 290.0,248.0 L 323.0,245.0 Z" fill="#fbefca" />
  <path d="M 369.0,449.0 L 403.0,452.0 L 407.0,488.0 L 369.0,492.0 L 366.0,489.0 L 366.0,452.0 L 368.0,450.0 Z" fill="#fdf4d2" />
  <path d="M 164.0,691.0 L 201.0,695.0 L 199.0,731.0 L 167.0,737.0 L 162.0,733.0 L 160.0,715.0 L 159.0,696.0 L 164.0,692.0 Z" fill="#fcf0ce" />
  <path d="M 158.0,898.0 L 164.0,903.0 L 163.0,941.0 L 160.0,943.0 L 154.0,943.0 L 131.0,940.0 L 126.0,939.0 L 125.0,934.0 L 125.0,903.0 L 157.0,899.0 Z" fill="#f4e9c8" />
  <path d="M 245.0,858.0 L 283.0,862.0 L 281.0,899.0 L 250.0,903.0 L 245.0,903.0 L 242.0,900.0 L 242.0,872.0 L 244.0,859.0 Z" fill="#fcf2cf" />
  <path d="M 574.0,369.0 L 609.0,371.0 L 611.0,382.0 L 611.0,407.0 L 594.0,409.0 L 592.0,411.0 L 590.0,409.0 L 575.0,411.0 L 572.0,408.0 L 571.0,401.0 L 571.0,372.0 L 573.0,370.0 Z" fill="#f3a690" />
  <path d="M 290.0,366.0 L 307.0,368.0 L 325.0,368.0 L 325.0,406.0 L 289.0,407.0 L 287.0,378.0 L 288.0,369.0 L 290.0,366.0 Z" fill="#fbf0c7" />
  <path d="M 689.0,163.0 L 719.0,164.0 L 719.0,203.0 L 692.0,202.0 L 690.0,164.0 Z" fill="#fdf4d0" />
  <path d="M 37.0,1066.0 L 40.0,1066.0 L 43.0,1103.0 L 37.0,1108.0 L 0.0,1104.0 L 0.0,1069.0 L 36.0,1067.0 Z" fill="#f7ebcb" />
  <path d="M 490.0,776.0 L 453.0,779.0 L 452.0,816.0 L 489.0,820.0 L 491.0,818.0 L 492.0,812.0 L 494.0,784.0 L 494.0,780.0 L 491.0,777.0 Z" fill="#fef5d3" />
  <path d="M 127.0,611.0 L 161.0,616.0 L 160.0,627.0 L 162.0,638.0 L 162.0,652.0 L 140.0,654.0 L 126.0,657.0 L 121.0,652.0 L 122.0,616.0 L 126.0,612.0 Z" fill="#e7907d" />
  <path d="M 200.0,0.0 L 241.0,0.0 L 242.0,38.0 L 205.0,41.0 L 200.0,1.0 L 205.0,42.0 L 200.0,0.0 Z" fill="#f7e9bb" />
  <path d="M 396.0,41.0 L 405.0,41.0 L 410.0,81.0 L 407.0,80.0 L 368.0,83.0 L 368.0,43.0 L 395.0,42.0 Z" fill="#f7e7c4" />
  <path d="M 363.0,859.0 L 367.0,859.0 L 370.0,862.0 L 371.0,867.0 L 370.0,900.0 L 367.0,902.0 L 328.0,897.0 L 327.0,862.0 L 362.0,860.0 Z" fill="#fbf3d0" />
  <path d="M 448.0,242.0 L 414.0,248.0 L 412.0,283.0 L 446.0,289.0 L 449.0,289.0 L 455.0,284.0 L 455.0,247.0 L 449.0,243.0 Z" fill="#faf1d0" />
  <path d="M 454.0,201.0 L 473.0,201.0 L 489.0,203.0 L 488.0,204.0 L 491.0,205.0 L 490.0,218.0 L 489.0,221.0 L 486.0,221.0 L 488.0,225.0 L 486.0,229.0 L 487.0,234.0 L 489.0,235.0 L 489.0,240.0 L 487.0,242.0 L 474.0,243.0 L 462.0,246.0 L 454.0,246.0 L 449.0,242.0 L 448.0,204.0 L 452.0,202.0 L 489.0,222.0 L 487.0,236.0 L 485.0,238.0 L 489.0,241.0 L 488.0,242.0 L 454.0,201.0 Z" fill="#f7f2dd" />
  <path d="M 485.0,937.0 L 489.0,937.0 L 498.0,944.0 L 493.0,980.0 L 490.0,983.0 L 483.0,983.0 L 464.0,979.0 L 461.0,963.0 L 461.0,951.0 L 464.0,943.0 L 467.0,941.0 L 484.0,938.0 Z" fill="#fcf4d1" />
  <path d="M 654.0,982.0 L 687.0,984.0 L 688.0,1023.0 L 654.0,1025.0 L 650.0,1021.0 L 651.0,985.0 L 653.0,983.0 Z" fill="#fbf3d1" />
  <path d="M 196.0,652.0 L 201.0,652.0 L 207.0,658.0 L 204.0,677.0 L 204.0,682.0 L 206.0,683.0 L 204.0,685.0 L 204.0,692.0 L 202.0,694.0 L 192.0,694.0 L 165.0,690.0 L 165.0,685.0 L 167.0,683.0 L 167.0,656.0 L 177.0,656.0 L 188.0,653.0 L 195.0,653.0 Z" fill="#e1b6ac" />
  <path d="M 438.0,81.0 L 449.0,81.0 L 453.0,84.0 L 454.0,119.0 L 448.0,124.0 L 442.0,124.0 L 417.0,120.0 L 413.0,118.0 L 414.0,83.0 L 437.0,82.0 Z" fill="#eb907a" />
  <path d="M 285.0,0.0 L 325.0,1.0 L 324.0,39.0 L 305.0,41.0 L 286.0,41.0 L 284.0,39.0 L 285.0,1.0 Z" fill="#f5e7be" />
  <path d="M 205.0,245.0 L 241.0,247.0 L 245.0,284.0 L 204.0,287.0 L 201.0,284.0 L 204.0,246.0 Z" fill="#f5de24" />
  <path d="M 248.0,444.0 L 285.0,447.0 L 285.0,488.0 L 247.0,491.0 L 243.0,487.0 L 242.0,450.0 L 247.0,445.0 Z" fill="#fcf2cd" />
  <path d="M 522.0,1103.0 L 528.0,1103.0 L 533.0,1109.0 L 532.0,1130.0 L 539.0,1147.0 L 539.0,1161.0 L 534.0,1182.0 L 506.0,1181.0 L 496.0,1153.0 L 494.0,1139.0 L 492.0,1135.0 L 493.0,1127.0 L 489.0,1108.0 L 521.0,1104.0 Z" fill="#fcf3d2" />
  <path d="M 41.0,939.0 L 77.0,943.0 L 77.0,980.0 L 66.0,980.0 L 46.0,983.0 L 38.0,982.0 L 38.0,942.0 L 40.0,940.0 Z" fill="#fcefce" />
  <path d="M 283.0,409.0 L 288.0,409.0 L 287.0,441.0 L 285.0,441.0 L 283.0,445.0 L 265.0,445.0 L 248.0,443.0 L 244.0,439.0 L 242.0,410.0 L 282.0,410.0 Z" fill="#f8e128" />
  <path d="M 125.0,491.0 L 164.0,491.0 L 166.0,508.0 L 166.0,531.0 L 163.0,533.0 L 156.0,533.0 L 122.0,529.0 L 122.0,494.0 L 124.0,492.0 Z" fill="#ea917e" />
  <path d="M 200.0,201.0 L 205.0,202.0 L 205.0,244.0 L 203.0,246.0 L 174.0,245.0 L 169.0,243.0 L 168.0,237.0 L 168.0,213.0 L 170.0,206.0 L 176.0,202.0 L 199.0,202.0 Z" fill="#f4d71e" />
  <path d="M 371.0,285.0 L 406.0,289.0 L 407.0,325.0 L 376.0,330.0 L 373.0,330.0 L 367.0,325.0 L 368.0,287.0 L 370.0,286.0 Z" fill="#faf1ce" />
  <path d="M 492.0,43.0 L 529.0,45.0 L 530.0,57.0 L 530.0,81.0 L 512.0,83.0 L 493.0,83.0 L 488.0,80.0 L 490.0,64.0 L 489.0,60.0 L 491.0,55.0 L 492.0,44.0 Z" fill="#f8eac6" />
  <path d="M 77.0,572.0 L 80.0,572.0 L 84.0,576.0 L 84.0,612.0 L 81.0,615.0 L 44.0,611.0 L 45.0,574.0 L 76.0,573.0 Z" fill="#e59481" />
  <path d="M 409.0,816.0 L 447.0,820.0 L 448.0,856.0 L 411.0,860.0 L 409.0,859.0 L 407.0,837.0 L 408.0,817.0 Z" fill="#fef5d2" />
  <path d="M 72.0,652.0 L 80.0,652.0 L 84.0,656.0 L 84.0,690.0 L 79.0,694.0 L 46.0,690.0 L 45.0,654.0 L 71.0,653.0 Z" fill="#eaab96" />
  <path d="M 493.0,981.0 L 489.0,984.0 L 489.0,1020.0 L 495.0,1025.0 L 529.0,1020.0 L 529.0,986.0 L 494.0,982.0 Z" fill="#fcf5d1" />
  <path d="M 370.0,693.0 L 404.0,697.0 L 404.0,735.0 L 373.0,740.0 L 370.0,740.0 L 365.0,736.0 L 365.0,697.0 L 369.0,694.0 Z" fill="#fdf4d1" />
  <path d="M 288.0,774.0 L 324.0,778.0 L 321.0,814.0 L 293.0,817.0 L 285.0,816.0 L 281.0,781.0 L 287.0,775.0 Z" fill="#fef3d2" />
  <path d="M 192.0,121.0 L 200.0,121.0 L 206.0,127.0 L 202.0,163.0 L 180.0,161.0 L 173.0,162.0 L 164.0,160.0 L 164.0,125.0 L 191.0,122.0 Z" fill="#e7917b" />
  <path d="M 413.0,896.0 L 448.0,901.0 L 448.0,919.0 L 423.0,939.0 L 410.0,938.0 L 408.0,924.0 L 408.0,901.0 L 412.0,897.0 Z" fill="#fcf4d1" />
  <path d="M 277.0,735.0 L 283.0,735.0 L 287.0,738.0 L 288.0,773.0 L 280.0,781.0 L 248.0,775.0 L 249.0,739.0 L 276.0,736.0 Z" fill="#f6ebc9" />
  <path d="M 403.0,160.0 L 406.0,160.0 L 412.0,166.0 L 411.0,200.0 L 407.0,203.0 L 397.0,203.0 L 373.0,201.0 L 371.0,199.0 L 369.0,165.0 L 402.0,161.0 Z" fill="#ec907b" />
  <path d="M 608.0,858.0 L 611.0,858.0 L 615.0,861.0 L 615.0,899.0 L 610.0,903.0 L 574.0,898.0 L 575.0,862.0 L 607.0,859.0 Z" fill="#fcf6d2" />
  <path d="M 448.0,160.0 L 416.0,165.0 L 413.0,167.0 L 412.0,199.0 L 414.0,201.0 L 423.0,201.0 L 431.0,203.0 L 449.0,203.0 L 455.0,200.0 L 452.0,163.0 L 449.0,161.0 Z" fill="#ed917c" />
  <path d="M 454.0,120.0 L 489.0,124.0 L 490.0,143.0 L 488.0,159.0 L 454.0,163.0 L 449.0,160.0 L 448.0,125.0 L 453.0,121.0 Z" fill="#ec9783" />
  <path d="M 491.0,449.0 L 530.0,453.0 L 529.0,489.0 L 520.0,491.0 L 489.0,493.0 L 484.0,488.0 L 484.0,478.0 L 486.0,471.0 L 487.0,453.0 L 490.0,450.0 Z" fill="#c1b810" />
  <path d="M 607.0,529.0 L 611.0,529.0 L 617.0,535.0 L 615.0,571.0 L 613.0,573.0 L 605.0,573.0 L 574.0,570.0 L 575.0,534.0 L 587.0,532.0 L 592.0,535.0 L 596.0,531.0 L 606.0,530.0 Z" fill="#f0a690" />
  <path d="M 168.0,530.0 L 163.0,534.0 L 161.0,560.0 L 162.0,570.0 L 168.0,575.0 L 168.0,577.0 L 170.0,578.0 L 172.0,573.0 L 173.0,579.0 L 187.0,577.0 L 188.0,569.0 L 198.0,568.0 L 202.0,566.0 L 202.0,536.0 L 169.0,531.0 Z" fill="#d89b93" />
  <path d="M 371.0,899.0 L 407.0,902.0 L 408.0,925.0 L 408.0,937.0 L 406.0,939.0 L 371.0,942.0 L 367.0,939.0 L 368.0,903.0 L 371.0,900.0 Z" fill="#fdf4d1" />
  <path d="M 208.0,531.0 L 213.0,531.0 L 219.0,534.0 L 229.0,533.0 L 239.0,535.0 L 242.0,564.0 L 241.0,570.0 L 211.0,574.0 L 208.0,570.0 L 203.0,567.0 L 203.0,535.0 L 207.0,532.0 L 202.0,567.0 L 208.0,531.0 Z" fill="#e2baae" />
  <path d="M 534.0,898.0 L 570.0,902.0 L 570.0,937.0 L 534.0,942.0 L 530.0,940.0 L 530.0,902.0 L 533.0,899.0 Z" fill="#fcf6d5" />
  <path d="M 412.0,284.0 L 407.0,288.0 L 408.0,326.0 L 411.0,327.0 L 448.0,325.0 L 448.0,290.0 L 413.0,285.0 Z" fill="#f9f0cd" />
  <path d="M 683.0,694.0 L 690.0,695.0 L 692.0,734.0 L 687.0,737.0 L 655.0,735.0 L 657.0,698.0 L 682.0,695.0 Z" fill="#faf2d0" />
  <path d="M 536.0,980.0 L 569.0,984.0 L 569.0,1021.0 L 537.0,1025.0 L 533.0,1024.0 L 530.0,1021.0 L 530.0,986.0 L 535.0,981.0 Z" fill="#fcf4d2" />
  <path d="M 412.0,119.0 L 428.0,123.0 L 447.0,125.0 L 448.0,159.0 L 416.0,164.0 L 413.0,166.0 L 407.0,160.0 L 407.0,127.0 L 408.0,123.0 L 411.0,120.0 Z" fill="#ec9681" />
  <path d="M 362.0,939.0 L 366.0,939.0 L 371.0,943.0 L 370.0,980.0 L 365.0,984.0 L 331.0,981.0 L 331.0,943.0 L 361.0,940.0 Z" fill="#fcf4d1" />
  <path d="M 608.0,613.0 L 611.0,613.0 L 615.0,616.0 L 616.0,652.0 L 612.0,656.0 L 598.0,654.0 L 595.0,655.0 L 591.0,653.0 L 580.0,652.0 L 577.0,649.0 L 580.0,647.0 L 578.0,646.0 L 579.0,639.0 L 576.0,635.0 L 576.0,637.0 L 577.0,638.0 L 579.0,636.0 L 577.0,633.0 L 579.0,631.0 L 579.0,625.0 L 577.0,623.0 L 580.0,617.0 L 579.0,616.0 L 607.0,614.0 L 576.0,619.0 L 577.0,646.0 L 608.0,613.0 Z" fill="#dca88c" />
  <path d="M 245.0,983.0 L 284.0,983.0 L 284.0,1022.0 L 245.0,1024.0 L 245.0,984.0 L 245.0,1025.0 L 245.0,983.0 Z" fill="#fbf2cf" />
  <path d="M 245.0,82.0 L 283.0,84.0 L 282.0,119.0 L 249.0,124.0 L 242.0,123.0 L 241.0,84.0 L 244.0,83.0 Z" fill="#e78873" />
  <path d="M 476.0,81.0 L 488.0,81.0 L 494.0,84.0 L 493.0,121.0 L 490.0,123.0 L 483.0,123.0 L 455.0,119.0 L 455.0,88.0 L 452.0,82.0 L 475.0,82.0 Z" fill="#ec9781" />
  <path d="M 248.0,159.0 L 243.0,165.0 L 243.0,201.0 L 281.0,200.0 L 282.0,164.0 L 249.0,160.0 Z" fill="#e98870" />
  <path d="M 570.0,776.0 L 575.0,780.0 L 574.0,817.0 L 571.0,820.0 L 566.0,820.0 L 534.0,816.0 L 534.0,780.0 L 569.0,777.0 Z" fill="#fdf7d4" />
  <path d="M 691.0,695.0 L 719.0,696.0 L 719.0,735.0 L 693.0,734.0 L 691.0,696.0 Z" fill="#fef6d2" />
  <path d="M 653.0,122.0 L 689.0,122.0 L 688.0,162.0 L 671.0,163.0 L 652.0,163.0 L 653.0,123.0 Z" fill="#f9f0cd" />
  <path d="M 689.0,573.0 L 719.0,574.0 L 719.0,612.0 L 690.0,613.0 L 688.0,574.0 Z" fill="#fef6d1" />
  <path d="M 239.0,488.0 L 243.0,488.0 L 247.0,492.0 L 246.0,529.0 L 240.0,534.0 L 234.0,534.0 L 229.0,532.0 L 219.0,533.0 L 213.0,530.0 L 209.0,530.0 L 209.0,507.0 L 206.0,506.0 L 209.0,501.0 L 206.0,500.0 L 209.0,499.0 L 209.0,493.0 L 238.0,489.0 L 209.0,505.0 L 239.0,488.0 Z" fill="#f2dac8" />
  <path d="M 680.0,366.0 L 682.0,368.0 L 691.0,368.0 L 691.0,407.0 L 652.0,407.0 L 652.0,368.0 L 679.0,368.0 L 680.0,366.0 Z" fill="#f9f1cf" />
  <path d="M 493.0,899.0 L 529.0,903.0 L 529.0,940.0 L 499.0,944.0 L 488.0,936.0 L 492.0,900.0 Z" fill="#fdf6d3" />
  <path d="M 228.0,1065.0 L 243.0,1065.0 L 244.0,1105.0 L 208.0,1108.0 L 203.0,1102.0 L 205.0,1067.0 L 227.0,1066.0 Z" fill="#fdf1ce" />
  <path d="M 354.0,40.0 L 364.0,40.0 L 367.0,43.0 L 367.0,82.0 L 351.0,83.0 L 345.0,81.0 L 327.0,81.0 L 327.0,42.0 L 353.0,41.0 Z" fill="#f7e7c3" />
  <path d="M 43.0,1104.0 L 77.0,1108.0 L 76.0,1148.0 L 68.0,1185.0 L 46.0,1185.0 L 45.0,1183.0 L 38.0,1145.0 L 37.0,1129.0 L 38.0,1108.0 L 42.0,1105.0 Z" fill="#f9ecca" />
  <path d="M 372.0,202.0 L 407.0,204.0 L 407.0,242.0 L 371.0,245.0 L 366.0,210.0 L 366.0,207.0 L 371.0,203.0 Z" fill="#fcf1cf" />
  <path d="M 290.0,285.0 L 327.0,287.0 L 326.0,325.0 L 290.0,327.0 L 290.0,286.0 Z" fill="#faefc9" />
  <path d="M 276.0,900.0 L 281.0,900.0 L 287.0,905.0 L 286.0,944.0 L 245.0,941.0 L 246.0,904.0 L 275.0,901.0 Z" fill="#fcf3d0" />
  <path d="M 104.0,533.0 L 119.0,534.0 L 121.0,572.0 L 87.0,576.0 L 85.0,576.0 L 81.0,572.0 L 82.0,534.0 L 103.0,534.0 Z" fill="#e6947e" />
  <path d="M 574.0,1062.0 L 610.0,1065.0 L 610.0,1095.0 L 598.0,1126.0 L 596.0,1127.0 L 578.0,1116.0 L 569.0,1106.0 L 570.0,1082.0 L 568.0,1067.0 L 573.0,1063.0 Z" fill="#fcf3d2" />
  <path d="M 715.0,1063.0 L 719.0,1063.0 L 719.0,1165.0 L 655.0,1165.0 L 656.0,1145.0 L 661.0,1141.0 L 685.0,1111.0 L 690.0,1098.0 L 690.0,1089.0 L 696.0,1074.0 L 696.0,1070.0 L 714.0,1064.0 Z" fill="#fbf3ce" />
  <path d="M 352.0,163.0 L 348.0,165.0 L 328.0,166.0 L 326.0,201.0 L 329.0,203.0 L 346.0,204.0 L 352.0,206.0 L 366.0,206.0 L 372.0,201.0 L 370.0,199.0 L 368.0,165.0 L 353.0,164.0 Z" fill="#eb9782" />
  <path d="M 690.0,203.0 L 719.0,204.0 L 719.0,242.0 L 691.0,243.0 L 686.0,210.0 L 686.0,206.0 L 689.0,204.0 Z" fill="#fef4d0" />
  <path d="M 163.0,0.0 L 199.0,0.0 L 204.0,37.0 L 204.0,41.0 L 200.0,42.0 L 166.0,44.0 L 161.0,38.0 L 163.0,1.0 Z" fill="#f8e8bb" />
  <path d="M 688.0,858.0 L 655.0,861.0 L 657.0,897.0 L 675.0,900.0 L 691.0,900.0 L 689.0,859.0 Z" fill="#faf2d0" />
  <path d="M 115.0,981.0 L 118.0,981.0 L 121.0,984.0 L 124.0,1021.0 L 120.0,1025.0 L 82.0,1021.0 L 83.0,986.0 L 114.0,982.0 Z" fill="#f0e5c6" />
  <path d="M 576.0,571.0 L 612.0,574.0 L 611.0,612.0 L 575.0,615.0 L 575.0,609.0 L 574.0,607.0 L 572.0,608.0 L 575.0,606.0 L 574.0,598.0 L 576.0,592.0 L 576.0,572.0 L 574.0,574.0 L 575.0,576.0 L 573.0,584.0 L 574.0,588.0 L 572.0,613.0 L 576.0,571.0 Z" fill="#cea488" />
  <path d="M 350.0,654.0 L 352.0,657.0 L 353.0,655.0 L 354.0,657.0 L 361.0,657.0 L 362.0,655.0 L 366.0,654.0 L 368.0,658.0 L 366.0,661.0 L 369.0,661.0 L 369.0,672.0 L 367.0,673.0 L 367.0,680.0 L 369.0,681.0 L 369.0,693.0 L 365.0,696.0 L 329.0,692.0 L 329.0,661.0 L 332.0,661.0 L 333.0,659.0 L 337.0,660.0 L 337.0,658.0 L 342.0,659.0 L 342.0,656.0 L 346.0,658.0 L 349.0,656.0 L 360.0,654.0 L 350.0,654.0 Z" fill="#c5c59f" />
  <path d="M 431.0,1065.0 L 449.0,1069.0 L 451.0,1109.0 L 421.0,1107.0 L 418.0,1101.0 L 411.0,1083.0 L 430.0,1066.0 Z" fill="#fdf4d1" />
  <path d="M 638.0,326.0 L 649.0,326.0 L 651.0,328.0 L 651.0,367.0 L 640.0,368.0 L 615.0,366.0 L 613.0,328.0 L 637.0,327.0 Z" fill="#f49d8a" />
  <path d="M 535.0,202.0 L 569.0,206.0 L 569.0,243.0 L 540.0,247.0 L 532.0,246.0 L 531.0,205.0 L 534.0,203.0 Z" fill="#ef9d8c" />
  <path d="M 366.0,325.0 L 332.0,329.0 L 331.0,363.0 L 348.0,366.0 L 351.0,368.0 L 354.0,367.0 L 362.0,369.0 L 367.0,369.0 L 370.0,366.0 L 372.0,330.0 L 367.0,326.0 Z" fill="#fbf1cf" />
</svg>