<svg width="720" height="1048" viewBox="0 0 720 1048" xmlns="http://www.w3.org/2000/svg" shape-rendering="geometricPrecision">
  <path d="M 287.0,186.0 L 319.0,189.0 L 315.0,228.0 L 313.0,230.0 L 275.0,223.0 L 271.0,214.0 L 282.0,187.0 L 286.0,187.0 Z" fill="#e4c8a0" />
  <path d="M 467.0,385.0 L 504.0,387.0 L 510.0,400.0 L 506.0,412.0 L 504.0,413.0 L 502.0,418.0 L 500.0,427.0 L 464.0,420.0 L 463.0,409.0 L 467.0,386.0 Z" fill="#69634e" />
  <path d="M 486.0,958.0 L 525.0,964.0 L 520.0,1000.0 L 483.0,1000.0 L 477.0,988.0 L 477.0,985.0 L 486.0,959.0 Z" fill="#cbad81" />
  <path d="M 544.0,771.0 L 547.0,771.0 L 546.0,806.0 L 528.0,804.0 L 506.0,804.0 L 502.0,796.0 L 507.0,779.0 L 543.0,772.0 Z" fill="#efd0ac" />
  <path d="M 472.0,676.0 L 474.0,692.0 L 473.0,709.0 L 454.0,707.0 L 434.0,708.0 L 429.0,696.0 L 429.0,691.0 L 433.0,681.0 L 437.0,682.0 L 441.0,680.0 L 445.0,681.0 L 471.0,677.0 Z" fill="#bfad8c" />
  <path d="M 0.0,1004.0 L 0.0,1047.0 L 29.0,1047.0 L 17.0,1026.0 L 0.0,1004.0 Z" fill="#c5a881" />
  <path d="M 579.0,536.0 L 568.0,561.0 L 572.0,571.0 L 576.0,573.0 L 611.0,578.0 L 614.0,563.0 L 614.0,540.0 L 581.0,537.0 L 615.0,540.0 L 579.0,536.0 Z" fill="#93855c" />
  <path d="M 496.0,151.0 L 534.0,153.0 L 539.0,164.0 L 530.0,191.0 L 492.0,187.0 L 496.0,152.0 Z" fill="#ad9f76" />
  <path d="M 599.0,16.0 L 631.0,22.0 L 638.0,22.0 L 641.0,28.0 L 641.0,33.0 L 634.0,57.0 L 597.0,50.0 L 599.0,42.0 L 599.0,17.0 Z" fill="#e5c69a" />
  <path d="M 719.0,94.0 L 680.0,118.0 L 693.0,135.0 L 705.0,132.0 L 719.0,133.0 L 719.0,96.0 Z" fill="#e9caa5" />
  <path d="M 317.0,960.0 L 313.0,973.0 L 308.0,983.0 L 308.0,989.0 L 310.0,993.0 L 335.0,1001.0 L 349.0,1003.0 L 355.0,972.0 L 355.0,965.0 L 348.0,963.0 L 317.0,960.0 Z" fill="#aa9568" />
  <path d="M 67.0,537.0 L 106.0,543.0 L 111.0,553.0 L 111.0,557.0 L 101.0,579.0 L 97.0,579.0 L 65.0,575.0 L 66.0,542.0 L 67.0,538.0 L 102.0,579.0 L 67.0,537.0 Z" fill="#cbb48c" />
  <path d="M 442.0,264.0 L 478.0,268.0 L 475.0,306.0 L 436.0,300.0 L 432.0,288.0 L 441.0,265.0 Z" fill="#8e875f" />
  <path d="M 82.0,55.0 L 119.0,59.0 L 119.0,62.0 L 124.0,72.0 L 114.0,97.0 L 80.0,92.0 L 81.0,56.0 Z" fill="#ddbf98" />
  <path d="M 386.0,729.0 L 422.0,734.0 L 429.0,745.0 L 418.0,772.0 L 380.0,769.0 L 383.0,736.0 L 385.0,730.0 L 418.0,773.0 L 386.0,729.0 Z" fill="#e9cba7" />
  <path d="M 243.0,0.0 L 247.0,0.0 L 257.0,16.0 L 255.0,44.0 L 252.0,54.0 L 227.0,48.0 L 221.0,29.0 L 221.0,25.0 L 242.0,1.0 Z" fill="#e3c39b" />
  <path d="M 154.0,884.0 L 182.0,885.0 L 193.0,887.0 L 189.0,915.0 L 189.0,925.0 L 183.0,926.0 L 149.0,921.0 L 145.0,914.0 L 145.0,911.0 L 154.0,885.0 Z" fill="#edcda7" />
  <path d="M 608.0,299.0 L 597.0,327.0 L 603.0,340.0 L 640.0,340.0 L 642.0,331.0 L 641.0,326.0 L 643.0,306.0 L 609.0,300.0 Z" fill="#dacbb1" />
  <path d="M 223.0,288.0 L 259.0,292.0 L 264.0,300.0 L 264.0,305.0 L 256.0,327.0 L 234.0,329.0 L 217.0,327.0 L 217.0,315.0 L 222.0,298.0 L 223.0,289.0 Z" fill="#898152" />
  <path d="M 355.0,648.0 L 391.0,654.0 L 389.0,689.0 L 351.0,687.0 L 346.0,676.0 L 346.0,673.0 L 354.0,649.0 Z" fill="#c8bda7" />
  <path d="M 592.0,734.0 L 630.0,737.0 L 634.0,746.0 L 624.0,776.0 L 589.0,770.0 L 592.0,735.0 Z" fill="#f3d3ae" />
  <path d="M 547.0,808.0 L 581.0,812.0 L 579.0,826.0 L 580.0,841.0 L 573.0,850.0 L 540.0,846.0 L 540.0,838.0 L 544.0,827.0 L 546.0,809.0 L 539.0,846.0 L 547.0,808.0 Z" fill="#f0d0a9" />
  <path d="M 94.0,21.0 L 97.0,21.0 L 119.0,31.0 L 124.0,43.0 L 119.0,58.0 L 83.0,54.0 L 82.0,47.0 L 84.0,30.0 L 93.0,22.0 Z" fill="#dcc09d" />
  <path d="M 554.0,363.0 L 583.0,366.0 L 594.0,369.0 L 597.0,378.0 L 588.0,400.0 L 587.0,407.0 L 550.0,402.0 L 553.0,364.0 Z" fill="#8f8258" />
  <path d="M 32.0,247.0 L 60.0,251.0 L 65.0,260.0 L 55.0,288.0 L 36.0,287.0 L 14.0,283.0 L 14.0,280.0 L 25.0,264.0 L 32.0,248.0 Z" fill="#e5c7a0" />
  <path d="M 87.0,748.0 L 124.0,752.0 L 120.0,789.0 L 114.0,789.0 L 93.0,786.0 L 82.0,786.0 L 77.0,775.0 L 87.0,749.0 Z" fill="#edcda7" />
  <path d="M 462.0,105.0 L 499.0,112.0 L 495.0,144.0 L 494.0,147.0 L 480.0,147.0 L 456.0,144.0 L 452.0,136.0 L 452.0,132.0 L 461.0,106.0 L 494.0,148.0 L 462.0,105.0 Z" fill="#81764d" />
  <path d="M 680.0,399.0 L 719.0,401.0 L 719.0,439.0 L 711.0,439.0 L 684.0,436.0 L 674.0,433.0 L 671.0,424.0 L 680.0,400.0 Z" fill="#f3d3af" />
  <path d="M 598.0,377.0 L 634.0,384.0 L 630.0,419.0 L 593.0,417.0 L 588.0,408.0 L 588.0,405.0 L 598.0,378.0 Z" fill="#ad9f7a" />
  <path d="M 60.0,299.0 L 88.0,303.0 L 93.0,302.0 L 98.0,304.0 L 94.0,323.0 L 93.0,340.0 L 89.0,342.0 L 57.0,338.0 L 52.0,336.0 L 47.0,327.0 L 59.0,300.0 Z" fill="#e1caa9" />
  <path d="M 588.0,771.0 L 622.0,776.0 L 625.0,778.0 L 629.0,785.0 L 629.0,788.0 L 620.0,811.0 L 582.0,812.0 L 583.0,793.0 L 586.0,784.0 L 587.0,772.0 Z" fill="#f2d2ad" />
  <path d="M 2.0,1005.0 L 12.0,1005.0 L 30.0,1008.0 L 38.0,1006.0 L 48.0,1006.0 L 52.0,1014.0 L 52.0,1017.0 L 41.0,1047.0 L 30.0,1047.0 L 20.0,1029.0 L 3.0,1006.0 Z" fill="#d0b187" />
  <path d="M 567.0,613.0 L 605.0,617.0 L 601.0,653.0 L 587.0,654.0 L 568.0,651.0 L 563.0,652.0 L 557.0,639.0 L 567.0,614.0 Z" fill="#847a4b" />
  <path d="M 409.0,902.0 L 446.0,906.0 L 443.0,942.0 L 442.0,944.0 L 438.0,944.0 L 402.0,940.0 L 399.0,932.0 L 409.0,903.0 Z" fill="#e8caa5" />
  <path d="M 548.0,769.0 L 586.0,772.0 L 585.0,784.0 L 582.0,793.0 L 581.0,811.0 L 547.0,807.0 L 548.0,770.0 L 546.0,807.0 L 548.0,769.0 Z" fill="#f0d0ae" />
  <path d="M 606.0,617.0 L 644.0,621.0 L 650.0,631.0 L 639.0,659.0 L 602.0,655.0 L 601.0,654.0 L 604.0,643.0 L 606.0,618.0 Z" fill="#c5b087" />
  <path d="M 336.0,74.0 L 374.0,78.0 L 379.0,87.0 L 371.0,107.0 L 369.0,116.0 L 331.0,111.0 L 336.0,75.0 Z" fill="#a29674" />
  <path d="M 183.0,284.0 L 222.0,287.0 L 222.0,293.0 L 217.0,309.0 L 215.0,325.0 L 211.0,325.0 L 203.0,323.0 L 182.0,322.0 L 183.0,285.0 Z" fill="#7f764a" />
  <path d="M 0.0,848.0 L 28.0,849.0 L 30.0,869.0 L 29.0,888.0 L 22.0,890.0 L 0.0,886.0 L 0.0,849.0 Z" fill="#ddbe91" />
  <path d="M 635.0,747.0 L 642.0,749.0 L 673.0,752.0 L 678.0,759.0 L 660.0,779.0 L 656.0,786.0 L 654.0,788.0 L 632.0,786.0 L 626.0,779.0 L 625.0,775.0 L 634.0,748.0 Z" fill="#f3d3ae" />
  <path d="M 0.0,728.0 L 43.0,732.0 L 40.0,746.0 L 39.0,768.0 L 38.0,770.0 L 30.0,770.0 L 0.0,766.0 L 0.0,729.0 Z" fill="#cdaf84" />
  <path d="M 375.0,808.0 L 414.0,815.0 L 417.0,821.0 L 417.0,825.0 L 409.0,851.0 L 370.0,849.0 L 368.0,845.0 L 374.0,809.0 Z" fill="#e8caa3" />
  <path d="M 238.0,173.0 L 275.0,174.0 L 281.0,184.0 L 280.0,191.0 L 270.0,214.0 L 235.0,207.0 L 238.0,174.0 Z" fill="#cbb893" />
  <path d="M 524.0,282.0 L 561.0,287.0 L 559.0,305.0 L 560.0,307.0 L 558.0,314.0 L 559.0,322.0 L 558.0,324.0 L 556.0,324.0 L 519.0,318.0 L 515.0,310.0 L 515.0,305.0 L 524.0,283.0 Z" fill="#a3946a" />
  <path d="M 273.0,630.0 L 309.0,636.0 L 306.0,671.0 L 268.0,669.0 L 264.0,660.0 L 264.0,655.0 L 273.0,631.0 Z" fill="#6f663d" />
  <path d="M 78.0,825.0 L 114.0,831.0 L 111.0,864.0 L 110.0,868.0 L 104.0,868.0 L 73.0,862.0 L 68.0,853.0 L 68.0,850.0 L 77.0,826.0 L 110.0,869.0 L 78.0,825.0 Z" fill="#e9c9a2" />
  <path d="M 694.0,893.0 L 719.0,895.0 L 719.0,918.0 L 711.0,923.0 L 705.0,929.0 L 697.0,933.0 L 694.0,933.0 L 674.0,924.0 L 693.0,894.0 L 673.0,924.0 L 694.0,893.0 Z" fill="#f2d2ac" />
  <path d="M 47.0,13.0 L 76.0,28.0 L 83.0,30.0 L 81.0,55.0 L 59.0,52.0 L 43.0,52.0 L 37.0,36.0 L 47.0,14.0 Z" fill="#d4b78f" />
  <path d="M 42.0,457.0 L 77.0,459.0 L 78.0,465.0 L 77.0,475.0 L 75.0,477.0 L 74.0,497.0 L 72.0,499.0 L 59.0,497.0 L 39.0,493.0 L 33.0,483.0 L 34.0,476.0 L 42.0,458.0 Z" fill="#e0caab" />
  <path d="M 239.0,536.0 L 276.0,540.0 L 282.0,551.0 L 272.0,578.0 L 236.0,576.0 L 234.0,574.0 L 236.0,565.0 L 235.0,562.0 L 237.0,544.0 L 239.0,537.0 Z" fill="#cbb998" />
  <path d="M 120.0,555.0 L 150.0,556.0 L 148.0,593.0 L 144.0,597.0 L 141.0,597.0 L 110.0,592.0 L 107.0,590.0 L 102.0,578.0 L 112.0,556.0 L 119.0,556.0 Z" fill="#76724e" />
  <path d="M 535.0,519.0 L 572.0,523.0 L 578.0,537.0 L 567.0,562.0 L 530.0,556.0 L 531.0,535.0 L 534.0,520.0 Z" fill="#c9b48d" />
  <path d="M 0.0,66.0 L 20.0,69.0 L 24.0,71.0 L 23.0,95.0 L 0.0,101.0 L 0.0,67.0 Z" fill="#b39166" />
  <path d="M 699.0,963.0 L 719.0,964.0 L 719.0,1003.0 L 715.0,1003.0 L 698.0,997.0 L 693.0,997.0 L 690.0,969.0 L 698.0,964.0 L 719.0,1004.0 L 699.0,963.0 Z" fill="#edcda5" />
  <path d="M 119.0,109.0 L 110.0,132.0 L 115.0,147.0 L 152.0,151.0 L 154.0,149.0 L 155.0,115.0 L 119.0,109.0 Z" fill="#cbb68f" />
  <path d="M 645.0,1018.0 L 683.0,1030.0 L 685.0,1047.0 L 640.0,1047.0 L 644.0,1019.0 Z" fill="#e6c69a" />
  <path d="M 642.0,0.0 L 684.0,0.0 L 681.0,29.0 L 642.0,29.0 L 639.0,22.0 L 642.0,1.0 Z" fill="#e8c89f" />
  <path d="M 200.0,532.0 L 209.0,534.0 L 238.0,536.0 L 233.0,575.0 L 202.0,572.0 L 196.0,570.0 L 190.0,559.0 L 190.0,556.0 L 199.0,533.0 Z" fill="#9f946d" />
  <path d="M 106.0,909.0 L 144.0,913.0 L 148.0,920.0 L 148.0,924.0 L 139.0,950.0 L 101.0,948.0 L 100.0,944.0 L 106.0,910.0 Z" fill="#e8c9a1" />
  <path d="M 132.0,396.0 L 170.0,400.0 L 165.0,439.0 L 159.0,439.0 L 126.0,434.0 L 122.0,426.0 L 122.0,422.0 L 132.0,398.0 Z" fill="#cdb48f" />
  <path d="M 39.0,62.0 L 49.0,75.0 L 57.0,92.0 L 37.0,104.0 L 24.0,95.0 L 25.0,70.0 L 38.0,63.0 Z" fill="#dcbc93" />
  <path d="M 179.0,229.0 L 183.0,230.0 L 189.0,244.0 L 189.0,247.0 L 183.0,259.0 L 179.0,263.0 L 174.0,263.0 L 160.0,259.0 L 143.0,258.0 L 145.0,230.0 L 178.0,230.0 Z" fill="#e5c8a2" />
  <path d="M 628.0,144.0 L 651.0,147.0 L 656.0,155.0 L 664.0,163.0 L 664.0,166.0 L 658.0,187.0 L 621.0,182.0 L 617.0,172.0 L 628.0,145.0 L 658.0,188.0 L 628.0,144.0 Z" fill="#e9cca7" />
  <path d="M 198.0,166.0 L 237.0,172.0 L 234.0,207.0 L 230.0,210.0 L 225.0,210.0 L 192.0,203.0 L 188.0,193.0 L 198.0,167.0 Z" fill="#e4c7a0" />
  <path d="M 101.0,949.0 L 139.0,951.0 L 144.0,961.0 L 135.0,989.0 L 97.0,984.0 L 97.0,971.0 L 101.0,950.0 Z" fill="#e3c59c" />
  <path d="M 463.0,420.0 L 458.0,424.0 L 456.0,462.0 L 493.0,463.0 L 504.0,437.0 L 500.0,428.0 L 498.0,427.0 L 492.0,427.0 L 488.0,425.0 L 464.0,421.0 Z" fill="#857a57" />
  <path d="M 529.0,557.0 L 565.0,562.0 L 568.0,564.0 L 572.0,573.0 L 561.0,600.0 L 525.0,595.0 L 528.0,558.0 Z" fill="#6d663e" />
  <path d="M 613.0,943.0 L 635.0,946.0 L 652.0,967.0 L 647.0,982.0 L 633.0,984.0 L 617.0,982.0 L 615.0,983.0 L 609.0,981.0 L 610.0,950.0 L 612.0,944.0 Z" fill="#dbbc93" />
  <path d="M 248.0,0.0 L 300.0,0.0 L 296.0,24.0 L 290.0,24.0 L 260.0,17.0 L 256.0,14.0 L 248.0,1.0 Z" fill="#e1c297" />
  <path d="M 96.0,984.0 L 94.0,986.0 L 94.0,999.0 L 92.0,1010.0 L 93.0,1011.0 L 91.0,1018.0 L 118.0,1027.0 L 127.0,1016.0 L 138.0,1008.0 L 140.0,1003.0 L 136.0,992.0 L 133.0,989.0 L 97.0,985.0 Z" fill="#b39871" />
  <path d="M 208.0,90.0 L 245.0,92.0 L 242.0,130.0 L 240.0,132.0 L 203.0,127.0 L 197.0,115.0 L 207.0,91.0 Z" fill="#878155" />
  <path d="M 429.0,746.0 L 460.0,749.0 L 467.0,751.0 L 465.0,761.0 L 464.0,784.0 L 463.0,788.0 L 460.0,788.0 L 424.0,784.0 L 419.0,772.0 L 429.0,747.0 Z" fill="#ebcda9" />
  <path d="M 108.0,592.0 L 143.0,598.0 L 143.0,612.0 L 140.0,635.0 L 138.0,636.0 L 102.0,631.0 L 96.0,620.0 L 107.0,593.0 Z" fill="#66643d" />
  <path d="M 495.0,516.0 L 532.0,521.0 L 529.0,556.0 L 525.0,558.0 L 493.0,554.0 L 489.0,552.0 L 485.0,543.0 L 494.0,517.0 Z" fill="#bcab83" />
  <path d="M 176.0,363.0 L 203.0,365.0 L 207.0,367.0 L 214.0,386.0 L 214.0,390.0 L 209.0,405.0 L 204.0,406.0 L 171.0,400.0 L 175.0,364.0 Z" fill="#e9cba6" />
  <path d="M 526.0,965.0 L 562.0,967.0 L 568.0,977.0 L 566.0,988.0 L 559.0,1008.0 L 523.0,1003.0 L 521.0,998.0 L 526.0,966.0 Z" fill="#ceb288" />
  <path d="M 262.0,342.0 L 300.0,345.0 L 297.0,382.0 L 294.0,384.0 L 289.0,384.0 L 258.0,378.0 L 255.0,366.0 L 255.0,359.0 L 262.0,343.0 Z" fill="#ac9c74" />
  <path d="M 443.0,21.0 L 446.0,21.0 L 467.0,37.0 L 461.0,58.0 L 440.0,53.0 L 423.0,51.0 L 424.0,32.0 L 442.0,22.0 Z" fill="#e3c5a0" />
  <path d="M 0.0,520.0 L 25.0,521.0 L 33.0,533.0 L 31.0,542.0 L 21.0,563.0 L 0.0,563.0 L 0.0,521.0 L 0.0,564.0 L 0.0,520.0 Z" fill="#d6b68b" />
  <path d="M 497.0,882.0 L 528.0,884.0 L 535.0,885.0 L 536.0,887.0 L 532.0,922.0 L 530.0,924.0 L 524.0,924.0 L 492.0,919.0 L 487.0,908.0 L 497.0,883.0 Z" fill="#f0d0ab" />
  <path d="M 262.0,1015.0 L 302.0,1020.0 L 303.0,1029.0 L 300.0,1047.0 L 263.0,1047.0 L 259.0,1034.0 L 259.0,1019.0 L 261.0,1016.0 Z" fill="#d2b28d" />
  <path d="M 708.0,776.0 L 719.0,776.0 L 719.0,817.0 L 706.0,816.0 L 690.0,800.0 L 696.0,779.0 L 707.0,777.0 Z" fill="#f4d4af" />
  <path d="M 36.0,811.0 L 72.0,815.0 L 77.0,824.0 L 67.0,851.0 L 29.0,849.0 L 28.0,844.0 L 35.0,822.0 L 36.0,812.0 Z" fill="#e9c9a0" />
  <path d="M 303.0,711.0 L 341.0,716.0 L 346.0,725.0 L 335.0,755.0 L 332.0,756.0 L 331.0,754.0 L 328.0,755.0 L 324.0,753.0 L 323.0,754.0 L 321.0,752.0 L 320.0,753.0 L 298.0,749.0 L 298.0,740.0 L 300.0,734.0 L 300.0,718.0 L 302.0,712.0 L 329.0,756.0 L 331.0,756.0 L 303.0,711.0 Z" fill="#c59f87" />
  <path d="M 84.0,419.0 L 121.0,425.0 L 125.0,433.0 L 125.0,436.0 L 118.0,453.0 L 116.0,463.0 L 91.0,460.0 L 78.0,460.0 L 77.0,458.0 L 81.0,422.0 L 83.0,420.0 Z" fill="#c4ae89" />
  <path d="M 595.0,51.0 L 605.0,52.0 L 634.0,59.0 L 636.0,66.0 L 627.0,88.0 L 627.0,91.0 L 613.0,92.0 L 589.0,90.0 L 591.0,54.0 L 594.0,52.0 Z" fill="#edcda7" />
  <path d="M 258.0,17.0 L 256.0,44.0 L 253.0,54.0 L 292.0,59.0 L 299.0,34.0 L 297.0,26.0 L 258.0,17.0 Z" fill="#e5c79e" />
  <path d="M 664.0,197.0 L 643.0,224.0 L 650.0,235.0 L 654.0,239.0 L 658.0,239.0 L 681.0,234.0 L 684.0,208.0 L 680.0,202.0 L 665.0,198.0 Z" fill="#edcfa9" />
  <path d="M 21.0,613.0 L 58.0,615.0 L 56.0,655.0 L 49.0,659.0 L 31.0,651.0 L 25.0,650.0 L 25.0,629.0 L 22.0,614.0 Z" fill="#e8c9a0" />
  <path d="M 402.0,941.0 L 442.0,945.0 L 436.0,982.0 L 400.0,979.0 L 395.0,972.0 L 394.0,967.0 L 402.0,942.0 L 436.0,983.0 L 402.0,941.0 Z" fill="#cfb694" />
  <path d="M 315.0,229.0 L 350.0,233.0 L 355.0,236.0 L 358.0,241.0 L 358.0,244.0 L 348.0,273.0 L 309.0,268.0 L 314.0,230.0 Z" fill="#d4bf9d" />
  <path d="M 705.0,133.0 L 719.0,134.0 L 719.0,173.0 L 701.0,173.0 L 688.0,159.0 L 693.0,136.0 L 704.0,134.0 Z" fill="#eacba6" />
  <path d="M 327.0,480.0 L 305.0,485.0 L 287.0,487.0 L 282.0,501.0 L 287.0,513.0 L 325.0,515.0 L 327.0,505.0 L 327.0,482.0 Z" fill="#a5976f" />
  <path d="M 415.0,458.0 L 454.0,463.0 L 452.0,493.0 L 451.0,499.0 L 448.0,500.0 L 413.0,496.0 L 411.0,494.0 L 407.0,486.0 L 407.0,483.0 L 414.0,466.0 L 415.0,460.0 Z" fill="#c7b491" />
  <path d="M 138.0,1009.0 L 127.0,1017.0 L 119.0,1027.0 L 121.0,1047.0 L 152.0,1047.0 L 145.0,1034.0 L 143.0,1022.0 L 138.0,1011.0 L 153.0,1047.0 L 138.0,1009.0 Z" fill="#dabf9d" />
  <path d="M 136.0,357.0 L 170.0,361.0 L 175.0,363.0 L 170.0,399.0 L 133.0,396.0 L 127.0,385.0 L 127.0,382.0 L 136.0,358.0 Z" fill="#e8caa5" />
  <path d="M 321.0,555.0 L 348.0,558.0 L 354.0,560.0 L 360.0,580.0 L 355.0,595.0 L 342.0,596.0 L 318.0,593.0 L 320.0,556.0 Z" fill="#cebea1" />
  <path d="M 573.0,573.0 L 610.0,579.0 L 606.0,616.0 L 567.0,612.0 L 563.0,605.0 L 562.0,599.0 L 572.0,574.0 Z" fill="#766e43" />
  <path d="M 525.0,596.0 L 521.0,599.0 L 519.0,636.0 L 556.0,639.0 L 566.0,614.0 L 566.0,611.0 L 561.0,601.0 L 526.0,597.0 Z" fill="#867e51" />
  <path d="M 292.0,790.0 L 325.0,793.0 L 327.0,795.0 L 331.0,795.0 L 335.0,804.0 L 327.0,824.0 L 326.0,830.0 L 320.0,831.0 L 287.0,828.0 L 287.0,814.0 L 290.0,804.0 L 291.0,791.0 Z" fill="#ddbca5" />
  <path d="M 145.0,962.0 L 182.0,966.0 L 180.0,1002.0 L 141.0,1002.0 L 137.0,994.0 L 136.0,987.0 L 145.0,963.0 Z" fill="#c5aa83" />
  <path d="M 180.0,689.0 L 218.0,694.0 L 214.0,731.0 L 211.0,731.0 L 174.0,725.0 L 170.0,716.0 L 180.0,690.0 Z" fill="#d2bb98" />
  <path d="M 344.0,359.0 L 382.0,365.0 L 378.0,385.0 L 377.0,402.0 L 354.0,400.0 L 339.0,398.0 L 334.0,390.0 L 344.0,360.0 Z" fill="#c4b697" />
  <path d="M 683.0,32.0 L 719.0,36.0 L 719.0,77.0 L 678.0,68.0 L 678.0,58.0 L 683.0,34.0 L 677.0,68.0 L 683.0,32.0 Z" fill="#e6c7a2" />
  <path d="M 23.0,96.0 L 36.0,104.0 L 34.0,127.0 L 25.0,128.0 L 0.0,126.0 L 0.0,102.0 L 22.0,97.0 Z" fill="#c5a57a" />
  <path d="M 374.0,0.0 L 412.0,0.0 L 410.0,20.0 L 401.0,22.0 L 381.0,30.0 L 374.0,1.0 Z" fill="#dcc29e" />
  <path d="M 34.0,129.0 L 70.0,133.0 L 68.0,141.0 L 68.0,162.0 L 62.0,170.0 L 55.0,170.0 L 35.0,168.0 L 32.0,166.0 L 34.0,130.0 Z" fill="#e5c59e" />
  <path d="M 330.0,111.0 L 369.0,117.0 L 374.0,127.0 L 364.0,154.0 L 327.0,149.0 L 330.0,113.0 Z" fill="#ad9f7b" />
  <path d="M 82.0,787.0 L 113.0,789.0 L 120.0,790.0 L 121.0,792.0 L 118.0,823.0 L 117.0,827.0 L 114.0,830.0 L 82.0,825.0 L 77.0,823.0 L 73.0,813.0 L 82.0,788.0 Z" fill="#eacaa2" />
  <path d="M 175.0,726.0 L 164.0,755.0 L 169.0,765.0 L 208.0,770.0 L 213.0,732.0 L 176.0,727.0 Z" fill="#efd0ab" />
  <path d="M 230.0,614.0 L 228.0,617.0 L 228.0,629.0 L 224.0,653.0 L 263.0,657.0 L 265.0,648.0 L 272.0,631.0 L 272.0,628.0 L 268.0,620.0 L 231.0,615.0 Z" fill="#615b39" />
  <path d="M 208.0,771.0 L 246.0,776.0 L 250.0,783.0 L 250.0,787.0 L 241.0,813.0 L 203.0,810.0 L 203.0,802.0 L 208.0,772.0 L 241.0,814.0 L 208.0,771.0 Z" fill="#d8af92" />
  <path d="M 433.0,648.0 L 455.0,650.0 L 471.0,654.0 L 475.0,672.0 L 471.0,676.0 L 445.0,680.0 L 441.0,679.0 L 437.0,681.0 L 433.0,680.0 L 427.0,659.0 L 427.0,655.0 L 433.0,649.0 Z" fill="#877f55" />
  <path d="M 587.0,455.0 L 623.0,462.0 L 623.0,479.0 L 620.0,498.0 L 583.0,496.0 L 578.0,486.0 L 578.0,481.0 L 587.0,457.0 Z" fill="#f1d1aa" />
  <path d="M 627.0,826.0 L 662.0,830.0 L 668.0,841.0 L 660.0,850.0 L 644.0,866.0 L 623.0,864.0 L 619.0,853.0 L 618.0,845.0 L 626.0,827.0 Z" fill="#f1d1ac" />
  <path d="M 71.0,133.0 L 81.0,135.0 L 109.0,134.0 L 113.0,142.0 L 114.0,149.0 L 107.0,165.0 L 106.0,166.0 L 93.0,163.0 L 69.0,162.0 L 69.0,141.0 L 71.0,133.0 Z" fill="#e6c8a3" />
  <path d="M 418.0,823.0 L 457.0,828.0 L 452.0,865.0 L 449.0,866.0 L 415.0,860.0 L 412.0,858.0 L 410.0,848.0 L 418.0,824.0 Z" fill="#efcfa9" />
  <path d="M 251.0,785.0 L 289.0,792.0 L 289.0,804.0 L 286.0,814.0 L 287.0,817.0 L 285.0,826.0 L 251.0,824.0 L 247.0,825.0 L 247.0,822.0 L 243.0,817.0 L 242.0,811.0 L 251.0,786.0 L 249.0,826.0 L 251.0,826.0 L 251.0,785.0 Z" fill="#ac7166" />
  <path d="M 277.0,906.0 L 305.0,910.0 L 316.0,910.0 L 321.0,922.0 L 311.0,948.0 L 274.0,944.0 L 276.0,907.0 Z" fill="#e7caa7" />
  <path d="M 685.0,0.0 L 719.0,0.0 L 719.0,35.0 L 682.0,31.0 L 685.0,1.0 Z" fill="#dfc19a" />
  <path d="M 685.0,209.0 L 719.0,213.0 L 719.0,243.0 L 703.0,246.0 L 692.0,246.0 L 682.0,235.0 L 685.0,210.0 Z" fill="#eccda8" />
  <path d="M 217.0,328.0 L 231.0,330.0 L 256.0,328.0 L 261.0,340.0 L 261.0,344.0 L 254.0,361.0 L 236.0,357.0 L 214.0,356.0 L 214.0,345.0 L 217.0,329.0 Z" fill="#c1ad83" />
  <path d="M 79.0,93.0 L 114.0,99.0 L 118.0,107.0 L 118.0,111.0 L 109.0,133.0 L 81.0,134.0 L 71.0,132.0 L 71.0,124.0 L 75.0,110.0 L 76.0,95.0 L 78.0,94.0 Z" fill="#dcc39f" />
  <path d="M 366.0,887.0 L 398.0,891.0 L 404.0,893.0 L 408.0,900.0 L 408.0,904.0 L 401.0,921.0 L 399.0,931.0 L 398.0,932.0 L 361.0,925.0 L 365.0,888.0 Z" fill="#e1c6a2" />
  <path d="M 424.0,785.0 L 463.0,789.0 L 458.0,815.0 L 458.0,823.0 L 457.0,827.0 L 455.0,827.0 L 418.0,822.0 L 414.0,812.0 L 424.0,786.0 Z" fill="#f0d0ab" />
  <path d="M 443.0,945.0 L 482.0,951.0 L 485.0,960.0 L 476.0,986.0 L 438.0,982.0 L 438.0,971.0 L 443.0,946.0 L 437.0,982.0 L 443.0,945.0 Z" fill="#e6ceb3" />
  <path d="M 143.0,259.0 L 160.0,260.0 L 169.0,263.0 L 180.0,264.0 L 179.0,268.0 L 182.0,279.0 L 182.0,285.0 L 142.0,291.0 L 135.0,269.0 L 142.0,260.0 Z" fill="#c5b8a1" />
  <path d="M 151.0,0.0 L 198.0,0.0 L 196.0,12.0 L 190.0,18.0 L 187.0,19.0 L 159.0,18.0 L 152.0,1.0 Z" fill="#ddbd92" />
  <path d="M 580.0,168.0 L 612.0,172.0 L 617.0,174.0 L 620.0,184.0 L 610.0,212.0 L 575.0,206.0 L 579.0,169.0 L 574.0,206.0 L 580.0,168.0 Z" fill="#ebcea6" />
  <path d="M 408.0,171.0 L 446.0,175.0 L 452.0,185.0 L 442.0,214.0 L 404.0,209.0 L 403.0,202.0 L 407.0,186.0 L 408.0,172.0 Z" fill="#b6a57c" />
  <path d="M 481.0,634.0 L 517.0,637.0 L 514.0,661.0 L 514.0,674.0 L 487.0,673.0 L 475.0,671.0 L 472.0,652.0 L 479.0,640.0 L 480.0,635.0 Z" fill="#877f52" />
  <path d="M 622.0,865.0 L 638.0,866.0 L 645.0,868.0 L 656.0,884.0 L 652.0,906.0 L 643.0,907.0 L 618.0,905.0 L 620.0,895.0 L 621.0,866.0 Z" fill="#f0d0a9" />
  <path d="M 49.0,377.0 L 38.0,404.0 L 44.0,415.0 L 50.0,417.0 L 81.0,421.0 L 84.0,415.0 L 86.0,382.0 L 50.0,378.0 Z" fill="#e6c79f" />
  <path d="M 253.0,420.0 L 261.0,420.0 L 276.0,423.0 L 280.0,422.0 L 288.0,424.0 L 289.0,428.0 L 288.0,451.0 L 279.0,462.0 L 248.0,459.0 L 247.0,453.0 L 252.0,434.0 L 253.0,422.0 Z" fill="#767251" />
  <path d="M 363.0,520.0 L 371.0,520.0 L 378.0,522.0 L 403.0,521.0 L 408.0,533.0 L 407.0,539.0 L 400.0,553.0 L 382.0,550.0 L 362.0,549.0 L 361.0,535.0 L 363.0,521.0 Z" fill="#b49b71" />
  <path d="M 117.0,828.0 L 154.0,835.0 L 158.0,842.0 L 158.0,845.0 L 148.0,872.0 L 111.0,868.0 L 114.0,834.0 L 116.0,829.0 Z" fill="#edcda8" />
  <path d="M 0.0,481.0 L 32.0,482.0 L 38.0,492.0 L 38.0,495.0 L 26.0,520.0 L 0.0,519.0 L 0.0,482.0 Z" fill="#d6b78a" />
  <path d="M 288.0,829.0 L 326.0,832.0 L 332.0,845.0 L 321.0,871.0 L 285.0,865.0 L 285.0,851.0 L 288.0,830.0 L 284.0,865.0 L 288.0,829.0 Z" fill="#edcea9" />
  <path d="M 117.0,513.0 L 152.0,519.0 L 149.0,555.0 L 112.0,555.0 L 106.0,542.0 L 116.0,514.0 Z" fill="#dec39c" />
  <path d="M 719.0,737.0 L 704.0,749.0 L 681.0,760.0 L 696.0,778.0 L 708.0,775.0 L 719.0,775.0 L 719.0,739.0 Z" fill="#f5d5b0" />
  <path d="M 141.0,1003.0 L 181.0,1004.0 L 179.0,1019.0 L 173.0,1039.0 L 173.0,1047.0 L 153.0,1046.0 L 146.0,1034.0 L 144.0,1022.0 L 139.0,1011.0 L 140.0,1004.0 Z" fill="#dbc3a5" />
  <path d="M 326.0,150.0 L 360.0,154.0 L 365.0,156.0 L 369.0,164.0 L 358.0,194.0 L 321.0,188.0 L 325.0,151.0 Z" fill="#bdaf8a" />
  <path d="M 567.0,47.0 L 590.0,54.0 L 588.0,89.0 L 557.0,88.0 L 549.0,86.0 L 545.0,76.0 L 549.0,59.0 L 566.0,48.0 Z" fill="#eccca6" />
  <path d="M 403.0,574.0 L 439.0,578.0 L 439.0,587.0 L 436.0,596.0 L 434.0,616.0 L 403.0,614.0 L 398.0,613.0 L 400.0,602.0 L 400.0,579.0 L 403.0,575.0 Z" fill="#876b4a" />
  <path d="M 692.0,359.0 L 719.0,361.0 L 719.0,400.0 L 680.0,398.0 L 674.0,386.0 L 684.0,361.0 L 691.0,360.0 Z" fill="#f2d2ae" />
  <path d="M 655.0,29.0 L 681.0,30.0 L 682.0,34.0 L 676.0,69.0 L 669.0,70.0 L 637.0,64.0 L 634.0,58.0 L 642.0,30.0 L 654.0,30.0 Z" fill="#ebcba4" />
  <path d="M 525.0,42.0 L 531.0,42.0 L 549.0,58.0 L 545.0,74.0 L 537.0,75.0 L 505.0,71.0 L 508.0,45.0 L 524.0,43.0 Z" fill="#e8c9a3" />
  <path d="M 621.0,183.0 L 657.0,188.0 L 663.0,196.0 L 642.0,224.0 L 619.0,222.0 L 616.0,221.0 L 611.0,212.0 L 621.0,184.0 Z" fill="#eccda6" />
  <path d="M 111.0,186.0 L 147.0,190.0 L 147.0,199.0 L 143.0,214.0 L 142.0,227.0 L 112.0,226.0 L 107.0,224.0 L 109.0,210.0 L 108.0,191.0 L 111.0,187.0 Z" fill="#e7c9a3" />
  <path d="M 652.0,266.0 L 668.0,267.0 L 683.0,270.0 L 691.0,282.0 L 679.0,307.0 L 647.0,303.0 L 652.0,267.0 Z" fill="#f0d0aa" />
  <path d="M 342.0,765.0 L 340.0,767.0 L 331.0,793.0 L 335.0,802.0 L 373.0,809.0 L 375.0,807.0 L 379.0,769.0 L 343.0,766.0 Z" fill="#a3936f" />
  <path d="M 627.0,459.0 L 659.0,463.0 L 664.0,464.0 L 666.0,466.0 L 670.0,474.0 L 657.0,502.0 L 622.0,498.0 L 624.0,462.0 L 626.0,460.0 L 621.0,498.0 L 627.0,459.0 Z" fill="#f2d2ac" />
  <path d="M 545.0,441.0 L 542.0,444.0 L 542.0,456.0 L 538.0,480.0 L 577.0,484.0 L 586.0,457.0 L 586.0,453.0 L 582.0,447.0 L 546.0,442.0 Z" fill="#edcfa9" />
  <path d="M 102.0,632.0 L 139.0,637.0 L 138.0,671.0 L 135.0,674.0 L 129.0,674.0 L 97.0,670.0 L 92.0,658.0 L 102.0,633.0 Z" fill="#c6af87" />
  <path d="M 583.0,497.0 L 620.0,499.0 L 620.0,510.0 L 616.0,530.0 L 616.0,539.0 L 608.0,539.0 L 581.0,536.0 L 578.0,534.0 L 573.0,522.0 L 583.0,498.0 Z" fill="#f0d0a9" />
  <path d="M 327.0,518.0 L 362.0,520.0 L 360.0,535.0 L 361.0,550.0 L 354.0,558.0 L 349.0,558.0 L 322.0,554.0 L 322.0,545.0 L 326.0,532.0 L 327.0,519.0 Z" fill="#c2b494" />
  <path d="M 55.0,656.0 L 81.0,658.0 L 92.0,661.0 L 96.0,669.0 L 96.0,672.0 L 89.0,689.0 L 87.0,698.0 L 48.0,693.0 L 51.0,671.0 L 51.0,659.0 L 54.0,657.0 Z" fill="#e1c49a" />
  <path d="M 97.0,671.0 L 134.0,675.0 L 130.0,712.0 L 125.0,713.0 L 95.0,708.0 L 91.0,706.0 L 88.0,696.0 L 97.0,672.0 Z" fill="#e6c6a0" />
  <path d="M 233.0,208.0 L 239.0,208.0 L 271.0,216.0 L 274.0,222.0 L 274.0,226.0 L 264.0,253.0 L 259.0,251.0 L 254.0,252.0 L 250.0,250.0 L 233.0,248.0 L 226.0,249.0 L 229.0,215.0 L 232.0,209.0 Z" fill="#dec49f" />
  <path d="M 322.0,922.0 L 360.0,926.0 L 354.0,963.0 L 319.0,960.0 L 316.0,958.0 L 312.0,950.0 L 312.0,946.0 L 321.0,923.0 Z" fill="#b1a37a" />
  <path d="M 632.0,421.0 L 628.0,458.0 L 664.0,463.0 L 673.0,436.0 L 673.0,432.0 L 670.0,425.0 L 632.0,421.0 Z" fill="#f3d3ae" />
  <path d="M 398.0,614.0 L 435.0,617.0 L 436.0,622.0 L 434.0,629.0 L 434.0,644.0 L 432.0,649.0 L 426.0,655.0 L 395.0,651.0 L 395.0,639.0 L 398.0,628.0 L 398.0,615.0 L 394.0,651.0 L 398.0,614.0 Z" fill="#918c67" />
  <path d="M 582.0,0.0 L 589.0,0.0 L 598.0,14.0 L 598.0,42.0 L 596.0,50.0 L 590.0,53.0 L 569.0,47.0 L 567.0,45.0 L 562.0,25.0 L 571.0,12.0 L 581.0,1.0 Z" fill="#e4c599" />
  <path d="M 706.0,281.0 L 719.0,282.0 L 719.0,321.0 L 688.0,320.0 L 680.0,308.0 L 691.0,284.0 L 705.0,282.0 Z" fill="#efd1ac" />
  <path d="M 605.0,1012.0 L 624.0,1014.0 L 643.0,1019.0 L 639.0,1047.0 L 606.0,1047.0 L 601.0,1035.0 L 600.0,1028.0 L 600.0,1018.0 L 604.0,1013.0 Z" fill="#e1c39e" />
  <path d="M 484.0,594.0 L 520.0,599.0 L 518.0,636.0 L 490.0,634.0 L 481.0,633.0 L 475.0,618.0 L 484.0,595.0 Z" fill="#807953" />
  <path d="M 466.0,618.0 L 474.0,618.0 L 480.0,632.0 L 478.0,640.0 L 471.0,653.0 L 455.0,649.0 L 434.0,647.0 L 437.0,619.0 L 465.0,619.0 Z" fill="#999171" />
  <path d="M 390.0,1013.0 L 395.0,1013.0 L 413.0,1021.0 L 427.0,1023.0 L 428.0,1036.0 L 428.0,1047.0 L 384.0,1047.0 L 390.0,1014.0 Z" fill="#d4b892" />
  <path d="M 29.0,850.0 L 67.0,852.0 L 72.0,861.0 L 70.0,871.0 L 61.0,891.0 L 34.0,888.0 L 31.0,887.0 L 29.0,851.0 Z" fill="#e6c69d" />
  <path d="M 190.0,246.0 L 225.0,248.0 L 222.0,286.0 L 220.0,286.0 L 183.0,283.0 L 180.0,263.0 L 184.0,259.0 L 190.0,247.0 Z" fill="#807551" />
  <path d="M 414.0,860.0 L 404.0,891.0 L 409.0,901.0 L 440.0,905.0 L 447.0,905.0 L 448.0,902.0 L 448.0,889.0 L 451.0,867.0 L 415.0,861.0 Z" fill="#ebcca7" />
  <path d="M 333.0,845.0 L 367.0,846.0 L 369.0,848.0 L 369.0,858.0 L 365.0,887.0 L 327.0,882.0 L 322.0,871.0 L 332.0,846.0 Z" fill="#b2a37c" />
  <path d="M 638.0,381.0 L 635.0,383.0 L 631.0,420.0 L 670.0,424.0 L 679.0,400.0 L 679.0,397.0 L 674.0,387.0 L 672.0,386.0 L 639.0,382.0 Z" fill="#efd0ab" />
  <path d="M 687.0,535.0 L 719.0,539.0 L 719.0,565.0 L 711.0,567.0 L 694.0,568.0 L 687.0,563.0 L 679.0,555.0 L 686.0,536.0 Z" fill="#f3d3ae" />
  <path d="M 34.0,168.0 L 43.0,170.0 L 62.0,171.0 L 69.0,191.0 L 69.0,195.0 L 63.0,210.0 L 29.0,206.0 L 26.0,202.0 L 31.0,187.0 L 34.0,168.0 Z" fill="#e3c39a" />
  <path d="M 1.0,564.0 L 21.0,564.0 L 31.0,574.0 L 26.0,594.0 L 21.0,603.0 L 21.0,610.0 L 13.0,611.0 L 0.0,609.0 L 0.0,565.0 L 20.0,612.0 L 1.0,564.0 Z" fill="#d9b98c" />
  <path d="M 258.0,379.0 L 254.0,385.0 L 255.0,403.0 L 253.0,419.0 L 261.0,419.0 L 276.0,422.0 L 280.0,421.0 L 288.0,423.0 L 289.0,408.0 L 292.0,398.0 L 293.0,385.0 L 259.0,380.0 Z" fill="#ceb996" />
  <path d="M 511.0,401.0 L 509.0,403.0 L 510.0,404.0 L 508.0,406.0 L 507.0,412.0 L 505.0,413.0 L 502.0,421.0 L 503.0,422.0 L 501.0,424.0 L 501.0,429.0 L 504.0,436.0 L 542.0,443.0 L 545.0,437.0 L 545.0,427.0 L 548.0,409.0 L 547.0,402.0 L 512.0,402.0 L 548.0,402.0 L 511.0,401.0 Z" fill="#dbc9af" />
  <path d="M 161.0,478.0 L 200.0,485.0 L 203.0,493.0 L 194.0,520.0 L 157.0,515.0 L 157.0,500.0 L 160.0,479.0 Z" fill="#857b54" />
  <path d="M 369.0,482.0 L 406.0,485.0 L 411.0,495.0 L 403.0,520.0 L 378.0,521.0 L 364.0,519.0 L 364.0,509.0 L 369.0,483.0 Z" fill="#d9c7aa" />
  <path d="M 289.0,451.0 L 295.0,452.0 L 296.0,454.0 L 301.0,453.0 L 325.0,460.0 L 329.0,477.0 L 326.0,480.0 L 287.0,486.0 L 280.0,462.0 L 288.0,452.0 Z" fill="#887d5b" />
  <path d="M 716.0,566.0 L 719.0,566.0 L 719.0,598.0 L 707.0,597.0 L 694.0,599.0 L 691.0,596.0 L 695.0,569.0 L 715.0,567.0 Z" fill="#f2d3ad" />
  <path d="M 74.0,498.0 L 112.0,504.0 L 116.0,513.0 L 106.0,537.0 L 106.0,541.0 L 67.0,536.0 L 73.0,499.0 Z" fill="#e8caa4" />
  <path d="M 474.0,711.0 L 508.0,714.0 L 506.0,730.0 L 507.0,743.0 L 498.0,753.0 L 489.0,753.0 L 467.0,750.0 L 467.0,742.0 L 472.0,725.0 L 474.0,712.0 Z" fill="#e9ccaa" />
  <path d="M 275.0,224.0 L 313.0,231.0 L 308.0,267.0 L 297.0,265.0 L 291.0,266.0 L 290.0,264.0 L 270.0,262.0 L 265.0,253.0 L 275.0,225.0 Z" fill="#d4bd9a" />
  <path d="M 471.0,344.0 L 509.0,349.0 L 514.0,361.0 L 504.0,386.0 L 466.0,384.0 L 470.0,345.0 Z" fill="#786f44" />
  <path d="M 414.0,131.0 L 451.0,135.0 L 455.0,143.0 L 455.0,148.0 L 446.0,174.0 L 409.0,170.0 L 414.0,132.0 L 408.0,170.0 L 414.0,131.0 Z" fill="#797247" />
  <path d="M 565.0,652.0 L 587.0,655.0 L 601.0,655.0 L 597.0,693.0 L 593.0,695.0 L 558.0,689.0 L 553.0,677.0 L 558.0,664.0 L 561.0,660.0 L 562.0,654.0 L 564.0,653.0 Z" fill="#dfc6a4" />
  <path d="M 250.0,825.0 L 249.0,827.0 L 247.0,826.0 L 238.0,853.0 L 242.0,861.0 L 244.0,863.0 L 281.0,868.0 L 284.0,864.0 L 284.0,851.0 L 287.0,833.0 L 286.0,827.0 L 251.0,827.0 L 250.0,825.0 Z" fill="#edcca9" />
  <path d="M 106.0,191.0 L 108.0,204.0 L 106.0,224.0 L 70.0,223.0 L 64.0,212.0 L 64.0,208.0 L 70.0,194.0 L 105.0,192.0 Z" fill="#e6c8a3" />
  <path d="M 0.0,235.0 L 25.0,239.0 L 31.0,246.0 L 24.0,264.0 L 13.0,281.0 L 7.0,285.0 L 0.0,286.0 L 0.0,236.0 Z" fill="#c09e6d" />
  <path d="M 617.0,222.0 L 642.0,225.0 L 653.0,239.0 L 653.0,246.0 L 650.0,263.0 L 612.0,261.0 L 607.0,252.0 L 607.0,248.0 L 616.0,223.0 L 650.0,264.0 L 617.0,222.0 Z" fill="#eccda5" />
  <path d="M 716.0,244.0 L 719.0,244.0 L 719.0,281.0 L 706.0,280.0 L 702.0,282.0 L 692.0,282.0 L 685.0,271.0 L 693.0,247.0 L 715.0,245.0 Z" fill="#eccea9" />
  <path d="M 87.0,382.0 L 126.0,384.0 L 131.0,395.0 L 129.0,404.0 L 121.0,424.0 L 86.0,419.0 L 84.0,418.0 L 84.0,416.0 L 87.0,383.0 Z" fill="#e2c59c" />
  <path d="M 719.0,449.0 L 708.0,461.0 L 686.0,476.0 L 699.0,490.0 L 710.0,499.0 L 719.0,499.0 L 719.0,451.0 Z" fill="#f4d4af" />
  <path d="M 701.0,174.0 L 719.0,174.0 L 719.0,212.0 L 688.0,209.0 L 685.0,208.0 L 682.0,204.0 L 681.0,202.0 L 700.0,175.0 Z" fill="#eacca7" />
  <path d="M 360.0,612.0 L 386.0,612.0 L 397.0,614.0 L 397.0,628.0 L 394.0,639.0 L 394.0,650.0 L 391.0,653.0 L 357.0,648.0 L 354.0,646.0 L 350.0,638.0 L 360.0,613.0 Z" fill="#d4bfa1" />
  <path d="M 681.0,879.0 L 683.0,879.0 L 693.0,893.0 L 675.0,921.0 L 671.0,924.0 L 660.0,920.0 L 652.0,907.0 L 657.0,885.0 L 680.0,880.0 Z" fill="#f1d1ac" />
  <path d="M 171.0,401.0 L 208.0,407.0 L 212.0,416.0 L 204.0,442.0 L 166.0,439.0 L 171.0,402.0 Z" fill="#c1ab86" />
  <path d="M 436.0,301.0 L 474.0,307.0 L 470.0,344.0 L 437.0,341.0 L 431.0,340.0 L 426.0,330.0 L 436.0,302.0 Z" fill="#7c7850" />
  <path d="M 447.0,224.0 L 484.0,229.0 L 481.0,264.0 L 478.0,267.0 L 476.0,267.0 L 442.0,263.0 L 437.0,251.0 L 447.0,225.0 Z" fill="#dbc29d" />
  <path d="M 111.0,869.0 L 107.0,889.0 L 106.0,907.0 L 144.0,912.0 L 153.0,885.0 L 153.0,882.0 L 148.0,873.0 L 111.0,869.0 Z" fill="#edcda7" />
  <path d="M 532.0,923.0 L 568.0,929.0 L 573.0,940.0 L 563.0,966.0 L 526.0,964.0 L 529.0,930.0 L 531.0,924.0 L 563.0,967.0 L 532.0,923.0 Z" fill="#efcfaa" />
  <path d="M 378.0,404.0 L 413.0,407.0 L 417.0,409.0 L 421.0,417.0 L 421.0,420.0 L 410.0,446.0 L 400.0,446.0 L 394.0,444.0 L 374.0,442.0 L 374.0,424.0 L 378.0,405.0 Z" fill="#807957" />
  <path d="M 423.0,52.0 L 440.0,54.0 L 461.0,59.0 L 465.0,66.0 L 456.0,94.0 L 423.0,90.0 L 420.0,89.0 L 420.0,75.0 L 423.0,53.0 Z" fill="#c2ad89" />
  <path d="M 431.0,341.0 L 469.0,345.0 L 465.0,383.0 L 426.0,378.0 L 421.0,368.0 L 431.0,342.0 L 465.0,384.0 L 431.0,341.0 Z" fill="#837d54" />
  <path d="M 336.0,804.0 L 373.0,810.0 L 368.0,844.0 L 332.0,844.0 L 326.0,831.0 L 335.0,805.0 Z" fill="#ad9f7c" />
  <path d="M 374.0,443.0 L 394.0,445.0 L 400.0,447.0 L 410.0,447.0 L 414.0,455.0 L 413.0,466.0 L 406.0,484.0 L 369.0,481.0 L 368.0,480.0 L 370.0,465.0 L 374.0,444.0 Z" fill="#c2b291" />
  <path d="M 574.0,939.0 L 610.0,945.0 L 608.0,979.0 L 569.0,978.0 L 565.0,971.0 L 564.0,964.0 L 574.0,940.0 Z" fill="#edcda5" />
  <path d="M 692.0,998.0 L 698.0,998.0 L 719.0,1005.0 L 719.0,1030.0 L 688.0,1024.0 L 689.0,1001.0 L 691.0,999.0 Z" fill="#e8c89d" />
  <path d="M 344.0,35.0 L 359.0,38.0 L 378.0,39.0 L 377.0,42.0 L 382.0,51.0 L 382.0,55.0 L 379.0,60.0 L 380.0,61.0 L 378.0,63.0 L 379.0,64.0 L 377.0,66.0 L 374.0,77.0 L 335.0,73.0 L 341.0,37.0 L 343.0,36.0 Z" fill="#79734d" />
  <path d="M 130.0,713.0 L 166.0,716.0 L 170.0,718.0 L 174.0,726.0 L 164.0,754.0 L 162.0,755.0 L 127.0,750.0 L 129.0,714.0 Z" fill="#efcfaa" />
  <path d="M 706.0,817.0 L 719.0,818.0 L 719.0,855.0 L 705.0,853.0 L 689.0,853.0 L 683.0,845.0 L 683.0,843.0 L 689.0,835.0 L 705.0,818.0 Z" fill="#f2d2ad" />
  <path d="M 267.0,669.0 L 306.0,672.0 L 303.0,710.0 L 301.0,712.0 L 296.0,712.0 L 264.0,707.0 L 262.0,705.0 L 258.0,697.0 L 265.0,680.0 L 267.0,671.0 Z" fill="#998960" />
  <path d="M 452.0,866.0 L 491.0,870.0 L 496.0,880.0 L 486.0,909.0 L 449.0,905.0 L 449.0,889.0 L 452.0,867.0 Z" fill="#f0d0ab" />
  <path d="M 650.0,632.0 L 684.0,637.0 L 684.0,673.0 L 646.0,671.0 L 640.0,661.0 L 640.0,657.0 L 650.0,633.0 Z" fill="#f1d2ae" />
  <path d="M 403.0,51.0 L 422.0,52.0 L 419.0,75.0 L 419.0,89.0 L 416.0,92.0 L 411.0,92.0 L 392.0,88.0 L 384.0,88.0 L 380.0,87.0 L 375.0,79.0 L 375.0,75.0 L 383.0,53.0 L 402.0,52.0 Z" fill="#d0bc99" />
  <path d="M 93.0,341.0 L 132.0,348.0 L 136.0,356.0 L 126.0,383.0 L 87.0,381.0 L 92.0,342.0 Z" fill="#e4c7a1" />
  <path d="M 0.0,127.0 L 33.0,129.0 L 32.0,163.0 L 31.0,166.0 L 24.0,166.0 L 0.0,164.0 L 0.0,128.0 Z" fill="#c5a57c" />
  <path d="M 550.0,88.0 L 583.0,89.0 L 589.0,91.0 L 585.0,127.0 L 583.0,129.0 L 575.0,129.0 L 572.0,127.0 L 570.0,128.0 L 566.0,126.0 L 544.0,122.0 L 541.0,113.0 L 550.0,89.0 Z" fill="#d8bf99" />
  <path d="M 243.0,499.0 L 280.0,501.0 L 282.0,502.0 L 283.0,508.0 L 286.0,513.0 L 277.0,539.0 L 239.0,535.0 L 243.0,500.0 Z" fill="#998d63" />
  <path d="M 346.0,726.0 L 383.0,731.0 L 379.0,768.0 L 342.0,764.0 L 341.0,765.0 L 336.0,755.0 L 346.0,727.0 Z" fill="#b6a688" />
  <path d="M 613.0,577.0 L 649.0,584.0 L 654.0,596.0 L 647.0,611.0 L 645.0,620.0 L 607.0,616.0 L 610.0,582.0 L 612.0,578.0 Z" fill="#7b7445" />
  <path d="M 39.0,771.0 L 36.0,786.0 L 35.0,809.0 L 72.0,814.0 L 81.0,789.0 L 81.0,785.0 L 77.0,777.0 L 39.0,771.0 Z" fill="#eacaa2" />
  <path d="M 149.0,41.0 L 154.0,41.0 L 165.0,52.0 L 163.0,73.0 L 159.0,74.0 L 150.0,72.0 L 125.0,72.0 L 120.0,62.0 L 120.0,57.0 L 125.0,45.0 L 138.0,44.0 L 144.0,42.0 L 148.0,42.0 L 166.0,53.0 L 165.0,66.0 L 149.0,41.0 Z" fill="#ddc29f" />
  <path d="M 458.0,827.0 L 497.0,833.0 L 501.0,842.0 L 491.0,869.0 L 453.0,865.0 L 458.0,827.0 Z" fill="#f0d0ab" />
  <path d="M 659.0,920.0 L 644.0,934.0 L 635.0,945.0 L 649.0,963.0 L 652.0,966.0 L 654.0,966.0 L 667.0,961.0 L 670.0,944.0 L 671.0,925.0 L 660.0,921.0 Z" fill="#eccca8" />
  <path d="M 665.0,962.0 L 669.0,962.0 L 689.0,969.0 L 692.0,997.0 L 689.0,1000.0 L 680.0,1000.0 L 661.0,995.0 L 652.0,995.0 L 647.0,983.0 L 649.0,976.0 L 653.0,967.0 L 664.0,963.0 Z" fill="#c8af8f" />
  <path d="M 263.0,708.0 L 300.0,713.0 L 297.0,749.0 L 258.0,747.0 L 253.0,739.0 L 253.0,736.0 L 263.0,709.0 Z" fill="#b0745f" />
  <path d="M 678.0,760.0 L 682.0,762.0 L 695.0,778.0 L 689.0,799.0 L 668.0,804.0 L 655.0,789.0 L 661.0,779.0 L 677.0,761.0 Z" fill="#f3d3ae" />
  <path d="M 509.0,715.0 L 548.0,716.0 L 553.0,727.0 L 551.0,737.0 L 544.0,749.0 L 527.0,745.0 L 509.0,743.0 L 507.0,734.0 L 509.0,716.0 Z" fill="#ebceac" />
  <path d="M 437.0,983.0 L 476.0,987.0 L 482.0,999.0 L 479.0,1009.0 L 468.0,1016.0 L 460.0,1024.0 L 451.0,1023.0 L 434.0,1016.0 L 437.0,984.0 Z" fill="#b49669" />
  <path d="M 304.0,1024.0 L 343.0,1029.0 L 346.0,1032.0 L 351.0,1046.0 L 301.0,1047.0 L 304.0,1025.0 Z" fill="#d5b690" />
  <path d="M 501.0,110.0 L 540.0,115.0 L 544.0,123.0 L 535.0,151.0 L 520.0,152.0 L 496.0,150.0 L 495.0,145.0 L 500.0,111.0 Z" fill="#7e7549" />
  <path d="M 292.0,108.0 L 329.0,112.0 L 326.0,149.0 L 322.0,151.0 L 285.0,145.0 L 281.0,134.0 L 291.0,109.0 Z" fill="#8e8a67" />
  <path d="M 183.0,966.0 L 223.0,969.0 L 227.0,978.0 L 216.0,1008.0 L 184.0,1004.0 L 181.0,1003.0 L 183.0,967.0 Z" fill="#bda483" />
  <path d="M 287.0,514.0 L 306.0,514.0 L 326.0,517.0 L 325.0,532.0 L 321.0,545.0 L 321.0,554.0 L 319.0,556.0 L 315.0,556.0 L 285.0,552.0 L 282.0,550.0 L 277.0,540.0 L 287.0,515.0 Z" fill="#e5c9a4" />
  <path d="M 630.0,786.0 L 621.0,810.0 L 621.0,813.0 L 626.0,824.0 L 638.0,827.0 L 662.0,829.0 L 668.0,805.0 L 654.0,789.0 L 630.0,786.0 Z" fill="#f2d2ad" />
  <path d="M 53.0,338.0 L 91.0,343.0 L 87.0,378.0 L 86.0,381.0 L 81.0,381.0 L 48.0,376.0 L 45.0,364.0 L 53.0,339.0 Z" fill="#eacba5" />
  <path d="M 49.0,695.0 L 84.0,698.0 L 88.0,700.0 L 91.0,707.0 L 90.0,713.0 L 81.0,736.0 L 44.0,732.0 L 43.0,726.0 L 46.0,718.0 L 49.0,696.0 Z" fill="#e6c89f" />
  <path d="M 468.0,752.0 L 498.0,754.0 L 507.0,778.0 L 501.0,794.0 L 464.0,788.0 L 466.0,761.0 L 468.0,753.0 Z" fill="#efd1ad" />
  <path d="M 351.0,688.0 L 389.0,690.0 L 390.0,692.0 L 387.0,707.0 L 386.0,728.0 L 384.0,730.0 L 378.0,730.0 L 347.0,725.0 L 344.0,721.0 L 342.0,714.0 L 351.0,689.0 Z" fill="#c4b79b" />
  <path d="M 214.0,732.0 L 252.0,738.0 L 256.0,746.0 L 246.0,775.0 L 209.0,770.0 L 214.0,733.0 Z" fill="#d4a98f" />
  <path d="M 142.0,320.0 L 162.0,320.0 L 172.0,322.0 L 176.0,321.0 L 180.0,323.0 L 179.0,338.0 L 175.0,349.0 L 174.0,361.0 L 142.0,357.0 L 136.0,355.0 L 132.0,347.0 L 141.0,321.0 Z" fill="#e2c6a1" />
  <path d="M 0.0,165.0 L 23.0,166.0 L 33.0,168.0 L 30.0,187.0 L 26.0,201.0 L 7.0,205.0 L 0.0,204.0 L 0.0,166.0 Z" fill="#ba9a6b" />
  <path d="M 318.0,594.0 L 354.0,597.0 L 359.0,610.0 L 359.0,615.0 L 350.0,637.0 L 315.0,631.0 L 317.0,608.0 L 316.0,596.0 L 318.0,595.0 Z" fill="#bcae92" />
  <path d="M 442.0,0.0 L 478.0,0.0 L 477.0,30.0 L 468.0,36.0 L 445.0,20.0 L 445.0,7.0 L 443.0,1.0 Z" fill="#debf96" />
  <path d="M 21.0,929.0 L 58.0,930.0 L 63.0,939.0 L 63.0,942.0 L 50.0,971.0 L 32.0,967.0 L 28.0,958.0 L 13.0,935.0 L 20.0,930.0 L 50.0,972.0 L 21.0,929.0 Z" fill="#e3c399" />
  <path d="M 227.0,979.0 L 231.0,979.0 L 232.0,981.0 L 242.0,981.0 L 244.0,983.0 L 247.0,982.0 L 250.0,984.0 L 253.0,983.0 L 256.0,985.0 L 258.0,984.0 L 266.0,986.0 L 262.0,1014.0 L 259.0,1018.0 L 258.0,1019.0 L 237.0,1016.0 L 220.0,1013.0 L 217.0,1009.0 L 227.0,980.0 Z" fill="#c0ab92" />
  <path d="M 602.0,656.0 L 639.0,660.0 L 644.0,670.0 L 644.0,674.0 L 635.0,698.0 L 600.0,694.0 L 598.0,693.0 L 598.0,689.0 L 602.0,657.0 Z" fill="#ebceac" />
  <path d="M 242.0,131.0 L 270.0,134.0 L 281.0,137.0 L 285.0,147.0 L 276.0,172.0 L 263.0,173.0 L 237.0,171.0 L 241.0,132.0 Z" fill="#7f7954" />
  <path d="M 399.0,980.0 L 418.0,981.0 L 436.0,984.0 L 433.0,1016.0 L 430.0,1020.0 L 427.0,1022.0 L 417.0,1021.0 L 407.0,1018.0 L 395.0,1012.0 L 391.0,1012.0 L 390.0,1006.0 L 399.0,981.0 L 390.0,1012.0 L 399.0,980.0 Z" fill="#b29874" />
  <path d="M 66.0,260.0 L 56.0,288.0 L 59.0,297.0 L 65.0,299.0 L 97.0,302.0 L 99.0,294.0 L 101.0,266.0 L 74.0,261.0 L 67.0,261.0 Z" fill="#e8caa5" />
  <path d="M 186.0,45.0 L 191.0,45.0 L 208.0,58.0 L 204.0,81.0 L 176.0,73.0 L 164.0,72.0 L 166.0,60.0 L 165.0,53.0 L 173.0,49.0 L 174.0,50.0 L 178.0,47.0 L 179.0,48.0 L 181.0,46.0 L 185.0,46.0 L 166.0,66.0 L 186.0,45.0 Z" fill="#e1c7a5" />
  <path d="M 182.0,1004.0 L 180.0,1019.0 L 174.0,1039.0 L 174.0,1047.0 L 213.0,1047.0 L 215.0,1042.0 L 219.0,1015.0 L 217.0,1010.0 L 182.0,1004.0 Z" fill="#ceb28d" />
  <path d="M 621.0,499.0 L 657.0,503.0 L 661.0,511.0 L 660.0,515.0 L 650.0,525.0 L 639.0,540.0 L 617.0,538.0 L 617.0,530.0 L 621.0,510.0 L 621.0,500.0 Z" fill="#f1d1ac" />
  <path d="M 33.0,36.0 L 37.0,37.0 L 43.0,53.0 L 40.0,61.0 L 24.0,70.0 L 20.0,68.0 L 0.0,65.0 L 0.0,38.0 L 19.0,39.0 L 32.0,37.0 Z" fill="#bd9c71" />
  <path d="M 569.0,979.0 L 608.0,980.0 L 609.0,982.0 L 605.0,1011.0 L 599.0,1018.0 L 597.0,1018.0 L 561.0,1010.0 L 560.0,1008.0 L 569.0,980.0 Z" fill="#ccb28e" />
  <path d="M 392.0,580.0 L 399.0,580.0 L 399.0,602.0 L 397.0,612.0 L 360.0,611.0 L 355.0,596.0 L 361.0,582.0 L 391.0,581.0 L 397.0,613.0 L 392.0,580.0 Z" fill="#c9b391" />
  <path d="M 126.0,751.0 L 164.0,756.0 L 168.0,764.0 L 168.0,767.0 L 159.0,792.0 L 121.0,791.0 L 125.0,752.0 Z" fill="#efcfaa" />
  <path d="M 99.0,305.0 L 136.0,308.0 L 141.0,320.0 L 131.0,347.0 L 96.0,341.0 L 94.0,340.0 L 95.0,323.0 L 97.0,310.0 L 99.0,306.0 Z" fill="#d4bb93" />
  <path d="M 64.0,576.0 L 101.0,580.0 L 107.0,591.0 L 96.0,619.0 L 59.0,615.0 L 61.0,594.0 L 63.0,592.0 L 62.0,590.0 L 64.0,587.0 L 64.0,577.0 Z" fill="#958d70" />
  <path d="M 669.0,841.0 L 682.0,845.0 L 688.0,853.0 L 683.0,877.0 L 680.0,879.0 L 657.0,884.0 L 645.0,867.0 L 650.0,860.0 L 668.0,842.0 Z" fill="#f1d1ab" />
  <path d="M 451.0,500.0 L 488.0,505.0 L 494.0,515.0 L 484.0,543.0 L 447.0,541.0 L 446.0,530.0 L 451.0,501.0 Z" fill="#e9cda9" />
  <path d="M 115.0,148.0 L 152.0,152.0 L 149.0,174.0 L 149.0,188.0 L 144.0,189.0 L 111.0,185.0 L 107.0,166.0 L 115.0,149.0 Z" fill="#e8caa4" />
  <path d="M 301.0,0.0 L 341.0,0.0 L 339.0,31.0 L 300.0,30.0 L 297.0,25.0 L 300.0,1.0 Z" fill="#dec39d" />
  <path d="M 574.0,207.0 L 607.0,212.0 L 612.0,215.0 L 616.0,222.0 L 606.0,250.0 L 568.0,248.0 L 567.0,245.0 L 573.0,208.0 Z" fill="#eccda4" />
  <path d="M 549.0,402.0 L 587.0,408.0 L 592.0,416.0 L 583.0,446.0 L 546.0,441.0 L 545.0,438.0 L 549.0,404.0 Z" fill="#eacda5" />
  <path d="M 362.0,550.0 L 382.0,551.0 L 399.0,554.0 L 403.0,571.0 L 400.0,578.0 L 391.0,580.0 L 361.0,581.0 L 354.0,559.0 L 361.0,551.0 Z" fill="#a48463" />
  <path d="M 618.0,906.0 L 651.0,908.0 L 658.0,919.0 L 635.0,944.0 L 613.0,942.0 L 618.0,907.0 Z" fill="#f0d0a9" />
  <path d="M 689.0,800.0 L 668.0,806.0 L 663.0,830.0 L 669.0,840.0 L 682.0,844.0 L 693.0,829.0 L 705.0,817.0 L 690.0,801.0 Z" fill="#f2d2ad" />
  <path d="M 338.0,398.0 L 377.0,403.0 L 373.0,424.0 L 372.0,439.0 L 336.0,438.0 L 330.0,424.0 L 330.0,420.0 L 338.0,398.0 Z" fill="#c8b99a" />
  <path d="M 364.0,204.0 L 372.0,206.0 L 397.0,206.0 L 403.0,208.0 L 398.0,246.0 L 396.0,248.0 L 359.0,242.0 L 354.0,233.0 L 364.0,204.0 Z" fill="#b8a483" />
  <path d="M 413.0,0.0 L 441.0,0.0 L 444.0,7.0 L 444.0,20.0 L 423.0,31.0 L 411.0,20.0 L 413.0,1.0 Z" fill="#ddc098" />
  <path d="M 404.0,210.0 L 442.0,215.0 L 446.0,222.0 L 446.0,226.0 L 436.0,252.0 L 402.0,247.0 L 399.0,246.0 L 399.0,241.0 L 404.0,211.0 Z" fill="#d1b694" />
  <path d="M 487.0,227.0 L 524.0,232.0 L 529.0,243.0 L 519.0,269.0 L 514.0,270.0 L 482.0,264.0 L 486.0,228.0 Z" fill="#e5c8a3" />
  <path d="M 559.0,324.0 L 585.0,326.0 L 592.0,328.0 L 596.0,327.0 L 598.0,333.0 L 602.0,338.0 L 602.0,342.0 L 593.0,367.0 L 556.0,362.0 L 559.0,325.0 Z" fill="#80764a" />
  <path d="M 590.0,91.0 L 627.0,94.0 L 631.0,105.0 L 622.0,131.0 L 615.0,132.0 L 586.0,127.0 L 589.0,92.0 Z" fill="#eccca7" />
  <path d="M 228.0,249.0 L 250.0,251.0 L 254.0,253.0 L 259.0,252.0 L 266.0,255.0 L 269.0,261.0 L 269.0,265.0 L 260.0,290.0 L 254.0,291.0 L 223.0,287.0 L 223.0,274.0 L 227.0,250.0 Z" fill="#6a653f" />
  <path d="M 78.0,461.0 L 91.0,461.0 L 116.0,464.0 L 120.0,473.0 L 119.0,481.0 L 111.0,502.0 L 75.0,497.0 L 76.0,477.0 L 78.0,475.0 L 79.0,468.0 L 78.0,462.0 Z" fill="#b1a37d" />
  <path d="M 190.0,610.0 L 228.0,616.0 L 223.0,653.0 L 193.0,650.0 L 186.0,649.0 L 181.0,639.0 L 182.0,632.0 L 190.0,611.0 Z" fill="#65603e" />
  <path d="M 53.0,1016.0 L 76.0,1024.0 L 85.0,1024.0 L 87.0,1047.0 L 42.0,1047.0 L 53.0,1016.0 Z" fill="#c3a47c" />
  <path d="M 199.0,0.0 L 242.0,0.0 L 220.0,25.0 L 214.0,23.0 L 197.0,11.0 L 199.0,1.0 L 220.0,26.0 L 199.0,0.0 Z" fill="#debf93" />
  <path d="M 442.0,577.0 L 478.0,584.0 L 480.0,586.0 L 483.0,595.0 L 474.0,617.0 L 466.0,617.0 L 459.0,619.0 L 436.0,618.0 L 436.0,602.0 L 441.0,578.0 Z" fill="#726a43" />
  <path d="M 165.0,806.0 L 202.0,809.0 L 202.0,817.0 L 199.0,832.0 L 199.0,844.0 L 198.0,848.0 L 195.0,849.0 L 159.0,843.0 L 154.0,834.0 L 165.0,807.0 Z" fill="#f0d0ab" />
  <path d="M 617.0,539.0 L 639.0,541.0 L 655.0,559.0 L 655.0,564.0 L 651.0,572.0 L 649.0,581.0 L 644.0,582.0 L 613.0,576.0 L 616.0,540.0 Z" fill="#aa9c75" />
  <path d="M 194.0,887.0 L 232.0,891.0 L 237.0,902.0 L 237.0,905.0 L 227.0,929.0 L 190.0,925.0 L 193.0,888.0 Z" fill="#eecea9" />
  <path d="M 269.0,984.0 L 278.0,986.0 L 304.0,986.0 L 305.0,988.0 L 307.0,988.0 L 309.0,996.0 L 302.0,1019.0 L 263.0,1014.0 L 266.0,990.0 L 268.0,985.0 L 301.0,987.0 L 299.0,988.0 L 269.0,984.0 Z" fill="#b7a284" />
  <path d="M 270.0,263.0 L 290.0,265.0 L 291.0,267.0 L 297.0,266.0 L 308.0,268.0 L 305.0,302.0 L 304.0,306.0 L 299.0,306.0 L 291.0,304.0 L 265.0,302.0 L 260.0,291.0 L 270.0,264.0 Z" fill="#6c6541" />
  <path d="M 481.0,265.0 L 518.0,271.0 L 523.0,283.0 L 514.0,307.0 L 476.0,305.0 L 478.0,273.0 L 480.0,266.0 Z" fill="#878055" />
  <path d="M 612.0,812.0 L 620.0,812.0 L 626.0,825.0 L 617.0,846.0 L 599.0,842.0 L 581.0,841.0 L 580.0,826.0 L 582.0,813.0 L 611.0,813.0 Z" fill="#f1d1ab" />
  <path d="M 30.0,207.0 L 61.0,210.0 L 63.0,211.0 L 69.0,223.0 L 66.0,234.0 L 59.0,250.0 L 32.0,246.0 L 26.0,239.0 L 30.0,208.0 Z" fill="#e0c197" />
  <path d="M 349.0,1004.0 L 362.0,1006.0 L 368.0,1005.0 L 368.0,1007.0 L 372.0,1006.0 L 373.0,1008.0 L 383.0,1010.0 L 387.0,1009.0 L 390.0,1011.0 L 383.0,1047.0 L 352.0,1047.0 L 346.0,1031.0 L 349.0,1005.0 Z" fill="#d4bc9e" />
  <path d="M 278.0,591.0 L 316.0,595.0 L 314.0,631.0 L 309.0,635.0 L 273.0,629.0 L 268.0,619.0 L 275.0,603.0 L 278.0,592.0 Z" fill="#6e663d" />
  <path d="M 361.0,926.0 L 355.0,960.0 L 356.0,966.0 L 393.0,968.0 L 399.0,951.0 L 401.0,944.0 L 399.0,933.0 L 368.0,927.0 L 363.0,927.0 L 393.0,969.0 L 361.0,926.0 Z" fill="#ceb690" />
  <path d="M 149.0,922.0 L 187.0,927.0 L 183.0,965.0 L 175.0,965.0 L 144.0,960.0 L 140.0,950.0 L 149.0,923.0 Z" fill="#e6c8a0" />
  <path d="M 398.0,247.0 L 434.0,252.0 L 437.0,254.0 L 441.0,264.0 L 432.0,287.0 L 426.0,288.0 L 393.0,286.0 L 397.0,248.0 Z" fill="#dec49f" />
  <path d="M 554.0,730.0 L 591.0,734.0 L 587.0,771.0 L 554.0,769.0 L 548.0,767.0 L 545.0,752.0 L 545.0,749.0 L 554.0,731.0 Z" fill="#f1d2ae" />
  <path d="M 646.0,304.0 L 675.0,307.0 L 680.0,309.0 L 687.0,321.0 L 677.0,346.0 L 645.0,343.0 L 641.0,341.0 L 643.0,331.0 L 643.0,311.0 L 645.0,305.0 Z" fill="#edcfab" />
  <path d="M 1.0,936.0 L 13.0,937.0 L 27.0,958.0 L 31.0,968.0 L 0.0,985.0 L 0.0,937.0 L 0.0,986.0 L 1.0,936.0 Z" fill="#d5b686" />
  <path d="M 637.0,65.0 L 673.0,71.0 L 672.0,98.0 L 670.0,108.0 L 638.0,105.0 L 631.0,102.0 L 627.0,93.0 L 637.0,66.0 Z" fill="#eecea9" />
  <path d="M 676.0,117.0 L 659.0,135.0 L 651.0,146.0 L 657.0,155.0 L 665.0,163.0 L 687.0,158.0 L 688.0,150.0 L 692.0,139.0 L 692.0,134.0 L 680.0,119.0 L 677.0,118.0 Z" fill="#eecea9" />
  <path d="M 320.0,189.0 L 355.0,194.0 L 360.0,197.0 L 363.0,203.0 L 353.0,233.0 L 316.0,228.0 L 320.0,190.0 Z" fill="#cfba96" />
  <path d="M 141.0,0.0 L 150.0,0.0 L 158.0,17.0 L 158.0,23.0 L 153.0,40.0 L 125.0,44.0 L 120.0,32.0 L 132.0,11.0 L 140.0,1.0 Z" fill="#dec099" />
  <path d="M 597.0,694.0 L 635.0,699.0 L 639.0,707.0 L 639.0,711.0 L 630.0,736.0 L 592.0,733.0 L 596.0,695.0 Z" fill="#f1d1ae" />
  <path d="M 445.0,708.0 L 473.0,710.0 L 471.0,725.0 L 466.0,742.0 L 466.0,749.0 L 436.0,746.0 L 430.0,745.0 L 428.0,743.0 L 424.0,733.0 L 433.0,710.0 L 444.0,709.0 Z" fill="#e5c8a5" />
  <path d="M 0.0,767.0 L 38.0,771.0 L 35.0,786.0 L 34.0,807.0 L 10.0,807.0 L 0.0,806.0 L 0.0,768.0 L 34.0,808.0 L 0.0,767.0 Z" fill="#ccaa7e" />
  <path d="M 492.0,920.0 L 529.0,925.0 L 525.0,963.0 L 520.0,963.0 L 489.0,958.0 L 485.0,956.0 L 482.0,950.0 L 492.0,921.0 Z" fill="#eccda9" />
  <path d="M 214.0,357.0 L 236.0,358.0 L 254.0,362.0 L 257.0,376.0 L 256.0,381.0 L 254.0,384.0 L 248.0,385.0 L 215.0,387.0 L 207.0,366.0 L 213.0,358.0 L 215.0,388.0 L 214.0,357.0 Z" fill="#e7c9a4" />
  <path d="M 124.0,73.0 L 150.0,73.0 L 161.0,75.0 L 160.0,110.0 L 156.0,114.0 L 152.0,114.0 L 119.0,108.0 L 114.0,98.0 L 124.0,74.0 Z" fill="#c9b28a" />
  <path d="M 412.0,496.0 L 450.0,501.0 L 445.0,530.0 L 445.0,538.0 L 440.0,538.0 L 439.0,536.0 L 409.0,534.0 L 404.0,522.0 L 404.0,518.0 L 411.0,498.0 L 439.0,538.0 L 412.0,496.0 Z" fill="#d0bc9f" />
  <path d="M 203.0,811.0 L 240.0,814.0 L 246.0,822.0 L 246.0,829.0 L 238.0,852.0 L 203.0,848.0 L 199.0,847.0 L 203.0,812.0 Z" fill="#edcdae" />
  <path d="M 479.0,0.0 L 517.0,0.0 L 508.0,12.0 L 499.0,34.0 L 478.0,29.0 L 479.0,1.0 Z" fill="#e1c198" />
  <path d="M 252.0,55.0 L 292.0,60.0 L 296.0,67.0 L 286.0,96.0 L 251.0,91.0 L 247.0,90.0 L 247.0,85.0 L 249.0,83.0 L 248.0,76.0 L 250.0,74.0 L 249.0,70.0 L 252.0,56.0 Z" fill="#b0a481" />
  <path d="M 92.0,708.0 L 128.0,714.0 L 127.0,741.0 L 125.0,751.0 L 92.0,748.0 L 87.0,747.0 L 82.0,738.0 L 84.0,729.0 L 92.0,709.0 Z" fill="#eecea8" />
  <path d="M 479.0,1010.0 L 468.0,1017.0 L 461.0,1024.0 L 463.0,1034.0 L 461.0,1047.0 L 495.0,1047.0 L 480.0,1011.0 Z" fill="#dbb990" />
  <path d="M 126.0,435.0 L 164.0,440.0 L 161.0,476.0 L 160.0,478.0 L 156.0,478.0 L 121.0,474.0 L 117.0,465.0 L 117.0,459.0 L 126.0,436.0 Z" fill="#776f49" />
  <path d="M 336.0,439.0 L 373.0,441.0 L 368.0,479.0 L 361.0,480.0 L 330.0,476.0 L 326.0,460.0 L 336.0,440.0 Z" fill="#c3b08c" />
  <path d="M 613.0,263.0 L 633.0,263.0 L 651.0,265.0 L 646.0,303.0 L 644.0,305.0 L 641.0,305.0 L 607.0,298.0 L 604.0,292.0 L 604.0,288.0 L 613.0,264.0 Z" fill="#edcda5" />
  <path d="M 159.0,19.0 L 189.0,19.0 L 189.0,44.0 L 181.0,45.0 L 179.0,47.0 L 178.0,46.0 L 167.0,52.0 L 154.0,40.0 L 159.0,20.0 Z" fill="#e3c49d" />
  <path d="M 393.0,287.0 L 431.0,289.0 L 435.0,298.0 L 435.0,304.0 L 425.0,329.0 L 393.0,324.0 L 390.0,323.0 L 393.0,288.0 Z" fill="#ccb898" />
  <path d="M 0.0,362.0 L 0.0,401.0 L 37.0,404.0 L 48.0,377.0 L 44.0,367.0 L 0.0,362.0 Z" fill="#debd91" />
  <path d="M 283.0,552.0 L 273.0,577.0 L 277.0,589.0 L 281.0,591.0 L 317.0,594.0 L 318.0,557.0 L 314.0,556.0 L 285.0,553.0 L 317.0,595.0 L 283.0,552.0 Z" fill="#cdbca0" />
  <path d="M 688.0,321.0 L 719.0,322.0 L 719.0,360.0 L 701.0,358.0 L 684.0,359.0 L 678.0,348.0 L 678.0,344.0 L 687.0,322.0 Z" fill="#f0d1ad" />
  <path d="M 684.0,159.0 L 687.0,159.0 L 700.0,174.0 L 682.0,200.0 L 678.0,201.0 L 665.0,197.0 L 662.0,194.0 L 659.0,187.0 L 665.0,164.0 L 683.0,160.0 Z" fill="#eccea9" />
  <path d="M 286.0,147.0 L 324.0,152.0 L 320.0,188.0 L 290.0,185.0 L 282.0,186.0 L 276.0,173.0 L 285.0,148.0 Z" fill="#988e6c" />
  <path d="M 156.0,516.0 L 189.0,520.0 L 195.0,523.0 L 199.0,532.0 L 189.0,557.0 L 162.0,557.0 L 150.0,555.0 L 153.0,519.0 L 155.0,517.0 Z" fill="#c9b48d" />
  <path d="M 688.0,1025.0 L 684.0,1029.0 L 686.0,1047.0 L 719.0,1047.0 L 719.0,1031.0 L 689.0,1026.0 Z" fill="#debe8f" />
  <path d="M 478.0,30.0 L 497.0,34.0 L 507.0,44.0 L 505.0,69.0 L 498.0,70.0 L 465.0,65.0 L 462.0,57.0 L 467.0,39.0 L 470.0,35.0 L 477.0,31.0 Z" fill="#e4c6a1" />
  <path d="M 707.0,598.0 L 719.0,599.0 L 719.0,638.0 L 686.0,636.0 L 687.0,625.0 L 695.0,600.0 L 706.0,599.0 Z" fill="#f3d3ae" />
  <path d="M 220.0,1014.0 L 257.0,1019.0 L 258.0,1034.0 L 262.0,1046.0 L 214.0,1047.0 L 216.0,1042.0 L 220.0,1015.0 Z" fill="#dcbd91" />
  <path d="M 515.0,360.0 L 505.0,384.0 L 505.0,388.0 L 510.0,399.0 L 512.0,401.0 L 549.0,401.0 L 552.0,365.0 L 524.0,361.0 L 517.0,361.0 L 548.0,403.0 L 515.0,360.0 Z" fill="#766d44" />
  <path d="M 508.0,743.0 L 499.0,753.0 L 507.0,777.0 L 508.0,778.0 L 539.0,772.0 L 547.0,770.0 L 548.0,768.0 L 544.0,750.0 L 527.0,746.0 L 509.0,744.0 Z" fill="#eed0af" />
  <path d="M 483.0,1001.0 L 522.0,1002.0 L 522.0,1007.0 L 516.0,1031.0 L 515.0,1047.0 L 496.0,1047.0 L 490.0,1035.0 L 487.0,1023.0 L 480.0,1010.0 L 483.0,1002.0 Z" fill="#c8a882" />
  <path d="M 518.0,637.0 L 556.0,640.0 L 562.0,651.0 L 560.0,660.0 L 557.0,664.0 L 552.0,678.0 L 528.0,676.0 L 521.0,674.0 L 515.0,675.0 L 515.0,661.0 L 518.0,638.0 Z" fill="#958a61" />
  <path d="M 210.0,454.0 L 240.0,457.0 L 247.0,459.0 L 242.0,496.0 L 206.0,492.0 L 203.0,490.0 L 200.0,484.0 L 209.0,455.0 Z" fill="#6c6944" />
  <path d="M 12.0,283.0 L 36.0,288.0 L 50.0,288.0 L 56.0,290.0 L 59.0,299.0 L 47.0,326.0 L 45.0,327.0 L 33.0,325.0 L 30.0,323.0 L 24.0,312.0 L 5.0,288.0 L 5.0,286.0 L 11.0,284.0 Z" fill="#e6c79f" />
  <path d="M 122.0,792.0 L 159.0,793.0 L 164.0,804.0 L 164.0,807.0 L 154.0,833.0 L 118.0,827.0 L 120.0,816.0 L 121.0,793.0 Z" fill="#efcfa9" />
  <path d="M 568.0,249.0 L 606.0,251.0 L 612.0,262.0 L 603.0,290.0 L 565.0,284.0 L 568.0,250.0 Z" fill="#edcda4" />
  <path d="M 73.0,863.0 L 110.0,870.0 L 106.0,889.0 L 105.0,906.0 L 71.0,903.0 L 68.0,902.0 L 62.0,891.0 L 73.0,864.0 Z" fill="#ebcba4" />
  <path d="M 68.0,163.0 L 93.0,164.0 L 105.0,166.0 L 107.0,168.0 L 110.0,182.0 L 110.0,187.0 L 108.0,190.0 L 105.0,191.0 L 70.0,193.0 L 63.0,173.0 L 64.0,168.0 L 68.0,164.0 Z" fill="#e8caa5" />
  <path d="M 505.0,437.0 L 494.0,463.0 L 500.0,477.0 L 537.0,479.0 L 538.0,476.0 L 541.0,456.0 L 541.0,444.0 L 510.0,438.0 L 506.0,438.0 L 537.0,480.0 L 505.0,437.0 Z" fill="#e5caa3" />
  <path d="M 248.0,460.0 L 279.0,463.0 L 286.0,484.0 L 286.0,489.0 L 281.0,501.0 L 269.0,499.0 L 243.0,498.0 L 248.0,461.0 Z" fill="#6a6540" />
  <path d="M 369.0,165.0 L 407.0,171.0 L 406.0,186.0 L 404.0,190.0 L 402.0,206.0 L 379.0,204.0 L 372.0,205.0 L 365.0,204.0 L 359.0,195.0 L 360.0,189.0 L 369.0,166.0 Z" fill="#c2b085" />
  <path d="M 70.0,224.0 L 107.0,225.0 L 102.0,265.0 L 65.0,259.0 L 60.0,250.0 L 70.0,225.0 Z" fill="#e8caa5" />
  <path d="M 220.0,693.0 L 258.0,698.0 L 263.0,707.0 L 252.0,737.0 L 215.0,731.0 L 219.0,694.0 Z" fill="#aa9672" />
  <path d="M 203.0,128.0 L 240.0,133.0 L 236.0,170.0 L 231.0,170.0 L 198.0,165.0 L 193.0,153.0 L 203.0,129.0 Z" fill="#94875d" />
  <path d="M 0.0,690.0 L 44.0,692.0 L 48.0,694.0 L 42.0,730.0 L 33.0,730.0 L 0.0,727.0 L 0.0,691.0 Z" fill="#d5b78d" />
  <path d="M 475.0,673.0 L 514.0,675.0 L 513.0,687.0 L 508.0,706.0 L 508.0,713.0 L 499.0,713.0 L 474.0,710.0 L 475.0,674.0 Z" fill="#b5a885" />
  <path d="M 44.0,733.0 L 81.0,737.0 L 86.0,746.0 L 76.0,776.0 L 41.0,771.0 L 39.0,769.0 L 41.0,746.0 L 44.0,734.0 Z" fill="#e8caa2" />
  <path d="M 593.0,418.0 L 626.0,419.0 L 631.0,421.0 L 628.0,455.0 L 627.0,458.0 L 624.0,461.0 L 622.0,461.0 L 587.0,454.0 L 583.0,447.0 L 593.0,419.0 Z" fill="#efd0a9" />
  <path d="M 685.0,637.0 L 719.0,639.0 L 719.0,677.0 L 716.0,677.0 L 685.0,673.0 L 685.0,638.0 Z" fill="#f5d5b0" />
  <path d="M 189.0,926.0 L 227.0,930.0 L 233.0,942.0 L 223.0,968.0 L 184.0,965.0 L 188.0,927.0 Z" fill="#e9c9a3" />
  <path d="M 409.0,535.0 L 439.0,537.0 L 439.0,539.0 L 445.0,539.0 L 447.0,542.0 L 445.0,547.0 L 442.0,575.0 L 440.0,578.0 L 404.0,573.0 L 400.0,554.0 L 409.0,536.0 Z" fill="#9a694a" />
  <path d="M 506.0,805.0 L 528.0,805.0 L 546.0,808.0 L 538.0,846.0 L 501.0,840.0 L 497.0,832.0 L 506.0,806.0 Z" fill="#efcfa8" />
  <path d="M 518.0,0.0 L 530.0,0.0 L 534.0,10.0 L 531.0,23.0 L 530.0,41.0 L 508.0,44.0 L 500.0,35.0 L 507.0,16.0 L 517.0,1.0 Z" fill="#e3c49a" />
  <path d="M 502.0,842.0 L 539.0,847.0 L 535.0,884.0 L 497.0,881.0 L 492.0,872.0 L 492.0,868.0 L 501.0,843.0 Z" fill="#efcfa9" />
  <path d="M 0.0,0.0 L 45.0,0.0 L 47.0,9.0 L 45.0,18.0 L 36.0,36.0 L 33.0,35.0 L 19.0,38.0 L 1.0,38.0 L 0.0,1.0 Z" fill="#ac8f68" />
  <path d="M 148.0,594.0 L 185.0,600.0 L 189.0,608.0 L 189.0,611.0 L 180.0,637.0 L 141.0,635.0 L 144.0,612.0 L 144.0,598.0 L 147.0,595.0 L 180.0,638.0 L 148.0,594.0 Z" fill="#605d3d" />
  <path d="M 661.0,514.0 L 680.0,522.0 L 686.0,533.0 L 678.0,555.0 L 656.0,560.0 L 640.0,540.0 L 651.0,525.0 L 661.0,515.0 Z" fill="#f3d4af" />
  <path d="M 379.0,88.0 L 415.0,93.0 L 412.0,128.0 L 382.0,128.0 L 375.0,127.0 L 370.0,118.0 L 371.0,110.0 L 379.0,89.0 Z" fill="#888158" />
  <path d="M 671.0,474.0 L 686.0,477.0 L 709.0,500.0 L 682.0,523.0 L 677.0,519.0 L 662.0,513.0 L 658.0,502.0 L 670.0,475.0 Z" fill="#f4d4af" />
  <path d="M 640.0,709.0 L 676.0,714.0 L 675.0,741.0 L 673.0,751.0 L 651.0,749.0 L 635.0,746.0 L 631.0,737.0 L 640.0,710.0 Z" fill="#f3d3ae" />
  <path d="M 538.0,481.0 L 577.0,485.0 L 582.0,495.0 L 581.0,501.0 L 572.0,522.0 L 539.0,519.0 L 536.0,518.0 L 538.0,482.0 Z" fill="#efd0a9" />
  <path d="M 330.0,477.0 L 368.0,481.0 L 363.0,509.0 L 363.0,519.0 L 338.0,518.0 L 326.0,516.0 L 328.0,505.0 L 329.0,478.0 Z" fill="#a29771" />
  <path d="M 719.0,919.0 L 711.0,924.0 L 705.0,930.0 L 696.0,934.0 L 701.0,962.0 L 719.0,963.0 L 719.0,921.0 Z" fill="#f0d0aa" />
  <path d="M 151.0,557.0 L 189.0,558.0 L 196.0,571.0 L 185.0,599.0 L 149.0,593.0 L 151.0,558.0 Z" fill="#777550" />
  <path d="M 0.0,402.0 L 0.0,442.0 L 17.0,444.0 L 34.0,443.0 L 44.0,417.0 L 38.0,405.0 L 0.0,402.0 Z" fill="#d4b485" />
  <path d="M 265.0,303.0 L 304.0,307.0 L 299.0,344.0 L 267.0,342.0 L 262.0,341.0 L 257.0,329.0 L 265.0,304.0 Z" fill="#7f774c" />
  <path d="M 616.0,869.0 L 619.0,869.0 L 619.0,895.0 L 617.0,905.0 L 603.0,902.0 L 580.0,902.0 L 575.0,890.0 L 575.0,885.0 L 580.0,875.0 L 615.0,870.0 Z" fill="#efcfa8" />
  <path d="M 181.0,323.0 L 203.0,324.0 L 216.0,327.0 L 213.0,345.0 L 213.0,357.0 L 206.0,365.0 L 179.0,363.0 L 175.0,362.0 L 175.0,356.0 L 180.0,338.0 L 181.0,324.0 Z" fill="#dfc39b" />
  <path d="M 227.0,417.0 L 252.0,419.0 L 251.0,434.0 L 247.0,446.0 L 246.0,457.0 L 214.0,454.0 L 210.0,453.0 L 207.0,449.0 L 204.0,443.0 L 213.0,418.0 L 226.0,418.0 Z" fill="#7b7856" />
  <path d="M 296.0,383.0 L 333.0,389.0 L 337.0,399.0 L 329.0,422.0 L 316.0,424.0 L 289.0,423.0 L 290.0,408.0 L 295.0,384.0 Z" fill="#cbb793" />
  <path d="M 327.0,883.0 L 364.0,888.0 L 362.0,913.0 L 360.0,919.0 L 361.0,923.0 L 360.0,925.0 L 347.0,924.0 L 321.0,920.0 L 317.0,908.0 L 327.0,884.0 Z" fill="#b7a880" />
  <path d="M 433.0,1017.0 L 451.0,1024.0 L 460.0,1025.0 L 462.0,1034.0 L 460.0,1047.0 L 429.0,1047.0 L 428.0,1022.0 L 432.0,1018.0 Z" fill="#d5b692" />
  <path d="M 197.0,12.0 L 190.0,19.0 L 190.0,44.0 L 209.0,58.0 L 225.0,48.0 L 220.0,27.0 L 198.0,13.0 Z" fill="#e5c59e" />
  <path d="M 307.0,674.0 L 330.0,676.0 L 345.0,675.0 L 350.0,686.0 L 350.0,691.0 L 341.0,715.0 L 304.0,710.0 L 307.0,675.0 Z" fill="#b4a180" />
  <path d="M 342.0,0.0 L 373.0,0.0 L 380.0,31.0 L 378.0,36.0 L 373.0,38.0 L 341.0,34.0 L 340.0,28.0 L 342.0,1.0 L 377.0,38.0 L 342.0,0.0 Z" fill="#dbc19a" />
  <path d="M 611.0,340.0 L 641.0,342.0 L 637.0,381.0 L 634.0,383.0 L 598.0,376.0 L 594.0,368.0 L 598.0,354.0 L 603.0,341.0 L 610.0,341.0 Z" fill="#bcb08d" />
  <path d="M 394.0,652.0 L 426.0,656.0 L 432.0,680.0 L 428.0,693.0 L 390.0,691.0 L 391.0,662.0 L 393.0,653.0 Z" fill="#b9af93" />
  <path d="M 540.0,847.0 L 573.0,851.0 L 579.0,874.0 L 574.0,887.0 L 536.0,886.0 L 540.0,849.0 Z" fill="#f0d0a9" />
  <path d="M 0.0,887.0 L 0.0,935.0 L 12.0,935.0 L 21.0,928.0 L 25.0,902.0 L 25.0,891.0 L 2.0,888.0 L 0.0,936.0 L 0.0,887.0 Z" fill="#ddbd8f" />
  <path d="M 100.0,0.0 L 140.0,0.0 L 133.0,8.0 L 120.0,30.0 L 117.0,30.0 L 95.0,20.0 L 95.0,16.0 L 100.0,1.0 Z" fill="#d7b88d" />
  <path d="M 349.0,321.0 L 340.0,350.0 L 344.0,358.0 L 381.0,364.0 L 384.0,339.0 L 386.0,335.0 L 386.0,326.0 L 349.0,321.0 Z" fill="#a89c7c" />
  <path d="M 284.0,866.0 L 318.0,871.0 L 322.0,873.0 L 326.0,881.0 L 326.0,884.0 L 316.0,909.0 L 305.0,909.0 L 278.0,905.0 L 280.0,874.0 L 281.0,869.0 L 283.0,867.0 Z" fill="#edceab" />
  <path d="M 562.0,1012.0 L 599.0,1019.0 L 600.0,1035.0 L 605.0,1046.0 L 557.0,1047.0 L 562.0,1013.0 Z" fill="#debf96" />
  <path d="M 310.0,994.0 L 335.0,1002.0 L 348.0,1004.0 L 347.0,1021.0 L 345.0,1029.0 L 332.0,1026.0 L 308.0,1024.0 L 303.0,1022.0 L 303.0,1018.0 L 310.0,995.0 Z" fill="#bba389" />
  <path d="M 390.0,324.0 L 422.0,329.0 L 426.0,331.0 L 430.0,339.0 L 430.0,342.0 L 421.0,367.0 L 412.0,368.0 L 382.0,364.0 L 385.0,339.0 L 387.0,335.0 L 387.0,326.0 L 389.0,325.0 Z" fill="#baab87" />
  <path d="M 164.0,73.0 L 176.0,74.0 L 204.0,82.0 L 207.0,90.0 L 197.0,114.0 L 161.0,110.0 L 161.0,88.0 L 163.0,74.0 Z" fill="#beab81" />
  <path d="M 679.0,712.0 L 677.0,714.0 L 676.0,721.0 L 676.0,741.0 L 674.0,749.0 L 674.0,752.0 L 677.0,757.0 L 679.0,759.0 L 682.0,759.0 L 704.0,748.0 L 719.0,736.0 L 719.0,719.0 L 680.0,713.0 Z" fill="#f5d5b0" />
  <path d="M 297.0,750.0 L 320.0,754.0 L 321.0,753.0 L 323.0,755.0 L 324.0,754.0 L 328.0,756.0 L 331.0,755.0 L 331.0,757.0 L 329.0,757.0 L 335.0,756.0 L 340.0,765.0 L 330.0,793.0 L 327.0,794.0 L 325.0,792.0 L 293.0,789.0 L 297.0,751.0 Z" fill="#ac7363" />
  <path d="M 121.0,475.0 L 159.0,479.0 L 156.0,500.0 L 156.0,515.0 L 152.0,518.0 L 120.0,513.0 L 116.0,511.0 L 112.0,502.0 L 121.0,476.0 Z" fill="#9b9165" />
  <path d="M 181.0,286.0 L 162.0,290.0 L 142.0,292.0 L 137.0,305.0 L 137.0,310.0 L 141.0,319.0 L 162.0,319.0 L 172.0,321.0 L 176.0,320.0 L 178.0,322.0 L 181.0,322.0 L 181.0,288.0 Z" fill="#908757" />
  <path d="M 31.0,325.0 L 47.0,328.0 L 52.0,337.0 L 44.0,366.0 L 0.0,361.0 L 0.0,342.0 L 30.0,326.0 Z" fill="#e2c297" />
  <path d="M 585.0,128.0 L 622.0,134.0 L 627.0,142.0 L 627.0,145.0 L 618.0,165.0 L 617.0,171.0 L 613.0,172.0 L 579.0,167.0 L 580.0,150.0 L 582.0,143.0 L 581.0,141.0 L 583.0,136.0 L 582.0,133.0 L 584.0,129.0 Z" fill="#d5bf97" />
  <path d="M 199.0,848.0 L 238.0,854.0 L 242.0,862.0 L 242.0,865.0 L 232.0,890.0 L 193.0,886.0 L 195.0,863.0 L 198.0,849.0 Z" fill="#eecfa9" />
  <path d="M 685.0,674.0 L 719.0,678.0 L 719.0,718.0 L 679.0,711.0 L 680.0,701.0 L 683.0,692.0 L 684.0,675.0 Z" fill="#f5d5b0" />
  <path d="M 22.0,651.0 L 31.0,652.0 L 50.0,660.0 L 50.0,671.0 L 47.0,692.0 L 0.0,689.0 L 0.0,659.0 L 21.0,652.0 Z" fill="#d8b98d" />
  <path d="M 544.0,124.0 L 566.0,127.0 L 570.0,129.0 L 572.0,128.0 L 575.0,130.0 L 582.0,130.0 L 578.0,166.0 L 544.0,164.0 L 539.0,163.0 L 535.0,153.0 L 544.0,125.0 Z" fill="#958a5c" />
  <path d="M 354.0,283.0 L 392.0,288.0 L 389.0,324.0 L 379.0,325.0 L 351.0,321.0 L 348.0,319.0 L 344.0,311.0 L 354.0,284.0 Z" fill="#cbb794" />
  <path d="M 466.0,67.0 L 476.0,67.0 L 505.0,72.0 L 501.0,109.0 L 499.0,111.0 L 461.0,103.0 L 457.0,94.0 L 466.0,68.0 Z" fill="#d0bc9e" />
  <path d="M 69.0,903.0 L 106.0,908.0 L 99.0,946.0 L 64.0,940.0 L 59.0,931.0 L 59.0,928.0 L 68.0,904.0 Z" fill="#e6c7a0" />
  <path d="M 64.0,941.0 L 97.0,946.0 L 100.0,948.0 L 96.0,971.0 L 96.0,979.0 L 94.0,985.0 L 61.0,981.0 L 55.0,980.0 L 51.0,971.0 L 64.0,942.0 Z" fill="#e2c39a" />
  <path d="M 580.0,842.0 L 599.0,843.0 L 617.0,847.0 L 622.0,864.0 L 619.0,868.0 L 615.0,869.0 L 580.0,874.0 L 574.0,854.0 L 574.0,850.0 L 580.0,843.0 Z" fill="#f1d1aa" />
  <path d="M 192.0,205.0 L 229.0,211.0 L 225.0,247.0 L 196.0,246.0 L 190.0,245.0 L 183.0,229.0 L 192.0,206.0 Z" fill="#e6c9a2" />
  <path d="M 249.0,385.0 L 253.0,385.0 L 254.0,392.0 L 252.0,418.0 L 236.0,416.0 L 213.0,417.0 L 209.0,408.0 L 213.0,393.0 L 216.0,388.0 L 248.0,386.0 Z" fill="#e5c9a4" />
  <path d="M 453.0,186.0 L 489.0,190.0 L 486.0,227.0 L 480.0,228.0 L 447.0,223.0 L 443.0,215.0 L 443.0,212.0 L 452.0,187.0 Z" fill="#cbb58d" />
  <path d="M 356.0,967.0 L 392.0,969.0 L 394.0,971.0 L 399.0,979.0 L 389.0,1009.0 L 373.0,1007.0 L 372.0,1005.0 L 369.0,1006.0 L 368.0,1004.0 L 362.0,1005.0 L 350.0,1003.0 L 356.0,968.0 L 368.0,1006.0 L 356.0,967.0 Z" fill="#b39667" />
  <path d="M 655.0,595.0 L 690.0,596.0 L 694.0,600.0 L 686.0,625.0 L 685.0,636.0 L 656.0,632.0 L 651.0,631.0 L 649.0,629.0 L 645.0,621.0 L 655.0,595.0 Z" fill="#d6be99" />
  <path d="M 491.0,188.0 L 500.0,188.0 L 530.0,193.0 L 534.0,203.0 L 524.0,227.0 L 524.0,230.0 L 519.0,231.0 L 487.0,226.0 L 490.0,189.0 Z" fill="#e7caa2" />
  <path d="M 448.0,905.0 L 443.0,944.0 L 481.0,950.0 L 491.0,922.0 L 491.0,918.0 L 488.0,912.0 L 484.0,909.0 L 449.0,906.0 Z" fill="#e9ccaa" />
  <path d="M 300.0,31.0 L 339.0,32.0 L 341.0,35.0 L 335.0,63.0 L 335.0,69.0 L 334.0,72.0 L 330.0,72.0 L 297.0,68.0 L 293.0,61.0 L 293.0,57.0 L 300.0,32.0 Z" fill="#cbb58e" />
  <path d="M 419.0,90.0 L 457.0,96.0 L 461.0,105.0 L 454.0,122.0 L 451.0,134.0 L 427.0,132.0 L 413.0,129.0 L 415.0,100.0 L 416.0,93.0 L 418.0,91.0 Z" fill="#79734a" />
  <path d="M 154.0,150.0 L 193.0,156.0 L 197.0,164.0 L 197.0,169.0 L 188.0,192.0 L 182.0,193.0 L 150.0,188.0 L 150.0,174.0 L 153.0,151.0 Z" fill="#e8caa4" />
  <path d="M 500.0,478.0 L 537.0,481.0 L 535.0,518.0 L 533.0,520.0 L 526.0,520.0 L 498.0,516.0 L 494.0,514.0 L 490.0,504.0 L 500.0,479.0 Z" fill="#edcfaa" />
  <path d="M 273.0,945.0 L 311.0,949.0 L 316.0,959.0 L 316.0,962.0 L 308.0,980.0 L 307.0,987.0 L 305.0,987.0 L 304.0,985.0 L 278.0,985.0 L 269.0,983.0 L 272.0,946.0 L 300.0,987.0 L 273.0,945.0 Z" fill="#dec29f" />
  <path d="M 159.0,844.0 L 196.0,850.0 L 192.0,885.0 L 154.0,883.0 L 149.0,874.0 L 149.0,870.0 L 159.0,845.0 Z" fill="#efcfaa" />
  <path d="M 233.0,943.0 L 270.0,947.0 L 268.0,984.0 L 264.0,985.0 L 258.0,983.0 L 256.0,984.0 L 253.0,982.0 L 250.0,983.0 L 247.0,981.0 L 244.0,982.0 L 242.0,980.0 L 232.0,980.0 L 231.0,978.0 L 227.0,977.0 L 224.0,970.0 L 224.0,966.0 L 233.0,944.0 Z" fill="#e4c7a0" />
  <path d="M 535.0,202.0 L 571.0,208.0 L 570.0,226.0 L 566.0,246.0 L 535.0,243.0 L 529.0,241.0 L 524.0,231.0 L 535.0,202.0 Z" fill="#edcfa7" />
  <path d="M 426.0,379.0 L 466.0,385.0 L 463.0,400.0 L 464.0,402.0 L 462.0,409.0 L 462.0,420.0 L 458.0,423.0 L 453.0,423.0 L 422.0,418.0 L 417.0,408.0 L 417.0,405.0 L 426.0,380.0 Z" fill="#827c5e" />
  <path d="M 34.0,533.0 L 66.0,537.0 L 64.0,552.0 L 65.0,567.0 L 63.0,576.0 L 31.0,573.0 L 22.0,564.0 L 32.0,542.0 L 34.0,533.0 Z" fill="#e0c39a" />
  <path d="M 672.0,925.0 L 695.0,934.0 L 700.0,961.0 L 690.0,968.0 L 668.0,961.0 L 671.0,944.0 L 672.0,926.0 Z" fill="#dfc9b0" />
  <path d="M 531.0,0.0 L 581.0,0.0 L 570.0,12.0 L 562.0,24.0 L 535.0,11.0 L 531.0,1.0 Z" fill="#e3c39a" />
  <path d="M 309.0,269.0 L 348.0,274.0 L 353.0,282.0 L 343.0,311.0 L 305.0,307.0 L 309.0,270.0 Z" fill="#bca982" />
  <path d="M 380.0,770.0 L 417.0,773.0 L 419.0,774.0 L 423.0,783.0 L 413.0,813.0 L 379.0,808.0 L 376.0,807.0 L 376.0,800.0 L 380.0,771.0 Z" fill="#eacca8" />
  <path d="M 535.0,12.0 L 532.0,23.0 L 531.0,41.0 L 550.0,57.0 L 567.0,46.0 L 562.0,26.0 L 535.0,12.0 Z" fill="#e4c49a" />
  <path d="M 243.0,863.0 L 280.0,869.0 L 277.0,905.0 L 275.0,907.0 L 245.0,904.0 L 238.0,903.0 L 233.0,893.0 L 233.0,888.0 L 243.0,865.0 Z" fill="#eecea9" />
  <path d="M 455.0,463.0 L 494.0,465.0 L 495.0,470.0 L 499.0,476.0 L 499.0,479.0 L 489.0,504.0 L 452.0,499.0 L 453.0,479.0 L 455.0,473.0 L 455.0,464.0 L 489.0,505.0 L 455.0,463.0 Z" fill="#ccb695" />
  <path d="M 523.0,1004.0 L 556.0,1008.0 L 560.0,1009.0 L 561.0,1011.0 L 556.0,1047.0 L 516.0,1047.0 L 517.0,1031.0 L 523.0,1005.0 Z" fill="#dcbd96" />
  <path d="M 140.0,636.0 L 179.0,638.0 L 185.0,649.0 L 174.0,677.0 L 141.0,672.0 L 139.0,671.0 L 140.0,637.0 Z" fill="#9b906b" />
  <path d="M 448.0,542.0 L 466.0,544.0 L 485.0,544.0 L 489.0,556.0 L 479.0,583.0 L 444.0,577.0 L 443.0,567.0 L 447.0,543.0 L 442.0,576.0 L 479.0,584.0 L 448.0,542.0 Z" fill="#7e7752" />
  <path d="M 652.0,996.0 L 661.0,996.0 L 674.0,1000.0 L 688.0,1001.0 L 687.0,1025.0 L 683.0,1029.0 L 681.0,1029.0 L 647.0,1018.0 L 646.0,1014.0 L 652.0,997.0 L 645.0,1017.0 L 652.0,996.0 Z" fill="#eccba2" />
  <path d="M 224.0,654.0 L 263.0,658.0 L 266.0,667.0 L 266.0,673.0 L 257.0,697.0 L 221.0,692.0 L 224.0,655.0 L 220.0,692.0 L 224.0,654.0 Z" fill="#6f6840" />
  <path d="M 0.0,807.0 L 33.0,808.0 L 35.0,810.0 L 34.0,822.0 L 28.0,839.0 L 27.0,848.0 L 0.0,847.0 L 0.0,808.0 Z" fill="#d3b285" />
  <path d="M 374.0,128.0 L 413.0,130.0 L 410.0,159.0 L 408.0,169.0 L 405.0,170.0 L 369.0,163.0 L 365.0,153.0 L 374.0,129.0 Z" fill="#baab87" />
  <path d="M 679.0,235.0 L 681.0,235.0 L 692.0,247.0 L 685.0,268.0 L 680.0,269.0 L 668.0,266.0 L 652.0,265.0 L 651.0,262.0 L 654.0,240.0 L 678.0,236.0 L 684.0,270.0 L 679.0,235.0 Z" fill="#f0d0ab" />
  <path d="M 238.0,904.0 L 275.0,908.0 L 273.0,944.0 L 271.0,946.0 L 266.0,946.0 L 233.0,941.0 L 228.0,931.0 L 228.0,928.0 L 238.0,905.0 Z" fill="#eacca7" />
  <path d="M 632.0,104.0 L 622.0,133.0 L 628.0,143.0 L 650.0,146.0 L 658.0,135.0 L 674.0,119.0 L 675.0,115.0 L 671.0,109.0 L 638.0,106.0 L 632.0,104.0 Z" fill="#edcda8" />
  <path d="M 689.0,854.0 L 705.0,854.0 L 719.0,856.0 L 719.0,894.0 L 694.0,892.0 L 691.0,889.0 L 683.0,878.0 L 687.0,867.0 L 688.0,855.0 Z" fill="#f4d4af" />
  <path d="M 464.0,789.0 L 501.0,795.0 L 505.0,803.0 L 496.0,832.0 L 459.0,827.0 L 459.0,815.0 L 464.0,790.0 Z" fill="#efcfa9" />
  <path d="M 506.0,73.0 L 544.0,76.0 L 549.0,87.0 L 540.0,114.0 L 515.0,110.0 L 505.0,110.0 L 502.0,109.0 L 502.0,103.0 L 506.0,74.0 Z" fill="#e3c7a4" />
  <path d="M 0.0,287.0 L 4.0,287.0 L 23.0,312.0 L 30.0,324.0 L 0.0,341.0 L 0.0,288.0 Z" fill="#ccac7c" />
  <path d="M 710.0,500.0 L 719.0,500.0 L 719.0,538.0 L 687.0,534.0 L 683.0,525.0 L 683.0,523.0 L 687.0,519.0 L 709.0,501.0 Z" fill="#f1d1ac" />
  <path d="M 257.0,747.0 L 296.0,750.0 L 292.0,789.0 L 289.0,791.0 L 251.0,784.0 L 247.0,774.0 L 257.0,749.0 Z" fill="#a4543d" />
  <path d="M 165.0,440.0 L 204.0,444.0 L 209.0,454.0 L 199.0,484.0 L 162.0,477.0 L 165.0,441.0 L 161.0,477.0 L 165.0,440.0 Z" fill="#6f6841" />
  <path d="M 108.0,226.0 L 140.0,227.0 L 144.0,230.0 L 142.0,244.0 L 142.0,259.0 L 134.0,268.0 L 132.0,268.0 L 103.0,264.0 L 108.0,227.0 Z" fill="#e7c9a3" />
  <path d="M 226.0,48.0 L 209.0,59.0 L 205.0,78.0 L 205.0,83.0 L 208.0,89.0 L 237.0,91.0 L 246.0,90.0 L 251.0,55.0 L 227.0,49.0 Z" fill="#e2cdae" />
  <path d="M 0.0,443.0 L 17.0,445.0 L 34.0,444.0 L 41.0,455.0 L 32.0,481.0 L 0.0,480.0 L 0.0,444.0 Z" fill="#d0b082" />
  <path d="M 558.0,691.0 L 595.0,696.0 L 592.0,731.0 L 591.0,733.0 L 588.0,733.0 L 554.0,729.0 L 549.0,715.0 L 558.0,692.0 Z" fill="#e8ccab" />
  <path d="M 520.0,320.0 L 558.0,325.0 L 555.0,362.0 L 552.0,364.0 L 547.0,364.0 L 517.0,360.0 L 514.0,358.0 L 509.0,348.0 L 518.0,327.0 L 519.0,321.0 Z" fill="#6c643b" />
  <path d="M 32.0,574.0 L 63.0,577.0 L 63.0,587.0 L 61.0,590.0 L 62.0,592.0 L 60.0,594.0 L 58.0,614.0 L 46.0,614.0 L 21.0,612.0 L 22.0,603.0 L 27.0,594.0 L 32.0,575.0 Z" fill="#e4cdaf" />
  <path d="M 674.0,434.0 L 665.0,463.0 L 670.0,472.0 L 673.0,474.0 L 683.0,476.0 L 687.0,475.0 L 696.0,467.0 L 708.0,460.0 L 719.0,448.0 L 719.0,440.0 L 691.0,438.0 L 674.0,434.0 Z" fill="#f5d5b0" />
  <path d="M 138.0,672.0 L 175.0,678.0 L 180.0,688.0 L 170.0,715.0 L 167.0,716.0 L 131.0,712.0 L 135.0,675.0 L 137.0,673.0 Z" fill="#e8caa5" />
  <path d="M 301.0,346.0 L 305.0,346.0 L 308.0,348.0 L 312.0,346.0 L 316.0,348.0 L 336.0,350.0 L 339.0,351.0 L 343.0,357.0 L 343.0,361.0 L 333.0,388.0 L 298.0,382.0 L 301.0,347.0 Z" fill="#b3a684" />
  <path d="M 490.0,554.0 L 527.0,559.0 L 524.0,596.0 L 522.0,598.0 L 515.0,598.0 L 484.0,593.0 L 480.0,585.0 L 480.0,582.0 L 490.0,555.0 Z" fill="#6c6740" />
  <path d="M 160.0,111.0 L 197.0,116.0 L 202.0,126.0 L 202.0,129.0 L 192.0,154.0 L 155.0,149.0 L 156.0,115.0 L 159.0,112.0 Z" fill="#898055" />
  <path d="M 537.0,887.0 L 574.0,888.0 L 579.0,904.0 L 569.0,928.0 L 533.0,922.0 L 535.0,911.0 L 536.0,888.0 Z" fill="#efcfa8" />
  <path d="M 407.0,21.0 L 413.0,22.0 L 423.0,32.0 L 422.0,51.0 L 403.0,50.0 L 383.0,52.0 L 381.0,46.0 L 379.0,45.0 L 378.0,37.0 L 382.0,30.0 L 406.0,22.0 Z" fill="#ddcaac" />
  <path d="M 0.0,610.0 L 19.0,612.0 L 21.0,614.0 L 24.0,629.0 L 24.0,650.0 L 0.0,658.0 L 0.0,611.0 Z" fill="#dcbc8e" />
  <path d="M 90.0,1019.0 L 118.0,1028.0 L 120.0,1037.0 L 120.0,1047.0 L 88.0,1047.0 L 86.0,1024.0 L 89.0,1020.0 Z" fill="#ccab87" />
  <path d="M 30.0,888.0 L 58.0,891.0 L 63.0,894.0 L 68.0,903.0 L 58.0,929.0 L 22.0,928.0 L 26.0,902.0 L 26.0,890.0 L 29.0,889.0 Z" fill="#e7c79e" />
  <path d="M 18.0,203.0 L 26.0,203.0 L 29.0,207.0 L 27.0,231.0 L 25.0,238.0 L 0.0,234.0 L 0.0,205.0 L 9.0,206.0 L 17.0,204.0 Z" fill="#b99663" />
  <path d="M 235.0,576.0 L 247.0,578.0 L 272.0,579.0 L 276.0,587.0 L 277.0,593.0 L 267.0,619.0 L 230.0,613.0 L 235.0,576.0 Z" fill="#726c44" />
  <path d="M 149.0,189.0 L 187.0,194.0 L 192.0,204.0 L 183.0,227.0 L 170.0,230.0 L 144.0,229.0 L 143.0,223.0 L 148.0,199.0 L 148.0,190.0 Z" fill="#e9cba5" />
  <path d="M 325.0,423.0 L 329.0,423.0 L 335.0,437.0 L 335.0,440.0 L 326.0,459.0 L 308.0,455.0 L 301.0,452.0 L 296.0,453.0 L 295.0,451.0 L 289.0,450.0 L 289.0,424.0 L 324.0,424.0 Z" fill="#d5be9e" />
  <path d="M 676.0,556.0 L 679.0,556.0 L 694.0,569.0 L 690.0,595.0 L 656.0,595.0 L 649.0,583.0 L 656.0,561.0 L 675.0,557.0 Z" fill="#bfab86" />
  <path d="M 314.0,632.0 L 345.0,637.0 L 350.0,639.0 L 354.0,648.0 L 345.0,674.0 L 330.0,675.0 L 307.0,673.0 L 310.0,636.0 L 313.0,633.0 Z" fill="#b09e77" />
  <path d="M 383.0,366.0 L 421.0,370.0 L 425.0,378.0 L 425.0,381.0 L 416.0,407.0 L 378.0,403.0 L 382.0,367.0 Z" fill="#9a8e68" />
  <path d="M 476.0,306.0 L 514.0,308.0 L 519.0,320.0 L 509.0,347.0 L 508.0,348.0 L 472.0,343.0 L 475.0,307.0 Z" fill="#746c41" />
  <path d="M 32.0,968.0 L 49.0,972.0 L 54.0,979.0 L 48.0,1005.0 L 38.0,1005.0 L 30.0,1007.0 L 0.0,1003.0 L 0.0,987.0 L 31.0,969.0 Z" fill="#b6976c" />
  <path d="M 580.0,903.0 L 603.0,903.0 L 617.0,906.0 L 613.0,929.0 L 613.0,939.0 L 612.0,943.0 L 609.0,944.0 L 577.0,939.0 L 573.0,937.0 L 569.0,929.0 L 580.0,904.0 Z" fill="#efcfa8" />
  <path d="M 46.0,0.0 L 99.0,0.0 L 94.0,20.0 L 84.0,29.0 L 76.0,27.0 L 48.0,12.0 L 47.0,1.0 Z" fill="#cdaf83" />
  <path d="M 642.0,343.0 L 677.0,347.0 L 684.0,360.0 L 673.0,386.0 L 639.0,381.0 L 638.0,375.0 L 642.0,344.0 Z" fill="#efd0aa" />
  <path d="M 590.0,0.0 L 641.0,0.0 L 638.0,21.0 L 631.0,21.0 L 599.0,15.0 L 590.0,1.0 Z" fill="#e7c79d" />
  <path d="M 422.0,419.0 L 457.0,424.0 L 455.0,462.0 L 451.0,462.0 L 415.0,457.0 L 411.0,445.0 L 422.0,420.0 Z" fill="#887f52" />
  <path d="M 39.0,494.0 L 72.0,500.0 L 66.0,536.0 L 35.0,533.0 L 26.0,521.0 L 39.0,495.0 Z" fill="#e6c9a0" />
  <path d="M 197.0,572.0 L 234.0,576.0 L 229.0,614.0 L 227.0,615.0 L 190.0,609.0 L 186.0,602.0 L 186.0,597.0 L 196.0,573.0 Z" fill="#73704d" />
  <path d="M 103.0,265.0 L 131.0,268.0 L 135.0,270.0 L 141.0,289.0 L 141.0,293.0 L 137.0,301.0 L 136.0,307.0 L 109.0,304.0 L 102.0,305.0 L 98.0,303.0 L 101.0,287.0 L 102.0,266.0 Z" fill="#cdbe9f" />
  <path d="M 391.0,692.0 L 428.0,694.0 L 433.0,709.0 L 423.0,733.0 L 387.0,728.0 L 388.0,707.0 L 391.0,693.0 L 423.0,734.0 L 391.0,692.0 Z" fill="#e6caa7" />
  <path d="M 370.0,850.0 L 409.0,852.0 L 413.0,860.0 L 403.0,891.0 L 368.0,887.0 L 366.0,885.0 L 370.0,851.0 Z" fill="#e5c7a1" />
  <path d="M 297.0,69.0 L 329.0,72.0 L 335.0,74.0 L 330.0,110.0 L 327.0,111.0 L 318.0,109.0 L 307.0,109.0 L 291.0,106.0 L 287.0,98.0 L 287.0,95.0 L 296.0,70.0 Z" fill="#9c926d" />
  <path d="M 45.0,417.0 L 80.0,421.0 L 77.0,457.0 L 69.0,458.0 L 42.0,456.0 L 35.0,444.0 L 35.0,441.0 L 44.0,418.0 Z" fill="#e7c8a1" />
  <path d="M 186.0,650.0 L 223.0,654.0 L 222.0,677.0 L 220.0,682.0 L 219.0,693.0 L 190.0,690.0 L 180.0,687.0 L 175.0,677.0 L 185.0,651.0 Z" fill="#7d7952" />
  <path d="M 521.0,675.0 L 515.0,676.0 L 514.0,687.0 L 509.0,706.0 L 509.0,714.0 L 548.0,715.0 L 558.0,690.0 L 552.0,679.0 L 522.0,676.0 Z" fill="#dec5a3" />
  <path d="M 677.0,69.0 L 719.0,78.0 L 719.0,93.0 L 684.0,115.0 L 677.0,117.0 L 671.0,108.0 L 673.0,98.0 L 674.0,71.0 L 676.0,70.0 Z" fill="#ebcba6" />
  <path d="M 645.0,671.0 L 684.0,674.0 L 678.0,712.0 L 675.0,713.0 L 640.0,708.0 L 636.0,700.0 L 636.0,697.0 L 645.0,673.0 Z" fill="#f1d3ae" />
  <path d="M 359.0,243.0 L 396.0,249.0 L 393.0,281.0 L 392.0,286.0 L 360.0,282.0 L 359.0,283.0 L 353.0,281.0 L 349.0,272.0 L 359.0,244.0 L 392.0,287.0 L 359.0,243.0 Z" fill="#d6c0a0" />
  <path d="M 55.0,981.0 L 93.0,986.0 L 91.0,1017.0 L 86.0,1023.0 L 76.0,1023.0 L 53.0,1015.0 L 49.0,1007.0 L 49.0,1002.0 L 55.0,982.0 Z" fill="#b99d78" />
  <path d="M 456.0,145.0 L 495.0,149.0 L 492.0,172.0 L 492.0,184.0 L 489.0,189.0 L 486.0,189.0 L 452.0,184.0 L 447.0,173.0 L 456.0,146.0 Z" fill="#898456" />
  <path d="M 44.0,53.0 L 59.0,53.0 L 80.0,56.0 L 79.0,92.0 L 76.0,94.0 L 71.0,94.0 L 60.0,92.0 L 57.0,90.0 L 50.0,75.0 L 41.0,62.0 L 43.0,54.0 Z" fill="#dbbc95" />
  <path d="M 246.0,91.0 L 286.0,97.0 L 291.0,107.0 L 280.0,135.0 L 243.0,130.0 L 246.0,92.0 Z" fill="#7f7d50" />
  <path d="M 204.0,492.0 L 194.0,521.0 L 199.0,530.0 L 209.0,533.0 L 238.0,535.0 L 242.0,497.0 L 204.0,492.0 Z" fill="#736e4b" />
  <path d="M 610.0,983.0 L 633.0,985.0 L 647.0,984.0 L 651.0,994.0 L 644.0,1018.0 L 624.0,1013.0 L 608.0,1012.0 L 606.0,1011.0 L 606.0,1007.0 L 610.0,984.0 Z" fill="#c5a881" />
  <path d="M 169.0,766.0 L 207.0,771.0 L 202.0,808.0 L 165.0,805.0 L 160.0,794.0 L 160.0,791.0 L 169.0,767.0 Z" fill="#f0d0ab" />
  <path d="M 530.0,243.0 L 567.0,247.0 L 564.0,284.0 L 562.0,286.0 L 557.0,286.0 L 528.0,282.0 L 523.0,280.0 L 519.0,270.0 L 529.0,244.0 Z" fill="#eccea6" />
  <path d="M 540.0,164.0 L 574.0,166.0 L 579.0,168.0 L 574.0,197.0 L 574.0,205.0 L 573.0,207.0 L 567.0,207.0 L 536.0,202.0 L 534.0,200.0 L 530.0,192.0 L 540.0,165.0 Z" fill="#eccea7" />
  <path d="M 564.0,285.0 L 603.0,291.0 L 607.0,299.0 L 598.0,320.0 L 597.0,326.0 L 592.0,327.0 L 585.0,325.0 L 560.0,323.0 L 559.0,314.0 L 561.0,307.0 L 561.0,290.0 L 563.0,286.0 L 559.0,323.0 L 564.0,285.0 Z" fill="#e4ccad" />
  <path d="M 305.0,308.0 L 342.0,311.0 L 344.0,312.0 L 348.0,320.0 L 339.0,350.0 L 332.0,348.0 L 316.0,347.0 L 312.0,345.0 L 308.0,347.0 L 300.0,344.0 L 305.0,309.0 Z" fill="#c2b18f" />
  <path d="M 58.0,92.0 L 75.0,95.0 L 75.0,103.0 L 70.0,124.0 L 70.0,132.0 L 35.0,128.0 L 37.0,105.0 L 57.0,93.0 L 34.0,128.0 L 58.0,92.0 Z" fill="#e1c49a" />
  <path d="M 59.0,616.0 L 95.0,620.0 L 101.0,630.0 L 99.0,640.0 L 91.0,659.0 L 57.0,655.0 L 59.0,617.0 Z" fill="#e2c59e" />
</svg>